<?xml version="1.0" encoding="UTF-8"?>
<svg xmlns="http://www.w3.org/2000/svg" xmlns:xlink="http://www.w3.org/1999/xlink" width="125pt" height="125pt" viewBox="0 0 125 125" version="1.1">
<g id="surface1">
<path style=" stroke:none;fill-rule:evenodd;fill:rgb(97.647059%,97.647059%,97.647059%);fill-opacity:1;" d="M 24.726562 46.777344 C 22.460938 47.144531 21.03125 48.1875 20.09375 50.164062 C 19.585938 51.230469 19.484375 52.300781 19.484375 56.734375 C 19.480469 58.792969 19.429688 60.355469 19.367188 60.398438 C 19.300781 60.4375 19.210938 60.640625 19.167969 60.851562 C 19.070312 61.292969 18.230469 61.96875 17.777344 61.96875 C 17.488281 61.96875 17.484375 61.984375 17.484375 63.28125 C 17.484375 64.382812 17.515625 64.597656 17.675781 64.597656 C 18.210938 64.597656 18.878906 65.121094 19.164062 65.761719 C 19.441406 66.390625 19.453125 66.5625 19.507812 70.792969 C 19.566406 75.015625 19.578125 75.203125 19.859375 75.925781 C 20.941406 78.703125 22.824219 79.863281 26.257812 79.867188 L 27.730469 79.871094 L 27.695312 78.335938 L 27.660156 76.804688 L 26.148438 76.742188 C 23.15625 76.617188 23.0625 76.425781 22.96875 70.292969 C 22.894531 65.070312 22.839844 64.710938 22.015625 63.910156 C 21.769531 63.667969 21.515625 63.46875 21.460938 63.46875 C 21.21875 63.46875 21.378906 63.132812 21.71875 62.933594 C 22.765625 62.3125 22.886719 61.667969 22.96875 56.273438 C 23.0625 50.121094 23.148438 49.949219 26.179688 49.847656 L 27.730469 49.792969 L 27.695312 48.277344 L 27.660156 46.757812 L 26.347656 46.742188 C 25.628906 46.734375 24.898438 46.75 24.726562 46.777344 M 97.652344 48.261719 L 97.652344 49.824219 L 98.808594 49.828125 C 100.714844 49.832031 101.253906 50.050781 101.960938 51.089844 L 102.335938 51.640625 L 102.40625 56.335938 C 102.484375 61.777344 102.628906 62.5 103.722656 63 C 104.109375 63.175781 104.101562 63.386719 103.699219 63.601562 C 102.601562 64.191406 102.480469 64.804688 102.402344 70.230469 L 102.335938 74.925781 L 102.007812 75.425781 C 101.265625 76.554688 100.835938 76.742188 98.933594 76.742188 L 97.652344 76.742188 L 97.652344 79.871094 L 99.082031 79.871094 C 102.054688 79.871094 103.804688 79 105 76.933594 C 105.65625 75.804688 105.683594 75.59375 105.769531 70.792969 C 105.863281 65.5 105.964844 65.097656 107.289062 64.703125 L 107.765625 64.558594 L 107.765625 62 L 107.421875 61.929688 C 106.003906 61.644531 105.847656 61.078125 105.761719 55.832031 C 105.671875 50.441406 105.574219 50.03125 104.007812 48.425781 C 102.78125 47.167969 101.382812 46.699219 98.871094 46.695312 L 97.652344 46.695312 L 97.652344 48.261719 M 83.261719 48.25 C 81.226562 48.796875 80.570312 51.527344 82.125 52.972656 C 83.078125 53.859375 84.574219 53.996094 85.617188 53.300781 C 88.34375 51.472656 86.4375 47.390625 83.261719 48.25 M 44.707031 55.542969 C 42.660156 55.878906 41.074219 56.5 39.421875 57.617188 C 38.457031 58.265625 38.457031 58.203125 39.410156 59.878906 C 40.324219 61.492188 40.292969 61.464844 40.792969 61.042969 C 43.003906 59.179688 46.761719 58.777344 48.675781 60.199219 C 49.507812 60.816406 49.734375 61.429688 49.800781 63.234375 C 49.863281 65.035156 49.808594 65.140625 49.148438 64.464844 C 47.324219 62.601562 42.359375 62.269531 40.019531 63.855469 C 36.308594 66.367188 36.804688 72.15625 40.898438 74.058594 C 43.460938 75.25 46.824219 74.828125 49.019531 73.039062 C 49.875 72.339844 49.824219 72.316406 49.824219 73.421875 L 49.824219 74.363281 L 54.585938 74.363281 L 54.539062 67.570312 C 54.484375 59.390625 54.433594 59.132812 52.492188 57.324219 C 50.96875 55.90625 47.429688 55.097656 44.707031 55.542969 M 67.871094 55.753906 C 66.652344 56.167969 66.027344 56.535156 65.117188 57.367188 C 64.136719 58.269531 64.1875 58.289062 64.1875 57.023438 L 64.1875 55.957031 L 59.441406 55.957031 L 59.441406 81.371094 L 64.1875 81.371094 L 64.1875 76.742188 C 64.1875 74.191406 64.226562 72.109375 64.277344 72.109375 C 64.324219 72.109375 64.675781 72.414062 65.054688 72.785156 C 67.800781 75.480469 72.671875 75.382812 75.425781 72.578125 C 79.078125 68.863281 78.949219 60.84375 75.183594 57.371094 C 73.390625 55.714844 70.109375 54.992188 67.871094 55.753906 M 81.699219 65.128906 L 81.730469 74.300781 L 86.476562 74.300781 L 86.539062 55.957031 L 81.667969 55.957031 L 81.699219 65.128906 M 69.816406 59.847656 C 73.898438 61.136719 74.351562 68.023438 70.492188 70.085938 C 68.90625 70.933594 66.195312 70.425781 64.761719 69.007812 L 64.1875 68.441406 L 64.1875 61.757812 L 64.652344 61.289062 C 65.9375 60 68.25 59.355469 69.816406 59.847656 M 47.96875 66.335938 C 48.359375 66.484375 48.933594 66.835938 49.25 67.117188 L 49.824219 67.621094 L 49.824219 68.734375 C 49.824219 70.726562 47.789062 71.882812 44.988281 71.488281 C 41.644531 71.011719 41.351562 67.144531 44.582031 66.085938 C 45.175781 65.890625 47.210938 66.039062 47.96875 66.335938 "/>
<path style=" stroke:none;fill-rule:evenodd;fill:rgb(4.705882%,7.843137%,10.980392%);fill-opacity:1;" d="M 58.066406 0.484375 C 58.066406 0.542969 57.378906 0.628906 56.539062 0.675781 C 55.695312 0.726562 54.640625 0.820312 54.195312 0.890625 C 53.75 0.957031 52.933594 1.074219 52.386719 1.152344 C 51.835938 1.226562 51.359375 1.332031 51.324219 1.378906 C 51.289062 1.429688 50.683594 1.542969 49.980469 1.632812 C 49.277344 1.71875 48.703125 1.832031 48.703125 1.882812 C 48.703125 1.933594 48.25 2.042969 47.703125 2.128906 C 47.152344 2.214844 46.703125 2.324219 46.703125 2.367188 C 46.703125 2.414062 46.28125 2.527344 45.765625 2.621094 C 45.25 2.710938 44.832031 2.832031 44.832031 2.886719 C 44.832031 2.9375 44.605469 3.019531 44.332031 3.066406 C 44.054688 3.113281 43.832031 3.191406 43.832031 3.238281 C 43.832031 3.285156 43.484375 3.390625 43.0625 3.46875 C 42.640625 3.550781 42.261719 3.667969 42.21875 3.734375 C 42.179688 3.796875 41.820312 3.921875 41.425781 4.011719 C 41.03125 4.097656 40.710938 4.210938 40.710938 4.261719 C 40.710938 4.308594 40.53125 4.386719 40.316406 4.429688 C 40.097656 4.472656 39.691406 4.617188 39.410156 4.746094 C 38.082031 5.367188 37.742188 5.507812 37.546875 5.507812 C 37.433594 5.507812 37.335938 5.554688 37.335938 5.613281 C 37.335938 5.671875 37.113281 5.792969 36.839844 5.882812 C 36.5625 5.976562 36.339844 6.085938 36.339844 6.132812 C 36.339844 6.179688 36.113281 6.289062 35.839844 6.371094 C 35.5625 6.453125 35.339844 6.570312 35.339844 6.628906 C 35.339844 6.691406 35.171875 6.777344 34.964844 6.824219 C 34.757812 6.867188 34.589844 6.949219 34.589844 7 C 34.589844 7.054688 34.367188 7.171875 34.089844 7.261719 C 33.816406 7.351562 33.589844 7.464844 33.589844 7.511719 C 33.589844 7.558594 33.367188 7.671875 33.09375 7.761719 C 32.816406 7.851562 32.59375 7.964844 32.59375 8.007812 C 32.59375 8.054688 32.394531 8.167969 32.15625 8.261719 C 31.914062 8.355469 31.71875 8.472656 31.71875 8.523438 C 31.71875 8.570312 31.578125 8.644531 31.40625 8.691406 C 31.234375 8.734375 31.09375 8.820312 31.09375 8.882812 C 31.09375 8.941406 30.898438 9.058594 30.65625 9.140625 C 30.417969 9.21875 30.21875 9.328125 30.21875 9.382812 C 30.21875 9.4375 30.039062 9.558594 29.8125 9.648438 C 29.589844 9.738281 29.363281 9.886719 29.308594 9.976562 C 29.253906 10.066406 29.152344 10.140625 29.085938 10.140625 C 28.960938 10.140625 28.3125 10.570312 28.007812 10.851562 C 27.917969 10.933594 27.734375 11.035156 27.597656 11.078125 C 27.460938 11.121094 27.347656 11.203125 27.347656 11.261719 C 27.347656 11.316406 27.179688 11.433594 26.972656 11.515625 C 26.765625 11.601562 26.597656 11.722656 26.597656 11.785156 C 26.597656 11.847656 26.457031 11.953125 26.285156 12.019531 C 26.113281 12.082031 25.972656 12.195312 25.972656 12.265625 C 25.972656 12.335938 25.886719 12.394531 25.78125 12.394531 C 25.675781 12.394531 25.5625 12.472656 25.523438 12.570312 C 25.488281 12.667969 25.292969 12.816406 25.089844 12.898438 C 24.890625 12.980469 24.726562 13.101562 24.726562 13.164062 C 24.726562 13.226562 24.585938 13.328125 24.414062 13.394531 C 24.242188 13.460938 24.101562 13.5625 24.101562 13.621094 C 24.101562 13.679688 23.949219 13.808594 23.761719 13.90625 C 23.574219 14.003906 23.257812 14.265625 23.0625 14.492188 C 22.863281 14.714844 22.652344 14.898438 22.589844 14.898438 C 22.402344 14.898438 16.109375 21.019531 16.109375 21.199219 C 16.109375 21.246094 15.882812 21.507812 15.609375 21.78125 C 15.335938 22.058594 15.109375 22.359375 15.109375 22.449219 C 15.109375 22.542969 14.976562 22.6875 14.8125 22.777344 C 14.648438 22.863281 14.4375 23.082031 14.34375 23.261719 C 14.25 23.441406 14.019531 23.738281 13.828125 23.917969 C 13.640625 24.101562 13.488281 24.316406 13.488281 24.394531 C 13.488281 24.472656 13.375 24.605469 13.238281 24.691406 C 13.097656 24.777344 12.988281 24.894531 12.988281 24.957031 C 12.988281 25.0625 12.546875 25.652344 12.175781 26.050781 C 12.070312 26.160156 11.988281 26.3125 11.988281 26.386719 C 11.988281 26.464844 11.917969 26.574219 11.832031 26.628906 C 11.746094 26.683594 11.589844 26.898438 11.488281 27.101562 C 11.386719 27.308594 11.230469 27.523438 11.144531 27.578125 C 11.058594 27.632812 10.988281 27.734375 10.988281 27.804688 C 10.988281 27.925781 10.5625 28.578125 10.277344 28.882812 C 10.199219 28.972656 10.09375 29.15625 10.050781 29.292969 C 10.007812 29.433594 9.929688 29.542969 9.878906 29.542969 C 9.828125 29.542969 9.710938 29.742188 9.617188 29.984375 C 9.519531 30.222656 9.402344 30.421875 9.351562 30.421875 C 9.300781 30.421875 9.1875 30.617188 9.097656 30.859375 C 9.011719 31.101562 8.894531 31.296875 8.839844 31.296875 C 8.785156 31.296875 8.742188 31.378906 8.742188 31.480469 C 8.742188 31.578125 8.664062 31.707031 8.570312 31.761719 C 8.476562 31.816406 8.332031 32.070312 8.25 32.328125 C 8.164062 32.589844 8.050781 32.800781 7.992188 32.800781 C 7.933594 32.800781 7.851562 32.96875 7.804688 33.175781 C 7.757812 33.378906 7.652344 33.589844 7.5625 33.644531 C 7.476562 33.695312 7.335938 33.949219 7.25 34.207031 C 7.167969 34.464844 7.050781 34.675781 6.992188 34.675781 C 6.933594 34.675781 6.851562 34.847656 6.804688 35.050781 C 6.761719 35.257812 6.683594 35.429688 6.632812 35.429688 C 6.585938 35.429688 6.476562 35.683594 6.394531 35.992188 C 6.3125 36.300781 6.195312 36.554688 6.132812 36.554688 C 6.070312 36.554688 5.945312 36.835938 5.855469 37.179688 C 5.769531 37.523438 5.65625 37.808594 5.609375 37.808594 C 5.5625 37.808594 5.449219 38.058594 5.355469 38.371094 C 5.265625 38.679688 5.148438 38.933594 5.097656 38.933594 C 5.046875 38.933594 4.96875 39.128906 4.925781 39.371094 C 4.878906 39.613281 4.796875 39.808594 4.742188 39.808594 C 4.683594 39.808594 4.570312 40.121094 4.484375 40.5 C 4.398438 40.878906 4.289062 41.1875 4.234375 41.1875 C 4.183594 41.1875 4.070312 41.496094 3.984375 41.875 C 3.902344 42.253906 3.792969 42.5625 3.742188 42.5625 C 3.695312 42.5625 3.585938 42.902344 3.496094 43.316406 C 3.410156 43.726562 3.296875 44.066406 3.246094 44.066406 C 3.195312 44.066406 3.117188 44.347656 3.070312 44.691406 C 3.027344 45.035156 2.941406 45.316406 2.886719 45.316406 C 2.828125 45.316406 2.714844 45.742188 2.628906 46.257812 C 2.546875 46.773438 2.433594 47.195312 2.375 47.195312 C 2.320312 47.195312 2.207031 47.675781 2.121094 48.261719 C 2.039062 48.84375 1.929688 49.324219 1.875 49.324219 C 1.824219 49.324219 1.707031 49.945312 1.617188 50.699219 C 1.527344 51.457031 1.414062 52.078125 1.363281 52.078125 C 1.3125 52.078125 1.234375 52.570312 1.191406 53.171875 C 1.144531 53.777344 1.054688 54.382812 0.992188 54.519531 C 0.515625 55.566406 0.519531 70.164062 1 70.792969 C 1.050781 70.863281 1.132812 71.410156 1.183594 72.015625 C 1.230469 72.617188 1.3125 73.109375 1.363281 73.109375 C 1.414062 73.109375 1.527344 73.730469 1.617188 74.488281 C 1.707031 75.246094 1.820312 75.863281 1.871094 75.863281 C 1.917969 75.863281 2.027344 76.34375 2.117188 76.929688 C 2.203125 77.511719 2.3125 77.992188 2.359375 77.992188 C 2.410156 77.992188 2.519531 78.414062 2.605469 78.929688 C 2.691406 79.449219 2.808594 79.871094 2.863281 79.871094 C 2.917969 79.871094 3.003906 80.152344 3.046875 80.496094 C 3.09375 80.839844 3.175781 81.121094 3.234375 81.121094 C 3.289062 81.121094 3.410156 81.460938 3.496094 81.875 C 3.585938 82.285156 3.695312 82.625 3.746094 82.625 C 3.796875 82.625 3.910156 82.960938 3.996094 83.375 C 4.082031 83.789062 4.195312 84.125 4.242188 84.125 C 4.292969 84.125 4.40625 84.4375 4.496094 84.816406 C 4.585938 85.195312 4.703125 85.503906 4.757812 85.503906 C 4.8125 85.503906 4.894531 85.699219 4.941406 85.941406 C 4.984375 86.183594 5.066406 86.378906 5.121094 86.378906 C 5.175781 86.378906 5.289062 86.660156 5.371094 87.003906 C 5.453125 87.351562 5.566406 87.632812 5.625 87.632812 C 5.6875 87.632812 5.804688 87.871094 5.890625 88.164062 C 5.972656 88.457031 6.082031 88.722656 6.125 88.757812 C 6.171875 88.792969 6.277344 89.03125 6.359375 89.289062 C 6.445312 89.546875 6.558594 89.757812 6.617188 89.757812 C 6.675781 89.757812 6.761719 89.929688 6.804688 90.136719 C 6.851562 90.34375 6.9375 90.511719 6.996094 90.511719 C 7.058594 90.511719 7.175781 90.734375 7.257812 91.011719 C 7.339844 91.289062 7.445312 91.511719 7.492188 91.511719 C 7.539062 91.511719 7.652344 91.734375 7.738281 92.007812 C 7.828125 92.277344 7.972656 92.527344 8.0625 92.5625 C 8.148438 92.59375 8.257812 92.796875 8.300781 93.007812 C 8.347656 93.21875 8.4375 93.390625 8.5 93.390625 C 8.566406 93.390625 8.617188 93.464844 8.617188 93.558594 C 8.617188 93.652344 8.730469 93.859375 8.871094 94.019531 C 9.007812 94.179688 9.15625 94.441406 9.195312 94.601562 C 9.234375 94.761719 9.3125 94.890625 9.363281 94.890625 C 9.417969 94.890625 9.53125 95.0625 9.617188 95.269531 C 9.699219 95.476562 9.8125 95.644531 9.867188 95.644531 C 9.921875 95.644531 10.023438 95.8125 10.097656 96.019531 C 10.167969 96.226562 10.28125 96.394531 10.34375 96.394531 C 10.410156 96.394531 10.496094 96.523438 10.535156 96.683594 C 10.597656 96.941406 10.71875 97.121094 11.238281 97.734375 C 11.308594 97.820312 11.429688 98.03125 11.507812 98.207031 C 11.589844 98.378906 11.699219 98.523438 11.757812 98.523438 C 11.816406 98.523438 11.863281 98.605469 11.863281 98.710938 C 11.863281 98.8125 11.976562 98.964844 12.113281 99.054688 C 12.25 99.140625 12.363281 99.257812 12.363281 99.316406 C 12.363281 99.421875 12.804688 100.015625 13.175781 100.410156 C 13.277344 100.519531 13.363281 100.675781 13.363281 100.757812 C 13.363281 100.84375 13.445312 100.941406 13.542969 100.980469 C 13.644531 101.019531 13.757812 101.148438 13.796875 101.273438 C 13.835938 101.394531 14.09375 101.742188 14.367188 102.042969 C 14.640625 102.34375 15.035156 102.777344 15.238281 103.003906 C 15.441406 103.226562 15.609375 103.453125 15.609375 103.503906 C 15.609375 103.554688 15.917969 103.890625 16.296875 104.25 C 16.675781 104.609375 16.984375 104.953125 16.984375 105.011719 C 16.984375 105.136719 20.207031 108.414062 20.335938 108.414062 C 20.417969 108.414062 21.65625 109.527344 22.488281 110.347656 C 22.734375 110.59375 22.988281 110.792969 23.050781 110.792969 C 23.113281 110.792969 23.296875 110.9375 23.457031 111.105469 C 23.621094 111.277344 23.816406 111.417969 23.898438 111.417969 C 23.976562 111.417969 24.109375 111.53125 24.195312 111.667969 C 24.28125 111.804688 24.421875 111.917969 24.507812 111.917969 C 24.59375 111.917969 24.804688 112.085938 24.976562 112.292969 C 25.144531 112.5 25.355469 112.667969 25.445312 112.667969 C 25.535156 112.667969 25.640625 112.753906 25.679688 112.855469 C 25.71875 112.960938 25.820312 113.042969 25.902344 113.042969 C 25.984375 113.042969 26.160156 113.148438 26.292969 113.269531 C 26.425781 113.394531 26.71875 113.578125 26.941406 113.675781 C 27.164062 113.777344 27.347656 113.902344 27.347656 113.953125 C 27.347656 114.007812 27.488281 114.105469 27.660156 114.171875 C 27.832031 114.238281 27.972656 114.347656 27.972656 114.417969 C 27.972656 114.488281 28.054688 114.546875 28.152344 114.546875 C 28.253906 114.546875 28.378906 114.617188 28.433594 114.703125 C 28.488281 114.789062 28.703125 114.945312 28.910156 115.046875 C 29.113281 115.152344 29.324219 115.300781 29.378906 115.382812 C 29.429688 115.464844 29.636719 115.566406 29.835938 115.609375 C 30.035156 115.652344 30.226562 115.765625 30.261719 115.859375 C 30.296875 115.949219 30.496094 116.0625 30.699219 116.109375 C 30.90625 116.152344 31.105469 116.269531 31.140625 116.371094 C 31.179688 116.46875 31.296875 116.550781 31.402344 116.550781 C 31.507812 116.550781 31.59375 116.601562 31.59375 116.667969 C 31.59375 116.730469 31.71875 116.824219 31.875 116.871094 C 32.027344 116.921875 32.285156 117.0625 32.441406 117.183594 C 32.601562 117.308594 32.894531 117.445312 33.097656 117.492188 C 33.300781 117.535156 33.464844 117.621094 33.464844 117.683594 C 33.464844 117.742188 33.691406 117.859375 33.964844 117.941406 C 34.242188 118.023438 34.464844 118.140625 34.464844 118.199219 C 34.464844 118.253906 34.546875 118.300781 34.644531 118.300781 C 34.742188 118.300781 34.898438 118.378906 34.992188 118.472656 C 35.082031 118.566406 35.367188 118.710938 35.625 118.792969 C 35.878906 118.878906 36.089844 118.996094 36.089844 119.050781 C 36.089844 119.109375 36.371094 119.226562 36.714844 119.316406 C 37.054688 119.40625 37.335938 119.511719 37.335938 119.558594 C 37.335938 119.601562 37.5625 119.714844 37.835938 119.804688 C 38.113281 119.894531 38.335938 120.011719 38.335938 120.0625 C 38.335938 120.113281 38.535156 120.191406 38.773438 120.234375 C 39.015625 120.28125 39.210938 120.363281 39.210938 120.417969 C 39.210938 120.472656 39.519531 120.589844 39.898438 120.679688 C 40.273438 120.773438 40.585938 120.882812 40.585938 120.933594 C 40.585938 120.980469 40.894531 121.089844 41.269531 121.183594 C 41.648438 121.273438 41.957031 121.386719 41.957031 121.433594 C 41.957031 121.484375 42.296875 121.59375 42.707031 121.683594 C 43.121094 121.769531 43.457031 121.890625 43.457031 121.945312 C 43.457031 122.003906 43.738281 122.085938 44.082031 122.132812 C 44.425781 122.179688 44.707031 122.257812 44.707031 122.3125 C 44.707031 122.363281 45.070312 122.476562 45.515625 122.558594 C 45.964844 122.644531 46.328125 122.753906 46.328125 122.800781 C 46.328125 122.851562 46.777344 122.964844 47.328125 123.050781 C 47.878906 123.140625 48.355469 123.257812 48.390625 123.3125 C 48.421875 123.363281 49.011719 123.480469 49.699219 123.566406 C 50.386719 123.65625 50.949219 123.769531 50.949219 123.820312 C 50.949219 123.871094 51.382812 123.957031 51.917969 124.003906 C 52.449219 124.054688 52.914062 124.136719 52.945312 124.1875 C 52.980469 124.242188 53.9375 124.355469 55.070312 124.445312 C 56.203125 124.535156 57.171875 124.667969 57.21875 124.738281 C 57.339844 124.921875 67.78125 124.925781 67.90625 124.742188 C 67.953125 124.667969 68.941406 124.539062 70.113281 124.453125 C 71.28125 124.367188 72.265625 124.25 72.300781 124.195312 C 72.335938 124.144531 72.757812 124.058594 73.234375 124.011719 C 73.714844 123.964844 74.136719 123.878906 74.171875 123.820312 C 74.207031 123.765625 74.8125 123.644531 75.519531 123.558594 C 76.222656 123.46875 76.796875 123.355469 76.796875 123.304688 C 76.796875 123.257812 77.246094 123.144531 77.796875 123.058594 C 78.347656 122.972656 78.796875 122.859375 78.796875 122.804688 C 78.796875 122.75 79.191406 122.640625 79.671875 122.558594 C 80.152344 122.476562 80.542969 122.367188 80.542969 122.3125 C 80.542969 122.257812 80.796875 122.175781 81.105469 122.128906 C 81.414062 122.082031 81.667969 121.996094 81.667969 121.941406 C 81.667969 121.882812 82.035156 121.765625 82.480469 121.683594 C 82.925781 121.597656 83.292969 121.492188 83.292969 121.445312 C 83.292969 121.398438 83.558594 121.285156 83.886719 121.191406 C 84.210938 121.097656 84.535156 120.980469 84.601562 120.933594 C 84.671875 120.882812 84.996094 120.765625 85.320312 120.671875 C 85.648438 120.578125 85.914062 120.460938 85.914062 120.410156 C 85.914062 120.359375 86.109375 120.28125 86.351562 120.234375 C 86.589844 120.191406 86.789062 120.109375 86.789062 120.054688 C 86.789062 120 87.070312 119.882812 87.414062 119.792969 C 87.757812 119.703125 88.035156 119.597656 88.035156 119.550781 C 88.035156 119.507812 88.261719 119.394531 88.535156 119.304688 C 88.8125 119.214844 89.035156 119.101562 89.035156 119.054688 C 89.035156 119.007812 89.261719 118.894531 89.535156 118.804688 C 89.808594 118.710938 90.035156 118.59375 90.035156 118.542969 C 90.035156 118.492188 90.203125 118.410156 90.410156 118.367188 C 90.617188 118.320312 90.785156 118.234375 90.785156 118.171875 C 90.785156 118.113281 91.007812 117.996094 91.285156 117.914062 C 91.558594 117.828125 91.78125 117.71875 91.78125 117.660156 C 91.78125 117.605469 92.007812 117.492188 92.28125 117.410156 C 92.558594 117.328125 92.78125 117.226562 92.78125 117.1875 C 92.78125 117.144531 92.964844 117.03125 93.1875 116.933594 C 93.410156 116.832031 93.667969 116.679688 93.757812 116.589844 C 93.851562 116.5 94.003906 116.425781 94.101562 116.425781 C 94.199219 116.425781 94.28125 116.371094 94.28125 116.308594 C 94.28125 116.242188 94.476562 116.121094 94.71875 116.03125 C 94.957031 115.945312 95.15625 115.828125 95.15625 115.769531 C 95.15625 115.714844 95.296875 115.613281 95.46875 115.546875 C 95.640625 115.484375 95.78125 115.382812 95.78125 115.328125 C 95.78125 115.269531 95.976562 115.152344 96.214844 115.066406 C 96.457031 114.976562 96.652344 114.855469 96.652344 114.789062 C 96.652344 114.726562 96.738281 114.671875 96.84375 114.671875 C 96.949219 114.671875 97.066406 114.585938 97.109375 114.484375 C 97.148438 114.382812 97.242188 114.296875 97.320312 114.296875 C 97.402344 114.296875 97.628906 114.152344 97.832031 113.980469 C 98.035156 113.804688 98.324219 113.632812 98.476562 113.59375 C 98.632812 113.554688 98.789062 113.445312 98.824219 113.347656 C 98.863281 113.25 98.976562 113.171875 99.078125 113.171875 C 99.183594 113.171875 99.328125 113.058594 99.402344 112.917969 C 99.472656 112.78125 99.617188 112.667969 99.722656 112.667969 C 99.824219 112.667969 99.9375 112.585938 99.976562 112.484375 C 100.015625 112.386719 100.152344 112.269531 100.28125 112.226562 C 100.496094 112.160156 100.972656 111.769531 101.722656 111.042969 C 101.867188 110.90625 102.042969 110.792969 102.109375 110.792969 C 102.175781 110.792969 102.410156 110.59375 102.628906 110.351562 C 102.847656 110.113281 103.074219 109.914062 103.132812 109.914062 C 103.191406 109.914062 103.554688 109.605469 103.941406 109.226562 C 104.328125 108.847656 104.675781 108.539062 104.714844 108.539062 C 104.8125 108.539062 108.390625 104.933594 108.390625 104.835938 C 108.390625 104.792969 108.699219 104.445312 109.078125 104.066406 C 109.457031 103.6875 109.765625 103.332031 109.765625 103.273438 C 109.765625 103.214844 109.960938 102.976562 110.203125 102.742188 C 110.441406 102.507812 110.640625 102.273438 110.640625 102.21875 C 110.640625 102.164062 110.765625 101.996094 110.921875 101.84375 C 111.074219 101.695312 111.296875 101.433594 111.414062 101.265625 C 111.816406 100.695312 112.074219 100.371094 112.292969 100.171875 C 112.414062 100.058594 112.511719 99.894531 112.511719 99.804688 C 112.511719 99.714844 112.597656 99.609375 112.699219 99.570312 C 112.804688 99.53125 112.886719 99.421875 112.886719 99.332031 C 112.886719 99.238281 112.992188 99.089844 113.117188 99 C 113.246094 98.910156 113.390625 98.710938 113.4375 98.554688 C 113.488281 98.402344 113.59375 98.203125 113.675781 98.117188 C 113.757812 98.03125 113.992188 97.707031 114.199219 97.394531 C 114.402344 97.085938 114.601562 96.804688 114.636719 96.769531 C 114.671875 96.734375 114.78125 96.539062 114.886719 96.332031 C 114.988281 96.125 115.140625 95.910156 115.226562 95.855469 C 115.3125 95.800781 115.382812 95.683594 115.382812 95.59375 C 115.382812 95.503906 115.496094 95.300781 115.632812 95.144531 C 115.773438 94.984375 115.882812 94.785156 115.882812 94.703125 C 115.882812 94.574219 115.996094 94.410156 116.5 93.808594 C 116.570312 93.726562 116.660156 93.515625 116.703125 93.335938 C 116.75 93.15625 116.855469 92.96875 116.941406 92.917969 C 117.027344 92.867188 117.164062 92.617188 117.25 92.359375 C 117.332031 92.097656 117.445312 91.886719 117.5 91.886719 C 117.554688 91.886719 117.671875 91.632812 117.757812 91.324219 C 117.84375 91.015625 117.960938 90.761719 118.019531 90.761719 C 118.078125 90.761719 118.164062 90.621094 118.207031 90.449219 C 118.25 90.277344 118.324219 90.136719 118.375 90.136719 C 118.425781 90.136719 118.539062 89.910156 118.632812 89.632812 C 118.722656 89.359375 118.835938 89.132812 118.886719 89.132812 C 118.933594 89.132812 119.046875 88.867188 119.140625 88.539062 C 119.230469 88.210938 119.375 87.871094 119.460938 87.785156 C 119.550781 87.695312 119.65625 87.429688 119.703125 87.191406 C 119.746094 86.949219 119.828125 86.753906 119.882812 86.753906 C 119.941406 86.753906 120.023438 86.585938 120.066406 86.378906 C 120.113281 86.171875 120.191406 86.003906 120.246094 86.003906 C 120.296875 86.003906 120.410156 85.695312 120.492188 85.316406 C 120.578125 84.9375 120.695312 84.628906 120.753906 84.628906 C 120.808594 84.628906 120.894531 84.402344 120.941406 84.125 C 120.988281 83.847656 121.097656 83.550781 121.183594 83.464844 C 121.269531 83.378906 121.414062 82.925781 121.507812 82.464844 C 121.597656 82 121.714844 81.621094 121.765625 81.621094 C 121.816406 81.621094 121.894531 81.398438 121.941406 81.121094 C 121.988281 80.847656 122.070312 80.621094 122.128906 80.621094 C 122.1875 80.621094 122.300781 80.199219 122.386719 79.683594 C 122.46875 79.164062 122.574219 78.742188 122.621094 78.742188 C 122.667969 78.742188 122.78125 78.277344 122.871094 77.710938 C 122.964844 77.140625 123.082031 76.648438 123.140625 76.613281 C 123.195312 76.574219 123.308594 76.027344 123.394531 75.390625 C 123.476562 74.757812 123.585938 74.238281 123.636719 74.238281 C 123.683594 74.238281 123.765625 73.785156 123.8125 73.234375 C 123.863281 72.683594 123.945312 72.234375 123.996094 72.234375 C 124.089844 72.234375 124.375 69.214844 124.375 68.199219 C 124.375 67.867188 124.4375 67.601562 124.523438 67.574219 C 124.734375 67.503906 124.730469 57.683594 124.519531 57.613281 C 124.4375 57.585938 124.375 57.304688 124.375 56.9375 C 124.375 55.996094 124.105469 53.285156 124 53.140625 C 123.949219 53.074219 123.867188 52.582031 123.816406 52.046875 C 123.769531 51.511719 123.6875 51.078125 123.636719 51.078125 C 123.585938 51.078125 123.46875 50.511719 123.382812 49.824219 C 123.296875 49.136719 123.183594 48.574219 123.132812 48.574219 C 123.082031 48.574219 122.96875 48.09375 122.878906 47.507812 C 122.785156 46.921875 122.675781 46.445312 122.628906 46.445312 C 122.585938 46.445312 122.472656 46.066406 122.382812 45.601562 C 122.292969 45.136719 122.175781 44.699219 122.121094 44.628906 C 122.070312 44.5625 121.984375 44.292969 121.9375 44.035156 C 121.890625 43.777344 121.808594 43.566406 121.757812 43.566406 C 121.703125 43.566406 121.589844 43.226562 121.503906 42.8125 C 121.414062 42.402344 121.304688 42.0625 121.257812 42.0625 C 121.207031 42.0625 121.097656 41.753906 121.015625 41.375 C 120.929688 40.996094 120.816406 40.6875 120.765625 40.6875 C 120.710938 40.6875 120.601562 40.375 120.515625 39.996094 C 120.429688 39.617188 120.316406 39.308594 120.261719 39.308594 C 120.207031 39.308594 120.125 39.136719 120.085938 38.925781 C 120.042969 38.714844 119.921875 38.457031 119.820312 38.355469 C 119.714844 38.25 119.628906 38.03125 119.628906 37.871094 C 119.628906 37.707031 119.546875 37.492188 119.445312 37.390625 C 119.34375 37.289062 119.191406 36.945312 119.109375 36.628906 C 119.023438 36.3125 118.917969 36.054688 118.875 36.054688 C 118.832031 36.054688 118.722656 35.828125 118.632812 35.554688 C 118.539062 35.277344 118.425781 35.050781 118.375 35.050781 C 118.324219 35.050781 118.25 34.910156 118.207031 34.738281 C 118.164062 34.566406 118.078125 34.425781 118.019531 34.425781 C 117.960938 34.425781 117.84375 34.171875 117.757812 33.863281 C 117.671875 33.554688 117.558594 33.300781 117.507812 33.300781 C 117.453125 33.300781 117.34375 33.132812 117.257812 32.925781 C 117.171875 32.71875 117.0625 32.550781 117.007812 32.550781 C 116.957031 32.550781 116.847656 32.300781 116.761719 31.992188 C 116.675781 31.6875 116.527344 31.410156 116.433594 31.371094 C 116.335938 31.335938 116.257812 31.21875 116.257812 31.113281 C 116.257812 31.007812 116.207031 30.921875 116.140625 30.921875 C 116.078125 30.921875 115.953125 30.722656 115.867188 30.484375 C 115.78125 30.242188 115.671875 30.046875 115.625 30.046875 C 115.578125 30.046875 115.46875 29.875 115.382812 29.667969 C 115.300781 29.464844 115.1875 29.292969 115.136719 29.292969 C 115.082031 29.292969 114.964844 29.109375 114.875 28.886719 C 114.785156 28.664062 114.679688 28.453125 114.640625 28.417969 C 114.605469 28.382812 114.402344 28.101562 114.199219 27.792969 C 113.992188 27.480469 113.753906 27.183594 113.667969 27.128906 C 113.582031 27.074219 113.511719 26.945312 113.511719 26.84375 C 113.511719 26.742188 113.425781 26.625 113.324219 26.585938 C 113.222656 26.546875 113.136719 26.449219 113.136719 26.371094 C 113.136719 26.238281 112.816406 25.796875 112.335938 25.257812 C 112.226562 25.136719 112.136719 24.984375 112.136719 24.917969 C 112.136719 24.851562 112.027344 24.734375 111.886719 24.660156 C 111.75 24.589844 111.636719 24.445312 111.636719 24.34375 C 111.636719 24.242188 111.527344 24.0625 111.390625 23.945312 C 111.25 23.828125 111.140625 23.679688 111.140625 23.617188 C 111.140625 23.554688 110.941406 23.316406 110.703125 23.089844 C 110.460938 22.863281 110.265625 22.636719 110.265625 22.585938 C 110.265625 22.535156 110.039062 22.273438 109.765625 22.003906 C 109.492188 21.734375 109.265625 21.464844 109.265625 21.410156 C 109.265625 21.351562 108.84375 20.882812 108.328125 20.371094 C 107.8125 19.859375 107.390625 19.398438 107.390625 19.351562 C 107.390625 19.234375 105.824219 17.652344 105.707031 17.652344 C 105.652344 17.652344 105.195312 17.230469 104.6875 16.710938 C 104.179688 16.195312 103.714844 15.773438 103.652344 15.773438 C 103.589844 15.773438 103.320312 15.546875 103.050781 15.273438 C 102.78125 14.996094 102.523438 14.773438 102.476562 14.773438 C 102.429688 14.773438 102.222656 14.601562 102.023438 14.398438 C 101.820312 14.191406 101.601562 14.019531 101.535156 14.019531 C 101.46875 14.019531 101.339844 13.917969 101.25 13.789062 C 101.160156 13.664062 100.945312 13.488281 100.773438 13.398438 C 100.601562 13.308594 100.417969 13.15625 100.363281 13.0625 C 100.308594 12.96875 100.199219 12.894531 100.121094 12.894531 C 100.046875 12.894531 99.894531 12.808594 99.785156 12.703125 C 99.332031 12.261719 98.828125 11.894531 98.683594 11.894531 C 98.597656 11.894531 98.527344 11.835938 98.527344 11.765625 C 98.527344 11.695312 98.386719 11.582031 98.214844 11.515625 C 98.042969 11.453125 97.902344 11.351562 97.902344 11.292969 C 97.902344 11.234375 97.707031 11.113281 97.46875 11.019531 C 97.234375 10.925781 97.007812 10.773438 96.976562 10.683594 C 96.941406 10.589844 96.824219 10.515625 96.71875 10.515625 C 96.613281 10.515625 96.527344 10.457031 96.527344 10.382812 C 96.527344 10.3125 96.359375 10.195312 96.152344 10.121094 C 95.949219 10.050781 95.78125 9.945312 95.78125 9.890625 C 95.78125 9.835938 95.609375 9.730469 95.40625 9.660156 C 95.199219 9.585938 95.03125 9.480469 95.03125 9.417969 C 95.03125 9.359375 94.832031 9.234375 94.59375 9.140625 C 94.351562 9.042969 94.15625 8.925781 94.15625 8.875 C 94.15625 8.824219 93.988281 8.746094 93.78125 8.699219 C 93.574219 8.65625 93.40625 8.570312 93.40625 8.511719 C 93.40625 8.398438 91.910156 7.636719 91.679688 7.636719 C 91.597656 7.636719 91.535156 7.578125 91.535156 7.503906 C 91.535156 7.433594 91.363281 7.3125 91.160156 7.242188 C 90.953125 7.171875 90.785156 7.066406 90.785156 7.007812 C 90.785156 6.953125 90.617188 6.867188 90.410156 6.824219 C 90.203125 6.777344 90.035156 6.695312 90.035156 6.640625 C 90.035156 6.585938 89.78125 6.476562 89.472656 6.398438 C 89.164062 6.320312 88.910156 6.207031 88.910156 6.148438 C 88.910156 6.089844 88.65625 5.96875 88.347656 5.882812 C 88.039062 5.796875 87.789062 5.691406 87.789062 5.644531 C 87.789062 5.601562 87.535156 5.488281 87.226562 5.398438 C 86.917969 5.304688 86.664062 5.1875 86.664062 5.132812 C 86.664062 5.078125 86.464844 5 86.226562 4.953125 C 85.984375 4.90625 85.789062 4.824219 85.789062 4.773438 C 85.789062 4.714844 85.480469 4.597656 85.101562 4.507812 C 84.726562 4.417969 84.414062 4.304688 84.414062 4.257812 C 84.414062 4.210938 84.105469 4.101562 83.730469 4.015625 C 83.351562 3.933594 83.042969 3.816406 83.042969 3.761719 C 83.042969 3.703125 82.675781 3.585938 82.230469 3.496094 C 81.785156 3.40625 81.417969 3.292969 81.417969 3.238281 C 81.417969 3.1875 81.164062 3.105469 80.855469 3.058594 C 80.546875 3.015625 80.292969 2.9375 80.292969 2.886719 C 80.292969 2.839844 79.914062 2.726562 79.453125 2.636719 C 78.988281 2.546875 78.554688 2.425781 78.484375 2.375 C 78.414062 2.320312 77.921875 2.207031 77.390625 2.117188 C 76.859375 2.027344 76.421875 1.917969 76.421875 1.875 C 76.421875 1.828125 75.863281 1.71875 75.175781 1.628906 C 74.488281 1.535156 73.925781 1.421875 73.925781 1.371094 C 73.925781 1.320312 73.460938 1.238281 72.894531 1.1875 C 72.328125 1.140625 71.808594 1.054688 71.742188 1.003906 C 71.589844 0.886719 68.871094 0.625 67.820312 0.625 C 67.394531 0.625 67.058594 0.570312 67.058594 0.5 C 67.058594 0.417969 65.476562 0.375 62.5625 0.375 C 60.089844 0.375 58.066406 0.421875 58.066406 0.484375 M 27.769531 46.769531 C 27.898438 47.101562 27.855469 49.574219 27.71875 49.832031 C 27.601562 50.050781 27.445312 50.074219 26.214844 50.074219 C 24.636719 50.074219 24.183594 50.214844 23.714844 50.839844 C 23.1875 51.539062 23.183594 51.59375 23.09375 56.460938 C 22.996094 61.746094 22.984375 61.824219 22.101562 62.742188 L 21.539062 63.332031 L 21.945312 63.65625 C 22.9375 64.449219 23.097656 65.371094 23.097656 70.382812 C 23.101562 76.148438 23.355469 76.613281 26.492188 76.613281 C 27.921875 76.617188 27.847656 76.519531 27.847656 78.304688 C 27.847656 80.121094 27.976562 79.996094 26.117188 79.992188 C 23.660156 79.988281 22.433594 79.5625 21.175781 78.273438 C 19.554688 76.609375 19.453125 76.199219 19.367188 70.792969 C 19.28125 65.550781 19.109375 64.847656 17.90625 64.847656 C 17.429688 64.847656 17.347656 64.582031 17.382812 63.207031 L 17.421875 61.914062 L 17.875 61.785156 C 19.195312 61.410156 19.269531 61.121094 19.367188 55.832031 C 19.457031 50.878906 19.492188 50.667969 20.402344 49.292969 C 21.28125 47.972656 22.777344 46.933594 24.136719 46.707031 C 25.355469 46.503906 27.683594 46.542969 27.769531 46.769531 M 101.085938 46.707031 C 103.25 47.105469 105.027344 48.761719 105.714844 51.015625 C 105.910156 51.65625 105.953125 52.394531 106.011719 56.148438 C 106.09375 61.285156 106.144531 61.480469 107.488281 61.773438 L 107.898438 61.863281 L 107.828125 64.785156 L 107.453125 64.828125 C 106.203125 64.964844 106.089844 65.394531 106.011719 70.480469 C 105.925781 75.894531 105.800781 76.441406 104.3125 78.101562 C 103.070312 79.484375 101.699219 79.992188 99.183594 79.992188 L 97.527344 79.996094 L 97.527344 76.644531 L 99.074219 76.59375 C 102.085938 76.492188 102.183594 76.296875 102.285156 70.105469 C 102.371094 64.957031 102.398438 64.773438 103.226562 63.851562 L 103.773438 63.242188 L 103.433594 62.972656 C 102.429688 62.179688 102.371094 61.855469 102.285156 56.523438 C 102.183594 50.253906 102.152344 50.1875 99.214844 50.074219 L 97.589844 50.011719 L 97.554688 48.292969 L 97.519531 46.570312 L 98.9375 46.570312 C 99.714844 46.570312 100.683594 46.632812 101.085938 46.707031 M 85.628906 48.398438 C 88.652344 50.144531 86.40625 54.914062 83.113281 53.738281 C 80.480469 52.796875 80.511719 48.566406 83.15625 48.125 C 83.402344 48.085938 83.660156 48.03125 83.730469 48.003906 C 84.035156 47.890625 85.148438 48.125 85.628906 48.398438 M 48.515625 55.472656 C 51.898438 55.984375 53.882812 57.703125 54.5 60.652344 C 54.679688 61.53125 54.703125 62.457031 54.671875 68.039062 L 54.632812 74.425781 L 52.277344 74.457031 C 49.558594 74.496094 49.574219 74.503906 49.574219 73.53125 C 49.574219 72.773438 49.515625 72.730469 49.085938 73.183594 C 47.886719 74.449219 44.761719 75.179688 42.457031 74.730469 C 37.644531 73.796875 35.703125 68.09375 38.980469 64.527344 C 41.179688 62.136719 46.269531 61.992188 49.105469 64.238281 L 49.574219 64.609375 L 49.574219 63.257812 C 49.574219 61.585938 49.457031 61.144531 48.859375 60.5625 C 47.179688 58.921875 43.386719 59.179688 40.972656 61.09375 C 40.625 61.367188 40.316406 61.59375 40.285156 61.59375 C 40.175781 61.59375 38.460938 58.496094 38.460938 58.300781 C 38.460938 58.085938 40.171875 56.898438 41.085938 56.476562 C 43.371094 55.414062 45.886719 55.074219 48.515625 55.472656 M 71.855469 55.535156 C 80.535156 57.390625 80.3125 73.34375 71.582031 74.742188 C 68.949219 75.164062 66.683594 74.550781 65.054688 72.980469 L 64.3125 72.261719 L 64.3125 81.496094 L 59.3125 81.496094 L 59.347656 68.632812 L 59.378906 55.769531 L 61.84375 55.738281 L 64.3125 55.703125 L 64.3125 57.925781 L 65.019531 57.257812 C 66.859375 55.53125 69.136719 54.957031 71.855469 55.535156 M 86.632812 65.027344 C 86.65625 72.347656 86.632812 74.304688 86.507812 74.382812 C 86.324219 74.5 82.035156 74.523438 81.742188 74.410156 C 81.53125 74.332031 81.421875 55.996094 81.628906 55.789062 C 81.675781 55.742188 82.8125 55.71875 84.15625 55.738281 L 86.601562 55.769531 L 86.632812 65.027344 M 67.558594 59.910156 C 66.550781 60.121094 65.601562 60.601562 64.871094 61.273438 L 64.3125 61.789062 L 64.3125 68.402344 L 64.863281 68.925781 C 66.289062 70.273438 68.824219 70.761719 70.355469 69.980469 C 74.246094 67.996094 73.671875 60.835938 69.554688 59.96875 C 68.4375 59.734375 68.402344 59.734375 67.558594 59.910156 M 44.675781 66.234375 C 42.53125 66.742188 41.730469 69.082031 43.214844 70.492188 C 44.644531 71.855469 47.621094 71.734375 49.230469 70.25 C 49.777344 69.746094 49.757812 67.746094 49.199219 67.222656 C 48.246094 66.332031 46.179688 65.878906 44.675781 66.234375 "/>
<path style=" stroke:none;fill-rule:evenodd;fill:rgb(35.686275%,40.392157%,41.176471%);fill-opacity:1;" d="M 27.769531 48.261719 C 27.769531 49.085938 27.789062 49.40625 27.816406 48.976562 C 27.839844 48.542969 27.839844 47.867188 27.8125 47.472656 C 27.789062 47.078125 27.769531 47.433594 27.769531 48.261719 M 81.910156 48.917969 L 81.480469 49.386719 L 81.949219 48.957031 C 82.386719 48.554688 82.476562 48.449219 82.378906 48.449219 C 82.359375 48.449219 82.148438 48.660156 81.910156 48.917969 M 97.558594 49.824219 C 97.601562 49.976562 97.886719 50.015625 99.097656 50.019531 L 100.585938 50.027344 L 99.15625 49.984375 C 98.21875 49.957031 97.6875 49.890625 97.617188 49.789062 C 97.539062 49.679688 97.523438 49.691406 97.558594 49.824219 M 24.644531 50.046875 C 24.5625 50.097656 25.042969 50.121094 25.703125 50.101562 C 27.578125 50.046875 27.800781 49.992188 26.222656 49.972656 C 25.433594 49.960938 24.722656 49.996094 24.644531 50.046875 M 81.121094 50.269531 C 81.078125 50.378906 81.050781 50.707031 81.0625 50.992188 C 81.078125 51.484375 81.085938 51.472656 81.167969 50.828125 C 81.257812 50.09375 81.246094 49.941406 81.121094 50.269531 M 23.828125 50.542969 C 23.605469 50.800781 23.441406 51.078125 23.507812 51.078125 C 23.535156 51.078125 23.679688 50.90625 23.832031 50.699219 C 24.132812 50.292969 24.128906 50.191406 23.828125 50.542969 M 105.804688 51.953125 C 105.804688 52.261719 105.828125 52.390625 105.859375 52.234375 C 105.886719 52.078125 105.886719 51.828125 105.859375 51.671875 C 105.828125 51.515625 105.804688 51.644531 105.804688 51.953125 M 102.175781 52.203125 C 102.175781 52.445312 102.203125 52.542969 102.234375 52.421875 C 102.265625 52.300781 102.265625 52.105469 102.234375 51.984375 C 102.203125 51.863281 102.175781 51.960938 102.175781 52.203125 M 19.410156 55.707031 C 19.410156 57.738281 19.429688 58.570312 19.449219 57.554688 C 19.46875 56.539062 19.46875 54.878906 19.449219 53.863281 C 19.429688 52.847656 19.410156 53.675781 19.410156 55.707031 M 23.03125 56.398438 C 23.03125 58.53125 23.050781 59.421875 23.070312 58.375 C 23.089844 57.332031 23.089844 55.585938 23.070312 54.496094 C 23.050781 53.40625 23.03125 54.261719 23.03125 56.398438 M 105.949219 56.273438 C 105.949219 58.335938 105.964844 59.199219 105.988281 58.1875 C 106.007812 57.175781 106.007812 55.488281 105.988281 54.433594 C 105.964844 53.378906 105.949219 54.207031 105.949219 56.273438 M 84.101562 53.832031 L 83.480469 53.917969 L 84.039062 53.925781 C 84.351562 53.933594 84.714844 53.890625 84.851562 53.832031 C 85.136719 53.707031 84.996094 53.707031 84.101562 53.832031 M 45.046875 55.421875 C 45.203125 55.453125 45.457031 55.453125 45.609375 55.421875 C 45.765625 55.390625 45.640625 55.367188 45.328125 55.367188 C 45.019531 55.367188 44.894531 55.390625 45.046875 55.421875 M 47.234375 55.421875 C 47.421875 55.453125 47.730469 55.453125 47.921875 55.421875 C 48.109375 55.394531 47.957031 55.371094 47.578125 55.371094 C 47.199219 55.371094 47.046875 55.394531 47.234375 55.421875 M 68.835938 55.417969 C 68.957031 55.449219 69.15625 55.449219 69.273438 55.417969 C 69.394531 55.386719 69.296875 55.363281 69.054688 55.363281 C 68.816406 55.363281 68.71875 55.386719 68.835938 55.417969 M 70.710938 55.417969 C 70.832031 55.449219 71.027344 55.449219 71.148438 55.417969 C 71.269531 55.386719 71.167969 55.363281 70.929688 55.363281 C 70.6875 55.363281 70.589844 55.386719 70.710938 55.417969 M 59.398438 55.800781 C 59.363281 55.855469 60.078125 55.882812 60.980469 55.863281 C 64.058594 55.804688 64.378906 55.757812 61.914062 55.734375 C 60.5625 55.71875 59.429688 55.75 59.398438 55.800781 M 81.601562 55.863281 C 81.570312 55.949219 81.554688 60.164062 81.574219 65.222656 L 81.609375 74.425781 L 81.636719 65.128906 L 81.667969 55.832031 L 86.535156 55.832031 L 86.570312 65.097656 L 86.601562 74.363281 L 86.601562 55.769531 L 84.132812 55.738281 C 82.222656 55.710938 81.648438 55.738281 81.601562 55.863281 M 52.757812 57.460938 C 53.027344 57.738281 53.277344 57.960938 53.308594 57.960938 C 53.34375 57.960938 53.152344 57.738281 52.882812 57.460938 C 52.617188 57.1875 52.367188 56.960938 52.335938 56.960938 C 52.300781 56.960938 52.492188 57.1875 52.757812 57.460938 M 45.234375 59.429688 C 45.425781 59.457031 45.734375 59.457031 45.921875 59.429688 C 46.113281 59.398438 45.957031 59.375 45.578125 59.375 C 45.203125 59.375 45.046875 59.398438 45.234375 59.429688 M 102.300781 60.214844 C 102.300781 60.457031 102.328125 60.554688 102.359375 60.433594 C 102.390625 60.3125 102.390625 60.117188 102.359375 59.996094 C 102.328125 59.875 102.300781 59.976562 102.300781 60.214844 M 54.601562 67.753906 L 54.570312 74.355469 L 52.167969 74.394531 L 49.761719 74.429688 L 52.171875 74.457031 C 54.003906 74.480469 54.59375 74.449219 54.636719 74.332031 C 54.671875 74.246094 54.683594 71.246094 54.664062 67.664062 L 54.628906 61.15625 L 54.601562 67.753906 M 49.554688 63.074219 L 49.597656 64.660156 L 49.242188 64.347656 L 48.890625 64.035156 L 49.191406 64.378906 C 49.359375 64.566406 49.539062 64.722656 49.597656 64.722656 C 49.726562 64.722656 49.730469 61.835938 49.605469 61.636719 C 49.554688 61.554688 49.53125 62.203125 49.554688 63.074219 M 17.410156 62.007812 C 17.375 62.097656 17.363281 62.734375 17.386719 63.417969 L 17.421875 64.660156 L 17.484375 63.25 C 17.542969 61.855469 17.535156 61.6875 17.410156 62.007812 M 43.738281 62.683594 C 43.925781 62.710938 44.234375 62.710938 44.425781 62.683594 C 44.613281 62.65625 44.457031 62.632812 44.082031 62.632812 C 43.703125 62.632812 43.546875 62.65625 43.738281 62.683594 M 103.613281 63.09375 C 103.738281 63.234375 103.726562 63.316406 103.550781 63.511719 C 103.339844 63.75 103.34375 63.75 103.613281 63.582031 C 103.953125 63.375 103.960938 63.300781 103.675781 63.085938 C 103.492188 62.945312 103.484375 62.945312 103.613281 63.09375 M 78.082031 63.59375 C 78.082031 63.90625 78.105469 64.03125 78.136719 63.878906 C 78.164062 63.722656 78.164062 63.46875 78.136719 63.3125 C 78.105469 63.160156 78.082031 63.285156 78.082031 63.59375 M 21.726562 63.507812 C 21.726562 63.53125 21.910156 63.714844 22.132812 63.917969 L 22.539062 64.285156 L 22.171875 63.878906 C 21.832031 63.5 21.726562 63.414062 21.726562 63.507812 M 39.171875 64.367188 L 38.523438 65.011719 L 39.210938 64.40625 C 39.589844 64.074219 39.921875 63.78125 39.949219 63.761719 C 39.976562 63.738281 39.960938 63.722656 39.910156 63.722656 C 39.859375 63.722656 39.527344 64.011719 39.171875 64.367188 M 72.96875 65.035156 C 72.96875 65.585938 72.992188 65.796875 73.019531 65.5 C 73.046875 65.207031 73.042969 64.757812 73.019531 64.5 C 72.992188 64.242188 72.96875 64.484375 72.96875 65.035156 M 78.207031 65.097656 C 78.207031 65.40625 78.230469 65.535156 78.261719 65.378906 C 78.289062 65.226562 78.289062 64.972656 78.261719 64.816406 C 78.230469 64.660156 78.207031 64.789062 78.207031 65.097656 M 106.519531 65.285156 C 106.359375 65.457031 106.25 65.617188 106.277344 65.644531 C 106.308594 65.667969 106.460938 65.527344 106.621094 65.332031 C 106.980469 64.890625 106.917969 64.859375 106.519531 65.285156 M 102.304688 66.414062 C 102.304688 66.6875 102.332031 66.785156 102.359375 66.628906 C 102.390625 66.472656 102.390625 66.25 102.359375 66.128906 C 102.328125 66.007812 102.304688 66.136719 102.304688 66.414062 M 78.082031 66.601562 C 78.082031 66.910156 78.105469 67.035156 78.136719 66.882812 C 78.164062 66.726562 78.164062 66.472656 78.136719 66.316406 C 78.105469 66.164062 78.082031 66.289062 78.082031 66.601562 M 23.03125 70.167969 C 23.03125 72.300781 23.050781 73.191406 23.070312 72.148438 C 23.089844 71.101562 23.089844 69.355469 23.070312 68.265625 C 23.050781 67.179688 23.03125 68.035156 23.03125 70.167969 M 43.011719 67.132812 L 42.644531 67.539062 L 43.050781 67.171875 C 43.429688 66.828125 43.515625 66.726562 43.417969 66.726562 C 43.394531 66.726562 43.214844 66.910156 43.011719 67.132812 M 105.949219 70.355469 C 105.949219 72.386719 105.964844 73.21875 105.988281 72.203125 C 106.007812 71.1875 106.007812 69.523438 105.988281 68.507812 C 105.964844 67.492188 105.949219 68.324219 105.949219 70.355469 M 19.410156 70.855469 C 19.410156 72.886719 19.429688 73.71875 19.449219 72.703125 C 19.46875 71.6875 19.46875 70.023438 19.449219 69.011719 C 19.429688 67.996094 19.410156 68.824219 19.410156 70.855469 M 49.554688 68.691406 C 49.59375 69.851562 49.582031 69.898438 49.242188 70.277344 L 48.890625 70.667969 L 49.292969 70.300781 C 49.695312 69.9375 49.941406 67.765625 49.605469 67.558594 C 49.554688 67.527344 49.53125 68.035156 49.554688 68.691406 M 37.378906 68.664062 C 37.382812 69.214844 37.402344 69.425781 37.429688 69.132812 C 37.457031 68.835938 37.457031 68.386719 37.429688 68.128906 C 37.402344 67.875 37.378906 68.113281 37.378906 68.664062 M 68.027344 70.445312 C 68.253906 70.472656 68.589844 70.472656 68.777344 70.445312 C 68.964844 70.417969 68.78125 70.394531 68.367188 70.394531 C 67.957031 70.394531 67.804688 70.417969 68.027344 70.445312 M 44.644531 71.355469 C 44.78125 71.417969 44.976562 71.464844 45.078125 71.464844 C 45.199219 71.464844 45.175781 71.425781 45.015625 71.355469 C 44.878906 71.296875 44.683594 71.25 44.582031 71.25 C 44.460938 71.25 44.484375 71.289062 44.644531 71.355469 M 75.425781 72.671875 C 75.121094 72.980469 74.902344 73.234375 74.9375 73.234375 C 74.96875 73.234375 75.246094 72.980469 75.550781 72.671875 C 75.851562 72.363281 76.074219 72.109375 76.039062 72.109375 C 76.003906 72.109375 75.726562 72.363281 75.425781 72.671875 M 64.558594 72.523438 C 64.558594 72.542969 64.742188 72.726562 64.964844 72.929688 L 65.371094 73.296875 L 65.003906 72.890625 C 64.664062 72.511719 64.558594 72.425781 64.558594 72.523438 M 49.550781 72.703125 C 49.527344 72.753906 49.542969 73.136719 49.582031 73.546875 L 49.660156 74.300781 L 49.679688 73.453125 C 49.699219 72.683594 49.65625 72.449219 49.550781 72.703125 M 48.640625 73.425781 C 48.148438 73.828125 48.28125 73.824219 48.828125 73.421875 C 49.058594 73.25 49.195312 73.113281 49.132812 73.113281 C 49.066406 73.117188 48.84375 73.257812 48.640625 73.425781 M 102.175781 74.363281 C 102.175781 74.601562 102.203125 74.703125 102.234375 74.582031 C 102.265625 74.460938 102.265625 74.261719 102.234375 74.140625 C 102.203125 74.023438 102.175781 74.121094 102.175781 74.363281 M 105.804688 74.738281 C 105.804688 75.046875 105.828125 75.175781 105.859375 75.019531 C 105.886719 74.863281 105.886719 74.609375 105.859375 74.457031 C 105.828125 74.300781 105.804688 74.425781 105.804688 74.738281 M 82.953125 74.457031 C 83.628906 74.476562 84.695312 74.476562 85.328125 74.453125 C 85.960938 74.433594 85.410156 74.414062 84.101562 74.414062 C 82.796875 74.414062 82.28125 74.433594 82.953125 74.457031 M 19.484375 75.125 C 19.484375 75.289062 19.539062 75.511719 19.605469 75.613281 C 19.695312 75.746094 19.707031 75.671875 19.648438 75.363281 C 19.550781 74.824219 19.480469 74.722656 19.484375 75.125 M 27.769531 78.304688 C 27.769531 79.132812 27.789062 79.453125 27.816406 79.019531 C 27.839844 78.585938 27.839844 77.910156 27.8125 77.519531 C 27.789062 77.125 27.769531 77.480469 27.769531 78.304688 M 104.019531 78.304688 C 103.71875 78.613281 103.496094 78.867188 103.53125 78.867188 C 103.566406 78.867188 103.84375 78.613281 104.144531 78.304688 C 104.449219 77.996094 104.667969 77.742188 104.636719 77.742188 C 104.601562 77.742188 104.324219 77.996094 104.019531 78.304688 "/>
<path style=" stroke:none;fill-rule:evenodd;fill:rgb(51.764706%,54.901961%,56.078431%);fill-opacity:1;" d="M 25.816406 46.664062 C 26.179688 46.6875 26.769531 46.6875 27.128906 46.664062 C 27.488281 46.636719 27.195312 46.617188 26.472656 46.617188 C 25.753906 46.617188 25.457031 46.636719 25.816406 46.664062 M 98.25 46.664062 C 98.613281 46.6875 99.175781 46.6875 99.5 46.660156 C 99.824219 46.636719 99.527344 46.617188 98.839844 46.617188 C 98.152344 46.617188 97.886719 46.636719 98.25 46.664062 M 97.574219 48.261719 C 97.574219 49.085938 97.59375 49.40625 97.621094 48.976562 C 97.644531 48.542969 97.644531 47.867188 97.621094 47.472656 C 97.59375 47.078125 97.574219 47.433594 97.574219 48.261719 M 102.328125 56.148438 C 102.328125 58.210938 102.34375 59.074219 102.367188 58.0625 C 102.386719 57.050781 102.386719 55.363281 102.367188 54.308594 C 102.34375 53.253906 102.328125 54.082031 102.328125 56.148438 M 102.328125 70.480469 C 102.328125 72.511719 102.34375 73.34375 102.367188 72.328125 C 102.386719 71.3125 102.386719 69.648438 102.367188 68.632812 C 102.34375 67.617188 102.328125 68.449219 102.328125 70.480469 M 25.820312 76.707031 C 26.183594 76.734375 26.746094 76.734375 27.070312 76.707031 C 27.394531 76.679688 27.097656 76.660156 26.410156 76.660156 C 25.722656 76.660156 25.460938 76.683594 25.820312 76.707031 M 98.25 76.707031 C 98.613281 76.734375 99.175781 76.734375 99.5 76.707031 C 99.824219 76.679688 99.527344 76.660156 98.839844 76.660156 C 98.152344 76.660156 97.886719 76.683594 98.25 76.707031 M 97.574219 78.304688 C 97.574219 79.132812 97.59375 79.453125 97.621094 79.019531 C 97.644531 78.585938 97.644531 77.910156 97.621094 77.519531 C 97.59375 77.125 97.574219 77.480469 97.574219 78.304688 M 60.65625 81.464844 C 61.292969 81.488281 62.332031 81.488281 62.96875 81.464844 C 63.601562 81.441406 63.082031 81.425781 61.8125 81.425781 C 60.542969 81.425781 60.023438 81.441406 60.65625 81.464844 "/>
<path style=" stroke:none;fill-rule:evenodd;fill:rgb(54.901961%,54.901961%,58.039216%);fill-opacity:1;" d="M 24.382812 46.78125 C 24.503906 46.8125 24.699219 46.8125 24.820312 46.78125 C 24.9375 46.75 24.839844 46.722656 24.601562 46.722656 C 24.359375 46.722656 24.261719 46.75 24.382812 46.78125 M 100.554688 46.78125 C 100.675781 46.8125 100.871094 46.8125 100.992188 46.78125 C 101.113281 46.75 101.015625 46.722656 100.773438 46.722656 C 100.535156 46.722656 100.4375 46.75 100.554688 46.78125 M 84.425781 48.117188 C 84.453125 48.140625 84.648438 48.199219 84.851562 48.246094 C 85.125 48.308594 85.175781 48.296875 85.039062 48.203125 C 84.871094 48.089844 84.300781 48.007812 84.425781 48.117188 M 25.761719 49.917969 C 26.15625 49.941406 26.777344 49.941406 27.132812 49.917969 C 27.492188 49.890625 27.167969 49.871094 26.410156 49.871094 C 25.65625 49.871094 25.363281 49.890625 25.761719 49.917969 M 98.246094 49.917969 C 98.605469 49.941406 99.195312 49.941406 99.554688 49.917969 C 99.917969 49.890625 99.621094 49.871094 98.902344 49.871094 C 98.179688 49.871094 97.886719 49.890625 98.246094 49.917969 M 105.824219 56.085938 C 105.824219 58.046875 105.839844 58.847656 105.863281 57.867188 C 105.882812 56.886719 105.882812 55.28125 105.863281 54.300781 C 105.839844 53.320312 105.824219 54.121094 105.824219 56.085938 M 83.824219 53.796875 C 84.015625 53.824219 84.296875 53.824219 84.449219 53.792969 C 84.601562 53.765625 84.445312 53.742188 84.101562 53.742188 C 83.761719 53.742188 83.632812 53.765625 83.824219 53.796875 M 61.78125 55.925781 L 64.1875 55.964844 L 64.1875 57.027344 C 64.1875 58.261719 64.207031 58.277344 64.941406 57.492188 L 65.496094 56.898438 L 64.910156 57.449219 L 64.320312 58.003906 L 64.285156 56.949219 L 64.25 55.898438 L 61.8125 55.890625 L 59.378906 55.886719 L 61.78125 55.925781 M 82.890625 55.925781 C 83.601562 55.949219 84.722656 55.949219 85.390625 55.925781 C 86.054688 55.90625 85.476562 55.886719 84.101562 55.886719 C 82.730469 55.886719 82.183594 55.90625 82.890625 55.925781 M 59.375 68.664062 C 59.375 75.621094 59.390625 78.484375 59.410156 75.027344 C 59.429688 71.574219 59.429688 65.882812 59.410156 62.382812 C 59.390625 58.886719 59.375 61.710938 59.375 68.664062 M 52.636719 57.460938 C 52.902344 57.738281 53.152344 57.960938 53.183594 57.960938 C 53.21875 57.960938 53.027344 57.738281 52.757812 57.460938 C 52.492188 57.1875 52.242188 56.960938 52.210938 56.960938 C 52.175781 56.960938 52.367188 57.1875 52.636719 57.460938 M 19.34375 59.996094 C 19.308594 60.265625 19.328125 60.417969 19.390625 60.355469 C 19.449219 60.296875 19.480469 60.085938 19.457031 59.886719 C 19.414062 59.554688 19.40625 59.5625 19.34375 59.996094 M 64.242188 61.75 C 64.207031 61.839844 64.195312 63.402344 64.214844 65.226562 L 64.25 68.539062 L 64.3125 65.066406 C 64.34375 63.15625 64.355469 61.59375 64.339844 61.59375 C 64.320312 61.59375 64.277344 61.664062 64.242188 61.75 M 107.792969 63.242188 C 107.769531 64.398438 107.738281 64.585938 107.546875 64.636719 C 107.34375 64.691406 107.34375 64.695312 107.550781 64.707031 C 107.871094 64.726562 107.90625 64.542969 107.859375 63.148438 L 107.820312 61.90625 L 107.792969 63.242188 M 49.746094 63.53125 C 49.746094 64.289062 49.769531 64.582031 49.792969 64.1875 C 49.816406 63.789062 49.816406 63.167969 49.792969 62.808594 C 49.765625 62.449219 49.746094 62.777344 49.746094 63.53125 M 43.429688 62.8125 C 43.792969 62.835938 44.355469 62.835938 44.679688 62.8125 C 45.003906 62.785156 44.707031 62.765625 44.019531 62.765625 C 43.332031 62.765625 43.066406 62.785156 43.429688 62.8125 M 73.09375 65.097656 C 73.09375 65.546875 73.113281 65.726562 73.140625 65.503906 C 73.171875 65.28125 73.171875 64.914062 73.140625 64.691406 C 73.113281 64.46875 73.09375 64.648438 73.09375 65.097656 M 78.078125 65.035156 C 78.078125 65.3125 78.105469 65.410156 78.136719 65.253906 C 78.164062 65.097656 78.164062 64.871094 78.132812 64.753906 C 78.101562 64.632812 78.078125 64.757812 78.078125 65.035156 M 105.824219 70.480469 C 105.824219 72.441406 105.839844 73.246094 105.863281 72.265625 C 105.882812 71.285156 105.882812 69.679688 105.863281 68.695312 C 105.839844 67.714844 105.824219 68.519531 105.824219 70.480469 M 49.746094 68.726562 C 49.746094 69.382812 49.765625 69.648438 49.792969 69.324219 C 49.816406 68.996094 49.816406 68.460938 49.792969 68.132812 C 49.765625 67.808594 49.746094 68.074219 49.746094 68.726562 M 49.253906 70.386719 L 48.890625 70.792969 L 49.292969 70.425781 C 49.671875 70.082031 49.757812 69.980469 49.660156 69.980469 C 49.640625 69.980469 49.457031 70.164062 49.253906 70.386719 M 64.242188 76.675781 C 64.242188 79.226562 64.257812 80.25 64.28125 78.953125 C 64.300781 77.660156 64.300781 75.574219 64.28125 74.324219 C 64.257812 73.070312 64.242188 74.128906 64.242188 76.675781 M 64.933594 72.796875 C 65.167969 73.039062 65.386719 73.234375 65.421875 73.234375 C 65.457031 73.234375 65.292969 73.039062 65.058594 72.796875 C 64.828125 72.554688 64.609375 72.359375 64.574219 72.359375 C 64.539062 72.359375 64.703125 72.554688 64.933594 72.796875 M 49.671875 73.140625 C 49.738281 74.324219 49.789062 74.441406 49.804688 73.453125 C 49.816406 72.921875 49.78125 72.484375 49.730469 72.484375 C 49.679688 72.484375 49.652344 72.78125 49.671875 73.140625 M 19.507812 74.238281 C 19.507812 74.476562 19.535156 74.574219 19.566406 74.457031 C 19.597656 74.335938 19.597656 74.136719 19.566406 74.015625 C 19.535156 73.898438 19.507812 73.996094 19.507812 74.238281 M 43.800781 74.824219 C 43.953125 74.855469 44.207031 74.855469 44.363281 74.824219 C 44.515625 74.796875 44.390625 74.769531 44.082031 74.769531 C 43.773438 74.769531 43.644531 74.796875 43.800781 74.824219 M 69.714844 74.828125 C 69.902344 74.855469 70.183594 74.855469 70.335938 74.824219 C 70.492188 74.796875 70.335938 74.773438 69.992188 74.773438 C 69.648438 74.773438 69.523438 74.796875 69.714844 74.828125 M 25.761719 79.960938 C 26.15625 79.988281 26.777344 79.988281 27.132812 79.960938 C 27.492188 79.9375 27.167969 79.917969 26.410156 79.917969 C 25.65625 79.917969 25.363281 79.9375 25.761719 79.960938 M 98.3125 79.960938 C 98.710938 79.988281 99.328125 79.988281 99.6875 79.960938 C 100.042969 79.9375 99.71875 79.917969 98.964844 79.917969 C 98.207031 79.917969 97.914062 79.9375 98.3125 79.960938 "/>
</g>
</svg>
