<svg xmlns="http://www.w3.org/2000/svg" width="166.667" height="166.667" viewBox="0 0 125 125" fill-rule="evenodd" xmlns:v="https://vecta.io/nano"><path d="M24.727 46.777c-2.266.367-3.695 1.41-4.633 3.387-.508 1.066-.609 2.137-.609 6.57l-.117 3.664c-.066.039-.156.242-.199.453-.098.441-.937 1.117-1.391 1.117-.289 0-.293.016-.293 1.313 0 1.102.031 1.316.191 1.316.535 0 1.203.523 1.488 1.164.277.629.289.801.344 5.031.059 4.223.07 4.41.352 5.133 1.082 2.777 2.965 3.938 6.398 3.941l1.473.004-.035-1.535-.035-1.531-1.512-.062c-2.992-.125-3.086-.316-3.18-6.449-.074-5.223-.129-5.582-.953-6.383-.246-.242-.5-.441-.555-.441-.242 0-.082-.336.258-.535 1.047-.621 1.168-1.266 1.25-6.66.094-6.152.18-6.324 3.211-6.426l1.551-.055-.035-1.516-.035-1.52-1.312-.016c-.719-.008-1.449.008-1.621.035m72.926 1.484v1.563l1.156.004c1.906.004 2.445.223 3.152 1.262l.375.551.07 4.695c.078 5.441.223 6.164 1.316 6.664.387.176.379.387-.023.602-1.098.59-1.219 1.203-1.297 6.629l-.066 4.695-.328.5c-.742 1.129-1.172 1.316-3.074 1.316h-1.281v3.129h1.43c2.973 0 4.723-.871 5.918-2.937.656-1.129.684-1.34.77-6.141.094-5.293.195-5.695 1.52-6.09l.477-.145V62l-.344-.07c-1.418-.285-1.574-.852-1.66-6.098-.09-5.391-.187-5.801-1.754-7.406-1.227-1.258-2.625-1.727-5.137-1.73h-1.219v1.566m-14.391-.012c-2.035.547-2.691 3.277-1.137 4.723.953.887 2.449 1.023 3.492.328 2.727-1.828.82-5.91-2.355-5.051m-38.555 7.293c-2.047.336-3.633.957-5.285 2.074-.965.648-.965.586-.012 2.262.914 1.613.883 1.586 1.383 1.164 2.211-1.863 5.969-2.266 7.883-.844.832.617 1.059 1.23 1.125 3.035s.008 1.906-.652 1.23c-1.824-1.863-6.789-2.195-9.129-.609-3.711 2.512-3.215 8.301.879 10.203 2.563 1.191 5.926.77 8.121-1.02.855-.699.805-.723.805.383v.941h4.762l-.047-6.793c-.055-8.18-.105-8.437-2.047-10.246-1.523-1.418-5.062-2.227-7.785-1.781m23.164.211c-1.219.414-1.844.781-2.754 1.613-.98.902-.93.922-.93-.344v-1.066h-4.746v25.414h4.746v-4.629c0-2.551.039-4.633.09-4.633s.398.305.777.676c2.746 2.695 7.617 2.598 10.371-.207 3.652-3.715 3.523-11.734-.242-15.207-1.793-1.656-5.074-2.379-7.312-1.617m13.828 9.375l.031 9.172h4.746l.063-18.344h-4.871l.031 9.172m-11.883-5.281c4.082 1.289 4.535 8.176.676 10.238-1.586.848-4.297.34-5.73-1.078l-.574-.566v-6.684l.465-.469c1.285-1.289 3.598-1.934 5.164-1.441m-21.848 6.488c.391.148.965.5 1.281.781l.574.504v1.113c0 1.992-2.035 3.148-4.836 2.754-3.344-.477-3.637-4.344-.406-5.402.594-.195 2.629-.047 3.387.25" fill="rgb(97.647059%,97.647059%,97.647059%)"/><path d="M58.066.484c0 .059-.687.145-1.527.191l-2.344.215-1.809.262c-.551.074-1.027.18-1.062.227s-.641.164-1.344.254-1.277.199-1.277.25-.453.16-1 .246-1 .195-1 .238-.422.16-.937.254-.934.211-.934.266-.227.133-.5.18-.5.125-.5.172-.348.152-.77.23-.801.199-.844.266-.398.188-.793.277-.715.199-.715.25-.18.125-.395.168-.625.188-.906.316l-1.863.762c-.113 0-.211.047-.211.105s-.223.18-.496.27-.5.203-.5.25-.227.156-.5.238-.5.199-.5.258-.168.148-.375.195-.375.125-.375.176-.223.172-.5.262-.5.203-.5.25-.223.16-.496.25-.5.203-.5.246-.199.16-.437.254-.437.211-.437.262-.141.121-.312.168-.312.129-.312.191-.195.176-.437.258-.437.188-.437.242-.18.176-.406.266-.449.238-.504.328-.156.164-.223.164c-.125 0-.773.43-1.078.711-.09.082-.273.184-.41.227s-.25.125-.25.184-.168.172-.375.254-.375.207-.375.27-.141.168-.312.234-.312.176-.312.246-.086.129-.191.129-.219.078-.258.176-.23.246-.434.328-.363.203-.363.266-.141.164-.312.23-.312.168-.312.227-.152.188-.34.285-.504.359-.699.586-.41.406-.473.406c-.187 0-6.48 6.121-6.48 6.301 0 .047-.227.309-.5.582s-.5.578-.5.668-.133.238-.297.328a1.33 1.33 0 0 0-.469.484 3.03 3.03 0 0 1-.516.656c-.187.184-.34.398-.34.477s-.113.211-.25.297-.25.203-.25.266c0 .105-.441.695-.812 1.094-.105.109-.187.262-.187.336s-.07.188-.156.242-.242.27-.344.473-.258.422-.344.477-.156.156-.156.227c0 .121-.426.773-.711 1.078a1.38 1.38 0 0 0-.227.41c-.043.141-.121.25-.172.25s-.168.199-.262.441-.215.438-.266.438-.164.195-.254.438-.203.438-.258.438-.098.082-.098.184-.078.227-.172.281-.238.309-.32.566-.199.473-.258.473-.141.168-.187.375-.152.414-.242.469-.227.305-.312.563-.199.469-.258.469-.141.172-.187.375-.121.379-.172.379-.156.254-.238.563-.199.563-.262.563-.187.281-.277.625-.199.629-.246.629-.16.25-.254.563-.207.563-.258.563-.129.195-.172.438-.129.438-.184.438-.172.313-.258.691-.195.688-.25.688-.164.309-.25.688-.191.688-.242.688-.156.34-.246.754-.199.75-.25.75-.129.281-.176.625-.129.625-.184.625-.172.426-.258.941-.195.938-.254.938-.168.48-.254 1.066-.191 1.063-.246 1.063-.168.621-.258 1.375-.203 1.379-.254 1.379-.129.492-.172 1.094-.137 1.211-.199 1.348C.516 55.566.52 70.164 1 70.793c.051.07.133.617.184 1.223s.129 1.094.18 1.094.164.621.254 1.379.203 1.375.254 1.375.156.48.246 1.066.195 1.063.242 1.063.16.422.246.938.203.941.258.941.141.281.184.625.129.625.188.625.176.34.262.754.199.75.25.75.164.336.25.75.199.75.246.75.164.313.254.691.207.688.262.688.137.195.184.438.125.438.18.438.168.281.25.625.195.629.254.629.18.238.266.531.191.559.234.594.152.273.234.531.199.469.258.469.145.172.188.379.133.375.191.375.18.223.262.5.188.5.234.5.16.223.246.496.234.52.324.555.195.234.238.445.137.383.199.383.117.074.117.168.113.301.254.461.285.422.324.582.117.289.168.289.168.172.254.379.195.375.25.375.156.168.23.375.184.375.246.375.152.129.191.289c.063.258.184.438.703 1.051a2.59 2.59 0 0 1 .27.473c.082.172.191.316.25.316s.105.082.105.188.113.254.25.344.25.203.25.262c0 .105.441.699.813 1.094.102.109.188.266.188.348s.082.184.18.223.215.168.254.293.297.469.57.77l.871.961c.203.223.371.449.371.5s.309.387.688.746.688.703.688.762c0 .125 3.223 3.402 3.352 3.402.082 0 1.32 1.113 2.152 1.934.246.246.5.445.563.445s.246.145.406.313.359.313.441.313.211.113.297.25.227.25.313.25.297.168.469.375.379.375.469.375.195.086.234.188.141.188.223.188.258.105.391.227.426.309.648.406.406.227.406.277.141.152.313.219.313.176.313.246.082.129.18.129a.37.37 0 0 1 .281.156c.055.086.27.242.477.344s.414.254.469.336.258.184.457.227.391.156.426.25.234.203.438.25.406.16.441.262.156.18.262.18.191.051.191.117.125.156.281.203.41.191.566.313.453.262.656.309.367.129.367.191.227.176.5.258.5.199.5.258.082.102.18.102.254.078.348.172.375.238.633.32.465.203.465.258.281.176.625.266.621.195.621.242.227.156.5.246.5.207.5.258.199.129.438.172.438.129.438.184.309.172.688.262.688.203.688.254.309.156.684.25.688.203.688.25.34.16.75.25.75.207.75.262.281.141.625.188.625.125.625.18.363.164.809.246.813.195.813.242.449.164 1 .25 1.027.207 1.063.262.621.168 1.309.254 1.25.203 1.25.254.434.137.969.184.996.133 1.027.184.992.168 2.125.258 2.102.223 2.148.293c.121.184 10.563.188 10.688.004.047-.074 1.035-.203 2.207-.289s2.152-.203 2.188-.258.457-.137.934-.184.902-.133.938-.191.641-.176 1.348-.262 1.277-.203 1.277-.254.449-.16 1-.246 1-.199 1-.254.395-.164.875-.246.871-.191.871-.246.254-.137.563-.184.563-.133.563-.187.367-.176.813-.258.813-.191.813-.238.266-.16.594-.254.648-.211.715-.258.395-.168.719-.262.594-.211.594-.262.195-.129.438-.176.438-.125.438-.18.281-.172.625-.262.621-.195.621-.242.227-.156.5-.246.5-.203.5-.25.227-.16.5-.25.5-.211.5-.262.168-.133.375-.176.375-.133.375-.195.223-.176.5-.258.496-.195.496-.254.227-.168.5-.25.5-.184.5-.223.184-.156.406-.254.48-.254.57-.344.246-.164.344-.164.18-.055.18-.117.195-.187.438-.277.438-.203.438-.262.141-.156.313-.223.313-.164.313-.219.195-.176.434-.262.438-.211.438-.277.086-.117.191-.117.223-.086.266-.187.133-.187.211-.187.309-.145.512-.316.492-.348.645-.387.313-.148.348-.246.152-.176.254-.176.25-.113.324-.254.215-.25.32-.25.215-.082.254-.184a.55.55 0 0 1 .305-.258c.215-.066.691-.457 1.441-1.184.145-.137.32-.25.387-.25s.301-.199.52-.441.445-.437.504-.437.422-.309.809-.687.734-.687.773-.687c.098 0 3.676-3.605 3.676-3.703 0-.043.309-.391.688-.77s.688-.734.688-.793.195-.297.438-.531.438-.469.438-.523.125-.223.281-.375a4.88 4.88 0 0 0 .492-.578c.402-.57.66-.895.879-1.094.121-.113.219-.277.219-.367s.086-.195.188-.234.188-.148.188-.238.105-.242.23-.332.273-.289.32-.445.156-.352.238-.437.316-.41.523-.723.402-.59.438-.625.145-.23.25-.437.254-.422.34-.477.156-.172.156-.262.113-.293.25-.449.25-.359.25-.441c0-.129.113-.293.617-.895a1.38 1.38 0 0 0 .203-.473c.047-.18.152-.367.238-.418s.223-.301.309-.559.195-.473.25-.473.172-.254.258-.562.203-.562.262-.562.145-.141.188-.312.117-.312.168-.312.164-.227.258-.504.203-.5.254-.5.16-.266.254-.594.234-.668.32-.754.195-.355.242-.594.125-.437.18-.437.141-.168.184-.375.125-.375.18-.375.164-.309.246-.687.203-.687.262-.687.141-.227.188-.504.156-.574.242-.66.23-.539.324-1 .207-.844.258-.844.129-.223.176-.5.129-.5.188-.5.172-.422.258-.937.188-.941.234-.941.16-.465.25-1.031.211-1.062.27-1.098.168-.586.254-1.223.191-1.152.242-1.152.129-.453.176-1.004.133-1 .184-1c.094 0 .379-3.02.379-4.035 0-.332.063-.598.148-.625.211-.07.207-9.891-.004-9.961-.082-.027-.145-.309-.145-.676 0-.941-.27-3.652-.375-3.797-.051-.066-.133-.559-.184-1.094s-.129-.969-.18-.969-.168-.566-.254-1.254-.199-1.25-.25-1.25-.164-.48-.254-1.066-.203-1.062-.25-1.062-.156-.379-.246-.844-.207-.902-.262-.973-.137-.336-.184-.594-.129-.469-.18-.469-.168-.34-.254-.754-.199-.75-.246-.75-.16-.309-.242-.687-.199-.687-.25-.687-.164-.312-.25-.691-.199-.687-.254-.687-.137-.172-.176-.383-.164-.469-.266-.57a.79.79 0 0 1-.191-.484c0-.164-.082-.379-.184-.48s-.254-.445-.336-.762-.191-.574-.234-.574-.152-.227-.242-.5-.207-.504-.258-.504-.125-.141-.168-.312-.129-.312-.187-.312-.176-.254-.262-.562-.199-.562-.25-.562-.164-.168-.25-.375-.195-.375-.25-.375-.16-.25-.246-.559-.234-.582-.328-.621-.176-.152-.176-.258-.051-.191-.117-.191-.187-.199-.273-.437-.195-.437-.242-.437-.156-.172-.242-.379-.195-.375-.246-.375-.172-.184-.262-.406-.195-.434-.234-.469a8.57 8.57 0 0 1-.441-.625c-.207-.312-.445-.609-.531-.664a.38.38 0 0 1-.156-.285c0-.102-.086-.219-.187-.258s-.187-.137-.187-.215c0-.133-.32-.574-.801-1.113-.109-.121-.199-.273-.199-.34s-.109-.184-.25-.258-.25-.215-.25-.316-.109-.281-.246-.398-.25-.266-.25-.328-.199-.301-.437-.527-.437-.453-.437-.504-.227-.312-.5-.582-.5-.539-.5-.594-.422-.527-.937-1.039-.937-.973-.937-1.02c0-.117-1.566-1.699-1.684-1.699-.055 0-.512-.422-1.02-.941s-.973-.937-1.035-.937-.332-.227-.602-.5-.527-.5-.574-.5-.254-.172-.453-.375-.422-.379-.488-.379-.195-.102-.285-.23a1.61 1.61 0 0 0-.477-.391c-.172-.09-.355-.242-.41-.336s-.164-.168-.242-.168-.227-.086-.336-.191c-.453-.441-.957-.809-1.102-.809-.086 0-.156-.059-.156-.129s-.141-.184-.312-.25-.312-.164-.312-.223-.195-.18-.434-.273-.461-.246-.492-.336-.152-.168-.258-.168-.191-.059-.191-.133-.168-.187-.375-.262-.371-.176-.371-.23-.172-.16-.375-.23-.375-.18-.375-.242-.199-.184-.437-.277-.437-.215-.437-.266-.168-.129-.375-.176-.375-.129-.375-.187c0-.113-1.496-.875-1.727-.875-.082 0-.145-.059-.145-.133s-.172-.191-.375-.262-.375-.176-.375-.234-.168-.141-.375-.184-.375-.129-.375-.184-.254-.164-.562-.242-.562-.191-.562-.25-.254-.18-.562-.266-.559-.191-.559-.238-.254-.156-.562-.246-.562-.211-.562-.266-.199-.133-.437-.18-.437-.129-.437-.18c0-.059-.309-.176-.687-.266s-.687-.203-.687-.25-.309-.156-.684-.242-.687-.199-.687-.254-.367-.176-.812-.266-.812-.203-.812-.258-.254-.133-.562-.18-.562-.121-.562-.172-.379-.16-.84-.25-.898-.211-.969-.262-.562-.168-1.094-.258-.969-.199-.969-.242-.559-.156-1.246-.246-1.25-.207-1.25-.258-.465-.133-1.031-.184-1.086-.133-1.152-.184C71.59.887 68.871.625 67.82.625c-.426 0-.762-.055-.762-.125 0-.082-1.582-.125-4.496-.125-2.473 0-4.496.047-4.496.109M27.77 46.77c.129.332.086 2.805-.051 3.063-.117.219-.273.242-1.504.242-1.578 0-2.031.141-2.5.766-.527.699-.531.754-.621 5.621-.098 5.285-.109 5.363-.992 6.281l-.562.59.406.324c.992.793 1.152 1.715 1.152 6.727.004 5.766.258 6.23 3.395 6.23 1.43.004 1.355-.094 1.355 1.691 0 1.816.129 1.691-1.73 1.688-2.457-.004-3.684-.43-4.941-1.719-1.621-1.664-1.723-2.074-1.809-7.48-.086-5.242-.258-5.945-1.461-5.945-.477 0-.559-.266-.523-1.641l.039-1.293.453-.129c1.32-.375 1.395-.664 1.492-5.953.09-4.953.125-5.164 1.035-6.539.879-1.32 2.375-2.359 3.734-2.586 1.219-.203 3.547-.164 3.633.063m73.316-.062c2.164.398 3.941 2.055 4.629 4.309.195.641.238 1.379.297 5.133.082 5.137.133 5.332 1.477 5.625l.41.09-.07 2.922-.375.043c-1.25.137-1.363.566-1.441 5.652-.086 5.414-.211 5.961-1.699 7.621-1.242 1.383-2.613 1.891-5.129 1.891l-1.656.004v-3.352l1.547-.051c3.012-.102 3.109-.297 3.211-6.488.086-5.148.113-5.332.941-6.254l.547-.609-.34-.27c-1.004-.793-1.062-1.117-1.148-6.449-.102-6.27-.133-6.336-3.07-6.449l-1.625-.062-.035-1.719-.035-1.723h1.418c.777 0 1.746.063 2.148.137m-15.457 1.691c3.023 1.746.777 6.516-2.516 5.34-2.633-.941-2.602-5.172.043-5.613.246-.039.504-.094.574-.121.305-.113 1.418.121 1.898.395m-37.113 7.074c3.383.512 5.367 2.23 5.984 5.18.18.879.203 1.805.172 7.387l-.039 6.387-2.355.031c-2.719.039-2.703.047-2.703-.926 0-.758-.059-.801-.488-.348-1.199 1.266-4.324 1.996-6.629 1.547-4.812-.934-6.754-6.637-3.477-10.203 2.199-2.391 7.289-2.535 10.125-.289l.469.371v-1.352c0-1.672-.117-2.113-.715-2.695-1.68-1.641-5.473-1.383-7.887.531-.348.273-.656.5-.687.5-.109 0-1.824-3.098-1.824-3.293 0-.215 1.711-1.402 2.625-1.824 2.285-1.062 4.801-1.402 7.43-1.004m23.34.063c8.68 1.855 8.457 17.809-.273 19.207-2.633.422-4.898-.191-6.527-1.762l-.742-.719v9.234h-5l.035-12.863.031-12.863 2.465-.031 2.469-.035v2.223l.707-.668c1.84-1.727 4.117-2.301 6.836-1.723m14.777 9.492c.023 7.32 0 9.277-.125 9.355-.184.117-4.473.141-4.766.027-.211-.078-.32-18.414-.113-18.621.047-.047 1.184-.07 2.527-.051l2.445.031.031 9.258M67.559 59.91c-1.008.211-1.957.691-2.687 1.363l-.559.516v6.613l.551.523c1.426 1.348 3.961 1.836 5.492 1.055 3.891-1.984 3.316-9.145-.801-10.012-1.117-.234-1.152-.234-1.996-.059m-22.883 6.324c-2.145.508-2.945 2.848-1.461 4.258 1.43 1.363 4.406 1.242 6.016-.242.547-.504.527-2.504-.031-3.027-.953-.891-3.02-1.344-4.523-.988" fill="rgb(4.705882%,7.843137%,10.980392%)"/><path d="M27.77 48.262c0 .824.02 1.145.047.715a14.82 14.82 0 0 0-.004-1.504c-.023-.395-.043-.039-.043.789m54.141.656l-.43.469.469-.43c.438-.402.527-.508.43-.508-.02 0-.23.211-.469.469m15.648.906c.043.152.328.191 1.539.195l1.488.008-1.43-.043c-.937-.027-1.469-.094-1.539-.195-.078-.109-.094-.098-.059.035m-72.914.223c-.082.051.398.074 1.059.055 1.875-.055 2.098-.109.52-.129-.789-.012-1.5.023-1.578.074m56.477.223c-.043.109-.07.438-.059.723.016.492.023.48.105-.164.09-.734.078-.887-.047-.559m-57.293.273c-.223.258-.387.535-.32.535.027 0 .172-.172.324-.379.301-.406.297-.508-.004-.156m81.977 1.41c0 .309.023.438.055.281a1.94 1.94 0 0 0 0-.562c-.031-.156-.055-.027-.055.281m-3.629.25c0 .242.027.34.059.219s.031-.316 0-.437-.059-.023-.059.219M19.41 55.707l.039 1.848v-3.691c-.02-1.016-.039-.187-.039 1.844m3.621.691l.039 1.977v-3.879c-.02-1.09-.039-.234-.039 1.902m82.918-.125l.039 1.914v-3.754c-.023-1.055-.039-.227-.039 1.84m-21.848-2.441l-.621.086.559.008c.313.008.676-.035.813-.094.285-.125.145-.125-.75 0m-39.055 1.59a1.7 1.7 0 0 0 .563 0c.156-.031.031-.055-.281-.055s-.434.023-.281.055m2.188 0c.188.031.496.031.688 0s.035-.051-.344-.051-.531.023-.344.051m21.602-.004c.121.031.32.031.438 0s.023-.055-.219-.055-.336.023-.219.055m1.875 0c.121.031.316.031.438 0s.02-.055-.219-.055-.34.023-.219.055m-11.312.383c-.035.055.68.082 1.582.063 3.078-.059 3.398-.105.934-.129-1.352-.016-2.484.016-2.516.066m22.203.063c-.031.086-.047 4.301-.027 9.359l.035 9.203.027-9.297.031-9.297h4.867l.035 9.266.031 9.266V55.77l-2.469-.031c-1.91-.027-2.484 0-2.531.125m-28.844 1.598c.27.277.52.5.551.5s-.156-.223-.426-.5-.516-.5-.547-.5.156.227.422.5m-7.523 1.969a2.89 2.89 0 0 0 .688 0c.191-.031.035-.055-.344-.055s-.531.023-.344.055m57.066.785c0 .242.027.34.059.219s.031-.316 0-.437-.059-.02-.059.219m-47.699 7.539l-.031 6.602-2.402.039-2.406.035 2.41.027c1.832.023 2.422-.008 2.465-.125.035-.086.047-3.086.027-6.668l-.035-6.508-.027 6.598m-5.047-4.68l.043 1.586-.355-.312-.352-.312.301.344c.168.188.348.344.406.344.129 0 .133-2.887.008-3.086-.051-.082-.074.566-.051 1.438M17.41 62.008c-.035.09-.047.727-.023 1.41l.035 1.242.063-1.41c.059-1.395.051-1.562-.074-1.242m26.328.676a2.89 2.89 0 0 0 .688 0c.188-.027.031-.051-.344-.051s-.535.023-.344.051m59.875.41c.125.141.113.223-.062.418-.211.238-.207.238.063.07.34-.207.348-.281.063-.496-.184-.141-.191-.141-.062.008m-25.531.5c0 .313.023.438.055.285s.027-.41 0-.566-.055-.027-.055.281m-56.355-.086c0 .023.184.207.406.41l.406.367-.367-.406c-.34-.379-.445-.465-.445-.371m17.445.859l-.648.645.688-.605.738-.645c.027-.023.012-.039-.039-.039s-.383.289-.738.645m33.797.668c0 .551.023.762.051.465a6.57 6.57 0 0 0 0-1c-.027-.258-.051-.016-.051.535m5.238.063c0 .309.023.438.055.281a1.94 1.94 0 0 0 0-.562c-.031-.156-.055-.027-.055.281m28.313.188c-.16.172-.27.332-.242.359s.184-.117.344-.312c.359-.441.297-.473-.102-.047m-4.215 1.129c0 .273.027.371.055.215s.031-.379 0-.5-.055.008-.055.285m-24.223.188c0 .309.023.434.055.281s.027-.41 0-.566-.055-.027-.055.285m-55.051 3.566l.039 1.98v-3.883c-.02-1.086-.039-.23-.039 1.902m19.98-3.035l-.367.406.406-.367c.379-.344.465-.445.367-.445-.023 0-.203.184-.406.406m62.938 3.223l.039 1.848v-3.695c-.023-1.016-.039-.184-.039 1.848m-86.539.5l.039 1.848v-3.691c-.02-1.016-.039-.187-.039 1.844m30.145-2.164c.039 1.16.027 1.207-.312 1.586l-.352.391.402-.367c.402-.363.648-2.535.313-2.742-.051-.031-.074.477-.051 1.133m-12.176-.027c.004.551.023.762.051.469a6.15 6.15 0 0 0 0-1.004c-.027-.254-.051-.016-.051.535m30.648 1.781c.227.027.563.027.75 0s.004-.051-.41-.051-.562.023-.34.051m-23.383.91c.137.063.332.109.434.109.121 0 .098-.039-.062-.109-.137-.059-.332-.105-.434-.105-.121 0-.098.039.063.105m30.781 1.316c-.305.309-.523.563-.488.563s.309-.254.613-.562.523-.562.488-.562-.312.254-.613.563m-10.867-.148c0 .02.184.203.406.406l.406.367-.367-.406c-.34-.379-.445-.465-.445-.367m-15.008.18c-.023.051-.008.434.031.844l.078.754.02-.848c.02-.77-.023-1.004-.129-.75m-.91.723c-.492.402-.359.398.188-.004.23-.172.367-.309.305-.309s-.289.145-.492.313m53.535.938c0 .238.027.34.059.219a1.05 1.05 0 0 0 0-.441c-.031-.117-.059-.02-.059.223m3.629.375c0 .309.023.438.055.281a1.94 1.94 0 0 0 0-.562c-.031-.156-.055-.031-.055.281m-22.852-.281l2.375-.004c.633-.02.082-.039-1.227-.039l-1.148.043m-63.469.668c0 .164.055.387.121.488.09.133.102.059.043-.25-.098-.539-.168-.641-.164-.238m8.285 3.18c0 .828.02 1.148.047.715a14.74 14.74 0 0 0-.004-1.5c-.023-.395-.043-.039-.043.785m76.25 0c-.301.309-.523.563-.488.563s.313-.254.613-.562.523-.562.492-.562-.312.254-.617.563" fill="rgb(35.686275%,40.392157%,41.176471%)"/><path d="M25.816 46.664a12.26 12.26 0 0 0 1.313 0c.359-.027.066-.047-.656-.047s-1.016.02-.656.047m72.434 0c.363.023.926.023 1.25-.004s.027-.043-.66-.043-.953.02-.59.047m-.676 1.598c0 .824.02 1.145.047.715s.023-1.109 0-1.504-.047-.039-.047.789m4.754 7.887l.039 1.914v-3.754c-.023-1.055-.039-.227-.039 1.84m0 14.332l.039 1.848v-3.695c-.023-1.016-.039-.184-.039 1.848M25.82 76.707a9.53 9.53 0 0 0 1.25 0c.324-.027.027-.047-.66-.047s-.949.023-.59.047m72.43 0a9.53 9.53 0 0 0 1.25 0c.324-.027.027-.047-.66-.047s-.953.023-.59.047m-.676 1.598c0 .828.02 1.148.047.715s.023-1.109 0-1.5-.047-.039-.047.785m-36.918 3.16h2.313c.633-.023.113-.039-1.156-.039l-1.156.039" fill="rgb(51.764706%,54.901961%,56.078431%)"/><path d="M24.383 46.781c.121.031.316.031.438 0s.02-.059-.219-.059-.34.027-.219.059m76.172 0c.121.031.316.031.438 0s.023-.059-.219-.059-.336.027-.219.059m-16.129 1.336c.027.023.223.082.426.129.273.063.324.051.188-.043-.168-.113-.738-.195-.613-.086m-58.664 1.801a13.37 13.37 0 0 0 1.371 0c.359-.027.035-.047-.723-.047s-1.047.02-.648.047m72.484 0c.359.023.949.023 1.309 0s.066-.047-.652-.047-1.016.02-.656.047m7.578 6.168l.039 1.781v-3.566c-.023-.98-.039-.18-.039 1.785m-22-2.289a2.22 2.22 0 0 0 .625-.004c.152-.027-.004-.051-.348-.051s-.469.023-.277.055m-22.043 2.129l2.406.039v1.063c0 1.234.02 1.25.754.465l.555-.594-.586.551-.59.555-.035-1.055-.035-1.051-2.437-.008-2.434-.004 2.402.039m21.109 0h2.5c.664-.02.086-.039-1.289-.039l-1.211.039M59.375 68.664l.035 6.363V62.383c-.02-3.496-.035-.672-.035 6.281m-6.738-11.203c.266.277.516.5.547.5s-.156-.223-.426-.5-.516-.5-.547-.5.156.227.426.5m-33.293 2.535c-.035.27-.016.422.047.359s.09-.27.066-.469c-.043-.332-.051-.324-.113.109m44.898 1.754c-.035.09-.047 1.652-.027 3.477l.035 3.313.063-3.473.027-3.473c-.02 0-.062.07-.098.156m43.551 1.492c-.023 1.156-.055 1.344-.246 1.395-.203.055-.203.059.004.07.32.02.355-.164.309-1.559l-.039-1.242-.027 1.336m-58.047.289c0 .758.023 1.051.047.656s.023-1.02 0-1.379-.047-.031-.047.723m-6.316-.719c.363.023.926.023 1.25 0s.027-.047-.66-.047-.953.02-.59.047m29.664 2.285c0 .449.02.629.047.406s.031-.59 0-.812-.047-.043-.047.406m4.984-.062c0 .277.027.375.059.219s.027-.383-.004-.5-.055.004-.055.281m27.746 5.445l.039 1.785s.02-2.586 0-3.57-.039-.176-.039 1.785m-56.078-1.754c0 .656.02.922.047.598s.023-.863 0-1.191-.047-.059-.047.594m-.492 1.66l-.363.406.402-.367c.379-.344.465-.445.367-.445-.02 0-.203.184-.406.406m14.988 6.289l.039 2.277v-4.629c-.023-1.254-.039-.195-.039 2.352m.691-3.879c.234.242.453.438.488.438s-.129-.195-.363-.437-.449-.437-.484-.437.129.195.359.438m-15.262.344c.066 1.184.117 1.301.133.313.012-.531-.023-.969-.074-.969s-.078.297-.059.656m-30.164 1.098c0 .238.027.336.059.219a1.05 1.05 0 0 0 0-.441c-.031-.117-.059-.02-.059.223m24.293.586a1.7 1.7 0 0 0 .563 0c.152-.027.027-.055-.281-.055s-.437.027-.281.055m25.914.004c.188.027.469.027.621-.004s0-.051-.344-.051-.469.023-.277.055m-43.953 5.133c.395.027 1.016.027 1.371 0s.035-.043-.723-.043-1.047.02-.648.043m72.551 0a11.53 11.53 0 0 0 1.375 0c.355-.023.031-.043-.723-.043s-1.051.02-.652.043" fill="rgb(54.901961%,54.901961%,58.039216%)"/></svg>