<svg xmlns="http://www.w3.org/2000/svg" width="66.667" height="66.667" viewBox="0 0 50 50" fill-rule="evenodd" xmlns:v="https://vecta.io/nano"><path d="M10.285 15.934c-.02.02-.035 4.238-.035 9.375v9.344l5.313-.02 5.586-.078.5-.102c1.859-.367 3.266-1.477 3.902-3.078.422-1.062.516-2.926.203-4.039l-.098-.348c-.137-.508-.48-1.141-.832-1.527-.418-.469-1.316-.906-1.879-.914-.375-.008-.457-.066-.227-.164a.96.96 0 0 1 .285-.082c.051 0 .105-.023.121-.051s.082-.051.141-.051.164-.047.234-.098.148-.102.176-.102c.074 0 .672-.488.848-.691.98-1.121 1-3.625.039-5.23-.359-.598-1.215-1.336-1.863-1.602l-.437-.187a2.87 2.87 0 0 0-.449-.145l-.461-.102c-.125-.027-.496-.07-.828-.094-.719-.047-10.191-.062-10.238-.016m19.688 1.129c-.012.035-.02.535-.012 1.113l.016 1.051h7.648v-2.203l-3.812-.012c-3.066-.012-3.82 0-3.84.051m-9.777 2.141c1.043.223 1.551 2.043.941 3.395-.379.844-.445.859-3.887.84l-2.727-.012-.012-2.098c-.012-1.645 0-2.105.051-2.137.098-.062 5.336-.051 5.633.012m12.98 1.547a9.46 9.46 0 0 0-1.535.254c-.473.125-1.492.563-1.531.66-.012.02-.039.035-.066.035-.047 0-.375.215-.617.398a9.94 9.94 0 0 0-1.125 1.176c-.094.141-.184.262-.199.277s-.059.078-.094.145-.109.191-.156.281a9.45 9.45 0 0 0-.145.254c-.645 1.125-1.125 3.871-.863 4.918.023.098.07.344.105.551.301 1.859 1.477 3.605 2.949 4.391a8.75 8.75 0 0 1 .465.254.84.84 0 0 0 .277.105c.051 0 .109.02.137.043s.148.07.273.109a1.49 1.49 0 0 1 .273.102c.027.02.129.047.227.063s.297.055.449.082c1.215.234 2.984.234 4.102.004l.375-.078c.082-.016.195-.047.25-.07s.188-.066.297-.102c.254-.078.465-.164.902-.387 1.438-.723 2.281-2.016 2.398-3.676l.031-.437h-3.184l-.062.273c-.148.641-.906 1.477-1.34 1.477a.43.43 0 0 0-.156.043c-1.086.563-3.176.195-4.074-.719-.453-.457-.789-1.332-.789-2.043v-.332h9.758l-.027-1.062c-.031-1.242-.094-1.809-.281-2.465l-.098-.348c-.348-1.25-1.789-3.227-2.348-3.227-.031 0-.055-.02-.055-.043s-.039-.059-.086-.074a.94.94 0 0 1-.215-.102c-.109-.07-.25-.133-.773-.355-.734-.312-2.234-.477-3.449-.375m1.898 2.777c1.086.371 1.809 1.371 1.844 2.547l.008.25-3.09.012-3.086.016v-.199a1.06 1.06 0 0 1 .055-.336l.094-.242c.652-1.715 2.504-2.625 4.176-2.047m-14.723 2.789c.711.199 1.242.691 1.473 1.359.172.492.254 1.777.129 2.012a3.2 3.2 0 0 0-.109.313c-.035.125-.102.285-.152.359s-.09.152-.09.176c0 .172-.648.617-1.09.746-.293.086-5.59.172-5.895.098l-.117-.031v-2.516l.035-2.547c.063-.066 5.574-.035 5.816.031" fill="rgb(94.901961%,95.294118%,95.686275%)"/><path d="M22.336.035c-.266.008-.484.039-.484.066s-.156.047-.348.047-.363.023-.379.051-.152.051-.305.051-.27.023-.27.051-.113.051-.246.051-.262.02-.281.047-.117.051-.227.051-.195.023-.195.051-.113.051-.25.051-.25.023-.25.051-.078.047-.172.047-.187.023-.203.051-.109.051-.203.051-.172.023-.172.051-.082.051-.176.051S18 .871 18 .898s-.078.051-.176.051-.176.023-.176.051-.066.051-.148.051-.148.023-.148.055-.031.043-.066.031c-.059-.023-.305.051-1.109.336a4.5 4.5 0 0 0-.437.184c-.047.023-.121.043-.164.043s-.074.023-.074.051-.055.051-.121.051-.137.023-.152.051-.078.047-.129.047-.098.023-.098.051-.047.051-.102.051-.098.023-.098.051-.047.051-.102.051-.098.02-.098.047-.059.051-.125.051-.125.023-.125.051-.031.051-.07.051a1.5 1.5 0 0 0-.523.262c-.008.02-.059.039-.113.039s-.094.016-.094.035c0 .047-.242.164-.336.164-.035 0-.066.023-.066.051s-.027.047-.062.047-.117.047-.176.102-.141.102-.184.102-.078.023-.078.051-.02.039-.043.023-.082.008-.125.051-.082.066-.082.047-.035.004-.078.047-.098.066-.125.051-.047-.004-.047.027-.023.051-.051.051-.152.066-.273.152-.238.148-.258.148-.078.047-.117.102-.105.098-.148.098-.109.047-.152.102-.105.098-.148.098-.109.047-.148.102-.109.102-.152.102-.109.043-.148.098-.102.102-.137.102-.062.023-.062.051-.031.047-.066.047-.094.047-.137.102-.102.102-.141.102-.129.066-.207.148-.156.148-.172.148c-.035 0-.094.047-.328.266-.082.074-.172.137-.199.137s-.184.133-.352.301-.328.297-.355.297-.258.223-.52.488L6.637 7.875l-.488.52c0 .027-.133.188-.297.355s-.301.328-.301.352-.062.117-.137.199c-.219.234-.266.293-.266.328 0 .016-.066.094-.148.172s-.148.172-.148.207-.047.102-.102.141-.102.102-.102.137-.02.066-.047.066-.051.027-.051.063-.047.098-.102.137-.098.105-.098.148-.047.109-.102.152-.102.105-.102.148-.043.109-.098.148-.102.109-.102.152-.043.109-.098.148-.102.094-.102.117-.066.141-.148.258-.152.242-.152.273-.023.051-.051.051-.043.023-.027.047-.004.082-.051.125-.062.078-.047.078 0 .039-.047.082-.066.098-.051.125.008.043-.023.043-.051.035-.051.078-.047.125-.102.184-.102.137-.102.176-.02.063-.047.063-.051.031-.051.066c0 .094-.117.336-.164.336-.02 0-.035.043-.035.094s-.02.105-.039.113a1.5 1.5 0 0 0-.262.523c0 .039-.023.07-.051.07s-.051.055-.051.125-.023.125-.051.125-.047.043-.047.098-.023.102-.051.102-.051.043-.051.098-.023.102-.051.102-.051.043-.051.098-.02.109-.047.129-.051.086-.051.152-.023.121-.051.121-.051.035-.051.074-.02.117-.043.164a4.5 4.5 0 0 0-.184.438l-.336 1.109c.012.035 0 .066-.031.066s-.055.066-.055.148-.023.148-.051.148-.051.082-.051.176S.926 18 .898 18s-.047.078-.047.176-.023.176-.051.176-.051.074-.051.172-.023.184-.051.203-.051.105-.051.203-.02.172-.047.172-.051.109-.051.25-.023.25-.051.25-.051.086-.051.195-.023.211-.051.227-.047.145-.047.281-.023.246-.051.246-.051.121-.051.27-.023.289-.051.305-.051.184-.051.375c0 .23-.02.348-.063.363-.09.031-.09 6.242 0 6.273.043.016.063.133.063.363 0 .191.023.359.051.375s.051.152.051.305.023.27.051.27.051.125.051.277.02.273.047.273.051.09.051.199.023.199.051.199.051.113.051.25.023.25.051.25.047.09.047.203.023.199.051.199.051.078.051.176.023.172.051.172.051.082.051.176.02.176.047.176.051.078.051.176.023.176.051.176.051.066.051.148.023.148.055.148.043.031.031.066c-.023.059.051.305.336 1.109a4.5 4.5 0 0 0 .184.438c.023.047.043.121.043.164s.023.074.051.074.051.055.051.121.023.137.051.152.047.078.047.129.023.098.051.098.051.047.051.102.023.098.051.098.051.047.051.102.02.098.047.098.051.059.051.125.023.125.051.125.051.031.051.07a1.5 1.5 0 0 0 .262.523c.02.008.039.059.039.113s.02.094.047.094.051.047.051.102.023.098.051.098.051.047.051.102.023.102.051.102.047.027.047.063.047.117.102.176.102.141.102.184.023.078.051.078.039.02.023.043.008.082.051.125.066.082.047.082.004.035.047.078.066.098.051.125-.004.047.027.047.051.023.051.051.066.152.152.273.148.238.148.258.047.078.102.117.098.105.098.148.047.109.102.152.098.105.098.148.047.109.102.148.102.109.102.152.043.109.098.148.102.102.102.137.023.063.051.063.047.031.047.066.047.094.102.137.102.102.102.141.066.129.148.207.148.156.148.172c0 .035.047.094.266.328.074.082.137.172.137.199s.133.184.301.352.297.328.297.352.242.285.539.574l.625.613.59.598c.273.281.523.512.551.512s.172.125.324.277.293.273.316.273.141.09.262.199.238.203.262.203.105.066.184.148.172.148.207.148.102.047.141.102.102.102.137.102.066.02.066.047.027.051.063.051.098.047.137.102.105.098.148.098.109.047.152.102.105.102.148.102.109.043.148.098.109.102.152.102.109.043.148.098.094.102.117.102.141.066.258.148.242.152.273.152.051.023.051.051.047.047.102.047.102.02.102.043c0 .043.316.207.402.207.027 0 .098.047.156.102s.137.102.176.102.063.02.063.047.047.051.102.051.102.023.102.051.043.051.098.051.102.023.102.051.043.047.094.047.105.02.113.039a1.5 1.5 0 0 0 .523.262c.039 0 .07.023.07.051s.055.051.125.051.125.023.125.051.043.047.098.047.102.023.102.051.043.051.098.051.102.023.102.051.043.051.098.051.109.02.129.047.086.051.152.051.121.023.121.051.035.051.074.051.117.02.164.043c.078.039.168.078.488.211.293.121 1.191.395 1.301.395.066 0 .121.023.121.051s.082.051.176.051.176.023.176.051.078.047.176.047.176.023.176.051.078.051.172.051.176.023.176.051.09.051.199.051.203.02.203.047.109.051.25.051.25.023.25.051.09.051.199.051.199.023.199.051.125.047.273.047.277.023.277.051.121.051.27.051.289.023.305.051.184.051.375.051c.23 0 .348.02.363.063.031.09 6.242.09 6.273 0 .016-.043.133-.062.363-.062.191 0 .359-.023.375-.051s.152-.051.305-.051.27-.023.27-.051.125-.051.277-.051.273-.02.273-.047.09-.051.199-.051.199-.023.199-.051.113-.051.25-.051.25-.023.25-.051.09-.047.203-.047.199-.023.199-.051.078-.051.176-.051.172-.023.172-.051.082-.051.176-.051.176-.02.176-.047.078-.051.176-.051.176-.023.176-.051.055-.051.121-.051c.113 0 1.035-.281 1.316-.402l.25-.102.223-.102c.047-.023.121-.043.164-.043s.074-.023.074-.051.055-.051.121-.051.137-.023.152-.051.078-.047.129-.047.098-.023.098-.051.047-.051.102-.051.098-.023.098-.051.047-.051.102-.051.098-.02.098-.047.059-.051.125-.051.125-.023.125-.051.031-.051.07-.051a1.5 1.5 0 0 0 .523-.262c.008-.02.059-.039.113-.039s.094-.02.094-.047.047-.051.102-.051.098-.023.098-.051.047-.051.102-.051.102-.023.102-.051.027-.047.063-.047.117-.047.176-.102.129-.102.156-.102c.086 0 .402-.164.402-.207 0-.023.047-.043.102-.043s.102-.02.102-.047.023-.051.051-.051.152-.066.273-.152.238-.148.258-.148.078-.047.117-.102.105-.098.148-.098.109-.047.152-.102.105-.098.148-.098.109-.047.148-.102.109-.102.152-.102.109-.043.148-.098.102-.102.137-.102.063-.023.063-.051.031-.047.066-.047.094-.047.137-.102.102-.102.141-.102.129-.066.207-.148.16-.148.184-.148.141-.09.262-.203.238-.199.262-.199.164-.121.316-.273.297-.277.324-.277.289-.246.59-.547l1.215-1.215.547-.59c0-.027.125-.172.277-.324s.273-.293.273-.316.09-.141.199-.262.203-.238.203-.262.066-.105.148-.184.148-.172.148-.207.047-.102.102-.141.102-.102.102-.137.02-.066.047-.066.051-.027.051-.062.047-.098.102-.137.098-.105.098-.148.047-.109.102-.152.102-.105.102-.148.043-.109.098-.148.102-.109.102-.152.043-.109.098-.148.102-.094.102-.117.066-.141.148-.258.152-.242.152-.273.023-.051.051-.051.047-.047.047-.102.02-.102.043-.102c.043 0 .207-.316.207-.402 0-.027.047-.098.102-.156s.102-.137.102-.176.02-.062.047-.062.051-.047.051-.102.023-.102.051-.102.051-.043.051-.098.023-.102.051-.102.047-.043.047-.094.02-.105.039-.113a1.5 1.5 0 0 0 .262-.523c0-.039.023-.07.051-.07s.051-.055.051-.125.023-.125.051-.125.047-.043.047-.098.023-.102.051-.102.051-.043.051-.098.023-.102.051-.102.051-.043.051-.098.02-.109.047-.129.051-.086.051-.152.023-.121.051-.121.051-.035.051-.074.02-.117.043-.164l.102-.223.102-.25c.121-.281.402-1.203.402-1.316 0-.066.023-.121.051-.121s.051-.082.051-.176.023-.176.051-.176.047-.078.047-.176.023-.176.051-.176.051-.078.051-.172.023-.176.051-.176.051-.09.051-.199.02-.203.047-.203.051-.109.051-.25.023-.25.051-.25.051-.09.051-.199.023-.199.051-.199.047-.125.047-.273.023-.277.051-.277.051-.121.051-.27.023-.289.051-.305.051-.184.051-.375c0-.23.02-.348.063-.363s.063-.687.063-3.137l-.062-3.137c-.043-.016-.062-.133-.062-.363 0-.191-.023-.359-.051-.375s-.051-.152-.051-.305-.023-.27-.051-.27-.051-.125-.051-.277-.02-.273-.047-.273-.051-.09-.051-.199-.023-.199-.051-.199-.051-.113-.051-.25-.023-.25-.051-.25-.047-.09-.047-.203-.023-.199-.051-.199-.051-.078-.051-.176-.023-.172-.051-.172-.051-.082-.051-.176-.02-.176-.047-.176-.051-.078-.051-.176-.023-.176-.051-.176-.051-.055-.051-.121c0-.109-.273-1.008-.395-1.301l-.211-.488c-.023-.047-.043-.121-.043-.164s-.023-.074-.051-.074-.051-.055-.051-.121-.023-.137-.051-.152-.047-.078-.047-.129-.023-.098-.051-.098-.051-.047-.051-.102-.023-.098-.051-.098-.051-.047-.051-.102-.02-.098-.047-.098-.051-.059-.051-.125-.023-.125-.051-.125-.051-.031-.051-.07a1.5 1.5 0 0 0-.262-.523c-.02-.008-.039-.059-.039-.113s-.02-.094-.047-.094-.051-.047-.051-.102-.023-.098-.051-.098-.051-.047-.051-.102-.023-.102-.051-.102-.047-.027-.047-.062-.047-.117-.102-.176-.102-.129-.102-.156c0-.086-.164-.402-.207-.402-.023 0-.043-.047-.043-.102s-.02-.102-.047-.102-.051-.023-.051-.051-.066-.152-.152-.273-.148-.238-.148-.258-.047-.078-.102-.117-.098-.105-.098-.148-.047-.109-.102-.152-.098-.105-.098-.148-.047-.109-.102-.148-.102-.109-.102-.152-.043-.109-.098-.148-.102-.102-.102-.137-.023-.062-.051-.062-.047-.031-.047-.066-.047-.094-.102-.137-.102-.102-.102-.141-.066-.129-.148-.207-.148-.16-.148-.184-.09-.141-.203-.262-.199-.238-.199-.262-.121-.164-.273-.316-.277-.297-.277-.324-.23-.277-.512-.551l-.605-.598-.613-.625-.566-.531c-.023 0-.184-.133-.352-.297s-.328-.301-.352-.301-.117-.062-.199-.137c-.234-.219-.293-.266-.328-.266-.016 0-.094-.066-.172-.148s-.172-.148-.207-.148-.102-.047-.141-.102-.102-.102-.137-.102-.066-.02-.066-.047-.027-.051-.062-.051-.098-.047-.137-.102-.105-.098-.148-.098-.109-.047-.152-.102-.105-.102-.148-.102-.109-.043-.148-.098-.109-.102-.152-.102-.109-.043-.148-.098-.094-.102-.117-.102-.141-.066-.258-.148-.242-.152-.273-.152-.051-.023-.051-.051-.023-.043-.047-.027-.082-.004-.125-.051-.078-.062-.078-.047-.039 0-.082-.047-.098-.066-.125-.051-.043.008-.043-.023-.035-.051-.078-.051-.125-.047-.184-.102-.137-.102-.176-.102-.062-.02-.062-.047-.047-.051-.102-.051-.102-.023-.102-.051-.043-.051-.098-.051-.102-.023-.102-.051-.043-.047-.094-.047-.105-.02-.113-.039a1.5 1.5 0 0 0-.523-.262c-.039 0-.07-.023-.07-.051s-.055-.051-.125-.051-.125-.023-.125-.051-.043-.047-.098-.047-.102-.023-.102-.051S35.156 2 35.102 2 35 1.977 35 1.949s-.043-.051-.098-.051-.109-.02-.129-.047-.086-.051-.152-.051-.121-.023-.121-.051-.035-.051-.074-.051-.117-.02-.164-.043a4.5 4.5 0 0 0-.437-.184l-1.109-.336c-.035.012-.066 0-.066-.031s-.066-.055-.148-.055-.148-.023-.148-.051-.082-.051-.176-.051S32 .926 32 .898s-.078-.047-.176-.047-.176-.023-.176-.051S31.57.75 31.477.75s-.176-.023-.176-.051-.09-.051-.199-.051-.203-.02-.203-.047-.109-.051-.25-.051-.25-.023-.25-.051-.09-.051-.199-.051S30 .426 30 .398s-.125-.047-.273-.047-.277-.023-.277-.051-.121-.051-.27-.051-.289-.023-.305-.051-.184-.051-.375-.051c-.223 0-.348-.02-.363-.059-.02-.059-4.602-.102-5.801-.055m-1.437 15.855l.625.102.402.098c.109.023.277.078.375.121l.41.184.266.105c.211 0 1.258.934 1.57 1.398.996 1.488 1.102 3.879.234 5.203-.141.211-.719.797-.789.797-.02 0-.066.031-.102.066-.09.09-.715.387-.812.387-.043 0-.078.031-.078.074 0 .051.051.074.16.074.477 0 1.277.43 1.734.926.211.234.605.82.605.902 0 .012.043.117.094.234.086.199.125.32.25.813.145.586.164.789.141 1.773l-.074 1.277c-.117.543-.152.66-.289 1-.574 1.387-1.484 2.242-3.008 2.832l-.227.086a5.58 5.58 0 0 1-.66.184 7.67 7.67 0 0 1-1.277.172c-.922.063-10.082.063-10.203 0s-.156-18.719-.035-18.84c.078-.078 10.02-.047 10.687.031m16.82 1.137c.039.105.039 2.063 0 2.211l-.031.113h-3.859c-2.934 0-3.871-.016-3.918-.062-.066-.062-.09-2.242-.027-2.305.082-.082 7.805-.039 7.836.043m-23.117 4.273v2.055l2.836-.016c3.145-.016 3.02-.004 3.344-.348.824-.875.523-3.641-.395-3.641-.043 0-.094-.023-.113-.051s-1.023-.051-2.852-.051h-2.82v2.051m20.547-.605c.805.105 1.285.238 1.941.535.145.066.273.121.289.121.223 0 1.402 1.012 1.801 1.547.633.844 1.008 1.77 1.273 3.125.082.414.164 2.023.125 2.438l-.035.391h-4.844l-4.875.047c-.043.074.07.832.18 1.188.293.941 1.008 1.574 2.121 1.871.305.082 1.789.086 2.004.008.082-.031.281-.094.445-.145.508-.148 1.227-.68 1.227-.906 0-.035.02-.062.043-.062.043 0 .117-.227.191-.578l.039-.199 1.664-.012c1.934-.016 1.758-.082 1.668.633-.176 1.406-.809 2.535-1.785 3.191-.109.07-.207.145-.223.16-.023.027-.324.191-.598.328-.621.313-1.34.52-2.352.68-.559.09-2.363.07-2.949-.031-.98-.172-1.199-.219-1.273-.27-.027-.02-.152-.066-.277-.105s-.246-.086-.273-.105-.094-.043-.152-.043-.125-.02-.152-.047-.227-.141-.445-.258c-.637-.336-1.824-1.371-1.824-1.59 0-.027-.02-.055-.043-.062a2.69 2.69 0 0 1-.359-.512c0-.016-.062-.133-.141-.266-.246-.422-.531-1.227-.652-1.84l-.117-.551c-.082-.352-.078-2.227.004-2.574l.164-.699c.41-1.762 1.313-3.246 2.52-4.129.109-.082.211-.16.223-.18s.133-.09.262-.164l.453-.246c.613-.34 1.598-.602 2.563-.687.301-.027.57-.059.598-.07.07-.031 1.176.016 1.574.07M33.477 23.5c-.055.023-.172.043-.262.047s-.172.027-.191.055-.07.047-.121.047c-.293 0-1.082.582-1.418 1.043-.277.379-.684 1.27-.684 1.496 0 .051.633.063 3.027.063h3.027l-.027-.289c-.035-.309-.109-.633-.184-.773-.023-.047-.043-.109-.043-.141s-.066-.148-.145-.262-.152-.234-.164-.266c-.078-.223-.645-.684-1.043-.844-.441-.18-1.527-.285-1.773-.176m-18.875 5.324v2.484l2.887-.02c2.297-.012 2.918-.031 3.035-.082.469-.211.613-.301.797-.484.418-.418.688-1.305.609-1.996l-.062-.551c-.016-.152-.051-.289-.074-.305s-.043-.082-.043-.145-.023-.133-.051-.152-.051-.074-.051-.129-.016-.094-.035-.094-.094-.094-.164-.207c-.141-.23-.465-.488-.828-.656-.246-.113-.25-.113-3.133-.129l-2.887-.016v2.48" fill="rgb(26.666667%,45.490196%,98.823529%)"/><path d="M10.211 15.859c-.07.07-.09 18.766-.023 18.809.02.012.031-4.164.023-9.285l.016-9.422.027-.113 5.156.012 5.012-.016c-.297-.062-10.148-.047-10.211.016m10.965.09c.148.066.273.066.176 0a.38.38 0 0 0-.176-.047l-.102.004.102.043m.328.07c.012.008.09.031.172.051.109.023.129.02.074-.02-.066-.043-.297-.074-.246-.031m1.797.691a6.78 6.78 0 0 0 .324.262c.293.227.293.227.078.027-.172-.16-.527-.414-.402-.289m6.582.273c-.062.063-.039 2.242.027 2.305.066.07 7.789.09 7.789.023 0-.02-1.75-.039-3.887-.039h-3.887l-.016-1.121c-.008-.863.004-1.129.051-1.16.039-.023.043-.039.012-.043s-.07.016-.09.035m7.84 1.141c0 .605.008.844.016.535s.008-.805 0-1.102-.016-.039-.016.566m-13.566-.637a4.02 4.02 0 0 1 .414.512c.098.148.18.258.18.234 0-.117-.687-.984-.781-.984-.023 0 .063.105.188.238m.629.895c.063.16.211.441.211.402a1.74 1.74 0 0 0-.223-.484c-.012 0-.004.039.012.082m.316.797c0 .051.023.129.051.172.035.055.043.031.016-.078-.039-.184-.066-.223-.066-.094m-10.539 2.133l-.012 2.086 5.523-.023-2.734-.012-2.738-.016-.016-2.059-.012-2.062-.012 2.086m10.648-1.738c0 .055.02.168.039.25.035.137.039.137.039.027 0-.07-.016-.184-.039-.25-.031-.098-.039-.105-.039-.027m.105 1.277c0 .566.008.625.039.352a3.22 3.22 0 0 0 0-.672c-.035-.316-.039-.277-.039.32m-4.078-.168c.027.398.055.449.059.117 0-.152-.016-.305-.039-.34s-.031.063-.02.223m12.16-.039c-.121.016.168.031.645.031s.785-.016.676-.035c-.227-.039-1-.039-1.32.004m-.973.105c-.129.055.004.055.176 0 .098-.031.105-.039.023-.043a.61.61 0 0 0-.199.043m2.926 0c.168.055.301.055.172 0a.61.61 0 0 0-.199-.043c-.078.004-.074.012.027.043m.523.102a.6.6 0 0 0 .199.039c.082 0 .078-.008-.023-.039-.172-.055-.305-.055-.176 0M31.352 21c-.301.125-.195.129.125.004.137-.055.215-.098.172-.098s-.176.043-.297.094m-.535.191c-.113.047-.227.102-.25.125s.082-.008.234-.066.285-.117.297-.129c.039-.043-.078-.012-.281.07m5.934-.074c0 .012.074.047.16.078s.141.035.113.012c-.055-.055-.273-.125-.273-.09m-6.512.352c-.262.156-.305.215-.062.09.25-.133.363-.207.301-.203a1.24 1.24 0 0 0-.238.113m7.262 0c.34.227.449.293.449.27 0-.031-.539-.387-.586-.387-.02 0 .043.051.137.117m-16.242.18a2.83 2.83 0 0 1-.035.402l-.027.125.055-.125c.031-.066.047-.246.035-.398l-.016-.277-.012.273m3.969.23c-.016.098-.023.191-.012.203s.039-.059.059-.16.023-.191.012-.203-.039.059-.059.16m12.922-.012c0 .008.074.082.164.16l.164.148-.148-.164c-.137-.152-.18-.184-.18-.145m-9.348.719l-.426.438.438-.422c.242-.234.438-.43.438-.437 0-.035-.059.016-.449.422m9.699-.406c0 .023.07.102.152.168.148.113.523.59.816 1.027.07.109.133.18.133.156 0-.047-.125-.23-.48-.707-.273-.363-.621-.727-.621-.645m-17.477.473c-.02.063-.129.215-.238.344l-.207.23.191-.176c.188-.176.359-.437.313-.484-.012-.012-.039.027-.059.086m3.738.402c-.09.133-.16.262-.16.281s.078-.082.176-.227.172-.273.164-.285-.09.094-.18.23m3.316.383c-.098.129-.176.258-.176.285s.004.035.012.023c.172-.23.379-.547.359-.547a1.5 1.5 0 0 0-.195.238m-7.852-.137l-.152.039.137.004c.074.004.148-.016.164-.043s.023-.047.016-.043-.082.02-.164.043m13.047.199l-.098.043h.098a.63.63 0 0 0 .203-.043l.098-.043h-.098a.63.63 0 0 0-.203.043m1.328 0c.039.027.117.047.172.047l.102-.004-.102-.043c-.148-.062-.273-.062-.172 0m-10.551.309c-.098.082-.129.129-.074.102.09-.047.316-.262.27-.258-.012 0-.102.07-.195.156m3.738.105c-.113.168-.297.543-.281.563.012.008.102-.141.203-.332.184-.34.219-.449.078-.23m3.984.398l-.25.262.25-.223a7.52 7.52 0 0 1 .27-.238c.016-.008.012-.023 0-.039s-.137.094-.27.238m4.328-.039c.09.098.18.176.191.176s-.051-.078-.145-.176-.18-.172-.191-.172.051.078.145.172m-13.301.156l-.125.07h.16c.113 0 .164-.023.164-.074 0-.09-.035-.09-.199.004m13.5.086c0 .047.254.434.285.434.023 0-.176-.344-.242-.422-.023-.027-.043-.031-.043-.012m-4.918.246c-.227.297-.629 1.207-.566 1.273.012.008.059-.102.105-.246.105-.324.348-.809.512-1.027.066-.09.109-.16.098-.16s-.082.07-.148.16m-6.848.359a6.1 6.1 0 0 1 .398.395c.133.145.207.215.168.16-.137-.187-.527-.582-.625-.633-.055-.027-.031.008.059.078m12.297.84l.023.289h-3.023c-2.664 0-3.027-.008-3.047-.074-.02-.055-.023-.051-.016.012.008.082.18.09 3.047.102 3.41.012 3.137.047 3.043-.375l-.055-.238.027.285m3.547-.137c.043.184.07.223.07.098 0-.055-.023-.129-.051-.172-.039-.055-.043-.035-.02.074M25.273 26c.043.082.09.148.105.148s-.012-.066-.055-.148-.09-.148-.102-.148.008.066.051.148m1.707-.02c-.02.07-.027.141-.016.152s.039-.039.055-.113.027-.141.016-.152-.039.039-.055.113m13.504.543c.016.195.039.359.047.371.035.043.008-.473-.031-.594-.027-.078-.031.012-.016.223m-13.605-.145c-.02.074-.023.145-.012.156s.035-.039.055-.113.023-.145.012-.156-.035.039-.055.113m-12.297-.047c-.016.02-.031 1.156-.031 2.527v2.492l2.688-.008 2.836-.039c.078-.016-1.117-.023-2.664-.016l-2.809.016v-4.961l2.906.016 2.711-.02c-.25-.043-5.59-.051-5.637-.008m6.066.172c.125.055.305.16.402.234.156.117.164.117.074.016-.105-.121-.371-.27-.574-.324-.07-.016-.023.016.098.074m6.137.34a1.75 1.75 0 0 0-.031.301c.004.086.023.055.051-.094.027-.125.039-.258.031-.301s-.031 0-.051.094m-5.375.254c.09.133.172.238.184.227.02-.02-.289-.473-.32-.473-.016 0 .051.109.137.246M25.703 27c0 .043.02.109.047.148.043.066.047.066.047 0 0-.039-.02-.105-.047-.148-.043-.066-.047-.066-.047 0m14.867.898c0 .344.008.484.016.313a5.56 5.56 0 0 0 0-.625c-.008-.172-.016-.031-.016.313m-13.852.152c0 .289.008.406.02.262a5.85 5.85 0 0 0 0-.523c-.012-.145-.02-.027-.02.262m-.785-.027c.016.141.039.262.047.273.039.043.012-.328-.031-.422-.031-.066-.039-.02-.016.148m-4.074.125a1.31 1.31 0 0 0 .039.301c.059.176.059-.008.004-.273l-.039-.199-.004.172m4.898 1c0 .07.02.172.043.227l.043.102-.004-.102a1.06 1.06 0 0 0-.039-.227l-.039-.125-.004.125m4.051.125a2.01 2.01 0 0 0 .039.352c.055.262.059.027.004-.273-.027-.172-.039-.187-.043-.078m-8.93.203c-.02.129-.023.242-.012.258s.039-.078.059-.207.023-.242.012-.258-.043.082-.059.207m4.082.355c-.008.145-.023.301-.039.352-.027.086-.027.086.027.004.031-.047.047-.207.039-.352l-.02-.262-.008.258m.895-.105a.61.61 0 0 0 .043.199l.043.098v-.098a.61.61 0 0 0-.043-.199l-.043-.102v.102m10.191.457c-.027.074-.043.168-.035.211s.043-.016.074-.133c.059-.238.039-.281-.039-.078m3.297-.094c.051.035.063.137.039.418-.023.316-.02.336.02.141.066-.297.043-.562-.051-.586-.062-.016-.062-.012-.008.027m-9.293.246c-.004.184.605.98.855 1.117.043.023-.07-.109-.25-.293s-.395-.457-.469-.609-.137-.25-.137-.215m-9.535.164c-.047.082-.105.148-.125.148s-.039.027-.039.059c0 .039.016.039.063.004.07-.062.254-.359.215-.359-.012 0-.062.066-.113.148m4.313.078c-.02.074-.023.145-.008.16s.039-.035.059-.109.023-.145.008-.16-.039.035-.059.109m1.254.047c.039.184.066.223.066.098 0-.055-.023-.133-.051-.172-.035-.055-.043-.035-.016.074m.156.453c.047.125.09.207.098.184.02-.047-.125-.41-.16-.41-.012 0 .016.102.063.227m13.035.172c-.016.059-.02.117-.008.133s.039-.023.059-.082.023-.121.012-.133-.043.023-.062.082m-12.887.188c.035.098.164.301.164.258s-.156-.344-.18-.344c-.008 0-.004.039.016.086m8.75.133c-.238.145-.309.215-.113.113.16-.078.371-.23.328-.23a1.16 1.16 0 0 0-.215.117m-3.836.102c0 .035.191.133.355.18.09.027.133.023.117-.004s-.062-.047-.105-.047-.141-.035-.219-.078-.148-.062-.148-.051m.648.277c.172.055.305.055.176 0-.055-.023-.145-.043-.199-.039-.082 0-.078.008.023.039m2.199.004c-.055.035-.031.039.078.016.184-.039.223-.07.094-.066-.051 0-.129.023-.172.051m-7.449.063c0 .02.078.156.176.297s.176.242.176.223-.078-.156-.176-.301-.176-.242-.176-.219m5.641.02a.57.57 0 0 0 .199 0c.047-.012-.004-.023-.113-.023s-.148.012-.086.023m1.324 0a1.07 1.07 0 0 0 .273 0c.074-.012.016-.02-.137-.02s-.215.008-.137.02m-.828.051c.117.012.309.012.426 0s.023-.02-.211-.02-.332.008-.215.02m-8.711.227a6.37 6.37 0 0 1-.219.316c-.043.055-.016.031.07-.059.145-.156.352-.469.309-.469-.012 0-.086.094-.16.211m14.473.551c-.062.09-.285.34-.492.563-.266.277-.301.324-.109.148.379-.348.82-.875.734-.875-.012 0-.074.074-.133.164m-11.297.008c.203.246.254.293.277.27.012-.012-.074-.109-.191-.219-.137-.129-.168-.148-.086-.051m-3.766.16c-.133.125-.234.238-.223.246s.129-.09.262-.227c.309-.312.281-.324-.039-.02m4.863.84c.039.047.137.121.223.164.191.098.16.063-.098-.113-.105-.074-.164-.098-.125-.051m.902.523c.066.059.156.105.195.105.09 0 .066-.02-.145-.121l-.176-.086.125.102m-8.402.055c-.102.035-.105.043-.023.047a.38.38 0 0 0 .176-.047c.086-.055.027-.055-.152 0m-.473.102c-.141.035-.141.039-.027.043.07.004.16-.016.203-.043.082-.055.039-.055-.176 0m-.699.098l-.301.035.273.004c.152.004.32-.016.375-.039.113-.047.082-.047-.348 0m-8.016.09h4.875c1.344-.008.246-.016-2.437-.016l-2.437.016m18.84.109c.039.027.141.051.219.051.195 0 .152-.027-.094-.07-.145-.023-.18-.016-.125.02m4.801.004c-.105.031-.109.039-.027.043.055.004.133-.02.176-.043.086-.059.027-.059-.148 0m-4.277.098c.098.043.414.07.371.031-.012-.008-.121-.031-.246-.047-.148-.02-.191-.016-.125.016m3.727 0l-.227.035.199.004c.113.004.246-.016.301-.039.117-.051.047-.051-.273 0m-.824.102l-.352.031.324.004c.18 0 .395-.016.477-.035.188-.047.066-.047-.449 0m-1.965.035c.133.012.344.012.477 0s.023-.02-.238-.02-.367.012-.238.02m1.027.051a1.29 1.29 0 0 0 .301 0c.074-.012 0-.02-.164-.02s-.227.008-.137.02" fill="rgb(52.54902%,65.490196%,96.078431%)"/><path d="M31.887 16.988h3.824c1.055-.008.191-.016-1.91-.016l-1.914.016m-15.926 2.25h2.777c.762-.008.137-.016-1.387-.016l-1.391.016m18.352 1.445c.047.012.125.012.176 0s.008-.023-.09-.023-.133.012-.086.023m-13 .516c0 .125.012.176.023.113s.012-.164 0-.227-.023-.008-.023.113m-5.422 2.238h2.602c.703-.008.113-.016-1.316-.016l-1.285.016m20.008.578c0 .008.074.082.164.164l.164.145-.148-.16c-.137-.152-.18-.187-.18-.148m-13.934 4.91c0 .137.008.188.02.109s.012-.187 0-.25-.02.004-.02.141m13.684-.125l-4.875.023-.004.199-.008.203.023-.187.02-.187h4.844l4.875-.051c.02-.027.027-.047.016-.039s-2.207.023-4.891.039m2.293 1.285h1.598c.434-.008.066-.016-.812-.016l-.785.016m-3.527 5c.047.012.125.012.172 0s.012-.023-.086-.023-.137.008-.086.023" fill="rgb(60%,70.588235%,95.686275%)"/><path d="M10.262 15.91c-.047.047-.059 2.191-.051 9.414l.016 9.352.047-18.75h5.328l4.848-.031c-.941-.066-10.125-.051-10.187.016m10.887.09a.44.44 0 0 0 .199.051c.16 0 .117-.027-.098-.07-.125-.02-.152-.016-.102.02m.453.098c.039.027.117.051.168.051.129 0 .09-.027-.094-.066-.109-.027-.129-.02-.074.016m.672.203c.113.051.223.098.25.094s-.035-.043-.145-.098-.223-.098-.25-.094.035.043.145.098m.426.176c.07.039.148.07.176.07s-.008-.031-.074-.07-.148-.074-.176-.074.008.035.074.074m1.156.773c.207.207.43.441.488.52s.117.137.133.121c.031-.031-.648-.766-.844-.902-.086-.062.012.055.223.262m6.078-.215c-.062.063-.039 2.141.027 2.203s7.496.094 7.66.031c.086-.031.125-2.27.043-2.27-.023 0-.039.5-.039 1.113v1.113h-7.648v-1.113L29.973 17c-.004 0-.02.016-.039.035m-15.371 2.148c-.07.027-.094 4.191-.023 4.234.02.012.035-.926.035-2.086v-2.105l5.5-.055-2.723-.008c-1.5-.004-2.754.004-2.789.02m5.938.172a2.61 2.61 0 0 1 .348.262c.109.098.137.113.078.039-.121-.148-.469-.406-.547-.406-.027 0 .023.047.121.105m4.629.121c.043.184.07.223.07.094 0-.051-.023-.129-.051-.172-.039-.055-.043-.031-.02.078m.137.949c0 .219.012.305.02.184a2.26 2.26 0 0 0 0-.398c-.008-.102-.02-.008-.02.215m8.648.262c.074.012.188.008.25-.004s0-.02-.141-.02-.187.012-.109.023m-12.594.617c-.004.602 0 .609.039.23a2.97 2.97 0 0 0 .004-.617c-.031-.176-.039-.082-.043.387m11.719-.566a3.8 3.8 0 0 0 .422 0c.117-.012.023-.02-.211-.02s-.328.008-.211.02m1.648-.004a1.29 1.29 0 0 0 .301 0c.074-.012 0-.02-.164-.02s-.227.012-.137.02m-2.387.078c-.152.027-.254.059-.227.07s.211-.016.402-.051.293-.07.223-.07a3.22 3.22 0 0 0-.398.051m-.625.137c-.129.055.004.055.176 0 .098-.031.105-.039.023-.039-.055-.004-.145.016-.199.039m-6.418.281a5.93 5.93 0 0 1-.031.477l-.027.168.055-.164c.027-.094.043-.309.031-.477l-.016-.309-.012.305m12.191.27c.07.055.148.098.176.098s-.008-.043-.074-.098-.148-.098-.176-.098.008.043.074.098m-7.711.328c-.105.07-.187.137-.187.148s.09-.035.199-.109c.176-.113.234-.168.188-.168-.008 0-.098.059-.199.129m8.66.348c.152.152.285.273.297.273s-.098-.121-.246-.273-.281-.277-.297-.277.098.125.246.277m-13.242-.168a1 1 0 0 1-.035.176c-.027.086-.027.086.027.004.031-.051.047-.129.035-.176-.02-.078-.023-.078-.027-.004m-3.93.191c-.02.086-.023.168-.012.184s.043-.047.059-.133.023-.168.012-.184-.043.047-.059.133m7.645.363c-.195.199-.383.406-.426.461s.125-.102.363-.348.43-.453.422-.461-.168.152-.359.348m9.918-.035c.027.055.105.145.168.199.113.094.113.094-.008-.051-.199-.242-.215-.258-.16-.148m-14.016.422c-.043.082-.066.152-.051.152s.059-.07.102-.152.066-.148.055-.148-.062.066-.105.148m14.504.227c.277.414.328.473.176.199-.059-.109-.176-.277-.258-.375-.09-.105-.055-.035.082.176m-18.551-.047l-.152.129.164-.105c.09-.062.16-.117.16-.129 0-.039-.02-.027-.172.105m7.473.223c-.062.086-.102.164-.09.172s.066-.059.129-.152c.141-.211.109-.227-.039-.02m-8.273.047l-.199.039h.172a.79.79 0 0 0 .277-.039c.117-.051.031-.051-.25 0m13.613.039c.09.012.223.008.301 0s0-.023-.164-.023-.227.012-.137.023m.75 0c.09.012.223.008.301 0s0-.023-.164-.023-.227.012-.137.023m-10.09.176c-.07.063-.203.176-.301.254s-.129.117-.074.09c.133-.066.598-.457.543-.457-.023.004-.098.055-.168.113m8.699-.062c-.055.039-.031.043.078.02.184-.043.223-.07.094-.07-.051 0-.129.023-.172.051m2.57.16c.375.254.449.293.383.215a1.13 1.13 0 0 0-.273-.18c-.113-.055-.16-.07-.109-.035m-3.297.195l-.098.109.137-.09c.145-.09.172-.125.098-.125-.023 0-.086.047-.137.105m7.563.066c.047.098.094.168.102.156.023-.023-.129-.328-.16-.328-.016 0 .012.078.059.172m-3.609.238c.109.133.203.238.215.238.035 0-.184-.277-.293-.375-.062-.055-.027.008.078.137m3.758.09c.016.066.074.215.125.324s.078.145.059.074-.074-.215-.125-.324-.078-.145-.059-.074m-17.176.082c-.094.039-.156.082-.145.094s.121-.02.242-.07.188-.098.145-.098-.148.031-.242.074m.105.152a1.07 1.07 0 0 0 .273 0c.078-.012.016-.02-.137-.02s-.211.008-.137.02m.512.063c.105.043.484.172.652.223.055.016-.016-.023-.152-.086s-.328-.133-.426-.148c-.109-.02-.137-.016-.074.012m4.109.129c-.117.246-.102.289.023.055.055-.105.09-.199.082-.211s-.059.059-.105.156m3.906.012c-.078.086-.23.359-.176.309.047-.039.285-.398.266-.398-.008 0-.047.039-.09.09m5.188.063c.105.215.121.234.121.145 0-.039-.047-.125-.102-.195l-.102-.125.082.176m-12.402.082c.129.121.441.324.367.238a1.26 1.26 0 0 0-.25-.191c-.094-.051-.145-.074-.117-.047m15.977.047c0 .051.023.129.051.172.035.055.043.031.016-.078-.039-.184-.066-.223-.066-.094m-3.449.133a1.33 1.33 0 0 0 .07.223 2.92 2.92 0 0 1 .094.289c.016.078.023.074.023-.023.004-.113-.176-.582-.187-.488m-11.953.262c.207.242.254.289.277.266.012-.012-.074-.109-.187-.219-.141-.129-.172-.145-.09-.047m15.5-.047a.32.32 0 0 0 .055.172c.035.055.039.035.016-.074-.043-.184-.07-.223-.07-.098m.105.402c0 .078.023.191.047.246.031.066.035.023.016-.125-.035-.266-.07-.328-.062-.121m-13.223.031a1.08 1.08 0 0 0-.027.215c.004.055.027.012.051-.098.051-.207.027-.312-.023-.117m9.809.309l.023.281-6.141.023h6.152l.016-.211c.008-.117-.008-.246-.031-.293s-.035.02-.02.199m3.516.309c.004.137.023.313.047.398s.027.004.012-.227c-.031-.43-.066-.535-.059-.172m-15.055-.098a.18.18 0 0 0 .043.098c.023.027.082.152.133.285s.098.23.105.219c.027-.027-.129-.43-.215-.555-.039-.055-.066-.078-.066-.047m-10.828.082c-.016.035-.02 1.188-.012 2.563l.016 2.5.023-5.078 2.898.016 2.813-.023c-.172-.066-5.711-.043-5.738.023m12.359.246c-.02.066-.027.184-.027.266.004.105.02.074.047-.098.043-.262.031-.359-.02-.168m-5.512.402c.105.133.199.238.215.238.039 0-.172-.27-.289-.375-.066-.055-.031.008.074.137m4.281.02c0 .051.023.129.051.168.035.055.039.035.016-.074-.039-.184-.07-.223-.066-.094m14.867.945c0 .465.008.664.02.438s.008-.605 0-.848-.02-.059-.02.41m-13.75.223c0 .457.008.641.02.414s.008-.598 0-.824-.02-.043-.02.41m-.914-.27a1.36 1.36 0 0 0 .047.32c.023.078.027.012.012-.176-.031-.348-.066-.43-.059-.145m-3.918.473a2.78 2.78 0 0 0 .043.344c.039.043.012-.473-.027-.57-.023-.059-.031.035-.016.227m4.031.574c0 .273.008.379.02.234s.008-.371 0-.5-.02-.012-.02.266m-4.008.406c-.008.117-.027.25-.043.301-.023.07-.02.078.027.035.039-.031.055-.148.043-.297-.02-.242-.02-.242-.027-.039m8.793.023c0 .094.023.215.047.27.027.063.031.012.016-.148-.035-.297-.066-.363-.062-.121m-3.891.043c0 .098.008.137.02.09s.016-.129 0-.176-.02-.008-.02.086m-.988.578c-.02.184-.023.344-.008.355s.039-.125.059-.305.023-.344.012-.355-.043.121-.062.305m1.086-.027c0 .098.012.137.023.09s.012-.129 0-.176-.023-.008-.023.086m10.082.477c-.043.176-.062.313-.043.301a1.86 1.86 0 0 0 .145-.598c-.012-.012-.055.121-.102.297m3.32-.176c0 .098.008.137.02.086a.32.32 0 0 0 0-.172c-.012-.051-.02-.012-.02.086m-13.305.102a.55.55 0 0 0 .043.172c.027.066.043.074.043.027s-.02-.121-.043-.176c-.027-.062-.043-.07-.043-.023m13.258.398c0 .18.008.25.02.164s.012-.238 0-.328-.02-.016-.02.164m-19 .035c-.145.145-.223.246-.176.219.105-.059.484-.445.457-.469-.012-.008-.141.105-.281.25m9.898-.012c.039.086.125.195.188.25.098.082.09.066-.027-.098-.203-.281-.25-.324-.16-.152m-10.465.383c-.129.07-.141.086-.051.063.129-.031.363-.172.273-.164-.027.004-.125.051-.223.102m4.84.117c-.047.125-.074.227-.062.227.035 0 .176-.363.16-.41-.008-.023-.051.059-.098.184m14.637-.023c-.02.086-.027.168-.012.18s.035-.047.055-.137.023-.168.012-.18-.039.051-.055.137m-8.578.047a1.84 1.84 0 0 0 .277.207c.117.063-.07-.102-.301-.262-.125-.086-.121-.078.023.055m4.926.004c-.082.086-.242.207-.359.277s-.215.137-.215.152c0 .059.418-.223.586-.395.102-.102.172-.187.16-.187s-.094.07-.172.152m-16.398 0c-.137.035-.137.039-.027.039.07 0 .184-.02.25-.039.168-.055-.012-.055-.223 0m-4.262.086h2.652c.719-.008.117-.012-1.34-.012l-1.313.012m9.426.449c-.074.145-.125.266-.113.266a1.56 1.56 0 0 0 .266-.488c-.008-.023-.078.078-.152.223m14.75-.086a2.32 2.32 0 0 1-.062.227c-.02.055.004.035.047-.043s.074-.176.063-.223c-.012-.062-.023-.051-.047.039m-6.621.363c.07.043 1.109.039 1.273-.004.063-.02-.211-.035-.609-.035s-.695.016-.664.039m-8.387.199l-.09.164.102-.125c.094-.113.133-.203.094-.203-.008 0-.055.074-.105.164m2.922.109c.219.309.309.363.102.063-.086-.125-.184-.246-.215-.266s.016.07.113.203m.598.695c.203.215.441.438.523.496.168.117.168.113-.449-.465l-.449-.422.375.391m-4.207-.004c-.152.145-.219.215-.152.16.191-.148.484-.422.457-.422-.012 0-.148.117-.305.262m14.629.324c-.219.211-.332.336-.25.277.148-.105.719-.668.676-.664-.016.004-.203.176-.426.387m-15.437.258c-.203.133-.234.18-.051.086.086-.043.172-.102.191-.133.039-.062.027-.059-.141.047m5.773.082a1.13 1.13 0 0 0 .25.191c.195.113.145.059-.133-.145-.117-.082-.168-.102-.117-.047m9.02.176c-.105.082-.172.148-.148.148s.125-.066.223-.148c.219-.191.18-.191-.074 0M23 34.004c-.152.078-.254.145-.23.145a2.69 2.69 0 0 0 .582-.281c0-.035-.078-.004-.352.137m7.051.199c.172.117.27.152.148.051-.066-.055-.148-.102-.176-.102s-.016.023.027.051m-8.652.297c-.094.063.008.063.203 0l.125-.039-.125-.004c-.07-.004-.16.016-.203.043m-.574.102c-.133.031-.137.035-.023.035a1.46 1.46 0 0 0 .273-.035c.133-.035.137-.039.027-.039-.07 0-.195.016-.277.039m-8.031.086h5c1.363-.008.23-.012-2.52-.012l-2.48.012m18.711.082c.012.008.09.031.172.051.109.023.129.02.074-.02-.066-.043-.297-.074-.246-.031m4.848.031c-.055.039-.035.043.074.02.184-.043.223-.07.094-.07-.051 0-.129.023-.168.051m-4.25.098c.168.055.301.055.172 0a.6.6 0 0 0-.199-.039c-.078 0-.074.008.027.039m3.75 0c-.102.035-.105.043-.027.043a.88.88 0 0 0 .227-.043c.098-.031.102-.039.023-.039a.99.99 0 0 0-.223.039m-3.102.105c.125.02.316.039.426.035h.199l-.227-.043a2.67 2.67 0 0 0-.422-.035h-.203l.227.043M35.125 35l-.102.043.102-.004c.055 0 .168-.02.25-.039l.148-.039h-.148c-.082-.004-.195.016-.25.039m-1.086.086a.71.71 0 0 0 .223 0c.063-.012.012-.023-.113-.023s-.172.012-.109.023" fill="rgb(64.705882%,73.72549%,95.686275%)"/></svg>