<?xml version="1.0" encoding="UTF-8"?>
<svg xmlns="http://www.w3.org/2000/svg" xmlns:xlink="http://www.w3.org/1999/xlink" width="50pt" height="50pt" viewBox="0 0 50 50" version="1.1">
<g id="surface1">
<path style=" stroke:none;fill-rule:evenodd;fill:rgb(94.901961%,95.294118%,95.686275%);fill-opacity:1;" d="M 10.285156 15.933594 C 10.265625 15.953125 10.25 20.171875 10.25 25.308594 L 10.25 34.652344 L 15.5625 34.632812 C 19.417969 34.621094 20.949219 34.597656 21.148438 34.554688 C 21.300781 34.523438 21.527344 34.476562 21.648438 34.453125 C 23.507812 34.085938 24.914062 32.976562 25.550781 31.375 C 25.972656 30.3125 26.066406 28.449219 25.753906 27.335938 C 25.722656 27.234375 25.679688 27.078125 25.65625 26.988281 C 25.519531 26.480469 25.175781 25.847656 24.824219 25.460938 C 24.40625 24.992188 23.507812 24.554688 22.945312 24.546875 C 22.570312 24.539062 22.488281 24.480469 22.71875 24.382812 C 22.824219 24.335938 22.953125 24.300781 23.003906 24.300781 C 23.054688 24.300781 23.109375 24.277344 23.125 24.25 C 23.140625 24.222656 23.207031 24.199219 23.265625 24.199219 C 23.324219 24.199219 23.429688 24.152344 23.5 24.101562 C 23.570312 24.046875 23.648438 24 23.675781 24 C 23.75 24 24.347656 23.511719 24.523438 23.308594 C 25.503906 22.1875 25.523438 19.683594 24.5625 18.078125 C 24.203125 17.480469 23.347656 16.742188 22.699219 16.476562 C 22.578125 16.425781 22.378906 16.339844 22.261719 16.289062 C 22.144531 16.238281 21.941406 16.171875 21.8125 16.144531 C 21.679688 16.117188 21.472656 16.070312 21.351562 16.042969 C 21.226562 16.015625 20.855469 15.972656 20.523438 15.949219 C 19.804688 15.902344 10.332031 15.886719 10.285156 15.933594 M 29.972656 17.0625 C 29.960938 17.097656 29.953125 17.597656 29.960938 18.175781 L 29.976562 19.226562 L 37.625 19.226562 L 37.625 17.023438 L 33.8125 17.011719 C 30.746094 17 29.992188 17.011719 29.972656 17.0625 M 20.195312 19.203125 C 21.238281 19.425781 21.746094 21.246094 21.136719 22.597656 C 20.757812 23.441406 20.691406 23.457031 17.25 23.4375 L 14.523438 23.425781 L 14.511719 21.328125 C 14.5 19.683594 14.511719 19.222656 14.5625 19.191406 C 14.660156 19.128906 19.898438 19.140625 20.195312 19.203125 M 33.175781 20.75 C 32.671875 20.789062 32.046875 20.894531 31.640625 21.003906 C 31.167969 21.128906 30.148438 21.566406 30.109375 21.664062 C 30.097656 21.683594 30.070312 21.699219 30.042969 21.699219 C 29.996094 21.699219 29.667969 21.914062 29.425781 22.097656 C 29.1875 22.28125 28.457031 23.046875 28.300781 23.273438 C 28.207031 23.414062 28.117188 23.535156 28.101562 23.550781 C 28.085938 23.5625 28.042969 23.628906 28.007812 23.695312 C 27.972656 23.761719 27.898438 23.886719 27.851562 23.976562 C 27.800781 24.0625 27.734375 24.179688 27.707031 24.230469 C 27.0625 25.355469 26.582031 28.101562 26.84375 29.148438 C 26.867188 29.246094 26.914062 29.492188 26.949219 29.699219 C 27.25 31.558594 28.425781 33.304688 29.898438 34.089844 C 30.050781 34.167969 30.261719 34.28125 30.363281 34.34375 C 30.46875 34.402344 30.59375 34.449219 30.640625 34.449219 C 30.691406 34.449219 30.75 34.46875 30.777344 34.492188 C 30.804688 34.515625 30.925781 34.5625 31.050781 34.601562 C 31.171875 34.636719 31.296875 34.683594 31.324219 34.703125 C 31.351562 34.722656 31.453125 34.75 31.550781 34.765625 C 31.644531 34.78125 31.847656 34.820312 32 34.847656 C 33.214844 35.082031 34.984375 35.082031 36.101562 34.851562 C 36.222656 34.828125 36.390625 34.792969 36.476562 34.773438 C 36.558594 34.757812 36.671875 34.726562 36.726562 34.703125 C 36.78125 34.679688 36.914062 34.636719 37.023438 34.601562 C 37.277344 34.523438 37.488281 34.4375 37.925781 34.214844 C 39.363281 33.492188 40.207031 32.199219 40.324219 30.539062 L 40.355469 30.101562 L 37.171875 30.101562 L 37.109375 30.375 C 36.960938 31.015625 36.203125 31.851562 35.769531 31.851562 C 35.730469 31.851562 35.660156 31.871094 35.613281 31.894531 C 34.527344 32.457031 32.4375 32.089844 31.539062 31.175781 C 31.085938 30.71875 30.75 29.84375 30.75 29.132812 L 30.75 28.800781 L 40.507812 28.800781 L 40.480469 27.738281 C 40.449219 26.496094 40.386719 25.929688 40.199219 25.273438 C 40.167969 25.164062 40.125 25.007812 40.101562 24.925781 C 39.753906 23.675781 38.3125 21.699219 37.753906 21.699219 C 37.722656 21.699219 37.699219 21.679688 37.699219 21.65625 C 37.699219 21.632812 37.660156 21.597656 37.613281 21.582031 C 37.5625 21.570312 37.46875 21.523438 37.398438 21.480469 C 37.289062 21.410156 37.148438 21.347656 36.625 21.125 C 35.890625 20.8125 34.390625 20.648438 33.175781 20.75 M 35.074219 23.527344 C 36.160156 23.898438 36.882812 24.898438 36.917969 26.074219 L 36.925781 26.324219 L 33.835938 26.335938 L 30.75 26.351562 L 30.75 26.152344 C 30.75 26.042969 30.773438 25.890625 30.804688 25.816406 C 30.835938 25.738281 30.878906 25.628906 30.898438 25.574219 C 31.550781 23.859375 33.402344 22.949219 35.074219 23.527344 M 20.351562 26.316406 C 21.0625 26.515625 21.59375 27.007812 21.824219 27.675781 C 21.996094 28.167969 22.078125 29.453125 21.953125 29.6875 C 21.929688 29.734375 21.882812 29.875 21.84375 30 C 21.808594 30.125 21.742188 30.285156 21.691406 30.359375 C 21.640625 30.429688 21.601562 30.511719 21.601562 30.535156 C 21.601562 30.707031 20.953125 31.152344 20.511719 31.28125 C 20.21875 31.367188 14.921875 31.453125 14.617188 31.378906 L 14.5 31.347656 L 14.5 28.832031 C 14.5 27.449219 14.515625 26.300781 14.535156 26.285156 C 14.597656 26.21875 20.109375 26.25 20.351562 26.316406 "/>
<path style=" stroke:none;fill-rule:evenodd;fill:rgb(26.666667%,45.490196%,98.823529%);fill-opacity:1;" d="M 22.335938 0.0351562 C 22.070312 0.0429688 21.851562 0.0742188 21.851562 0.101562 C 21.851562 0.128906 21.695312 0.148438 21.503906 0.148438 C 21.3125 0.148438 21.140625 0.171875 21.125 0.199219 C 21.109375 0.226562 20.972656 0.25 20.820312 0.25 C 20.671875 0.25 20.550781 0.273438 20.550781 0.300781 C 20.550781 0.328125 20.4375 0.351562 20.304688 0.351562 C 20.167969 0.351562 20.042969 0.371094 20.023438 0.398438 C 20.007812 0.425781 19.90625 0.449219 19.796875 0.449219 C 19.6875 0.449219 19.601562 0.472656 19.601562 0.5 C 19.601562 0.527344 19.488281 0.550781 19.351562 0.550781 C 19.210938 0.550781 19.101562 0.574219 19.101562 0.601562 C 19.101562 0.628906 19.023438 0.648438 18.929688 0.648438 C 18.832031 0.648438 18.742188 0.671875 18.726562 0.699219 C 18.707031 0.726562 18.617188 0.75 18.523438 0.75 C 18.425781 0.75 18.351562 0.773438 18.351562 0.800781 C 18.351562 0.828125 18.269531 0.851562 18.175781 0.851562 C 18.078125 0.851562 18 0.871094 18 0.898438 C 18 0.925781 17.921875 0.949219 17.824219 0.949219 C 17.730469 0.949219 17.648438 0.972656 17.648438 1 C 17.648438 1.027344 17.582031 1.050781 17.5 1.050781 C 17.417969 1.050781 17.351562 1.074219 17.351562 1.105469 C 17.351562 1.136719 17.320312 1.148438 17.285156 1.136719 C 17.226562 1.113281 16.980469 1.1875 16.175781 1.472656 C 16.03125 1.523438 15.839844 1.605469 15.738281 1.65625 C 15.691406 1.679688 15.617188 1.699219 15.574219 1.699219 C 15.535156 1.699219 15.5 1.722656 15.5 1.75 C 15.5 1.777344 15.445312 1.800781 15.378906 1.800781 C 15.3125 1.800781 15.242188 1.824219 15.226562 1.851562 C 15.207031 1.878906 15.148438 1.898438 15.097656 1.898438 C 15.042969 1.898438 15 1.921875 15 1.949219 C 15 1.976562 14.953125 2 14.898438 2 C 14.84375 2 14.800781 2.023438 14.800781 2.050781 C 14.800781 2.078125 14.753906 2.101562 14.699219 2.101562 C 14.644531 2.101562 14.601562 2.121094 14.601562 2.148438 C 14.601562 2.175781 14.542969 2.199219 14.476562 2.199219 C 14.40625 2.199219 14.351562 2.222656 14.351562 2.25 C 14.351562 2.277344 14.320312 2.300781 14.28125 2.300781 C 14.195312 2.300781 13.78125 2.507812 13.757812 2.5625 C 13.75 2.582031 13.699219 2.601562 13.644531 2.601562 C 13.59375 2.601562 13.550781 2.617188 13.550781 2.636719 C 13.550781 2.683594 13.308594 2.800781 13.214844 2.800781 C 13.179688 2.800781 13.148438 2.824219 13.148438 2.851562 C 13.148438 2.878906 13.121094 2.898438 13.085938 2.898438 C 13.046875 2.898438 12.96875 2.945312 12.910156 3 C 12.851562 3.054688 12.769531 3.101562 12.726562 3.101562 C 12.683594 3.101562 12.648438 3.125 12.648438 3.152344 C 12.648438 3.183594 12.628906 3.191406 12.605469 3.175781 C 12.578125 3.160156 12.523438 3.183594 12.480469 3.226562 C 12.4375 3.273438 12.398438 3.292969 12.398438 3.273438 C 12.398438 3.257812 12.363281 3.277344 12.320312 3.320312 C 12.277344 3.367188 12.222656 3.386719 12.195312 3.371094 C 12.171875 3.355469 12.148438 3.367188 12.148438 3.398438 C 12.148438 3.425781 12.125 3.449219 12.097656 3.449219 C 12.066406 3.449219 11.945312 3.515625 11.824219 3.601562 C 11.707031 3.683594 11.585938 3.75 11.566406 3.75 C 11.542969 3.75 11.488281 3.796875 11.449219 3.851562 C 11.410156 3.90625 11.34375 3.949219 11.300781 3.949219 C 11.257812 3.949219 11.191406 3.996094 11.148438 4.050781 C 11.109375 4.105469 11.042969 4.148438 11 4.148438 C 10.957031 4.148438 10.890625 4.195312 10.851562 4.25 C 10.808594 4.304688 10.742188 4.351562 10.699219 4.351562 C 10.65625 4.351562 10.589844 4.394531 10.550781 4.449219 C 10.511719 4.503906 10.449219 4.550781 10.414062 4.550781 C 10.378906 4.550781 10.351562 4.574219 10.351562 4.601562 C 10.351562 4.628906 10.320312 4.648438 10.285156 4.648438 C 10.25 4.648438 10.191406 4.695312 10.148438 4.75 C 10.109375 4.804688 10.046875 4.851562 10.007812 4.851562 C 9.972656 4.851562 9.878906 4.917969 9.800781 5 C 9.722656 5.082031 9.644531 5.148438 9.628906 5.148438 C 9.59375 5.148438 9.535156 5.195312 9.300781 5.414062 C 9.21875 5.488281 9.128906 5.550781 9.101562 5.550781 C 9.078125 5.550781 8.917969 5.683594 8.75 5.851562 C 8.582031 6.015625 8.421875 6.148438 8.394531 6.148438 C 8.371094 6.148438 8.136719 6.371094 7.875 6.636719 C 7.292969 7.238281 7.238281 7.292969 6.636719 7.875 C 6.371094 8.136719 6.148438 8.371094 6.148438 8.394531 C 6.148438 8.421875 6.015625 8.582031 5.851562 8.75 C 5.683594 8.917969 5.550781 9.078125 5.550781 9.101562 C 5.550781 9.128906 5.488281 9.21875 5.414062 9.300781 C 5.195312 9.535156 5.148438 9.59375 5.148438 9.628906 C 5.148438 9.644531 5.082031 9.722656 5 9.800781 C 4.917969 9.878906 4.851562 9.972656 4.851562 10.007812 C 4.851562 10.046875 4.804688 10.109375 4.75 10.148438 C 4.695312 10.191406 4.648438 10.25 4.648438 10.285156 C 4.648438 10.320312 4.628906 10.351562 4.601562 10.351562 C 4.574219 10.351562 4.550781 10.378906 4.550781 10.414062 C 4.550781 10.449219 4.503906 10.511719 4.449219 10.550781 C 4.394531 10.589844 4.351562 10.65625 4.351562 10.699219 C 4.351562 10.742188 4.304688 10.808594 4.25 10.851562 C 4.195312 10.890625 4.148438 10.957031 4.148438 11 C 4.148438 11.042969 4.105469 11.109375 4.050781 11.148438 C 3.996094 11.191406 3.949219 11.257812 3.949219 11.300781 C 3.949219 11.34375 3.90625 11.410156 3.851562 11.449219 C 3.796875 11.488281 3.75 11.542969 3.75 11.566406 C 3.75 11.585938 3.683594 11.707031 3.601562 11.824219 C 3.515625 11.945312 3.449219 12.066406 3.449219 12.097656 C 3.449219 12.125 3.425781 12.148438 3.398438 12.148438 C 3.367188 12.148438 3.355469 12.171875 3.371094 12.195312 C 3.386719 12.222656 3.367188 12.277344 3.320312 12.320312 C 3.277344 12.363281 3.257812 12.398438 3.273438 12.398438 C 3.292969 12.398438 3.273438 12.4375 3.226562 12.480469 C 3.183594 12.523438 3.160156 12.578125 3.175781 12.605469 C 3.191406 12.628906 3.183594 12.648438 3.152344 12.648438 C 3.125 12.648438 3.101562 12.683594 3.101562 12.726562 C 3.101562 12.769531 3.054688 12.851562 3 12.910156 C 2.945312 12.96875 2.898438 13.046875 2.898438 13.085938 C 2.898438 13.121094 2.878906 13.148438 2.851562 13.148438 C 2.824219 13.148438 2.800781 13.179688 2.800781 13.214844 C 2.800781 13.308594 2.683594 13.550781 2.636719 13.550781 C 2.617188 13.550781 2.601562 13.59375 2.601562 13.644531 C 2.601562 13.699219 2.582031 13.75 2.5625 13.757812 C 2.507812 13.78125 2.300781 14.195312 2.300781 14.28125 C 2.300781 14.320312 2.277344 14.351562 2.25 14.351562 C 2.222656 14.351562 2.199219 14.40625 2.199219 14.476562 C 2.199219 14.542969 2.175781 14.601562 2.148438 14.601562 C 2.121094 14.601562 2.101562 14.644531 2.101562 14.699219 C 2.101562 14.753906 2.078125 14.800781 2.050781 14.800781 C 2.023438 14.800781 2 14.84375 2 14.898438 C 2 14.953125 1.976562 15 1.949219 15 C 1.921875 15 1.898438 15.042969 1.898438 15.097656 C 1.898438 15.148438 1.878906 15.207031 1.851562 15.226562 C 1.824219 15.242188 1.800781 15.3125 1.800781 15.378906 C 1.800781 15.445312 1.777344 15.5 1.75 15.5 C 1.722656 15.5 1.699219 15.535156 1.699219 15.574219 C 1.699219 15.617188 1.679688 15.691406 1.65625 15.738281 C 1.605469 15.839844 1.523438 16.03125 1.472656 16.175781 C 1.1875 16.980469 1.113281 17.226562 1.136719 17.285156 C 1.148438 17.320312 1.136719 17.351562 1.105469 17.351562 C 1.074219 17.351562 1.050781 17.417969 1.050781 17.5 C 1.050781 17.582031 1.027344 17.648438 1 17.648438 C 0.972656 17.648438 0.949219 17.730469 0.949219 17.824219 C 0.949219 17.921875 0.925781 18 0.898438 18 C 0.871094 18 0.851562 18.078125 0.851562 18.175781 C 0.851562 18.269531 0.828125 18.351562 0.800781 18.351562 C 0.773438 18.351562 0.75 18.425781 0.75 18.523438 C 0.75 18.617188 0.726562 18.707031 0.699219 18.726562 C 0.671875 18.742188 0.648438 18.832031 0.648438 18.929688 C 0.648438 19.023438 0.628906 19.101562 0.601562 19.101562 C 0.574219 19.101562 0.550781 19.210938 0.550781 19.351562 C 0.550781 19.488281 0.527344 19.601562 0.5 19.601562 C 0.472656 19.601562 0.449219 19.6875 0.449219 19.796875 C 0.449219 19.90625 0.425781 20.007812 0.398438 20.023438 C 0.371094 20.042969 0.351562 20.167969 0.351562 20.304688 C 0.351562 20.4375 0.328125 20.550781 0.300781 20.550781 C 0.273438 20.550781 0.25 20.671875 0.25 20.820312 C 0.25 20.972656 0.226562 21.109375 0.199219 21.125 C 0.171875 21.140625 0.148438 21.308594 0.148438 21.5 C 0.148438 21.730469 0.128906 21.847656 0.0859375 21.863281 C -0.00390625 21.894531 -0.00390625 28.105469 0.0859375 28.136719 C 0.128906 28.152344 0.148438 28.269531 0.148438 28.5 C 0.148438 28.691406 0.171875 28.859375 0.199219 28.875 C 0.226562 28.890625 0.25 29.027344 0.25 29.179688 C 0.25 29.328125 0.273438 29.449219 0.300781 29.449219 C 0.328125 29.449219 0.351562 29.574219 0.351562 29.726562 C 0.351562 29.875 0.371094 30 0.398438 30 C 0.425781 30 0.449219 30.089844 0.449219 30.199219 C 0.449219 30.308594 0.472656 30.398438 0.5 30.398438 C 0.527344 30.398438 0.550781 30.511719 0.550781 30.648438 C 0.550781 30.789062 0.574219 30.898438 0.601562 30.898438 C 0.628906 30.898438 0.648438 30.988281 0.648438 31.101562 C 0.648438 31.210938 0.671875 31.300781 0.699219 31.300781 C 0.726562 31.300781 0.75 31.378906 0.75 31.476562 C 0.75 31.570312 0.773438 31.648438 0.800781 31.648438 C 0.828125 31.648438 0.851562 31.730469 0.851562 31.824219 C 0.851562 31.921875 0.871094 32 0.898438 32 C 0.925781 32 0.949219 32.078125 0.949219 32.175781 C 0.949219 32.269531 0.972656 32.351562 1 32.351562 C 1.027344 32.351562 1.050781 32.417969 1.050781 32.5 C 1.050781 32.582031 1.074219 32.648438 1.105469 32.648438 C 1.136719 32.648438 1.148438 32.679688 1.136719 32.714844 C 1.113281 32.773438 1.1875 33.019531 1.472656 33.824219 C 1.523438 33.96875 1.605469 34.160156 1.65625 34.261719 C 1.679688 34.308594 1.699219 34.382812 1.699219 34.425781 C 1.699219 34.464844 1.722656 34.5 1.75 34.5 C 1.777344 34.5 1.800781 34.554688 1.800781 34.621094 C 1.800781 34.6875 1.824219 34.757812 1.851562 34.773438 C 1.878906 34.792969 1.898438 34.851562 1.898438 34.902344 C 1.898438 34.957031 1.921875 35 1.949219 35 C 1.976562 35 2 35.046875 2 35.101562 C 2 35.15625 2.023438 35.199219 2.050781 35.199219 C 2.078125 35.199219 2.101562 35.246094 2.101562 35.300781 C 2.101562 35.355469 2.121094 35.398438 2.148438 35.398438 C 2.175781 35.398438 2.199219 35.457031 2.199219 35.523438 C 2.199219 35.59375 2.222656 35.648438 2.25 35.648438 C 2.277344 35.648438 2.300781 35.679688 2.300781 35.71875 C 2.300781 35.804688 2.507812 36.21875 2.5625 36.242188 C 2.582031 36.25 2.601562 36.300781 2.601562 36.355469 C 2.601562 36.40625 2.621094 36.449219 2.648438 36.449219 C 2.675781 36.449219 2.699219 36.496094 2.699219 36.550781 C 2.699219 36.605469 2.722656 36.648438 2.75 36.648438 C 2.777344 36.648438 2.800781 36.695312 2.800781 36.75 C 2.800781 36.804688 2.824219 36.851562 2.851562 36.851562 C 2.878906 36.851562 2.898438 36.878906 2.898438 36.914062 C 2.898438 36.953125 2.945312 37.03125 3 37.089844 C 3.054688 37.148438 3.101562 37.230469 3.101562 37.273438 C 3.101562 37.316406 3.125 37.351562 3.152344 37.351562 C 3.183594 37.351562 3.191406 37.371094 3.175781 37.394531 C 3.160156 37.421875 3.183594 37.476562 3.226562 37.519531 C 3.273438 37.5625 3.292969 37.601562 3.273438 37.601562 C 3.257812 37.601562 3.277344 37.636719 3.320312 37.679688 C 3.367188 37.722656 3.386719 37.777344 3.371094 37.804688 C 3.355469 37.828125 3.367188 37.851562 3.398438 37.851562 C 3.425781 37.851562 3.449219 37.875 3.449219 37.902344 C 3.449219 37.933594 3.515625 38.054688 3.601562 38.175781 C 3.683594 38.292969 3.75 38.414062 3.75 38.433594 C 3.75 38.457031 3.796875 38.511719 3.851562 38.550781 C 3.90625 38.589844 3.949219 38.65625 3.949219 38.699219 C 3.949219 38.742188 3.996094 38.808594 4.050781 38.851562 C 4.105469 38.890625 4.148438 38.957031 4.148438 39 C 4.148438 39.042969 4.195312 39.109375 4.25 39.148438 C 4.304688 39.191406 4.351562 39.257812 4.351562 39.300781 C 4.351562 39.34375 4.394531 39.410156 4.449219 39.449219 C 4.503906 39.488281 4.550781 39.550781 4.550781 39.585938 C 4.550781 39.621094 4.574219 39.648438 4.601562 39.648438 C 4.628906 39.648438 4.648438 39.679688 4.648438 39.714844 C 4.648438 39.75 4.695312 39.808594 4.75 39.851562 C 4.804688 39.890625 4.851562 39.953125 4.851562 39.992188 C 4.851562 40.027344 4.917969 40.121094 5 40.199219 C 5.082031 40.277344 5.148438 40.355469 5.148438 40.371094 C 5.148438 40.40625 5.195312 40.464844 5.414062 40.699219 C 5.488281 40.78125 5.550781 40.871094 5.550781 40.898438 C 5.550781 40.921875 5.683594 41.082031 5.851562 41.25 C 6.015625 41.417969 6.148438 41.578125 6.148438 41.601562 C 6.148438 41.628906 6.390625 41.886719 6.6875 42.175781 C 6.984375 42.464844 7.265625 42.742188 7.3125 42.789062 C 7.363281 42.835938 7.625 43.105469 7.902344 43.386719 C 8.175781 43.667969 8.425781 43.898438 8.453125 43.898438 C 8.480469 43.898438 8.625 44.023438 8.777344 44.175781 C 8.929688 44.328125 9.070312 44.449219 9.09375 44.449219 C 9.117188 44.449219 9.234375 44.539062 9.355469 44.648438 C 9.476562 44.761719 9.59375 44.851562 9.617188 44.851562 C 9.640625 44.851562 9.722656 44.917969 9.800781 45 C 9.878906 45.082031 9.972656 45.148438 10.007812 45.148438 C 10.046875 45.148438 10.109375 45.195312 10.148438 45.25 C 10.191406 45.304688 10.25 45.351562 10.285156 45.351562 C 10.320312 45.351562 10.351562 45.371094 10.351562 45.398438 C 10.351562 45.425781 10.378906 45.449219 10.414062 45.449219 C 10.449219 45.449219 10.511719 45.496094 10.550781 45.550781 C 10.589844 45.605469 10.65625 45.648438 10.699219 45.648438 C 10.742188 45.648438 10.808594 45.695312 10.851562 45.75 C 10.890625 45.804688 10.957031 45.851562 11 45.851562 C 11.042969 45.851562 11.109375 45.894531 11.148438 45.949219 C 11.191406 46.003906 11.257812 46.050781 11.300781 46.050781 C 11.34375 46.050781 11.410156 46.09375 11.449219 46.148438 C 11.488281 46.203125 11.542969 46.25 11.566406 46.25 C 11.585938 46.25 11.707031 46.316406 11.824219 46.398438 C 11.945312 46.484375 12.066406 46.550781 12.097656 46.550781 C 12.125 46.550781 12.148438 46.574219 12.148438 46.601562 C 12.148438 46.628906 12.195312 46.648438 12.25 46.648438 C 12.304688 46.648438 12.351562 46.667969 12.351562 46.691406 C 12.351562 46.734375 12.667969 46.898438 12.753906 46.898438 C 12.78125 46.898438 12.851562 46.945312 12.910156 47 C 12.96875 47.054688 13.046875 47.101562 13.085938 47.101562 C 13.121094 47.101562 13.148438 47.121094 13.148438 47.148438 C 13.148438 47.175781 13.195312 47.199219 13.25 47.199219 C 13.304688 47.199219 13.351562 47.222656 13.351562 47.25 C 13.351562 47.277344 13.394531 47.300781 13.449219 47.300781 C 13.503906 47.300781 13.550781 47.324219 13.550781 47.351562 C 13.550781 47.378906 13.59375 47.398438 13.644531 47.398438 C 13.699219 47.398438 13.75 47.417969 13.757812 47.4375 C 13.78125 47.492188 14.195312 47.699219 14.28125 47.699219 C 14.320312 47.699219 14.351562 47.722656 14.351562 47.75 C 14.351562 47.777344 14.40625 47.800781 14.476562 47.800781 C 14.542969 47.800781 14.601562 47.824219 14.601562 47.851562 C 14.601562 47.878906 14.644531 47.898438 14.699219 47.898438 C 14.753906 47.898438 14.800781 47.921875 14.800781 47.949219 C 14.800781 47.976562 14.84375 48 14.898438 48 C 14.953125 48 15 48.023438 15 48.050781 C 15 48.078125 15.042969 48.101562 15.097656 48.101562 C 15.148438 48.101562 15.207031 48.121094 15.226562 48.148438 C 15.242188 48.175781 15.3125 48.199219 15.378906 48.199219 C 15.445312 48.199219 15.5 48.222656 15.5 48.25 C 15.5 48.277344 15.535156 48.300781 15.574219 48.300781 C 15.617188 48.300781 15.691406 48.320312 15.738281 48.34375 C 15.816406 48.382812 15.90625 48.421875 16.226562 48.554688 C 16.519531 48.675781 17.417969 48.949219 17.527344 48.949219 C 17.59375 48.949219 17.648438 48.972656 17.648438 49 C 17.648438 49.027344 17.730469 49.050781 17.824219 49.050781 C 17.921875 49.050781 18 49.074219 18 49.101562 C 18 49.128906 18.078125 49.148438 18.175781 49.148438 C 18.269531 49.148438 18.351562 49.171875 18.351562 49.199219 C 18.351562 49.226562 18.429688 49.25 18.523438 49.25 C 18.621094 49.25 18.699219 49.273438 18.699219 49.300781 C 18.699219 49.328125 18.789062 49.351562 18.898438 49.351562 C 19.011719 49.351562 19.101562 49.371094 19.101562 49.398438 C 19.101562 49.425781 19.210938 49.449219 19.351562 49.449219 C 19.488281 49.449219 19.601562 49.472656 19.601562 49.5 C 19.601562 49.527344 19.691406 49.550781 19.800781 49.550781 C 19.910156 49.550781 20 49.574219 20 49.601562 C 20 49.628906 20.125 49.648438 20.273438 49.648438 C 20.425781 49.648438 20.550781 49.671875 20.550781 49.699219 C 20.550781 49.726562 20.671875 49.75 20.820312 49.75 C 20.972656 49.75 21.109375 49.773438 21.125 49.800781 C 21.140625 49.828125 21.308594 49.851562 21.5 49.851562 C 21.730469 49.851562 21.847656 49.871094 21.863281 49.914062 C 21.894531 50.003906 28.105469 50.003906 28.136719 49.914062 C 28.152344 49.871094 28.269531 49.851562 28.5 49.851562 C 28.691406 49.851562 28.859375 49.828125 28.875 49.800781 C 28.890625 49.773438 29.027344 49.75 29.179688 49.75 C 29.328125 49.75 29.449219 49.726562 29.449219 49.699219 C 29.449219 49.671875 29.574219 49.648438 29.726562 49.648438 C 29.875 49.648438 30 49.628906 30 49.601562 C 30 49.574219 30.089844 49.550781 30.199219 49.550781 C 30.308594 49.550781 30.398438 49.527344 30.398438 49.5 C 30.398438 49.472656 30.511719 49.449219 30.648438 49.449219 C 30.789062 49.449219 30.898438 49.425781 30.898438 49.398438 C 30.898438 49.371094 30.988281 49.351562 31.101562 49.351562 C 31.210938 49.351562 31.300781 49.328125 31.300781 49.300781 C 31.300781 49.273438 31.378906 49.25 31.476562 49.25 C 31.570312 49.25 31.648438 49.226562 31.648438 49.199219 C 31.648438 49.171875 31.730469 49.148438 31.824219 49.148438 C 31.921875 49.148438 32 49.128906 32 49.101562 C 32 49.074219 32.078125 49.050781 32.175781 49.050781 C 32.269531 49.050781 32.351562 49.027344 32.351562 49 C 32.351562 48.972656 32.40625 48.949219 32.472656 48.949219 C 32.585938 48.949219 33.507812 48.667969 33.789062 48.546875 C 33.847656 48.523438 33.960938 48.476562 34.039062 48.445312 C 34.113281 48.414062 34.214844 48.367188 34.261719 48.34375 C 34.308594 48.320312 34.382812 48.300781 34.425781 48.300781 C 34.464844 48.300781 34.5 48.277344 34.5 48.25 C 34.5 48.222656 34.554688 48.199219 34.621094 48.199219 C 34.6875 48.199219 34.757812 48.175781 34.773438 48.148438 C 34.792969 48.121094 34.851562 48.101562 34.902344 48.101562 C 34.957031 48.101562 35 48.078125 35 48.050781 C 35 48.023438 35.046875 48 35.101562 48 C 35.15625 48 35.199219 47.976562 35.199219 47.949219 C 35.199219 47.921875 35.246094 47.898438 35.300781 47.898438 C 35.355469 47.898438 35.398438 47.878906 35.398438 47.851562 C 35.398438 47.824219 35.457031 47.800781 35.523438 47.800781 C 35.59375 47.800781 35.648438 47.777344 35.648438 47.75 C 35.648438 47.722656 35.679688 47.699219 35.71875 47.699219 C 35.804688 47.699219 36.21875 47.492188 36.242188 47.4375 C 36.25 47.417969 36.300781 47.398438 36.355469 47.398438 C 36.40625 47.398438 36.449219 47.378906 36.449219 47.351562 C 36.449219 47.324219 36.496094 47.300781 36.550781 47.300781 C 36.605469 47.300781 36.648438 47.277344 36.648438 47.25 C 36.648438 47.222656 36.695312 47.199219 36.75 47.199219 C 36.804688 47.199219 36.851562 47.175781 36.851562 47.148438 C 36.851562 47.121094 36.878906 47.101562 36.914062 47.101562 C 36.953125 47.101562 37.03125 47.054688 37.089844 47 C 37.148438 46.945312 37.21875 46.898438 37.246094 46.898438 C 37.332031 46.898438 37.648438 46.734375 37.648438 46.691406 C 37.648438 46.667969 37.695312 46.648438 37.75 46.648438 C 37.804688 46.648438 37.851562 46.628906 37.851562 46.601562 C 37.851562 46.574219 37.875 46.550781 37.902344 46.550781 C 37.933594 46.550781 38.054688 46.484375 38.175781 46.398438 C 38.292969 46.316406 38.414062 46.25 38.433594 46.25 C 38.457031 46.25 38.511719 46.203125 38.550781 46.148438 C 38.589844 46.09375 38.65625 46.050781 38.699219 46.050781 C 38.742188 46.050781 38.808594 46.003906 38.851562 45.949219 C 38.890625 45.894531 38.957031 45.851562 39 45.851562 C 39.042969 45.851562 39.109375 45.804688 39.148438 45.75 C 39.191406 45.695312 39.257812 45.648438 39.300781 45.648438 C 39.34375 45.648438 39.410156 45.605469 39.449219 45.550781 C 39.488281 45.496094 39.550781 45.449219 39.585938 45.449219 C 39.621094 45.449219 39.648438 45.425781 39.648438 45.398438 C 39.648438 45.371094 39.679688 45.351562 39.714844 45.351562 C 39.75 45.351562 39.808594 45.304688 39.851562 45.25 C 39.890625 45.195312 39.953125 45.148438 39.992188 45.148438 C 40.027344 45.148438 40.121094 45.082031 40.199219 45 C 40.277344 44.917969 40.359375 44.851562 40.382812 44.851562 C 40.40625 44.851562 40.523438 44.761719 40.644531 44.648438 C 40.765625 44.539062 40.882812 44.449219 40.90625 44.449219 C 40.929688 44.449219 41.070312 44.328125 41.222656 44.175781 C 41.375 44.023438 41.519531 43.898438 41.546875 43.898438 C 41.574219 43.898438 41.835938 43.652344 42.136719 43.351562 C 42.789062 42.6875 42.6875 42.789062 43.351562 42.136719 C 43.652344 41.835938 43.898438 41.574219 43.898438 41.546875 C 43.898438 41.519531 44.023438 41.375 44.175781 41.222656 C 44.328125 41.070312 44.449219 40.929688 44.449219 40.90625 C 44.449219 40.882812 44.539062 40.765625 44.648438 40.644531 C 44.761719 40.523438 44.851562 40.40625 44.851562 40.382812 C 44.851562 40.359375 44.917969 40.277344 45 40.199219 C 45.082031 40.121094 45.148438 40.027344 45.148438 39.992188 C 45.148438 39.953125 45.195312 39.890625 45.25 39.851562 C 45.304688 39.808594 45.351562 39.75 45.351562 39.714844 C 45.351562 39.679688 45.371094 39.648438 45.398438 39.648438 C 45.425781 39.648438 45.449219 39.621094 45.449219 39.585938 C 45.449219 39.550781 45.496094 39.488281 45.550781 39.449219 C 45.605469 39.410156 45.648438 39.34375 45.648438 39.300781 C 45.648438 39.257812 45.695312 39.191406 45.75 39.148438 C 45.804688 39.109375 45.851562 39.042969 45.851562 39 C 45.851562 38.957031 45.894531 38.890625 45.949219 38.851562 C 46.003906 38.808594 46.050781 38.742188 46.050781 38.699219 C 46.050781 38.65625 46.09375 38.589844 46.148438 38.550781 C 46.203125 38.511719 46.25 38.457031 46.25 38.433594 C 46.25 38.414062 46.316406 38.292969 46.398438 38.175781 C 46.484375 38.054688 46.550781 37.933594 46.550781 37.902344 C 46.550781 37.875 46.574219 37.851562 46.601562 37.851562 C 46.628906 37.851562 46.648438 37.804688 46.648438 37.75 C 46.648438 37.695312 46.667969 37.648438 46.691406 37.648438 C 46.734375 37.648438 46.898438 37.332031 46.898438 37.246094 C 46.898438 37.21875 46.945312 37.148438 47 37.089844 C 47.054688 37.03125 47.101562 36.953125 47.101562 36.914062 C 47.101562 36.878906 47.121094 36.851562 47.148438 36.851562 C 47.175781 36.851562 47.199219 36.804688 47.199219 36.75 C 47.199219 36.695312 47.222656 36.648438 47.25 36.648438 C 47.277344 36.648438 47.300781 36.605469 47.300781 36.550781 C 47.300781 36.496094 47.324219 36.449219 47.351562 36.449219 C 47.378906 36.449219 47.398438 36.40625 47.398438 36.355469 C 47.398438 36.300781 47.417969 36.25 47.4375 36.242188 C 47.492188 36.21875 47.699219 35.804688 47.699219 35.71875 C 47.699219 35.679688 47.722656 35.648438 47.75 35.648438 C 47.777344 35.648438 47.800781 35.59375 47.800781 35.523438 C 47.800781 35.457031 47.824219 35.398438 47.851562 35.398438 C 47.878906 35.398438 47.898438 35.355469 47.898438 35.300781 C 47.898438 35.246094 47.921875 35.199219 47.949219 35.199219 C 47.976562 35.199219 48 35.15625 48 35.101562 C 48 35.046875 48.023438 35 48.050781 35 C 48.078125 35 48.101562 34.957031 48.101562 34.902344 C 48.101562 34.851562 48.121094 34.792969 48.148438 34.773438 C 48.175781 34.757812 48.199219 34.6875 48.199219 34.621094 C 48.199219 34.554688 48.222656 34.5 48.25 34.5 C 48.277344 34.5 48.300781 34.464844 48.300781 34.425781 C 48.300781 34.382812 48.320312 34.308594 48.34375 34.261719 C 48.367188 34.214844 48.414062 34.113281 48.445312 34.039062 C 48.476562 33.960938 48.523438 33.847656 48.546875 33.789062 C 48.667969 33.507812 48.949219 32.585938 48.949219 32.472656 C 48.949219 32.40625 48.972656 32.351562 49 32.351562 C 49.027344 32.351562 49.050781 32.269531 49.050781 32.175781 C 49.050781 32.078125 49.074219 32 49.101562 32 C 49.128906 32 49.148438 31.921875 49.148438 31.824219 C 49.148438 31.730469 49.171875 31.648438 49.199219 31.648438 C 49.226562 31.648438 49.25 31.570312 49.25 31.476562 C 49.25 31.378906 49.273438 31.300781 49.300781 31.300781 C 49.328125 31.300781 49.351562 31.210938 49.351562 31.101562 C 49.351562 30.988281 49.371094 30.898438 49.398438 30.898438 C 49.425781 30.898438 49.449219 30.789062 49.449219 30.648438 C 49.449219 30.511719 49.472656 30.398438 49.5 30.398438 C 49.527344 30.398438 49.550781 30.308594 49.550781 30.199219 C 49.550781 30.089844 49.574219 30 49.601562 30 C 49.628906 30 49.648438 29.875 49.648438 29.726562 C 49.648438 29.574219 49.671875 29.449219 49.699219 29.449219 C 49.726562 29.449219 49.75 29.328125 49.75 29.179688 C 49.75 29.027344 49.773438 28.890625 49.800781 28.875 C 49.828125 28.859375 49.851562 28.691406 49.851562 28.5 C 49.851562 28.269531 49.871094 28.152344 49.914062 28.136719 C 49.960938 28.121094 49.976562 27.449219 49.976562 25 C 49.976562 22.550781 49.960938 21.878906 49.914062 21.863281 C 49.871094 21.847656 49.851562 21.730469 49.851562 21.5 C 49.851562 21.308594 49.828125 21.140625 49.800781 21.125 C 49.773438 21.109375 49.75 20.972656 49.75 20.820312 C 49.75 20.671875 49.726562 20.550781 49.699219 20.550781 C 49.671875 20.550781 49.648438 20.425781 49.648438 20.273438 C 49.648438 20.125 49.628906 20 49.601562 20 C 49.574219 20 49.550781 19.910156 49.550781 19.800781 C 49.550781 19.691406 49.527344 19.601562 49.5 19.601562 C 49.472656 19.601562 49.449219 19.488281 49.449219 19.351562 C 49.449219 19.210938 49.425781 19.101562 49.398438 19.101562 C 49.371094 19.101562 49.351562 19.011719 49.351562 18.898438 C 49.351562 18.789062 49.328125 18.699219 49.300781 18.699219 C 49.273438 18.699219 49.25 18.621094 49.25 18.523438 C 49.25 18.429688 49.226562 18.351562 49.199219 18.351562 C 49.171875 18.351562 49.148438 18.269531 49.148438 18.175781 C 49.148438 18.078125 49.128906 18 49.101562 18 C 49.074219 18 49.050781 17.921875 49.050781 17.824219 C 49.050781 17.730469 49.027344 17.648438 49 17.648438 C 48.972656 17.648438 48.949219 17.59375 48.949219 17.527344 C 48.949219 17.417969 48.675781 16.519531 48.554688 16.226562 C 48.421875 15.90625 48.382812 15.816406 48.34375 15.738281 C 48.320312 15.691406 48.300781 15.617188 48.300781 15.574219 C 48.300781 15.535156 48.277344 15.5 48.25 15.5 C 48.222656 15.5 48.199219 15.445312 48.199219 15.378906 C 48.199219 15.3125 48.175781 15.242188 48.148438 15.226562 C 48.121094 15.207031 48.101562 15.148438 48.101562 15.097656 C 48.101562 15.042969 48.078125 15 48.050781 15 C 48.023438 15 48 14.953125 48 14.898438 C 48 14.84375 47.976562 14.800781 47.949219 14.800781 C 47.921875 14.800781 47.898438 14.753906 47.898438 14.699219 C 47.898438 14.644531 47.878906 14.601562 47.851562 14.601562 C 47.824219 14.601562 47.800781 14.542969 47.800781 14.476562 C 47.800781 14.40625 47.777344 14.351562 47.75 14.351562 C 47.722656 14.351562 47.699219 14.320312 47.699219 14.28125 C 47.699219 14.195312 47.492188 13.78125 47.4375 13.757812 C 47.417969 13.75 47.398438 13.699219 47.398438 13.644531 C 47.398438 13.59375 47.378906 13.550781 47.351562 13.550781 C 47.324219 13.550781 47.300781 13.503906 47.300781 13.449219 C 47.300781 13.394531 47.277344 13.351562 47.25 13.351562 C 47.222656 13.351562 47.199219 13.304688 47.199219 13.25 C 47.199219 13.195312 47.175781 13.148438 47.148438 13.148438 C 47.121094 13.148438 47.101562 13.121094 47.101562 13.085938 C 47.101562 13.046875 47.054688 12.96875 47 12.910156 C 46.945312 12.851562 46.898438 12.78125 46.898438 12.753906 C 46.898438 12.667969 46.734375 12.351562 46.691406 12.351562 C 46.667969 12.351562 46.648438 12.304688 46.648438 12.25 C 46.648438 12.195312 46.628906 12.148438 46.601562 12.148438 C 46.574219 12.148438 46.550781 12.125 46.550781 12.097656 C 46.550781 12.066406 46.484375 11.945312 46.398438 11.824219 C 46.316406 11.707031 46.25 11.585938 46.25 11.566406 C 46.25 11.542969 46.203125 11.488281 46.148438 11.449219 C 46.09375 11.410156 46.050781 11.34375 46.050781 11.300781 C 46.050781 11.257812 46.003906 11.191406 45.949219 11.148438 C 45.894531 11.109375 45.851562 11.042969 45.851562 11 C 45.851562 10.957031 45.804688 10.890625 45.75 10.851562 C 45.695312 10.808594 45.648438 10.742188 45.648438 10.699219 C 45.648438 10.65625 45.605469 10.589844 45.550781 10.550781 C 45.496094 10.511719 45.449219 10.449219 45.449219 10.414062 C 45.449219 10.378906 45.425781 10.351562 45.398438 10.351562 C 45.371094 10.351562 45.351562 10.320312 45.351562 10.285156 C 45.351562 10.25 45.304688 10.191406 45.25 10.148438 C 45.195312 10.109375 45.148438 10.046875 45.148438 10.007812 C 45.148438 9.972656 45.082031 9.878906 45 9.800781 C 44.917969 9.722656 44.851562 9.640625 44.851562 9.617188 C 44.851562 9.59375 44.761719 9.476562 44.648438 9.355469 C 44.539062 9.234375 44.449219 9.117188 44.449219 9.09375 C 44.449219 9.070312 44.328125 8.929688 44.175781 8.777344 C 44.023438 8.625 43.898438 8.480469 43.898438 8.453125 C 43.898438 8.425781 43.667969 8.175781 43.386719 7.902344 C 43.105469 7.625 42.832031 7.359375 42.78125 7.304688 C 42.730469 7.253906 42.453125 6.972656 42.167969 6.679688 C 41.882812 6.390625 41.628906 6.148438 41.601562 6.148438 C 41.578125 6.148438 41.417969 6.015625 41.25 5.851562 C 41.082031 5.683594 40.921875 5.550781 40.898438 5.550781 C 40.871094 5.550781 40.78125 5.488281 40.699219 5.414062 C 40.464844 5.195312 40.40625 5.148438 40.371094 5.148438 C 40.355469 5.148438 40.277344 5.082031 40.199219 5 C 40.121094 4.917969 40.027344 4.851562 39.992188 4.851562 C 39.953125 4.851562 39.890625 4.804688 39.851562 4.75 C 39.808594 4.695312 39.75 4.648438 39.714844 4.648438 C 39.679688 4.648438 39.648438 4.628906 39.648438 4.601562 C 39.648438 4.574219 39.621094 4.550781 39.585938 4.550781 C 39.550781 4.550781 39.488281 4.503906 39.449219 4.449219 C 39.410156 4.394531 39.34375 4.351562 39.300781 4.351562 C 39.257812 4.351562 39.191406 4.304688 39.148438 4.25 C 39.109375 4.195312 39.042969 4.148438 39 4.148438 C 38.957031 4.148438 38.890625 4.105469 38.851562 4.050781 C 38.808594 3.996094 38.742188 3.949219 38.699219 3.949219 C 38.65625 3.949219 38.589844 3.90625 38.550781 3.851562 C 38.511719 3.796875 38.457031 3.75 38.433594 3.75 C 38.414062 3.75 38.292969 3.683594 38.175781 3.601562 C 38.054688 3.515625 37.933594 3.449219 37.902344 3.449219 C 37.875 3.449219 37.851562 3.425781 37.851562 3.398438 C 37.851562 3.367188 37.828125 3.355469 37.804688 3.371094 C 37.777344 3.386719 37.722656 3.367188 37.679688 3.320312 C 37.636719 3.277344 37.601562 3.257812 37.601562 3.273438 C 37.601562 3.292969 37.5625 3.273438 37.519531 3.226562 C 37.476562 3.183594 37.421875 3.160156 37.394531 3.175781 C 37.371094 3.191406 37.351562 3.183594 37.351562 3.152344 C 37.351562 3.125 37.316406 3.101562 37.273438 3.101562 C 37.230469 3.101562 37.148438 3.054688 37.089844 3 C 37.03125 2.945312 36.953125 2.898438 36.914062 2.898438 C 36.878906 2.898438 36.851562 2.878906 36.851562 2.851562 C 36.851562 2.824219 36.804688 2.800781 36.75 2.800781 C 36.695312 2.800781 36.648438 2.777344 36.648438 2.75 C 36.648438 2.722656 36.605469 2.699219 36.550781 2.699219 C 36.496094 2.699219 36.449219 2.675781 36.449219 2.648438 C 36.449219 2.621094 36.40625 2.601562 36.355469 2.601562 C 36.300781 2.601562 36.25 2.582031 36.242188 2.5625 C 36.21875 2.507812 35.804688 2.300781 35.71875 2.300781 C 35.679688 2.300781 35.648438 2.277344 35.648438 2.25 C 35.648438 2.222656 35.59375 2.199219 35.523438 2.199219 C 35.457031 2.199219 35.398438 2.175781 35.398438 2.148438 C 35.398438 2.121094 35.355469 2.101562 35.300781 2.101562 C 35.246094 2.101562 35.199219 2.078125 35.199219 2.050781 C 35.199219 2.023438 35.15625 2 35.101562 2 C 35.046875 2 35 1.976562 35 1.949219 C 35 1.921875 34.957031 1.898438 34.902344 1.898438 C 34.851562 1.898438 34.792969 1.878906 34.773438 1.851562 C 34.757812 1.824219 34.6875 1.800781 34.621094 1.800781 C 34.554688 1.800781 34.5 1.777344 34.5 1.75 C 34.5 1.722656 34.464844 1.699219 34.425781 1.699219 C 34.382812 1.699219 34.308594 1.679688 34.261719 1.65625 C 34.160156 1.605469 33.96875 1.523438 33.824219 1.472656 C 33.019531 1.1875 32.773438 1.113281 32.714844 1.136719 C 32.679688 1.148438 32.648438 1.136719 32.648438 1.105469 C 32.648438 1.074219 32.582031 1.050781 32.5 1.050781 C 32.417969 1.050781 32.351562 1.027344 32.351562 1 C 32.351562 0.972656 32.269531 0.949219 32.175781 0.949219 C 32.078125 0.949219 32 0.925781 32 0.898438 C 32 0.871094 31.921875 0.851562 31.824219 0.851562 C 31.730469 0.851562 31.648438 0.828125 31.648438 0.800781 C 31.648438 0.773438 31.570312 0.75 31.476562 0.75 C 31.378906 0.75 31.300781 0.726562 31.300781 0.699219 C 31.300781 0.671875 31.210938 0.648438 31.101562 0.648438 C 30.988281 0.648438 30.898438 0.628906 30.898438 0.601562 C 30.898438 0.574219 30.789062 0.550781 30.648438 0.550781 C 30.511719 0.550781 30.398438 0.527344 30.398438 0.5 C 30.398438 0.472656 30.308594 0.449219 30.199219 0.449219 C 30.089844 0.449219 30 0.425781 30 0.398438 C 30 0.371094 29.875 0.351562 29.726562 0.351562 C 29.574219 0.351562 29.449219 0.328125 29.449219 0.300781 C 29.449219 0.273438 29.328125 0.25 29.179688 0.25 C 29.027344 0.25 28.890625 0.226562 28.875 0.199219 C 28.859375 0.171875 28.691406 0.148438 28.5 0.148438 C 28.277344 0.148438 28.152344 0.128906 28.136719 0.0898438 C 28.117188 0.03125 23.535156 -0.0117188 22.335938 0.0351562 M 20.898438 15.890625 C 21.132812 15.917969 21.414062 15.964844 21.523438 15.992188 C 21.636719 16.023438 21.816406 16.066406 21.925781 16.089844 C 22.035156 16.113281 22.203125 16.167969 22.300781 16.210938 C 22.394531 16.253906 22.582031 16.335938 22.710938 16.394531 C 22.84375 16.453125 22.960938 16.5 22.976562 16.5 C 23.1875 16.5 24.234375 17.433594 24.546875 17.898438 C 25.542969 19.386719 25.648438 21.777344 24.78125 23.101562 C 24.640625 23.3125 24.0625 23.898438 23.992188 23.898438 C 23.972656 23.898438 23.925781 23.929688 23.890625 23.964844 C 23.800781 24.054688 23.175781 24.351562 23.078125 24.351562 C 23.035156 24.351562 23 24.382812 23 24.425781 C 23 24.476562 23.050781 24.5 23.160156 24.5 C 23.636719 24.5 24.4375 24.929688 24.894531 25.425781 C 25.105469 25.660156 25.5 26.246094 25.5 26.328125 C 25.5 26.339844 25.542969 26.445312 25.59375 26.5625 C 25.679688 26.761719 25.71875 26.882812 25.84375 27.375 C 25.988281 27.960938 26.007812 28.164062 25.984375 29.148438 C 25.972656 29.714844 25.941406 30.289062 25.910156 30.425781 C 25.792969 30.96875 25.757812 31.085938 25.621094 31.425781 C 25.046875 32.8125 24.136719 33.667969 22.613281 34.257812 C 22.550781 34.28125 22.449219 34.320312 22.386719 34.34375 C 22.257812 34.394531 21.945312 34.480469 21.726562 34.527344 C 21.183594 34.636719 21.011719 34.660156 20.449219 34.699219 C 19.527344 34.761719 10.367188 34.761719 10.246094 34.699219 C 10.125 34.632812 10.089844 15.980469 10.210938 15.859375 C 10.289062 15.78125 20.230469 15.8125 20.898438 15.890625 M 37.71875 17.027344 C 37.757812 17.132812 37.757812 19.089844 37.71875 19.238281 L 37.6875 19.351562 L 33.828125 19.351562 C 30.894531 19.351562 29.957031 19.335938 29.910156 19.289062 C 29.84375 19.226562 29.820312 17.046875 29.882812 16.984375 C 29.964844 16.902344 37.6875 16.945312 37.71875 17.027344 M 14.601562 21.300781 L 14.601562 23.355469 L 17.4375 23.339844 C 20.582031 23.324219 20.457031 23.335938 20.78125 22.992188 C 21.605469 22.117188 21.304688 19.351562 20.386719 19.351562 C 20.34375 19.351562 20.292969 19.328125 20.273438 19.300781 C 20.253906 19.269531 19.25 19.25 17.421875 19.25 L 14.601562 19.25 L 14.601562 21.300781 M 35.148438 20.695312 C 35.953125 20.800781 36.433594 20.933594 37.089844 21.230469 C 37.234375 21.296875 37.363281 21.351562 37.378906 21.351562 C 37.601562 21.351562 38.78125 22.363281 39.179688 22.898438 C 39.8125 23.742188 40.1875 24.667969 40.453125 26.023438 C 40.535156 26.4375 40.617188 28.046875 40.578125 28.460938 L 40.542969 28.851562 L 35.699219 28.851562 C 32.542969 28.851562 30.84375 28.867188 30.824219 28.898438 C 30.78125 28.972656 30.894531 29.730469 31.003906 30.085938 C 31.296875 31.027344 32.011719 31.660156 33.125 31.957031 C 33.429688 32.039062 34.914062 32.042969 35.128906 31.964844 C 35.210938 31.933594 35.410156 31.871094 35.574219 31.820312 C 36.082031 31.671875 36.800781 31.140625 36.800781 30.914062 C 36.800781 30.878906 36.820312 30.851562 36.84375 30.851562 C 36.886719 30.851562 36.960938 30.625 37.035156 30.273438 L 37.074219 30.074219 L 38.738281 30.0625 C 40.671875 30.046875 40.496094 29.980469 40.40625 30.695312 C 40.230469 32.101562 39.597656 33.230469 38.621094 33.886719 C 38.511719 33.957031 38.414062 34.03125 38.398438 34.046875 C 38.375 34.074219 38.074219 34.238281 37.800781 34.375 C 37.179688 34.6875 36.460938 34.894531 35.449219 35.054688 C 34.890625 35.144531 33.085938 35.125 32.5 35.023438 C 31.519531 34.851562 31.300781 34.804688 31.226562 34.753906 C 31.199219 34.734375 31.074219 34.6875 30.949219 34.648438 C 30.828125 34.613281 30.703125 34.5625 30.675781 34.542969 C 30.652344 34.519531 30.582031 34.5 30.523438 34.5 C 30.46875 34.5 30.398438 34.480469 30.371094 34.453125 C 30.347656 34.429688 30.144531 34.3125 29.925781 34.195312 C 29.289062 33.859375 28.101562 32.824219 28.101562 32.605469 C 28.101562 32.578125 28.082031 32.550781 28.058594 32.542969 C 28.015625 32.523438 27.699219 32.074219 27.699219 32.03125 C 27.699219 32.015625 27.636719 31.898438 27.558594 31.765625 C 27.3125 31.34375 27.027344 30.539062 26.90625 29.925781 C 26.871094 29.761719 26.820312 29.511719 26.789062 29.375 C 26.707031 29.023438 26.710938 27.148438 26.792969 26.800781 C 26.828125 26.648438 26.902344 26.332031 26.957031 26.101562 C 27.367188 24.339844 28.269531 22.855469 29.476562 21.972656 C 29.585938 21.890625 29.6875 21.8125 29.699219 21.792969 C 29.714844 21.777344 29.832031 21.703125 29.960938 21.628906 C 30.09375 21.558594 30.296875 21.445312 30.414062 21.382812 C 31.027344 21.042969 32.011719 20.78125 32.976562 20.695312 C 33.277344 20.667969 33.546875 20.636719 33.574219 20.625 C 33.644531 20.59375 34.75 20.640625 35.148438 20.695312 M 33.476562 23.5 C 33.421875 23.523438 33.304688 23.542969 33.214844 23.546875 C 33.128906 23.546875 33.042969 23.574219 33.023438 23.601562 C 33.007812 23.628906 32.953125 23.648438 32.902344 23.648438 C 32.609375 23.648438 31.820312 24.230469 31.484375 24.691406 C 31.207031 25.070312 30.800781 25.960938 30.800781 26.1875 C 30.800781 26.238281 31.433594 26.25 33.828125 26.25 L 36.855469 26.25 L 36.828125 25.960938 C 36.792969 25.652344 36.71875 25.328125 36.644531 25.1875 C 36.621094 25.140625 36.601562 25.078125 36.601562 25.046875 C 36.601562 25.015625 36.535156 24.898438 36.457031 24.785156 C 36.378906 24.667969 36.304688 24.550781 36.292969 24.519531 C 36.214844 24.296875 35.648438 23.835938 35.25 23.675781 C 34.808594 23.496094 33.722656 23.390625 33.476562 23.5 M 14.601562 28.824219 L 14.601562 31.308594 L 17.488281 31.289062 C 19.785156 31.277344 20.40625 31.257812 20.523438 31.207031 C 20.992188 30.996094 21.136719 30.90625 21.320312 30.722656 C 21.738281 30.304688 22.007812 29.417969 21.929688 28.726562 C 21.914062 28.574219 21.886719 28.324219 21.867188 28.175781 C 21.851562 28.023438 21.816406 27.886719 21.792969 27.871094 C 21.769531 27.855469 21.75 27.789062 21.75 27.726562 C 21.75 27.660156 21.726562 27.59375 21.699219 27.574219 C 21.671875 27.558594 21.648438 27.5 21.648438 27.445312 C 21.648438 27.394531 21.632812 27.351562 21.613281 27.351562 C 21.589844 27.351562 21.519531 27.257812 21.449219 27.144531 C 21.308594 26.914062 20.984375 26.65625 20.621094 26.488281 C 20.375 26.375 20.371094 26.375 17.488281 26.359375 L 14.601562 26.34375 L 14.601562 28.824219 "/>
<path style=" stroke:none;fill-rule:evenodd;fill:rgb(52.54902%,65.490196%,96.078431%);fill-opacity:1;" d="M 10.210938 15.859375 C 10.140625 15.929688 10.121094 34.625 10.1875 34.667969 C 10.207031 34.679688 10.21875 30.503906 10.210938 25.382812 C 10.203125 20.261719 10.210938 16.023438 10.226562 15.960938 L 10.253906 15.847656 L 15.410156 15.859375 C 18.25 15.867188 20.503906 15.859375 20.421875 15.84375 C 20.125 15.78125 10.273438 15.796875 10.210938 15.859375 M 21.175781 15.949219 C 21.324219 16.015625 21.449219 16.015625 21.351562 15.949219 C 21.308594 15.921875 21.230469 15.902344 21.175781 15.902344 L 21.074219 15.90625 L 21.175781 15.949219 M 21.503906 16.019531 C 21.515625 16.027344 21.59375 16.050781 21.675781 16.070312 C 21.785156 16.09375 21.804688 16.089844 21.75 16.050781 C 21.683594 16.007812 21.453125 15.976562 21.503906 16.019531 M 23.300781 16.710938 C 23.3125 16.726562 23.460938 16.84375 23.625 16.972656 C 23.917969 17.199219 23.917969 17.199219 23.703125 17 C 23.53125 16.839844 23.175781 16.585938 23.300781 16.710938 M 29.882812 16.984375 C 29.820312 17.046875 29.84375 19.226562 29.910156 19.289062 C 29.976562 19.359375 37.699219 19.378906 37.699219 19.3125 C 37.699219 19.292969 35.949219 19.273438 33.8125 19.273438 L 29.925781 19.273438 L 29.910156 18.152344 C 29.902344 17.289062 29.914062 17.023438 29.960938 16.992188 C 30 16.96875 30.003906 16.953125 29.972656 16.949219 C 29.941406 16.949219 29.902344 16.964844 29.882812 16.984375 M 37.722656 18.125 C 37.722656 18.730469 37.730469 18.96875 37.738281 18.660156 C 37.746094 18.347656 37.746094 17.855469 37.738281 17.558594 C 37.726562 17.265625 37.722656 17.519531 37.722656 18.125 M 24.15625 17.488281 C 24.285156 17.617188 24.46875 17.847656 24.570312 18 C 24.667969 18.148438 24.75 18.257812 24.75 18.234375 C 24.75 18.117188 24.0625 17.25 23.96875 17.25 C 23.945312 17.25 24.03125 17.355469 24.15625 17.488281 M 24.785156 18.382812 C 24.847656 18.542969 24.996094 18.824219 24.996094 18.785156 C 25 18.730469 24.804688 18.300781 24.773438 18.300781 C 24.761719 18.300781 24.769531 18.339844 24.785156 18.382812 M 25.101562 19.179688 C 25.101562 19.230469 25.125 19.308594 25.152344 19.351562 C 25.1875 19.40625 25.195312 19.382812 25.167969 19.273438 C 25.128906 19.089844 25.101562 19.050781 25.101562 19.179688 M 14.5625 21.3125 L 14.550781 23.398438 L 20.074219 23.375 L 17.339844 23.363281 L 14.601562 23.347656 L 14.585938 21.289062 L 14.574219 19.226562 L 14.5625 21.3125 M 25.210938 19.574219 C 25.210938 19.628906 25.230469 19.742188 25.25 19.824219 C 25.285156 19.960938 25.289062 19.960938 25.289062 19.851562 C 25.289062 19.78125 25.273438 19.667969 25.25 19.601562 C 25.21875 19.503906 25.210938 19.496094 25.210938 19.574219 M 25.316406 20.851562 C 25.316406 21.417969 25.324219 21.476562 25.355469 21.203125 C 25.378906 21.027344 25.378906 20.722656 25.355469 20.53125 C 25.320312 20.214844 25.316406 20.253906 25.316406 20.851562 M 21.238281 20.683594 C 21.265625 21.082031 21.292969 21.132812 21.296875 20.800781 C 21.296875 20.648438 21.28125 20.496094 21.257812 20.460938 C 21.234375 20.425781 21.226562 20.523438 21.238281 20.683594 M 33.398438 20.644531 C 33.277344 20.660156 33.566406 20.675781 34.042969 20.675781 C 34.523438 20.675781 34.828125 20.660156 34.71875 20.640625 C 34.492188 20.601562 33.71875 20.601562 33.398438 20.644531 M 32.425781 20.75 C 32.296875 20.804688 32.429688 20.804688 32.601562 20.75 C 32.699219 20.71875 32.707031 20.710938 32.625 20.707031 C 32.570312 20.707031 32.480469 20.726562 32.425781 20.75 M 35.351562 20.75 C 35.519531 20.804688 35.652344 20.804688 35.523438 20.75 C 35.46875 20.726562 35.378906 20.707031 35.324219 20.707031 C 35.246094 20.710938 35.25 20.71875 35.351562 20.75 M 35.875 20.851562 C 35.929688 20.875 36.019531 20.890625 36.074219 20.890625 C 36.15625 20.890625 36.152344 20.882812 36.050781 20.851562 C 35.878906 20.796875 35.746094 20.796875 35.875 20.851562 M 31.351562 21 C 31.050781 21.125 31.15625 21.128906 31.476562 21.003906 C 31.613281 20.949219 31.691406 20.90625 31.648438 20.90625 C 31.609375 20.90625 31.472656 20.949219 31.351562 21 M 30.816406 21.191406 C 30.703125 21.238281 30.589844 21.292969 30.566406 21.316406 C 30.542969 21.339844 30.648438 21.308594 30.800781 21.25 C 30.953125 21.191406 31.085938 21.132812 31.097656 21.121094 C 31.136719 21.078125 31.019531 21.109375 30.816406 21.191406 M 36.75 21.117188 C 36.75 21.128906 36.824219 21.164062 36.910156 21.195312 C 37 21.226562 37.050781 21.230469 37.023438 21.207031 C 36.96875 21.152344 36.75 21.082031 36.75 21.117188 M 30.238281 21.46875 C 29.976562 21.625 29.933594 21.683594 30.175781 21.558594 C 30.425781 21.425781 30.539062 21.351562 30.476562 21.355469 C 30.449219 21.359375 30.339844 21.410156 30.238281 21.46875 M 37.5 21.46875 C 37.839844 21.695312 37.949219 21.761719 37.949219 21.738281 C 37.949219 21.707031 37.410156 21.351562 37.363281 21.351562 C 37.34375 21.351562 37.40625 21.402344 37.5 21.46875 M 21.257812 21.648438 C 21.253906 21.800781 21.238281 21.980469 21.222656 22.050781 L 21.195312 22.175781 L 21.25 22.050781 C 21.28125 21.984375 21.296875 21.804688 21.285156 21.652344 L 21.269531 21.375 L 21.257812 21.648438 M 25.226562 21.878906 C 25.210938 21.976562 25.203125 22.070312 25.214844 22.082031 C 25.226562 22.09375 25.253906 22.023438 25.273438 21.921875 C 25.289062 21.820312 25.296875 21.730469 25.285156 21.71875 C 25.273438 21.707031 25.246094 21.777344 25.226562 21.878906 M 38.148438 21.867188 C 38.148438 21.875 38.222656 21.949219 38.3125 22.027344 L 38.476562 22.175781 L 38.328125 22.011719 C 38.191406 21.859375 38.148438 21.828125 38.148438 21.867188 M 28.800781 22.585938 L 28.375 23.023438 L 28.8125 22.601562 C 29.054688 22.367188 29.25 22.171875 29.25 22.164062 C 29.25 22.128906 29.191406 22.179688 28.800781 22.585938 M 38.5 22.179688 C 38.5 22.203125 38.570312 22.28125 38.652344 22.347656 C 38.800781 22.460938 39.175781 22.9375 39.46875 23.375 C 39.539062 23.484375 39.601562 23.554688 39.601562 23.53125 C 39.601562 23.484375 39.476562 23.300781 39.121094 22.824219 C 38.847656 22.460938 38.5 22.097656 38.5 22.179688 M 21.023438 22.652344 C 21.003906 22.714844 20.894531 22.867188 20.785156 22.996094 L 20.578125 23.226562 L 20.769531 23.050781 C 20.957031 22.875 21.128906 22.613281 21.082031 22.566406 C 21.070312 22.554688 21.042969 22.59375 21.023438 22.652344 M 24.761719 23.054688 C 24.671875 23.1875 24.601562 23.316406 24.601562 23.335938 C 24.601562 23.355469 24.679688 23.253906 24.777344 23.109375 C 24.878906 22.960938 24.949219 22.835938 24.941406 22.824219 C 24.933594 22.816406 24.851562 22.917969 24.761719 23.054688 M 28.078125 23.4375 C 27.980469 23.566406 27.902344 23.695312 27.902344 23.722656 C 27.902344 23.746094 27.90625 23.757812 27.914062 23.746094 C 28.085938 23.515625 28.292969 23.199219 28.273438 23.199219 C 28.261719 23.199219 28.171875 23.308594 28.078125 23.4375 M 20.226562 23.300781 L 20.074219 23.339844 L 20.210938 23.34375 C 20.285156 23.347656 20.359375 23.328125 20.375 23.300781 C 20.390625 23.273438 20.398438 23.253906 20.390625 23.257812 C 20.382812 23.257812 20.308594 23.277344 20.226562 23.300781 M 33.273438 23.5 L 33.175781 23.542969 L 33.273438 23.542969 C 33.328125 23.542969 33.421875 23.523438 33.476562 23.5 L 33.574219 23.457031 L 33.476562 23.457031 C 33.421875 23.457031 33.328125 23.476562 33.273438 23.5 M 34.601562 23.5 C 34.640625 23.527344 34.71875 23.546875 34.773438 23.546875 L 34.875 23.542969 L 34.773438 23.5 C 34.625 23.4375 34.5 23.4375 34.601562 23.5 M 24.050781 23.808594 C 23.953125 23.890625 23.921875 23.9375 23.976562 23.910156 C 24.066406 23.863281 24.292969 23.648438 24.246094 23.652344 C 24.234375 23.652344 24.144531 23.722656 24.050781 23.808594 M 27.789062 23.914062 C 27.675781 24.082031 27.492188 24.457031 27.507812 24.476562 C 27.519531 24.484375 27.609375 24.335938 27.710938 24.144531 C 27.894531 23.804688 27.929688 23.695312 27.789062 23.914062 M 31.773438 24.3125 L 31.523438 24.574219 L 31.773438 24.351562 C 31.910156 24.226562 32.03125 24.121094 32.042969 24.113281 C 32.058594 24.105469 32.054688 24.089844 32.042969 24.074219 C 32.03125 24.0625 31.90625 24.167969 31.773438 24.3125 M 36.101562 24.273438 C 36.191406 24.371094 36.28125 24.449219 36.292969 24.449219 C 36.308594 24.449219 36.242188 24.371094 36.148438 24.273438 C 36.058594 24.179688 35.96875 24.101562 35.957031 24.101562 C 35.941406 24.101562 36.007812 24.179688 36.101562 24.273438 M 22.800781 24.429688 L 22.675781 24.5 L 22.835938 24.5 C 22.949219 24.5 23 24.476562 23 24.425781 C 23 24.335938 22.964844 24.335938 22.800781 24.429688 M 36.300781 24.515625 C 36.300781 24.5625 36.554688 24.949219 36.585938 24.949219 C 36.609375 24.949219 36.410156 24.605469 36.34375 24.527344 C 36.320312 24.5 36.300781 24.496094 36.300781 24.515625 M 31.382812 24.761719 C 31.15625 25.058594 30.753906 25.96875 30.816406 26.035156 C 30.828125 26.042969 30.875 25.933594 30.921875 25.789062 C 31.027344 25.464844 31.269531 24.980469 31.433594 24.761719 C 31.5 24.671875 31.542969 24.601562 31.53125 24.601562 C 31.515625 24.601562 31.449219 24.671875 31.382812 24.761719 M 24.535156 25.121094 C 24.621094 25.195312 24.800781 25.371094 24.933594 25.515625 C 25.066406 25.660156 25.140625 25.730469 25.101562 25.675781 C 24.964844 25.488281 24.574219 25.09375 24.476562 25.042969 C 24.421875 25.015625 24.445312 25.050781 24.535156 25.121094 M 36.832031 25.960938 L 36.855469 26.25 L 33.832031 26.25 C 31.167969 26.25 30.804688 26.242188 30.785156 26.175781 C 30.765625 26.121094 30.761719 26.125 30.769531 26.1875 C 30.777344 26.269531 30.949219 26.277344 33.816406 26.289062 C 37.226562 26.300781 36.953125 26.335938 36.859375 25.914062 L 36.804688 25.675781 L 36.832031 25.960938 M 40.378906 25.824219 C 40.421875 26.007812 40.449219 26.046875 40.449219 25.921875 C 40.449219 25.867188 40.425781 25.792969 40.398438 25.75 C 40.359375 25.695312 40.355469 25.714844 40.378906 25.824219 M 25.273438 26 C 25.316406 26.082031 25.363281 26.148438 25.378906 26.148438 C 25.390625 26.148438 25.367188 26.082031 25.324219 26 C 25.28125 25.917969 25.234375 25.851562 25.222656 25.851562 C 25.207031 25.851562 25.230469 25.917969 25.273438 26 M 26.980469 25.980469 C 26.960938 26.050781 26.953125 26.121094 26.964844 26.132812 C 26.976562 26.144531 27.003906 26.09375 27.019531 26.019531 C 27.039062 25.949219 27.046875 25.878906 27.035156 25.867188 C 27.023438 25.855469 26.996094 25.90625 26.980469 25.980469 M 40.484375 26.523438 C 40.5 26.71875 40.523438 26.882812 40.53125 26.894531 C 40.566406 26.9375 40.539062 26.421875 40.5 26.300781 C 40.472656 26.222656 40.46875 26.3125 40.484375 26.523438 M 26.878906 26.378906 C 26.859375 26.453125 26.855469 26.523438 26.867188 26.535156 C 26.878906 26.546875 26.902344 26.496094 26.921875 26.421875 C 26.941406 26.347656 26.945312 26.277344 26.933594 26.265625 C 26.921875 26.253906 26.898438 26.304688 26.878906 26.378906 M 14.582031 26.332031 C 14.566406 26.351562 14.550781 27.488281 14.550781 28.859375 L 14.550781 31.351562 L 17.238281 31.34375 C 18.714844 31.339844 19.992188 31.324219 20.074219 31.304688 C 20.152344 31.289062 18.957031 31.28125 17.410156 31.289062 L 14.601562 31.304688 L 14.601562 26.34375 L 17.507812 26.359375 C 19.109375 26.367188 20.328125 26.359375 20.21875 26.339844 C 19.96875 26.296875 14.628906 26.289062 14.582031 26.332031 M 20.648438 26.503906 C 20.773438 26.558594 20.953125 26.664062 21.050781 26.738281 C 21.207031 26.855469 21.214844 26.855469 21.125 26.753906 C 21.019531 26.632812 20.753906 26.484375 20.550781 26.429688 C 20.480469 26.414062 20.527344 26.445312 20.648438 26.503906 M 26.785156 26.84375 C 26.765625 26.9375 26.753906 27.070312 26.753906 27.144531 C 26.757812 27.230469 26.777344 27.199219 26.804688 27.050781 C 26.832031 26.925781 26.84375 26.792969 26.835938 26.75 C 26.828125 26.707031 26.804688 26.75 26.785156 26.84375 M 21.410156 27.097656 C 21.5 27.230469 21.582031 27.335938 21.59375 27.324219 C 21.613281 27.304688 21.304688 26.851562 21.273438 26.851562 C 21.257812 26.851562 21.324219 26.960938 21.410156 27.097656 M 25.703125 27 C 25.703125 27.042969 25.722656 27.109375 25.75 27.148438 C 25.792969 27.214844 25.796875 27.214844 25.796875 27.148438 C 25.796875 27.109375 25.777344 27.042969 25.75 27 C 25.707031 26.933594 25.703125 26.933594 25.703125 27 M 40.570312 27.898438 C 40.570312 28.242188 40.578125 28.382812 40.585938 28.210938 C 40.597656 28.039062 40.597656 27.757812 40.585938 27.585938 C 40.578125 27.414062 40.570312 27.554688 40.570312 27.898438 M 26.71875 28.050781 C 26.71875 28.339844 26.726562 28.457031 26.738281 28.3125 C 26.746094 28.167969 26.746094 27.933594 26.738281 27.789062 C 26.726562 27.644531 26.71875 27.761719 26.71875 28.050781 M 25.933594 28.023438 C 25.949219 28.164062 25.972656 28.285156 25.980469 28.296875 C 26.019531 28.339844 25.992188 27.96875 25.949219 27.875 C 25.917969 27.808594 25.910156 27.855469 25.933594 28.023438 M 21.859375 28.148438 C 21.859375 28.246094 21.878906 28.382812 21.898438 28.449219 C 21.957031 28.625 21.957031 28.441406 21.902344 28.175781 L 21.863281 27.976562 L 21.859375 28.148438 M 26.757812 29.148438 C 26.757812 29.21875 26.777344 29.320312 26.800781 29.375 L 26.84375 29.476562 L 26.839844 29.375 C 26.839844 29.320312 26.820312 29.21875 26.800781 29.148438 L 26.761719 29.023438 L 26.757812 29.148438 M 30.808594 29.273438 C 30.808594 29.359375 30.824219 29.515625 30.847656 29.625 C 30.902344 29.886719 30.90625 29.652344 30.851562 29.351562 C 30.824219 29.179688 30.8125 29.164062 30.808594 29.273438 M 21.878906 29.476562 C 21.859375 29.605469 21.855469 29.71875 21.867188 29.734375 C 21.882812 29.746094 21.90625 29.65625 21.925781 29.527344 C 21.945312 29.398438 21.949219 29.285156 21.9375 29.269531 C 21.921875 29.257812 21.894531 29.351562 21.878906 29.476562 M 25.960938 29.832031 C 25.953125 29.976562 25.9375 30.132812 25.921875 30.183594 C 25.894531 30.269531 25.894531 30.269531 25.949219 30.1875 C 25.980469 30.140625 25.996094 29.980469 25.988281 29.835938 L 25.96875 29.574219 L 25.960938 29.832031 M 26.855469 29.726562 C 26.855469 29.78125 26.875 29.871094 26.898438 29.925781 L 26.941406 30.023438 L 26.941406 29.925781 C 26.941406 29.871094 26.921875 29.78125 26.898438 29.726562 L 26.855469 29.625 L 26.855469 29.726562 M 37.046875 30.183594 C 37.019531 30.257812 37.003906 30.351562 37.011719 30.394531 C 37.023438 30.441406 37.054688 30.378906 37.085938 30.261719 C 37.144531 30.023438 37.125 29.980469 37.046875 30.183594 M 40.34375 30.089844 C 40.394531 30.125 40.40625 30.226562 40.382812 30.507812 C 40.359375 30.824219 40.363281 30.84375 40.402344 30.648438 C 40.46875 30.351562 40.445312 30.085938 40.351562 30.0625 C 40.289062 30.046875 40.289062 30.050781 40.34375 30.089844 M 31.050781 30.335938 C 31.046875 30.519531 31.65625 31.316406 31.90625 31.453125 C 31.949219 31.476562 31.835938 31.34375 31.65625 31.160156 C 31.472656 30.976562 31.261719 30.703125 31.1875 30.550781 C 31.113281 30.398438 31.050781 30.300781 31.050781 30.335938 M 21.515625 30.5 C 21.46875 30.582031 21.410156 30.648438 21.390625 30.648438 C 21.367188 30.648438 21.351562 30.675781 21.351562 30.707031 C 21.351562 30.746094 21.367188 30.746094 21.414062 30.710938 C 21.484375 30.648438 21.667969 30.351562 21.628906 30.351562 C 21.617188 30.351562 21.566406 30.417969 21.515625 30.5 M 25.828125 30.578125 C 25.808594 30.652344 25.804688 30.722656 25.820312 30.738281 C 25.832031 30.75 25.859375 30.703125 25.878906 30.628906 C 25.898438 30.554688 25.902344 30.484375 25.886719 30.46875 C 25.875 30.457031 25.847656 30.503906 25.828125 30.578125 M 27.082031 30.625 C 27.121094 30.808594 27.148438 30.847656 27.148438 30.722656 C 27.148438 30.667969 27.125 30.589844 27.097656 30.550781 C 27.0625 30.496094 27.054688 30.515625 27.082031 30.625 M 27.238281 31.078125 C 27.285156 31.203125 27.328125 31.285156 27.335938 31.261719 C 27.355469 31.214844 27.210938 30.851562 27.175781 30.851562 C 27.164062 30.851562 27.191406 30.953125 27.238281 31.078125 M 40.273438 31.25 C 40.257812 31.308594 40.253906 31.367188 40.265625 31.382812 C 40.28125 31.394531 40.304688 31.359375 40.324219 31.300781 C 40.34375 31.242188 40.347656 31.179688 40.335938 31.167969 C 40.320312 31.152344 40.292969 31.191406 40.273438 31.25 M 27.386719 31.4375 C 27.421875 31.535156 27.550781 31.738281 27.550781 31.695312 C 27.550781 31.648438 27.394531 31.351562 27.371094 31.351562 C 27.363281 31.351562 27.367188 31.390625 27.386719 31.4375 M 36.136719 31.570312 C 35.898438 31.714844 35.828125 31.785156 36.023438 31.683594 C 36.183594 31.605469 36.394531 31.453125 36.351562 31.453125 C 36.335938 31.453125 36.242188 31.503906 36.136719 31.570312 M 32.300781 31.671875 C 32.300781 31.707031 32.492188 31.804688 32.65625 31.851562 C 32.746094 31.878906 32.789062 31.875 32.773438 31.847656 C 32.757812 31.820312 32.710938 31.800781 32.667969 31.800781 C 32.628906 31.800781 32.527344 31.765625 32.449219 31.722656 C 32.367188 31.683594 32.300781 31.660156 32.300781 31.671875 M 32.949219 31.949219 C 33.121094 32.003906 33.253906 32.003906 33.125 31.949219 C 33.070312 31.925781 32.980469 31.90625 32.925781 31.910156 C 32.84375 31.910156 32.847656 31.917969 32.949219 31.949219 M 35.148438 31.953125 C 35.09375 31.988281 35.117188 31.992188 35.226562 31.96875 C 35.410156 31.929688 35.449219 31.898438 35.320312 31.902344 C 35.269531 31.902344 35.191406 31.925781 35.148438 31.953125 M 27.699219 32.015625 C 27.699219 32.035156 27.777344 32.171875 27.875 32.3125 C 27.972656 32.457031 28.050781 32.554688 28.050781 32.535156 C 28.050781 32.511719 27.972656 32.378906 27.875 32.234375 C 27.777344 32.09375 27.699219 31.992188 27.699219 32.015625 M 33.339844 32.035156 C 33.398438 32.046875 33.492188 32.046875 33.539062 32.035156 C 33.585938 32.023438 33.535156 32.011719 33.425781 32.011719 C 33.316406 32.011719 33.277344 32.023438 33.339844 32.035156 M 34.664062 32.035156 C 34.738281 32.046875 34.863281 32.046875 34.9375 32.035156 C 35.011719 32.023438 34.953125 32.015625 34.800781 32.015625 C 34.648438 32.015625 34.585938 32.023438 34.664062 32.035156 M 33.835938 32.085938 C 33.953125 32.097656 34.144531 32.097656 34.261719 32.085938 C 34.378906 32.074219 34.285156 32.066406 34.050781 32.066406 C 33.816406 32.066406 33.71875 32.074219 33.835938 32.085938 M 25.125 32.3125 C 25.050781 32.429688 24.949219 32.570312 24.90625 32.628906 C 24.863281 32.683594 24.890625 32.660156 24.976562 32.570312 C 25.121094 32.414062 25.328125 32.101562 25.285156 32.101562 C 25.273438 32.101562 25.199219 32.195312 25.125 32.3125 M 39.597656 32.863281 C 39.535156 32.953125 39.3125 33.203125 39.105469 33.425781 C 38.839844 33.703125 38.804688 33.75 38.996094 33.574219 C 39.375 33.226562 39.816406 32.699219 39.730469 32.699219 C 39.71875 32.699219 39.65625 32.773438 39.597656 32.863281 M 28.300781 32.871094 C 28.503906 33.117188 28.554688 33.164062 28.578125 33.140625 C 28.589844 33.128906 28.503906 33.03125 28.386719 32.921875 C 28.25 32.792969 28.21875 32.773438 28.300781 32.871094 M 24.535156 33.03125 C 24.402344 33.15625 24.300781 33.269531 24.3125 33.277344 C 24.324219 33.289062 24.441406 33.1875 24.574219 33.050781 C 24.882812 32.738281 24.855469 32.726562 24.535156 33.03125 M 29.398438 33.871094 C 29.4375 33.917969 29.535156 33.992188 29.621094 34.035156 C 29.8125 34.132812 29.78125 34.097656 29.523438 33.921875 C 29.417969 33.847656 29.359375 33.824219 29.398438 33.871094 M 30.300781 34.394531 C 30.367188 34.453125 30.457031 34.5 30.496094 34.5 C 30.585938 34.5 30.5625 34.480469 30.351562 34.378906 L 30.175781 34.292969 L 30.300781 34.394531 M 21.898438 34.449219 C 21.796875 34.484375 21.792969 34.492188 21.875 34.496094 C 21.929688 34.496094 22.007812 34.476562 22.050781 34.449219 C 22.136719 34.394531 22.078125 34.394531 21.898438 34.449219 M 21.425781 34.550781 C 21.285156 34.585938 21.285156 34.589844 21.398438 34.59375 C 21.46875 34.597656 21.558594 34.578125 21.601562 34.550781 C 21.683594 34.496094 21.640625 34.496094 21.425781 34.550781 M 20.726562 34.648438 L 20.425781 34.683594 L 20.699219 34.6875 C 20.851562 34.691406 21.019531 34.671875 21.074219 34.648438 C 21.1875 34.601562 21.15625 34.601562 20.726562 34.648438 M 12.710938 34.738281 C 14.054688 34.746094 16.246094 34.746094 17.585938 34.738281 C 18.929688 34.730469 17.832031 34.722656 15.148438 34.722656 C 12.46875 34.722656 11.371094 34.730469 12.710938 34.738281 M 31.550781 34.847656 C 31.589844 34.875 31.691406 34.898438 31.769531 34.898438 C 31.964844 34.898438 31.921875 34.871094 31.675781 34.828125 C 31.53125 34.804688 31.496094 34.8125 31.550781 34.847656 M 36.351562 34.851562 C 36.246094 34.882812 36.242188 34.890625 36.324219 34.894531 C 36.378906 34.898438 36.457031 34.875 36.5 34.851562 C 36.585938 34.792969 36.527344 34.792969 36.351562 34.851562 M 32.074219 34.949219 C 32.171875 34.992188 32.488281 35.019531 32.445312 34.980469 C 32.433594 34.972656 32.324219 34.949219 32.199219 34.933594 C 32.050781 34.914062 32.007812 34.917969 32.074219 34.949219 M 35.800781 34.949219 L 35.574219 34.984375 L 35.773438 34.988281 C 35.886719 34.992188 36.019531 34.972656 36.074219 34.949219 C 36.191406 34.898438 36.121094 34.898438 35.800781 34.949219 M 34.976562 35.050781 L 34.625 35.082031 L 34.949219 35.085938 C 35.128906 35.085938 35.34375 35.070312 35.425781 35.050781 C 35.613281 35.003906 35.492188 35.003906 34.976562 35.050781 M 33.011719 35.085938 C 33.144531 35.097656 33.355469 35.097656 33.488281 35.085938 C 33.617188 35.078125 33.511719 35.066406 33.25 35.066406 C 32.988281 35.066406 32.882812 35.078125 33.011719 35.085938 M 34.039062 35.136719 C 34.128906 35.148438 34.261719 35.148438 34.339844 35.136719 C 34.414062 35.125 34.339844 35.117188 34.175781 35.117188 C 34.011719 35.117188 33.949219 35.125 34.039062 35.136719 "/>
<path style=" stroke:none;fill-rule:evenodd;fill:rgb(60%,70.588235%,95.686275%);fill-opacity:1;" d="M 31.886719 16.988281 C 32.9375 16.996094 34.660156 16.996094 35.710938 16.988281 C 36.765625 16.980469 35.902344 16.972656 33.800781 16.972656 C 31.695312 16.972656 30.835938 16.980469 31.886719 16.988281 M 15.960938 19.238281 C 16.726562 19.246094 17.972656 19.246094 18.738281 19.238281 C 19.5 19.230469 18.875 19.222656 17.351562 19.222656 C 15.824219 19.222656 15.199219 19.230469 15.960938 19.238281 M 34.3125 20.683594 C 34.359375 20.695312 34.4375 20.695312 34.488281 20.683594 C 34.535156 20.671875 34.496094 20.660156 34.398438 20.660156 C 34.304688 20.660156 34.265625 20.671875 34.3125 20.683594 M 21.3125 21.199219 C 21.3125 21.324219 21.324219 21.375 21.335938 21.3125 C 21.347656 21.25 21.347656 21.148438 21.335938 21.085938 C 21.324219 21.027344 21.3125 21.078125 21.3125 21.199219 M 15.890625 23.4375 C 16.613281 23.445312 17.785156 23.445312 18.492188 23.4375 C 19.195312 23.429688 18.605469 23.421875 17.175781 23.421875 C 15.746094 23.421875 15.167969 23.429688 15.890625 23.4375 M 35.898438 24.015625 C 35.898438 24.023438 35.972656 24.097656 36.0625 24.179688 L 36.226562 24.324219 L 36.078125 24.164062 C 35.941406 24.011719 35.898438 23.976562 35.898438 24.015625 M 21.964844 28.925781 C 21.964844 29.0625 21.972656 29.113281 21.984375 29.035156 C 21.996094 28.960938 21.996094 28.847656 21.984375 28.785156 C 21.972656 28.726562 21.964844 28.789062 21.964844 28.925781 M 35.648438 28.800781 L 30.773438 28.824219 L 30.769531 29.023438 L 30.761719 29.226562 L 30.785156 29.039062 L 30.804688 28.851562 L 35.648438 28.851562 C 38.824219 28.851562 40.503906 28.832031 40.523438 28.800781 C 40.542969 28.773438 40.550781 28.753906 40.539062 28.761719 C 40.53125 28.769531 38.332031 28.785156 35.648438 28.800781 M 37.941406 30.085938 C 38.390625 30.097656 39.109375 30.097656 39.539062 30.085938 C 39.972656 30.078125 39.605469 30.070312 38.726562 30.070312 C 37.84375 30.074219 37.492188 30.078125 37.941406 30.085938 M 34.414062 35.085938 C 34.460938 35.097656 34.539062 35.097656 34.585938 35.085938 C 34.636719 35.070312 34.597656 35.0625 34.5 35.0625 C 34.402344 35.0625 34.363281 35.070312 34.414062 35.085938 "/>
<path style=" stroke:none;fill-rule:evenodd;fill:rgb(64.705882%,73.72549%,95.686275%);fill-opacity:1;" d="M 10.261719 15.910156 C 10.214844 15.957031 10.203125 18.101562 10.210938 25.324219 L 10.226562 34.675781 L 10.273438 15.925781 L 15.601562 15.925781 C 18.527344 15.925781 20.710938 15.910156 20.449219 15.894531 C 19.507812 15.828125 10.324219 15.84375 10.261719 15.910156 M 21.148438 16 C 21.191406 16.027344 21.28125 16.050781 21.347656 16.050781 C 21.507812 16.050781 21.464844 16.023438 21.25 15.980469 C 21.125 15.960938 21.097656 15.964844 21.148438 16 M 21.601562 16.097656 C 21.640625 16.125 21.71875 16.148438 21.769531 16.148438 C 21.898438 16.148438 21.859375 16.121094 21.675781 16.082031 C 21.566406 16.054688 21.546875 16.0625 21.601562 16.097656 M 22.273438 16.300781 C 22.386719 16.351562 22.496094 16.398438 22.523438 16.394531 C 22.550781 16.394531 22.488281 16.351562 22.378906 16.296875 C 22.269531 16.242188 22.15625 16.199219 22.128906 16.203125 C 22.097656 16.203125 22.164062 16.246094 22.273438 16.300781 M 22.699219 16.476562 C 22.769531 16.515625 22.847656 16.546875 22.875 16.546875 C 22.902344 16.546875 22.867188 16.515625 22.800781 16.476562 C 22.730469 16.4375 22.652344 16.402344 22.625 16.402344 C 22.597656 16.402344 22.632812 16.4375 22.699219 16.476562 M 23.855469 17.25 C 24.0625 17.457031 24.285156 17.691406 24.34375 17.769531 C 24.402344 17.851562 24.460938 17.90625 24.476562 17.890625 C 24.507812 17.859375 23.828125 17.125 23.632812 16.988281 C 23.546875 16.925781 23.644531 17.042969 23.855469 17.25 M 29.933594 17.035156 C 29.871094 17.097656 29.894531 19.175781 29.960938 19.238281 C 30.023438 19.304688 37.457031 19.332031 37.621094 19.269531 C 37.707031 19.238281 37.746094 17 37.664062 17 C 37.640625 17 37.625 17.5 37.625 18.113281 L 37.625 19.226562 L 29.976562 19.226562 L 29.976562 18.113281 C 29.976562 17.5 29.972656 17 29.972656 17 C 29.96875 17 29.953125 17.015625 29.933594 17.035156 M 14.5625 19.183594 C 14.492188 19.210938 14.46875 23.375 14.539062 23.417969 C 14.558594 23.429688 14.574219 22.492188 14.574219 21.332031 L 14.574219 19.226562 L 20.074219 19.171875 L 17.351562 19.164062 C 15.851562 19.160156 14.597656 19.167969 14.5625 19.183594 M 20.5 19.355469 C 20.597656 19.414062 20.753906 19.53125 20.847656 19.617188 C 20.957031 19.714844 20.984375 19.730469 20.925781 19.65625 C 20.804688 19.507812 20.457031 19.25 20.378906 19.25 C 20.351562 19.25 20.402344 19.296875 20.5 19.355469 M 25.128906 19.476562 C 25.171875 19.660156 25.199219 19.699219 25.199219 19.570312 C 25.199219 19.519531 25.175781 19.441406 25.148438 19.398438 C 25.109375 19.34375 25.105469 19.367188 25.128906 19.476562 M 25.265625 20.425781 C 25.265625 20.644531 25.277344 20.730469 25.285156 20.609375 C 25.296875 20.492188 25.296875 20.3125 25.285156 20.210938 C 25.277344 20.109375 25.265625 20.203125 25.265625 20.425781 M 33.914062 20.6875 C 33.988281 20.699219 34.101562 20.695312 34.164062 20.683594 C 34.226562 20.671875 34.164062 20.664062 34.023438 20.664062 C 33.886719 20.664062 33.835938 20.675781 33.914062 20.6875 M 21.320312 21.304688 C 21.316406 21.90625 21.320312 21.914062 21.359375 21.535156 C 21.382812 21.324219 21.382812 21.042969 21.363281 20.917969 C 21.332031 20.742188 21.324219 20.835938 21.320312 21.304688 M 33.039062 20.738281 C 33.15625 20.746094 33.34375 20.746094 33.460938 20.738281 C 33.578125 20.726562 33.484375 20.71875 33.25 20.71875 C 33.015625 20.71875 32.921875 20.726562 33.039062 20.738281 M 34.6875 20.734375 C 34.777344 20.746094 34.914062 20.746094 34.988281 20.734375 C 35.0625 20.722656 34.988281 20.714844 34.824219 20.714844 C 34.660156 20.714844 34.597656 20.726562 34.6875 20.734375 M 32.300781 20.8125 C 32.148438 20.839844 32.046875 20.871094 32.074219 20.882812 C 32.101562 20.890625 32.285156 20.867188 32.476562 20.832031 C 32.667969 20.792969 32.769531 20.761719 32.699219 20.761719 C 32.632812 20.761719 32.453125 20.785156 32.300781 20.8125 M 31.675781 20.949219 C 31.546875 21.003906 31.679688 21.003906 31.851562 20.949219 C 31.949219 20.917969 31.957031 20.910156 31.875 20.910156 C 31.820312 20.90625 31.730469 20.925781 31.675781 20.949219 M 25.257812 21.230469 C 25.253906 21.398438 25.238281 21.613281 25.226562 21.707031 L 25.199219 21.875 L 25.253906 21.710938 C 25.28125 21.617188 25.296875 21.402344 25.285156 21.234375 L 25.269531 20.925781 L 25.257812 21.230469 M 37.449219 21.5 C 37.519531 21.554688 37.597656 21.597656 37.625 21.597656 C 37.652344 21.597656 37.617188 21.554688 37.550781 21.5 C 37.480469 21.445312 37.402344 21.402344 37.375 21.402344 C 37.347656 21.402344 37.382812 21.445312 37.449219 21.5 M 29.738281 21.828125 C 29.632812 21.898438 29.550781 21.964844 29.550781 21.976562 C 29.550781 21.992188 29.640625 21.941406 29.75 21.867188 C 29.925781 21.753906 29.984375 21.699219 29.9375 21.699219 C 29.929688 21.699219 29.839844 21.757812 29.738281 21.828125 M 38.398438 22.175781 C 38.550781 22.328125 38.683594 22.449219 38.695312 22.449219 C 38.710938 22.449219 38.597656 22.328125 38.449219 22.175781 C 38.300781 22.023438 38.167969 21.898438 38.152344 21.898438 C 38.140625 21.898438 38.25 22.023438 38.398438 22.175781 M 25.15625 22.007812 C 25.152344 22.054688 25.136719 22.132812 25.121094 22.183594 C 25.09375 22.269531 25.09375 22.269531 25.148438 22.1875 C 25.179688 22.136719 25.195312 22.058594 25.183594 22.011719 C 25.164062 21.933594 25.160156 21.933594 25.15625 22.007812 M 21.226562 22.199219 C 21.207031 22.285156 21.203125 22.367188 21.214844 22.382812 C 21.230469 22.394531 21.257812 22.335938 21.273438 22.25 C 21.292969 22.164062 21.296875 22.082031 21.285156 22.066406 C 21.269531 22.054688 21.242188 22.113281 21.226562 22.199219 M 28.871094 22.5625 C 28.675781 22.761719 28.488281 22.96875 28.445312 23.023438 C 28.40625 23.078125 28.570312 22.921875 28.808594 22.675781 C 29.050781 22.429688 29.238281 22.222656 29.230469 22.214844 C 29.226562 22.207031 29.0625 22.367188 28.871094 22.5625 M 38.789062 22.527344 C 38.816406 22.582031 38.894531 22.671875 38.957031 22.726562 C 39.070312 22.820312 39.070312 22.820312 38.949219 22.675781 C 38.75 22.433594 38.734375 22.417969 38.789062 22.527344 M 24.773438 22.949219 C 24.730469 23.03125 24.707031 23.101562 24.722656 23.101562 C 24.734375 23.101562 24.78125 23.03125 24.824219 22.949219 C 24.867188 22.867188 24.890625 22.800781 24.878906 22.800781 C 24.863281 22.800781 24.816406 22.867188 24.773438 22.949219 M 39.277344 23.175781 C 39.554688 23.589844 39.605469 23.648438 39.453125 23.375 C 39.394531 23.265625 39.277344 23.097656 39.195312 23 C 39.105469 22.894531 39.140625 22.964844 39.277344 23.175781 M 20.726562 23.128906 L 20.574219 23.257812 L 20.738281 23.152344 C 20.828125 23.089844 20.898438 23.035156 20.898438 23.023438 C 20.898438 22.984375 20.878906 22.996094 20.726562 23.128906 M 28.199219 23.351562 C 28.136719 23.4375 28.097656 23.515625 28.109375 23.523438 C 28.117188 23.535156 28.175781 23.464844 28.238281 23.371094 C 28.378906 23.160156 28.347656 23.144531 28.199219 23.351562 M 19.925781 23.398438 L 19.726562 23.4375 L 19.898438 23.4375 C 19.996094 23.441406 20.121094 23.421875 20.175781 23.398438 C 20.292969 23.347656 20.207031 23.347656 19.925781 23.398438 M 33.539062 23.4375 C 33.628906 23.449219 33.761719 23.445312 33.839844 23.4375 C 33.914062 23.425781 33.839844 23.414062 33.675781 23.414062 C 33.511719 23.414062 33.449219 23.425781 33.539062 23.4375 M 34.289062 23.4375 C 34.378906 23.449219 34.511719 23.445312 34.589844 23.4375 C 34.664062 23.425781 34.589844 23.414062 34.425781 23.414062 C 34.261719 23.414062 34.199219 23.425781 34.289062 23.4375 M 24.199219 23.613281 C 24.128906 23.675781 23.996094 23.789062 23.898438 23.867188 C 23.804688 23.945312 23.769531 23.984375 23.824219 23.957031 C 23.957031 23.890625 24.421875 23.5 24.367188 23.5 C 24.34375 23.503906 24.269531 23.554688 24.199219 23.613281 M 32.898438 23.550781 C 32.84375 23.589844 32.867188 23.59375 32.976562 23.570312 C 33.160156 23.527344 33.199219 23.5 33.070312 23.5 C 33.019531 23.5 32.941406 23.523438 32.898438 23.550781 M 35.46875 23.710938 C 35.84375 23.964844 35.917969 24.003906 35.851562 23.925781 C 35.8125 23.882812 35.691406 23.800781 35.578125 23.746094 C 35.464844 23.691406 35.417969 23.675781 35.46875 23.710938 M 32.171875 23.90625 L 32.074219 24.015625 L 32.210938 23.925781 C 32.355469 23.835938 32.382812 23.800781 32.308594 23.800781 C 32.285156 23.800781 32.222656 23.847656 32.171875 23.90625 M 39.734375 23.972656 C 39.78125 24.070312 39.828125 24.140625 39.835938 24.128906 C 39.859375 24.105469 39.707031 23.800781 39.675781 23.800781 C 39.660156 23.800781 39.6875 23.878906 39.734375 23.972656 M 36.125 24.210938 C 36.234375 24.34375 36.328125 24.449219 36.339844 24.449219 C 36.375 24.449219 36.15625 24.171875 36.046875 24.074219 C 35.984375 24.019531 36.019531 24.082031 36.125 24.210938 M 39.882812 24.300781 C 39.898438 24.367188 39.957031 24.515625 40.007812 24.625 C 40.058594 24.734375 40.085938 24.769531 40.066406 24.699219 C 40.050781 24.632812 39.992188 24.484375 39.941406 24.375 C 39.890625 24.265625 39.863281 24.230469 39.882812 24.300781 M 22.707031 24.382812 C 22.613281 24.421875 22.550781 24.464844 22.5625 24.476562 C 22.574219 24.492188 22.683594 24.457031 22.804688 24.40625 C 22.925781 24.351562 22.992188 24.308594 22.949219 24.308594 C 22.910156 24.308594 22.800781 24.339844 22.707031 24.382812 M 22.8125 24.535156 C 22.886719 24.546875 23.011719 24.546875 23.085938 24.535156 C 23.164062 24.523438 23.101562 24.515625 22.949219 24.515625 C 22.796875 24.515625 22.738281 24.523438 22.8125 24.535156 M 23.324219 24.597656 C 23.429688 24.640625 23.808594 24.769531 23.976562 24.820312 C 24.03125 24.835938 23.960938 24.796875 23.824219 24.734375 C 23.6875 24.667969 23.496094 24.601562 23.398438 24.585938 C 23.289062 24.566406 23.261719 24.570312 23.324219 24.597656 M 27.433594 24.726562 C 27.316406 24.972656 27.332031 25.015625 27.457031 24.78125 C 27.511719 24.675781 27.546875 24.582031 27.539062 24.570312 C 27.527344 24.558594 27.480469 24.628906 27.433594 24.726562 M 31.339844 24.738281 C 31.261719 24.824219 31.109375 25.097656 31.164062 25.046875 C 31.210938 25.007812 31.449219 24.648438 31.429688 24.648438 C 31.421875 24.648438 31.382812 24.6875 31.339844 24.738281 M 36.527344 24.800781 C 36.632812 25.015625 36.648438 25.035156 36.648438 24.945312 C 36.648438 24.90625 36.601562 24.820312 36.546875 24.75 L 36.445312 24.625 L 36.527344 24.800781 M 24.125 24.882812 C 24.253906 25.003906 24.566406 25.207031 24.492188 25.121094 C 24.445312 25.070312 24.332031 24.980469 24.242188 24.929688 C 24.148438 24.878906 24.097656 24.855469 24.125 24.882812 M 40.101562 24.929688 C 40.101562 24.980469 40.125 25.058594 40.152344 25.101562 C 40.1875 25.15625 40.195312 25.132812 40.167969 25.023438 C 40.128906 24.839844 40.101562 24.800781 40.101562 24.929688 M 36.652344 25.0625 C 36.652344 25.082031 36.683594 25.183594 36.722656 25.285156 C 36.761719 25.390625 36.804688 25.519531 36.816406 25.574219 C 36.832031 25.652344 36.839844 25.648438 36.839844 25.550781 C 36.84375 25.4375 36.664062 24.96875 36.652344 25.0625 M 24.699219 25.324219 C 24.90625 25.566406 24.953125 25.613281 24.976562 25.589844 C 24.988281 25.578125 24.902344 25.480469 24.789062 25.371094 C 24.648438 25.242188 24.617188 25.226562 24.699219 25.324219 M 40.199219 25.277344 C 40.199219 25.332031 40.222656 25.410156 40.253906 25.449219 C 40.289062 25.503906 40.292969 25.484375 40.269531 25.375 C 40.226562 25.191406 40.199219 25.152344 40.199219 25.277344 M 40.304688 25.679688 C 40.304688 25.757812 40.328125 25.871094 40.351562 25.925781 C 40.382812 25.992188 40.386719 25.949219 40.367188 25.800781 C 40.332031 25.535156 40.296875 25.472656 40.304688 25.679688 M 27.082031 25.710938 C 27.066406 25.773438 27.054688 25.871094 27.054688 25.925781 C 27.058594 25.980469 27.082031 25.9375 27.105469 25.828125 C 27.15625 25.621094 27.132812 25.515625 27.082031 25.710938 M 36.890625 26.019531 L 36.914062 26.300781 L 30.773438 26.324219 L 36.925781 26.324219 L 36.941406 26.113281 C 36.949219 25.996094 36.933594 25.867188 36.910156 25.820312 C 36.882812 25.769531 36.875 25.839844 36.890625 26.019531 M 40.40625 26.328125 C 40.410156 26.464844 40.429688 26.640625 40.453125 26.726562 C 40.476562 26.816406 40.480469 26.730469 40.464844 26.5 C 40.433594 26.070312 40.398438 25.964844 40.40625 26.328125 M 25.351562 26.230469 C 25.351562 26.257812 25.371094 26.300781 25.394531 26.328125 C 25.417969 26.355469 25.476562 26.480469 25.527344 26.613281 C 25.574219 26.746094 25.625 26.84375 25.632812 26.832031 C 25.660156 26.804688 25.503906 26.402344 25.417969 26.277344 C 25.378906 26.222656 25.351562 26.199219 25.351562 26.230469 M 14.523438 26.3125 C 14.507812 26.347656 14.503906 27.5 14.511719 28.875 L 14.527344 31.375 L 14.550781 26.296875 L 17.449219 26.3125 C 19.042969 26.320312 20.308594 26.308594 20.261719 26.289062 C 20.089844 26.222656 14.550781 26.246094 14.523438 26.3125 M 26.882812 26.558594 C 26.863281 26.625 26.855469 26.742188 26.855469 26.824219 C 26.859375 26.929688 26.875 26.898438 26.902344 26.726562 C 26.945312 26.464844 26.933594 26.367188 26.882812 26.558594 M 21.371094 26.960938 C 21.476562 27.09375 21.570312 27.199219 21.585938 27.199219 C 21.625 27.199219 21.414062 26.929688 21.296875 26.824219 C 21.230469 26.769531 21.265625 26.832031 21.371094 26.960938 M 25.652344 26.980469 C 25.652344 27.03125 25.675781 27.109375 25.703125 27.148438 C 25.738281 27.203125 25.742188 27.183594 25.71875 27.074219 C 25.679688 26.890625 25.648438 26.851562 25.652344 26.980469 M 40.519531 27.925781 C 40.519531 28.390625 40.527344 28.589844 40.539062 28.363281 C 40.546875 28.140625 40.546875 27.757812 40.539062 27.515625 C 40.527344 27.273438 40.519531 27.457031 40.519531 27.925781 M 26.769531 28.148438 C 26.769531 28.605469 26.777344 28.789062 26.789062 28.5625 C 26.796875 28.335938 26.796875 27.964844 26.789062 27.738281 C 26.777344 27.511719 26.769531 27.695312 26.769531 28.148438 M 25.855469 27.878906 C 25.859375 27.988281 25.878906 28.132812 25.902344 28.199219 C 25.925781 28.277344 25.929688 28.210938 25.914062 28.023438 C 25.882812 27.675781 25.847656 27.59375 25.855469 27.878906 M 21.9375 28.351562 C 21.953125 28.527344 21.972656 28.683594 21.980469 28.695312 C 22.019531 28.738281 21.992188 28.222656 21.953125 28.125 C 21.929688 28.066406 21.921875 28.160156 21.9375 28.351562 M 25.96875 28.925781 C 25.96875 29.199219 25.976562 29.304688 25.988281 29.160156 C 25.996094 29.015625 25.996094 28.789062 25.988281 28.660156 C 25.976562 28.53125 25.96875 28.648438 25.96875 28.925781 M 21.960938 29.332031 C 21.953125 29.449219 21.933594 29.582031 21.917969 29.632812 C 21.894531 29.703125 21.898438 29.710938 21.945312 29.667969 C 21.984375 29.636719 22 29.519531 21.988281 29.371094 C 21.96875 29.128906 21.96875 29.128906 21.960938 29.332031 M 30.753906 29.355469 C 30.753906 29.449219 30.777344 29.570312 30.800781 29.625 C 30.828125 29.6875 30.832031 29.636719 30.816406 29.476562 C 30.78125 29.179688 30.75 29.113281 30.753906 29.355469 M 26.863281 29.398438 C 26.863281 29.496094 26.871094 29.535156 26.882812 29.488281 C 26.898438 29.4375 26.898438 29.359375 26.882812 29.3125 C 26.871094 29.265625 26.863281 29.304688 26.863281 29.398438 M 25.875 29.976562 C 25.855469 30.160156 25.851562 30.320312 25.867188 30.332031 C 25.878906 30.347656 25.90625 30.207031 25.925781 30.027344 C 25.945312 29.84375 25.949219 29.683594 25.9375 29.671875 C 25.921875 29.65625 25.894531 29.792969 25.875 29.976562 M 26.960938 29.949219 C 26.960938 30.046875 26.972656 30.085938 26.984375 30.039062 C 26.996094 29.988281 26.996094 29.910156 26.984375 29.863281 C 26.972656 29.8125 26.960938 29.855469 26.960938 29.949219 M 37.042969 30.425781 C 37 30.601562 36.980469 30.738281 37 30.726562 C 37.039062 30.699219 37.175781 30.15625 37.144531 30.128906 C 37.132812 30.117188 37.089844 30.25 37.042969 30.425781 M 40.363281 30.25 C 40.363281 30.347656 40.371094 30.386719 40.382812 30.335938 C 40.398438 30.289062 40.398438 30.210938 40.382812 30.164062 C 40.371094 30.113281 40.363281 30.152344 40.363281 30.25 M 27.058594 30.351562 C 27.058594 30.390625 27.078125 30.46875 27.101562 30.523438 C 27.128906 30.589844 27.144531 30.597656 27.144531 30.550781 C 27.144531 30.507812 27.125 30.429688 27.101562 30.375 C 27.074219 30.3125 27.058594 30.304688 27.058594 30.351562 M 40.316406 30.75 C 40.316406 30.929688 40.324219 31 40.335938 30.914062 C 40.347656 30.824219 40.347656 30.675781 40.335938 30.585938 C 40.324219 30.5 40.316406 30.570312 40.316406 30.75 M 21.316406 30.785156 C 21.171875 30.929688 21.09375 31.03125 21.140625 31.003906 C 21.246094 30.945312 21.625 30.558594 21.597656 30.535156 C 21.585938 30.527344 21.457031 30.640625 21.316406 30.785156 M 31.214844 30.773438 C 31.253906 30.859375 31.339844 30.96875 31.402344 31.023438 C 31.5 31.105469 31.492188 31.089844 31.375 30.925781 C 31.171875 30.644531 31.125 30.601562 31.214844 30.773438 M 20.75 31.15625 C 20.621094 31.226562 20.609375 31.242188 20.699219 31.21875 C 20.828125 31.1875 21.0625 31.046875 20.972656 31.054688 C 20.945312 31.058594 20.847656 31.105469 20.75 31.15625 M 25.589844 31.273438 C 25.542969 31.398438 25.515625 31.5 25.527344 31.5 C 25.5625 31.5 25.703125 31.136719 25.6875 31.089844 C 25.679688 31.066406 25.636719 31.148438 25.589844 31.273438 M 40.226562 31.25 C 40.207031 31.335938 40.199219 31.417969 40.214844 31.429688 C 40.226562 31.441406 40.25 31.382812 40.269531 31.292969 C 40.285156 31.207031 40.292969 31.125 40.28125 31.113281 C 40.269531 31.101562 40.242188 31.164062 40.226562 31.25 M 31.648438 31.296875 C 31.746094 31.382812 31.871094 31.476562 31.925781 31.503906 C 32.042969 31.566406 31.855469 31.402344 31.625 31.242188 C 31.5 31.15625 31.503906 31.164062 31.648438 31.296875 M 36.574219 31.300781 C 36.492188 31.386719 36.332031 31.507812 36.214844 31.578125 C 36.097656 31.648438 36 31.714844 36 31.730469 C 36 31.789062 36.417969 31.507812 36.585938 31.335938 C 36.6875 31.234375 36.757812 31.148438 36.746094 31.148438 C 36.730469 31.148438 36.652344 31.21875 36.574219 31.300781 M 20.175781 31.300781 C 20.039062 31.335938 20.039062 31.339844 20.148438 31.339844 C 20.21875 31.339844 20.332031 31.320312 20.398438 31.300781 C 20.566406 31.246094 20.386719 31.246094 20.175781 31.300781 M 15.914062 31.386719 C 16.652344 31.394531 17.847656 31.394531 18.566406 31.386719 C 19.285156 31.378906 18.683594 31.375 17.226562 31.375 C 15.765625 31.375 15.179688 31.378906 15.914062 31.386719 M 25.339844 31.835938 C 25.265625 31.980469 25.214844 32.101562 25.226562 32.101562 C 25.265625 32.101562 25.507812 31.652344 25.492188 31.613281 C 25.484375 31.589844 25.414062 31.691406 25.339844 31.835938 M 40.089844 31.75 C 40.074219 31.820312 40.046875 31.921875 40.027344 31.976562 C 40.007812 32.03125 40.03125 32.011719 40.074219 31.933594 C 40.121094 31.855469 40.148438 31.757812 40.136719 31.710938 C 40.125 31.648438 40.113281 31.660156 40.089844 31.75 M 33.46875 32.113281 C 33.539062 32.15625 34.578125 32.152344 34.742188 32.109375 C 34.804688 32.089844 34.53125 32.074219 34.132812 32.074219 C 33.734375 32.074219 33.4375 32.089844 33.46875 32.113281 M 25.082031 32.3125 L 24.992188 32.476562 L 25.09375 32.351562 C 25.1875 32.238281 25.226562 32.148438 25.1875 32.148438 C 25.179688 32.148438 25.132812 32.222656 25.082031 32.3125 M 28.003906 32.421875 C 28.222656 32.730469 28.3125 32.785156 28.105469 32.484375 C 28.019531 32.359375 27.921875 32.238281 27.890625 32.21875 C 27.859375 32.199219 27.90625 32.289062 28.003906 32.421875 M 28.601562 33.117188 C 28.804688 33.332031 29.042969 33.554688 29.125 33.613281 C 29.292969 33.730469 29.292969 33.726562 28.675781 33.148438 L 28.226562 32.726562 L 28.601562 33.117188 M 24.394531 33.113281 C 24.242188 33.257812 24.175781 33.328125 24.242188 33.273438 C 24.433594 33.125 24.726562 32.851562 24.699219 32.851562 C 24.6875 32.851562 24.550781 32.96875 24.394531 33.113281 M 39.023438 33.4375 C 38.804688 33.648438 38.691406 33.773438 38.773438 33.714844 C 38.921875 33.609375 39.492188 33.046875 39.449219 33.050781 C 39.433594 33.054688 39.246094 33.226562 39.023438 33.4375 M 23.585938 33.695312 C 23.382812 33.828125 23.351562 33.875 23.535156 33.78125 C 23.621094 33.738281 23.707031 33.679688 23.726562 33.648438 C 23.765625 33.585938 23.753906 33.589844 23.585938 33.695312 M 29.359375 33.777344 C 29.40625 33.832031 29.519531 33.917969 29.609375 33.96875 C 29.804688 34.082031 29.753906 34.027344 29.476562 33.824219 C 29.359375 33.742188 29.308594 33.722656 29.359375 33.777344 M 38.378906 33.953125 C 38.273438 34.035156 38.207031 34.101562 38.230469 34.101562 C 38.257812 34.101562 38.355469 34.035156 38.453125 33.953125 C 38.671875 33.761719 38.632812 33.761719 38.378906 33.953125 M 23 34.003906 C 22.847656 34.082031 22.746094 34.148438 22.769531 34.148438 C 22.824219 34.148438 23.351562 33.898438 23.351562 33.867188 C 23.351562 33.832031 23.273438 33.863281 23 34.003906 M 30.050781 34.203125 C 30.222656 34.320312 30.320312 34.355469 30.199219 34.253906 C 30.132812 34.199219 30.050781 34.152344 30.023438 34.152344 C 29.996094 34.152344 30.007812 34.175781 30.050781 34.203125 M 21.398438 34.5 C 21.304688 34.5625 21.40625 34.5625 21.601562 34.5 L 21.726562 34.460938 L 21.601562 34.457031 C 21.53125 34.453125 21.441406 34.472656 21.398438 34.5 M 20.824219 34.601562 C 20.691406 34.632812 20.6875 34.636719 20.800781 34.636719 C 20.867188 34.636719 20.992188 34.621094 21.074219 34.601562 C 21.207031 34.566406 21.210938 34.5625 21.101562 34.5625 C 21.03125 34.5625 20.90625 34.578125 20.824219 34.601562 M 12.792969 34.6875 C 14.175781 34.695312 16.425781 34.695312 17.792969 34.6875 C 19.15625 34.679688 18.023438 34.675781 15.273438 34.675781 C 12.523438 34.675781 11.40625 34.679688 12.792969 34.6875 M 31.503906 34.769531 C 31.515625 34.777344 31.59375 34.800781 31.675781 34.820312 C 31.785156 34.84375 31.804688 34.839844 31.75 34.800781 C 31.683594 34.757812 31.453125 34.726562 31.503906 34.769531 M 36.351562 34.800781 C 36.296875 34.839844 36.316406 34.84375 36.425781 34.820312 C 36.609375 34.777344 36.648438 34.75 36.519531 34.75 C 36.46875 34.75 36.390625 34.773438 36.351562 34.800781 M 32.101562 34.898438 C 32.269531 34.953125 32.402344 34.953125 32.273438 34.898438 C 32.21875 34.875 32.128906 34.859375 32.074219 34.859375 C 31.996094 34.859375 32 34.867188 32.101562 34.898438 M 35.851562 34.898438 C 35.75 34.933594 35.746094 34.941406 35.824219 34.941406 C 35.878906 34.941406 35.980469 34.921875 36.050781 34.898438 C 36.148438 34.867188 36.152344 34.859375 36.074219 34.859375 C 36.019531 34.859375 35.917969 34.878906 35.851562 34.898438 M 32.75 35.003906 C 32.875 35.023438 33.066406 35.042969 33.175781 35.039062 L 33.375 35.039062 L 33.148438 34.996094 C 33.027344 34.976562 32.835938 34.957031 32.726562 34.960938 L 32.523438 34.960938 L 32.75 35.003906 M 35.125 35 L 35.023438 35.042969 L 35.125 35.039062 C 35.179688 35.039062 35.292969 35.019531 35.375 35 L 35.523438 34.960938 L 35.375 34.960938 C 35.292969 34.957031 35.179688 34.976562 35.125 35 M 34.039062 35.085938 C 34.097656 35.097656 34.199219 35.097656 34.261719 35.085938 C 34.324219 35.074219 34.273438 35.0625 34.148438 35.0625 C 34.027344 35.0625 33.976562 35.074219 34.039062 35.085938 "/>
</g>
</svg>
