<?xml version="1.0" encoding="UTF-8"?>
<svg xmlns="http://www.w3.org/2000/svg" xmlns:xlink="http://www.w3.org/1999/xlink" width="125pt" height="125pt" viewBox="0 0 125 125" version="1.1">
<g id="surface1">
<path style=" stroke:none;fill-rule:evenodd;fill:rgb(95.686275%,94.901961%,97.254902%);fill-opacity:1;" d="M 46.375 63.5625 L 46.375 88.75 L 56.78125 88.746094 C 67.507812 88.738281 67.714844 88.730469 71.0625 88.207031 C 72.148438 88.039062 72.398438 87.976562 72.9375 87.746094 C 73.660156 87.433594 74.175781 87.25 74.335938 87.25 C 74.433594 87.25 74.71875 87.109375 74.972656 86.9375 C 75.226562 86.765625 75.503906 86.625 75.589844 86.625 C 75.726562 86.625 76.097656 86.398438 77.375 85.539062 C 78.164062 85.011719 79.890625 83.132812 80.464844 82.1875 C 82.824219 78.277344 82.792969 70.476562 80.398438 66.4375 C 79.421875 64.792969 77.863281 63.238281 76.671875 62.730469 C 76.472656 62.644531 76.226562 62.511719 76.125 62.4375 C 76.023438 62.359375 75.683594 62.222656 75.375 62.132812 C 74.066406 61.757812 73.894531 61.578125 74.558594 61.273438 C 75.785156 60.714844 78.015625 58.578125 78.695312 57.3125 C 78.769531 57.175781 78.894531 56.949219 78.972656 56.8125 C 79.050781 56.675781 79.207031 56.335938 79.320312 56.0625 C 79.433594 55.789062 79.570312 55.449219 79.628906 55.3125 C 81.097656 51.769531 80.292969 45.546875 78 42.707031 C 77.0625 41.542969 74.3125 39.5 73.6875 39.5 C 73.609375 39.5 73.210938 39.367188 72.804688 39.207031 C 72.394531 39.046875 71.640625 38.84375 71.125 38.761719 C 70.609375 38.679688 69.882812 38.558594 69.511719 38.492188 C 69.121094 38.425781 64.046875 38.375 57.605469 38.375 L 46.375 38.375 L 46.375 63.5625 M 68.886719 45.703125 C 68.984375 45.777344 69.34375 45.945312 69.6875 46.074219 C 70.929688 46.539062 71.667969 47.351562 72.390625 49.0625 C 72.644531 49.667969 72.742188 50.5625 72.746094 52.324219 C 72.75 54.046875 72.683594 54.589844 72.371094 55.3125 C 72.3125 55.449219 72.226562 55.703125 72.179688 55.875 C 71.90625 56.855469 70.710938 58.0625 69.1875 58.898438 L 68.4375 59.308594 L 61.15625 59.347656 L 53.875 59.382812 L 53.875 45.488281 L 61.292969 45.527344 C 66.488281 45.550781 68.765625 45.605469 68.886719 45.703125 M 68.25 65.75 C 69.8125 65.964844 70.390625 66.113281 71.210938 66.523438 C 76.113281 68.980469 76.039062 78.375 71.101562 80.738281 C 69.570312 81.46875 69.175781 81.5 61.15625 81.5 L 53.875 81.5 L 53.875 73.636719 C 53.875 67.460938 53.910156 65.757812 54.03125 65.707031 C 54.308594 65.597656 67.410156 65.632812 68.25 65.75 "/>
<path style=" stroke:none;fill-rule:evenodd;fill:rgb(35.294118%,25.098039%,50.196078%);fill-opacity:1;" d="M 58.425781 0.230469 C 58.460938 0.289062 57.523438 0.375 56.339844 0.425781 C 55.15625 0.472656 54.167969 0.566406 54.144531 0.628906 C 54.121094 0.695312 53.769531 0.75 53.363281 0.75 C 52.957031 0.75 52.625 0.800781 52.625 0.859375 C 52.625 0.917969 52.121094 1.007812 51.5 1.054688 C 50.882812 1.105469 50.347656 1.195312 50.308594 1.257812 C 50.265625 1.324219 50.011719 1.375 49.742188 1.375 C 49.472656 1.375 49.25 1.429688 49.25 1.5 C 49.25 1.570312 48.996094 1.625 48.6875 1.625 C 48.378906 1.625 48.125 1.675781 48.125 1.734375 C 48.125 1.796875 47.761719 1.886719 47.3125 1.933594 C 46.867188 1.980469 46.46875 2.070312 46.429688 2.132812 C 46.390625 2.199219 46.222656 2.25 46.054688 2.25 C 45.886719 2.25 45.75 2.296875 45.75 2.359375 C 45.75 2.417969 45.460938 2.5 45.101562 2.542969 C 44.746094 2.582031 44.398438 2.675781 44.328125 2.746094 C 44.257812 2.816406 44.070312 2.875 43.914062 2.875 C 43.753906 2.875 43.625 2.929688 43.625 3 C 43.625 3.070312 43.429688 3.125 43.1875 3.125 C 42.945312 3.125 42.75 3.175781 42.75 3.234375 C 42.75 3.292969 42.523438 3.378906 42.25 3.421875 C 41.976562 3.46875 41.75 3.558594 41.75 3.625 C 41.75 3.695312 41.636719 3.75 41.5 3.75 C 41.359375 3.75 41.148438 3.804688 41.03125 3.867188 C 40.910156 3.933594 40.488281 4.082031 40.09375 4.195312 C 39.699219 4.3125 39.375 4.457031 39.375 4.515625 C 39.375 4.578125 39.234375 4.625 39.0625 4.625 C 38.890625 4.625 38.75 4.675781 38.75 4.734375 C 38.75 4.796875 38.554688 4.882812 38.3125 4.929688 C 38.070312 4.972656 37.875 5.066406 37.875 5.128906 C 37.875 5.195312 37.734375 5.25 37.5625 5.25 C 37.390625 5.25 37.25 5.300781 37.25 5.359375 C 37.25 5.421875 37.054688 5.507812 36.8125 5.554688 C 36.570312 5.597656 36.375 5.691406 36.375 5.753906 C 36.375 5.820312 36.261719 5.875 36.125 5.875 C 35.988281 5.875 35.875 5.929688 35.875 6 C 35.875 6.070312 35.789062 6.125 35.6875 6.125 C 35.585938 6.125 35.5 6.175781 35.5 6.234375 C 35.5 6.296875 35.304688 6.382812 35.0625 6.429688 C 34.820312 6.472656 34.625 6.566406 34.625 6.628906 C 34.625 6.695312 34.539062 6.75 34.4375 6.75 C 34.335938 6.75 34.25 6.800781 34.25 6.859375 C 34.25 6.921875 34.054688 7.007812 33.8125 7.054688 C 33.570312 7.097656 33.375 7.191406 33.375 7.253906 C 33.375 7.320312 33.261719 7.375 33.125 7.375 C 32.988281 7.375 32.875 7.429688 32.875 7.5 C 32.875 7.570312 32.789062 7.625 32.6875 7.625 C 32.585938 7.625 32.5 7.675781 32.5 7.738281 C 32.5 7.804688 32.339844 7.890625 32.140625 7.933594 C 31.945312 7.976562 31.675781 8.109375 31.542969 8.226562 C 31.414062 8.34375 31.097656 8.542969 30.839844 8.675781 C 30.585938 8.808594 30.375 8.960938 30.375 9.019531 C 30.375 9.078125 30.261719 9.125 30.125 9.125 C 29.988281 9.125 29.875 9.175781 29.875 9.238281 C 29.875 9.296875 29.734375 9.382812 29.5625 9.425781 C 29.390625 9.46875 29.25 9.558594 29.25 9.628906 C 29.25 9.695312 29.164062 9.75 29.0625 9.75 C 28.960938 9.75 28.875 9.792969 28.875 9.847656 C 28.875 9.898438 28.679688 10.050781 28.4375 10.179688 C 28.195312 10.308594 28 10.460938 28 10.519531 C 28 10.578125 27.882812 10.625 27.742188 10.625 C 27.601562 10.625 27.515625 10.675781 27.554688 10.738281 C 27.59375 10.800781 27.457031 10.910156 27.25 10.980469 C 27.042969 11.054688 26.839844 11.199219 26.796875 11.304688 C 26.757812 11.414062 26.621094 11.5 26.496094 11.5 C 26.371094 11.5 26.15625 11.640625 26.023438 11.8125 C 25.886719 11.984375 25.6875 12.125 25.574219 12.125 C 25.464844 12.125 25.375 12.179688 25.375 12.242188 C 25.375 12.308594 25.175781 12.457031 24.933594 12.574219 C 24.691406 12.6875 24.519531 12.8125 24.554688 12.84375 C 24.617188 12.910156 24.082031 13.375 23.945312 13.375 C 23.898438 13.375 23.726562 13.5 23.5625 13.65625 C 23.113281 14.074219 22.894531 14.25 22.8125 14.25 C 22.773438 14.25 22.496094 14.503906 22.195312 14.8125 C 21.894531 15.121094 21.597656 15.375 21.539062 15.375 C 21.480469 15.375 21.292969 15.515625 21.121094 15.6875 C 20.953125 15.859375 20.738281 16.070312 20.648438 16.15625 C 19.613281 17.148438 19.25 17.53125 19.25 17.632812 C 19.25 17.695312 19.152344 17.75 19.03125 17.75 C 18.832031 17.75 17.5 19 17.5 19.183594 C 17.5 19.25 16.730469 20.085938 16.132812 20.671875 C 15.398438 21.386719 15.125 21.695312 15.125 21.789062 C 15.125 21.855469 14.871094 22.148438 14.5625 22.445312 C 14.253906 22.742188 14 23.039062 14 23.105469 C 14 23.21875 13.699219 23.574219 12.816406 24.527344 C 12.640625 24.710938 12.5 24.945312 12.5 25.039062 C 12.5 25.136719 12.359375 25.320312 12.1875 25.449219 C 12.015625 25.578125 11.875 25.742188 11.875 25.8125 C 11.875 25.882812 11.734375 26.089844 11.5625 26.277344 C 11.390625 26.460938 11.25 26.671875 11.25 26.746094 C 11.25 26.816406 11.199219 26.875 11.132812 26.875 C 11.070312 26.875 10.976562 27 10.929688 27.15625 C 10.878906 27.3125 10.734375 27.527344 10.605469 27.640625 C 10.480469 27.75 10.375 27.925781 10.375 28.03125 C 10.375 28.136719 10.289062 28.253906 10.1875 28.296875 C 10.085938 28.335938 10 28.46875 10 28.589844 C 10 28.714844 9.894531 28.878906 9.765625 28.960938 C 9.636719 29.042969 9.492188 29.261719 9.445312 29.453125 C 9.398438 29.640625 9.257812 29.886719 9.136719 29.992188 C 9.015625 30.101562 8.8125 30.425781 8.683594 30.71875 C 8.554688 31.011719 8.40625 31.25 8.351562 31.25 C 8.296875 31.25 8.25 31.335938 8.25 31.4375 C 8.25 31.539062 8.199219 31.625 8.136719 31.625 C 8.070312 31.625 7.980469 31.808594 7.929688 32.03125 C 7.882812 32.253906 7.746094 32.523438 7.632812 32.625 C 7.515625 32.726562 7.371094 32.925781 7.316406 33.0625 C 7.257812 33.199219 7.195312 33.339844 7.179688 33.375 C 7.167969 33.410156 7.113281 33.5625 7.0625 33.71875 C 7.011719 33.875 6.921875 34 6.859375 34 C 6.800781 34 6.75 34.085938 6.75 34.1875 C 6.75 34.289062 6.699219 34.375 6.640625 34.375 C 6.578125 34.375 6.492188 34.570312 6.445312 34.8125 C 6.402344 35.054688 6.308594 35.25 6.246094 35.25 C 6.179688 35.25 6.125 35.363281 6.125 35.5 C 6.125 35.636719 6.074219 35.75 6.015625 35.75 C 5.921875 35.75 5.769531 36.0625 5.703125 36.394531 C 5.695312 36.441406 5.644531 36.519531 5.59375 36.574219 C 5.542969 36.625 5.5 36.796875 5.5 36.957031 C 5.5 37.117188 5.445312 37.25 5.375 37.25 C 5.304688 37.25 5.25 37.335938 5.25 37.4375 C 5.25 37.539062 5.199219 37.625 5.140625 37.625 C 5.078125 37.625 4.992188 37.820312 4.945312 38.0625 C 4.902344 38.304688 4.808594 38.5 4.746094 38.5 C 4.679688 38.5 4.625 38.640625 4.625 38.8125 C 4.625 38.984375 4.570312 39.125 4.5 39.125 C 4.429688 39.125 4.375 39.226562 4.375 39.355469 C 4.375 39.480469 4.335938 39.621094 4.289062 39.671875 C 4.242188 39.71875 4.183594 39.824219 4.164062 39.910156 C 4.144531 39.992188 4.09375 40.230469 4.046875 40.4375 C 4 40.644531 3.925781 40.839844 3.878906 40.875 C 3.726562 40.988281 3.375 41.996094 3.375 42.316406 C 3.375 42.484375 3.320312 42.625 3.25 42.625 C 3.179688 42.625 3.125 42.765625 3.125 42.9375 C 3.125 43.109375 3.070312 43.25 3 43.25 C 2.929688 43.25 2.875 43.382812 2.875 43.542969 C 2.875 43.703125 2.835938 43.871094 2.789062 43.921875 C 2.6875 44.023438 2.625 44.265625 2.535156 44.90625 C 2.503906 45.164062 2.421875 45.375 2.363281 45.375 C 2.300781 45.375 2.25 45.515625 2.25 45.6875 C 2.25 45.859375 2.199219 46 2.136719 46 C 2.074219 46 1.984375 46.394531 1.9375 46.875 C 1.890625 47.355469 1.800781 47.75 1.738281 47.75 C 1.675781 47.75 1.625 47.945312 1.625 48.1875 C 1.625 48.429688 1.570312 48.625 1.5 48.625 C 1.429688 48.625 1.375 48.847656 1.375 49.117188 C 1.375 49.386719 1.324219 49.640625 1.261719 49.679688 C 1.203125 49.71875 1.109375 50.199219 1.0625 50.75 C 1.015625 51.300781 0.921875 51.75 0.863281 51.75 C 0.800781 51.75 0.75 52.054688 0.75 52.425781 C 0.75 52.800781 0.699219 53.121094 0.636719 53.144531 C 0.574219 53.167969 0.480469 53.976562 0.429688 54.9375 C 0.375 55.988281 0.285156 56.722656 0.203125 56.777344 C 0.00390625 56.902344 0.00390625 68.722656 0.203125 68.847656 C 0.285156 68.902344 0.375 69.632812 0.429688 70.6875 C 0.480469 71.648438 0.570312 72.492188 0.636719 72.554688 C 0.699219 72.621094 0.75 72.945312 0.75 73.273438 C 0.75 73.605469 0.800781 73.875 0.863281 73.875 C 0.925781 73.875 1.015625 74.351562 1.066406 74.9375 C 1.113281 75.523438 1.203125 76 1.265625 76 C 1.324219 76 1.375 76.222656 1.375 76.492188 C 1.375 76.761719 1.429688 77.019531 1.5 77.0625 C 1.570312 77.105469 1.625 77.304688 1.625 77.507812 C 1.625 77.710938 1.675781 77.875 1.738281 77.875 C 1.800781 77.875 1.890625 78.269531 1.9375 78.75 C 1.984375 79.230469 2.074219 79.625 2.136719 79.625 C 2.199219 79.625 2.25 79.765625 2.25 79.9375 C 2.25 80.109375 2.300781 80.25 2.359375 80.25 C 2.417969 80.25 2.507812 80.585938 2.550781 81 C 2.597656 81.414062 2.691406 81.75 2.757812 81.75 C 2.820312 81.75 2.875 81.886719 2.875 82.054688 C 2.875 82.222656 2.929688 82.394531 3 82.4375 C 3.070312 82.480469 3.125 82.652344 3.125 82.820312 C 3.125 82.988281 3.175781 83.125 3.238281 83.125 C 3.300781 83.125 3.390625 83.40625 3.4375 83.75 C 3.484375 84.09375 3.574219 84.375 3.636719 84.375 C 3.699219 84.375 3.75 84.460938 3.75 84.5625 C 3.75 84.664062 3.804688 84.75 3.875 84.75 C 3.945312 84.75 4 84.875 4 85.03125 C 4 85.394531 4.394531 86.5 4.523438 86.5 C 4.578125 86.5 4.625 86.640625 4.625 86.8125 C 4.625 86.984375 4.675781 87.125 4.734375 87.125 C 4.796875 87.125 4.882812 87.320312 4.929688 87.5625 C 4.972656 87.804688 5.066406 88 5.128906 88 C 5.195312 88 5.25 88.140625 5.25 88.3125 C 5.25 88.484375 5.304688 88.625 5.375 88.625 C 5.445312 88.625 5.5 88.710938 5.5 88.8125 C 5.5 89.027344 6.140625 90.289062 6.277344 90.351562 C 6.328125 90.375 6.402344 90.585938 6.449219 90.820312 C 6.492188 91.058594 6.578125 91.25 6.640625 91.25 C 6.699219 91.25 6.75 91.335938 6.75 91.4375 C 6.75 91.539062 6.804688 91.625 6.875 91.625 C 6.945312 91.625 7 91.710938 7 91.8125 C 7 92.027344 7.609375 93.230469 7.84375 93.476562 C 7.929688 93.570312 8 93.722656 8 93.820312 C 8 93.917969 8.042969 94 8.09375 94 C 8.148438 94 8.289062 94.210938 8.410156 94.46875 C 8.625 94.933594 8.878906 95.378906 9 95.5 C 9.109375 95.609375 9.371094 96.054688 9.5 96.347656 C 9.566406 96.503906 9.707031 96.664062 9.8125 96.703125 C 9.914062 96.742188 10 96.875 10 97 C 10 97.121094 10.085938 97.289062 10.1875 97.375 C 10.289062 97.460938 10.375 97.585938 10.375 97.65625 C 10.375 97.726562 10.480469 97.875 10.605469 97.984375 C 10.734375 98.097656 10.878906 98.3125 10.929688 98.46875 C 10.976562 98.625 11.070312 98.75 11.132812 98.75 C 11.199219 98.75 11.25 98.808594 11.25 98.878906 C 11.25 98.953125 11.390625 99.164062 11.5625 99.347656 C 11.734375 99.535156 11.875 99.742188 11.875 99.816406 C 11.875 99.886719 11.988281 100.027344 12.125 100.125 C 12.261719 100.222656 12.375 100.371094 12.375 100.453125 C 12.375 100.535156 12.566406 100.800781 12.800781 101.042969 C 13.035156 101.285156 13.261719 101.59375 13.308594 101.734375 C 13.351562 101.875 13.496094 102.023438 13.632812 102.0625 C 13.765625 102.105469 13.875 102.230469 13.875 102.335938 C 13.875 102.445312 14.15625 102.804688 14.5 103.136719 C 14.84375 103.46875 15.125 103.800781 15.125 103.871094 C 15.125 103.945312 15.546875 104.417969 16.0625 104.925781 C 16.578125 105.433594 17 105.894531 17 105.957031 C 17.003906 106.082031 19.546875 108.625 19.671875 108.625 C 19.722656 108.625 20.1875 109.046875 20.707031 109.5625 C 21.226562 110.078125 21.707031 110.5 21.769531 110.5 C 21.832031 110.5 22.128906 110.753906 22.429688 111.0625 C 22.730469 111.371094 23.011719 111.625 23.054688 111.625 C 23.15625 111.625 23.445312 111.859375 23.78125 112.21875 C 23.925781 112.375 24.113281 112.5 24.191406 112.5 C 24.273438 112.5 24.445312 112.640625 24.574219 112.8125 C 24.703125 112.984375 24.882812 113.125 24.972656 113.125 C 25.0625 113.125 25.265625 113.265625 25.425781 113.4375 C 25.585938 113.609375 25.757812 113.75 25.804688 113.75 C 25.851562 113.75 25.976562 113.835938 26.082031 113.9375 C 26.183594 114.039062 26.371094 114.125 26.5 114.125 C 26.628906 114.125 26.765625 114.226562 26.804688 114.351562 C 26.84375 114.476562 27.074219 114.671875 27.3125 114.789062 C 27.554688 114.902344 27.75 115.054688 27.75 115.125 C 27.75 115.191406 27.855469 115.25 27.988281 115.25 C 28.117188 115.25 28.253906 115.335938 28.296875 115.4375 C 28.335938 115.539062 28.480469 115.625 28.621094 115.625 C 28.761719 115.625 28.875 115.679688 28.875 115.75 C 28.875 115.820312 28.960938 115.875 29.0625 115.875 C 29.164062 115.875 29.25 115.917969 29.25 115.972656 C 29.25 116.027344 29.433594 116.175781 29.65625 116.308594 C 29.878906 116.4375 30.089844 116.578125 30.125 116.621094 C 30.203125 116.71875 31.066406 117.125 31.191406 117.125 C 31.242188 117.125 31.375 117.226562 31.484375 117.351562 C 31.695312 117.582031 32.496094 118 32.738281 118 C 32.8125 118 32.875 118.054688 32.875 118.125 C 32.875 118.195312 32.988281 118.25 33.125 118.25 C 33.261719 118.25 33.375 118.300781 33.375 118.363281 C 33.375 118.421875 33.515625 118.507812 33.6875 118.550781 C 33.859375 118.59375 34 118.683594 34 118.753906 C 34 118.820312 34.109375 118.875 34.238281 118.875 C 34.371094 118.875 34.496094 118.917969 34.519531 118.96875 C 34.59375 119.136719 35.34375 119.5 35.613281 119.5 C 35.757812 119.5 35.875 119.554688 35.875 119.625 C 35.875 119.695312 35.988281 119.75 36.125 119.75 C 36.261719 119.75 36.375 119.804688 36.375 119.871094 C 36.375 119.933594 36.570312 120.027344 36.8125 120.070312 C 37.054688 120.117188 37.25 120.203125 37.25 120.265625 C 37.25 120.324219 37.335938 120.375 37.4375 120.375 C 37.539062 120.375 37.625 120.429688 37.625 120.5 C 37.625 120.570312 37.730469 120.625 37.859375 120.625 C 37.992188 120.625 38.257812 120.710938 38.453125 120.8125 C 38.652344 120.914062 38.9375 121 39.09375 121 C 39.25 121 39.375 121.054688 39.375 121.125 C 39.375 121.195312 39.460938 121.25 39.5625 121.25 C 39.664062 121.25 39.75 121.300781 39.75 121.367188 C 39.75 121.429688 40.058594 121.519531 40.4375 121.566406 C 40.8125 121.613281 41.089844 121.703125 41.054688 121.765625 C 41.015625 121.824219 41.101562 121.875 41.242188 121.875 C 41.382812 121.875 41.5 121.929688 41.5 122 C 41.5 122.070312 41.636719 122.125 41.804688 122.125 C 41.972656 122.125 42.144531 122.179688 42.183594 122.242188 C 42.222656 122.308594 42.507812 122.398438 42.816406 122.445312 C 43.125 122.492188 43.375 122.578125 43.375 122.640625 C 43.375 122.699219 43.542969 122.75 43.75 122.75 C 43.957031 122.75 44.125 122.800781 44.125 122.863281 C 44.125 122.925781 44.460938 123.015625 44.875 123.0625 C 45.289062 123.109375 45.625 123.199219 45.625 123.261719 C 45.625 123.324219 45.792969 123.375 46 123.375 C 46.207031 123.375 46.375 123.429688 46.375 123.5 C 46.375 123.570312 46.570312 123.625 46.804688 123.625 C 47.042969 123.625 47.265625 123.675781 47.304688 123.742188 C 47.34375 123.804688 47.742188 123.894531 48.1875 123.941406 C 48.636719 123.988281 49 124.078125 49 124.140625 C 49 124.199219 49.253906 124.25 49.5625 124.25 C 49.871094 124.25 50.125 124.300781 50.125 124.363281 C 50.125 124.425781 50.617188 124.519531 51.21875 124.566406 C 51.820312 124.617188 52.351562 124.71875 52.402344 124.796875 C 52.53125 125 72.847656 124.996094 72.972656 124.792969 C 73.023438 124.714844 73.554688 124.609375 74.15625 124.5625 C 74.761719 124.511719 75.285156 124.421875 75.320312 124.359375 C 75.359375 124.300781 75.582031 124.25 75.820312 124.25 C 76.054688 124.25 76.25 124.199219 76.25 124.140625 C 76.25 124.078125 76.671875 123.988281 77.1875 123.941406 C 77.703125 123.894531 78.125 123.800781 78.125 123.738281 C 78.125 123.675781 78.320312 123.625 78.5625 123.625 C 78.804688 123.625 79 123.570312 79 123.5 C 79 123.429688 79.140625 123.375 79.3125 123.375 C 79.484375 123.375 79.625 123.324219 79.625 123.265625 C 79.625 123.207031 79.960938 123.117188 80.375 123.074219 C 80.789062 123.027344 81.125 122.933594 81.125 122.867188 C 81.125 122.804688 81.320312 122.75 81.5625 122.75 C 81.804688 122.75 82 122.699219 82 122.640625 C 82 122.578125 82.25 122.492188 82.558594 122.445312 C 82.867188 122.398438 83.152344 122.308594 83.191406 122.242188 C 83.230469 122.179688 83.375 122.125 83.507812 122.125 C 83.640625 122.125 83.75 122.070312 83.75 122 C 83.75 121.929688 83.890625 121.875 84.0625 121.875 C 84.234375 121.875 84.375 121.824219 84.375 121.761719 C 84.375 121.699219 84.65625 121.609375 85 121.5625 C 85.34375 121.515625 85.625 121.425781 85.625 121.363281 C 85.625 121.300781 85.738281 121.25 85.875 121.25 C 86.011719 121.25 86.125 121.199219 86.125 121.140625 C 86.125 121.082031 86.351562 120.996094 86.625 120.953125 C 86.898438 120.90625 87.125 120.816406 87.125 120.75 C 87.125 120.679688 87.238281 120.625 87.375 120.625 C 87.511719 120.625 87.625 120.570312 87.625 120.5 C 87.625 120.429688 87.765625 120.375 87.9375 120.375 C 88.109375 120.375 88.25 120.320312 88.25 120.25 C 88.25 120.179688 88.3125 120.125 88.386719 120.125 C 88.554688 120.125 89.414062 119.734375 89.5 119.617188 C 89.535156 119.570312 89.746094 119.492188 89.96875 119.441406 C 90.191406 119.394531 90.375 119.304688 90.375 119.238281 C 90.375 119.175781 90.460938 119.125 90.5625 119.125 C 90.664062 119.125 90.75 119.070312 90.75 119 C 90.75 118.929688 90.863281 118.875 91 118.875 C 91.136719 118.875 91.25 118.820312 91.25 118.753906 C 91.25 118.691406 91.445312 118.597656 91.6875 118.554688 C 91.929688 118.507812 92.125 118.421875 92.125 118.359375 C 92.125 118.300781 92.210938 118.25 92.3125 118.25 C 92.414062 118.25 92.5 118.195312 92.5 118.125 C 92.5 118.054688 92.578125 118 92.675781 118 C 92.898438 118 93.625 117.59375 93.625 117.46875 C 93.625 117.417969 93.710938 117.375 93.8125 117.375 C 93.914062 117.375 94 117.324219 94 117.265625 C 94 117.207031 94.15625 117.125 94.34375 117.085938 C 94.53125 117.046875 94.800781 116.914062 94.941406 116.789062 C 95.082031 116.664062 95.402344 116.457031 95.660156 116.324219 C 95.914062 116.191406 96.125 116.039062 96.125 115.980469 C 96.125 115.921875 96.230469 115.875 96.363281 115.875 C 96.492188 115.875 96.628906 115.789062 96.671875 115.6875 C 96.710938 115.585938 96.835938 115.5 96.949219 115.5 C 97.066406 115.5 97.25 115.394531 97.359375 115.269531 C 97.472656 115.140625 97.6875 114.996094 97.84375 114.945312 C 98 114.898438 98.125 114.804688 98.125 114.742188 C 98.125 114.675781 98.195312 114.625 98.285156 114.625 C 98.371094 114.625 98.527344 114.511719 98.625 114.375 C 98.722656 114.238281 98.875 114.125 98.960938 114.125 C 99.042969 114.125 99.253906 113.984375 99.425781 113.8125 C 99.597656 113.640625 99.796875 113.5 99.863281 113.5 C 99.933594 113.5 100.128906 113.359375 100.300781 113.1875 C 100.472656 113.015625 100.652344 112.875 100.699219 112.875 C 100.746094 112.875 100.914062 112.734375 101.074219 112.5625 C 101.234375 112.390625 101.429688 112.25 101.511719 112.25 C 101.589844 112.25 101.84375 112.054688 102.070312 111.8125 C 102.296875 111.570312 102.515625 111.375 102.558594 111.375 C 102.65625 111.375 102.894531 111.175781 103.496094 110.59375 C 103.761719 110.335938 104.019531 110.125 104.0625 110.125 C 104.128906 110.125 105.191406 109.117188 106.386719 107.921875 C 106.464844 107.84375 106.808594 107.496094 107.152344 107.152344 C 107.929688 106.375 107.878906 106.429688 108.96875 105.324219 C 109.46875 104.820312 109.875 104.367188 109.875 104.324219 C 109.875 104.277344 110.15625 103.957031 110.5 103.613281 C 110.84375 103.269531 111.125 102.933594 111.125 102.863281 C 111.125 102.796875 111.320312 102.542969 111.5625 102.304688 C 111.804688 102.0625 112 101.796875 112 101.714844 C 112 101.628906 112.140625 101.453125 112.3125 101.324219 C 112.484375 101.195312 112.625 100.988281 112.625 100.867188 C 112.625 100.742188 112.730469 100.609375 112.863281 100.566406 C 112.992188 100.523438 113.195312 100.296875 113.304688 100.058594 C 113.417969 99.820312 113.554688 99.625 113.609375 99.625 C 113.664062 99.625 113.816406 99.429688 113.945312 99.1875 C 114.074219 98.945312 114.226562 98.75 114.277344 98.75 C 114.332031 98.75 114.375 98.644531 114.375 98.511719 C 114.375 98.382812 114.460938 98.242188 114.5625 98.203125 C 114.667969 98.164062 114.808594 97.988281 114.875 97.816406 C 114.941406 97.640625 115.050781 97.5 115.121094 97.5 C 115.191406 97.5 115.25 97.386719 115.25 97.25 C 115.25 97.113281 115.300781 97 115.367188 97 C 115.429688 97 115.523438 96.875 115.570312 96.71875 C 115.621094 96.5625 115.765625 96.347656 115.894531 96.234375 C 116.019531 96.125 116.125 95.96875 116.125 95.890625 C 116.125 95.8125 116.179688 95.75 116.25 95.75 C 116.320312 95.75 116.375 95.636719 116.375 95.496094 C 116.375 95.355469 116.460938 95.210938 116.5625 95.171875 C 116.664062 95.128906 116.75 94.992188 116.75 94.863281 C 116.75 94.730469 116.800781 94.625 116.863281 94.625 C 116.921875 94.625 117.007812 94.484375 117.050781 94.3125 C 117.09375 94.140625 117.183594 94 117.253906 94 C 117.320312 94 117.375 93.914062 117.375 93.8125 C 117.375 93.710938 117.429688 93.625 117.5 93.625 C 117.570312 93.625 117.625 93.511719 117.625 93.375 C 117.625 93.238281 117.679688 93.125 117.746094 93.125 C 117.808594 93.125 117.902344 92.929688 117.945312 92.6875 C 117.992188 92.445312 118.078125 92.25 118.140625 92.25 C 118.199219 92.25 118.25 92.164062 118.25 92.0625 C 118.25 91.960938 118.304688 91.875 118.371094 91.875 C 118.441406 91.875 118.53125 91.734375 118.574219 91.5625 C 118.617188 91.390625 118.703125 91.25 118.761719 91.25 C 118.824219 91.25 118.875 91.136719 118.875 91 C 118.875 90.863281 118.925781 90.75 118.984375 90.75 C 119.046875 90.75 119.199219 90.414062 119.328125 90 C 119.457031 89.589844 119.605469 89.25 119.65625 89.25 C 119.707031 89.25 119.75 89.164062 119.75 89.0625 C 119.75 88.960938 119.804688 88.875 119.871094 88.875 C 119.933594 88.875 120.027344 88.679688 120.070312 88.4375 C 120.117188 88.195312 120.203125 88 120.265625 88 C 120.324219 88 120.375 87.859375 120.375 87.6875 C 120.375 87.515625 120.417969 87.375 120.46875 87.375 C 120.601562 87.375 121 86.433594 121 86.125 C 121 85.988281 121.054688 85.875 121.125 85.875 C 121.195312 85.875 121.25 85.734375 121.25 85.5625 C 121.25 85.390625 121.304688 85.25 121.367188 85.25 C 121.433594 85.25 121.523438 84.996094 121.570312 84.6875 C 121.617188 84.378906 121.703125 84.125 121.765625 84.125 C 121.824219 84.125 121.875 83.984375 121.875 83.8125 C 121.875 83.640625 121.929688 83.5 122 83.5 C 122.070312 83.5 122.125 83.363281 122.125 83.195312 C 122.125 83.027344 122.179688 82.855469 122.242188 82.816406 C 122.308594 82.777344 122.398438 82.492188 122.445312 82.183594 C 122.492188 81.875 122.578125 81.625 122.640625 81.625 C 122.699219 81.625 122.75 81.457031 122.75 81.25 C 122.75 81.042969 122.800781 80.875 122.859375 80.875 C 122.921875 80.875 123.007812 80.566406 123.058594 80.1875 C 123.105469 79.8125 123.195312 79.472656 123.257812 79.433594 C 123.324219 79.390625 123.375 79.195312 123.375 78.992188 C 123.375 78.789062 123.429688 78.625 123.5 78.625 C 123.570312 78.625 123.625 78.429688 123.625 78.195312 C 123.625 77.957031 123.675781 77.734375 123.734375 77.695312 C 123.796875 77.660156 123.886719 77.207031 123.933594 76.6875 C 123.980469 76.171875 124.074219 75.75 124.136719 75.75 C 124.199219 75.75 124.25 75.523438 124.25 75.25 C 124.25 74.976562 124.300781 74.75 124.359375 74.75 C 124.417969 74.75 124.507812 74.171875 124.558594 73.46875 C 124.609375 72.730469 124.710938 72.148438 124.792969 72.097656 C 125 71.972656 125 53.65625 124.792969 53.527344 C 124.714844 53.476562 124.613281 52.898438 124.5625 52.21875 C 124.511719 51.546875 124.421875 50.964844 124.359375 50.929688 C 124.300781 50.890625 124.25 50.636719 124.25 50.367188 C 124.25 50.097656 124.203125 49.875 124.144531 49.875 C 124.085938 49.875 123.972656 49.4375 123.890625 48.90625 C 123.652344 47.335938 123.601562 47.125 123.484375 47.125 C 123.425781 47.125 123.375 46.929688 123.375 46.6875 C 123.375 46.445312 123.320312 46.25 123.257812 46.25 C 123.191406 46.25 123.097656 45.914062 123.050781 45.5 C 123.007812 45.085938 122.917969 44.75 122.859375 44.75 C 122.800781 44.75 122.75 44.609375 122.75 44.4375 C 122.75 44.265625 122.699219 44.125 122.640625 44.125 C 122.582031 44.125 122.496094 43.847656 122.449219 43.503906 C 122.40625 43.164062 122.3125 42.851562 122.246094 42.808594 C 122.179688 42.769531 122.125 42.597656 122.125 42.429688 C 122.125 42.261719 122.070312 42.125 122 42.125 C 121.929688 42.125 121.875 41.984375 121.875 41.8125 C 121.875 41.640625 121.824219 41.5 121.765625 41.5 C 121.703125 41.5 121.617188 41.246094 121.570312 40.9375 C 121.523438 40.628906 121.433594 40.375 121.367188 40.375 C 121.304688 40.375 121.25 40.234375 121.25 40.0625 C 121.25 39.890625 121.195312 39.75 121.125 39.75 C 121.058594 39.75 120.96875 39.523438 120.921875 39.25 C 120.878906 38.976562 120.792969 38.75 120.734375 38.75 C 120.675781 38.75 120.625 38.636719 120.625 38.5 C 120.625 38.363281 120.570312 38.25 120.5 38.25 C 120.429688 38.25 120.375 38.109375 120.375 37.9375 C 120.375 37.765625 120.320312 37.625 120.253906 37.625 C 120.191406 37.625 120.097656 37.429688 120.054688 37.1875 C 120.007812 36.945312 119.921875 36.75 119.859375 36.75 C 119.800781 36.75 119.75 36.664062 119.75 36.5625 C 119.75 36.460938 119.699219 36.375 119.640625 36.375 C 119.578125 36.375 119.492188 36.179688 119.445312 35.9375 C 119.402344 35.695312 119.308594 35.5 119.246094 35.5 C 119.179688 35.5 119.125 35.382812 119.125 35.242188 C 119.125 35.101562 119.070312 35.019531 119 35.0625 C 118.929688 35.105469 118.875 35.023438 118.875 34.882812 C 118.875 34.742188 118.820312 34.625 118.753906 34.625 C 118.691406 34.625 118.597656 34.429688 118.554688 34.1875 C 118.507812 33.945312 118.421875 33.75 118.359375 33.75 C 118.300781 33.75 118.25 33.664062 118.25 33.5625 C 118.25 33.460938 118.195312 33.375 118.125 33.375 C 118.054688 33.375 118 33.289062 118 33.1875 C 118 32.972656 117.390625 31.769531 117.15625 31.523438 C 117.070312 31.429688 117 31.277344 117 31.179688 C 117 31.082031 116.957031 31 116.90625 31 C 116.808594 31 116.777344 30.945312 116.320312 30.042969 C 116.183594 29.777344 115.980469 29.476562 115.867188 29.375 C 115.753906 29.273438 115.621094 29.0625 115.570312 28.90625 C 115.523438 28.75 115.429688 28.625 115.367188 28.625 C 115.300781 28.625 115.25 28.539062 115.25 28.4375 C 115.25 28.335938 115.199219 28.25 115.136719 28.25 C 115.074219 28.25 114.964844 28.082031 114.894531 27.875 C 114.820312 27.667969 114.675781 27.464844 114.570312 27.421875 C 114.460938 27.382812 114.375 27.242188 114.375 27.113281 C 114.375 26.980469 114.320312 26.875 114.257812 26.875 C 114.191406 26.875 114.042969 26.679688 113.929688 26.4375 C 113.816406 26.199219 113.679688 26.027344 113.625 26.0625 C 113.574219 26.09375 113.460938 25.957031 113.378906 25.757812 C 113.296875 25.558594 113.089844 25.289062 112.925781 25.167969 C 112.761719 25.042969 112.625 24.871094 112.625 24.789062 C 112.625 24.703125 112.484375 24.496094 112.3125 24.324219 C 112.140625 24.152344 112 23.960938 112 23.902344 C 112 23.839844 111.773438 23.558594 111.5 23.28125 C 111.226562 23 111 22.71875 111 22.65625 C 111 22.59375 110.875 22.429688 110.71875 22.292969 C 110.5625 22.152344 110.355469 21.917969 110.253906 21.769531 C 110.152344 21.621094 109.96875 21.46875 109.847656 21.429688 C 109.726562 21.390625 109.625 21.273438 109.625 21.171875 C 109.625 21 104.476562 15.75 104.308594 15.75 C 104.21875 15.75 103.773438 15.363281 103.414062 14.976562 C 103.191406 14.738281 102.894531 14.5 102.816406 14.5 C 102.78125 14.5 102.542969 14.304688 102.285156 14.0625 C 102.03125 13.820312 101.769531 13.625 101.707031 13.625 C 101.644531 13.625 101.40625 13.429688 101.179688 13.1875 C 100.953125 12.945312 100.734375 12.75 100.691406 12.75 C 100.617188 12.75 100.445312 12.621094 100.066406 12.28125 C 99.972656 12.195312 99.832031 12.125 99.757812 12.125 C 99.683594 12.125 99.625 12.074219 99.625 12.007812 C 99.625 11.945312 99.519531 11.859375 99.390625 11.816406 C 99.261719 11.777344 98.984375 11.582031 98.78125 11.382812 C 98.574219 11.1875 98.285156 10.988281 98.140625 10.941406 C 97.992188 10.894531 97.875 10.804688 97.875 10.742188 C 97.875 10.675781 97.789062 10.625 97.6875 10.625 C 97.585938 10.625 97.5 10.574219 97.5 10.507812 C 97.5 10.394531 97.015625 10.179688 96.851562 10.222656 C 96.804688 10.234375 96.730469 10.132812 96.6875 9.996094 C 96.644531 9.859375 96.5 9.75 96.367188 9.75 C 96.234375 9.75 96.125 9.699219 96.125 9.636719 C 96.125 9.578125 95.984375 9.492188 95.8125 9.449219 C 95.640625 9.40625 95.5 9.316406 95.5 9.246094 C 95.5 9.179688 95.414062 9.125 95.3125 9.125 C 95.210938 9.125 95.125 9.070312 95.125 9 C 95.125 8.929688 95.011719 8.875 94.875 8.875 C 94.738281 8.875 94.625 8.820312 94.625 8.753906 C 94.625 8.683594 94.484375 8.59375 94.3125 8.550781 C 94.140625 8.507812 94 8.421875 94 8.363281 C 94 8.300781 93.914062 8.25 93.8125 8.25 C 93.710938 8.25 93.625 8.195312 93.625 8.125 C 93.625 8.054688 93.519531 8 93.390625 8 C 93.261719 8 93.085938 7.914062 93 7.8125 C 92.914062 7.710938 92.765625 7.625 92.671875 7.625 C 92.578125 7.625 92.5 7.582031 92.5 7.53125 C 92.5 7.429688 91.585938 7 91.375 7 C 91.304688 7 91.25 6.945312 91.25 6.875 C 91.25 6.804688 91.136719 6.75 91 6.75 C 90.863281 6.75 90.75 6.695312 90.75 6.625 C 90.75 6.554688 90.6875 6.5 90.613281 6.5 C 90.460938 6.5 89.601562 6.117188 89.5 6.007812 C 89.367188 5.859375 88.476562 5.5 88.246094 5.5 C 88.109375 5.5 88 5.445312 88 5.375 C 88 5.304688 87.914062 5.25 87.8125 5.25 C 87.710938 5.25 87.625 5.195312 87.625 5.132812 C 87.625 5.066406 87.371094 4.976562 87.0625 4.929688 C 86.753906 4.882812 86.5 4.796875 86.5 4.734375 C 86.5 4.675781 86.414062 4.625 86.3125 4.625 C 86.210938 4.625 86.125 4.570312 86.125 4.5 C 86.125 4.429688 86.019531 4.375 85.890625 4.375 C 85.757812 4.375 85.492188 4.289062 85.296875 4.1875 C 85.097656 4.085938 84.8125 4 84.65625 4 C 84.5 4 84.375 3.945312 84.375 3.875 C 84.375 3.804688 84.234375 3.75 84.0625 3.75 C 83.890625 3.75 83.75 3.699219 83.75 3.636719 C 83.75 3.574219 83.46875 3.484375 83.125 3.4375 C 82.78125 3.390625 82.5 3.300781 82.5 3.238281 C 82.5 3.175781 82.332031 3.125 82.125 3.125 C 81.917969 3.125 81.75 3.070312 81.75 3 C 81.75 2.929688 81.621094 2.875 81.460938 2.875 C 81.304688 2.875 81.117188 2.816406 81.046875 2.746094 C 80.976562 2.675781 80.628906 2.582031 80.273438 2.542969 C 79.914062 2.5 79.625 2.417969 79.625 2.359375 C 79.625 2.296875 79.429688 2.25 79.1875 2.25 C 78.945312 2.25 78.75 2.199219 78.75 2.140625 C 78.75 2.078125 78.382812 1.988281 77.9375 1.941406 C 77.492188 1.894531 77.125 1.804688 77.125 1.738281 C 77.125 1.675781 76.929688 1.625 76.6875 1.625 C 76.445312 1.625 76.25 1.570312 76.25 1.5 C 76.25 1.429688 76 1.375 75.699219 1.375 C 75.394531 1.375 75.128906 1.320312 75.105469 1.257812 C 75.082031 1.191406 74.542969 1.097656 73.90625 1.050781 C 73.269531 1.003906 72.75 0.914062 72.75 0.855469 C 72.75 0.796875 72.417969 0.75 72.011719 0.75 C 71.605469 0.75 71.253906 0.695312 71.230469 0.628906 C 71.207031 0.5625 70.253906 0.46875 69.09375 0.421875 C 67.941406 0.375 67 0.289062 67 0.230469 C 67 0.171875 65.054688 0.125 62.679688 0.125 C 60.304688 0.125 58.390625 0.171875 58.425781 0.230469 M 94.089844 15.851562 C 94.519531 15.929688 95.109375 16.105469 95.402344 16.238281 C 95.695312 16.371094 96.078125 16.519531 96.25 16.566406 C 96.421875 16.613281 96.769531 16.8125 97.023438 17.011719 C 97.277344 17.210938 97.535156 17.375 97.597656 17.375 C 97.660156 17.375 97.875 17.515625 98.074219 17.6875 C 98.273438 17.859375 98.484375 18 98.539062 18 C 98.800781 18 100.542969 19.953125 101.265625 21.0625 C 102.394531 22.792969 103.375 24.957031 103.375 25.726562 C 103.375 25.917969 103.421875 26.128906 103.484375 26.195312 C 103.855469 26.605469 103.875 28.433594 103.875 62.820312 C 103.875 97.328125 103.859375 98.878906 103.480469 99.304688 C 103.421875 99.371094 103.375 99.589844 103.375 99.789062 C 103.375 99.988281 103.296875 100.328125 103.203125 100.542969 C 103.105469 100.761719 102.960938 101.132812 102.878906 101.375 C 102.644531 102.058594 101.726562 103.855469 101.476562 104.121094 C 101.351562 104.253906 101.25 104.390625 101.25 104.425781 C 101.25 104.503906 100.777344 105.195312 100.4375 105.621094 C 100.050781 106.101562 98.585938 107.5 98.46875 107.5 C 98.410156 107.5 98.242188 107.613281 98.097656 107.75 C 97.949219 107.886719 97.601562 108.117188 97.320312 108.261719 C 97.042969 108.410156 96.785156 108.5625 96.75 108.609375 C 96.621094 108.773438 96.121094 109 95.882812 109 C 95.75 109 95.609375 109.050781 95.570312 109.113281 C 95.488281 109.246094 94.433594 109.566406 93.625 109.707031 C 92.765625 109.855469 33.335938 109.8125 32.4375 109.664062 C 31.679688 109.539062 31.488281 109.480469 30.8125 109.1875 C 29.859375 108.773438 29.234375 108.445312 29.109375 108.292969 C 29.03125 108.199219 28.902344 108.125 28.816406 108.125 C 28.175781 108.125 24.625 104.414062 24.625 103.742188 C 24.625 103.679688 24.582031 103.625 24.527344 103.625 C 24.285156 103.625 22.875 100.164062 22.875 99.566406 C 22.875 99.417969 22.804688 99.230469 22.71875 99.144531 C 22.476562 98.902344 22.492188 27.046875 22.734375 26.25 C 23.101562 25.035156 23.515625 23.796875 23.644531 23.5 C 24.019531 22.65625 24.460938 21.863281 24.957031 21.148438 C 25.253906 20.71875 25.5 20.34375 25.5 20.316406 C 25.5 20.128906 27.59375 18 27.78125 18 C 27.839844 18 28.039062 17.859375 28.222656 17.6875 C 28.410156 17.515625 28.605469 17.375 28.660156 17.375 C 28.714844 17.375 29.050781 17.179688 29.410156 16.9375 C 29.765625 16.695312 30.164062 16.5 30.292969 16.5 C 30.417969 16.5 30.675781 16.390625 30.859375 16.261719 C 31.054688 16.125 31.589844 15.964844 32.109375 15.894531 C 32.613281 15.824219 33.058594 15.734375 33.097656 15.695312 C 33.246094 15.546875 93.277344 15.699219 94.089844 15.851562 M 32.625 16.625 C 31.835938 16.765625 31.195312 16.96875 30.714844 17.230469 C 30.320312 17.449219 29.9375 17.625 29.863281 17.625 C 29.792969 17.625 29.550781 17.765625 29.324219 17.9375 C 29.097656 18.109375 28.871094 18.25 28.820312 18.25 C 28.535156 18.25 26.535156 20.101562 26.21875 20.65625 C 26.074219 20.914062 25.90625 21.125 25.851562 21.125 C 25.796875 21.125 25.75 21.183594 25.75 21.257812 C 25.75 21.332031 25.613281 21.570312 25.449219 21.789062 C 25.074219 22.289062 24.347656 23.742188 24.0625 24.5625 C 23.945312 24.90625 23.804688 25.300781 23.75 25.4375 C 23.160156 26.90625 23.183594 25.1875 23.214844 62.75 C 23.246094 99.5625 23.234375 98.695312 23.753906 99.9375 C 23.808594 100.074219 23.976562 100.519531 24.121094 100.925781 C 24.484375 101.9375 25.203125 103.390625 25.5625 103.832031 C 25.632812 103.914062 25.828125 104.191406 26 104.445312 C 26.957031 105.863281 28.601562 107.195312 30.5 108.09375 C 31.554688 108.59375 32.105469 108.742188 33.835938 108.996094 C 35.097656 109.179688 91.339844 109.175781 92.484375 108.992188 C 94.324219 108.699219 94.734375 108.582031 95.8125 108.050781 C 97.257812 107.339844 97.714844 107.074219 98.054688 106.757812 C 98.207031 106.617188 98.359375 106.5 98.402344 106.5 C 98.546875 106.5 99.898438 105.070312 100.074219 104.726562 C 100.175781 104.535156 100.3125 104.375 100.378906 104.375 C 100.445312 104.375 100.5 104.316406 100.5 104.25 C 100.5 104.179688 100.683594 103.855469 100.90625 103.53125 C 101.800781 102.234375 102.382812 100.707031 102.988281 98.09375 C 103.191406 97.214844 103.183594 28.109375 102.980469 27.28125 C 102.898438 26.957031 102.726562 26.292969 102.59375 25.8125 C 102.464844 25.332031 102.324219 24.78125 102.289062 24.59375 C 102.25 24.40625 102.171875 24.25 102.109375 24.25 C 102.050781 24.25 102 24.167969 102 24.066406 C 102 23.890625 101.386719 22.511719 101.25 22.375 C 101.214844 22.339844 100.859375 21.824219 100.457031 21.226562 C 99.828125 20.296875 99.097656 19.519531 97.921875 18.535156 C 97.609375 18.273438 97.089844 17.972656 96.0625 17.464844 C 93.6875 16.292969 96.421875 16.382812 63 16.398438 C 36.042969 16.410156 33.722656 16.425781 32.625 16.625 M 70.0625 38.355469 C 71.398438 38.589844 72.164062 38.757812 72.4375 38.875 C 72.574219 38.933594 72.996094 39.078125 73.375 39.195312 C 73.753906 39.3125 74.210938 39.515625 74.394531 39.640625 C 74.578125 39.769531 74.804688 39.875 74.902344 39.875 C 75 39.875 75.214844 40.015625 75.375 40.1875 C 75.535156 40.359375 75.738281 40.5 75.824219 40.5 C 76.105469 40.5 78.277344 42.5625 78.515625 43.0625 C 78.582031 43.199219 78.773438 43.539062 78.941406 43.8125 C 79.109375 44.085938 79.28125 44.398438 79.320312 44.5 C 79.363281 44.601562 79.445312 44.800781 79.5 44.9375 C 79.902344 45.921875 80.128906 46.710938 80.273438 47.625 C 80.460938 48.820312 80.539062 52.757812 80.378906 52.917969 C 80.308594 52.992188 80.25 53.28125 80.25 53.566406 C 80.25 53.847656 80.117188 54.476562 79.953125 54.957031 C 79.644531 55.859375 79.597656 55.96875 79.132812 56.8125 C 78.984375 57.085938 78.828125 57.410156 78.789062 57.53125 C 78.75 57.652344 78.671875 57.75 78.609375 57.75 C 78.550781 57.75 78.5 57.828125 78.5 57.921875 C 78.5 58.210938 76.492188 60.167969 75.46875 60.875 C 74.359375 61.640625 74.328125 61.707031 74.96875 61.824219 C 76 62.007812 77.941406 63.144531 78.847656 64.089844 C 79.609375 64.894531 80.25 65.691406 80.25 65.847656 C 80.25 65.917969 80.296875 65.996094 80.351562 66.019531 C 80.652344 66.140625 81.519531 68.234375 81.714844 69.3125 C 81.75 69.519531 81.824219 69.742188 81.878906 69.8125 C 82.09375 70.089844 82.375 72.726562 82.371094 74.472656 C 82.371094 76.789062 82.128906 78.476562 81.609375 79.851562 C 81.550781 80.007812 81.5 80.234375 81.5 80.351562 C 81.496094 80.558594 80.628906 82.355469 80.378906 82.660156 C 79.308594 83.984375 78.929688 84.410156 78.34375 84.9375 C 77.496094 85.707031 76.757812 86.25 76.5625 86.25 C 76.480469 86.25 76.316406 86.359375 76.199219 86.488281 C 76.078125 86.621094 75.835938 86.765625 75.65625 86.808594 C 75.476562 86.855469 75.175781 87 74.988281 87.132812 C 74.800781 87.269531 74.457031 87.414062 74.230469 87.457031 C 74 87.5 73.53125 87.664062 73.1875 87.8125 C 72.234375 88.234375 72.128906 88.261719 71.1875 88.382812 C 70.707031 88.441406 69.976562 88.558594 69.5625 88.640625 C 69.035156 88.742188 65.449219 88.800781 57.53125 88.832031 L 46.25 88.882812 L 46.25 38.113281 L 57.71875 38.15625 C 66.046875 38.191406 69.425781 38.242188 70.0625 38.355469 M 54.105469 45.710938 C 54.082031 45.765625 54.078125 48.839844 54.097656 52.539062 L 54.132812 59.269531 L 61.160156 59.226562 L 68.1875 59.1875 L 68.855469 58.84375 C 69.21875 58.65625 69.570312 58.5 69.628906 58.5 C 69.738281 58.5 70.105469 58.195312 70.792969 57.53125 C 70.988281 57.339844 71.296875 56.960938 71.480469 56.6875 C 71.660156 56.414062 71.839844 56.160156 71.875 56.125 C 73.066406 54.953125 72.714844 48.773438 71.382812 47.570312 C 71.242188 47.441406 71.125 47.261719 71.125 47.167969 C 71.125 47.074219 71.054688 47 70.96875 47 C 70.882812 47 70.660156 46.859375 70.472656 46.6875 C 70.289062 46.515625 70.078125 46.375 70.007812 46.375 C 69.9375 46.375 69.558594 46.21875 69.160156 46.03125 L 68.4375 45.6875 L 61.292969 45.648438 C 57.367188 45.625 54.132812 45.652344 54.105469 45.710938 M 54.046875 66.265625 C 54.089844 66.480469 54.125 69.972656 54.125 74.023438 L 54.125 81.386719 L 61.40625 81.34375 C 66.984375 81.308594 68.863281 81.261719 69.4375 81.128906 C 71.3125 80.703125 73.046875 79.375 73.691406 77.875 C 73.796875 77.632812 73.9375 77.339844 74.003906 77.21875 C 74.070312 77.101562 74.125 76.902344 74.125 76.777344 C 74.125 76.652344 74.183594 76.492188 74.253906 76.421875 C 74.324219 76.351562 74.441406 75.636719 74.515625 74.832031 C 74.882812 70.785156 73.714844 67.988281 71.101562 66.65625 C 69.769531 65.980469 69.464844 65.957031 61.390625 65.914062 L 53.96875 65.871094 L 54.046875 66.265625 "/>
<path style=" stroke:none;fill-rule:evenodd;fill:rgb(60%,52.54902%,70.196078%);fill-opacity:1;" d="M 48.480469 15.71875 C 56.613281 15.738281 69.890625 15.738281 77.980469 15.71875 C 86.070312 15.699219 79.414062 15.6875 63.1875 15.6875 C 46.960938 15.6875 40.34375 15.699219 48.480469 15.71875 M 33.78125 16.335938 C 33.902344 16.367188 34.097656 16.367188 34.21875 16.335938 C 34.339844 16.304688 34.242188 16.277344 34 16.277344 C 33.757812 16.277344 33.660156 16.304688 33.78125 16.335938 M 92.15625 16.335938 C 92.277344 16.367188 92.472656 16.367188 92.59375 16.335938 C 92.714844 16.304688 92.617188 16.277344 92.375 16.277344 C 92.132812 16.277344 92.035156 16.304688 92.15625 16.335938 M 22.53125 28.4375 C 22.53125 28.710938 22.558594 28.808594 22.589844 28.65625 C 22.617188 28.5 22.617188 28.273438 22.585938 28.15625 C 22.554688 28.035156 22.53125 28.164062 22.53125 28.4375 M 103.152344 28.375 C 103.152344 28.617188 103.179688 28.714844 103.210938 28.59375 C 103.242188 28.472656 103.242188 28.277344 103.210938 28.15625 C 103.179688 28.035156 103.152344 28.132812 103.152344 28.375 M 23.0625 62.6875 C 23.0625 81.523438 23.074219 89.210938 23.09375 79.769531 C 23.113281 70.328125 23.113281 54.917969 23.09375 45.519531 C 23.074219 36.125 23.0625 43.851562 23.0625 62.6875 M 77.25 41.8125 C 77.484375 42.054688 77.703125 42.25 77.738281 42.25 C 77.769531 42.25 77.609375 42.054688 77.375 41.8125 C 77.140625 41.570312 76.921875 41.375 76.886719 41.375 C 76.855469 41.375 77.015625 41.570312 77.25 41.8125 M 53.902344 52.460938 C 53.886719 56.1875 53.917969 59.261719 53.96875 59.292969 C 54.054688 59.347656 54.050781 54.40625 53.964844 48.125 C 53.945312 46.785156 53.917969 48.734375 53.902344 52.460938 M 80.402344 49.625 C 80.402344 49.867188 80.429688 49.964844 80.460938 49.84375 C 80.492188 49.722656 80.492188 49.527344 80.460938 49.40625 C 80.429688 49.285156 80.402344 49.382812 80.402344 49.625 M 80.402344 51.75 C 80.402344 51.992188 80.429688 52.089844 80.460938 51.96875 C 80.492188 51.847656 80.492188 51.652344 80.460938 51.53125 C 80.429688 51.410156 80.402344 51.507812 80.402344 51.75 M 72.664062 52.3125 C 72.667969 52.792969 72.6875 52.976562 72.714844 52.714844 C 72.742188 52.457031 72.742188 52.0625 72.714844 51.839844 C 72.6875 51.617188 72.664062 51.832031 72.664062 52.3125 M 53.933594 65.90625 C 53.898438 65.992188 53.886719 69.492188 53.90625 73.6875 L 53.9375 81.3125 L 54 73.53125 C 54.035156 69.25 54.046875 65.75 54.027344 65.75 C 54.007812 65.75 53.964844 65.820312 53.933594 65.90625 M 74.667969 73.4375 C 74.667969 73.988281 74.691406 74.195312 74.714844 73.902344 C 74.742188 73.609375 74.742188 73.160156 74.714844 72.902344 C 74.6875 72.648438 74.667969 72.886719 74.667969 73.4375 M 57.601562 81.46875 C 59.550781 81.488281 62.699219 81.488281 64.601562 81.46875 C 66.503906 81.449219 64.914062 81.433594 61.0625 81.433594 C 57.210938 81.433594 55.65625 81.449219 57.601562 81.46875 M 103.15625 96.9375 C 103.15625 97.210938 103.183594 97.308594 103.214844 97.15625 C 103.242188 97 103.242188 96.773438 103.210938 96.65625 C 103.179688 96.535156 103.15625 96.664062 103.15625 96.9375 M 22.53125 97.0625 C 22.53125 97.335938 22.558594 97.433594 22.589844 97.28125 C 22.617188 97.125 22.617188 96.898438 22.585938 96.78125 C 22.554688 96.660156 22.53125 96.789062 22.53125 97.0625 "/>
<path style=" stroke:none;fill-rule:evenodd;fill:rgb(65.882353%,59.607843%,77.254902%);fill-opacity:1;" d="M 33.125 15.828125 C 32.097656 15.988281 31.28125 16.175781 31.0625 16.308594 C 30.925781 16.394531 30.585938 16.535156 30.3125 16.625 C 30.039062 16.714844 29.53125 16.976562 29.1875 17.203125 C 28.84375 17.433594 28.371094 17.75 28.132812 17.902344 C 25.84375 19.421875 23.894531 22.554688 22.867188 26.375 C 22.53125 27.625 22.5 30.621094 22.5 62.75 C 22.5 94.878906 22.53125 97.875 22.867188 99.125 C 23.613281 101.898438 24.230469 103.179688 25.933594 105.488281 C 27.28125 107.316406 30.207031 109.074219 32.625 109.511719 C 34.671875 109.878906 91.738281 109.878906 93.6875 109.507812 C 94.976562 109.265625 96.621094 108.65625 97.0625 108.261719 C 97.199219 108.136719 97.40625 108.003906 97.519531 107.964844 C 97.9375 107.816406 99.269531 106.710938 99.929688 105.960938 C 101.898438 103.71875 103.171875 100.980469 103.613281 98.039062 C 103.804688 96.78125 103.804688 28.730469 103.617188 27.460938 C 103.476562 26.523438 103.175781 25.242188 102.996094 24.8125 C 102.9375 24.675781 102.851562 24.421875 102.804688 24.25 C 102.386719 22.757812 100.40625 19.765625 99.101562 18.652344 C 98.554688 18.183594 97.425781 17.375 97.320312 17.375 C 97.277344 17.375 97.078125 17.257812 96.882812 17.109375 C 96.460938 16.796875 95.335938 16.3125 94.375 16.027344 C 93.734375 15.839844 34.324219 15.644531 33.125 15.828125 M 93.8125 16.480469 C 94.226562 16.5625 94.90625 16.796875 95.328125 17.003906 C 95.75 17.207031 96.148438 17.375 96.210938 17.375 C 96.324219 17.375 97.023438 17.796875 97.980469 18.441406 C 98.605469 18.863281 100.125 20.363281 100.125 20.558594 C 100.125 20.652344 100.171875 20.746094 100.226562 20.769531 C 100.859375 21.03125 102.414062 24.292969 102.957031 26.5 C 103.3125 27.945312 103.316406 97.402344 102.960938 98.875 C 102.371094 101.332031 101.886719 102.355469 100.042969 105.046875 C 99.757812 105.46875 98.761719 106.445312 98.308594 106.75 C 97.0625 107.589844 96.558594 107.886719 95.6875 108.28125 C 93.707031 109.183594 96 109.125 63.222656 109.125 C 31.074219 109.125 32.007812 109.144531 30.875 108.445312 C 30.636719 108.292969 30.242188 108.09375 30 107.996094 C 28.878906 107.546875 26.125 105.300781 26.125 104.839844 C 26.125 104.777344 25.933594 104.496094 25.699219 104.207031 C 25.121094 103.503906 24.359375 102.042969 23.882812 100.722656 C 23.476562 99.609375 23.335938 98.992188 23.128906 97.4375 C 22.976562 96.292969 22.96875 29.128906 23.125 27.9375 C 23.445312 25.445312 24.242188 23.296875 25.53125 21.46875 C 25.859375 21.003906 26.125 20.578125 26.125 20.519531 C 26.125 20.148438 29.59375 17.375 30.058594 17.375 C 30.113281 17.375 30.5 17.207031 30.921875 17 C 31.378906 16.777344 32.0625 16.574219 32.617188 16.5 C 33.128906 16.425781 33.574219 16.34375 33.609375 16.308594 C 33.757812 16.160156 93.070312 16.328125 93.8125 16.480469 M 46.308594 38.40625 C 46.273438 38.492188 46.261719 49.867188 46.28125 63.6875 L 46.3125 88.8125 L 46.375 38.375 L 68.1875 38.3125 L 57.277344 38.28125 C 48.640625 38.257812 46.355469 38.28125 46.308594 38.40625 M 69.4375 38.5 C 69.964844 38.632812 70.421875 38.632812 70 38.5 C 69.828125 38.445312 69.546875 38.402344 69.375 38.402344 C 69.09375 38.40625 69.101562 38.414062 69.4375 38.5 M 71.125 38.75 C 71.296875 38.804688 71.578125 38.847656 71.75 38.847656 C 72.03125 38.84375 72.023438 38.835938 71.6875 38.75 C 71.160156 38.617188 70.703125 38.617188 71.125 38.75 M 75.234375 40.292969 C 75.394531 40.488281 76.25 41.035156 76.25 40.941406 C 76.25 40.914062 75.984375 40.714844 75.660156 40.496094 C 75.335938 40.277344 75.144531 40.183594 75.234375 40.292969 M 67.53125 45.585938 C 67.652344 45.617188 67.847656 45.617188 67.96875 45.585938 C 68.089844 45.554688 67.992188 45.527344 67.75 45.527344 C 67.507812 45.527344 67.410156 45.554688 67.53125 45.585938 M 80.152344 48.125 C 80.152344 48.367188 80.179688 48.464844 80.210938 48.34375 C 80.242188 48.222656 80.242188 48.027344 80.210938 47.90625 C 80.179688 47.785156 80.152344 47.882812 80.152344 48.125 M 80.414062 50.6875 C 80.414062 51.101562 80.4375 51.253906 80.464844 51.027344 C 80.492188 50.804688 80.492188 50.46875 80.464844 50.277344 C 80.4375 50.089844 80.414062 50.273438 80.414062 50.6875 M 72.664062 50.875 C 72.664062 51.253906 72.6875 51.40625 72.714844 51.21875 C 72.742188 51.03125 72.742188 50.71875 72.714844 50.53125 C 72.6875 50.34375 72.664062 50.496094 72.664062 50.875 M 72.644531 53.625 C 72.632812 53.933594 72.59375 54.328125 72.558594 54.5 L 72.492188 54.8125 L 72.628906 54.503906 C 72.703125 54.335938 72.742188 53.941406 72.714844 53.628906 L 72.671875 53.0625 L 72.644531 53.625 M 71.828125 56.40625 L 71.605469 56.8125 L 71.863281 56.5 C 72.089844 56.222656 72.191406 56 72.089844 56 C 72.070312 56 71.953125 56.183594 71.828125 56.40625 M 70.96875 57.496094 C 70.644531 57.835938 70.453125 58.085938 70.542969 58.050781 C 70.691406 57.996094 71.691406 56.875 71.59375 56.875 C 71.570312 56.875 71.289062 57.152344 70.96875 57.496094 M 69.761719 58.449219 C 69.527344 58.613281 69.398438 58.75 69.476562 58.75 C 69.550781 58.75 69.769531 58.609375 69.960938 58.441406 C 70.402344 58.054688 70.316406 58.054688 69.761719 58.449219 M 77.054688 59.40625 L 76.5625 59.9375 L 77.09375 59.445312 C 77.585938 58.984375 77.683594 58.875 77.585938 58.875 C 77.566406 58.875 77.328125 59.113281 77.054688 59.40625 M 75.9375 60.328125 C 75.710938 60.519531 75.667969 60.59375 75.824219 60.519531 C 76.050781 60.402344 76.480469 59.992188 76.359375 60.003906 C 76.332031 60.007812 76.144531 60.152344 75.9375 60.328125 M 77.6875 63.335938 C 77.757812 63.402344 78.121094 63.695312 78.5 63.988281 L 79.1875 64.523438 L 78.625 64.003906 C 78.316406 63.71875 77.949219 63.425781 77.8125 63.351562 C 77.675781 63.28125 77.617188 63.273438 77.6875 63.335938 M 79.496094 65.09375 C 79.726562 65.386719 79.9375 65.625 79.96875 65.625 C 80.054688 65.625 79.519531 64.921875 79.292969 64.738281 C 79.171875 64.640625 79.261719 64.800781 79.496094 65.09375 M 57.539062 65.71875 C 59.453125 65.738281 62.546875 65.738281 64.414062 65.71875 C 66.285156 65.699219 64.71875 65.683594 60.9375 65.683594 C 57.15625 65.683594 55.628906 65.699219 57.539062 65.71875 M 80.261719 66.21875 C 80.683594 66.921875 80.875 67.191406 80.875 67.09375 C 80.875 66.96875 80.117188 65.75 80.042969 65.75 C 80.007812 65.75 80.105469 65.960938 80.261719 66.21875 M 72.945312 67.9375 C 73.523438 68.699219 73.699219 68.890625 73.519531 68.5625 C 73.445312 68.425781 73.179688 68.085938 72.929688 67.8125 L 72.472656 67.3125 L 72.945312 67.9375 M 81.898438 70.5625 C 81.894531 70.699219 81.9375 71.039062 81.992188 71.3125 C 82.078125 71.734375 82.097656 71.753906 82.097656 71.4375 C 82.09375 71 81.910156 70.179688 81.898438 70.5625 M 74.375 70.699219 C 74.378906 70.828125 74.4375 71.023438 74.503906 71.125 C 74.597656 71.261719 74.609375 71.210938 74.546875 70.9375 C 74.445312 70.476562 74.375 70.378906 74.375 70.699219 M 74.6875 73.578125 C 74.683594 74.75 74.714844 75.207031 74.769531 74.8125 C 74.878906 73.992188 74.882812 72.808594 74.773438 72.203125 C 74.722656 71.921875 74.6875 72.496094 74.6875 73.578125 M 82.21875 74.0625 C 82.277344 76.320312 82.347656 76.628906 82.34375 74.625 C 82.34375 73.765625 82.308594 72.894531 82.261719 72.6875 C 82.214844 72.480469 82.195312 73.101562 82.21875 74.0625 M 81.941406 77.691406 C 81.894531 78.011719 81.882812 78.296875 81.914062 78.328125 C 81.945312 78.359375 82.007812 78.125 82.058594 77.808594 C 82.105469 77.488281 82.117188 77.203125 82.085938 77.171875 C 82.054688 77.140625 81.992188 77.375 81.941406 77.691406 M 81.390625 80.019531 C 81.382812 80.136719 81.34375 80.332031 81.304688 80.457031 C 81.234375 80.675781 81.238281 80.675781 81.375 80.464844 C 81.453125 80.34375 81.492188 80.144531 81.460938 80.027344 C 81.410156 79.832031 81.402344 79.832031 81.390625 80.019531 M 71.636719 80.324219 C 71.402344 80.488281 71.273438 80.625 71.351562 80.625 C 71.425781 80.625 71.644531 80.484375 71.835938 80.316406 C 72.277344 79.929688 72.191406 79.929688 71.636719 80.324219 M 68.375 81.375 C 67.949219 81.464844 67.949219 81.46875 68.3125 81.472656 C 68.519531 81.472656 68.828125 81.429688 69 81.375 C 69.410156 81.242188 69 81.242188 68.375 81.375 M 78.820312 84.222656 C 77.992188 85.121094 77.90625 85.242188 78.488281 84.6875 C 79.175781 84.027344 80.097656 82.988281 79.980469 83.003906 C 79.957031 83.007812 79.433594 83.558594 78.820312 84.222656 M 70.40625 88.335938 C 70.527344 88.367188 70.722656 88.367188 70.84375 88.335938 C 70.964844 88.304688 70.867188 88.277344 70.625 88.277344 C 70.382812 88.277344 70.285156 88.304688 70.40625 88.335938 M 68.78125 88.585938 C 68.902344 88.617188 69.097656 88.617188 69.21875 88.585938 C 69.339844 88.554688 69.242188 88.527344 69 88.527344 C 68.757812 88.527344 68.660156 88.554688 68.78125 88.585938 M 67.71875 88.714844 C 67.875 88.742188 68.101562 88.742188 68.21875 88.710938 C 68.339844 88.679688 68.210938 88.65625 67.9375 88.65625 C 67.664062 88.65625 67.566406 88.683594 67.71875 88.714844 "/>
<path style=" stroke:none;fill-rule:evenodd;fill:rgb(51.764706%,45.490196%,61.960784%);fill-opacity:1;" d="M 32.9375 15.757812 C 32.761719 15.835938 32.839844 15.847656 33.1875 15.792969 C 33.460938 15.75 33.710938 15.695312 33.738281 15.671875 C 33.847656 15.578125 33.175781 15.648438 32.9375 15.757812 M 92.875 15.75 C 93.300781 15.886719 93.632812 15.886719 93.3125 15.75 C 93.175781 15.691406 92.949219 15.644531 92.8125 15.644531 C 92.613281 15.648438 92.625 15.667969 92.875 15.75 M 48.792969 16.34375 C 56.753906 16.363281 69.75 16.363281 77.667969 16.34375 C 85.585938 16.324219 79.070312 16.3125 63.1875 16.3125 C 47.304688 16.3125 40.828125 16.324219 48.792969 16.34375 M 29.804688 16.695312 C 29.566406 16.886719 29.566406 16.886719 29.8125 16.773438 C 29.949219 16.710938 30.148438 16.628906 30.25 16.589844 C 30.410156 16.527344 30.410156 16.519531 30.242188 16.511719 C 30.136719 16.503906 29.9375 16.585938 29.804688 16.695312 M 93.136719 16.546875 C 93.164062 16.570312 93.46875 16.625 93.8125 16.664062 C 94.234375 16.714844 94.335938 16.703125 94.125 16.632812 C 93.8125 16.523438 93.035156 16.457031 93.136719 16.546875 M 96.425781 16.746094 C 96.695312 16.882812 97.019531 17.089844 97.144531 17.207031 C 97.273438 17.320312 97.375 17.378906 97.375 17.339844 C 97.375 17.203125 96.570312 16.65625 96.25 16.574219 C 96.0625 16.523438 96.136719 16.59375 96.425781 16.746094 M 96.8125 17.816406 C 96.949219 17.925781 97.175781 18.074219 97.3125 18.140625 L 97.5625 18.265625 L 97.3125 18.058594 C 97.175781 17.949219 96.949219 17.800781 96.8125 17.734375 L 96.5625 17.609375 L 96.8125 17.816406 M 26.875 18.761719 C 26.429688 19.179688 26.183594 19.460938 26.332031 19.386719 C 26.480469 19.3125 26.621094 19.203125 26.644531 19.144531 C 26.667969 19.082031 26.957031 18.800781 27.289062 18.515625 C 27.621094 18.234375 27.84375 18 27.789062 18 C 27.734375 18 27.320312 18.34375 26.875 18.761719 M 100.109375 19.605469 C 100.25 19.800781 100.460938 20.039062 100.582031 20.136719 C 100.703125 20.234375 100.613281 20.074219 100.378906 19.78125 C 99.902344 19.179688 99.726562 19.066406 100.109375 19.605469 M 99.496094 19.9375 C 99.796875 20.28125 100.070312 20.589844 100.101562 20.625 C 100.132812 20.660156 100.101562 20.574219 100.027344 20.4375 C 99.953125 20.300781 99.683594 19.992188 99.421875 19.75 C 98.96875 19.335938 98.972656 19.34375 99.496094 19.9375 M 100.375 21.09375 C 100.539062 21.316406 100.691406 21.5 100.714844 21.5 C 100.808594 21.5 100.5 21.03125 100.296875 20.863281 C 100.160156 20.753906 100.191406 20.84375 100.375 21.09375 M 25.476562 21.59375 C 25.253906 21.851562 25.089844 22.125 25.15625 22.125 C 25.183594 22.125 25.328125 21.957031 25.480469 21.75 C 25.78125 21.34375 25.777344 21.242188 25.476562 21.59375 M 103.019531 24.6875 C 103.019531 24.757812 103.09375 25.007812 103.1875 25.25 C 103.28125 25.492188 103.359375 25.601562 103.359375 25.5 C 103.363281 25.398438 103.285156 25.144531 103.191406 24.9375 C 103.097656 24.730469 103.019531 24.617188 103.019531 24.6875 M 102.582031 25.625 C 102.703125 26.28125 102.886719 26.664062 102.792969 26.0625 C 102.753906 25.789062 102.671875 25.476562 102.609375 25.375 C 102.546875 25.261719 102.535156 25.359375 102.582031 25.625 M 22.832031 25.84375 C 22.710938 26.4375 22.617188 27.082031 22.671875 26.9375 C 22.871094 26.40625 23.019531 25.75 22.972656 25.609375 C 22.941406 25.515625 22.878906 25.621094 22.832031 25.84375 M 23.445312 26.195312 C 23.398438 26.445312 23.382812 26.675781 23.414062 26.707031 C 23.445312 26.738281 23.507812 26.554688 23.554688 26.304688 C 23.601562 26.054688 23.617188 25.824219 23.585938 25.792969 C 23.554688 25.761719 23.492188 25.945312 23.445312 26.195312 M 102.890625 27 C 102.890625 27.101562 102.941406 27.300781 103 27.4375 C 103.066406 27.59375 103.109375 27.617188 103.109375 27.5 C 103.109375 27.398438 103.058594 27.199219 103 27.0625 C 102.933594 26.90625 102.890625 26.882812 102.890625 27 M 22.53125 27.5625 C 22.53125 27.835938 22.558594 27.933594 22.589844 27.78125 C 22.617188 27.625 22.617188 27.398438 22.585938 27.28125 C 22.554688 27.160156 22.53125 27.289062 22.53125 27.5625 M 23.167969 28.375 C 23.167969 28.890625 23.1875 29.101562 23.214844 28.84375 C 23.242188 28.585938 23.242188 28.164062 23.214844 27.90625 C 23.1875 27.648438 23.167969 27.859375 23.167969 28.375 M 103.78125 62.625 C 103.761719 81.839844 103.71875 97.789062 103.6875 98.0625 L 103.628906 98.5625 L 103.753906 98.082031 C 103.832031 97.773438 103.863281 85.328125 103.84375 62.644531 L 103.8125 27.6875 L 103.78125 62.625 M 103.1875 62.625 C 103.1875 81.289062 103.199219 88.925781 103.21875 79.59375 C 103.238281 70.261719 103.238281 54.988281 103.21875 45.65625 C 103.199219 36.324219 103.1875 43.960938 103.1875 62.625 M 46.25 38.21875 C 46.25 38.304688 54.074219 38.304688 64.375 38.21875 C 66.539062 38.199219 63.347656 38.171875 57.28125 38.15625 C 51.214844 38.136719 46.25 38.167969 46.25 38.21875 M 68.90625 38.335938 C 69.027344 38.367188 69.222656 38.367188 69.34375 38.335938 C 69.464844 38.304688 69.367188 38.277344 69.125 38.277344 C 68.882812 38.277344 68.785156 38.304688 68.90625 38.335938 M 70.71875 38.589844 C 70.875 38.617188 71.101562 38.617188 71.21875 38.585938 C 71.339844 38.554688 71.210938 38.53125 70.9375 38.53125 C 70.664062 38.53125 70.566406 38.558594 70.71875 38.589844 M 78.136719 42.703125 C 78.300781 42.917969 78.460938 43.070312 78.492188 43.042969 C 78.523438 43.015625 78.386719 42.839844 78.191406 42.652344 L 77.835938 42.3125 L 78.136719 42.703125 M 54.082031 45.59375 C 54.027344 45.679688 58.804688 45.675781 64.75 45.589844 C 66.023438 45.570312 64.15625 45.542969 60.601562 45.527344 C 57.046875 45.511719 54.113281 45.542969 54.082031 45.59375 M 67.46875 45.714844 C 67.625 45.742188 67.875 45.742188 68.03125 45.714844 C 68.1875 45.683594 68.058594 45.660156 67.75 45.660156 C 67.441406 45.660156 67.3125 45.683594 67.46875 45.714844 M 54.0625 52.6875 L 54.0625 59.3125 L 60.53125 59.3125 L 67 59.316406 L 60.5625 59.28125 L 54.128906 59.246094 L 54.09375 52.65625 L 54.058594 46.0625 L 54.0625 52.6875 M 80.082031 47 C 80.179688 47.539062 80.25 47.640625 80.25 47.238281 C 80.246094 47.074219 80.191406 46.851562 80.125 46.75 C 80.035156 46.617188 80.023438 46.691406 80.082031 47 M 80.332031 48.6875 C 80.429688 49.304688 80.5 49.410156 80.5 48.925781 C 80.496094 48.726562 80.441406 48.476562 80.375 48.375 C 80.296875 48.246094 80.28125 48.347656 80.332031 48.6875 M 80.363281 52.53125 C 80.328125 52.800781 80.347656 52.953125 80.410156 52.890625 C 80.46875 52.828125 80.5 52.617188 80.476562 52.421875 C 80.433594 52.089844 80.425781 52.101562 80.363281 52.53125 M 67.28125 59.210938 C 67.402344 59.242188 67.597656 59.242188 67.71875 59.210938 C 67.839844 59.179688 67.742188 59.152344 67.5 59.152344 C 67.257812 59.152344 67.160156 59.179688 67.28125 59.210938 M 76.929688 59.65625 L 76.5625 60.0625 L 76.96875 59.695312 C 77.191406 59.492188 77.375 59.3125 77.375 59.289062 C 77.375 59.191406 77.273438 59.277344 76.929688 59.65625 M 79.617188 65.09375 C 79.917969 65.453125 80.1875 65.75 80.21875 65.75 C 80.300781 65.75 79.53125 64.808594 79.289062 64.613281 C 79.167969 64.515625 79.316406 64.734375 79.617188 65.09375 M 57.539062 65.84375 C 59.453125 65.863281 62.546875 65.863281 64.414062 65.84375 C 66.285156 65.824219 64.71875 65.808594 60.9375 65.808594 C 57.15625 65.808594 55.628906 65.824219 57.539062 65.84375 M 54.058594 73.875 C 54.058594 78.035156 54.074219 79.734375 54.09375 77.65625 C 54.113281 75.578125 54.113281 72.171875 54.09375 70.09375 C 54.074219 68.015625 54.058594 69.714844 54.058594 73.875 M 73.125 68.34375 C 73.289062 68.566406 73.441406 68.75 73.464844 68.75 C 73.558594 68.75 73.25 68.28125 73.046875 68.113281 C 72.910156 68.003906 72.941406 68.09375 73.125 68.34375 M 82.152344 71.75 C 82.152344 71.992188 82.179688 72.089844 82.210938 71.96875 C 82.242188 71.847656 82.242188 71.652344 82.210938 71.53125 C 82.179688 71.410156 82.152344 71.507812 82.152344 71.75 M 74.535156 72.0625 C 74.535156 72.40625 74.5625 72.53125 74.589844 72.34375 C 74.617188 72.152344 74.617188 71.871094 74.589844 71.71875 C 74.558594 71.5625 74.535156 71.71875 74.535156 72.0625 M 23.183594 85.5 C 23.183594 92.339844 23.199219 95.140625 23.21875 91.71875 C 23.238281 88.296875 23.238281 82.703125 23.21875 79.28125 C 23.199219 75.859375 23.183594 78.660156 23.183594 85.5 M 74.539062 74.9375 C 74.539062 75.351562 74.5625 75.503906 74.589844 75.277344 C 74.617188 75.054688 74.617188 74.71875 74.589844 74.527344 C 74.5625 74.339844 74.539062 74.523438 74.539062 74.9375 M 82.152344 77.125 C 82.152344 77.367188 82.179688 77.464844 82.210938 77.34375 C 82.242188 77.222656 82.242188 77.027344 82.210938 76.90625 C 82.179688 76.785156 82.152344 76.882812 82.152344 77.125 M 69.25 81.125 C 69 81.207031 68.988281 81.226562 69.1875 81.230469 C 69.324219 81.230469 69.550781 81.183594 69.6875 81.125 C 70.007812 80.988281 69.675781 80.988281 69.25 81.125 M 79.179688 84.03125 L 78.8125 84.4375 L 79.21875 84.070312 C 79.441406 83.867188 79.625 83.6875 79.625 83.664062 C 79.625 83.566406 79.523438 83.652344 79.179688 84.03125 M 78.117188 85.09375 L 77.6875 85.5625 L 78.15625 85.132812 C 78.414062 84.894531 78.625 84.683594 78.625 84.664062 C 78.625 84.566406 78.519531 84.65625 78.117188 85.09375 M 51.789062 88.84375 C 54.871094 88.863281 59.878906 88.863281 62.914062 88.84375 C 65.953125 88.824219 63.429688 88.808594 57.3125 88.808594 C 51.195312 88.808594 48.710938 88.824219 51.789062 88.84375 M 22.53125 97.9375 C 22.53125 98.210938 22.558594 98.308594 22.589844 98.15625 C 22.617188 98 22.617188 97.773438 22.585938 97.65625 C 22.554688 97.535156 22.53125 97.664062 22.53125 97.9375 M 102.945312 98.070312 C 102.898438 98.253906 102.886719 98.429688 102.917969 98.457031 C 102.945312 98.488281 103.007812 98.363281 103.054688 98.179688 C 103.101562 97.996094 103.113281 97.820312 103.082031 97.792969 C 103.054688 97.761719 102.992188 97.886719 102.945312 98.070312 M 22.625 98.804688 C 22.625 98.972656 22.671875 99.140625 22.726562 99.171875 C 22.785156 99.207031 22.804688 99.070312 22.777344 98.867188 C 22.710938 98.421875 22.625 98.386719 22.625 98.804688 M 23.398438 98.8125 C 23.398438 98.949219 23.445312 99.203125 23.5 99.375 C 23.578125 99.621094 23.601562 99.636719 23.601562 99.4375 C 23.601562 99.300781 23.554688 99.046875 23.5 98.875 C 23.421875 98.628906 23.398438 98.613281 23.398438 98.8125 M 102.707031 99.21875 C 102.554688 99.789062 102.503906 100.175781 102.605469 100 C 102.730469 99.789062 102.894531 99 102.816406 99 C 102.789062 99 102.742188 99.097656 102.707031 99.21875 M 22.882812 99.636719 C 22.890625 99.800781 22.945312 100.050781 23.007812 100.1875 C 23.085938 100.363281 23.097656 100.285156 23.042969 99.9375 C 22.953125 99.355469 22.871094 99.199219 22.882812 99.636719 M 103.152344 100.332031 C 103.074219 100.582031 103.0625 100.738281 103.121094 100.675781 C 103.246094 100.550781 103.433594 99.875 103.347656 99.875 C 103.316406 99.875 103.230469 100.082031 103.152344 100.332031 M 23.945312 100.75 C 23.992188 100.921875 24.082031 101.148438 24.144531 101.25 C 24.226562 101.378906 24.238281 101.34375 24.179688 101.125 C 24.132812 100.953125 24.042969 100.726562 23.980469 100.625 C 23.898438 100.496094 23.886719 100.53125 23.945312 100.75 M 101.652344 102.214844 C 101.496094 102.53125 101.390625 102.808594 101.414062 102.832031 C 101.4375 102.855469 101.585938 102.617188 101.742188 102.304688 C 101.898438 101.992188 102.003906 101.710938 101.980469 101.6875 C 101.953125 101.660156 101.804688 101.898438 101.652344 102.214844 M 24.726562 102.621094 C 24.84375 102.890625 24.953125 103.0625 24.976562 103.003906 C 25.015625 102.890625 24.660156 102.125 24.570312 102.125 C 24.539062 102.125 24.613281 102.347656 24.726562 102.621094 M 24.132812 102.835938 C 24.121094 103.074219 24.402344 103.625 24.535156 103.625 C 24.605469 103.625 24.597656 103.554688 24.519531 103.460938 C 24.445312 103.371094 24.328125 103.160156 24.261719 102.992188 C 24.195312 102.824219 24.136719 102.753906 24.132812 102.835938 M 100.882812 103.570312 C 100.671875 103.882812 100.5 104.171875 100.5 104.210938 C 100.5 104.296875 100.859375 103.828125 101.164062 103.34375 C 101.519531 102.777344 101.296875 102.957031 100.882812 103.570312 M 101.566406 103.824219 C 101.449219 104 101.375 104.167969 101.402344 104.195312 C 101.429688 104.222656 101.550781 104.074219 101.671875 103.871094 C 101.9375 103.414062 101.859375 103.378906 101.566406 103.824219 M 26.113281 104.75 C 26.3125 105.058594 26.695312 105.507812 26.953125 105.75 C 27.40625 106.164062 27.402344 106.152344 26.871094 105.539062 C 26.5625 105.183594 26.183594 104.734375 26.027344 104.539062 C 25.871094 104.34375 25.910156 104.441406 26.113281 104.75 M 100.875 104.851562 C 100.703125 105.105469 100.507812 105.355469 100.4375 105.40625 C 100.355469 105.464844 100.359375 105.496094 100.445312 105.5 C 100.578125 105.5 101.296875 104.503906 101.21875 104.429688 C 101.199219 104.40625 101.042969 104.597656 100.875 104.851562 M 26.621094 106.40625 C 26.925781 106.734375 27.195312 107 27.214844 107 C 27.308594 107 27.207031 106.886719 26.65625 106.371094 L 26.0625 105.8125 L 26.621094 106.40625 M 99.65625 106.34375 C 99.464844 106.53125 99.082031 106.871094 98.8125 107.09375 C 98.539062 107.316406 98.375 107.5 98.441406 107.5 C 98.507812 107.5 98.929688 107.160156 99.375 106.75 C 99.820312 106.339844 100.148438 106 100.097656 106 C 100.046875 106 99.851562 106.15625 99.65625 106.34375 M 98 106.8125 C 97.839844 106.984375 97.636719 107.125 97.546875 107.125 C 97.460938 107.125 97.355469 107.179688 97.3125 107.25 C 97.1875 107.453125 97.667969 107.214844 98.132812 106.84375 C 98.367188 106.65625 98.5 106.503906 98.429688 106.5 C 98.355469 106.5 98.160156 106.640625 98 106.8125 M 28.363281 106.921875 C 28.53125 107.125 29 107.433594 29 107.339844 C 29 107.316406 28.816406 107.164062 28.59375 107 C 28.34375 106.816406 28.253906 106.785156 28.363281 106.921875 M 27.625 107.277344 C 27.796875 107.488281 28.675781 108.125 28.796875 108.125 C 28.875 108.125 28.769531 108.011719 28.5625 107.878906 C 28.355469 107.742188 28.046875 107.535156 27.875 107.414062 C 27.703125 107.296875 27.589844 107.234375 27.625 107.277344 M 96.5625 107.695312 C 96.289062 107.863281 96.117188 107.996094 96.1875 107.996094 C 96.335938 108 97.125 107.53125 97.125 107.4375 C 97.125 107.359375 97.152344 107.347656 96.5625 107.695312 M 97.542969 107.976562 C 97.253906 108.160156 96.972656 108.363281 96.917969 108.425781 C 96.78125 108.574219 97.597656 108.128906 97.984375 107.84375 C 98.449219 107.503906 98.125 107.601562 97.542969 107.976562 M 31.511719 108.671875 C 31.539062 108.695312 31.789062 108.75 32.0625 108.792969 C 32.410156 108.847656 32.488281 108.835938 32.3125 108.757812 C 32.074219 108.648438 31.402344 108.578125 31.511719 108.671875 M 93.9375 108.757812 C 93.761719 108.835938 93.839844 108.847656 94.1875 108.792969 C 94.460938 108.75 94.710938 108.695312 94.738281 108.671875 C 94.847656 108.578125 94.175781 108.648438 93.9375 108.757812 M 95.9375 108.875 C 95.695312 108.976562 95.695312 108.984375 95.960938 108.992188 C 96.113281 108.996094 96.269531 108.945312 96.3125 108.875 C 96.402344 108.726562 96.28125 108.726562 95.9375 108.875 M 33.3125 109 C 33.519531 109.050781 33.855469 109.09375 34.0625 109.097656 C 34.378906 109.097656 34.359375 109.078125 33.9375 108.992188 C 33.304688 108.863281 32.792969 108.867188 33.3125 109 M 92.3125 109 L 91.9375 109.09375 L 92.3125 109.097656 C 92.519531 109.097656 92.828125 109.054688 93 109 L 93.3125 108.898438 L 93 108.902344 C 92.828125 108.902344 92.519531 108.949219 92.3125 109 M 31.625 109.5 C 31.726562 109.566406 31.953125 109.617188 32.125 109.609375 L 32.4375 109.601562 L 32.125 109.5 C 31.644531 109.34375 31.386719 109.34375 31.625 109.5 M 94.125 109.5 L 93.8125 109.601562 L 94.125 109.609375 C 94.296875 109.617188 94.523438 109.566406 94.625 109.5 C 94.863281 109.34375 94.605469 109.34375 94.125 109.5 M 33.167969 109.78125 C 33.351562 109.894531 92.859375 109.886719 93.152344 109.773438 C 93.269531 109.726562 79.789062 109.6875 63.195312 109.6875 C 46.601562 109.6875 33.089844 109.730469 33.167969 109.78125 "/>
</g>
</svg>
