<svg xmlns="http://www.w3.org/2000/svg" width="166.667" height="166.667" viewBox="0 0 125 125" fill-rule="evenodd" xmlns:v="https://vecta.io/nano"><path d="M46.375 63.563V88.75l10.406-.004c10.727-.008 10.934-.016 14.281-.539 1.086-.168 1.336-.23 1.875-.461.723-.312 1.238-.496 1.398-.496.098 0 .383-.141.637-.312s.531-.312.617-.312c.137 0 .508-.227 1.785-1.086.789-.527 2.516-2.406 3.09-3.352 2.359-3.91 2.328-11.711-.066-15.75-.977-1.645-2.535-3.199-3.727-3.707a3.55 3.55 0 0 1-.547-.293c-.102-.078-.441-.215-.75-.305-1.309-.375-1.48-.555-.816-.859 1.227-.559 3.457-2.695 4.137-3.961l.277-.5c.078-.137.234-.477.348-.75l.309-.75c1.469-3.543.664-9.766-1.629-12.605-.937-1.164-3.687-3.207-4.312-3.207-.078 0-.477-.133-.883-.293s-1.164-.363-1.68-.445l-1.613-.27c-.391-.066-5.465-.117-11.906-.117h-11.23v25.188m22.512-17.859c.098.074.457.242.801.371 1.242.465 1.98 1.277 2.703 2.988.254.605.352 1.5.355 3.262.004 1.723-.062 2.266-.375 2.988-.059.137-.145.391-.191.563-.273.98-1.469 2.188-2.992 3.023l-.75.41-7.281.039-7.281.035V45.488l7.418.039c5.195.023 7.473.078 7.594.176M68.25 65.75c1.563.215 2.141.363 2.961.773 4.902 2.457 4.828 11.852-.109 14.215-1.531.73-1.926.762-9.945.762h-7.281v-7.863c0-6.176.035-7.879.156-7.93.277-.109 13.379-.074 14.219.043" fill="rgb(95.686275%,94.901961%,97.254902%)"/><path d="M58.426.23c.035.059-.902.145-2.086.195s-2.172.141-2.195.203-.375.121-.781.121-.738.051-.738.109-.504.148-1.125.195-1.152.141-1.191.203-.297.117-.566.117-.492.055-.492.125-.254.125-.562.125-.562.051-.562.109-.363.152-.812.199-.844.137-.883.199-.207.117-.375.117-.305.047-.305.109-.289.141-.648.184-.703.133-.773.203-.258.129-.414.129-.289.055-.289.125-.195.125-.437.125-.437.051-.437.109-.227.145-.5.188-.5.137-.5.203-.113.125-.25.125-.352.055-.469.117-.543.215-.937.328-.719.262-.719.32-.141.109-.312.109-.312.051-.312.109-.195.148-.437.195-.437.137-.437.199-.141.121-.312.121-.312.051-.312.109-.195.148-.437.195-.437.137-.437.199-.113.121-.25.121-.25.055-.25.125-.086.125-.187.125-.187.051-.187.109-.195.148-.437.195-.437.137-.437.199-.086.121-.187.121-.187.051-.187.109-.195.148-.437.195-.437.137-.437.199-.113.121-.25.121-.25.055-.25.125-.086.125-.187.125-.187.051-.187.113-.16.152-.359.195-.465.176-.598.293-.445.316-.703.449-.465.285-.465.344-.113.105-.25.105-.25.051-.25.113-.141.145-.312.188-.312.133-.312.203-.086.121-.187.121-.187.043-.187.098-.195.203-.437.332-.437.281-.437.34-.117.105-.258.105-.227.051-.187.113-.098.172-.305.242-.41.219-.453.324-.176.195-.301.195-.34.141-.473.313-.336.313-.449.313-.199.055-.199.117-.199.215-.441.332-.414.238-.379.27c.063.066-.473.531-.609.531-.047 0-.219.125-.383.281-.449.418-.668.594-.75.594-.039 0-.316.254-.617.563s-.598.563-.656.563-.246.141-.418.313l-.473.469-1.398 1.477c0 .063-.098.117-.219.117-.199 0-1.531 1.25-1.531 1.434 0 .066-.77.902-1.367 1.488-.734.715-1.008 1.023-1.008 1.117 0 .066-.254.359-.562.656s-.562.594-.562.66c0 .113-.301.469-1.184 1.422-.176.184-.316.418-.316.512s-.141.281-.312.41-.312.293-.312.363-.141.277-.312.465-.312.395-.312.469-.051.129-.117.129-.156.125-.203.281-.195.371-.324.484-.23.285-.23.391-.086.223-.187.266-.187.172-.187.293-.105.289-.234.371-.273.301-.32.492-.187.434-.309.539-.324.434-.453.727-.277.531-.332.531-.102.086-.102.188-.051.188-.113.188-.156.184-.207.406-.184.492-.297.594a1.38 1.38 0 0 0-.316.438l-.137.313-.117.344c-.051.156-.141.281-.203.281s-.109.086-.109.188-.051.188-.109.188-.148.195-.195.438-.137.438-.199.438-.121.113-.121.25-.051.25-.109.25c-.094 0-.246.313-.312.645-.008.047-.059.125-.109.18s-.094.223-.094.383-.055.293-.125.293-.125.086-.125.188-.051.188-.109.188-.148.195-.195.438-.137.438-.199.438-.121.141-.121.313-.055.313-.125.313-.125.102-.125.23-.039.266-.086.316-.105.152-.125.238l-.117.527c-.047.207-.121.402-.168.438-.152.113-.504 1.121-.504 1.441 0 .168-.055.309-.125.309s-.125.141-.125.313-.055.313-.125.313-.125.133-.125.293-.039.328-.086.379c-.102.102-.164.344-.254.984-.031.258-.113.469-.172.469s-.113.141-.113.313-.051.313-.113.313-.152.395-.199.875-.137.875-.199.875-.113.195-.113.438-.055.438-.125.438-.125.223-.125.492-.051.523-.113.563-.152.52-.199 1.07-.141 1-.199 1-.113.305-.113.676-.051.695-.113.719-.156.832-.207 1.793c-.055 1.051-.145 1.785-.227 1.84-.199.125-.199 11.945 0 12.07.082.055.172.785.227 1.84.051.961.141 1.805.207 1.867s.113.391.113.719.051.602.113.602.152.477.203 1.063S1.203 76 1.266 76s.109.223.109.492.055.527.125.57.125.242.125.445.051.367.113.367.152.395.199.875.137.875.199.875.113.141.113.313.051.313.109.313.148.336.191.75.141.75.207.75.117.137.117.305.055.34.125.383.125.215.125.383.051.305.113.305.152.281.199.625.137.625.199.625.113.086.113.188.055.188.125.188.125.125.125.281c0 .363.395 1.469.523 1.469.055 0 .102.141.102.313s.051.313.109.313.148.195.195.438.137.438.199.438.121.141.121.313.055.313.125.313.125.086.125.188c0 .215.641 1.477.777 1.539.051.023.125.234.172.469s.129.43.191.43.109.086.109.188.055.188.125.188.125.086.125.188c0 .215.609 1.418.844 1.664.086.094.156.246.156.344s.043.18.094.18.195.211.316.469c.215.465.469.91.59 1.031.109.109.371.555.5.848.066.156.207.316.313.355S10 96.875 10 97a.57.57 0 0 0 .188.375c.102.086.188.211.188.281s.105.219.23.328.273.328.324.484.141.281.203.281.117.059.117.129.141.285.313.469.313.395.313.469.113.211.25.309.25.246.25.328.191.348.426.59.461.551.508.691a.54.54 0 0 0 .324.328c.133.043.242.168.242.273s.281.469.625.801.625.664.625.734.422.547.938 1.055.938.969.938 1.031c.004.125 2.547 2.668 2.672 2.668.051 0 .516.422 1.035.938s1 .938 1.063.938.359.254.66.563.582.563.625.563c.102 0 .391.234.727.594.145.156.332.281.41.281s.254.141.383.313.309.313.398.313.293.141.453.313.332.313.379.313.172.086.277.188.289.188.418.188.266.102.305.227.27.32.508.438.438.266.438.336.105.125.238.125.266.086.309.188.184.188.324.188.254.055.254.125.086.125.188.125.188.043.188.098.184.203.406.336.434.27.469.313c.078.098.941.504 1.066.504.051 0 .184.102.293.227.211.23 1.012.648 1.254.648.074 0 .137.055.137.125s.113.125.25.125.25.051.25.113.141.145.313.188.313.133.313.203.109.121.238.121.258.043.281.094c.074.168.824.531 1.094.531.145 0 .262.055.262.125s.113.125.25.125.25.055.25.121.195.156.438.199.438.133.438.195.086.109.188.109.188.055.188.125.105.125.234.125.398.086.594.188.484.188.641.188.281.055.281.125.086.125.188.125.188.051.188.117.309.152.688.199.652.137.617.199.047.109.188.109.258.055.258.125.137.125.305.125.34.055.379.117.324.156.633.203.559.133.559.195.168.109.375.109.375.051.375.113.336.152.75.199.75.137.75.199.168.113.375.113.375.055.375.125.195.125.43.125.461.051.5.117.438.152.883.199.813.137.813.199.254.109.563.109.563.051.563.113.492.156 1.094.203 1.133.152 1.184.23c.129.203 20.445.199 20.57-.004.051-.078.582-.184 1.184-.23s1.129-.141 1.164-.203.262-.109.5-.109.43-.051.43-.109.422-.152.938-.199.938-.141.938-.203.195-.113.438-.113.438-.055.438-.125.141-.125.313-.125.313-.051.313-.109.336-.148.75-.191.75-.141.75-.207.195-.117.438-.117.438-.051.438-.109.25-.148.559-.195.594-.137.633-.203.184-.117.316-.117.242-.055.242-.125.141-.125.313-.125.313-.051.313-.113.281-.152.625-.199.625-.137.625-.199.113-.113.25-.113.25-.051.25-.109.227-.145.5-.187.5-.137.5-.203.113-.125.25-.125.25-.055.25-.125.141-.125.313-.125.313-.055.313-.125.063-.125.137-.125c.168 0 1.027-.391 1.113-.508.035-.047.246-.125.469-.176s.406-.137.406-.203.086-.113.188-.113.188-.055.188-.125.113-.125.25-.125.25-.055.25-.121.195-.156.438-.199.438-.133.438-.195.086-.109.188-.109.188-.055.188-.125.078-.125.176-.125c.223 0 .949-.406.949-.531 0-.051.086-.094.188-.094s.188-.051.188-.109.156-.141.344-.18.457-.172.598-.297.461-.332.719-.465.465-.285.465-.344.105-.105.238-.105.266-.086.309-.187.164-.187.277-.187.301-.105.41-.23.328-.273.484-.324.281-.141.281-.203.07-.117.16-.117.242-.113.34-.25.25-.25.336-.25.293-.141.465-.312.371-.312.438-.312.266-.141.438-.312.352-.312.398-.312.215-.141.375-.312.355-.312.438-.312.332-.195.559-.437.445-.437.488-.437c.098 0 .336-.199.938-.781.266-.258.523-.469.566-.469.066 0 1.129-1.008 2.324-2.203l.766-.77 1.816-1.828c.5-.504.906-.957.906-1s.281-.367.625-.711.625-.68.625-.75.195-.32.438-.559.438-.508.438-.59.141-.262.313-.391.313-.336.313-.457.105-.258.238-.301.332-.27.441-.508.25-.434.305-.434.207-.195.336-.437.281-.437.332-.437.098-.105.098-.238.086-.27.188-.309.246-.215.313-.387.176-.316.246-.316.129-.113.129-.25.051-.25.117-.25.156-.125.203-.281.195-.371.324-.484.23-.266.23-.344.055-.141.125-.141.125-.113.125-.254.086-.285.188-.324.188-.18.188-.309.051-.238.113-.238.145-.141.188-.312.133-.312.203-.312.121-.086.121-.187.055-.187.125-.187.125-.113.125-.25.055-.25.121-.25.156-.195.199-.437.133-.437.195-.437.109-.086.109-.187.055-.187.121-.187.16-.141.203-.312.129-.312.188-.312.113-.113.113-.25.051-.25.109-.25.215-.336.344-.75.277-.75.328-.75.094-.086.094-.187.055-.187.121-.187.156-.195.199-.437.133-.437.195-.437.109-.141.109-.312.043-.312.094-.312c.133 0 .531-.941.531-1.25 0-.137.055-.25.125-.25s.125-.141.125-.312.055-.312.117-.312.156-.254.203-.562.133-.562.195-.562.109-.141.109-.312.055-.312.125-.312.125-.137.125-.305.055-.34.117-.379.156-.324.203-.633.133-.559.195-.559.109-.168.109-.375.051-.375.109-.375.148-.309.199-.687.137-.715.199-.754.117-.238.117-.441.055-.367.125-.367.125-.195.125-.43.051-.461.109-.5.152-.488.199-1.008.141-.937.203-.937.113-.227.113-.5.051-.5.109-.5.148-.578.199-1.281c.051-.738.152-1.32.234-1.371.207-.125.207-18.441 0-18.57-.078-.051-.18-.629-.23-1.309-.051-.672-.141-1.254-.203-1.289s-.109-.293-.109-.562-.047-.492-.105-.492-.172-.437-.254-.969c-.238-1.57-.289-1.781-.406-1.781-.059 0-.109-.195-.109-.437s-.055-.437-.117-.437-.16-.336-.207-.75-.133-.75-.191-.75-.109-.141-.109-.312-.051-.312-.109-.312-.145-.277-.191-.621-.137-.652-.203-.695-.121-.211-.121-.379-.055-.305-.125-.305-.125-.141-.125-.312-.051-.312-.109-.312-.148-.254-.195-.562-.137-.562-.203-.562-.117-.141-.117-.312-.055-.312-.125-.312-.156-.227-.203-.5-.129-.5-.187-.5-.109-.113-.109-.25-.055-.25-.125-.25-.125-.141-.125-.312-.055-.312-.121-.312-.156-.195-.199-.437-.133-.437-.195-.437-.109-.086-.109-.187-.051-.187-.109-.187-.148-.195-.195-.437-.137-.437-.199-.437-.121-.117-.121-.258-.055-.223-.125-.18-.125-.039-.125-.18-.055-.258-.121-.258-.156-.195-.199-.437-.133-.437-.195-.437-.109-.086-.109-.187-.055-.187-.125-.187-.125-.086-.125-.187c0-.215-.609-1.418-.844-1.664-.086-.094-.156-.246-.156-.344s-.043-.18-.094-.18c-.098 0-.129-.055-.586-.957-.137-.266-.34-.566-.453-.668s-.246-.312-.297-.469-.141-.281-.203-.281-.117-.086-.117-.187-.051-.187-.113-.187-.172-.168-.242-.375-.219-.41-.324-.453-.195-.18-.195-.309-.055-.238-.117-.238-.215-.195-.328-.437-.25-.41-.305-.375-.164-.105-.246-.305a1.66 1.66 0 0 0-.453-.59c-.164-.125-.301-.297-.301-.379s-.141-.293-.312-.465-.312-.363-.312-.422-.227-.344-.5-.621-.5-.562-.5-.625-.125-.227-.281-.363a3.55 3.55 0 0 1-.465-.523c-.102-.148-.285-.301-.406-.34s-.223-.156-.223-.258c0-.172-5.148-5.422-5.316-5.422-.09 0-.535-.387-.895-.773-.223-.238-.52-.477-.598-.477-.035 0-.273-.195-.531-.437s-.516-.437-.578-.437-.301-.195-.527-.437-.445-.437-.488-.437c-.074 0-.246-.129-.625-.469-.094-.086-.234-.156-.309-.156s-.133-.051-.133-.117-.105-.148-.234-.191-.406-.234-.609-.434-.496-.395-.641-.441-.266-.137-.266-.199-.086-.117-.187-.117-.187-.051-.187-.117c0-.113-.484-.328-.648-.285-.047.012-.121-.09-.164-.227s-.187-.246-.32-.246-.242-.051-.242-.113-.141-.145-.312-.187-.312-.133-.312-.203-.086-.121-.187-.121-.187-.055-.187-.125-.113-.125-.25-.125-.25-.055-.25-.121-.141-.16-.312-.203S94 8.422 94 8.363s-.086-.113-.187-.113-.187-.055-.187-.125S93.52 8 93.391 8A.59.59 0 0 1 93 7.813c-.086-.102-.234-.187-.328-.187s-.172-.043-.172-.094c0-.102-.914-.531-1.125-.531-.07 0-.125-.055-.125-.125s-.113-.125-.25-.125-.25-.055-.25-.125-.062-.125-.137-.125c-.152 0-1.012-.383-1.113-.492-.133-.148-1.023-.508-1.254-.508-.137 0-.246-.055-.246-.125s-.086-.125-.187-.125-.187-.055-.187-.117-.254-.156-.562-.203-.562-.133-.562-.195-.086-.109-.187-.109-.187-.055-.187-.125-.105-.125-.234-.125-.398-.086-.594-.187S84.813 4 84.656 4s-.281-.055-.281-.125-.141-.125-.312-.125-.312-.051-.312-.113-.281-.152-.625-.199-.625-.137-.625-.199-.168-.113-.375-.113S81.75 3.07 81.75 3s-.129-.125-.289-.125-.344-.059-.414-.129-.418-.164-.773-.203-.648-.125-.648-.184-.195-.109-.437-.109-.437-.051-.437-.109-.367-.152-.812-.199-.812-.137-.812-.203-.195-.113-.437-.113-.437-.055-.437-.125-.25-.125-.551-.125-.57-.055-.594-.117-.562-.16-1.199-.207S72.75.914 72.75.855 72.418.75 72.012.75s-.758-.055-.781-.121-.977-.16-2.137-.207C67.941.375 67 .289 67 .23S65.055.125 62.68.125s-4.289.047-4.254.105M94.09 15.852c.43.078 1.02.254 1.313.387a7.46 7.46 0 0 0 .848.328c.172.047.52.246.773.445s.512.363.574.363.277.141.477.313.41.313.465.313c.262 0 2.004 1.953 2.727 3.063 1.129 1.73 2.109 3.895 2.109 4.664 0 .191.047.402.109.469.371.41.391 2.238.391 36.625l-.395 36.484c-.059.066-.105.285-.105.484a2.28 2.28 0 0 1-.172.754c-.098.219-.242.59-.324.832-.234.684-1.152 2.48-1.402 2.746-.125.133-.227.27-.227.305 0 .078-.473.77-.812 1.195-.387.48-1.852 1.879-1.969 1.879-.059 0-.227.113-.371.25s-.496.367-.777.512-.535.301-.57.348a1.59 1.59 0 0 1-.867.391c-.133 0-.273.051-.312.113-.082.133-1.137.453-1.945.594-.859.148-60.289.105-61.187-.043-.758-.125-.949-.184-1.625-.477-.953-.414-1.578-.742-1.703-.895-.078-.094-.207-.168-.293-.168-.641 0-4.191-3.711-4.191-4.383 0-.062-.043-.117-.098-.117-.242 0-1.652-3.461-1.652-4.059 0-.148-.07-.336-.156-.422-.242-.242-.227-72.098.016-72.895.367-1.215.781-2.453.91-2.75a14.37 14.37 0 0 1 1.313-2.352c.297-.43.543-.805.543-.832 0-.187 2.094-2.316 2.281-2.316.059 0 .258-.141.441-.312s.383-.312.438-.312.391-.195.75-.437.754-.437.883-.437.383-.109.566-.238c.195-.137.73-.297 1.25-.367.504-.07.949-.16.988-.199.148-.148 60.18.004 60.992.156m-61.465.773c-.789.141-1.43.344-1.91.605-.395.219-.777.395-.852.395s-.312.141-.539.313-.453.313-.504.313c-.285 0-2.285 1.852-2.602 2.406-.145.258-.312.469-.367.469s-.102.059-.102.133-.137.313-.301.531c-.375.5-1.102 1.953-1.387 2.773l-.312.875c-.59 1.469-.566-.25-.535 37.313l.539 37.188c.055.137.223.582.367.988.363 1.012 1.082 2.465 1.441 2.906a10.61 10.61 0 0 1 .438.613c.957 1.418 2.602 2.75 4.5 3.648 1.055.5 1.605.648 3.336.902 1.262.184 57.504.18 58.648-.004 1.84-.293 2.25-.41 3.328-.941 1.445-.711 1.902-.977 2.242-1.293.152-.141.305-.258.348-.258.145 0 1.496-1.43 1.672-1.773.102-.191.238-.352.305-.352s.121-.059.121-.125.184-.395.406-.719c.895-1.297 1.477-2.824 2.082-5.437.203-.879.195-69.984-.008-70.812l-.387-1.469c-.129-.48-.27-1.031-.305-1.219s-.117-.344-.18-.344-.109-.082-.109-.184c0-.176-.613-1.555-.75-1.691-.035-.035-.391-.551-.793-1.148-.629-.93-1.359-1.707-2.535-2.691-.312-.262-.832-.562-1.859-1.07-2.375-1.172.359-1.082-33.062-1.066l-30.375.227m37.438 21.73c1.336.234 2.102.402 2.375.52.137.059.559.203.938.32s.836.32 1.02.445.41.234.508.234.313.141.473.313.363.313.449.313c.281 0 2.453 2.063 2.691 2.563.066.137.258.477.426.75s.34.586.379.688l.18.438c.402.984.629 1.773.773 2.688.188 1.195.266 5.133.105 5.293-.07.074-.129.363-.129.648s-.133.91-.297 1.391c-.309.902-.355 1.012-.82 1.855-.148.273-.305.598-.344.719s-.117.219-.18.219-.109.078-.109.172c0 .289-2.008 2.246-3.031 2.953-1.109.766-1.141.832-.5.949 1.031.184 2.973 1.32 3.879 2.266.762.805 1.402 1.602 1.402 1.758 0 .07.047.148.102.172.301.121 1.168 2.215 1.363 3.293.035.207.109.43.164.5.215.277.496 2.914.492 4.66 0 2.316-.242 4.004-.762 5.379-.059.156-.109.383-.109.5-.004.207-.871 2.004-1.121 2.309-1.07 1.324-1.449 1.75-2.035 2.277-.848.77-1.586 1.313-1.781 1.313-.082 0-.246.109-.363.238s-.363.277-.543.32-.48.191-.668.324a2.25 2.25 0 0 1-.758.324c-.23.043-.699.207-1.043.355-.953.422-1.059.449-2 .57a26.88 26.88 0 0 0-1.625.258c-.527.102-4.113.16-12.031.191l-11.281.051v-50.77l11.469.043 12.344.199m-15.957 7.355c-.023.055-.027 3.129-.008 6.828l.035 6.73 7.027-.043 7.027-.039.668-.344c.363-.187.715-.344.773-.344.109 0 .477-.305 1.164-.969.195-.191.504-.57.688-.844s.359-.527.395-.562c1.191-1.172.84-7.352-.492-8.555-.141-.129-.258-.309-.258-.402s-.07-.168-.156-.168-.309-.141-.496-.312-.395-.312-.465-.312-.449-.156-.848-.344l-.723-.344-7.145-.039c-3.926-.023-7.16.004-7.187.063m-.059 20.555c.043.215.078 3.707.078 7.758v7.363l7.281-.043c5.578-.035 7.457-.082 8.031-.215 1.875-.426 3.609-1.754 4.254-3.254.105-.242.246-.535.313-.656a1.07 1.07 0 0 0 .121-.441c0-.125.059-.285.129-.355s.188-.785.262-1.59c.367-4.047-.801-6.844-3.414-8.176-1.332-.676-1.637-.699-9.711-.742l-7.422-.043.078.395" fill="rgb(35.294118%,25.098039%,50.196078%)"/><path d="M48.48 15.719h29.5c8.09-.02 1.434-.031-14.793-.031l-14.707.031m-14.699.617c.121.031.316.031.438 0s.023-.059-.219-.059-.34.027-.219.059m58.375 0c.121.031.316.031.438 0s.023-.059-.219-.059-.34.027-.219.059M22.531 28.438c0 .273.027.371.059.219s.027-.383-.004-.5-.055.008-.055.281m80.621-.062c0 .242.027.34.059.219s.031-.316 0-.437-.059-.023-.059.219m-80.09 34.313l.031 17.082V45.52c-.02-9.395-.031-1.668-.031 17.168M77.25 41.813c.234.242.453.438.488.438s-.129-.195-.363-.437-.453-.437-.488-.437.129.195.363.438M53.902 52.461l.066 6.832c.086.055.082-4.887-.004-11.168-.02-1.34-.047.609-.062 4.336m26.5-2.836c0 .242.027.34.059.219s.031-.316 0-.437-.059-.023-.059.219m0 2.125c0 .242.027.34.059.219s.031-.316 0-.437-.059-.023-.059.219m-7.738.563c.004.48.023.664.051.402s.027-.652 0-.875-.051-.008-.051.473m-18.73 13.594c-.035.086-.047 3.586-.027 7.781l.031 7.625.063-7.781.027-7.781c-.02 0-.062.07-.094.156m20.734 7.531c0 .551.023.758.047.465a6.1 6.1 0 0 0 0-1c-.027-.254-.047-.016-.047.535m-17.066 8.031h7c1.902-.02.313-.035-3.539-.035l-3.461.035m45.555 15.469c0 .273.027.371.059.219s.027-.383-.004-.5-.055.008-.055.281m-80.625.125c0 .273.027.371.059.219s.027-.383-.004-.5-.055.008-.055.281" fill="rgb(60%,52.54902%,70.196078%)"/><path d="M33.125 15.828c-1.027.16-1.844.348-2.062.48-.137.086-.477.227-.75.316s-.781.352-1.125.578l-1.055.699c-2.289 1.52-4.238 4.652-5.266 8.473-.336 1.25-.367 4.246-.367 36.375l.367 36.375c.746 2.773 1.363 4.055 3.066 6.363 1.348 1.828 4.273 3.586 6.691 4.023 2.047.367 59.113.367 61.063-.004 1.289-.242 2.934-.852 3.375-1.246.137-.125.344-.258.457-.297.418-.148 1.75-1.254 2.41-2.004a15.46 15.46 0 0 0 3.684-7.922c.191-1.258.191-69.309.004-70.578-.141-.937-.441-2.219-.621-2.648-.059-.137-.145-.391-.191-.562-.418-1.492-2.398-4.484-3.703-5.598-.547-.469-1.676-1.277-1.781-1.277-.043 0-.242-.117-.437-.266-.422-.312-1.547-.797-2.508-1.082-.641-.187-60.051-.383-61.25-.199m60.688.652c.414.082 1.094.316 1.516.523s.82.371.883.371c.113 0 .813.422 1.77 1.066.625.422 2.145 1.922 2.145 2.117 0 .094.047.188.102.211.633.262 2.188 3.523 2.73 5.73.355 1.445.359 70.902.004 72.375-.59 2.457-1.074 3.48-2.918 6.172-.285.422-1.281 1.398-1.734 1.703-1.246.84-1.75 1.137-2.621 1.531-1.98.902.313.844-32.465.844-32.148 0-31.215.02-32.348-.68a6.4 6.4 0 0 0-.875-.449c-1.121-.449-3.875-2.695-3.875-3.156 0-.062-.191-.344-.426-.633-.578-.703-1.34-2.164-1.816-3.484-.406-1.113-.547-1.73-.754-3.285-.152-1.145-.16-68.309-.004-69.5.32-2.492 1.117-4.641 2.406-6.469.328-.465.594-.891.594-.949 0-.371 3.469-3.145 3.934-3.145.055 0 .441-.168.863-.375.457-.223 1.141-.426 1.695-.5.512-.074.957-.156.992-.191.148-.148 59.461.02 60.203.172M46.309 38.406c-.035.086-.047 11.461-.027 25.281l.031 25.125.063-50.437 21.813-.062-10.91-.031c-8.637-.023-10.922 0-10.969.125m23.129.094c.527.133.984.133.563 0a2.48 2.48 0 0 0-.625-.098c-.281.004-.273.012.063.098m1.688.25a2.48 2.48 0 0 0 .625.098c.281-.004.273-.012-.062-.098-.527-.133-.984-.133-.562 0m4.109 1.543c.16.195 1.016.742 1.016.648 0-.027-.266-.227-.59-.445s-.516-.312-.426-.203m-7.703 5.293c.121.031.316.031.438 0s.023-.059-.219-.059-.34.027-.219.059m12.621 2.539c0 .242.027.34.059.219s.031-.316 0-.437-.059-.023-.059.219m.262 2.563c0 .414.023.566.051.34s.027-.559 0-.75-.051-.004-.051.41m-7.75.188c0 .379.023.531.051.344a2.89 2.89 0 0 0 0-.687c-.027-.187-.051-.035-.051.344m-.02 2.75a6.94 6.94 0 0 1-.086.875l-.066.313.137-.309c.074-.168.113-.562.086-.875l-.043-.566-.027.563m-.816 2.781l-.223.406.258-.312c.227-.277.328-.5.227-.5-.02 0-.137.184-.262.406m-.859 1.09c-.324.34-.516.59-.426.555.148-.055 1.148-1.176 1.051-1.176-.023 0-.305.277-.625.621m-1.207.953c-.234.164-.363.301-.285.301s.293-.141.484-.309c.441-.387.355-.387-.199.008m7.293.957l-.492.531.531-.492c.492-.461.59-.57.492-.57-.02 0-.258.238-.531.531m-1.117.922c-.227.191-.27.266-.113.191.227-.117.656-.527.535-.516-.027.004-.215.148-.422.324m1.75 3.008c.07.066.434.359.813.652l.688.535-.562-.52c-.309-.285-.676-.578-.812-.652s-.195-.078-.125-.016m1.809 1.758c.23.293.441.531.473.531.086 0-.449-.703-.676-.887-.121-.098-.031.063.203.355m-21.957.625h6.875c1.871-.02.305-.035-3.477-.035l-3.398.035m22.723.5c.422.703.613.973.613.875 0-.125-.758-1.344-.832-1.344-.035 0 .063.211.219.469m-7.316 1.719c.578.762.754.953.574.625-.074-.137-.34-.477-.59-.75l-.457-.5.473.625m8.953 2.625c-.004.137.039.477.094.75.086.422.105.441.105.125-.004-.437-.187-1.258-.199-.875m-7.523.137c.004.129.063.324.129.426.094.137.105.086.043-.187-.102-.461-.172-.559-.172-.238m.313 2.879c-.004 1.172.027 1.629.082 1.234.109-.82.113-2.004.004-2.609-.051-.281-.086.293-.086 1.375m7.531.484c.059 2.258.129 2.566.125.563 0-.859-.035-1.73-.082-1.937s-.066.414-.043 1.375m-.277 3.629c-.047.32-.059.605-.027.637s.094-.203.145-.52.059-.605.027-.637-.094.203-.145.52m-.551 2.328c-.008.117-.047.313-.086.438-.07.219-.066.219.07.008.078-.121.117-.32.086-.437-.051-.195-.059-.195-.07-.008m-9.754.305c-.234.164-.363.301-.285.301s.293-.141.484-.309c.441-.387.355-.387-.199.008m-3.262 1.051c-.426.09-.426.094-.062.098a2.73 2.73 0 0 0 .688-.098c.41-.133 0-.133-.625 0m10.445 2.848c-.828.898-.914 1.02-.332.465.688-.66 1.609-1.699 1.492-1.684-.023.004-.547.555-1.16 1.219m-8.414 4.113c.121.031.316.031.438 0s.023-.059-.219-.059-.34.027-.219.059m-1.625.25c.121.031.316.031.438 0s.023-.059-.219-.059-.34.027-.219.059m-1.062.129c.156.027.383.027.5-.004s-.008-.055-.281-.055-.371.027-.219.059" fill="rgb(65.882353%,59.607843%,77.254902%)"/><path d="M32.938 15.758c-.176.078-.098.09.25.035.273-.043.523-.098.551-.121.109-.094-.562-.023-.801.086m59.938-.008c.426.137.758.137.438 0a1.53 1.53 0 0 0-.5-.105c-.199.004-.187.023.063.105m-44.082.594h28.875c7.918-.02 1.402-.031-14.48-.031l-14.395.031m-18.988.352c-.238.191-.238.191.008.078a9.33 9.33 0 0 1 .438-.184c.16-.062.16-.07-.008-.078-.105-.008-.305.074-.437.184m63.332-.148c.027.023.332.078.676.117.422.051.523.039.313-.031-.312-.109-1.09-.176-.988-.086m3.289.199c.27.137.594.344.719.461s.23.172.23.133c0-.137-.805-.684-1.125-.766-.187-.051-.113.02.176.172m.387 1.07c.137.109.363.258.5.324l.25.125-.25-.207c-.137-.109-.363-.258-.5-.324l-.25-.125.25.207m-69.937.945c-.445.418-.691.699-.543.625s.289-.184.313-.242.313-.344.645-.629.555-.516.5-.516-.469.344-.914.762m73.234.844c.141.195.352.434.473.531s.031-.062-.203-.355c-.477-.602-.652-.715-.27-.176m-.613.332l.605.688c.031.035 0-.051-.074-.187s-.344-.445-.605-.687c-.453-.414-.449-.406.074.188m.879 1.156c.164.223.316.406.34.406.094 0-.215-.469-.418-.637-.137-.109-.105-.02.078.23m-74.898.5c-.223.258-.387.531-.32.531.027 0 .172-.168.324-.375.301-.406.297-.508-.004-.156m77.543 3.094c0 .07.074.32.168.563s.172.352.172.25-.074-.355-.168-.562-.172-.32-.172-.25m-.437.938c.121.656.305 1.039.211.438-.039-.273-.121-.586-.184-.687-.062-.113-.074-.016-.027.25m-79.75.219c-.121.594-.215 1.238-.16 1.094.199-.531.348-1.187.301-1.328-.031-.094-.094.012-.141.234m.613.352c-.047.25-.062.48-.031.512s.094-.152.141-.402.063-.48.031-.512-.094.152-.141.402m79.445.805c0 .102.051.301.109.438.066.156.109.18.109.063 0-.102-.051-.301-.109-.437-.066-.156-.109-.18-.109-.062m-80.359.563c0 .273.027.371.059.219s.027-.383-.004-.5-.055.008-.055.281m.637.813c0 .516.02.727.047.469a5.37 5.37 0 0 0 0-.937c-.027-.258-.047-.047-.047.469m80.613 34.25l-.094 35.438-.059.5.125-.48c.078-.309.109-12.754.09-35.437l-.031-34.957-.031 34.938m-.594 0l.031 16.969V45.656c-.02-9.332-.031-1.695-.031 16.969M46.25 38.219c0 .086 7.824.086 18.125 0 2.164-.02-1.027-.047-7.094-.062s-11.031.012-11.031.063m22.656.117c.121.031.316.031.438 0s.023-.059-.219-.059-.34.027-.219.059m1.813.254c.156.027.383.027.5-.004s-.008-.055-.281-.055-.371.027-.219.059m7.418 4.113c.164.215.324.367.355.34s-.105-.203-.301-.391l-.355-.34.301.391m-24.055 2.891c-.055.086 4.723.082 10.668-.004 1.273-.02-.594-.047-4.148-.062s-6.488.016-6.52.066m13.387.121a1.94 1.94 0 0 0 .563 0c.156-.031.027-.055-.281-.055s-.437.023-.281.055m-13.406 6.973v6.625h6.469l6.469.004-6.437-.035-6.434-.035-.035-6.59-.035-6.594.004 6.625M80.082 47c.098.539.168.641.168.238-.004-.164-.059-.387-.125-.488-.09-.133-.102-.059-.043.25m.25 1.688c.098.617.168.723.168.238-.004-.199-.059-.449-.125-.551-.078-.129-.094-.027-.043.313m.031 3.844c-.035.27-.016.422.047.359s.09-.273.066-.469c-.043-.332-.051-.32-.113.109m-13.082 6.68c.121.031.316.031.438 0s.023-.059-.219-.059-.34.027-.219.059m9.648.445l-.367.406.406-.367c.223-.203.406-.383.406-.406 0-.098-.102-.012-.445.367m2.688 5.438c.301.359.57.656.602.656.082 0-.687-.941-.93-1.137-.121-.098.027.121.328.48m-22.078.75h6.875c1.871-.02.305-.035-3.477-.035l-3.398.035m-3.48 8.031l.035 3.781v-7.562c-.02-2.078-.035-.379-.035 3.781m19.066-5.531c.164.223.316.406.34.406.094 0-.215-.469-.418-.637-.137-.109-.105-.02.078.23m9.027 3.406c0 .242.027.34.059.219s.031-.316 0-.437-.059-.023-.059.219m-7.617.313c0 .344.027.469.055.281s.027-.473 0-.625-.055 0-.055.344M23.184 85.5l.035 6.219V79.281c-.02-3.422-.035-.621-.035 6.219m51.355-10.562c0 .414.023.566.051.34s.027-.559 0-.75-.051-.004-.051.41m7.613 2.188c0 .242.027.34.059.219s.031-.316 0-.437-.059-.023-.059.219m-12.902 4c-.25.082-.262.102-.062.105a1.53 1.53 0 0 0 .5-.105c.32-.137-.012-.137-.437 0m9.93 2.906l-.367.406.406-.367c.223-.203.406-.383.406-.406 0-.098-.102-.012-.445.367m-1.062 1.063l-.43.469.469-.43c.258-.238.469-.449.469-.469 0-.098-.105-.008-.508.43m-26.328 3.75h11.125c3.039-.02.516-.035-5.602-.035l-5.523.035m-29.258 9.094c0 .273.027.371.059.219s.027-.383-.004-.5-.055.008-.055.281m80.414.133c-.047.184-.059.359-.027.387s.09-.094.137-.277.059-.359.027-.387-.09.094-.137.277m-80.32.734c0 .168.047.336.102.367s.078-.102.051-.305c-.066-.445-.152-.48-.152-.062m.773.008a2.29 2.29 0 0 0 .102.563c.078.246.102.262.102.063a2.29 2.29 0 0 0-.102-.562c-.078-.246-.102-.262-.102-.062m79.309.406c-.152.57-.203.957-.102.781.125-.211.289-1 .211-1-.027 0-.074.098-.109.219m-79.824.418a1.8 1.8 0 0 0 .125.551c.078.176.09.098.035-.25-.09-.582-.172-.738-.16-.301m80.27.695c-.078.25-.09.406-.031.344.125-.125.313-.801.227-.801-.031 0-.117.207-.195.457m-79.207.418c.047.172.137.398.199.5.082.129.094.094.035-.125-.047-.172-.137-.398-.199-.5-.082-.129-.094-.094-.035.125m77.707 1.465c-.156.316-.262.594-.238.617s.172-.215.328-.527.262-.594.238-.617-.176.211-.328.527m-76.926.406c.117.27.227.441.25.383.039-.113-.316-.879-.406-.879-.031 0 .043.223.156.496m-.594.215c-.012.238.27.789.402.789.07 0 .063-.07-.016-.164s-.191-.301-.258-.469-.125-.238-.129-.156m76.75.734c-.211.313-.383.602-.383.641 0 .086.359-.383.664-.867.355-.566.133-.387-.281.227m.684.254c-.117.176-.191.344-.164.371s.148-.121.27-.324c.266-.457.188-.492-.105-.047m-75.453.926a6.51 6.51 0 0 0 .84 1c.453.414.449.402-.082-.211l-.844-1c-.156-.195-.117-.098.086.211m74.762.102c-.172.254-.367.504-.437.555-.082.059-.078.09.008.094.133 0 .852-.996.773-1.07-.02-.023-.176.168-.344.422m-74.254 1.555c.305.328.574.594.594.594.094 0-.008-.113-.559-.629l-.594-.559.559.594m73.035-.062c-.191.188-.574.527-.844.75s-.437.406-.371.406.488-.34.934-.75.773-.75.723-.75-.246.156-.441.344m-1.656.469c-.16.172-.363.313-.453.313s-.191.055-.234.125c-.125.203.355-.035.82-.406.234-.187.367-.34.297-.344s-.27.141-.43.313m-69.637.109c.168.203.637.512.637.418 0-.023-.184-.176-.406-.34-.25-.184-.34-.215-.23-.078m-.738.355c.172.211 1.051.848 1.172.848.078 0-.027-.113-.234-.246l-.687-.465c-.172-.117-.285-.18-.25-.137m68.938.418c-.273.168-.445.301-.375.301.148.004.938-.465.938-.559 0-.078.027-.09-.562.258m.98.281c-.289.184-.57.387-.625.449-.137.148.68-.297 1.066-.582.465-.34.141-.242-.441.133m-66.031.695c.027.023.277.078.551.121.348.055.426.043.25-.035-.238-.109-.91-.18-.801-.086m62.426.086c-.176.078-.098.09.25.035.273-.043.523-.098.551-.121.109-.094-.562-.023-.801.086m2 .117c-.242.102-.242.109.023.117.152.004.309-.047.352-.117.09-.148-.031-.148-.375 0M33.313 109a4.11 4.11 0 0 0 .75.098c.316 0 .297-.02-.125-.105-.633-.129-1.145-.125-.625.008m59 0l-.375.094.375.004A2.73 2.73 0 0 0 93 109l.313-.102-.312.004c-.172 0-.48.047-.687.098m-60.687.5c.102.066.328.117.5.109l.313-.008-.312-.102c-.48-.156-.738-.156-.5 0m62.5 0l-.312.102.313.008c.172.008.398-.043.5-.109.238-.156-.02-.156-.5 0m-60.957.281c.184.113 59.691.105 59.984-.008.117-.047-13.363-.086-29.957-.086l-30.027.094" fill="rgb(51.764706%,45.490196%,61.960784%)"/></svg>