<svg xmlns="http://www.w3.org/2000/svg" width="166.667" height="166.667" viewBox="0 0 125 125" fill-rule="evenodd" xmlns:v="https://vecta.io/nano"><path d="M60.063 1.383c-2.434.102-5.937.445-7.562.746-2.723.508-6.312 1.398-8.625 2.137-6.223 1.996-12.574 5.266-17.738 9.133l-1.508 1.129c-.973.719-5.645 4.926-6.066 5.461-.137.176-.758.875-1.375 1.551-6.66 7.289-11.723 16.648-13.945 25.781l-.484 1.93C1.234 54.836.906 66.918 2.113 72.941l.324 1.621c.586 2.914 1.656 6.773 2.523 9.102.836 2.242 2.609 6.293 3.164 7.234.063.102.289.523.508.934 1.367 2.574 4.195 6.879 5.867 8.922 3.18 3.895 5.254 6 9.133 9.285 5.504 4.66 14.266 9.391 20.992 11.332 2.863.828 3.238.918 6.188 1.516 2.32.473 2.637.523 4.375.73 5.086.605 13.004.578 15.738-.051.281-.066.75-.121 1.043-.121a5.89 5.89 0 0 0 1.063-.129c.473-.113 1.582-.34 3.031-.625.457-.09 1.156-.25 2.688-.621.988-.238 4.961-1.492 5.563-1.754.137-.062.559-.227.938-.367s.801-.309.938-.371.617-.266 1.063-.445c1.008-.41 4.566-2.152 5.52-2.703l1.563-.898c2.102-1.207 6.777-4.496 8.156-5.734l4.641-4.266c3.684-4.031 6.645-7.863 8.434-10.906 1.715-2.918 3.219-5.828 4.016-7.781l.422-.996c.805-1.758 2.098-5.727 2.734-8.418 2.039-8.566 2.332-16.34.941-24.937-.383-2.371-1.363-6.539-1.82-7.75a8.47 8.47 0 0 1-.234-.746c-.793-3.113-3.68-9.379-6.16-13.387-1.078-1.742-3.547-5.316-3.828-5.547-.043-.035-.27-.316-.508-.625a38.69 38.69 0 0 0-2.457-2.867 69.96 69.96 0 0 1-1.312-1.43c-.687-.785-.805-.902-2.227-2.184l-1.309-1.195c-1.02-1.004-5.648-4.574-6.633-5.117-.137-.074-.953-.59-1.816-1.141-8.227-5.277-19.289-8.738-28.996-9.066l-2.937-.117c-.414-.023-1.93.004-3.375.063m8.375 2.176c2.813.297 5.086.672 8.188 1.344 3.707.809 9.281 2.832 12.875 4.68 2.566 1.316 2.938 1.52 4.438 2.426 1.984 1.195 4.258 2.801 6.375 4.496 2.133 1.711 1.898 1.496 4.535 4.098 3.168 3.125 5.262 5.637 7.715 9.262.828 1.227 1.043 1.57 1.672 2.68.176.309.391.637.48.727.203.211.207.641.004.664-.086.012-12.391.027-27.344.031-31.566.016-28.82-.105-33.625 1.457-7.855 2.547-13.996 8.281-17.555 16.387-1.437 3.273-2.07 6.633-2.066 10.949 0 1.859.059 3.094.184 3.762.207 1.145.238 2.059.074 2.059-.105 0-.348-.375-1.012-1.559l-1.266-2.215-.984-1.762c0-.023-.383-.68-.852-1.461l-1.23-2.105c-.207-.379-.711-1.25-1.125-1.934l-1.238-2.117-.641-1.125c-.082-.137-.254-.445-.383-.687s-.434-.777-.676-1.187c-.598-1-1.434-2.461-1.887-3.297-.203-.379-.449-.777-.547-.883s-.172-.238-.172-.285-.133-.293-.293-.551-.461-.773-.668-1.152a101 101 0 0 0-1.105-1.93l-2.336-4.055-1.445-2.492-1.738-3.031a61.74 61.74 0 0 0-1.25-2.148 24.73 24.73 0 0 1-.539-.973l-.391-.723 1.031-1.52c1.508-2.23 2.691-3.75 4.656-5.988.594-.676 3.773-3.883 4.727-4.77 2.355-2.18 6.824-5.465 9.516-6.988 2.77-1.566 5.391-2.883 7.148-3.594l1.375-.57c2.359-1.105 7.922-2.625 12.566-3.426 3.863-.668 10.918-.902 14.809-.492M12.715 33.547c.359.645.77 1.328.906 1.512.141.191.254.371.254.406s.254.492.563 1.012.563.973.563.996.176.344.391.707L16 39.215l1.957 3.332c.16.258.293.488.293.52s.336.625.75 1.324l.75 1.305a91.9 91.9 0 0 0 1.621 2.809c.262.434 1.727 2.969 2.129 3.691l2.254 3.914 3.621 6.289a25.52 25.52 0 0 0 .801 1.371 28.52 28.52 0 0 1 .781 1.316l1.613 2.809 1.66 2.93a22.39 22.39 0 0 0 .832 1.434c.223.344.566.926.766 1.293l.484.875c.07.109.344.594.617 1.074s.586 1.012.703 1.184a173.55 173.55 0 0 1 1.156 1.766c2.742 4.203 7.359 8.281 11.461 10.113l1.781.77c5.453 2.301 13.262 2.734 18.719 1.039 4.398-1.363 7.051-2.754 10.5-5.488 1.332-1.059 1.367-.941.262.898-.488.816-.887 1.516-.887 1.559s-.105.23-.234.414-.652 1.066-1.168 1.961l-2.445 4.238-.871 1.496c-.406.684-.773 1.332-.82 1.434a4.02 4.02 0 0 1-.207.375 337.88 337.88 0 0 0-3.125 5.359l-2.879 4.988-2.348 4.055-1.668 2.867a7.84 7.84 0 0 0-.32.559c-.047.105-.496.875-1 1.715s-.914 1.555-.914 1.594-.242.469-.539.965l-.895 1.527c-.645 1.148-.73 1.199-1.809 1.117-1.566-.117-4.523-.434-5.258-.559-3.27-.566-5.359-1.004-6.875-1.434-5.203-1.473-9.137-3.117-14.199-5.934-2.832-1.578-7.387-4.891-10.004-7.281-.074-.07-.273-.242-.437-.387-1.312-1.148-5.586-5.746-6.547-7.039l-.945-1.258c-1.234-1.633-3.742-5.437-3.742-5.68 0-.047-.078-.172-.176-.277-.52-.582-3.488-6.883-4.117-8.738l-.648-1.871c-.773-2.211-1.68-5.695-2.059-7.918l-.25-1.371c-.059-.273-.172-1.062-.25-1.746l-.273-2.246c-.074-.547-.16-2.652-.191-4.676-.172-10.32 2.305-20.395 7.168-29.176l.723-1.312c.422-.773.461-.824.617-.773.078.023.438.57.797 1.219m54.172 1.805c3.023.461 5.426 1.211 8.176 2.547 3.594 1.746 7.957 5.266 9.707 7.836.223.324.434.617.473.648.855.746 3.074 4.949 3.855 7.297.367 1.105.473 1.461.824 2.805 1.078 4.105.898 9.5-.469 14.152l-.332 1.121c-.082.273-.187.555-.238.625s-.195.402-.32.746a25.36 25.36 0 0 1-1.191 2.559c-.059.102-.418.703-.797 1.332-2.789 4.676-7.504 8.809-12.512 10.969-2.211.953-3.492 1.336-6.875 2.039-3.156.656-9.406.141-12.812-1.062a33.22 33.22 0 0 0-.937-.309c-.988-.301-3.25-1.379-4.832-2.305-4.254-2.484-8.547-7.203-10.668-11.727-.77-1.633-.879-1.895-1.219-2.93-1.168-3.562-1.465-5.379-1.465-8.977 0-3.062.207-4.68.934-7.293l.234-.875c.871-3.641 4.051-8.641 7.652-12.043 1.461-1.375 4.609-3.73 4.992-3.73.035 0 .273-.129.531-.293 4.219-2.641 11.684-3.992 17.289-3.133m48.684-.133c.328.215 1.434 2.457 2.523 5.117 1.695 4.141 3.047 8.867 3.539 12.375.059.43.16.992.227 1.246s.156.945.203 1.527.133 1.391.203 1.789c.121.707.18 10.219.063 10.402-.031.051-.117.766-.195 1.59s-.219 1.945-.32 2.492l-.234 1.371c-.031.207-.145.797-.25 1.309l-.32 1.559c-.219 1.098-.977 3.719-1.656 5.738-1.316 3.91-2.922 7.375-5.266 11.344-1.219 2.07-2.371 3.75-4.395 6.41-3.184 4.191-9.215 9.684-14.129 12.875-.687.449-1.531.977-1.871 1.176l-.828.488c-.109.07-.594.332-1.074.586a44.89 44.89 0 0 0-1.488.813c-6.383 3.707-17.918 6.625-26.258 6.641-2.18.004-2.211-.023-1.449-1.227a34.47 34.47 0 0 0 .934-1.594 87.76 87.76 0 0 1 1.84-3.223 49.41 49.41 0 0 0 .867-1.496 30.29 30.29 0 0 1 .5-.875 307.07 307.07 0 0 0 1.891-3.242l3.313-5.734 1.441-2.43c.117-.172.574-.957 1.02-1.746l1.813-3.18 1.859-3.242 1.617-2.742a25.38 25.38 0 0 0 .84-1.437c.238-.445.605-1.098.816-1.449a57.88 57.88 0 0 0 .758-1.309 65.5 65.5 0 0 1 1.137-1.918c.418-.684.832-1.387.914-1.559s.43-.785.77-1.371l.824-1.434 1.406-2.43c1.398-2.426 2.125-3.922 2.816-5.797 1.109-3.035 1.195-3.406 1.656-7.172.145-1.203.145-4.406 0-5.609-.379-3.117-.496-3.793-.805-4.613-.09-.242-.262-.773-.387-1.187a23.81 23.81 0 0 0-.816-2.242l-.363-.875c-.273-.645-.301-.707-.699-1.434-3.574-6.57-8.445-10.918-15.242-13.617-1.523-.605-1.543-.617-1.242-.73.504-.191 43.207-.125 43.5.066m-53.32 4.77c-8.723.602-16.117 5.199-19.523 12.137-1.91 3.891-2.527 6.449-2.527 10.531-.004 14.648 13.426 25.391 27.738 22.184 7.527-1.691 14.035-7.473 16.477-14.641 4.82-14.164-5.105-29.27-19.789-30.113l-1.562-.105a6.41 6.41 0 0 0-.812.008M67 41.504c2.473.559 3.395.863 5.188 1.719 17.148 8.164 16.277 32.133-1.437 39.609-8.937 3.773-20.133.219-25.848-8.207-7.719-11.379-2.57-27.266 10.41-32.129 3.457-1.297 8.473-1.723 11.688-.992" fill="rgb(93.333333%,95.686275%,98.823529%)"/><path d="M0 62.469v62.469h125V0H0v62.469M66.375 1.438c9.707.328 20.77 3.789 28.996 9.066l1.816 1.141c.984.543 5.613 4.113 6.633 5.117.074.074.664.609 1.309 1.195 1.422 1.281 1.539 1.398 2.227 2.184a69.96 69.96 0 0 0 1.313 1.43 38.69 38.69 0 0 1 2.457 2.867c.238.309.465.59.508.625.281.23 2.75 3.805 3.828 5.547 2.48 4.008 5.367 10.273 6.16 13.387a8.47 8.47 0 0 0 .234.746c.293.781 1.039 3.742 1.512 6.008 1.883 9.031 1.391 20.293-1.266 29.113-.672 2.227-1.625 4.949-2.102 5.984-.062.137-.25.586-.422.996-.797 1.953-2.301 4.863-4.016 7.781-1.789 3.043-4.75 6.875-8.434 10.906-.375.414-1.152 1.125-4.641 4.266-1.379 1.238-6.055 4.527-8.156 5.734l-1.562.898c-.953.551-4.512 2.293-5.52 2.703l-1.062.445c-.137.063-.559.23-.937.371s-.801.305-.937.367c-.602.262-4.574 1.516-5.562 1.754l-2.687.621-3.031.625a5.89 5.89 0 0 1-1.062.129c-.293 0-.762.055-1.043.121-2.734.629-10.652.656-15.738.051-1.738-.207-2.055-.258-4.375-.73-2.949-.598-3.324-.687-6.187-1.516-6.727-1.941-15.488-6.672-20.992-11.332-3.879-3.285-5.953-5.391-9.133-9.285-1.672-2.043-4.5-6.348-5.867-8.922l-.508-.934c-.555-.941-2.328-4.992-3.164-7.234-.867-2.328-1.937-6.187-2.523-9.102l-.324-1.621c-1.207-6.023-.879-18.105.645-23.691.066-.238.281-1.109.484-1.93 1.902-7.816 6.184-16.375 11.445-22.883a45.9 45.9 0 0 1 2.5-2.898l1.375-1.551c.422-.535 5.094-4.742 6.066-5.461l1.508-1.129c3.527-2.641 7.664-5.035 12.176-7.043 3.879-1.723 9.094-3.277 14.188-4.227 2.484-.461 8.828-.93 10.938-.809.414.023 1.734.078 2.938.117m-9.621 2.184c-5.395.625-12.559 2.387-15.691 3.855-.137.063-.758.32-1.375.57-1.758.711-4.379 2.027-7.148 3.594-2.691 1.523-7.16 4.809-9.516 6.988-.953.887-4.133 4.094-4.727 4.77-1.965 2.238-3.148 3.758-4.656 5.988l-1.031 1.52.391.723a24.73 24.73 0 0 0 .539.973 61.74 61.74 0 0 1 1.25 2.148l1.738 3.031 1.445 2.492 2.336 4.055 1.105 1.93c.207.379.508.898.668 1.152s.293.504.293.551.078.176.172.285.344.504.547.883c.453.836 1.289 2.297 1.887 3.297.242.41.547.945.676 1.188s.301.551.383.688a50.21 50.21 0 0 1 .641 1.125l1.238 2.117c.414.684.918 1.555 1.125 1.934s.762 1.324 1.23 2.105l.852 1.461c0 .023.441.816.984 1.762l1.266 2.215c.664 1.184.906 1.559 1.012 1.559.164 0 .133-.914-.074-2.059-.547-3-.125-8.625.891-11.906.59-1.914.695-2.184 1.676-4.301C40.035 43.48 46.5 37.773 53.75 35.422c4.805-1.562 2.059-1.441 33.625-1.457l27.344-.031c.203-.023.199-.453-.004-.664-.09-.09-.305-.418-.48-.727-.629-1.109-.844-1.453-1.672-2.68-2.453-3.625-4.547-6.137-7.715-9.262-2.637-2.602-2.402-2.387-4.535-4.098-2.117-1.695-4.391-3.301-6.375-4.496-1.5-.906-1.871-1.109-4.437-2.426-2.953-1.52-6.598-2.934-10.289-3.992-6.863-1.973-15.727-2.746-22.457-1.969m-45.082 28.82c-.055.09-.223.387-.371.66l-.723 1.313C5.715 43.195 3.238 53.27 3.41 63.59c.031 2.023.117 4.129.191 4.676l.273 2.246c.078.684.191 1.473.25 1.746a62.45 62.45 0 0 1 .25 1.371c.379 2.223 1.285 5.707 2.059 7.918l.648 1.871c.629 1.855 3.598 8.156 4.117 8.738.098.105.176.23.176.277 0 .242 2.508 4.047 3.742 5.68l.945 1.258c.961 1.293 5.234 5.891 6.547 7.039l.438.387c2.617 2.391 7.172 5.703 10.004 7.281 5.063 2.816 8.996 4.461 14.199 5.934 1.516.43 3.605.867 6.875 1.434.734.125 3.691.441 5.258.559 1.078.082 1.164.031 1.809-1.117l.895-1.527c.297-.496.539-.93.539-.965s.41-.754.914-1.594l1-1.715a7.84 7.84 0 0 1 .32-.559 417.97 417.97 0 0 0 1.668-2.867l2.348-4.055 2.879-4.988a337.88 337.88 0 0 1 3.125-5.359 4.02 4.02 0 0 0 .207-.375c.047-.102.414-.75.82-1.434l.871-1.496 2.445-4.238 1.168-1.961c.129-.184.234-.371.234-.414s.398-.742.887-1.559c1.105-1.84 1.07-1.957-.262-.898-3.449 2.734-6.102 4.125-10.5 5.488-5.125 1.594-12.422 1.313-17.812-.684-.469-.172-.668-.254-1.719-.699-4.848-2.055-9.43-5.941-12.43-10.539l-1.156-1.766c-.117-.172-.434-.703-.703-1.184l-.617-1.074c-.07-.109-.285-.504-.484-.875s-.543-.949-.766-1.293a22.39 22.39 0 0 1-.832-1.434 138.77 138.77 0 0 0-1.66-2.93l-1.613-2.809a28.52 28.52 0 0 0-.781-1.316 25.52 25.52 0 0 1-.801-1.371c-.402-.742-2.059-3.621-3.621-6.289L23.5 52.195l-2.129-3.691a91.9 91.9 0 0 1-1.621-2.809c0-.02-.336-.609-.75-1.305s-.75-1.293-.75-1.324-.133-.262-.293-.52c-.25-.395-1.121-1.879-1.957-3.332-.117-.207-.391-.672-.609-1.035S15 37.5 15 37.473s-.254-.473-.562-.996-.562-.977-.562-1.012-.113-.215-.254-.406c-.137-.184-.547-.867-.906-1.512-.656-1.184-.859-1.398-1.043-1.105m48.641 2.734c-3.75.395-8.301 1.797-10.715 3.309-.258.164-.496.293-.531.293-.383 0-3.531 2.355-4.992 3.73-3.602 3.402-6.781 8.402-7.652 12.043l-.234.875c-.727 2.613-.934 4.23-.934 7.293 0 3.598.297 5.414 1.465 8.977.34 1.035.449 1.297 1.219 2.93 2.121 4.523 6.414 9.242 10.668 11.727 1.582.926 3.844 2.004 4.832 2.305l.938.309c3.406 1.203 9.656 1.719 12.813 1.063 3.383-.703 4.664-1.086 6.875-2.039 5.008-2.16 9.723-6.293 12.512-10.969l.797-1.332a25.36 25.36 0 0 0 1.191-2.559c.125-.344.27-.68.32-.746s.156-.352.238-.625l.332-1.121c1.367-4.652 1.547-10.047.469-14.152-.68-2.586-1.141-3.898-2.02-5.734-.578-1.215-2.316-4.066-2.66-4.367-.039-.031-.25-.324-.473-.648-1.109-1.629-4.223-4.48-6.707-6.148-4.922-3.301-11.863-5.023-17.75-4.41m11.758-.023c-.301.113-.281.125 1.242.73C80.109 38.582 84.98 42.93 88.555 49.5c.398.727.426.789.699 1.434l.363.875a23.81 23.81 0 0 1 .816 2.242c.125.414.297.945.387 1.188.309.82.426 1.496.805 4.613.145 1.203.145 4.406 0 5.609-.461 3.766-.547 4.137-1.656 7.172-.691 1.875-1.418 3.371-2.816 5.797l-1.406 2.43-.824 1.434-.77 1.371c-.082.172-.496.875-.914 1.559a65.5 65.5 0 0 0-1.137 1.918 57.88 57.88 0 0 1-.758 1.309c-.211.352-.578 1.004-.816 1.449a25.38 25.38 0 0 1-.84 1.438c-.223.34-.949 1.574-1.617 2.742l-1.859 3.242-1.812 3.18-1.02 1.746c-.121.168-.77 1.266-1.441 2.43l-3.312 5.734-1.891 3.242a30.29 30.29 0 0 0-.5.875 49.41 49.41 0 0 1-.867 1.496 87.76 87.76 0 0 0-1.84 3.223 34.47 34.47 0 0 1-.934 1.594c-.762 1.203-.73 1.23 1.449 1.227 8.34-.016 19.875-2.934 26.258-6.641a44.89 44.89 0 0 1 1.488-.812l1.074-.586c.113-.07.484-.289.828-.488 1.695-.988 4.52-2.934 6.059-4.176 2.137-1.719 3.039-2.531 5.195-4.68 2.051-2.043 3.836-3.996 4.746-5.195 2.023-2.66 3.176-4.34 4.395-6.41 2.344-3.969 3.949-7.434 5.266-11.344.68-2.02 1.438-4.641 1.656-5.738l.32-1.559.25-1.309a90.36 90.36 0 0 1 .234-1.371c.102-.547.242-1.668.32-2.492s.164-1.539.195-1.59c.117-.184.059-9.695-.062-10.402-.07-.398-.16-1.203-.203-1.789s-.137-1.27-.203-1.527-.168-.816-.227-1.246c-.492-3.508-1.844-8.234-3.539-12.375-1.09-2.66-2.195-4.902-2.523-5.117-.293-.191-42.996-.258-43.5-.066m-7.445 4.934c7.926.457 15.418 5.594 18.867 12.934 5.746 12.234-.086 26.184-12.992 31.086-4.75 1.805-11.18 1.676-16-.32-8.937-3.699-14.305-11.629-14.301-21.129 0-4.082.617-6.641 2.527-10.531 2.738-5.582 9.324-10.512 15.586-11.668 1.422-.266 4.207-.543 4.75-.477.137.016.84.066 1.563.105m-4 1.141c-9.914.938-18.234 9.258-19.246 19.246-1.562 15.414 13.137 27.367 28.059 22.813 2.605-.797 5.492-2.422 7.73-4.359 14.754-12.766 5.891-37.34-13.605-37.707-1.305-.027-2.629-.023-2.937.008" fill="rgb(22.352941%,52.156863%,98.431373%)"/></svg>