<?xml version="1.0" encoding="UTF-8"?>
<svg xmlns="http://www.w3.org/2000/svg" xmlns:xlink="http://www.w3.org/1999/xlink" width="125pt" height="125pt" viewBox="0 0 125 125" version="1.1">
<g id="surface1">
<path style=" stroke:none;fill-rule:evenodd;fill:rgb(93.333333%,95.686275%,98.823529%);fill-opacity:1;" d="M 60.0625 1.382812 C 57.628906 1.484375 54.125 1.828125 52.5 2.128906 C 49.777344 2.636719 46.1875 3.527344 43.875 4.265625 C 37.652344 6.261719 31.300781 9.53125 26.136719 13.398438 C 25.492188 13.882812 24.8125 14.390625 24.628906 14.527344 C 23.65625 15.246094 18.984375 19.453125 18.5625 19.988281 C 18.425781 20.164062 17.804688 20.863281 17.1875 21.539062 C 10.527344 28.828125 5.464844 38.1875 3.242188 47.320312 C 3.039062 48.140625 2.824219 49.011719 2.757812 49.25 C 1.234375 54.835938 0.90625 66.917969 2.113281 72.941406 C 2.175781 73.25 2.324219 73.980469 2.4375 74.5625 C 3.023438 77.476562 4.09375 81.335938 4.960938 83.664062 C 5.796875 85.90625 7.570312 89.957031 8.125 90.898438 C 8.1875 91 8.414062 91.421875 8.632812 91.832031 C 10 94.40625 12.828125 98.710938 14.5 100.753906 C 17.679688 104.648438 19.753906 106.753906 23.632812 110.039062 C 29.136719 114.699219 37.898438 119.429688 44.625 121.371094 C 47.488281 122.199219 47.863281 122.289062 50.8125 122.886719 C 53.132812 123.359375 53.449219 123.410156 55.1875 123.617188 C 60.273438 124.222656 68.191406 124.195312 70.925781 123.566406 C 71.207031 123.5 71.675781 123.445312 71.96875 123.445312 C 72.257812 123.441406 72.734375 123.386719 73.03125 123.316406 C 73.503906 123.203125 74.613281 122.976562 76.0625 122.691406 C 76.519531 122.601562 77.21875 122.441406 78.75 122.070312 C 79.738281 121.832031 83.710938 120.578125 84.3125 120.316406 C 84.449219 120.253906 84.871094 120.089844 85.25 119.949219 C 85.628906 119.808594 86.050781 119.640625 86.1875 119.578125 C 86.324219 119.515625 86.804688 119.3125 87.25 119.132812 C 88.257812 118.722656 91.816406 116.980469 92.769531 116.429688 C 93.160156 116.207031 93.863281 115.800781 94.332031 115.53125 C 96.433594 114.324219 101.109375 111.035156 102.488281 109.796875 C 105.976562 106.65625 106.753906 105.945312 107.128906 105.53125 C 110.8125 101.5 113.773438 97.667969 115.5625 94.625 C 117.277344 91.707031 118.78125 88.796875 119.578125 86.84375 C 119.75 86.433594 119.9375 85.984375 120 85.847656 C 120.804688 84.089844 122.097656 80.121094 122.734375 77.429688 C 124.773438 68.863281 125.066406 61.089844 123.675781 52.492188 C 123.292969 50.121094 122.3125 45.953125 121.855469 44.742188 C 121.785156 44.558594 121.679688 44.222656 121.621094 43.996094 C 120.828125 40.882812 117.941406 34.617188 115.460938 30.609375 C 114.382812 28.867188 111.914062 25.292969 111.632812 25.0625 C 111.589844 25.027344 111.363281 24.746094 111.125 24.4375 C 110.441406 23.546875 109.5 22.445312 108.667969 21.570312 C 108.246094 21.125 107.65625 20.480469 107.355469 20.140625 C 106.667969 19.355469 106.550781 19.238281 105.128906 17.957031 C 104.484375 17.371094 103.894531 16.835938 103.820312 16.761719 C 102.800781 15.757812 98.171875 12.1875 97.1875 11.644531 C 97.050781 11.570312 96.234375 11.054688 95.371094 10.503906 C 87.144531 5.226562 76.082031 1.765625 66.375 1.4375 C 65.171875 1.398438 63.851562 1.34375 63.4375 1.320312 C 63.023438 1.296875 61.507812 1.324219 60.0625 1.382812 M 68.4375 3.558594 C 71.25 3.855469 73.523438 4.230469 76.625 4.902344 C 80.332031 5.710938 85.90625 7.734375 89.5 9.582031 C 92.066406 10.898438 92.4375 11.101562 93.9375 12.007812 C 95.921875 13.203125 98.195312 14.808594 100.3125 16.503906 C 102.445312 18.214844 102.210938 18 104.847656 20.601562 C 108.015625 23.726562 110.109375 26.238281 112.5625 29.863281 C 113.390625 31.089844 113.605469 31.433594 114.234375 32.542969 C 114.410156 32.851562 114.625 33.179688 114.714844 33.269531 C 114.917969 33.480469 114.921875 33.910156 114.71875 33.933594 C 114.632812 33.945312 102.328125 33.960938 87.375 33.964844 C 55.808594 33.980469 58.554688 33.859375 53.75 35.421875 C 45.894531 37.96875 39.753906 43.703125 36.195312 51.808594 C 34.757812 55.082031 34.125 58.441406 34.128906 62.757812 C 34.128906 64.617188 34.1875 65.851562 34.3125 66.519531 C 34.519531 67.664062 34.550781 68.578125 34.386719 68.578125 C 34.28125 68.578125 34.039062 68.203125 33.375 67.019531 C 33.21875 66.746094 32.652344 65.75 32.109375 64.804688 C 31.566406 63.859375 31.125 63.066406 31.125 63.042969 C 31.125 63.019531 30.742188 62.363281 30.273438 61.582031 C 29.804688 60.800781 29.253906 59.851562 29.042969 59.476562 C 28.835938 59.097656 28.332031 58.226562 27.917969 57.542969 C 27.507812 56.859375 26.949219 55.902344 26.679688 55.425781 C 26.410156 54.945312 26.125 54.4375 26.039062 54.300781 C 25.957031 54.164062 25.785156 53.855469 25.65625 53.613281 C 25.527344 53.371094 25.222656 52.835938 24.980469 52.425781 C 24.382812 51.425781 23.546875 49.964844 23.09375 49.128906 C 22.890625 48.75 22.644531 48.351562 22.546875 48.246094 C 22.453125 48.136719 22.375 48.007812 22.375 47.960938 C 22.375 47.914062 22.242188 47.667969 22.082031 47.410156 C 21.921875 47.15625 21.621094 46.636719 21.414062 46.257812 C 21.207031 45.882812 20.710938 45.011719 20.308594 44.328125 C 19.683594 43.25 18.945312 41.972656 17.972656 40.273438 C 17.835938 40.035156 17.183594 38.910156 16.527344 37.78125 C 15.871094 36.648438 15.085938 35.285156 14.789062 34.75 C 14.292969 33.863281 13.953125 33.28125 13.539062 32.601562 C 13.457031 32.464844 13.210938 32.03125 13 31.628906 L 12.609375 30.90625 L 13.640625 29.386719 C 15.148438 27.15625 16.332031 25.636719 18.296875 23.398438 C 18.890625 22.722656 22.070312 19.515625 23.023438 18.628906 C 25.378906 16.449219 29.847656 13.164062 32.539062 11.640625 C 35.308594 10.074219 37.929688 8.757812 39.6875 8.046875 C 40.304688 7.796875 40.925781 7.539062 41.0625 7.476562 C 43.421875 6.371094 48.984375 4.851562 53.628906 4.050781 C 57.492188 3.382812 64.546875 3.148438 68.4375 3.558594 M 12.714844 33.546875 C 13.074219 34.191406 13.484375 34.875 13.621094 35.058594 C 13.761719 35.25 13.875 35.429688 13.875 35.464844 C 13.875 35.5 14.128906 35.957031 14.4375 36.476562 C 14.746094 37 15 37.449219 15 37.472656 C 15 37.5 15.175781 37.816406 15.390625 38.179688 C 15.609375 38.542969 15.882812 39.007812 16 39.214844 C 16.835938 40.667969 17.707031 42.152344 17.957031 42.546875 C 18.117188 42.804688 18.25 43.035156 18.25 43.066406 C 18.25 43.097656 18.585938 43.691406 19 44.390625 C 19.414062 45.085938 19.75 45.675781 19.75 45.695312 C 19.75 45.730469 20.976562 47.859375 21.371094 48.503906 C 21.632812 48.9375 23.097656 51.472656 23.5 52.195312 C 24.050781 53.179688 24.6875 54.289062 25.753906 56.109375 C 27.316406 58.777344 28.972656 61.65625 29.375 62.398438 C 29.59375 62.804688 29.953125 63.421875 30.175781 63.769531 C 30.398438 64.117188 30.75 64.710938 30.957031 65.085938 C 31.167969 65.464844 31.890625 66.726562 32.570312 67.894531 C 33.246094 69.058594 33.992188 70.378906 34.230469 70.824219 C 34.464844 71.269531 34.839844 71.914062 35.0625 72.257812 C 35.285156 72.601562 35.628906 73.183594 35.828125 73.550781 C 36.027344 73.921875 36.242188 74.316406 36.3125 74.425781 C 36.382812 74.535156 36.65625 75.019531 36.929688 75.5 C 37.199219 75.980469 37.515625 76.511719 37.632812 76.683594 C 37.75 76.855469 38.269531 77.648438 38.789062 78.449219 C 41.53125 82.652344 46.148438 86.730469 50.25 88.5625 C 50.78125 88.800781 51.042969 88.914062 52.03125 89.332031 C 57.484375 91.632812 65.292969 92.066406 70.75 90.371094 C 75.148438 89.007812 77.800781 87.617188 81.25 84.882812 C 82.582031 83.824219 82.617188 83.941406 81.511719 85.78125 C 81.023438 86.597656 80.625 87.296875 80.625 87.339844 C 80.625 87.382812 80.519531 87.570312 80.390625 87.753906 C 80.265625 87.941406 79.738281 88.820312 79.222656 89.714844 C 77.957031 91.902344 76.949219 93.648438 76.777344 93.953125 C 76.699219 94.089844 76.308594 94.761719 75.90625 95.449219 C 75.5 96.132812 75.132812 96.78125 75.085938 96.882812 C 75.039062 96.984375 74.945312 97.152344 74.878906 97.257812 C 74.714844 97.5 72.34375 101.570312 71.753906 102.617188 C 71.210938 103.574219 70.136719 105.441406 68.875 107.605469 C 68.375 108.464844 67.320312 110.285156 66.527344 111.660156 C 65.734375 113.03125 64.984375 114.320312 64.859375 114.527344 C 64.730469 114.730469 64.589844 114.984375 64.539062 115.085938 C 64.492188 115.191406 64.042969 115.960938 63.539062 116.800781 C 63.035156 117.640625 62.625 118.355469 62.625 118.394531 C 62.625 118.429688 62.382812 118.863281 62.085938 119.359375 C 61.789062 119.855469 61.386719 120.542969 61.191406 120.886719 C 60.546875 122.035156 60.460938 122.085938 59.382812 122.003906 C 57.816406 121.886719 54.859375 121.570312 54.125 121.445312 C 50.855469 120.878906 48.765625 120.441406 47.25 120.011719 C 42.046875 118.539062 38.113281 116.894531 33.050781 114.078125 C 30.21875 112.5 25.664062 109.1875 23.046875 106.796875 C 22.972656 106.726562 22.773438 106.554688 22.609375 106.410156 C 21.296875 105.261719 17.023438 100.664062 16.0625 99.371094 C 15.925781 99.183594 15.5 98.617188 15.117188 98.113281 C 13.882812 96.480469 11.375 92.675781 11.375 92.433594 C 11.375 92.386719 11.296875 92.261719 11.199219 92.15625 C 10.679688 91.574219 7.710938 85.273438 7.082031 83.417969 C 6.976562 83.109375 6.683594 82.265625 6.433594 81.546875 C 5.660156 79.335938 4.753906 75.851562 4.375 73.628906 C 4.292969 73.148438 4.179688 72.53125 4.125 72.257812 C 4.066406 71.984375 3.953125 71.195312 3.875 70.511719 C 3.796875 69.824219 3.671875 68.816406 3.601562 68.265625 C 3.527344 67.71875 3.441406 65.613281 3.410156 63.589844 C 3.238281 53.269531 5.714844 43.195312 10.578125 34.414062 C 10.824219 33.96875 11.148438 33.378906 11.300781 33.101562 C 11.722656 32.328125 11.761719 32.277344 11.917969 32.328125 C 11.996094 32.351562 12.355469 32.898438 12.714844 33.546875 M 66.886719 35.351562 C 69.910156 35.8125 72.3125 36.5625 75.0625 37.898438 C 78.65625 39.644531 83.019531 43.164062 84.769531 45.734375 C 84.992188 46.058594 85.203125 46.351562 85.242188 46.382812 C 86.097656 47.128906 88.316406 51.332031 89.097656 53.679688 C 89.464844 54.785156 89.570312 55.140625 89.921875 56.484375 C 91 60.589844 90.820312 65.984375 89.453125 70.636719 C 89.351562 70.980469 89.203125 71.484375 89.121094 71.757812 C 89.039062 72.03125 88.933594 72.3125 88.882812 72.382812 C 88.832031 72.449219 88.6875 72.785156 88.5625 73.128906 C 88.347656 73.714844 87.625 75.265625 87.371094 75.6875 C 87.3125 75.789062 86.953125 76.390625 86.574219 77.019531 C 83.785156 81.695312 79.070312 85.828125 74.0625 87.988281 C 71.851562 88.941406 70.570312 89.324219 67.1875 90.027344 C 64.03125 90.683594 57.78125 90.167969 54.375 88.964844 C 54.132812 88.878906 53.710938 88.742188 53.4375 88.65625 C 52.449219 88.355469 50.1875 87.277344 48.605469 86.351562 C 44.351562 83.867188 40.058594 79.148438 37.9375 74.625 C 37.167969 72.992188 37.058594 72.730469 36.71875 71.695312 C 35.550781 68.132812 35.253906 66.316406 35.253906 62.71875 C 35.253906 59.65625 35.460938 58.039062 36.1875 55.425781 C 36.28125 55.082031 36.386719 54.6875 36.421875 54.550781 C 37.292969 50.910156 40.472656 45.910156 44.074219 42.507812 C 45.535156 41.132812 48.683594 38.777344 49.066406 38.777344 C 49.101562 38.777344 49.339844 38.648438 49.597656 38.484375 C 53.816406 35.84375 61.28125 34.492188 66.886719 35.351562 M 115.570312 35.21875 C 115.898438 35.433594 117.003906 37.675781 118.09375 40.335938 C 119.789062 44.476562 121.140625 49.203125 121.632812 52.710938 C 121.691406 53.140625 121.792969 53.703125 121.859375 53.957031 C 121.925781 54.214844 122.015625 54.902344 122.0625 55.484375 C 122.105469 56.070312 122.195312 56.875 122.265625 57.273438 C 122.386719 57.980469 122.445312 67.492188 122.328125 67.675781 C 122.296875 67.726562 122.210938 68.441406 122.132812 69.265625 C 122.054688 70.089844 121.914062 71.210938 121.8125 71.757812 C 121.714844 72.308594 121.609375 72.925781 121.578125 73.128906 C 121.546875 73.335938 121.433594 73.925781 121.328125 74.4375 C 121.222656 74.953125 121.078125 75.65625 121.007812 75.996094 C 120.789062 77.09375 120.03125 79.714844 119.351562 81.734375 C 118.035156 85.644531 116.429688 89.109375 114.085938 93.078125 C 112.867188 95.148438 111.714844 96.828125 109.691406 99.488281 C 106.507812 103.679688 100.476562 109.171875 95.5625 112.363281 C 94.875 112.8125 94.03125 113.339844 93.691406 113.539062 C 93.347656 113.738281 92.976562 113.957031 92.863281 114.027344 C 92.753906 114.097656 92.269531 114.359375 91.789062 114.613281 C 91.308594 114.863281 90.636719 115.230469 90.300781 115.425781 C 83.917969 119.132812 72.382812 122.050781 64.042969 122.066406 C 61.863281 122.070312 61.832031 122.042969 62.59375 120.839844 C 62.851562 120.429688 63.273438 119.714844 63.527344 119.246094 C 64.203125 118.011719 64.691406 117.152344 65.367188 116.023438 C 65.699219 115.472656 66.085938 114.800781 66.234375 114.527344 C 66.386719 114.25 66.609375 113.859375 66.734375 113.652344 C 66.945312 113.304688 68.144531 111.25 68.625 110.410156 C 69.03125 109.699219 70.714844 106.785156 71.9375 104.675781 C 72.609375 103.511719 73.257812 102.414062 73.378906 102.246094 C 73.496094 102.074219 73.953125 101.289062 74.398438 100.5 C 75.296875 98.898438 75.578125 98.40625 76.210938 97.320312 C 76.789062 96.320312 76.695312 96.476562 78.070312 94.078125 C 78.738281 92.910156 79.464844 91.675781 79.6875 91.335938 C 79.910156 90.992188 80.285156 90.347656 80.527344 89.898438 C 80.765625 89.453125 81.132812 88.800781 81.34375 88.449219 C 81.554688 88.097656 81.894531 87.511719 82.101562 87.140625 C 82.304688 86.773438 82.816406 85.910156 83.238281 85.222656 C 83.65625 84.539062 84.070312 83.835938 84.152344 83.664062 C 84.238281 83.496094 84.582031 82.878906 84.921875 82.292969 C 85.257812 81.710938 85.628906 81.066406 85.746094 80.859375 C 85.867188 80.65625 86.5 79.558594 87.152344 78.429688 C 88.550781 76.003906 89.277344 74.507812 89.96875 72.632812 C 91.078125 69.597656 91.164062 69.226562 91.625 65.460938 C 91.769531 64.257812 91.769531 61.054688 91.625 59.851562 C 91.246094 56.734375 91.128906 56.058594 90.820312 55.238281 C 90.730469 54.996094 90.558594 54.464844 90.433594 54.050781 C 90.230469 53.382812 89.917969 52.511719 89.617188 51.808594 C 89.5625 51.671875 89.394531 51.277344 89.253906 50.933594 C 88.980469 50.289062 88.953125 50.226562 88.554688 49.5 C 84.980469 42.929688 80.109375 38.582031 73.3125 35.882812 C 71.789062 35.277344 71.769531 35.265625 72.070312 35.152344 C 72.574219 34.960938 115.277344 35.027344 115.570312 35.21875 M 62.25 39.988281 C 53.527344 40.589844 46.132812 45.1875 42.726562 52.125 C 40.816406 56.015625 40.199219 58.574219 40.199219 62.65625 C 40.195312 77.304688 53.625 88.046875 67.9375 84.839844 C 75.464844 83.148438 81.972656 77.367188 84.414062 70.199219 C 89.234375 56.035156 79.308594 40.929688 64.625 40.085938 C 63.902344 40.046875 63.199219 39.996094 63.0625 39.980469 C 62.925781 39.964844 62.558594 39.96875 62.25 39.988281 M 67 41.503906 C 69.472656 42.0625 70.394531 42.367188 72.1875 43.222656 C 89.335938 51.386719 88.464844 75.355469 70.75 82.832031 C 61.8125 86.605469 50.617188 83.050781 44.902344 74.625 C 37.183594 63.246094 42.332031 47.359375 55.3125 42.496094 C 58.769531 41.199219 63.785156 40.773438 67 41.503906 "/>
<path style=" stroke:none;fill-rule:evenodd;fill:rgb(22.352941%,52.156863%,98.431373%);fill-opacity:1;" d="M 0 62.46875 L 0 124.9375 L 125 124.9375 L 125 0 L 0 0 L 0 62.46875 M 66.375 1.4375 C 76.082031 1.765625 87.144531 5.226562 95.371094 10.503906 C 96.234375 11.054688 97.050781 11.570312 97.1875 11.644531 C 98.171875 12.1875 102.800781 15.757812 103.820312 16.761719 C 103.894531 16.835938 104.484375 17.371094 105.128906 17.957031 C 106.550781 19.238281 106.667969 19.355469 107.355469 20.140625 C 107.65625 20.480469 108.246094 21.125 108.667969 21.570312 C 109.5 22.445312 110.441406 23.546875 111.125 24.4375 C 111.363281 24.746094 111.589844 25.027344 111.632812 25.0625 C 111.914062 25.292969 114.382812 28.867188 115.460938 30.609375 C 117.941406 34.617188 120.828125 40.882812 121.621094 43.996094 C 121.679688 44.222656 121.785156 44.558594 121.855469 44.742188 C 122.148438 45.523438 122.894531 48.484375 123.367188 50.75 C 125.25 59.78125 124.757812 71.042969 122.101562 79.863281 C 121.429688 82.089844 120.476562 84.8125 120 85.847656 C 119.9375 85.984375 119.75 86.433594 119.578125 86.84375 C 118.78125 88.796875 117.277344 91.707031 115.5625 94.625 C 113.773438 97.667969 110.8125 101.5 107.128906 105.53125 C 106.753906 105.945312 105.976562 106.65625 102.488281 109.796875 C 101.109375 111.035156 96.433594 114.324219 94.332031 115.53125 C 93.863281 115.800781 93.160156 116.207031 92.769531 116.429688 C 91.816406 116.980469 88.257812 118.722656 87.25 119.132812 C 86.804688 119.3125 86.324219 119.515625 86.1875 119.578125 C 86.050781 119.640625 85.628906 119.808594 85.25 119.949219 C 84.871094 120.089844 84.449219 120.253906 84.3125 120.316406 C 83.710938 120.578125 79.738281 121.832031 78.75 122.070312 C 77.21875 122.441406 76.519531 122.601562 76.0625 122.691406 C 74.613281 122.976562 73.503906 123.203125 73.03125 123.316406 C 72.734375 123.386719 72.257812 123.441406 71.96875 123.445312 C 71.675781 123.445312 71.207031 123.5 70.925781 123.566406 C 68.191406 124.195312 60.273438 124.222656 55.1875 123.617188 C 53.449219 123.410156 53.132812 123.359375 50.8125 122.886719 C 47.863281 122.289062 47.488281 122.199219 44.625 121.371094 C 37.898438 119.429688 29.136719 114.699219 23.632812 110.039062 C 19.753906 106.753906 17.679688 104.648438 14.5 100.753906 C 12.828125 98.710938 10 94.40625 8.632812 91.832031 C 8.414062 91.421875 8.1875 91 8.125 90.898438 C 7.570312 89.957031 5.796875 85.90625 4.960938 83.664062 C 4.09375 81.335938 3.023438 77.476562 2.4375 74.5625 C 2.324219 73.980469 2.175781 73.25 2.113281 72.941406 C 0.90625 66.917969 1.234375 54.835938 2.757812 49.25 C 2.824219 49.011719 3.039062 48.140625 3.242188 47.320312 C 5.144531 39.503906 9.425781 30.945312 14.6875 24.4375 C 15.773438 23.097656 15.9375 22.90625 17.1875 21.539062 C 17.804688 20.863281 18.425781 20.164062 18.5625 19.988281 C 18.984375 19.453125 23.65625 15.246094 24.628906 14.527344 C 24.8125 14.390625 25.492188 13.882812 26.136719 13.398438 C 29.664062 10.757812 33.800781 8.363281 38.3125 6.355469 C 42.191406 4.632812 47.40625 3.078125 52.5 2.128906 C 54.984375 1.667969 61.328125 1.199219 63.4375 1.320312 C 63.851562 1.34375 65.171875 1.398438 66.375 1.4375 M 56.753906 3.621094 C 51.359375 4.246094 44.195312 6.007812 41.0625 7.476562 C 40.925781 7.539062 40.304688 7.796875 39.6875 8.046875 C 37.929688 8.757812 35.308594 10.074219 32.539062 11.640625 C 29.847656 13.164062 25.378906 16.449219 23.023438 18.628906 C 22.070312 19.515625 18.890625 22.722656 18.296875 23.398438 C 16.332031 25.636719 15.148438 27.15625 13.640625 29.386719 L 12.609375 30.90625 L 13 31.628906 C 13.210938 32.03125 13.457031 32.464844 13.539062 32.601562 C 13.953125 33.28125 14.292969 33.863281 14.789062 34.75 C 15.085938 35.285156 15.871094 36.648438 16.527344 37.78125 C 17.183594 38.910156 17.835938 40.035156 17.972656 40.273438 C 18.945312 41.972656 19.683594 43.25 20.308594 44.328125 C 20.710938 45.011719 21.207031 45.882812 21.414062 46.257812 C 21.621094 46.636719 21.921875 47.15625 22.082031 47.410156 C 22.242188 47.667969 22.375 47.914062 22.375 47.960938 C 22.375 48.007812 22.453125 48.136719 22.546875 48.246094 C 22.644531 48.351562 22.890625 48.75 23.09375 49.128906 C 23.546875 49.964844 24.382812 51.425781 24.980469 52.425781 C 25.222656 52.835938 25.527344 53.371094 25.65625 53.613281 C 25.785156 53.855469 25.957031 54.164062 26.039062 54.300781 C 26.125 54.4375 26.410156 54.945312 26.679688 55.425781 C 26.949219 55.902344 27.507812 56.859375 27.917969 57.542969 C 28.332031 58.226562 28.835938 59.097656 29.042969 59.476562 C 29.253906 59.851562 29.804688 60.800781 30.273438 61.582031 C 30.742188 62.363281 31.125 63.019531 31.125 63.042969 C 31.125 63.066406 31.566406 63.859375 32.109375 64.804688 C 32.652344 65.75 33.21875 66.746094 33.375 67.019531 C 34.039062 68.203125 34.28125 68.578125 34.386719 68.578125 C 34.550781 68.578125 34.519531 67.664062 34.3125 66.519531 C 33.765625 63.519531 34.1875 57.894531 35.203125 54.613281 C 35.792969 52.699219 35.898438 52.429688 36.878906 50.3125 C 40.035156 43.480469 46.5 37.773438 53.75 35.421875 C 58.554688 33.859375 55.808594 33.980469 87.375 33.964844 C 102.328125 33.960938 114.632812 33.945312 114.71875 33.933594 C 114.921875 33.910156 114.917969 33.480469 114.714844 33.269531 C 114.625 33.179688 114.410156 32.851562 114.234375 32.542969 C 113.605469 31.433594 113.390625 31.089844 112.5625 29.863281 C 110.109375 26.238281 108.015625 23.726562 104.847656 20.601562 C 102.210938 18 102.445312 18.214844 100.3125 16.503906 C 98.195312 14.808594 95.921875 13.203125 93.9375 12.007812 C 92.4375 11.101562 92.066406 10.898438 89.5 9.582031 C 86.546875 8.0625 82.902344 6.648438 79.210938 5.589844 C 72.347656 3.617188 63.484375 2.84375 56.753906 3.621094 M 11.671875 32.441406 C 11.617188 32.53125 11.449219 32.828125 11.300781 33.101562 C 11.148438 33.378906 10.824219 33.96875 10.578125 34.414062 C 5.714844 43.195312 3.238281 53.269531 3.410156 63.589844 C 3.441406 65.613281 3.527344 67.71875 3.601562 68.265625 C 3.671875 68.816406 3.796875 69.824219 3.875 70.511719 C 3.953125 71.195312 4.066406 71.984375 4.125 72.257812 C 4.179688 72.53125 4.292969 73.148438 4.375 73.628906 C 4.753906 75.851562 5.660156 79.335938 6.433594 81.546875 C 6.683594 82.265625 6.976562 83.109375 7.082031 83.417969 C 7.710938 85.273438 10.679688 91.574219 11.199219 92.15625 C 11.296875 92.261719 11.375 92.386719 11.375 92.433594 C 11.375 92.675781 13.882812 96.480469 15.117188 98.113281 C 15.5 98.617188 15.925781 99.183594 16.0625 99.371094 C 17.023438 100.664062 21.296875 105.261719 22.609375 106.410156 C 22.773438 106.554688 22.972656 106.726562 23.046875 106.796875 C 25.664062 109.1875 30.21875 112.5 33.050781 114.078125 C 38.113281 116.894531 42.046875 118.539062 47.25 120.011719 C 48.765625 120.441406 50.855469 120.878906 54.125 121.445312 C 54.859375 121.570312 57.816406 121.886719 59.382812 122.003906 C 60.460938 122.085938 60.546875 122.035156 61.191406 120.886719 C 61.386719 120.542969 61.789062 119.855469 62.085938 119.359375 C 62.382812 118.863281 62.625 118.429688 62.625 118.394531 C 62.625 118.355469 63.035156 117.640625 63.539062 116.800781 C 64.042969 115.960938 64.492188 115.191406 64.539062 115.085938 C 64.589844 114.984375 64.730469 114.730469 64.859375 114.527344 C 64.984375 114.320312 65.734375 113.03125 66.527344 111.660156 C 67.320312 110.285156 68.375 108.464844 68.875 107.605469 C 70.136719 105.441406 71.210938 103.574219 71.753906 102.617188 C 72.34375 101.570312 74.714844 97.5 74.878906 97.257812 C 74.945312 97.152344 75.039062 96.984375 75.085938 96.882812 C 75.132812 96.78125 75.5 96.132812 75.90625 95.449219 C 76.308594 94.761719 76.699219 94.089844 76.777344 93.953125 C 76.949219 93.648438 77.957031 91.902344 79.222656 89.714844 C 79.738281 88.820312 80.265625 87.941406 80.390625 87.753906 C 80.519531 87.570312 80.625 87.382812 80.625 87.339844 C 80.625 87.296875 81.023438 86.597656 81.511719 85.78125 C 82.617188 83.941406 82.582031 83.824219 81.25 84.882812 C 77.800781 87.617188 75.148438 89.007812 70.75 90.371094 C 65.625 91.964844 58.328125 91.683594 52.9375 89.6875 C 52.46875 89.515625 52.269531 89.433594 51.21875 88.988281 C 46.371094 86.933594 41.789062 83.046875 38.789062 78.449219 C 38.269531 77.648438 37.75 76.855469 37.632812 76.683594 C 37.515625 76.511719 37.199219 75.980469 36.929688 75.5 C 36.65625 75.019531 36.382812 74.535156 36.3125 74.425781 C 36.242188 74.316406 36.027344 73.921875 35.828125 73.550781 C 35.628906 73.183594 35.285156 72.601562 35.0625 72.257812 C 34.839844 71.914062 34.464844 71.269531 34.230469 70.824219 C 33.992188 70.378906 33.246094 69.058594 32.570312 67.894531 C 31.890625 66.726562 31.167969 65.464844 30.957031 65.085938 C 30.75 64.710938 30.398438 64.117188 30.175781 63.769531 C 29.953125 63.421875 29.59375 62.804688 29.375 62.398438 C 28.972656 61.65625 27.316406 58.777344 25.753906 56.109375 C 24.6875 54.289062 24.050781 53.179688 23.5 52.195312 C 23.097656 51.472656 21.632812 48.9375 21.371094 48.503906 C 20.976562 47.859375 19.75 45.730469 19.75 45.695312 C 19.75 45.675781 19.414062 45.085938 19 44.390625 C 18.585938 43.691406 18.25 43.097656 18.25 43.066406 C 18.25 43.035156 18.117188 42.804688 17.957031 42.546875 C 17.707031 42.152344 16.835938 40.667969 16 39.214844 C 15.882812 39.007812 15.609375 38.542969 15.390625 38.179688 C 15.175781 37.816406 15 37.5 15 37.472656 C 15 37.449219 14.746094 37 14.4375 36.476562 C 14.128906 35.957031 13.875 35.5 13.875 35.464844 C 13.875 35.429688 13.761719 35.25 13.621094 35.058594 C 13.484375 34.875 13.074219 34.191406 12.714844 33.546875 C 12.058594 32.363281 11.855469 32.148438 11.671875 32.441406 M 60.3125 35.175781 C 56.5625 35.570312 52.011719 36.972656 49.597656 38.484375 C 49.339844 38.648438 49.101562 38.777344 49.066406 38.777344 C 48.683594 38.777344 45.535156 41.132812 44.074219 42.507812 C 40.472656 45.910156 37.292969 50.910156 36.421875 54.550781 C 36.386719 54.6875 36.28125 55.082031 36.1875 55.425781 C 35.460938 58.039062 35.253906 59.65625 35.253906 62.71875 C 35.253906 66.316406 35.550781 68.132812 36.71875 71.695312 C 37.058594 72.730469 37.167969 72.992188 37.9375 74.625 C 40.058594 79.148438 44.351562 83.867188 48.605469 86.351562 C 50.1875 87.277344 52.449219 88.355469 53.4375 88.65625 C 53.710938 88.742188 54.132812 88.878906 54.375 88.964844 C 57.78125 90.167969 64.03125 90.683594 67.1875 90.027344 C 70.570312 89.324219 71.851562 88.941406 74.0625 87.988281 C 79.070312 85.828125 83.785156 81.695312 86.574219 77.019531 C 86.953125 76.390625 87.3125 75.789062 87.371094 75.6875 C 87.625 75.265625 88.347656 73.714844 88.5625 73.128906 C 88.6875 72.785156 88.832031 72.449219 88.882812 72.382812 C 88.933594 72.3125 89.039062 72.03125 89.121094 71.757812 C 89.203125 71.484375 89.351562 70.980469 89.453125 70.636719 C 90.820312 65.984375 91 60.589844 89.921875 56.484375 C 89.242188 53.898438 88.78125 52.585938 87.902344 50.75 C 87.324219 49.535156 85.585938 46.683594 85.242188 46.382812 C 85.203125 46.351562 84.992188 46.058594 84.769531 45.734375 C 83.660156 44.105469 80.546875 41.253906 78.0625 39.585938 C 73.140625 36.285156 66.199219 34.5625 60.3125 35.175781 M 72.070312 35.152344 C 71.769531 35.265625 71.789062 35.277344 73.3125 35.882812 C 80.109375 38.582031 84.980469 42.929688 88.554688 49.5 C 88.953125 50.226562 88.980469 50.289062 89.253906 50.933594 C 89.394531 51.277344 89.5625 51.671875 89.617188 51.808594 C 89.917969 52.511719 90.230469 53.382812 90.433594 54.050781 C 90.558594 54.464844 90.730469 54.996094 90.820312 55.238281 C 91.128906 56.058594 91.246094 56.734375 91.625 59.851562 C 91.769531 61.054688 91.769531 64.257812 91.625 65.460938 C 91.164062 69.226562 91.078125 69.597656 89.96875 72.632812 C 89.277344 74.507812 88.550781 76.003906 87.152344 78.429688 C 86.5 79.558594 85.867188 80.65625 85.746094 80.859375 C 85.628906 81.066406 85.257812 81.710938 84.921875 82.292969 C 84.582031 82.878906 84.238281 83.496094 84.152344 83.664062 C 84.070312 83.835938 83.65625 84.539062 83.238281 85.222656 C 82.816406 85.910156 82.304688 86.773438 82.101562 87.140625 C 81.894531 87.511719 81.554688 88.097656 81.34375 88.449219 C 81.132812 88.800781 80.765625 89.453125 80.527344 89.898438 C 80.285156 90.347656 79.910156 90.992188 79.6875 91.335938 C 79.464844 91.675781 78.738281 92.910156 78.070312 94.078125 C 76.695312 96.476562 76.789062 96.320312 76.210938 97.320312 C 75.578125 98.40625 75.296875 98.898438 74.398438 100.5 C 73.953125 101.289062 73.496094 102.074219 73.378906 102.246094 C 73.257812 102.414062 72.609375 103.511719 71.9375 104.675781 C 70.714844 106.785156 69.03125 109.699219 68.625 110.410156 C 68.144531 111.25 66.945312 113.304688 66.734375 113.652344 C 66.609375 113.859375 66.386719 114.25 66.234375 114.527344 C 66.085938 114.800781 65.699219 115.472656 65.367188 116.023438 C 64.691406 117.152344 64.203125 118.011719 63.527344 119.246094 C 63.273438 119.714844 62.851562 120.429688 62.59375 120.839844 C 61.832031 122.042969 61.863281 122.070312 64.042969 122.066406 C 72.382812 122.050781 83.917969 119.132812 90.300781 115.425781 C 90.636719 115.230469 91.308594 114.863281 91.789062 114.613281 C 92.269531 114.359375 92.753906 114.097656 92.863281 114.027344 C 92.976562 113.957031 93.347656 113.738281 93.691406 113.539062 C 95.386719 112.550781 98.210938 110.605469 99.75 109.363281 C 101.886719 107.644531 102.789062 106.832031 104.945312 104.683594 C 106.996094 102.640625 108.78125 100.6875 109.691406 99.488281 C 111.714844 96.828125 112.867188 95.148438 114.085938 93.078125 C 116.429688 89.109375 118.035156 85.644531 119.351562 81.734375 C 120.03125 79.714844 120.789062 77.09375 121.007812 75.996094 C 121.078125 75.65625 121.222656 74.953125 121.328125 74.4375 C 121.433594 73.925781 121.546875 73.335938 121.578125 73.128906 C 121.609375 72.925781 121.714844 72.308594 121.8125 71.757812 C 121.914062 71.210938 122.054688 70.089844 122.132812 69.265625 C 122.210938 68.441406 122.296875 67.726562 122.328125 67.675781 C 122.445312 67.492188 122.386719 57.980469 122.265625 57.273438 C 122.195312 56.875 122.105469 56.070312 122.0625 55.484375 C 122.015625 54.902344 121.925781 54.214844 121.859375 53.957031 C 121.792969 53.703125 121.691406 53.140625 121.632812 52.710938 C 121.140625 49.203125 119.789062 44.476562 118.09375 40.335938 C 117.003906 37.675781 115.898438 35.433594 115.570312 35.21875 C 115.277344 35.027344 72.574219 34.960938 72.070312 35.152344 M 64.625 40.085938 C 72.550781 40.542969 80.042969 45.679688 83.492188 53.019531 C 89.238281 65.253906 83.40625 79.203125 70.5 84.105469 C 65.75 85.910156 59.320312 85.78125 54.5 83.785156 C 45.5625 80.085938 40.195312 72.15625 40.199219 62.65625 C 40.199219 58.574219 40.816406 56.015625 42.726562 52.125 C 45.464844 46.542969 52.050781 41.613281 58.3125 40.457031 C 59.734375 40.191406 62.519531 39.914062 63.0625 39.980469 C 63.199219 39.996094 63.902344 40.046875 64.625 40.085938 M 60.625 41.226562 C 50.710938 42.164062 42.390625 50.484375 41.378906 60.472656 C 39.816406 75.886719 54.515625 87.839844 69.4375 83.285156 C 72.042969 82.488281 74.929688 80.863281 77.167969 78.925781 C 91.921875 66.160156 83.058594 41.585938 63.5625 41.21875 C 62.257812 41.191406 60.933594 41.195312 60.625 41.226562 "/>
</g>
</svg>
