<?xml version="1.0" encoding="UTF-8"?>
<svg xmlns="http://www.w3.org/2000/svg" xmlns:xlink="http://www.w3.org/1999/xlink" width="125pt" height="125pt" viewBox="0 0 125 125" version="1.1">
<g id="surface1">
<path style=" stroke:none;fill-rule:evenodd;fill:rgb(98.039216%,98.431373%,98.431373%);fill-opacity:1;" d="M 0.015625 29.449219 C 0.0273438 55.074219 0.0507812 58.660156 0.195312 57.066406 C 2.929688 26.710938 26.6875 2.953125 57.074219 0.195312 C 58.664062 0.0507812 55.125 0.0273438 29.449219 0.015625 L 0 0 L 0.015625 29.449219 M 67.925781 0.195312 C 98.300781 2.953125 122.117188 26.765625 124.808594 57.066406 C 124.949219 58.648438 124.972656 54.878906 124.984375 29.449219 L 125 0 L 95.550781 0.015625 C 69.875 0.0273438 66.335938 0.0507812 67.925781 0.195312 M 38.925781 29.242188 C 38.269531 29.445312 37.429688 30.203125 37.128906 30.863281 C 36.941406 31.273438 36.921875 33.0625 36.894531 52.933594 L 36.863281 74.558594 L 36.589844 74.625 C 36.4375 74.660156 35.171875 74.695312 33.773438 74.695312 C 30.386719 74.703125 29.605469 75.015625 28.710938 76.707031 L 28.382812 77.332031 L 28.382812 93.199219 L 28.675781 93.800781 C 29.054688 94.566406 29.699219 95.214844 30.464844 95.589844 L 31.066406 95.886719 L 93.933594 95.886719 L 94.535156 95.589844 C 95.300781 95.214844 95.945312 94.566406 96.324219 93.800781 L 96.617188 93.199219 L 96.617188 77.332031 L 96.292969 76.714844 C 95.433594 75.089844 94.5625 74.703125 91.671875 74.671875 L 89.539062 74.644531 L 89.476562 57.210938 L 89.417969 39.777344 L 84.054688 34.414062 L 78.691406 29.054688 L 59.089844 29.0625 C 42.5 29.070312 39.402344 29.097656 38.925781 29.242188 M 77.527344 36.101562 C 77.535156 38.433594 77.546875 40.453125 77.558594 40.589844 C 77.574219 40.828125 77.683594 40.835938 82.152344 40.894531 L 86.730469 40.953125 L 86.730469 74.644531 L 39.734375 74.644531 L 39.703125 53.253906 L 39.671875 31.859375 L 77.515625 31.859375 L 77.527344 36.101562 M 46.902344 53.253906 L 46.9375 54.625 L 63.261719 54.65625 L 79.589844 54.6875 L 79.589844 51.878906 L 46.867188 51.878906 L 46.902344 53.253906 M 46.875 63.171875 L 46.875 64.574219 L 79.597656 64.574219 L 79.5625 63.203125 L 79.527344 61.828125 L 63.203125 61.796875 L 46.875 61.765625 L 46.875 63.171875 M 0.0195312 95.550781 L 0 125 L 29.449219 124.984375 C 55.125 124.972656 58.664062 124.949219 57.074219 124.804688 C 26.175781 122 2.503906 97.84375 0.0859375 66.648438 C 0.0625 66.347656 0.03125 79.351562 0.0195312 95.550781 M 124.777344 68.054688 C 124.058594 77.121094 120.96875 86.640625 116.175781 94.566406 C 105.636719 112 88.128906 122.972656 67.925781 124.804688 C 66.335938 124.949219 69.875 124.972656 95.550781 124.984375 L 125 125 L 125 95.582031 C 125 79.402344 124.984375 66.164062 124.964844 66.164062 C 124.945312 66.164062 124.863281 67.011719 124.777344 68.054688 M 54.914062 80.0625 C 55.84375 80.351562 56.550781 80.90625 57.011719 81.710938 C 57.566406 82.675781 57.519531 82.820312 56.585938 83.054688 C 55.632812 83.292969 55.296875 83.304688 55.296875 83.09375 C 55.296875 82.105469 53.484375 81.359375 52.277344 81.851562 C 50.222656 82.691406 50.257812 87.542969 52.324219 88.332031 C 53.546875 88.796875 54.683594 88.308594 55.183594 87.101562 C 55.503906 86.328125 55.453125 86.34375 56.554688 86.722656 C 57.617188 87.085938 57.582031 87.019531 57.160156 87.921875 C 55.492188 91.484375 50.265625 91.109375 48.9375 87.335938 C 47.363281 82.851562 50.726562 78.761719 54.914062 80.0625 M 64.203125 79.964844 C 65.496094 80.242188 66.640625 81.484375 66.648438 82.609375 L 66.648438 83.007812 L 65.609375 83.007812 C 64.722656 83.007812 64.558594 82.976562 64.5 82.792969 C 64.140625 81.671875 62.644531 81.191406 61.550781 81.847656 C 60.378906 82.550781 61.011719 83.207031 63.492188 83.871094 C 66.234375 84.605469 67.339844 85.855469 66.914062 87.75 C 66.0625 91.539062 59.273438 91.179688 58.753906 87.320312 L 58.6875 86.828125 L 59.34375 86.75 C 60.609375 86.597656 60.75 86.625 60.835938 87.046875 C 61.222656 88.972656 64.820312 89.121094 64.820312 87.210938 C 64.820312 86.609375 64.257812 86.242188 62.804688 85.890625 C 60.039062 85.222656 59.082031 84.378906 59.082031 82.609375 C 59.082031 80.535156 61.367188 79.359375 64.203125 79.964844 M 74.277344 80.183594 C 75.285156 80.632812 75.96875 81.527344 76.066406 82.523438 L 76.109375 82.945312 L 75.054688 82.980469 L 73.996094 83.015625 L 73.914062 82.648438 C 73.65625 81.46875 71.144531 81.175781 70.566406 82.257812 C 70.222656 82.898438 70.792969 83.277344 73.058594 83.914062 C 75.585938 84.625 76.414062 85.429688 76.414062 87.183594 C 76.417969 89.226562 74.765625 90.414062 72.082031 90.300781 C 69.75 90.203125 68.503906 89.25 68.183594 87.328125 L 68.101562 86.828125 L 68.671875 86.75 C 69.996094 86.566406 70.109375 86.601562 70.347656 87.273438 C 70.988281 89.082031 74.328125 88.96875 74.195312 87.144531 C 74.148438 86.476562 73.902344 86.324219 72.023438 85.816406 C 69.339844 85.089844 68.484375 84.304688 68.480469 82.574219 C 68.480469 80.402344 71.746094 79.058594 74.277344 80.183594 "/>
<path style=" stroke:none;fill-rule:evenodd;fill:rgb(26.27451%,63.921569%,95.686275%);fill-opacity:1;" d="M 59.671875 0.242188 C 59.15625 0.359375 58.679688 0.417969 58.609375 0.375 C 58.382812 0.234375 55.105469 0.535156 53.285156 0.867188 C 52.949219 0.929688 52.042969 1.085938 51.269531 1.214844 C 49.117188 1.578125 48.472656 1.707031 47.546875 1.976562 C 47.078125 2.109375 46.308594 2.320312 45.835938 2.441406 C 45.367188 2.5625 44.652344 2.773438 44.25 2.914062 C 43.847656 3.054688 43.023438 3.3125 42.417969 3.484375 C 41.816406 3.660156 40.953125 3.988281 40.507812 4.21875 C 40.058594 4.449219 39.585938 4.640625 39.453125 4.640625 C 39.183594 4.640625 38.671875 4.839844 37.386719 5.445312 C 36.902344 5.671875 36.429688 5.859375 36.339844 5.859375 C 36.246094 5.859375 36.070312 5.96875 35.949219 6.101562 C 35.828125 6.238281 35.660156 6.347656 35.574219 6.347656 C 35.492188 6.347656 35.074219 6.539062 34.648438 6.777344 C 33.90625 7.1875 33.5625 7.351562 32.5625 7.785156 C 32.3125 7.894531 32.105469 8.027344 32.105469 8.082031 C 32.105469 8.136719 31.816406 8.316406 31.464844 8.484375 C 31.109375 8.652344 30.65625 8.898438 30.457031 9.03125 C 30.253906 9.167969 29.925781 9.359375 29.722656 9.460938 C 29.347656 9.652344 28.285156 10.386719 27.945312 10.691406 C 27.839844 10.785156 27.664062 10.863281 27.558594 10.863281 C 27.453125 10.863281 27.347656 10.90625 27.324219 10.960938 C 27.300781 11.015625 27.023438 11.242188 26.703125 11.46875 C 26.382812 11.695312 26.125 11.925781 26.125 11.976562 C 26.125 12.027344 26 12.105469 25.847656 12.15625 C 25.695312 12.203125 25.402344 12.382812 25.191406 12.558594 C 24.394531 13.230469 23.902344 13.613281 23.761719 13.671875 C 23.683594 13.707031 23.429688 13.910156 23.195312 14.125 C 22.957031 14.339844 22.300781 14.910156 21.726562 15.390625 C 20.59375 16.34375 19.410156 17.476562 18.554688 18.425781 C 18.253906 18.761719 17.964844 19.035156 17.910156 19.039062 C 17.785156 19.042969 16.476562 20.445312 15.394531 21.726562 C 14.917969 22.300781 14.332031 22.96875 14.097656 23.21875 C 13.863281 23.46875 13.671875 23.71875 13.671875 23.777344 C 13.671875 23.832031 13.480469 24.089844 13.246094 24.34375 C 13.007812 24.601562 12.816406 24.847656 12.816406 24.898438 C 12.816406 24.945312 12.679688 25.109375 12.511719 25.269531 C 12.34375 25.425781 12.207031 25.617188 12.207031 25.695312 C 12.207031 25.773438 12.039062 26.023438 11.832031 26.253906 C 11.625 26.484375 11.367188 26.824219 11.253906 27.007812 C 11.144531 27.191406 11.011719 27.34375 10.960938 27.34375 C 10.90625 27.34375 10.863281 27.433594 10.863281 27.539062 C 10.863281 27.648438 10.742188 27.894531 10.589844 28.085938 C 9.9375 28.921875 9.777344 29.144531 9.550781 29.542969 C 9.421875 29.777344 9.164062 30.214844 8.984375 30.515625 C 8.804688 30.820312 8.554688 31.292969 8.429688 31.570312 C 8.304688 31.851562 8.152344 32.097656 8.09375 32.121094 C 8.035156 32.144531 7.566406 33.027344 7.046875 34.078125 C 6.53125 35.132812 6.050781 36.027344 5.984375 36.070312 C 5.914062 36.113281 5.859375 36.226562 5.859375 36.328125 C 5.859375 36.425781 5.671875 36.902344 5.445312 37.386719 C 4.828125 38.691406 4.640625 39.183594 4.636719 39.472656 C 4.636719 39.617188 4.535156 39.925781 4.40625 40.160156 C 3.832031 41.222656 3.382812 42.390625 3.171875 43.394531 C 3.113281 43.664062 2.972656 44.132812 2.863281 44.433594 C 2.75 44.734375 2.558594 45.367188 2.4375 45.835938 C 2.316406 46.308594 2.128906 46.992188 2.023438 47.363281 C 1.429688 49.421875 0.386719 56.019531 0.375 57.800781 C 0.371094 58.269531 0.367188 58.820312 0.363281 59.019531 C 0.359375 59.21875 0.277344 59.695312 0.179688 60.074219 C -0.0625 61.015625 -0.0664062 64.066406 0.179688 64.890625 C 0.277344 65.21875 0.359375 65.683594 0.363281 65.917969 C 0.367188 66.152344 0.371094 66.730469 0.375 67.199219 C 0.378906 68.046875 0.796875 71.367188 1.152344 73.363281 C 1.253906 73.933594 1.425781 74.894531 1.535156 75.5 C 1.640625 76.105469 1.839844 76.984375 1.976562 77.453125 C 2.109375 77.921875 2.320312 78.691406 2.4375 79.164062 C 2.558594 79.632812 2.75 80.265625 2.863281 80.566406 C 2.972656 80.867188 3.113281 81.335938 3.171875 81.605469 C 3.382812 82.609375 3.832031 83.777344 4.40625 84.839844 C 4.535156 85.074219 4.636719 85.382812 4.636719 85.527344 C 4.640625 85.816406 4.828125 86.308594 5.445312 87.613281 C 5.671875 88.097656 5.859375 88.574219 5.859375 88.671875 C 5.859375 88.773438 5.914062 88.886719 5.976562 88.925781 C 6.042969 88.964844 6.519531 89.859375 7.042969 90.917969 C 7.5625 91.972656 8.039062 92.855469 8.09375 92.878906 C 8.152344 92.902344 8.304688 93.148438 8.429688 93.429688 C 8.554688 93.707031 8.804688 94.179688 8.984375 94.484375 C 9.164062 94.785156 9.421875 95.222656 9.554688 95.460938 C 9.6875 95.695312 9.914062 96.035156 10.054688 96.21875 C 10.199219 96.402344 10.4375 96.714844 10.589844 96.910156 C 10.742188 97.105469 10.863281 97.355469 10.863281 97.460938 C 10.863281 97.570312 10.90625 97.65625 10.960938 97.65625 C 11.011719 97.65625 11.144531 97.808594 11.253906 97.992188 C 11.367188 98.175781 11.625 98.515625 11.832031 98.746094 C 12.039062 98.976562 12.207031 99.226562 12.207031 99.304688 C 12.207031 99.382812 12.34375 99.574219 12.511719 99.730469 C 12.679688 99.890625 12.816406 100.054688 12.816406 100.101562 C 12.816406 100.152344 13.007812 100.398438 13.246094 100.65625 C 13.480469 100.910156 13.671875 101.167969 13.671875 101.222656 C 13.671875 101.28125 13.863281 101.53125 14.097656 101.78125 C 14.332031 102.03125 14.917969 102.699219 15.394531 103.273438 C 16.433594 104.503906 17.785156 105.957031 17.894531 105.957031 C 17.9375 105.957031 18.246094 106.246094 18.574219 106.597656 C 19.769531 107.871094 20.101562 108.191406 21.421875 109.328125 C 22.160156 109.964844 22.957031 110.660156 23.195312 110.875 C 23.429688 111.089844 23.683594 111.292969 23.761719 111.328125 C 23.902344 111.386719 24.394531 111.769531 25.191406 112.441406 C 25.402344 112.617188 25.695312 112.796875 25.847656 112.84375 C 26 112.894531 26.125 112.972656 26.125 113.023438 C 26.125 113.074219 26.382812 113.304688 26.703125 113.53125 C 27.023438 113.757812 27.300781 113.984375 27.324219 114.039062 C 27.347656 114.09375 27.453125 114.136719 27.558594 114.136719 C 27.664062 114.136719 27.839844 114.214844 27.945312 114.308594 C 28.285156 114.613281 29.347656 115.347656 29.722656 115.539062 C 29.925781 115.640625 30.253906 115.832031 30.457031 115.96875 C 30.65625 116.101562 31.109375 116.347656 31.464844 116.515625 C 31.816406 116.683594 32.105469 116.863281 32.105469 116.917969 C 32.105469 116.976562 32.421875 117.148438 32.804688 117.304688 C 33.191406 117.457031 33.644531 117.671875 33.8125 117.773438 C 34.40625 118.144531 35.429688 118.652344 35.578125 118.652344 C 35.660156 118.652344 35.828125 118.761719 35.949219 118.898438 C 36.070312 119.03125 36.246094 119.140625 36.339844 119.140625 C 36.429688 119.140625 36.902344 119.328125 37.386719 119.554688 C 38.671875 120.160156 39.183594 120.359375 39.453125 120.359375 C 39.585938 120.359375 40.058594 120.550781 40.507812 120.777344 C 40.953125 121.007812 41.734375 121.316406 42.234375 121.460938 C 42.738281 121.609375 43.5625 121.867188 44.066406 122.035156 C 44.570312 122.203125 45.367188 122.4375 45.835938 122.558594 C 46.308594 122.679688 47.078125 122.890625 47.546875 123.023438 C 48.472656 123.292969 49.117188 123.421875 51.269531 123.785156 C 52.042969 123.914062 52.949219 124.070312 53.285156 124.132812 C 55.117188 124.464844 58.382812 124.765625 58.613281 124.621094 C 58.683594 124.578125 59.214844 124.644531 59.792969 124.769531 C 61.222656 125.082031 63.878906 125.082031 65.265625 124.769531 C 65.8125 124.644531 66.316406 124.578125 66.390625 124.621094 C 66.65625 124.789062 69.886719 124.460938 72.386719 124.015625 C 73.09375 123.890625 73.890625 123.753906 74.15625 123.710938 C 75.308594 123.53125 76.65625 123.25 77.453125 123.019531 C 77.921875 122.886719 78.664062 122.683594 79.101562 122.566406 C 79.539062 122.449219 80.003906 122.3125 80.140625 122.261719 C 80.785156 122.015625 81.035156 121.941406 81.542969 121.835938 C 82.398438 121.664062 83.601562 121.230469 84.492188 120.777344 C 84.941406 120.546875 85.414062 120.359375 85.546875 120.359375 C 85.816406 120.359375 86.328125 120.160156 87.613281 119.554688 C 88.097656 119.328125 88.570312 119.140625 88.660156 119.140625 C 88.753906 119.140625 88.929688 119.03125 89.050781 118.898438 C 89.171875 118.761719 89.339844 118.652344 89.421875 118.652344 C 89.570312 118.652344 90.59375 118.144531 91.1875 117.773438 C 91.355469 117.671875 91.808594 117.457031 92.195312 117.304688 C 92.578125 117.148438 92.894531 116.976562 92.894531 116.917969 C 92.894531 116.863281 93.183594 116.683594 93.535156 116.515625 C 93.890625 116.347656 94.34375 116.101562 94.542969 115.96875 C 94.746094 115.832031 95.074219 115.640625 95.277344 115.539062 C 95.652344 115.347656 96.714844 114.613281 97.054688 114.308594 C 97.160156 114.214844 97.335938 114.136719 97.441406 114.136719 C 97.546875 114.136719 97.652344 114.089844 97.675781 114.039062 C 97.699219 113.984375 97.976562 113.761719 98.296875 113.542969 C 98.617188 113.324219 98.875 113.097656 98.875 113.039062 C 98.875 112.980469 99 112.894531 99.152344 112.84375 C 99.304688 112.796875 99.597656 112.617188 99.808594 112.441406 C 100.613281 111.765625 101.097656 111.386719 101.238281 111.328125 C 101.316406 111.292969 101.574219 111.085938 101.808594 110.867188 C 102.042969 110.644531 102.839844 109.949219 103.578125 109.320312 C 104.894531 108.195312 105.222656 107.882812 106.425781 106.597656 C 106.753906 106.246094 107.0625 105.957031 107.105469 105.957031 C 107.214844 105.957031 108.566406 104.503906 109.605469 103.273438 C 110.082031 102.699219 110.667969 102.03125 110.902344 101.78125 C 111.136719 101.53125 111.328125 101.28125 111.328125 101.222656 C 111.328125 101.167969 111.519531 100.910156 111.753906 100.65625 C 111.992188 100.398438 112.183594 100.152344 112.183594 100.101562 C 112.183594 100.054688 112.320312 99.890625 112.488281 99.730469 C 112.65625 99.574219 112.792969 99.382812 112.792969 99.304688 C 112.792969 99.226562 112.960938 98.976562 113.167969 98.746094 C 113.375 98.515625 113.632812 98.175781 113.746094 97.992188 C 113.855469 97.808594 113.988281 97.65625 114.039062 97.65625 C 114.09375 97.65625 114.136719 97.554688 114.136719 97.433594 C 114.136719 97.3125 114.273438 97.082031 114.441406 96.921875 C 114.609375 96.765625 114.746094 96.585938 114.746094 96.523438 C 114.746094 96.460938 114.902344 96.210938 115.09375 95.964844 C 115.28125 95.71875 115.472656 95.4375 115.515625 95.335938 C 115.558594 95.234375 115.734375 94.933594 115.90625 94.664062 C 116.074219 94.398438 116.347656 93.894531 116.511719 93.550781 C 116.671875 93.203125 116.851562 92.902344 116.910156 92.878906 C 116.964844 92.855469 117.433594 91.972656 117.953125 90.921875 C 118.46875 89.867188 118.949219 88.972656 119.015625 88.929688 C 119.085938 88.886719 119.140625 88.773438 119.140625 88.671875 C 119.140625 88.574219 119.328125 88.097656 119.554688 87.613281 C 120.171875 86.308594 120.359375 85.816406 120.363281 85.527344 C 120.363281 85.382812 120.464844 85.074219 120.59375 84.839844 C 121.074219 83.953125 121.199219 83.652344 121.523438 82.582031 C 121.707031 81.976562 121.984375 81.097656 122.136719 80.628906 C 122.292969 80.15625 122.503906 79.445312 122.605469 79.039062 C 122.707031 78.636719 122.878906 77.976562 122.988281 77.574219 C 123.671875 75.046875 124.617188 68.9375 124.640625 66.894531 C 124.648438 66.257812 124.730469 65.40625 124.824219 65.003906 C 124.929688 64.550781 124.996094 63.59375 124.996094 62.5 C 124.996094 61.40625 124.929688 60.449219 124.824219 59.996094 C 124.730469 59.59375 124.648438 58.742188 124.640625 58.105469 C 124.617188 56.101562 123.65625 49.878906 123 47.484375 C 122.898438 47.117188 122.710938 46.402344 122.582031 45.898438 C 122.449219 45.394531 122.25 44.734375 122.136719 44.433594 C 122.027344 44.132812 121.886719 43.664062 121.828125 43.394531 C 121.617188 42.390625 121.167969 41.222656 120.59375 40.160156 C 120.464844 39.925781 120.363281 39.617188 120.363281 39.472656 C 120.359375 39.183594 120.167969 38.679688 119.558594 37.378906 C 119.328125 36.890625 119.140625 36.414062 119.140625 36.320312 C 119.140625 36.222656 119.085938 36.113281 119.019531 36.074219 C 118.917969 36.007812 118.59375 35.402344 117.644531 33.507812 C 117.542969 33.308594 117.359375 32.910156 117.238281 32.625 C 117.117188 32.335938 116.972656 32.105469 116.917969 32.105469 C 116.863281 32.105469 116.683594 31.816406 116.515625 31.464844 C 116.347656 31.109375 116.078125 30.601562 115.910156 30.335938 C 115.742188 30.066406 115.515625 29.671875 115.410156 29.460938 C 115.304688 29.25 115.109375 28.980469 114.980469 28.863281 C 114.851562 28.746094 114.746094 28.585938 114.746094 28.503906 C 114.746094 28.425781 114.609375 28.234375 114.441406 28.078125 C 114.273438 27.917969 114.136719 27.6875 114.136719 27.566406 C 114.136719 27.445312 114.058594 27.34375 113.964844 27.34375 C 113.871094 27.34375 113.765625 27.21875 113.726562 27.070312 C 113.6875 26.917969 113.460938 26.578125 113.222656 26.3125 C 112.988281 26.050781 112.792969 25.773438 112.792969 25.695312 C 112.792969 25.617188 112.65625 25.425781 112.488281 25.269531 C 112.320312 25.109375 112.183594 24.945312 112.183594 24.898438 C 112.183594 24.847656 111.992188 24.601562 111.753906 24.34375 C 111.519531 24.089844 111.328125 23.832031 111.328125 23.777344 C 111.328125 23.71875 111.136719 23.46875 110.902344 23.21875 C 110.667969 22.96875 110.082031 22.300781 109.605469 21.726562 C 108.523438 20.445312 107.214844 19.042969 107.089844 19.039062 C 107.035156 19.035156 106.746094 18.761719 106.445312 18.425781 C 105.558594 17.445312 104.382812 16.324219 103.273438 15.40625 C 102.699219 14.933594 102.042969 14.363281 101.804688 14.140625 C 101.570312 13.917969 101.316406 13.707031 101.238281 13.671875 C 101.097656 13.613281 100.605469 13.230469 99.808594 12.558594 C 99.597656 12.382812 99.304688 12.203125 99.152344 12.15625 C 99 12.105469 98.875 12.019531 98.875 11.960938 C 98.875 11.902344 98.617188 11.675781 98.296875 11.457031 C 97.976562 11.238281 97.699219 11.015625 97.675781 10.960938 C 97.652344 10.910156 97.546875 10.863281 97.441406 10.863281 C 97.335938 10.863281 97.160156 10.785156 97.054688 10.691406 C 96.714844 10.386719 95.652344 9.652344 95.277344 9.460938 C 95.074219 9.359375 94.746094 9.167969 94.542969 9.03125 C 94.34375 8.898438 93.890625 8.652344 93.535156 8.484375 C 93.183594 8.316406 92.894531 8.136719 92.894531 8.082031 C 92.894531 8.023438 92.578125 7.851562 92.195312 7.695312 C 91.808594 7.542969 91.355469 7.328125 91.1875 7.226562 C 90.59375 6.855469 89.570312 6.347656 89.421875 6.347656 C 89.339844 6.347656 89.171875 6.238281 89.050781 6.101562 C 88.929688 5.96875 88.757812 5.859375 88.667969 5.859375 C 88.582031 5.859375 88.109375 5.671875 87.621094 5.441406 C 86.339844 4.839844 85.816406 4.640625 85.546875 4.640625 C 85.414062 4.640625 84.941406 4.453125 84.492188 4.222656 C 83.601562 3.769531 82.398438 3.335938 81.542969 3.164062 C 81.035156 3.058594 80.785156 2.984375 80.140625 2.738281 C 80.003906 2.6875 79.539062 2.550781 79.101562 2.433594 C 78.664062 2.316406 77.921875 2.113281 77.453125 1.976562 C 76.59375 1.730469 75.3125 1.480469 73.609375 1.222656 C 73.105469 1.148438 72.527344 1.035156 72.328125 0.976562 C 71.972656 0.871094 70.957031 0.722656 68.910156 0.488281 C 67.6875 0.347656 66.480469 0.304688 66.332031 0.398438 C 66.265625 0.4375 65.777344 0.367188 65.242188 0.238281 C 63.945312 -0.0703125 61.03125 -0.0664062 59.671875 0.242188 M 79.542969 29.480469 C 79.90625 29.847656 80.199219 30.195312 80.199219 30.246094 C 80.199219 30.296875 80.324219 30.390625 80.476562 30.457031 C 80.625 30.523438 80.804688 30.703125 80.871094 30.851562 C 80.9375 31.003906 81.03125 31.128906 81.082031 31.128906 C 81.136719 31.128906 81.398438 31.347656 81.664062 31.617188 C 81.933594 31.882812 82.152344 32.144531 82.152344 32.199219 C 82.152344 32.25 82.277344 32.34375 82.429688 32.410156 C 82.578125 32.476562 82.757812 32.65625 82.824219 32.804688 C 82.890625 32.957031 82.984375 33.082031 83.035156 33.082031 C 83.15625 33.082031 84.105469 34.03125 84.105469 34.152344 C 84.105469 34.203125 84.230469 34.296875 84.382812 34.363281 C 84.53125 34.429688 84.710938 34.609375 84.777344 34.757812 C 84.84375 34.910156 84.9375 35.035156 84.988281 35.035156 C 85.109375 35.035156 86.058594 35.984375 86.058594 36.105469 C 86.058594 36.15625 86.183594 36.25 86.335938 36.316406 C 86.484375 36.382812 86.664062 36.5625 86.730469 36.710938 C 86.796875 36.863281 86.890625 36.988281 86.941406 36.988281 C 87.0625 36.988281 88.011719 37.9375 88.011719 38.058594 C 88.011719 38.109375 88.136719 38.203125 88.289062 38.269531 C 88.4375 38.335938 88.617188 38.515625 88.683594 38.667969 C 88.75 38.820312 88.886719 38.972656 88.988281 39.007812 C 89.253906 39.105469 89.765625 39.785156 89.75 40.023438 C 89.636719 41.757812 89.757812 74.289062 89.878906 74.363281 C 89.960938 74.417969 90.933594 74.460938 92.042969 74.460938 C 94.65625 74.464844 95.746094 74.992188 96.492188 76.621094 L 96.808594 77.316406 L 96.773438 85.453125 C 96.746094 92.023438 96.710938 93.628906 96.578125 93.785156 C 96.488281 93.894531 96.449219 94.039062 96.492188 94.109375 C 96.535156 94.179688 96.515625 94.238281 96.441406 94.238281 C 96.371094 94.238281 96.3125 94.300781 96.3125 94.375 C 96.3125 94.621094 95.351562 95.453125 94.703125 95.765625 L 94.066406 96.070312 L 30.933594 96.070312 L 30.277344 95.753906 C 29.589844 95.421875 28.390625 94.296875 28.515625 94.097656 C 28.554688 94.035156 28.511719 93.894531 28.421875 93.785156 C 28.289062 93.628906 28.253906 92.019531 28.226562 85.421875 L 28.191406 77.25 L 28.515625 76.585938 C 28.867188 75.863281 29.664062 75.097656 30.457031 74.710938 C 30.890625 74.5 31.25 74.472656 33.722656 74.449219 C 35.691406 74.433594 36.535156 74.382812 36.621094 74.28125 C 36.699219 74.1875 36.742188 66.597656 36.746094 52.699219 C 36.746094 38.859375 36.789062 31.234375 36.867188 31.1875 C 36.933594 31.148438 36.988281 30.964844 36.992188 30.785156 C 36.996094 30.382812 37.589844 29.683594 38.296875 29.25 L 38.8125 28.929688 L 58.4375 28.898438 C 69.234375 28.882812 78.25 28.855469 78.476562 28.839844 C 78.832031 28.8125 78.976562 28.898438 79.542969 29.480469 M 40.902344 32.09375 C 40.808594 32.15625 40.546875 32.175781 40.324219 32.136719 L 39.917969 32.074219 L 39.945312 53.238281 L 39.976562 74.402344 L 63.039062 74.433594 C 83.585938 74.460938 86.132812 74.445312 86.386719 74.277344 L 86.671875 74.089844 L 86.640625 57.609375 L 86.609375 41.125 L 82.152344 41.132812 C 79.703125 41.132812 77.632812 41.09375 77.554688 41.042969 C 77.449219 40.976562 77.398438 39.761719 77.371094 36.558594 L 77.332031 32.164062 L 76.597656 32.085938 C 75.445312 31.964844 41.101562 31.972656 40.902344 32.09375 M 79.632812 51.707031 C 79.808594 51.773438 79.816406 53.699219 79.640625 54.535156 L 79.585938 54.808594 L 63.199219 54.78125 L 46.8125 54.75 L 46.78125 53.351562 C 46.761719 52.585938 46.773438 51.882812 46.804688 51.796875 C 46.871094 51.628906 79.203125 51.542969 79.632812 51.707031 M 79.660156 61.703125 C 79.75 61.730469 79.773438 62.191406 79.734375 63.097656 C 79.6875 64.292969 79.703125 64.453125 79.878906 64.453125 C 80.316406 64.453125 80.042969 64.667969 79.511719 64.742188 C 79.199219 64.785156 71.730469 64.820312 62.914062 64.820312 L 46.878906 64.820312 L 46.8125 64.542969 C 46.773438 64.394531 46.757812 63.691406 46.777344 62.988281 L 46.8125 61.707031 L 62.5 61.644531 C 77.082031 61.589844 79.3125 61.597656 79.660156 61.703125 M 52.308594 80.132812 C 51.972656 80.226562 51.480469 80.382812 51.21875 80.480469 C 50.636719 80.695312 49.617188 81.78125 49.425781 82.386719 C 49.351562 82.628906 49.199219 82.960938 49.089844 83.128906 C 48.789062 83.589844 48.800781 86.601562 49.101562 87.066406 C 49.21875 87.246094 49.316406 87.492188 49.320312 87.613281 C 49.328125 87.945312 49.933594 88.753906 50.503906 89.1875 C 50.78125 89.398438 50.976562 89.605469 50.9375 89.648438 C 50.894531 89.6875 51.011719 89.722656 51.195312 89.722656 C 51.375 89.722656 51.675781 89.796875 51.855469 89.886719 C 52.277344 90.101562 53.8125 90.257812 54 90.105469 C 54.074219 90.039062 54.359375 89.953125 54.625 89.914062 C 55.136719 89.832031 55.964844 89.335938 56.078125 89.039062 C 56.113281 88.945312 56.226562 88.867188 56.328125 88.867188 C 56.488281 88.867188 56.792969 88.335938 57.046875 87.617188 C 57.179688 87.230469 56.996094 87.050781 56.316406 86.910156 C 55.574219 86.757812 55.390625 86.863281 55.238281 87.535156 C 55.160156 87.867188 54.578125 88.378906 54.277344 88.378906 C 54.183594 88.378906 54.070312 88.460938 54.03125 88.5625 C 53.953125 88.765625 52.613281 88.835938 52.613281 88.632812 C 52.613281 88.574219 52.515625 88.546875 52.398438 88.578125 C 50.660156 89.003906 49.949219 83.542969 51.550781 82.074219 C 52.679688 81.042969 54.65625 81.292969 55.308594 82.550781 C 55.558594 83.03125 55.945312 83.082031 56.847656 82.75 C 57.230469 82.609375 56.765625 81.175781 56.335938 81.175781 C 56.238281 81.175781 56.109375 81.082031 56.046875 80.964844 C 55.675781 80.273438 53.53125 79.800781 52.308594 80.132812 M 61.898438 80.082031 C 61.46875 80.140625 61.085938 80.234375 61.046875 80.289062 C 61.007812 80.339844 60.761719 80.496094 60.503906 80.628906 C 58.941406 81.433594 58.839844 83.546875 60.3125 84.738281 C 60.542969 84.925781 60.90625 85.097656 61.121094 85.121094 C 61.335938 85.144531 61.59375 85.234375 61.695312 85.316406 C 61.796875 85.402344 62.117188 85.5 62.402344 85.539062 C 62.691406 85.574219 62.980469 85.644531 63.050781 85.699219 C 63.117188 85.75 63.410156 85.855469 63.699219 85.933594 C 64.558594 86.164062 64.996094 86.460938 65.042969 86.851562 C 65.105469 87.394531 64.953125 88.011719 64.753906 88.011719 C 64.65625 88.011719 64.574219 88.089844 64.574219 88.1875 C 64.574219 88.683594 62.644531 88.945312 61.75 88.570312 C 61.25 88.363281 61.03125 88.117188 60.730469 87.425781 L 60.503906 86.902344 L 59.824219 86.9375 L 59.144531 86.976562 L 59.105469 87.433594 C 59.078125 87.75 59.144531 88.003906 59.320312 88.246094 C 59.457031 88.441406 59.570312 88.679688 59.570312 88.777344 C 59.570312 88.878906 59.757812 89.085938 59.988281 89.246094 C 60.21875 89.402344 60.382812 89.570312 60.351562 89.621094 C 60.320312 89.671875 60.445312 89.75 60.632812 89.789062 C 60.820312 89.832031 61.167969 89.925781 61.402344 89.996094 C 62.394531 90.304688 65.429688 89.992188 65.429688 89.582031 C 65.429688 89.457031 66.023438 88.867188 66.152344 88.867188 C 66.289062 88.867188 66.582031 88.148438 66.558594 87.867188 C 66.550781 87.746094 66.59375 87.648438 66.65625 87.648438 C 66.851562 87.648438 66.785156 86.683594 66.566406 86.265625 C 66.453125 86.050781 66.351562 85.820312 66.339844 85.753906 C 66.328125 85.6875 66.3125 85.5625 66.304688 85.480469 C 66.292969 85.394531 66.21875 85.328125 66.136719 85.328125 C 66.058594 85.328125 65.851562 85.195312 65.679688 85.039062 C 65.507812 84.878906 65.09375 84.652344 64.757812 84.535156 C 64.421875 84.417969 63.984375 84.253906 63.78125 84.171875 C 63.582031 84.089844 63.085938 83.953125 62.683594 83.871094 C 61.136719 83.550781 60.648438 83.117188 60.894531 82.285156 C 61.320312 80.871094 64.574219 81.085938 64.574219 82.527344 L 64.574219 82.886719 L 66.253906 82.886719 L 66.332031 82.503906 C 66.628906 81.003906 64.339844 79.753906 61.898438 80.082031 M 71.046875 80.042969 C 70.742188 80.070312 70.441406 80.160156 70.375 80.25 C 70.304688 80.335938 70.085938 80.492188 69.886719 80.597656 C 69.484375 80.804688 69.035156 81.351562 68.839844 81.875 C 68.570312 82.574219 68.800781 84.328125 69.097656 83.859375 C 69.1875 83.714844 69.210938 83.734375 69.210938 83.945312 C 69.214844 84.214844 70.394531 85.367188 70.5625 85.261719 C 70.609375 85.234375 70.96875 85.296875 71.363281 85.40625 C 71.757812 85.511719 72.152344 85.601562 72.234375 85.605469 C 72.320312 85.609375 72.386719 85.652344 72.386719 85.699219 C 72.386719 85.75 72.632812 85.824219 72.929688 85.871094 C 73.757812 85.992188 74.199219 86.261719 74.320312 86.707031 C 74.441406 87.160156 74.375 88.054688 74.214844 88.113281 C 74.152344 88.132812 73.898438 88.292969 73.648438 88.460938 C 72.570312 89.195312 70.433594 88.605469 70.234375 87.523438 C 70.074219 86.65625 68.519531 86.605469 68.46875 87.46875 C 68.367188 89.207031 71.050781 90.507812 73.621094 89.96875 C 73.984375 89.890625 74.429688 89.796875 74.617188 89.761719 C 74.800781 89.722656 74.953125 89.617188 74.953125 89.523438 C 74.953125 89.425781 75.085938 89.289062 75.253906 89.210938 C 75.421875 89.136719 75.589844 88.972656 75.628906 88.847656 C 75.667969 88.726562 75.792969 88.53125 75.90625 88.417969 C 76.183594 88.140625 76.277344 86.304688 76.027344 86.050781 C 75.933594 85.953125 75.730469 85.671875 75.578125 85.417969 C 75.421875 85.167969 75.199219 84.960938 75.082031 84.960938 C 74.964844 84.960938 74.765625 84.851562 74.644531 84.71875 C 74.523438 84.582031 74.296875 84.472656 74.136719 84.472656 C 73.980469 84.472656 73.648438 84.363281 73.394531 84.226562 C 73.144531 84.09375 72.820312 83.984375 72.675781 83.984375 C 71.519531 83.984375 70.3125 83.242188 70.3125 82.527344 C 70.3125 81.703125 70.796875 81.421875 72.199219 81.421875 C 73.445312 81.421875 73.472656 81.4375 74.078125 82.453125 C 74.289062 82.8125 74.960938 82.96875 75.578125 82.808594 C 75.851562 82.738281 75.742188 81.828125 75.421875 81.472656 C 75.296875 81.335938 75.195312 81.15625 75.195312 81.078125 C 75.195312 81 74.960938 80.820312 74.675781 80.675781 C 74.390625 80.53125 74.128906 80.371094 74.097656 80.324219 C 74.023438 80.21875 72.257812 79.945312 71.863281 79.976562 C 71.714844 79.988281 71.347656 80.019531 71.046875 80.042969 "/>
<path style=" stroke:none;fill-rule:evenodd;fill:rgb(49.803922%,72.156863%,89.803922%);fill-opacity:1;" d="M 49.234375 29.023438 C 54.59375 29.039062 63.328125 29.039062 68.644531 29.023438 C 73.960938 29.003906 69.574219 28.992188 58.898438 28.992188 C 48.222656 28.992188 43.875 29.003906 49.234375 29.023438 M 39.730469 32.011719 C 39.695312 32.097656 39.6875 41.667969 39.703125 53.285156 L 39.734375 74.402344 L 39.765625 53.191406 L 39.796875 31.984375 L 58.683594 31.953125 L 77.574219 31.921875 L 58.679688 31.890625 C 43.65625 31.867188 39.773438 31.890625 39.730469 32.011719 M 53.011719 79.921875 C 53.195312 79.949219 53.472656 79.949219 53.621094 79.921875 C 53.769531 79.890625 53.621094 79.867188 53.285156 79.867188 C 52.949219 79.871094 52.824219 79.894531 53.011719 79.921875 M 62.53125 79.921875 C 62.714844 79.949219 63.015625 79.949219 63.203125 79.921875 C 63.386719 79.894531 63.234375 79.871094 62.867188 79.871094 C 62.496094 79.871094 62.347656 79.894531 62.53125 79.921875 M 50.6875 85.570312 C 50.6875 85.804688 50.710938 85.902344 50.742188 85.785156 C 50.773438 85.667969 50.773438 85.476562 50.742188 85.359375 C 50.710938 85.242188 50.6875 85.335938 50.6875 85.570312 M 52.886719 90.296875 C 53.070312 90.324219 53.375 90.324219 53.558594 90.296875 C 53.742188 90.269531 53.59375 90.246094 53.222656 90.246094 C 52.851562 90.246094 52.703125 90.269531 52.886719 90.296875 M 72.785156 90.292969 C 72.902344 90.324219 73.09375 90.324219 73.210938 90.292969 C 73.328125 90.261719 73.234375 90.238281 73 90.238281 C 72.761719 90.238281 72.667969 90.261719 72.785156 90.292969 M 47.027344 96.039062 C 55.539062 96.054688 69.460938 96.054688 77.972656 96.039062 C 86.480469 96.023438 79.519531 96.007812 62.5 96.007812 C 45.480469 96.007812 38.519531 96.023438 47.027344 96.039062 "/>
<path style=" stroke:none;fill-rule:evenodd;fill:rgb(37.647059%,63.529412%,85.098039%);fill-opacity:1;" d="M 57.554688 0.246094 L 56.703125 0.332031 L 57.679688 0.351562 C 59.046875 0.378906 59.210938 0.371094 59.691406 0.253906 C 60.226562 0.121094 58.898438 0.117188 57.554688 0.246094 M 65.550781 0.304688 C 65.917969 0.394531 66.269531 0.4375 66.328125 0.398438 C 66.390625 0.363281 66.859375 0.332031 67.367188 0.332031 L 68.296875 0.335938 L 67.382812 0.242188 C 66.878906 0.195312 66.109375 0.152344 65.671875 0.148438 L 64.878906 0.144531 L 65.550781 0.304688 M 55.820312 0.453125 C 56.003906 0.480469 56.277344 0.480469 56.429688 0.453125 C 56.578125 0.421875 56.425781 0.398438 56.089844 0.402344 C 55.753906 0.402344 55.632812 0.425781 55.820312 0.453125 M 68.636719 0.453125 C 68.820312 0.480469 69.097656 0.480469 69.246094 0.453125 C 69.394531 0.421875 69.246094 0.398438 68.910156 0.402344 C 68.574219 0.402344 68.449219 0.425781 68.636719 0.453125 M 54.078125 0.609375 L 53.648438 0.699219 L 54.078125 0.710938 C 54.3125 0.714844 54.722656 0.671875 54.992188 0.617188 L 55.480469 0.515625 L 54.992188 0.519531 C 54.722656 0.519531 54.3125 0.5625 54.078125 0.609375 M 70.007812 0.617188 C 70.277344 0.671875 70.6875 0.714844 70.921875 0.710938 L 71.351562 0.703125 L 70.863281 0.601562 C 70.59375 0.546875 70.179688 0.503906 69.945312 0.507812 L 69.519531 0.515625 L 70.007812 0.617188 M 51.609375 0.980469 C 50.339844 1.210938 49.960938 1.320312 50.355469 1.332031 C 50.597656 1.339844 52.246094 1.066406 53.160156 0.867188 L 53.648438 0.761719 L 53.222656 0.761719 C 52.988281 0.761719 52.261719 0.859375 51.609375 0.980469 M 71.839844 0.875 C 73.078125 1.164062 74.941406 1.433594 74.824219 1.304688 C 74.738281 1.210938 71.992188 0.730469 71.632812 0.746094 C 71.453125 0.753906 71.523438 0.800781 71.839844 0.875 M 49.085938 1.476562 C 48.792969 1.53125 48.519531 1.613281 48.480469 1.648438 C 48.398438 1.730469 49.355469 1.589844 49.804688 1.457031 C 50.234375 1.324219 49.78125 1.335938 49.085938 1.476562 M 75.195312 1.449219 C 75.636719 1.589844 76.652344 1.722656 76.355469 1.597656 C 76.21875 1.542969 75.835938 1.464844 75.5 1.425781 C 75.125 1.378906 75.007812 1.390625 75.195312 1.449219 M 46.292969 2.164062 C 45.671875 2.335938 45.183594 2.5 45.210938 2.527344 C 45.261719 2.578125 46.277344 2.339844 47.300781 2.035156 C 48.347656 1.722656 47.484375 1.832031 46.292969 2.164062 M 77.636719 2.015625 C 78.972656 2.414062 79.621094 2.574219 79.746094 2.53125 C 79.894531 2.480469 77.53125 1.824219 77.261719 1.84375 C 77.164062 1.847656 77.335938 1.925781 77.636719 2.015625 M 42.96875 3.171875 C 41.996094 3.496094 41.265625 3.765625 41.351562 3.773438 C 41.433594 3.777344 41.820312 3.675781 42.207031 3.542969 C 42.589844 3.414062 43.160156 3.25 43.464844 3.183594 C 44.078125 3.046875 45.214844 2.578125 44.921875 2.582031 C 44.820312 2.582031 43.941406 2.847656 42.96875 3.171875 M 80.023438 2.667969 C 80.203125 2.824219 81.519531 3.203125 81.691406 3.144531 C 81.777344 3.117188 81.453125 2.972656 80.972656 2.828125 C 80.023438 2.539062 79.847656 2.507812 80.023438 2.667969 M 82.464844 3.402344 C 82.738281 3.53125 83.152344 3.667969 83.382812 3.707031 C 83.703125 3.765625 83.65625 3.730469 83.191406 3.558594 C 82.289062 3.222656 81.898438 3.140625 82.464844 3.402344 M 40.039062 4.195312 C 39.46875 4.414062 38.890625 4.660156 38.757812 4.746094 L 38.511719 4.902344 L 38.757812 4.816406 C 38.890625 4.769531 39.195312 4.691406 39.429688 4.644531 C 39.828125 4.5625 41.136719 3.941406 41.136719 3.832031 C 41.136719 3.773438 41.257812 3.734375 40.039062 4.195312 M 83.863281 3.839844 C 83.863281 3.941406 85.191406 4.566406 85.570312 4.644531 C 85.804688 4.691406 86.109375 4.769531 86.242188 4.8125 C 86.378906 4.859375 86.347656 4.816406 86.167969 4.710938 C 85.832031 4.515625 83.863281 3.773438 83.863281 3.839844 M 37.132812 5.40625 C 36.644531 5.617188 36.292969 5.8125 36.351562 5.832031 C 36.476562 5.871094 38.085938 5.167969 38.085938 5.070312 C 38.085938 4.984375 38.144531 4.960938 37.132812 5.40625 M 86.914062 5.066406 C 86.914062 5.148438 88.507812 5.859375 88.671875 5.851562 C 88.746094 5.847656 88.503906 5.707031 88.132812 5.535156 C 87.238281 5.125 86.914062 5 86.914062 5.066406 M 34.605469 6.609375 C 33.121094 7.355469 32.625 7.675781 33.203125 7.507812 C 33.371094 7.460938 33.644531 7.335938 33.8125 7.230469 C 34.378906 6.871094 35.425781 6.347656 35.578125 6.347656 C 35.660156 6.347656 35.828125 6.238281 35.949219 6.101562 C 36.242188 5.777344 36.28125 5.765625 34.605469 6.609375 M 89.042969 6.097656 C 89.167969 6.234375 89.339844 6.347656 89.425781 6.347656 C 89.507812 6.347656 89.925781 6.539062 90.351562 6.773438 C 91.308594 7.304688 92.429688 7.828125 92.484375 7.773438 C 92.53125 7.726562 90.890625 6.839844 89.664062 6.253906 C 88.976562 5.921875 88.859375 5.890625 89.042969 6.097656 M 31.800781 8.105469 C 31.664062 8.195312 31.097656 8.527344 30.542969 8.847656 C 29.984375 9.167969 29.558594 9.457031 29.59375 9.492188 C 29.628906 9.527344 29.808594 9.453125 29.996094 9.324219 C 30.582031 8.929688 30.804688 8.804688 31.464844 8.488281 C 31.816406 8.320312 32.105469 8.125 32.105469 8.058594 C 32.105469 7.90625 32.101562 7.910156 31.800781 8.105469 M 92.894531 8.117188 C 92.894531 8.152344 93.183594 8.320312 93.535156 8.488281 C 94.195312 8.804688 94.417969 8.929688 95.003906 9.324219 C 95.191406 9.453125 95.371094 9.527344 95.40625 9.492188 C 95.488281 9.410156 93.1875 8.054688 92.960938 8.054688 C 92.925781 8.054688 92.894531 8.085938 92.894531 8.117188 M 28.441406 10.128906 C 27.9375 10.453125 26.929688 11.152344 26.203125 11.679688 C 25.472656 12.203125 24.816406 12.671875 24.742188 12.71875 C 24.664062 12.765625 24.636719 12.835938 24.679688 12.878906 C 24.722656 12.921875 24.9375 12.792969 25.164062 12.597656 C 25.390625 12.402344 25.695312 12.203125 25.847656 12.15625 C 26 12.105469 26.125 12.027344 26.125 11.976562 C 26.125 11.925781 26.382812 11.695312 26.703125 11.46875 C 27.023438 11.242188 27.300781 11.015625 27.324219 10.960938 C 27.347656 10.90625 27.464844 10.863281 27.589844 10.863281 C 27.714844 10.863281 27.851562 10.8125 27.890625 10.746094 C 27.933594 10.679688 28.265625 10.425781 28.632812 10.183594 C 29.1875 9.816406 29.554688 9.5 29.394531 9.527344 C 29.375 9.53125 28.945312 9.800781 28.441406 10.128906 M 95.625 9.617188 C 95.667969 9.6875 96.003906 9.941406 96.367188 10.183594 C 96.734375 10.425781 97.066406 10.679688 97.109375 10.746094 C 97.148438 10.8125 97.285156 10.863281 97.410156 10.863281 C 97.535156 10.863281 97.652344 10.910156 97.675781 10.960938 C 97.699219 11.015625 97.976562 11.238281 98.296875 11.457031 C 98.617188 11.675781 98.875 11.902344 98.875 11.960938 C 98.875 12.019531 99 12.105469 99.152344 12.15625 C 99.304688 12.203125 99.609375 12.402344 99.835938 12.597656 C 100.0625 12.792969 100.277344 12.921875 100.3125 12.886719 C 100.351562 12.847656 100.359375 12.800781 100.332031 12.777344 C 99.78125 12.367188 97.515625 10.742188 97.289062 10.601562 C 97.121094 10.496094 96.660156 10.203125 96.265625 9.953125 C 95.871094 9.699219 95.585938 9.550781 95.625 9.617188 M 24.039062 13.304688 C 23.808594 13.5 23.675781 13.664062 23.742188 13.664062 C 23.914062 13.664062 24.601562 13.085938 24.523438 13.007812 C 24.488281 12.972656 24.269531 13.105469 24.039062 13.304688 M 100.464844 13.03125 C 100.464844 13.140625 101.125 13.671875 101.257812 13.671875 C 101.394531 13.671875 101.191406 13.441406 100.828125 13.179688 C 100.625 13.039062 100.464844 12.972656 100.464844 13.03125 M 21.910156 15.039062 C 19.957031 16.71875 16.796875 19.871094 15.261719 21.667969 C 14.632812 22.40625 14.003906 23.136719 13.867188 23.292969 C 13.675781 23.507812 13.664062 23.554688 13.816406 23.496094 C 13.925781 23.453125 14.144531 23.25 14.300781 23.039062 C 15.15625 21.902344 17.734375 19.046875 17.910156 19.039062 C 17.964844 19.035156 18.253906 18.761719 18.554688 18.425781 C 19.679688 17.179688 21.757812 15.269531 23.039062 14.300781 C 23.339844 14.074219 23.660156 13.660156 23.523438 13.675781 C 23.511719 13.675781 22.785156 14.289062 21.910156 15.039062 M 101.546875 13.882812 C 101.625 14.03125 101.828125 14.25 102 14.371094 C 103.0625 15.113281 105.292969 17.148438 106.445312 18.425781 C 106.746094 18.761719 107.035156 19.035156 107.089844 19.039062 C 107.265625 19.046875 109.84375 21.902344 110.699219 23.039062 C 110.855469 23.25 111.070312 23.453125 111.171875 23.492188 C 111.371094 23.570312 110.796875 22.855469 109.265625 21.117188 C 107.894531 19.566406 104.851562 16.566406 103.332031 15.265625 C 102.59375 14.632812 101.859375 14.003906 101.699219 13.863281 L 101.40625 13.609375 L 101.546875 13.882812 M 13.238281 24.105469 C 13.054688 24.34375 12.933594 24.570312 12.964844 24.605469 C 13 24.636719 13.179688 24.46875 13.363281 24.226562 C 13.546875 23.984375 13.667969 23.761719 13.636719 23.726562 C 13.601562 23.691406 13.425781 23.863281 13.238281 24.105469 M 111.335938 23.742188 C 111.335938 23.808594 111.496094 24.058594 111.695312 24.292969 C 111.890625 24.527344 112.054688 24.664062 112.058594 24.59375 C 112.058594 24.523438 111.898438 24.277344 111.699219 24.042969 C 111.5 23.8125 111.335938 23.675781 111.335938 23.742188 M 12.308594 25.3125 C 12.058594 25.65625 11.628906 26.257812 11.351562 26.640625 C 11.074219 27.027344 10.890625 27.34375 10.949219 27.34375 C 11.007812 27.34375 11.144531 27.191406 11.253906 27.007812 C 11.367188 26.824219 11.625 26.484375 11.832031 26.253906 C 12.039062 26.023438 12.207031 25.777344 12.207031 25.710938 C 12.207031 25.644531 12.351562 25.4375 12.527344 25.253906 C 12.699219 25.070312 12.824219 24.867188 12.800781 24.804688 C 12.777344 24.738281 12.554688 24.96875 12.308594 25.3125 M 112.183594 24.808594 C 112.183594 24.90625 112.320312 25.109375 112.488281 25.269531 C 112.65625 25.425781 112.792969 25.617188 112.792969 25.695312 C 112.792969 25.773438 112.988281 26.050781 113.222656 26.3125 C 113.460938 26.578125 113.6875 26.917969 113.726562 27.070312 C 113.765625 27.21875 113.875 27.34375 113.972656 27.34375 C 114.171875 27.34375 114.121094 27.265625 112.886719 25.59375 C 112.5 25.066406 112.183594 24.714844 112.183594 24.808594 M 10.679688 27.59375 C 10.621094 27.691406 10.386719 28.074219 10.160156 28.441406 C 9.90625 28.855469 9.859375 28.984375 10.03125 28.78125 C 10.648438 28.058594 10.882812 27.703125 10.835938 27.5625 C 10.800781 27.460938 10.753906 27.46875 10.679688 27.59375 M 114.136719 27.601562 C 114.136719 27.707031 114.273438 27.917969 114.441406 28.078125 C 114.609375 28.234375 114.746094 28.425781 114.746094 28.503906 C 114.746094 28.585938 114.863281 28.753906 115.007812 28.882812 C 115.1875 29.039062 115.125 28.875 114.8125 28.382812 C 114.257812 27.492188 114.136719 27.355469 114.136719 27.601562 M 78.042969 28.886719 C 78.085938 28.929688 78.261719 28.972656 78.429688 28.980469 C 78.667969 28.988281 79.605469 29.855469 82.402344 32.652344 C 84.414062 34.667969 86.058594 36.246094 86.058594 36.164062 C 86.058594 36 85.144531 35.035156 84.988281 35.035156 C 84.9375 35.035156 84.84375 34.910156 84.777344 34.757812 C 84.710938 34.609375 84.53125 34.429688 84.382812 34.363281 C 84.230469 34.296875 84.105469 34.203125 84.105469 34.152344 C 84.105469 34.03125 83.15625 33.082031 83.035156 33.082031 C 82.984375 33.082031 82.890625 32.957031 82.824219 32.804688 C 82.757812 32.65625 82.578125 32.476562 82.429688 32.410156 C 82.277344 32.34375 82.152344 32.25 82.152344 32.199219 C 82.152344 32.144531 81.933594 31.882812 81.664062 31.617188 C 81.398438 31.347656 81.136719 31.128906 81.082031 31.128906 C 81.03125 31.128906 80.9375 31.003906 80.871094 30.851562 C 80.804688 30.703125 80.625 30.523438 80.476562 30.457031 C 80.324219 30.390625 80.199219 30.296875 80.199219 30.246094 C 80.199219 29.894531 78.859375 28.808594 78.425781 28.808594 C 78.171875 28.808594 77.996094 28.84375 78.042969 28.886719 M 38.234375 29.28125 C 37.605469 29.6875 37 30.371094 36.992188 30.683594 C 36.988281 30.828125 37.132812 30.695312 37.382812 30.324219 C 37.800781 29.707031 38.664062 29.109375 39.265625 29.019531 C 39.570312 28.972656 39.558594 28.964844 39.183594 28.957031 C 38.914062 28.949219 38.566406 29.066406 38.234375 29.28125 M 8.738281 30.703125 C 8.351562 31.34375 8.0625 31.9375 8.09375 32.019531 C 8.125 32.097656 8.265625 31.917969 8.40625 31.617188 C 8.679688 31.035156 8.972656 30.507812 9.328125 29.96875 C 9.445312 29.789062 9.515625 29.617188 9.488281 29.589844 C 9.457031 29.558594 9.121094 30.058594 8.738281 30.703125 M 115.476562 29.613281 C 115.476562 29.652344 115.574219 29.832031 115.691406 30.011719 C 116.140625 30.695312 116.226562 30.84375 116.535156 31.492188 C 116.710938 31.863281 116.878906 32.097656 116.90625 32.019531 C 116.9375 31.9375 116.648438 31.347656 116.265625 30.707031 C 115.617188 29.621094 115.476562 29.425781 115.476562 29.613281 M 36.742188 53.085938 C 36.742188 69.824219 36.710938 74.214844 36.589844 74.308594 C 36.503906 74.378906 35.28125 74.441406 33.691406 74.453125 C 31.25 74.472656 30.890625 74.5 30.457031 74.710938 C 29.664062 75.09375 28.867188 75.863281 28.515625 76.585938 L 28.191406 77.25 L 28.226562 85.421875 C 28.253906 92.019531 28.289062 93.628906 28.421875 93.785156 C 28.511719 93.894531 28.554688 94.035156 28.515625 94.097656 C 28.246094 94.53125 30.839844 96.300781 31.40625 96.070312 C 31.664062 95.96875 31.660156 95.960938 31.339844 95.953125 C 30.441406 95.933594 29.195312 94.972656 28.664062 93.894531 L 28.382812 93.324219 L 28.382812 77.085938 L 28.714844 76.519531 C 29.6875 74.863281 30.472656 74.585938 34.140625 74.585938 L 36.867188 74.585938 L 36.867188 53.285156 C 36.867188 41.566406 36.835938 31.984375 36.804688 31.984375 C 36.769531 31.984375 36.742188 41.480469 36.742188 53.085938 M 39.796875 53.285156 L 39.796875 74.585938 L 86.671875 74.585938 L 86.671875 74.339844 C 86.671875 74.105469 86.652344 74.101562 86.382812 74.277344 C 86.132812 74.445312 83.570312 74.460938 63.039062 74.433594 L 39.976562 74.402344 L 39.945312 53.238281 L 39.917969 32.074219 L 40.324219 32.136719 C 40.546875 32.175781 40.808594 32.15625 40.902344 32.09375 C 41.019531 32.023438 40.859375 31.984375 40.4375 31.984375 L 39.796875 31.984375 L 39.796875 53.285156 M 76.660156 32.09375 L 77.332031 32.164062 L 77.363281 36.316406 C 77.382812 38.597656 77.414062 40.605469 77.4375 40.773438 C 77.460938 40.9375 77.484375 39.03125 77.496094 36.53125 L 77.515625 31.984375 L 76.75 32.003906 L 75.988281 32.023438 L 76.660156 32.09375 M 6.652344 34.542969 C 6.210938 35.429688 5.902344 36.121094 5.96875 36.078125 C 6.132812 35.976562 7.59375 33.066406 7.519531 32.992188 C 7.488281 32.960938 7.097656 33.65625 6.652344 34.542969 M 117.433594 33.050781 C 117.433594 33.101562 117.523438 33.308594 117.632812 33.507812 C 117.742188 33.710938 118.070312 34.351562 118.363281 34.9375 C 118.660156 35.519531 118.957031 36.035156 119.027344 36.078125 C 119.097656 36.121094 118.792969 35.4375 118.351562 34.558594 C 117.625 33.105469 117.429688 32.785156 117.433594 33.050781 M 5.59375 36.695312 C 5.488281 36.957031 5.308594 37.375 5.199219 37.628906 C 5.089844 37.878906 5.03125 38.085938 5.070312 38.085938 C 5.171875 38.085938 5.871094 36.476562 5.828125 36.339844 C 5.804688 36.273438 5.699219 36.433594 5.59375 36.695312 M 86.179688 36.351562 C 86.179688 36.40625 86.949219 37.207031 87.882812 38.136719 C 89.078125 39.320312 89.597656 39.917969 89.625 40.144531 C 89.660156 40.449219 89.667969 40.453125 89.742188 40.195312 C 89.824219 39.902344 89.332031 39.125 88.988281 39.007812 C 88.886719 38.972656 88.75 38.820312 88.683594 38.667969 C 88.617188 38.515625 88.4375 38.335938 88.289062 38.269531 C 88.136719 38.203125 88.011719 38.109375 88.011719 38.058594 C 88.011719 37.917969 87.054688 36.988281 86.914062 36.988281 C 86.847656 36.988281 86.792969 36.914062 86.792969 36.824219 C 86.792969 36.734375 86.691406 36.566406 86.570312 36.457031 C 86.328125 36.238281 86.179688 36.199219 86.179688 36.351562 M 119.148438 36.328125 C 119.140625 36.492188 119.851562 38.085938 119.933594 38.085938 C 120 38.085938 119.875 37.761719 119.464844 36.867188 C 119.292969 36.496094 119.152344 36.253906 119.148438 36.328125 M 4.539062 39.207031 C 4.40625 39.5625 4.179688 40.148438 4.039062 40.503906 C 3.898438 40.863281 3.835938 41.121094 3.90625 41.078125 C 3.972656 41.035156 4.027344 40.945312 4.027344 40.875 C 4.027344 40.804688 4.136719 40.609375 4.269531 40.441406 C 4.402344 40.273438 4.542969 39.9375 4.582031 39.691406 C 4.621094 39.445312 4.707031 39.113281 4.773438 38.957031 C 4.839844 38.796875 4.867188 38.640625 4.839844 38.609375 C 4.808594 38.582031 4.675781 38.851562 4.539062 39.207031 M 120.179688 38.789062 C 120.230469 38.90625 120.316406 39.25 120.378906 39.550781 C 120.4375 39.851562 120.59375 40.25 120.726562 40.429688 C 120.863281 40.613281 120.972656 40.816406 120.972656 40.882812 C 120.972656 40.945312 121.027344 41.035156 121.09375 41.078125 C 121.164062 41.121094 121.101562 40.863281 120.960938 40.503906 C 120.820312 40.148438 120.59375 39.566406 120.460938 39.214844 C 120.332031 38.863281 120.191406 38.574219 120.15625 38.574219 C 120.121094 38.574219 120.132812 38.671875 120.179688 38.789062 M 79.804688 41.105469 C 81.027344 41.125 83.035156 41.125 84.257812 41.105469 C 85.484375 41.085938 84.480469 41.070312 82.03125 41.070312 C 79.582031 41.070312 78.578125 41.085938 79.804688 41.105469 M 89.628906 57.832031 L 89.601562 74.585938 L 91.652344 74.585938 C 94.472656 74.585938 95.367188 74.957031 96.285156 76.519531 L 96.617188 77.085938 L 96.617188 93.445312 L 96.277344 94.027344 C 95.640625 95.109375 94.519531 95.933594 93.660156 95.953125 C 93.339844 95.960938 93.335938 95.96875 93.59375 96.070312 C 94.101562 96.277344 96.3125 94.894531 96.3125 94.375 C 96.3125 94.300781 96.371094 94.238281 96.441406 94.238281 C 96.515625 94.238281 96.535156 94.179688 96.492188 94.109375 C 96.449219 94.039062 96.488281 93.894531 96.578125 93.785156 C 96.710938 93.628906 96.746094 92.023438 96.773438 85.453125 L 96.808594 77.316406 L 96.492188 76.621094 C 95.746094 74.992188 94.65625 74.464844 92.042969 74.460938 C 90.933594 74.460938 89.957031 74.414062 89.875 74.363281 C 89.753906 74.285156 89.714844 70.761719 89.691406 57.671875 L 89.660156 41.078125 L 89.628906 57.832031 M 3.484375 41.960938 C 3.15625 43.011719 3.144531 43.078125 3.398438 42.535156 C 3.628906 42.042969 3.847656 41.257812 3.753906 41.257812 C 3.726562 41.257812 3.605469 41.574219 3.484375 41.960938 M 121.28125 41.566406 C 121.363281 42.011719 121.722656 42.992188 121.78125 42.929688 C 121.804688 42.90625 121.6875 42.507812 121.519531 42.042969 C 121.351562 41.578125 121.242188 41.363281 121.28125 41.566406 M 2.820312 44.050781 C 2.671875 44.542969 2.574219 44.972656 2.605469 45.003906 C 2.691406 45.089844 3.203125 43.476562 3.144531 43.304688 C 3.117188 43.222656 2.96875 43.558594 2.820312 44.050781 M 121.828125 43.371094 C 121.828125 43.617188 122.335938 45.066406 122.398438 45 C 122.429688 44.96875 122.335938 44.554688 122.195312 44.078125 C 121.949219 43.257812 121.828125 43.019531 121.828125 43.371094 M 2.441406 45.1875 C 2.441406 45.222656 2.273438 45.898438 2.066406 46.6875 C 1.859375 47.472656 1.714844 48.144531 1.746094 48.171875 C 1.796875 48.222656 2.015625 47.484375 2.394531 45.976562 C 2.492188 45.582031 2.546875 45.230469 2.507812 45.191406 C 2.472656 45.15625 2.441406 45.152344 2.441406 45.1875 M 122.492188 45.53125 C 122.539062 45.765625 122.675781 46.316406 122.800781 46.753906 C 122.925781 47.1875 123.0625 47.703125 123.105469 47.898438 C 123.144531 48.089844 123.210938 48.21875 123.246094 48.183594 C 123.3125 48.113281 122.585938 45.273438 122.472656 45.167969 C 122.4375 45.132812 122.445312 45.296875 122.492188 45.53125 M 1.554688 48.765625 C 1.363281 49.632812 1.347656 50.125 1.527344 49.4375 C 1.625 49.070312 1.6875 48.683594 1.667969 48.585938 C 1.648438 48.484375 1.597656 48.566406 1.554688 48.765625 M 123.316406 48.644531 C 123.316406 48.78125 123.386719 49.164062 123.472656 49.5 C 123.558594 49.835938 123.628906 50 123.632812 49.867188 C 123.632812 49.730469 123.5625 49.347656 123.476562 49.011719 C 123.390625 48.675781 123.320312 48.511719 123.316406 48.644531 M 1.054688 51.269531 C 0.796875 52.648438 0.359375 55.964844 0.378906 56.398438 C 0.386719 56.5625 0.519531 55.796875 0.671875 54.6875 C 0.828125 53.578125 1.046875 52.1875 1.15625 51.59375 C 1.265625 50.996094 1.335938 50.421875 1.3125 50.308594 C 1.289062 50.199219 1.171875 50.632812 1.054688 51.269531 M 123.660156 50.363281 C 123.664062 50.492188 123.75 51.09375 123.855469 51.695312 C 123.957031 52.300781 124.167969 53.675781 124.324219 54.75 C 124.480469 55.824219 124.613281 56.535156 124.617188 56.335938 C 124.640625 55.582031 123.863281 50.347656 123.707031 50.179688 C 123.679688 50.152344 123.660156 50.234375 123.660156 50.363281 M 63.203125 51.726562 L 79.589844 51.757812 L 79.589844 53.183594 C 79.589844 54.957031 79.664062 54.9375 79.746094 53.140625 C 79.800781 52.003906 79.78125 51.761719 79.628906 51.707031 C 79.53125 51.667969 72.105469 51.648438 63.132812 51.664062 L 46.8125 51.695312 L 63.203125 51.726562 M 55.023438 54.777344 C 59.539062 54.796875 66.925781 54.796875 71.441406 54.777344 C 75.957031 54.761719 72.261719 54.746094 63.234375 54.746094 C 54.203125 54.746094 50.507812 54.761719 55.023438 54.777344 M 0.203125 58.003906 C 0.0859375 59.609375 0.105469 60.246094 0.253906 59.753906 C 0.3125 59.550781 0.363281 59.222656 0.367188 59.019531 C 0.390625 56.5625 0.332031 56.1875 0.203125 58.003906 M 124.664062 58.066406 C 124.65625 58.753906 124.699219 59.46875 124.753906 59.65625 C 124.886719 60.09375 124.890625 58.941406 124.761719 57.679688 C 124.675781 56.828125 124.671875 56.828125 124.664062 58.066406 M 62.5 61.644531 L 46.8125 61.707031 L 63.203125 61.738281 L 79.589844 61.765625 L 79.589844 63.234375 C 79.589844 64.617188 79.601562 64.695312 79.835938 64.695312 C 79.96875 64.695312 80.078125 64.640625 80.078125 64.574219 C 80.078125 64.507812 79.988281 64.453125 79.878906 64.453125 C 79.703125 64.453125 79.6875 64.292969 79.734375 63.097656 C 79.773438 62.191406 79.75 61.730469 79.660156 61.703125 C 79.3125 61.597656 77.082031 61.589844 62.5 61.644531 M 54.960938 64.789062 C 59.445312 64.804688 66.777344 64.804688 71.257812 64.789062 C 75.738281 64.769531 72.074219 64.757812 63.109375 64.757812 C 54.148438 64.757812 50.480469 64.769531 54.960938 64.789062 M 0.144531 65.671875 C 0.148438 66.109375 0.195312 66.851562 0.242188 67.320312 L 0.335938 68.175781 L 0.351562 67.261719 C 0.378906 65.78125 0.363281 65.4375 0.246094 65.152344 C 0.167969 64.953125 0.140625 65.09375 0.144531 65.671875 M 124.730469 65.429688 C 124.683594 65.664062 124.652344 66.378906 124.65625 67.015625 L 124.667969 68.175781 L 124.773438 67.078125 C 124.835938 66.472656 124.867188 65.757812 124.851562 65.492188 L 124.816406 65.003906 L 124.730469 65.429688 M 0.378906 68.601562 C 0.34375 69.453125 1.230469 75.175781 1.316406 74.628906 C 1.335938 74.488281 1.265625 73.882812 1.152344 73.285156 C 1.039062 72.691406 0.820312 71.324219 0.667969 70.25 C 0.515625 69.175781 0.386719 68.4375 0.378906 68.601562 M 124.304688 70.3125 C 124.15625 71.421875 123.949219 72.820312 123.84375 73.421875 C 123.734375 74.023438 123.667969 74.597656 123.6875 74.703125 C 123.789062 75.167969 124.691406 69.140625 124.609375 68.5625 C 124.589844 68.417969 124.453125 69.203125 124.304688 70.3125 M 1.425781 75.5 C 1.464844 75.835938 1.542969 76.21875 1.597656 76.355469 C 1.722656 76.652344 1.589844 75.636719 1.449219 75.195312 C 1.390625 75.007812 1.378906 75.125 1.425781 75.5 M 123.421875 75.691406 C 123.339844 76.101562 123.296875 76.464844 123.328125 76.492188 C 123.355469 76.523438 123.445312 76.210938 123.527344 75.796875 C 123.609375 75.386719 123.648438 75.027344 123.621094 74.996094 C 123.59375 74.96875 123.503906 75.28125 123.421875 75.691406 M 1.71875 76.84375 C 1.707031 77.027344 2.433594 79.746094 2.519531 79.824219 C 2.621094 79.921875 2.472656 79.203125 2.179688 78.1875 C 1.855469 77.058594 1.730469 76.695312 1.71875 76.84375 M 123.105469 77.101562 C 123.0625 77.296875 122.925781 77.8125 122.800781 78.246094 C 122.53125 79.1875 122.382812 79.917969 122.472656 79.832031 C 122.585938 79.726562 123.3125 76.886719 123.246094 76.816406 C 123.210938 76.78125 123.144531 76.910156 123.105469 77.101562 M 2.5625 80.027344 C 2.5625 80.269531 3.101562 81.816406 3.144531 81.695312 C 3.195312 81.542969 2.710938 79.957031 2.613281 79.957031 C 2.585938 79.957031 2.5625 79.988281 2.5625 80.027344 M 52 80.074219 C 51.367188 80.277344 50.992188 80.453125 51.058594 80.519531 C 51.097656 80.554688 51.253906 80.515625 51.410156 80.429688 C 51.570312 80.347656 51.972656 80.210938 52.308594 80.125 C 52.644531 80.042969 52.78125 79.976562 52.613281 79.976562 C 52.445312 79.976562 52.167969 80.019531 52 80.074219 M 53.863281 80.039062 C 53.980469 80.070312 54.171875 80.070312 54.289062 80.039062 C 54.40625 80.007812 54.3125 79.984375 54.078125 79.984375 C 53.84375 79.984375 53.746094 80.007812 53.863281 80.039062 M 61.277344 80.070312 C 60.449219 80.324219 59.730469 80.882812 59.390625 81.539062 C 59.066406 82.160156 59.261719 82.105469 59.660156 81.457031 C 59.886719 81.097656 60.207031 80.777344 60.5 80.628906 C 60.761719 80.496094 61.007812 80.339844 61.046875 80.289062 C 61.085938 80.234375 61.46875 80.144531 61.898438 80.089844 C 62.582031 80 62.609375 79.984375 62.132812 79.980469 C 61.832031 79.980469 61.445312 80.019531 61.277344 80.070312 M 72.519531 80 C 72.546875 80.027344 72.898438 80.078125 73.304688 80.117188 C 73.777344 80.164062 73.929688 80.152344 73.730469 80.085938 C 73.429688 79.980469 72.421875 79.914062 72.519531 80 M 122.074219 80.742188 C 121.925781 81.183594 121.828125 81.613281 121.855469 81.695312 C 121.882812 81.777344 122.03125 81.441406 122.179688 80.949219 C 122.519531 79.828125 122.433594 79.65625 122.074219 80.742188 M 55.054688 80.257812 C 55.054688 80.289062 55.265625 80.425781 55.527344 80.558594 C 55.789062 80.691406 56.03125 80.886719 56.074219 80.988281 C 56.148438 81.191406 56.398438 81.25 56.398438 81.066406 C 56.398438 81.003906 56.121094 80.785156 55.785156 80.578125 C 55.171875 80.199219 55.054688 80.148438 55.054688 80.257812 M 64.695312 80.269531 C 64.695312 80.296875 64.917969 80.457031 65.1875 80.628906 C 65.867188 81.054688 66.425781 81.96875 66.328125 82.488281 C 66.28125 82.742188 66.304688 82.886719 66.394531 82.886719 C 66.855469 82.886719 66.292969 81.378906 65.582031 80.730469 C 65.21875 80.394531 64.695312 80.125 64.695312 80.269531 M 69.835938 80.453125 C 68.796875 81.085938 68.199219 82.738281 68.710938 83.5625 C 68.847656 83.78125 68.851562 83.777344 68.777344 83.503906 C 68.472656 82.398438 69.054688 80.9375 69.949219 80.5625 C 70.148438 80.480469 70.3125 80.367188 70.3125 80.308594 C 70.3125 80.164062 70.3125 80.164062 69.835938 80.453125 M 74.097656 80.296875 C 74.097656 80.351562 74.34375 80.515625 74.644531 80.664062 C 74.949219 80.808594 75.195312 80.996094 75.195312 81.074219 C 75.195312 81.15625 75.296875 81.335938 75.421875 81.472656 C 75.695312 81.773438 75.847656 82.722656 75.640625 82.808594 C 75.5625 82.839844 75.628906 82.871094 75.789062 82.875 C 76.425781 82.898438 75.71875 81.25 74.808594 80.578125 C 74.285156 80.195312 74.097656 80.121094 74.097656 80.296875 M 49.921875 81.390625 C 49.460938 81.910156 48.949219 82.832031 48.949219 83.148438 C 48.949219 83.429688 49.191406 83.082031 49.371094 82.542969 C 49.476562 82.21875 49.785156 81.714844 50.050781 81.417969 C 50.320312 81.125 50.539062 80.867188 50.539062 80.847656 C 50.539062 80.734375 50.382812 80.871094 49.921875 81.390625 M 61.90625 81.429688 C 61.234375 81.5625 61.070312 81.703125 60.894531 82.285156 C 60.648438 83.117188 61.136719 83.550781 62.683594 83.871094 C 63.085938 83.953125 63.582031 84.089844 63.78125 84.171875 C 63.984375 84.253906 64.421875 84.417969 64.757812 84.535156 C 65.09375 84.652344 65.507812 84.878906 65.679688 85.039062 C 66.03125 85.363281 66.1875 85.410156 66.089844 85.160156 C 66.054688 85.066406 65.769531 84.855469 65.453125 84.6875 C 64.90625 84.394531 64.476562 84.246094 62.347656 83.613281 C 61.21875 83.277344 61.003906 83.082031 61.058594 82.441406 C 61.148438 81.308594 63.792969 81.15625 64.382812 82.246094 C 64.507812 82.476562 64.566406 82.515625 64.570312 82.375 C 64.582031 81.855469 63.226562 81.160156 62.5 81.3125 C 62.464844 81.320312 62.199219 81.371094 61.90625 81.429688 M 53.34375 81.53125 C 54.445312 81.6875 55.097656 82.160156 55.355469 82.984375 C 55.40625 83.148438 55.507812 83.242188 55.601562 83.207031 C 55.691406 83.175781 56.097656 83.082031 56.507812 83 C 56.921875 82.917969 57.285156 82.808594 57.320312 82.753906 C 57.390625 82.636719 56.910156 81.574219 56.734375 81.464844 C 56.671875 81.425781 56.683594 81.515625 56.765625 81.667969 C 57.261719 82.59375 57.167969 82.757812 56.0625 82.929688 C 55.5625 83.007812 55.542969 82.996094 55.308594 82.550781 C 54.949219 81.859375 54.328125 81.5 53.425781 81.464844 L 52.671875 81.4375 L 53.34375 81.53125 M 70.6875 81.738281 C 69.671875 82.589844 70.953125 84.03125 72.675781 83.976562 C 72.820312 83.972656 72.5625 83.859375 72.101562 83.730469 C 70.632812 83.308594 70.289062 82.992188 70.480469 82.234375 C 70.769531 81.078125 73.976562 81.449219 73.976562 82.636719 C 73.976562 82.867188 74.179688 83.085938 74.292969 82.972656 C 74.363281 82.90625 73.886719 82.078125 73.558594 81.695312 C 73.179688 81.257812 71.226562 81.285156 70.6875 81.738281 M 52.0625 81.683594 C 51.714844 81.878906 51.023438 82.546875 51.023438 82.691406 C 51.023438 82.757812 51.175781 82.640625 51.359375 82.421875 C 51.546875 82.207031 51.917969 81.921875 52.183594 81.792969 C 52.453125 81.660156 52.589844 81.550781 52.492188 81.550781 C 52.390625 81.550781 52.195312 81.609375 52.0625 81.683594 M 121.464844 82.769531 C 121.3125 83.242188 121.210938 83.652344 121.238281 83.679688 C 121.269531 83.710938 121.417969 83.347656 121.570312 82.871094 C 121.722656 82.398438 121.824219 81.988281 121.796875 81.960938 C 121.769531 81.933594 121.621094 82.296875 121.464844 82.769531 M 3.253906 82.273438 C 3.425781 82.941406 3.785156 83.816406 3.707031 83.382812 C 3.667969 83.152344 3.53125 82.738281 3.402344 82.464844 C 3.277344 82.195312 3.210938 82.109375 3.253906 82.273438 M 59.09375 82.558594 C 59.058594 83.523438 59.632812 84.546875 60.453125 84.972656 C 60.605469 85.050781 60.46875 84.886719 60.152344 84.601562 C 59.585938 84.097656 59.515625 83.957031 59.222656 82.703125 C 59.125 82.289062 59.105469 82.269531 59.09375 82.558594 M 50.734375 83.441406 C 50.695312 83.546875 50.664062 83.8125 50.671875 84.023438 C 50.683594 84.363281 50.699219 84.34375 50.792969 83.871094 C 50.902344 83.316406 50.871094 83.085938 50.734375 83.441406 M 48.785156 83.832031 C 48.394531 86.183594 49.226562 88.726562 50.621094 89.460938 C 51.09375 89.710938 51.054688 89.609375 50.519531 89.199219 C 49.9375 88.753906 49.328125 87.945312 49.320312 87.613281 C 49.316406 87.492188 49.21875 87.246094 49.101562 87.066406 C 48.925781 86.796875 48.890625 86.453125 48.890625 85.058594 C 48.890625 83.183594 48.890625 83.191406 48.785156 83.832031 M 69.109375 83.839844 C 69.097656 83.925781 69.03125 83.960938 68.957031 83.914062 C 68.863281 83.855469 68.859375 83.898438 68.945312 84.0625 C 69.113281 84.367188 69.691406 84.894531 70.070312 85.085938 C 70.246094 85.175781 70.132812 85.027344 69.800781 84.730469 C 69.488281 84.449219 69.207031 84.101562 69.175781 83.949219 C 69.148438 83.800781 69.117188 83.75 69.109375 83.839844 M 4.039062 84.496094 C 4.179688 84.851562 4.40625 85.4375 4.539062 85.792969 C 4.675781 86.148438 4.808594 86.417969 4.839844 86.390625 C 4.867188 86.359375 4.839844 86.203125 4.773438 86.042969 C 4.707031 85.886719 4.621094 85.554688 4.582031 85.308594 C 4.542969 85.0625 4.402344 84.726562 4.269531 84.558594 C 4.136719 84.390625 4.027344 84.195312 4.027344 84.125 C 4.027344 84.054688 3.972656 83.964844 3.90625 83.921875 C 3.835938 83.878906 3.898438 84.136719 4.039062 84.496094 M 120.960938 84.136719 C 120.890625 84.289062 120.726562 84.605469 120.597656 84.839844 C 120.46875 85.074219 120.363281 85.394531 120.363281 85.546875 C 120.363281 85.703125 120.300781 85.941406 120.230469 86.078125 C 120.15625 86.214844 120.125 86.351562 120.15625 86.382812 C 120.1875 86.414062 120.324219 86.148438 120.460938 85.792969 C 120.59375 85.4375 120.820312 84.855469 120.957031 84.503906 C 121.207031 83.871094 121.210938 83.601562 120.960938 84.136719 M 73.539062 84.292969 C 73.671875 84.390625 73.917969 84.46875 74.089844 84.46875 C 74.382812 84.464844 74.375 84.453125 73.992188 84.285156 C 73.46875 84.058594 73.234375 84.0625 73.539062 84.292969 M 74.640625 84.710938 C 74.765625 84.847656 74.964844 84.960938 75.082031 84.960938 C 75.199219 84.960938 75.421875 85.167969 75.578125 85.417969 C 75.898438 85.945312 76.171875 86.25 76.171875 86.085938 C 76.171875 85.726562 75.300781 84.796875 74.769531 84.59375 C 74.414062 84.460938 74.414062 84.460938 74.640625 84.710938 M 61.121094 85.273438 C 61.492188 85.4375 63.246094 85.9375 63.445312 85.9375 C 63.722656 85.933594 62.835938 85.597656 62.394531 85.539062 C 62.113281 85.503906 61.796875 85.402344 61.695312 85.316406 C 61.59375 85.234375 61.335938 85.148438 61.121094 85.132812 L 60.730469 85.101562 L 61.121094 85.273438 M 70.621094 85.304688 C 70.722656 85.390625 72.132812 85.816406 72.324219 85.816406 C 72.359375 85.816406 72.386719 85.75 72.386719 85.671875 C 72.386719 85.59375 72.355469 85.5625 72.316406 85.601562 C 72.277344 85.640625 72.042969 85.605469 71.796875 85.519531 C 71.183594 85.308594 70.476562 85.175781 70.621094 85.304688 M 66.34375 85.664062 C 66.367188 85.929688 66.761719 86.664062 66.765625 86.453125 C 66.773438 86.277344 66.445312 85.449219 66.371094 85.449219 C 66.347656 85.449219 66.332031 85.546875 66.34375 85.664062 M 73.242188 86.050781 C 73.609375 86.183594 74.015625 86.414062 74.144531 86.570312 C 74.324219 86.78125 74.359375 86.796875 74.300781 86.628906 C 74.253906 86.507812 74.21875 86.386719 74.21875 86.359375 C 74.21875 86.265625 73.410156 85.953125 73 85.886719 C 72.691406 85.835938 72.757812 85.882812 73.242188 86.050781 M 50.71875 86.476562 C 50.796875 87.214844 51.28125 88.070312 51.796875 88.386719 C 52.425781 88.769531 52.589844 88.65625 51.972656 88.265625 C 51.355469 87.875 51.121094 87.511719 50.835938 86.519531 L 50.652344 85.875 L 50.71875 86.476562 M 63.71875 86.023438 C 64.742188 86.390625 65.097656 86.882812 64.84375 87.5625 C 64.703125 87.929688 64.734375 88.136719 64.90625 87.964844 C 64.957031 87.914062 65 87.566406 65 87.183594 L 65.003906 86.492188 L 64.453125 86.214844 C 64.152344 86.066406 63.820312 85.945312 63.71875 85.949219 C 63.558594 85.957031 63.558594 85.964844 63.71875 86.023438 M 76.210938 87.15625 C 76.210938 87.59375 76.234375 87.773438 76.261719 87.554688 C 76.289062 87.335938 76.289062 86.980469 76.261719 86.761719 C 76.234375 86.542969 76.210938 86.722656 76.210938 87.15625 M 55.382812 86.882812 C 55.328125 87.183594 55.335938 87.195312 55.484375 86.992188 C 55.675781 86.726562 56.933594 86.910156 57.050781 87.222656 C 57.125 87.410156 56.925781 88.097656 56.726562 88.351562 C 56.660156 88.4375 56.632812 88.53125 56.664062 88.5625 C 56.742188 88.640625 57.203125 87.78125 57.296875 87.382812 C 57.367188 87.074219 57.335938 87.050781 56.53125 86.804688 C 55.464844 86.480469 55.460938 86.480469 55.382812 86.882812 M 59.875 86.800781 L 59.265625 86.875 L 59.886719 86.894531 C 60.496094 86.914062 60.515625 86.925781 60.734375 87.433594 C 61.175781 88.453125 61.679688 88.746094 62.984375 88.746094 C 63.765625 88.746094 64.574219 88.5 64.574219 88.261719 C 64.574219 88.207031 64.371094 88.265625 64.121094 88.390625 C 62.941406 88.992188 61.453125 88.550781 60.90625 87.4375 C 60.53125 86.664062 60.609375 86.710938 59.875 86.800781 M 66.792969 87.128906 C 66.78125 87.414062 66.710938 87.648438 66.640625 87.648438 C 66.566406 87.648438 66.53125 87.714844 66.5625 87.800781 C 66.632812 87.992188 66.351562 88.695312 66.105469 88.941406 C 66.003906 89.042969 65.917969 89.089844 65.917969 89.039062 C 65.917969 88.992188 65.808594 89.078125 65.671875 89.234375 C 65.539062 89.386719 65.429688 89.554688 65.429688 89.597656 C 65.429688 89.695312 64.199219 90.066406 63.660156 90.128906 C 63.332031 90.167969 63.339844 90.175781 63.738281 90.191406 C 65.433594 90.261719 67.058594 88.605469 66.859375 87.007812 C 66.816406 86.660156 66.808594 86.675781 66.792969 87.128906 M 69.703125 86.738281 C 69.601562 86.757812 69.210938 86.8125 68.835938 86.851562 C 68.1875 86.921875 68.15625 86.945312 68.210938 87.226562 C 68.289062 87.640625 68.480469 87.730469 68.480469 87.351562 C 68.480469 86.980469 68.835938 86.855469 69.636719 86.945312 C 70.054688 86.992188 70.15625 86.96875 70.105469 86.835938 C 70.070312 86.746094 70.007812 86.675781 69.964844 86.683594 C 69.921875 86.691406 69.804688 86.714844 69.703125 86.738281 M 5.121094 87.1875 C 5.390625 87.875 5.847656 88.792969 5.851562 88.664062 C 5.859375 88.488281 5.160156 86.914062 5.074219 86.914062 C 5.039062 86.914062 5.058594 87.039062 5.121094 87.1875 M 58.714844 86.980469 C 58.714844 87.203125 59.253906 88.59375 59.394531 88.742188 C 59.675781 89.027344 59.613281 88.664062 59.3125 88.238281 C 59.128906 87.980469 59.070312 87.746094 59.101562 87.398438 C 59.140625 87 59.113281 86.914062 58.933594 86.914062 C 58.8125 86.914062 58.714844 86.941406 58.714844 86.980469 M 119.5 87.71875 C 119.304688 88.160156 119.144531 88.585938 119.148438 88.664062 C 119.152344 88.792969 119.609375 87.875 119.878906 87.1875 C 120.125 86.570312 119.835938 86.972656 119.5 87.71875 M 55.117188 87.519531 C 55.074219 87.648438 54.875 87.898438 54.671875 88.070312 C 54.46875 88.238281 54.347656 88.375 54.402344 88.375 C 54.710938 88.359375 55.550781 87.28125 55.253906 87.28125 C 55.21875 87.28125 55.15625 87.386719 55.117188 87.519531 M 70.246094 87.585938 C 70.332031 87.957031 70.890625 88.5 71.34375 88.640625 C 71.902344 88.820312 73.328125 88.753906 73.5 88.542969 C 73.652344 88.359375 73.644531 88.351562 73.402344 88.480469 C 72.53125 88.945312 70.871094 88.480469 70.40625 87.648438 C 70.167969 87.222656 70.167969 87.222656 70.246094 87.585938 M 73.992188 88.023438 L 73.707031 88.382812 L 74.023438 88.238281 C 74.199219 88.160156 74.339844 87.996094 74.339844 87.871094 C 74.339844 87.585938 74.335938 87.589844 73.992188 88.023438 M 68.363281 87.804688 C 68.296875 88.992188 70.28125 90.230469 72.265625 90.238281 C 73.367188 90.246094 75.207031 89.875 74.683594 89.753906 C 74.570312 89.726562 74.351562 89.773438 74.203125 89.851562 C 73.832031 90.050781 71.390625 90.15625 70.957031 89.992188 C 70.769531 89.921875 70.476562 89.832031 70.300781 89.796875 C 69.902344 89.707031 68.992188 88.832031 68.640625 88.195312 C 68.492188 87.925781 68.367188 87.75 68.363281 87.804688 M 75.691406 88.730469 C 75.609375 88.921875 75.410156 89.140625 75.25 89.214844 C 75.085938 89.289062 74.953125 89.40625 74.953125 89.476562 C 74.953125 89.6875 75.136719 89.613281 75.460938 89.265625 C 75.835938 88.863281 76.101562 88.378906 75.945312 88.378906 C 75.886719 88.378906 75.769531 88.535156 75.691406 88.730469 M 53.222656 88.625 L 52.550781 88.707031 L 53.246094 88.726562 C 53.628906 88.734375 53.976562 88.691406 54.015625 88.625 C 54.058594 88.554688 54.046875 88.511719 53.992188 88.519531 C 53.9375 88.53125 53.59375 88.578125 53.222656 88.625 M 56.304688 88.871094 C 56.152344 88.929688 56.03125 89.03125 56.03125 89.089844 C 56.03125 89.300781 55.109375 89.835938 54.625 89.910156 C 54.359375 89.953125 54.082031 90.039062 54.015625 90.109375 C 53.933594 90.1875 54.058594 90.199219 54.382812 90.144531 C 55.003906 90.035156 55.914062 89.550781 56.347656 89.097656 C 56.714844 88.714844 56.714844 88.707031 56.304688 88.871094 M 6.324219 89.808594 C 7.039062 91.28125 7.71875 92.539062 7.769531 92.488281 C 7.835938 92.425781 6.113281 89.007812 5.972656 88.921875 C 5.910156 88.886719 6.070312 89.28125 6.324219 89.808594 M 118.929688 89.019531 C 118.695312 89.324219 117.421875 91.949219 117.480469 92.007812 C 117.511719 92.039062 117.898438 91.347656 118.339844 90.46875 C 119.085938 88.980469 119.226562 88.640625 118.929688 89.019531 M 59.851562 89.296875 C 60.039062 89.464844 60.257812 89.601562 60.332031 89.601562 C 60.410156 89.601562 60.285156 89.460938 60.058594 89.292969 C 59.53125 88.90625 59.40625 88.90625 59.851562 89.296875 M 51.390625 89.921875 C 51.625 90.023438 52.148438 90.128906 52.550781 90.152344 C 53.269531 90.195312 53.273438 90.195312 52.671875 90.105469 C 52.335938 90.058594 51.941406 89.949219 51.796875 89.871094 C 51.648438 89.789062 51.402344 89.722656 51.246094 89.726562 C 51.011719 89.730469 51.035156 89.761719 51.390625 89.921875 M 61.199219 90.023438 C 61.457031 90.125 62.035156 90.234375 62.480469 90.269531 C 63.484375 90.347656 63.339844 90.261719 62.195312 90.097656 C 61.726562 90.03125 61.203125 89.945312 61.035156 89.90625 C 60.867188 89.871094 60.941406 89.921875 61.199219 90.023438 M 8.054688 93.027344 C 8.054688 93.207031 9.421875 95.480469 9.488281 95.410156 C 9.515625 95.382812 9.445312 95.210938 9.328125 95.03125 C 8.96875 94.488281 8.675781 93.960938 8.425781 93.414062 C 8.191406 92.90625 8.054688 92.765625 8.054688 93.027344 M 116.535156 93.507812 C 116.222656 94.164062 116.136719 94.3125 115.679688 95.007812 C 115.554688 95.195312 115.476562 95.375 115.507812 95.410156 C 115.605469 95.503906 116.964844 93.140625 116.90625 92.980469 C 116.878906 92.902344 116.710938 93.136719 116.535156 93.507812 M 115.066406 96 C 114.890625 96.230469 114.746094 96.460938 114.746094 96.511719 C 114.746094 96.5625 114.601562 96.753906 114.425781 96.9375 C 114.253906 97.121094 114.132812 97.339844 114.160156 97.421875 C 114.1875 97.503906 114.492188 97.125 114.839844 96.578125 C 115.511719 95.523438 115.59375 95.308594 115.066406 96 M 10.199219 96.617188 C 10.722656 97.476562 10.863281 97.648438 10.863281 97.425781 C 10.863281 97.269531 10.59375 96.882812 10.03125 96.21875 C 9.875 96.035156 9.953125 96.214844 10.199219 96.617188 M 11.125 98.054688 C 11.910156 99.175781 12.738281 100.21875 12.796875 100.160156 C 12.832031 100.125 12.714844 99.941406 12.535156 99.753906 C 12.355469 99.566406 12.207031 99.355469 12.207031 99.289062 C 12.207031 99.222656 12.039062 98.976562 11.832031 98.746094 C 11.625 98.515625 11.367188 98.175781 11.253906 97.992188 C 11.144531 97.808594 11.007812 97.65625 10.953125 97.65625 C 10.894531 97.65625 10.972656 97.835938 11.125 98.054688 M 113.746094 97.992188 C 113.632812 98.175781 113.375 98.515625 113.167969 98.746094 C 112.960938 98.976562 112.792969 99.222656 112.792969 99.289062 C 112.792969 99.355469 112.644531 99.566406 112.464844 99.753906 C 112.285156 99.941406 112.167969 100.125 112.203125 100.160156 C 112.242188 100.195312 112.570312 99.828125 112.933594 99.335938 C 113.941406 97.988281 114.160156 97.65625 114.046875 97.65625 C 113.992188 97.65625 113.855469 97.808594 113.746094 97.992188 M 12.941406 100.40625 C 12.941406 100.476562 13.101562 100.722656 13.300781 100.957031 C 13.5 101.1875 13.664062 101.324219 13.664062 101.257812 C 13.664062 101.191406 13.503906 100.941406 13.304688 100.707031 C 13.109375 100.472656 12.945312 100.335938 12.941406 100.40625 M 111.636719 100.773438 C 111.453125 101.015625 111.332031 101.238281 111.363281 101.273438 C 111.398438 101.308594 111.574219 101.136719 111.761719 100.894531 C 111.945312 100.65625 112.066406 100.429688 112.035156 100.394531 C 112 100.363281 111.820312 100.53125 111.636719 100.773438 M 13.867188 101.707031 C 14.003906 101.863281 14.632812 102.59375 15.261719 103.332031 C 16.734375 105.054688 19.945312 108.265625 21.667969 109.738281 C 22.40625 110.367188 23.136719 110.996094 23.292969 111.132812 C 23.507812 111.324219 23.554688 111.335938 23.496094 111.183594 C 23.453125 111.074219 23.25 110.855469 23.039062 110.699219 C 22.429688 110.242188 20.121094 108.214844 19.628906 107.707031 C 19.378906 107.449219 18.90625 106.949219 18.574219 106.597656 C 18.246094 106.246094 17.9375 105.957031 17.894531 105.957031 C 17.738281 105.957031 15.125 103.050781 14.300781 101.960938 C 14.144531 101.75 13.925781 101.546875 13.816406 101.503906 C 13.664062 101.445312 13.675781 101.492188 13.867188 101.707031 M 110.832031 101.835938 C 110.640625 102.054688 110.089844 102.699219 109.605469 103.273438 C 108.558594 104.511719 107.210938 105.957031 107.105469 105.957031 C 107.0625 105.957031 106.753906 106.246094 106.425781 106.597656 C 105.226562 107.875 104.898438 108.191406 103.578125 109.324219 C 102.839844 109.957031 102.109375 110.570312 101.953125 110.6875 C 101.796875 110.804688 101.613281 111.007812 101.539062 111.140625 C 101.390625 111.40625 102.109375 110.832031 103.882812 109.269531 C 105.460938 107.875 108.335938 104.957031 109.734375 103.332031 C 110.367188 102.59375 110.992188 101.867188 111.125 101.714844 C 111.261719 101.5625 111.328125 101.441406 111.277344 101.441406 C 111.226562 101.441406 111.027344 101.617188 110.832031 101.835938 M 24.039062 111.695312 C 24.269531 111.894531 24.488281 112.027344 24.523438 111.992188 C 24.601562 111.914062 23.914062 111.335938 23.742188 111.335938 C 23.675781 111.335938 23.808594 111.5 24.039062 111.695312 M 100.773438 111.632812 C 100.574219 111.792969 100.441406 111.957031 100.476562 111.992188 C 100.511719 112.027344 100.730469 111.894531 100.960938 111.695312 C 101.460938 111.265625 101.292969 111.207031 100.773438 111.632812 M 24.664062 112.148438 C 24.671875 112.292969 27.359375 114.203125 28.851562 115.125 C 29.640625 115.613281 29.46875 115.375 28.632812 114.816406 C 28.265625 114.574219 27.933594 114.320312 27.890625 114.253906 C 27.851562 114.1875 27.710938 114.136719 27.582031 114.136719 C 27.449219 114.136719 27.34375 114.09375 27.34375 114.039062 C 27.34375 113.988281 27.191406 113.855469 27.007812 113.746094 C 26.824219 113.632812 26.484375 113.375 26.253906 113.167969 C 26.023438 112.960938 25.769531 112.792969 25.691406 112.792969 C 25.613281 112.792969 25.445312 112.679688 25.320312 112.539062 C 25.054688 112.242188 24.65625 112.007812 24.664062 112.148438 M 99.835938 112.402344 C 99.609375 112.597656 99.304688 112.796875 99.152344 112.84375 C 99 112.894531 98.875 112.980469 98.875 113.039062 C 98.875 113.097656 98.617188 113.324219 98.296875 113.542969 C 97.976562 113.761719 97.699219 113.984375 97.675781 114.039062 C 97.652344 114.089844 97.535156 114.136719 97.410156 114.136719 C 97.285156 114.136719 97.148438 114.1875 97.109375 114.253906 C 97.066406 114.320312 96.734375 114.574219 96.367188 114.816406 C 96.003906 115.058594 95.667969 115.3125 95.625 115.382812 C 95.585938 115.449219 95.871094 115.300781 96.265625 115.046875 C 96.660156 114.796875 97.121094 114.503906 97.289062 114.398438 C 97.515625 114.257812 99.78125 112.632812 100.332031 112.222656 C 100.359375 112.199219 100.351562 112.152344 100.3125 112.113281 C 100.277344 112.078125 100.0625 112.207031 99.835938 112.402344 M 29.539062 115.527344 C 29.539062 115.570312 30.710938 116.28125 31.648438 116.804688 C 31.898438 116.945312 32.105469 117.007812 32.105469 116.941406 C 32.105469 116.871094 31.816406 116.683594 31.464844 116.515625 C 30.800781 116.207031 30.546875 116.058594 30.042969 115.691406 C 29.773438 115.492188 29.539062 115.417969 29.539062 115.527344 M 94.957031 115.691406 C 94.453125 116.058594 94.199219 116.207031 93.535156 116.515625 C 93.183594 116.683594 92.894531 116.871094 92.894531 116.941406 C 92.894531 117.007812 93.101562 116.945312 93.351562 116.804688 C 94.289062 116.28125 95.460938 115.570312 95.460938 115.527344 C 95.460938 115.417969 95.226562 115.492188 94.957031 115.691406 M 32.777344 117.410156 C 34.078125 118.199219 36.230469 119.214844 35.960938 118.914062 C 35.832031 118.769531 35.660156 118.652344 35.574219 118.652344 C 35.492188 118.652344 35.074219 118.460938 34.648438 118.226562 C 33.316406 117.492188 31.867188 116.859375 32.777344 117.410156 M 91.734375 117.503906 C 91.398438 117.664062 90.777344 117.992188 90.351562 118.226562 C 89.925781 118.460938 89.507812 118.652344 89.425781 118.652344 C 89.339844 118.652344 89.167969 118.769531 89.039062 118.914062 C 88.796875 119.183594 89.210938 119.003906 91.125 118.011719 C 92.585938 117.253906 93.050781 116.867188 91.734375 117.503906 M 36.867188 119.464844 C 37.78125 119.886719 38.085938 120 38.085938 119.925781 C 38.085938 119.839844 36.511719 119.140625 36.335938 119.148438 C 36.257812 119.152344 36.496094 119.292969 36.867188 119.464844 M 87.675781 119.511719 C 86.957031 119.84375 86.597656 120.113281 87.1875 119.878906 C 87.917969 119.59375 88.785156 119.15625 88.625 119.15625 C 88.523438 119.15625 88.097656 119.316406 87.675781 119.511719 M 38.84375 120.292969 C 39.203125 120.503906 41.136719 121.238281 41.136719 121.164062 C 41.136719 121.058594 39.820312 120.4375 39.429688 120.355469 C 39.195312 120.308594 38.890625 120.230469 38.757812 120.1875 C 38.625 120.140625 38.660156 120.1875 38.84375 120.292969 M 86.058594 120.238281 C 85.957031 120.304688 85.75 120.359375 85.597656 120.359375 C 85.347656 120.359375 83.863281 121.050781 83.863281 121.164062 C 83.863281 121.230469 85.765625 120.519531 86.15625 120.304688 C 86.339844 120.207031 86.433594 120.125 86.363281 120.125 C 86.296875 120.121094 86.160156 120.175781 86.058594 120.238281 M 43.03125 121.839844 C 45.0625 122.507812 48.089844 123.339844 48.171875 123.253906 C 48.222656 123.203125 47.734375 123.058594 45.835938 122.5625 C 45.367188 122.441406 44.570312 122.203125 44.066406 122.035156 C 42.660156 121.566406 41.457031 121.210938 41.320312 121.226562 C 41.253906 121.234375 42.023438 121.507812 43.03125 121.839844 M 82.777344 121.460938 C 82.105469 121.703125 81.722656 121.933594 82.273438 121.761719 C 83.058594 121.519531 83.785156 121.234375 83.617188 121.230469 C 83.515625 121.226562 83.140625 121.332031 82.777344 121.460938 M 80.8125 122.023438 C 80.507812 122.125 80.183594 122.230469 80.089844 122.261719 C 79.996094 122.292969 79.949219 122.351562 79.988281 122.386719 C 80.054688 122.453125 81.789062 121.960938 81.789062 121.875 C 81.789062 121.777344 81.347656 121.84375 80.8125 122.023438 M 78.796875 122.636719 C 77.289062 123.082031 77.097656 123.148438 77.269531 123.15625 C 77.460938 123.167969 79.734375 122.570312 79.824219 122.484375 C 79.929688 122.382812 79.382812 122.464844 78.796875 122.636719 M 48.644531 123.402344 C 48.78125 123.457031 49.164062 123.535156 49.5 123.574219 C 49.875 123.621094 49.992188 123.609375 49.804688 123.550781 C 49.363281 123.410156 48.347656 123.277344 48.644531 123.402344 M 75.691406 123.425781 C 75.390625 123.484375 75.089844 123.558594 75.019531 123.589844 C 74.808594 123.6875 76.089844 123.507812 76.355469 123.402344 C 76.667969 123.277344 76.386719 123.289062 75.691406 123.425781 M 50.183594 123.710938 C 50.269531 123.796875 53.046875 124.269531 53.367188 124.253906 C 53.691406 124.238281 53.179688 124.117188 51.636719 123.84375 C 50.582031 123.660156 50.085938 123.613281 50.183594 123.710938 M 73.304688 123.847656 C 71.710938 124.152344 71.347656 124.242188 71.632812 124.253906 C 71.957031 124.269531 74.730469 123.796875 74.816406 123.710938 C 74.914062 123.613281 74.175781 123.679688 73.304688 123.847656 M 54.136719 124.398438 C 54.40625 124.453125 54.820312 124.496094 55.054688 124.492188 L 55.480469 124.484375 L 54.992188 124.382812 C 54.722656 124.328125 54.3125 124.285156 54.078125 124.289062 L 53.648438 124.296875 L 54.136719 124.398438 M 69.945312 124.390625 L 69.519531 124.480469 L 69.945312 124.488281 C 70.179688 124.492188 70.59375 124.453125 70.863281 124.398438 L 71.351562 124.296875 L 70.863281 124.296875 C 70.59375 124.296875 70.179688 124.339844 69.945312 124.390625 M 55.820312 124.597656 C 56.003906 124.628906 56.277344 124.625 56.429688 124.597656 C 56.578125 124.570312 56.425781 124.546875 56.089844 124.546875 C 55.753906 124.546875 55.632812 124.570312 55.820312 124.597656 M 58.65625 124.609375 C 58.625 124.644531 58.171875 124.667969 57.648438 124.664062 L 56.703125 124.660156 L 57.859375 124.769531 C 58.5 124.832031 59.269531 124.867188 59.570312 124.847656 L 60.121094 124.816406 L 59.417969 124.683594 C 59.03125 124.613281 58.6875 124.578125 58.65625 124.609375 M 65.613281 124.699219 L 65.003906 124.847656 L 65.734375 124.847656 C 66.136719 124.847656 66.878906 124.804688 67.382812 124.757812 L 68.296875 124.664062 L 67.367188 124.667969 C 66.859375 124.667969 66.390625 124.640625 66.332031 124.609375 C 66.273438 124.574219 65.949219 124.617188 65.613281 124.699219 M 68.636719 124.597656 C 68.820312 124.628906 69.097656 124.625 69.246094 124.597656 C 69.394531 124.570312 69.246094 124.546875 68.910156 124.546875 C 68.574219 124.546875 68.449219 124.570312 68.636719 124.597656 "/>
<path style=" stroke:none;fill-rule:evenodd;fill:rgb(59.607843%,83.529412%,98.431373%);fill-opacity:1;" d="M 59.234375 0.0898438 C 59.484375 0.117188 59.898438 0.117188 60.148438 0.0898438 C 60.402344 0.0625 60.195312 0.0390625 59.691406 0.0390625 C 59.1875 0.0390625 58.984375 0.0625 59.234375 0.0898438 M 64.851562 0.0898438 C 65.101562 0.117188 65.515625 0.117188 65.765625 0.0898438 C 66.015625 0.0625 65.8125 0.0390625 65.308594 0.0390625 C 64.804688 0.0390625 64.597656 0.0625 64.851562 0.0898438 M 20.925781 15.777344 L 20.570312 16.175781 L 20.964844 15.816406 C 21.335938 15.480469 21.417969 15.382812 21.324219 15.382812 C 21.304688 15.382812 21.125 15.558594 20.925781 15.777344 M 103.636719 15.417969 C 103.636719 15.441406 103.816406 15.617188 104.035156 15.816406 L 104.429688 16.175781 L 104.074219 15.777344 C 103.738281 15.40625 103.636719 15.324219 103.636719 15.417969 M 19.34375 17.242188 L 18.617188 18.003906 L 19.378906 17.277344 C 19.796875 16.875 20.140625 16.53125 20.140625 16.515625 C 20.140625 16.421875 20.019531 16.535156 19.34375 17.242188 M 105.53125 17.210938 C 105.929688 17.613281 106.28125 17.945312 106.316406 17.945312 C 106.347656 17.945312 106.050781 17.613281 105.652344 17.210938 C 105.253906 16.808594 104.898438 16.480469 104.867188 16.480469 C 104.832031 16.480469 105.132812 16.808594 105.53125 17.210938 M 17.269531 19.316406 L 16.664062 19.957031 L 17.304688 19.351562 C 17.898438 18.789062 18 18.675781 17.910156 18.675781 C 17.890625 18.675781 17.601562 18.964844 17.269531 19.316406 M 107.664062 19.347656 C 108.03125 19.71875 108.355469 20.019531 108.390625 20.019531 C 108.421875 20.019531 108.152344 19.71875 107.789062 19.347656 C 107.421875 18.980469 107.097656 18.675781 107.0625 18.675781 C 107.03125 18.675781 107.300781 18.980469 107.664062 19.347656 M 15.679688 21.027344 L 15.320312 21.421875 L 15.714844 21.066406 C 16.085938 20.730469 16.167969 20.628906 16.074219 20.628906 C 16.054688 20.628906 15.875 20.808594 15.679688 21.027344 M 108.886719 20.667969 C 108.886719 20.6875 109.066406 20.867188 109.285156 21.066406 L 109.679688 21.421875 L 109.320312 21.027344 C 108.988281 20.65625 108.886719 20.574219 108.886719 20.667969 M 79.46875 29.847656 C 79.695312 30.082031 79.910156 30.273438 79.941406 30.273438 C 79.976562 30.273438 79.816406 30.082031 79.589844 29.847656 C 79.363281 29.609375 79.148438 29.417969 79.113281 29.417969 C 79.082031 29.417969 79.238281 29.609375 79.46875 29.847656 M 80.445312 30.824219 C 80.671875 31.058594 80.886719 31.25 80.917969 31.25 C 80.953125 31.25 80.792969 31.058594 80.566406 30.824219 C 80.339844 30.585938 80.125 30.394531 80.089844 30.394531 C 80.058594 30.394531 80.214844 30.585938 80.445312 30.824219 M 81.421875 31.800781 C 81.648438 32.035156 81.863281 32.226562 81.894531 32.226562 C 81.929688 32.226562 81.769531 32.035156 81.542969 31.800781 C 81.316406 31.5625 81.101562 31.371094 81.066406 31.371094 C 81.035156 31.371094 81.191406 31.5625 81.421875 31.800781 M 82.398438 32.777344 C 82.625 33.011719 82.839844 33.203125 82.871094 33.203125 C 82.90625 33.203125 82.746094 33.011719 82.519531 32.777344 C 82.292969 32.539062 82.078125 32.347656 82.042969 32.347656 C 82.011719 32.347656 82.167969 32.539062 82.398438 32.777344 M 83.375 33.753906 C 83.601562 33.988281 83.816406 34.179688 83.847656 34.179688 C 83.882812 34.179688 83.722656 33.988281 83.496094 33.753906 C 83.269531 33.515625 83.054688 33.324219 83.019531 33.324219 C 82.988281 33.324219 83.144531 33.515625 83.375 33.753906 M 84.351562 34.730469 C 84.578125 34.964844 84.792969 35.15625 84.824219 35.15625 C 84.859375 35.15625 84.699219 34.964844 84.472656 34.730469 C 84.246094 34.492188 84.03125 34.300781 83.996094 34.300781 C 83.964844 34.300781 84.121094 34.492188 84.351562 34.730469 M 85.328125 35.707031 C 85.554688 35.941406 85.769531 36.132812 85.800781 36.132812 C 85.835938 36.132812 85.675781 35.941406 85.449219 35.707031 C 85.222656 35.46875 85.007812 35.277344 84.972656 35.277344 C 84.941406 35.277344 85.097656 35.46875 85.328125 35.707031 M 86.304688 36.683594 C 86.53125 36.917969 86.746094 37.109375 86.777344 37.109375 C 86.8125 37.109375 86.652344 36.917969 86.425781 36.683594 C 86.199219 36.445312 85.984375 36.253906 85.949219 36.253906 C 85.917969 36.253906 86.074219 36.445312 86.304688 36.683594 M 87.28125 37.660156 C 87.507812 37.894531 87.722656 38.085938 87.753906 38.085938 C 87.789062 38.085938 87.628906 37.894531 87.402344 37.660156 C 87.175781 37.421875 86.960938 37.230469 86.925781 37.230469 C 86.894531 37.230469 87.050781 37.421875 87.28125 37.660156 M 88.257812 38.636719 C 88.484375 38.871094 88.699219 39.0625 88.730469 39.0625 C 88.765625 39.0625 88.605469 38.871094 88.378906 38.636719 C 88.152344 38.398438 87.9375 38.207031 87.902344 38.207031 C 87.871094 38.207031 88.027344 38.398438 88.257812 38.636719 M 89.203125 39.558594 L 89.476562 39.871094 L 89.539062 74.644531 L 91.21875 74.652344 L 92.894531 74.65625 L 91.246094 74.617188 L 89.601562 74.578125 L 89.601562 39.835938 L 89.265625 39.542969 L 88.929688 39.246094 L 89.203125 39.558594 M 82.277344 40.984375 L 86.671875 41.019531 L 86.640625 57.855469 C 86.625 67.117188 86.648438 74.652344 86.699219 74.601562 C 86.75 74.550781 86.777344 66.960938 86.761719 57.734375 L 86.730469 40.953125 L 82.304688 40.953125 L 77.882812 40.949219 L 82.277344 40.984375 M 46.753906 53.222656 C 46.753906 54.027344 46.792969 54.6875 46.84375 54.6875 C 46.894531 54.6875 46.917969 54.054688 46.898438 53.285156 L 46.859375 51.878906 L 63.253906 51.847656 L 79.652344 51.816406 L 63.203125 51.789062 L 46.753906 51.757812 L 46.753906 53.222656 M 0.148438 57.617188 C 0.148438 57.851562 0.175781 57.949219 0.207031 57.832031 C 0.238281 57.714844 0.238281 57.519531 0.207031 57.402344 C 0.175781 57.285156 0.148438 57.382812 0.148438 57.617188 M 124.785156 57.617188 C 124.785156 57.851562 124.808594 57.949219 124.839844 57.832031 C 124.871094 57.714844 124.871094 57.519531 124.839844 57.402344 C 124.808594 57.285156 124.785156 57.382812 124.785156 57.617188 M 0.0390625 59.691406 C 0.0390625 60.195312 0.0625 60.402344 0.0898438 60.148438 C 0.117188 59.898438 0.117188 59.484375 0.0898438 59.234375 C 0.0625 58.984375 0.0390625 59.1875 0.0390625 59.691406 M 124.917969 59.691406 C 124.917969 60.195312 124.941406 60.402344 124.96875 60.148438 C 124.992188 59.898438 124.992188 59.484375 124.96875 59.234375 C 124.941406 58.984375 124.917969 59.1875 124.917969 59.691406 M 46.796875 63.234375 C 46.796875 63.9375 46.816406 64.226562 46.84375 63.875 C 46.867188 63.519531 46.867188 62.945312 46.84375 62.589844 C 46.816406 62.238281 46.796875 62.527344 46.796875 63.234375 M 0.0390625 65.308594 C 0.0390625 65.8125 0.0625 66.015625 0.0898438 65.765625 C 0.117188 65.515625 0.117188 65.101562 0.0898438 64.851562 C 0.0625 64.597656 0.0390625 64.804688 0.0390625 65.308594 M 124.917969 65.308594 C 124.917969 65.8125 124.941406 66.015625 124.96875 65.765625 C 124.992188 65.515625 124.992188 65.101562 124.96875 64.851562 C 124.941406 64.597656 124.917969 64.804688 124.917969 65.308594 M 54.972656 64.667969 C 59.457031 64.683594 66.765625 64.683594 71.207031 64.667969 C 75.648438 64.648438 71.980469 64.632812 63.050781 64.632812 C 54.121094 64.632812 50.484375 64.648438 54.972656 64.667969 M 0.148438 67.382812 C 0.148438 67.617188 0.175781 67.714844 0.207031 67.597656 C 0.238281 67.480469 0.238281 67.285156 0.207031 67.167969 C 0.175781 67.050781 0.148438 67.148438 0.148438 67.382812 M 124.785156 67.382812 C 124.785156 67.617188 124.808594 67.714844 124.839844 67.597656 C 124.871094 67.480469 124.871094 67.285156 124.839844 67.167969 C 124.808594 67.050781 124.785156 67.148438 124.785156 67.382812 M 31.464844 74.671875 C 31.617188 74.699219 31.835938 74.699219 31.953125 74.667969 C 32.070312 74.636719 31.945312 74.613281 31.675781 74.617188 C 31.410156 74.617188 31.3125 74.640625 31.464844 74.671875 M 33.050781 74.675781 C 33.539062 74.699219 34.332031 74.699219 34.820312 74.675781 C 35.308594 74.652344 34.910156 74.632812 33.9375 74.632812 C 32.960938 74.632812 32.5625 74.652344 33.050781 74.675781 M 40.011719 74.671875 C 40.160156 74.699219 40.382812 74.699219 40.5 74.667969 C 40.613281 74.636719 40.492188 74.613281 40.222656 74.617188 C 39.953125 74.617188 39.859375 74.640625 40.011719 74.671875 M 52.285156 74.675781 C 58.519531 74.695312 68.679688 74.695312 74.871094 74.675781 C 81.058594 74.660156 75.957031 74.644531 63.539062 74.644531 C 51.117188 74.644531 46.054688 74.660156 52.285156 74.675781 M 93.171875 74.667969 C 93.289062 74.699219 93.480469 74.699219 93.597656 74.667969 C 93.714844 74.636719 93.617188 74.613281 93.382812 74.613281 C 93.148438 74.613281 93.054688 74.636719 93.171875 74.667969 M 29.351562 75.714844 L 28.992188 76.109375 L 29.386719 75.753906 C 29.757812 75.417969 29.839844 75.316406 29.746094 75.316406 C 29.726562 75.316406 29.546875 75.496094 29.351562 75.714844 M 95.214844 75.355469 C 95.214844 75.375 95.394531 75.554688 95.613281 75.753906 L 96.007812 76.109375 L 95.648438 75.714844 C 95.316406 75.34375 95.214844 75.261719 95.214844 75.355469 M 74.828125 80.484375 C 74.828125 80.503906 75.007812 80.683594 75.226562 80.878906 L 75.621094 81.238281 L 75.265625 80.839844 C 74.929688 80.472656 74.828125 80.386719 74.828125 80.484375 M 70.785156 81.917969 L 70.496094 82.167969 L 70.863281 81.953125 C 71.34375 81.671875 71.351562 81.664062 71.199219 81.664062 C 71.128906 81.664062 70.941406 81.777344 70.785156 81.917969 M 75.5 82.886719 L 74.890625 82.96875 L 75.460938 82.988281 C 75.777344 83 76.070312 82.953125 76.109375 82.886719 C 76.152344 82.820312 76.167969 82.773438 76.148438 82.78125 C 76.128906 82.792969 75.835938 82.839844 75.5 82.886719 M 65.703125 82.972656 C 65.890625 83 66.191406 83 66.375 82.972656 C 66.558594 82.945312 66.410156 82.921875 66.039062 82.921875 C 65.671875 82.921875 65.519531 82.945312 65.703125 82.972656 M 48.625 85.144531 C 48.625 85.679688 48.648438 85.886719 48.671875 85.597656 C 48.699219 85.3125 48.699219 84.871094 48.671875 84.621094 C 48.648438 84.371094 48.625 84.605469 48.625 85.144531 M 75.195312 84.753906 C 75.195312 84.777344 75.375 84.953125 75.59375 85.152344 L 75.988281 85.511719 L 75.628906 85.113281 C 75.296875 84.742188 75.195312 84.660156 75.195312 84.753906 M 64.148438 86.324219 C 64.28125 86.398438 64.476562 86.519531 64.582031 86.59375 C 64.683594 86.671875 64.640625 86.609375 64.484375 86.457031 C 64.324219 86.304688 64.128906 86.183594 64.050781 86.183594 C 63.96875 86.1875 64.015625 86.25 64.148438 86.324219 M 76.332031 87.15625 C 76.332031 87.527344 76.351562 87.679688 76.382812 87.492188 C 76.410156 87.308594 76.410156 87.007812 76.382812 86.824219 C 76.351562 86.636719 76.332031 86.789062 76.332031 87.15625 M 69 86.753906 C 69.117188 86.785156 69.308594 86.785156 69.425781 86.753906 C 69.546875 86.722656 69.449219 86.699219 69.214844 86.699219 C 68.980469 86.699219 68.882812 86.722656 69 86.753906 M 52.503906 88.511719 C 52.597656 88.570312 52.921875 88.617188 53.222656 88.613281 C 53.875 88.601562 53.757812 88.542969 52.929688 88.464844 C 52.5625 88.425781 52.398438 88.445312 52.503906 88.511719 M 56.207031 89.265625 L 55.847656 89.660156 L 56.242188 89.300781 C 56.613281 88.96875 56.695312 88.867188 56.601562 88.867188 C 56.582031 88.867188 56.402344 89.046875 56.207031 89.265625 M 15.382812 103.675781 C 15.382812 103.695312 15.558594 103.875 15.777344 104.074219 L 16.175781 104.429688 L 15.816406 104.035156 C 15.480469 103.664062 15.382812 103.582031 15.382812 103.675781 M 109.183594 104.035156 L 108.824219 104.429688 L 109.222656 104.074219 C 109.441406 103.875 109.617188 103.695312 109.617188 103.675781 C 109.617188 103.582031 109.519531 103.664062 109.183594 104.035156 M 107.660156 105.683594 L 106.996094 106.382812 L 107.695312 105.71875 C 108.347656 105.097656 108.453125 104.980469 108.363281 104.980469 C 108.34375 104.980469 108.027344 105.296875 107.660156 105.683594 M 17.273438 105.710938 C 17.605469 106.046875 17.902344 106.324219 17.933594 106.324219 C 17.96875 106.324219 17.726562 106.046875 17.394531 105.710938 C 17.0625 105.378906 16.765625 105.101562 16.734375 105.101562 C 16.699219 105.101562 16.941406 105.378906 17.273438 105.710938 M 19.347656 107.789062 C 19.746094 108.191406 20.101562 108.519531 20.132812 108.519531 C 20.167969 108.519531 19.867188 108.191406 19.46875 107.789062 C 19.070312 107.386719 18.71875 107.054688 18.683594 107.054688 C 18.652344 107.054688 18.949219 107.386719 19.347656 107.789062 M 105.527344 107.820312 L 104.796875 108.582031 L 105.558594 107.851562 C 105.980469 107.453125 106.324219 107.109375 106.324219 107.089844 C 106.324219 107 106.203125 107.109375 105.527344 107.820312 M 20.628906 108.925781 C 20.628906 108.945312 20.808594 109.125 21.027344 109.320312 L 21.421875 109.679688 L 21.066406 109.285156 C 20.730469 108.914062 20.628906 108.832031 20.628906 108.925781 M 103.933594 109.285156 L 103.578125 109.679688 L 103.972656 109.320312 C 104.191406 109.125 104.371094 108.945312 104.371094 108.925781 C 104.371094 108.832031 104.269531 108.914062 103.933594 109.285156 M 59.234375 124.96875 C 59.484375 124.992188 59.898438 124.992188 60.148438 124.96875 C 60.402344 124.941406 60.195312 124.917969 59.691406 124.917969 C 59.1875 124.917969 58.984375 124.941406 59.234375 124.96875 M 64.851562 124.96875 C 65.101562 124.992188 65.515625 124.992188 65.765625 124.96875 C 66.015625 124.941406 65.8125 124.917969 65.308594 124.917969 C 64.804688 124.917969 64.597656 124.941406 64.851562 124.96875 "/>
</g>
</svg>
