<svg xmlns="http://www.w3.org/2000/svg" width="166.667" height="166.667" viewBox="0 0 125 125" fill-rule="evenodd" xmlns:v="https://vecta.io/nano"><path d="M.016 29.449l.18 27.617C2.93 26.711 26.688 2.953 57.074.195c1.59-.145-1.949-.168-27.625-.18L0 0l.016 29.449M67.926.195c30.375 2.758 54.191 26.57 56.883 56.871.141 1.582.164-2.187.176-27.617L125 0 95.551.016l-27.625.18m-29 29.047c-.656.203-1.496.961-1.797 1.621-.187.41-.207 2.199-.234 22.07l-.031 21.625-.273.066c-.152.035-1.418.07-2.816.07-3.387.008-4.168.32-5.062 2.012l-.328.625v15.867l.293.602c.379.766 1.023 1.414 1.789 1.789l.602.297h62.867l.602-.297c.766-.375 1.41-1.023 1.789-1.789l.293-.602V77.332l-.324-.617c-.859-1.625-1.73-2.012-4.621-2.043l-2.133-.027-.062-17.434-.059-17.434-5.363-5.363-5.363-5.359-19.602.008-20.164.18m38.602 6.859l.031 4.488c.016.238.125.246 4.594.305l4.578.059v33.691H39.734l-.031-21.391-.031-21.395h37.844l.012 4.242M46.902 53.254l.035 1.371 16.324.031 16.328.031v-2.809H46.867l.035 1.375m-.027 9.918v1.402h32.723l-.035-1.371-.035-1.375-16.324-.031-16.328-.031v1.406M.02 95.551L0 125l29.449-.016 27.625-.18C26.176 122 2.504 97.844.086 66.648.063 66.348.031 79.352.02 95.551m124.758-27.496c-.719 9.066-3.809 18.586-8.602 26.512-10.539 17.434-28.047 28.406-48.25 30.238-1.59.145 1.949.168 27.625.18L125 125V95.582l-.035-29.418c-.02 0-.102.848-.187 1.891M54.914 80.063c.93.289 1.637.844 2.098 1.648.555.965.508 1.109-.426 1.344-.953.238-1.289.25-1.289.039 0-.988-1.812-1.734-3.02-1.242-2.055.84-2.02 5.691.047 6.48 1.223.465 2.359-.023 2.859-1.23.32-.773.27-.758 1.371-.379 1.063.363 1.027.297.605 1.199-1.668 3.563-6.895 3.188-8.223-.586-1.574-4.484 1.789-8.574 5.977-7.273m9.289-.098c1.293.277 2.438 1.52 2.445 2.645v.398h-1.039c-.887 0-1.051-.031-1.109-.215-.359-1.121-1.855-1.602-2.949-.945-1.172.703-.539 1.359 1.941 2.023 2.742.734 3.848 1.984 3.422 3.879-.852 3.789-7.641 3.43-8.16-.43l-.066-.492.656-.078c1.266-.152 1.406-.125 1.492.297.387 1.926 3.984 2.074 3.984.164 0-.602-.562-.969-2.016-1.32-2.766-.668-3.723-1.512-3.723-3.281 0-2.074 2.285-3.25 5.121-2.645m10.074.219c1.008.449 1.691 1.344 1.789 2.34l.043.422-1.055.035-1.059.035-.082-.367c-.258-1.18-2.77-1.473-3.348-.391-.344.641.227 1.02 2.492 1.656 2.527.711 3.355 1.516 3.355 3.27.004 2.043-1.648 3.23-4.332 3.117-2.332-.098-3.578-1.051-3.898-2.973l-.082-.5.57-.078c1.324-.184 1.438-.148 1.676.523.641 1.809 3.98 1.695 3.848-.129-.047-.668-.293-.82-2.172-1.328-2.684-.727-3.539-1.512-3.543-3.242 0-2.172 3.266-3.516 5.797-2.391" fill="rgb(98.039216%,98.431373%,98.431373%)"/><path d="M59.672.242c-.516.117-.992.176-1.062.133-.227-.141-3.504.16-5.324.492l-2.016.348-3.723.762-1.711.465-1.586.473-1.832.57c-.602.176-1.465.504-1.91.734s-.922.422-1.055.422c-.27 0-.781.199-2.066.805-.484.227-.957.414-1.047.414s-.27.109-.391.242-.289.246-.375.246-.5.191-.926.43c-.742.41-1.086.574-2.086 1.008-.25.109-.457.242-.457.297s-.289.234-.641.402-.809.414-1.008.547-.531.328-.734.43a13.79 13.79 0 0 0-1.777 1.23c-.105.094-.281.172-.387.172s-.211.043-.234.098-.301.281-.621.508-.578.457-.578.508-.125.129-.277.18-.445.227-.656.402l-1.43 1.113c-.078.035-.332.238-.566.453l-1.469 1.266a34 34 0 0 0-3.172 3.035c-.301.336-.59.609-.645.613-.125.004-1.434 1.406-2.516 2.688l-1.297 1.492c-.234.25-.426.5-.426.559s-.191.313-.426.566-.43.504-.43.555-.137.211-.305.371-.305.348-.305.426-.168.328-.375.559-.465.57-.578.754-.242.336-.293.336-.098.09-.098.195-.121.355-.273.547l-1.039 1.457-.566.973-.555 1.055c-.125.281-.277.527-.336.551s-.527.906-1.047 1.957L5.984 36.07c-.07.043-.125.156-.125.258s-.187.574-.414 1.059c-.617 1.305-.805 1.797-.809 2.086 0 .145-.102.453-.23.688-.574 1.063-1.023 2.23-1.234 3.234-.059.27-.199.738-.309 1.039s-.305.934-.426 1.402l-.414 1.527C1.43 49.422.387 56.02.375 57.801L.363 59.02c-.004.199-.086.676-.184 1.055-.242.941-.246 3.992 0 4.816.098.328.18.793.184 1.027l.012 1.281c.004.848.422 4.168.777 6.164l.383 2.137a22.01 22.01 0 0 0 .441 1.953l.461 1.711c.121.469.313 1.102.426 1.402s.25.77.309 1.039c.211 1.004.66 2.172 1.234 3.234.129.234.23.543.23.688.004.289.191.781.809 2.086.227.484.414.961.414 1.059s.055.215.117.254.543.934 1.066 1.992.996 1.938 1.051 1.961.211.27.336.551.375.75.555 1.055l.57.977c.133.234.359.574.5.758l.535.691c.152.195.273.445.273.551s.043.195.098.195.184.152.293.336.371.523.578.754.375.48.375.559.137.27.305.426.305.324.305.371.191.297.43.555.426.512.426.566.191.309.426.559a42.58 42.58 0 0 1 1.297 1.492c1.039 1.23 2.391 2.684 2.5 2.684.043 0 .352.289.68.641 1.195 1.273 1.527 1.594 2.848 2.73l1.773 1.547c.234.215.488.418.566.453.141.059.633.441 1.43 1.113.211.176.504.355.656.402s.277.129.277.18.258.281.578.508.598.453.621.508.129.098.234.098.281.078.387.172a13.79 13.79 0 0 0 1.777 1.23c.203.102.531.293.734.43s.652.379 1.008.547.641.348.641.402.316.23.699.387.84.367 1.008.469c.594.371 1.617.879 1.766.879.082 0 .25.109.371.246s.297.242.391.242.563.188 1.047.414c1.285.605 1.797.805 2.066.805.133 0 .605.191 1.055.418a11.51 11.51 0 0 0 1.727.684 65.93 65.93 0 0 1 1.832.574c.504.168 1.301.402 1.77.523l1.711.465c.926.27 1.57.398 3.723.762l2.016.348c1.832.332 5.098.633 5.328.488.07-.043.602.023 1.18.148 1.43.313 4.086.313 5.473 0 .547-.125 1.051-.191 1.125-.148.266.168 3.496-.16 5.996-.605l1.77-.305c1.152-.18 2.5-.461 3.297-.691l1.648-.453c.438-.117.902-.254 1.039-.305.645-.246.895-.32 1.402-.426.855-.172 2.059-.605 2.949-1.059.449-.23.922-.418 1.055-.418.27 0 .781-.199 2.066-.805.484-.227.957-.414 1.047-.414s.27-.109.391-.242.289-.246.371-.246c.148 0 1.172-.508 1.766-.879.168-.102.621-.316 1.008-.469s.699-.328.699-.387.289-.234.641-.402.809-.414 1.008-.547.531-.328.734-.43a13.79 13.79 0 0 0 1.777-1.23c.105-.094.281-.172.387-.172s.211-.047.234-.098.301-.277.621-.496.578-.445.578-.504.125-.145.277-.195.445-.227.656-.402c.805-.676 1.289-1.055 1.43-1.113.078-.035.336-.242.57-.461a68.37 68.37 0 0 1 1.77-1.547c1.316-1.125 1.645-1.437 2.848-2.723.328-.352.637-.641.68-.641.109 0 1.461-1.453 2.5-2.684a42.58 42.58 0 0 1 1.297-1.492c.234-.25.426-.5.426-.559s.191-.312.426-.566.43-.504.43-.555.137-.211.305-.371.305-.348.305-.426.168-.328.375-.559.465-.57.578-.754.242-.336.293-.336.098-.102.098-.223.137-.352.305-.512.305-.336.305-.398.156-.312.348-.559.379-.527.422-.629.219-.402.391-.672.441-.77.605-1.113.34-.648.398-.672.523-.906 1.043-1.957.996-1.949 1.063-1.992.125-.156.125-.258.188-.574.414-1.059c.617-1.305.805-1.797.809-2.086 0-.145.102-.453.23-.687.48-.887.605-1.187.93-2.258l.613-1.953c.156-.473.367-1.184.469-1.59l.383-1.465c.684-2.527 1.629-8.637 1.652-10.68.008-.637.09-1.488.184-1.891.105-.453.172-1.41.172-2.504s-.066-2.051-.172-2.504c-.094-.402-.176-1.254-.184-1.891-.023-2.004-.984-8.227-1.641-10.621l-.418-1.586c-.133-.504-.332-1.164-.445-1.465s-.25-.77-.309-1.039c-.211-1.004-.66-2.172-1.234-3.234-.129-.234-.23-.543-.23-.687-.004-.289-.195-.793-.805-2.094-.23-.488-.418-.965-.418-1.059s-.055-.207-.121-.246c-.102-.066-.426-.672-1.375-2.566a17.24 17.24 0 0 1-.406-.883c-.121-.289-.266-.52-.32-.52s-.234-.289-.402-.641-.437-.863-.605-1.129-.395-.664-.5-.875-.301-.48-.43-.598-.234-.277-.234-.359-.137-.27-.305-.426-.305-.391-.305-.512-.078-.223-.172-.223-.199-.125-.238-.273-.266-.492-.504-.758-.43-.539-.43-.617-.137-.27-.305-.426-.305-.324-.305-.371-.191-.297-.43-.555-.426-.512-.426-.566-.191-.309-.426-.559a42.58 42.58 0 0 1-1.297-1.492c-1.082-1.281-2.391-2.684-2.516-2.687-.055-.004-.344-.277-.645-.613-.887-.98-2.062-2.102-3.172-3.02a40.81 40.81 0 0 1-1.469-1.266c-.234-.223-.488-.434-.566-.469-.141-.059-.633-.441-1.43-1.113-.211-.176-.504-.355-.656-.402s-.277-.137-.277-.195-.258-.285-.578-.504-.598-.441-.621-.496-.129-.098-.234-.098-.281-.078-.387-.172a13.79 13.79 0 0 0-1.777-1.23c-.203-.102-.531-.293-.734-.43s-.652-.379-1.008-.547-.641-.348-.641-.402-.316-.23-.699-.387-.84-.367-1.008-.469c-.594-.371-1.617-.879-1.766-.879-.082 0-.25-.109-.371-.246s-.293-.242-.383-.242-.559-.187-1.047-.418c-1.281-.602-1.805-.801-2.074-.801-.133 0-.605-.187-1.055-.418-.891-.453-2.094-.887-2.949-1.059-.508-.105-.758-.18-1.402-.426-.137-.051-.602-.187-1.039-.305l-1.648-.457c-.859-.246-2.141-.496-3.844-.754-.504-.074-1.082-.187-1.281-.246-.355-.105-1.371-.254-3.418-.488-1.223-.141-2.43-.184-2.578-.09-.066.039-.555-.031-1.09-.16-1.297-.309-4.211-.305-5.57.004M79.543 29.48c.363.367.656.715.656.766s.125.145.277.211a.92.92 0 0 1 .395.395c.066.152.16.277.211.277s.316.219.582.488.488.527.488.582.125.145.277.211a.92.92 0 0 1 .395.395c.066.152.16.277.211.277.121 0 1.07.949 1.07 1.07 0 .051.125.145.277.211a.92.92 0 0 1 .395.395c.066.152.16.277.211.277.121 0 1.07.949 1.07 1.07 0 .051.125.145.277.211a.92.92 0 0 1 .395.395c.066.152.16.277.211.277.121 0 1.07.949 1.07 1.07 0 .051.125.145.277.211s.328.246.395.398.203.305.305.34c.266.098.777.777.762 1.016-.113 1.734.008 34.266.129 34.34.082.055 1.055.098 2.164.098 2.613.004 3.703.531 4.449 2.16l.316.695-.035 8.137c-.027 6.57-.062 8.176-.195 8.332-.09.109-.129.254-.086.324s.023.129-.051.129-.129.063-.129.137c0 .246-.961 1.078-1.609 1.391l-.637.305H30.934l-.656-.316c-.687-.332-1.887-1.457-1.762-1.656.039-.062-.004-.203-.094-.312-.133-.156-.168-1.766-.195-8.363l-.035-8.172.324-.664c.352-.723 1.148-1.488 1.941-1.875.434-.211.793-.238 3.266-.262 1.969-.016 2.813-.066 2.898-.168.078-.094.121-7.684.125-21.582l.121-21.512c.066-.039.121-.223.125-.402.004-.402.598-1.102 1.305-1.535l.516-.32 19.625-.031 20.039-.059c.355-.027.5.059 1.066.641m-38.641 2.613c-.094.063-.355.082-.578.043l-.406-.062.027 21.164.031 21.164 23.063.031 23.348-.156.285-.187-.031-16.48-.031-16.484-4.457.008c-2.449 0-4.52-.039-4.598-.09-.105-.066-.156-1.281-.184-4.484l-.039-4.395-.734-.078c-1.152-.121-35.496-.113-35.695.008m38.73 19.613c.176.066.184 1.992.008 2.828l-.055.273-16.387-.027-16.387-.031-.031-1.398c-.02-.766-.008-1.469.023-1.555.066-.168 32.398-.254 32.828-.09m.027 9.996c.09.027.113.488.074 1.395-.047 1.195-.031 1.355.145 1.355.438 0 .164.215-.367.289-.312.043-7.781.078-16.598.078H46.879l-.066-.277c-.039-.148-.055-.852-.035-1.555l.035-1.281 15.688-.062 17.16.059m-27.352 18.43a16.57 16.57 0 0 0-1.09.348c-.582.215-1.602 1.301-1.793 1.906-.074.242-.227.574-.336.742-.301.461-.289 3.473.012 3.938.117.18.215.426.219.547.008.332.613 1.141 1.184 1.574.277.211.473.418.434.461s.074.074.258.074.48.074.66.164c.422.215 1.957.371 2.145.219.074-.066.359-.152.625-.191.512-.082 1.34-.578 1.453-.875a.29.29 0 0 1 .25-.172c.16 0 .465-.531.719-1.25.133-.387-.051-.566-.73-.707-.742-.152-.926-.047-1.078.625-.078.332-.66.844-.961.844-.094 0-.207.082-.246.184-.078.203-1.418.273-1.418.07 0-.059-.098-.086-.215-.055-1.738.426-2.449-5.035-.848-6.504 1.129-1.031 3.105-.781 3.758.477.25.48.637.531 1.539.199.383-.141-.082-1.574-.512-1.574-.098 0-.227-.094-.289-.211-.371-.691-2.516-1.164-3.738-.832m9.59-.051c-.43.059-.812.152-.852.207s-.285.207-.543.34c-1.562.805-1.664 2.918-.191 4.109.23.188.594.359.809.383s.473.113.574.195.422.184.707.223.578.105.648.16.359.156.648.234c.859.23 1.297.527 1.344.918.063.543-.09 1.16-.289 1.16-.098 0-.18.078-.18.176 0 .496-1.93.758-2.824.383-.5-.207-.719-.453-1.02-1.145l-.227-.523-.68.035-.68.039-.039.457c-.027.316.039.57.215.813.137.195.25.434.25.531s.188.309.418.469.395.324.363.375.094.129.281.168.535.137.77.207c.992.309 4.027-.004 4.027-.414 0-.125.594-.715.723-.715.137 0 .43-.719.406-1-.008-.121.035-.219.098-.219.195 0 .129-.965-.09-1.383-.113-.215-.215-.445-.227-.512a4.31 4.31 0 0 1-.035-.273c-.012-.086-.086-.152-.168-.152s-.285-.133-.457-.289-.586-.387-.922-.504-.773-.281-.977-.363a7.92 7.92 0 0 0-1.098-.301c-1.547-.32-2.035-.754-1.789-1.586.426-1.414 3.68-1.199 3.68.242v.359h1.68l.078-.383c.297-1.5-1.992-2.75-4.434-2.422m9.148-.039c-.305.027-.605.117-.672.207s-.289.242-.488.348c-.402.207-.852.754-1.047 1.277-.27.699-.039 2.453.258 1.984.09-.145.113-.125.113.086.004.27 1.184 1.422 1.352 1.316.047-.027.406.035.801.145s.789.195.871.199.152.047.152.094.246.125.543.172c.828.121 1.27.391 1.391.836.121.453.055 1.348-.105 1.406-.062.02-.316.18-.566.348-1.078.734-3.215.145-3.414-.937-.16-.867-1.715-.918-1.766-.055-.102 1.738 2.582 3.039 5.152 2.5l.996-.207c.184-.039.336-.145.336-.238s.133-.234.301-.312.336-.238.375-.363a1.32 1.32 0 0 1 .277-.43c.277-.277.371-2.113.121-2.367a4.6 4.6 0 0 1-.449-.633c-.156-.25-.379-.457-.496-.457s-.316-.109-.437-.242-.348-.246-.508-.246-.488-.109-.742-.246-.574-.242-.719-.242c-1.156 0-2.363-.742-2.363-1.457 0-.824.484-1.105 1.887-1.105 1.246 0 1.273.016 1.879 1.031.211.359.883.516 1.5.355.273-.07.164-.98-.156-1.336-.125-.137-.227-.316-.227-.395s-.234-.258-.52-.402-.547-.305-.578-.352c-.074-.105-1.84-.379-2.234-.348l-.816.066" fill="rgb(26.27451%,63.921569%,95.686275%)"/><path d="M49.234 29.023h19.41c5.316-.02.93-.031-9.746-.031l-9.664.031m-9.504 2.988c-.035.086-.043 9.656-.027 21.273l.031 21.117.031-21.211.031-21.207 18.887-.031 18.891-.031-18.895-.031c-15.023-.023-18.906 0-18.949.121m13.281 47.91a2.27 2.27 0 0 0 .609 0c.148-.031 0-.055-.336-.055s-.461.027-.273.055m9.52 0a2.76 2.76 0 0 0 .672 0c.184-.027.031-.051-.336-.051s-.52.023-.336.051M50.688 85.57c0 .234.023.332.055.215a.98.98 0 0 0 0-.426c-.031-.117-.055-.023-.055.211m2.199 4.727a2.76 2.76 0 0 0 .672 0c.184-.027.035-.051-.336-.051s-.52.023-.336.051m19.898-.004a.98.98 0 0 0 .426 0c.117-.031.023-.055-.211-.055s-.332.023-.215.055m-25.758 5.746h30.945c8.508-.016 1.547-.031-15.473-.031l-15.473.031" fill="rgb(49.803922%,72.156863%,89.803922%)"/><path d="M57.555.246l-.852.086.977.02c1.367.027 1.531.02 2.012-.098.535-.133-.793-.137-2.137-.008m7.996.059c.367.09.719.133.777.094s.531-.066 1.039-.066l.93.004-.914-.094-1.711-.094-.793-.004.672.16m-9.73.148a2.27 2.27 0 0 0 .609 0c.148-.031-.004-.055-.34-.051s-.457.023-.27.051m12.816 0a2.27 2.27 0 0 0 .609 0c.148-.031 0-.055-.336-.051s-.461.023-.273.051M54.078.609l-.43.09.43.012a5.15 5.15 0 0 0 .914-.094l.488-.102-.488.004a5.62 5.62 0 0 0-.914.09m15.93.008a5.15 5.15 0 0 0 .914.094l.43-.008-.488-.102c-.27-.055-.684-.098-.918-.094l-.426.008.488.102M51.609.98c-1.27.23-1.648.34-1.254.352.242.008 1.891-.266 2.805-.465l.488-.105h-.426c-.234 0-.961.098-1.613.219M71.84.875c1.238.289 3.102.559 2.984.43-.086-.094-2.832-.574-3.191-.559-.18.008-.109.055.207.129m-22.754.602c-.293.055-.566.137-.605.172-.082.082.875-.059 1.324-.191.43-.133-.023-.121-.719.02m26.109-.027c.441.141 1.457.273 1.16.148-.137-.055-.52-.133-.855-.172-.375-.047-.492-.035-.305.023m-28.902.715c-.621.172-1.109.336-1.082.363.051.051 1.066-.187 2.09-.492 1.047-.313.184-.203-1.008.129m31.344-.148l2.109.516c.148-.051-2.215-.707-2.484-.687-.098.004.074.082.375.172M42.969 3.172l-1.617.602c.082.004.469-.098.855-.23l1.258-.359c.613-.137 1.75-.605 1.457-.602-.102 0-.98.266-1.953.59m37.055-.504c.18.156 1.496.535 1.668.477.086-.027-.238-.172-.719-.316-.949-.289-1.125-.32-.949-.16m2.441.734a4.35 4.35 0 0 0 .918.305c.32.059.273.023-.191-.148-.902-.336-1.293-.418-.727-.156m-42.426.793l-1.281.551-.246.156.246-.086c.133-.047.438-.125.672-.172.398-.082 1.707-.703 1.707-.812 0-.059.121-.098-1.098.363m43.824-.355c0 .102 1.328.727 1.707.805l.672.168c.137.047.105.004-.074-.102-.336-.195-2.305-.937-2.305-.871m-46.73 1.566c-.488.211-.84.406-.781.426.125.039 1.734-.664 1.734-.762 0-.086.059-.109-.953.336m49.781-.34c0 .082 1.594.793 1.758.785.074-.004-.168-.145-.539-.316-.895-.41-1.219-.535-1.219-.469M34.605 6.609c-1.484.746-1.98 1.066-1.402.898a2.81 2.81 0 0 0 .609-.277c.566-.359 1.613-.883 1.766-.883.082 0 .25-.109.371-.246.293-.324.332-.336-1.344.508m54.438-.512c.125.137.297.25.383.25s.5.191.926.426c.957.531 2.078 1.055 2.133 1 .047-.047-1.594-.934-2.82-1.52-.687-.332-.805-.363-.621-.156M31.801 8.105l-1.258.742c-.559.32-.984.609-.949.645s.215-.039.402-.168c.586-.395.809-.52 1.469-.836.352-.168.641-.363.641-.43 0-.152-.004-.148-.305.047m61.094.012c0 .035.289.203.641.371.66.316.883.441 1.469.836.188.129.367.203.402.168.082-.082-2.219-1.437-2.445-1.437-.035 0-.066.031-.066.063m-64.453 2.012l-2.238 1.551-1.461 1.039c-.078.047-.105.117-.062.16s.258-.086.484-.281.531-.395.684-.441.277-.129.277-.18.258-.281.578-.508.598-.453.621-.508.141-.098.266-.098.262-.051.301-.117.375-.32.742-.562c.555-.367.922-.684.762-.656-.02.004-.449.273-.953.602m67.184-.512c.043.07.379.324.742.566s.699.496.742.563.176.117.301.117.242.047.266.098.301.277.621.496.578.445.578.504.125.145.277.195.457.246.684.441.441.324.477.289.047-.086.02-.109l-3.043-2.176-1.023-.648c-.395-.254-.68-.402-.641-.336m-71.586 3.688c-.23.195-.363.359-.297.359.172 0 .859-.578.781-.656-.035-.035-.254.098-.484.297m76.426-.273c0 .109.66.641.793.641s-.066-.23-.43-.492c-.203-.141-.363-.207-.363-.148M21.91 15.039c-1.953 1.68-5.113 4.832-6.648 6.629l-1.395 1.625c-.191.215-.203.262-.051.203.109-.043.328-.246.484-.457.855-1.137 3.434-3.992 3.609-4 .055-.004.344-.277.645-.613a39.99 39.99 0 0 1 4.484-4.125c.301-.227.621-.641.484-.625-.012 0-.738.613-1.613 1.363m79.637-1.156c.078.148.281.367.453.488 1.063.742 3.293 2.777 4.445 4.055.301.336.59.609.645.613.176.008 2.754 2.863 3.609 4 .156.211.371.414.473.453.199.078-.375-.637-1.906-2.375-1.371-1.551-4.414-4.551-5.934-5.852l-1.633-1.402-.293-.254.141.273M13.238 24.105c-.184.238-.305.465-.273.5s.215-.137.398-.379.305-.465.273-.5-.211.137-.398.379m98.098-.363c0 .066.16.316.359.551s.359.371.363.301-.16-.316-.359-.551-.363-.367-.363-.301m-99.027 1.57l-.957 1.328c-.277.387-.461.703-.402.703s.195-.152.305-.336.371-.523.578-.754.375-.477.375-.543.145-.273.32-.457.297-.387.273-.449-.246.164-.492.508m99.875-.504c0 .098.137.301.305.461s.305.348.305.426.195.355.43.617.465.605.504.758.148.273.246.273c.199 0 .148-.078-1.086-1.75-.387-.527-.703-.879-.703-.785M10.68 27.594l-.52.848c-.254.414-.301.543-.129.34.617-.723.852-1.078.805-1.219-.035-.102-.082-.094-.156.031m103.457.008c0 .105.137.316.305.477s.305.348.305.426.117.25.262.379c.18.156.117-.008-.195-.5-.555-.891-.676-1.027-.676-.781m-36.094 1.285c.043.043.219.086.387.094.238.008 1.176.875 3.973 3.672l3.656 3.512c0-.164-.914-1.129-1.07-1.129-.051 0-.145-.125-.211-.277a.92.92 0 0 0-.395-.395c-.152-.066-.277-.16-.277-.211 0-.121-.949-1.07-1.07-1.07-.051 0-.145-.125-.211-.277a.92.92 0 0 0-.395-.395c-.152-.066-.277-.16-.277-.211s-.219-.316-.488-.582-.527-.488-.582-.488-.145-.125-.211-.277a.92.92 0 0 0-.395-.395c-.152-.066-.277-.16-.277-.211 0-.352-1.34-1.437-1.773-1.437-.254 0-.43.035-.383.078m-39.809.395c-.629.406-1.234 1.09-1.242 1.402-.004.145.141.012.391-.359.418-.617 1.281-1.215 1.883-1.305.305-.047.293-.055-.082-.062-.27-.008-.617.109-.949.324M8.738 30.703c-.387.641-.676 1.234-.645 1.316s.172-.102.313-.402c.273-.582.566-1.109.922-1.648.117-.18.188-.352.16-.379s-.367.469-.75 1.113m106.738-1.09c0 .039.098.219.215.398.449.684.535.832.844 1.48.176.371.344.605.371.527s-.258-.672-.641-1.312c-.648-1.086-.789-1.281-.789-1.094M36.742 53.086l-.152 21.223c-.086.07-1.309.133-2.898.145-2.441.02-2.801.047-3.234.258-.793.383-1.59 1.152-1.941 1.875l-.324.664.035 8.172.195 8.363c.09.109.133.25.094.313-.27.434 2.324 2.203 2.891 1.973.258-.102.254-.109-.066-.117-.898-.02-2.145-.98-2.676-2.059l-.281-.57V77.086l.332-.566c.973-1.656 1.758-1.934 5.426-1.934h2.727V53.285l-.062-21.301c-.035 0-.062 9.496-.062 21.102m3.055.199v21.301h46.875v-.246c0-.234-.02-.238-.289-.062-.25.168-2.812.184-23.344.156l-23.062-.031-.031-21.164-.027-21.164.406.063c.223.039.484.02.578-.043.117-.07-.043-.109-.465-.109h-.641v21.301M76.66 32.094l.672.07.031 4.152.074 4.457c.023.164.047-1.742.059-4.242l.02-4.547-.766.02-.762.02.672.07M6.652 34.543c-.441.887-.75 1.578-.684 1.535.164-.102 1.625-3.012 1.551-3.086-.031-.031-.422.664-.867 1.551m110.781-1.492c0 .051.09.258.199.457s.438.844.73 1.43.594 1.098.664 1.141-.234-.641-.676-1.52c-.727-1.453-.922-1.773-.918-1.508M5.594 36.695c-.105.262-.285.68-.395.934s-.168.457-.129.457c.102 0 .801-1.609.758-1.746-.023-.066-.129.094-.234.355m80.586-.344c0 .055.77.855 1.703 1.785 1.195 1.184 1.715 1.781 1.742 2.008.035.305.043.309.117.051.082-.293-.41-1.07-.754-1.187-.102-.035-.238-.187-.305-.34s-.246-.332-.395-.398-.277-.16-.277-.211c0-.141-.957-1.07-1.098-1.07-.066 0-.121-.074-.121-.164s-.102-.258-.223-.367c-.242-.219-.391-.258-.391-.105m32.969-.023c-.008.164.703 1.758.785 1.758.066 0-.059-.324-.469-1.219-.172-.371-.312-.613-.316-.539M4.539 39.207l-.5 1.297c-.141.359-.203.617-.133.574s.121-.133.121-.203.109-.266.242-.434a1.91 1.91 0 0 0 .313-.75c.039-.246.125-.578.191-.734s.094-.316.066-.348-.164.242-.301.598m115.641-.418c.051.117.137.461.199.762s.215.699.348.879.246.387.246.453.055.152.121.195.008-.215-.133-.574l-.5-1.289c-.129-.352-.27-.641-.305-.641s-.023.098.023.215m-40.375 2.316a169.23 169.23 0 0 0 4.453 0c1.227-.02.223-.035-2.227-.035s-3.453.016-2.227.035m9.824 16.727l-.027 16.754h2.051c2.82 0 3.715.371 4.633 1.934l.332.566v16.359l-.34.582c-.637 1.082-1.758 1.906-2.617 1.926-.32.008-.324.016-.066.117.508.207 2.719-1.176 2.719-1.695 0-.074.059-.137.129-.137s.094-.059.051-.129-.004-.215.086-.324c.133-.156.168-1.762.195-8.332l.035-8.137-.316-.695c-.746-1.629-1.836-2.156-4.449-2.16-1.109 0-2.086-.047-2.168-.098-.121-.078-.16-3.602-.184-16.691l-.031-16.594-.031 16.754M3.484 41.961c-.328 1.051-.34 1.117-.086.574.23-.492.449-1.277.355-1.277-.027 0-.148.316-.27.703m117.797-.395c.082.445.441 1.426.5 1.363.023-.023-.094-.422-.262-.887s-.277-.68-.238-.477M2.82 44.051c-.148.492-.246.922-.215.953.086.086.598-1.527.539-1.699-.027-.082-.176.254-.324.746m119.008-.68c0 .246.508 1.695.57 1.629.031-.031-.062-.445-.203-.922-.246-.82-.367-1.059-.367-.707M2.441 45.188c0 .035-.168.711-.375 1.5s-.352 1.457-.32 1.484c.051.051.27-.687.648-2.195.098-.395.152-.746.113-.785s-.066-.039-.066-.004m120.051.344c.047.234.184.785.309 1.223s.262.949.305 1.145.105.32.141.285c.066-.07-.66-2.91-.773-3.016-.035-.035-.027.129.02.363M1.555 48.766c-.191.867-.207 1.359-.027.672.098-.367.16-.754.141-.852s-.07-.02-.113.18m121.762-.121c0 .137.07.52.156.855s.156.5.16.367-.07-.52-.156-.855-.156-.5-.16-.367M1.055 51.27c-.258 1.379-.695 4.695-.676 5.129.008.164.141-.602.293-1.711s.375-2.5.484-3.094.18-1.172.156-1.285-.141.324-.258.961m122.605-.906c.004.129.09.73.195 1.332l.469 3.055c.156 1.074.289 1.785.293 1.586.023-.754-.754-5.988-.91-6.156-.027-.027-.047.055-.047.184m-60.457 1.363l16.387.031v1.426c0 1.773.074 1.754.156-.043.055-1.137.035-1.379-.117-1.434-.098-.039-7.523-.059-16.496-.043l-16.32.031 16.391.031m-8.18 3.051h16.418c4.516-.016.82-.031-8.207-.031l-8.211.031M.203 58.004c-.117 1.605-.098 2.242.051 1.75.059-.203.109-.531.113-.734.023-2.457-.035-2.832-.164-1.016m124.461.063c-.008.688.035 1.402.09 1.59.133.438.137-.715.008-1.977-.086-.852-.09-.852-.098.387M62.5 61.645l-15.687.063 16.391.031 16.387.027v1.469c0 1.383.012 1.461.246 1.461.133 0 .242-.055.242-.121s-.09-.121-.199-.121c-.176 0-.191-.16-.145-1.355.039-.906.016-1.367-.074-1.395-.348-.105-2.578-.113-17.16-.059m-7.539 3.145h16.297c4.48-.02.816-.031-8.148-.031l-8.148.031m-54.816.883a22.15 22.15 0 0 0 .098 1.648l.094.855.016-.914c.027-1.48.012-1.824-.105-2.109-.078-.199-.105-.059-.102.52m124.586-.242c-.047.234-.078.949-.074 1.586l.012 1.16.105-1.098c.063-.605.094-1.32.078-1.586l-.035-.488-.086.426M.379 68.602c-.035.852.852 6.574.938 6.027.02-.141-.051-.746-.164-1.344S.82 71.324.668 70.25.387 68.438.379 68.602m123.926 1.711l-.461 3.109c-.109.602-.176 1.176-.156 1.281.102.465 1.004-5.562.922-6.141-.02-.145-.156.641-.305 1.75M1.426 75.5c.039.336.117.719.172.855.125.297-.008-.719-.148-1.16-.059-.187-.07-.07-.023.305m121.996.191c-.082.41-.125.773-.094.801s.117-.281.199-.695.121-.77.094-.801-.117.285-.199.695M1.719 76.844c-.012.184.715 2.902.801 2.98.102.098-.047-.621-.34-1.637-.324-1.129-.449-1.492-.461-1.344m121.387.258c-.043.195-.18.711-.305 1.145-.27.941-.418 1.672-.328 1.586.113-.105.84-2.945.773-3.016-.035-.035-.102.094-.141.285M2.563 80.027c0 .242.539 1.789.582 1.668.051-.152-.434-1.738-.531-1.738-.027 0-.051.031-.051.07M52 80.074c-.633.203-1.008.379-.941.445.039.035.195-.004.352-.09s.563-.219.898-.305.473-.148.305-.148a2.39 2.39 0 0 0-.613.098m1.863-.035a.98.98 0 0 0 .426 0c.117-.031.023-.055-.211-.055s-.332.023-.215.055m7.414.031c-.828.254-1.547.813-1.887 1.469-.324.621-.129.566.27-.082.227-.359.547-.68.84-.828.262-.133.508-.289.547-.34s.422-.145.852-.199c.684-.09.711-.105.234-.109-.301 0-.687.039-.855.09M72.52 80c.027.027.379.078.785.117.473.047.625.035.426-.031-.301-.105-1.309-.172-1.211-.086m49.555.742c-.148.441-.246.871-.219.953s.176-.254.324-.746c.34-1.121.254-1.293-.105-.207m-67.02-.484c0 .031.211.168.473.301s.504.328.547.43c.074.203.324.262.324.078 0-.062-.277-.281-.613-.488-.613-.379-.73-.43-.73-.32m9.641.012c0 .027.223.188.492.359.68.426 1.238 1.34 1.141 1.859-.047.254-.023.398.066.398.461 0-.102-1.508-.812-2.156-.363-.336-.887-.605-.887-.461m5.141.184c-1.039.633-1.637 2.285-1.125 3.109.137.219.141.215.066-.059-.305-1.105.277-2.566 1.172-2.941.199-.082.363-.195.363-.254 0-.145 0-.145-.477.145m4.262-.156c0 .055.246.219.547.367s.551.332.551.41.102.262.227.398c.273.301.426 1.25.219 1.336-.078.031-.012.063.148.066.637.023-.07-1.625-.98-2.297-.523-.383-.711-.457-.711-.281m-24.176 1.094c-.461.52-.973 1.441-.973 1.758 0 .281.242-.066.422-.605.105-.324.414-.828.68-1.125s.488-.551.488-.57c0-.113-.156.023-.617.543m11.984.039c-.672.133-.836.273-1.012.855-.246.832.242 1.266 1.789 1.586a7.92 7.92 0 0 1 1.098.301c.203.082.641.246.977.363s.75.344.922.504c.352.324.508.371.41.121-.035-.094-.32-.305-.637-.473-.547-.293-.977-.441-3.105-1.074-1.129-.336-1.344-.531-1.289-1.172.09-1.133 2.734-1.285 3.324-.195.125.23.184.27.188.129.012-.52-1.344-1.215-2.07-1.062-.035.008-.301.059-.594.117m-8.562.102c1.102.156 1.754.629 2.012 1.453.051.164.152.258.246.223a12.3 12.3 0 0 1 .906-.207c.414-.082.777-.191.813-.246.07-.117-.41-1.18-.586-1.289-.062-.039-.051.051.031.203.496.926.402 1.09-.703 1.262-.5.078-.52.066-.754-.379-.359-.691-.98-1.051-1.883-1.086l-.754-.027.672.094m17.344.207c-1.016.852.266 2.293 1.988 2.238.145-.004-.113-.117-.574-.246-1.469-.422-1.812-.738-1.621-1.496.289-1.156 3.496-.785 3.496.402 0 .23.203.449.316.336.07-.066-.406-.895-.734-1.277-.379-.437-2.332-.41-2.871.043m-18.625-.055c-.348.195-1.039.863-1.039 1.008 0 .066.152-.051.336-.27a3.12 3.12 0 0 1 .824-.629c.27-.133.406-.242.309-.242s-.297.059-.43.133m69.402 1.086c-.152.473-.254.883-.227.91s.18-.332.332-.809.254-.883.227-.91-.176.336-.332.809M3.254 82.273c.172.668.531 1.543.453 1.109a4.35 4.35 0 0 0-.305-.918c-.125-.27-.191-.355-.148-.191m55.84.285c-.035.965.539 1.988 1.359 2.414.152.078.016-.086-.301-.371-.566-.504-.637-.645-.93-1.898-.098-.414-.117-.434-.129-.145m-8.359.883c-.039.105-.07.371-.062.582.012.34.027.32.121-.152.109-.555.078-.785-.059-.43m-1.949.391c-.391 2.352.441 4.895 1.836 5.629.473.25.434.148-.102-.262-.582-.445-1.191-1.254-1.199-1.586-.004-.121-.102-.367-.219-.547-.176-.27-.211-.613-.211-2.008 0-1.875 0-1.867-.105-1.227m20.324.008c-.012.086-.078.121-.152.074-.094-.059-.098-.016-.012.148.168.305.746.832 1.125 1.023.176.09.063-.059-.27-.355-.312-.281-.594-.629-.625-.781s-.059-.199-.066-.109m-65.07.656l.5 1.297c.137.355.27.625.301.598s0-.187-.066-.348-.152-.488-.191-.734a1.91 1.91 0 0 0-.312-.75c-.133-.168-.242-.363-.242-.434s-.055-.16-.121-.203-.008.215.133.574m116.922-.359a14.37 14.37 0 0 1-.363.703c-.129.234-.234.555-.234.707s-.062.395-.133.531-.105.273-.074.305.168-.234.305-.59l.496-1.289c.25-.633.254-.902.004-.367m-47.422.156c.133.098.379.176.551.176.293-.004.285-.016-.098-.184-.523-.227-.758-.223-.453.008m1.102.418c.125.137.324.25.441.25s.34.207.496.457c.32.527.594.832.594.668 0-.359-.871-1.289-1.402-1.492-.355-.133-.355-.133-.129.117m-13.52.563c.371.164 2.125.664 2.324.664.277-.004-.609-.34-1.051-.398-.281-.035-.598-.137-.699-.223s-.359-.168-.574-.184l-.391-.031.391.172m9.5.031c.102.086 1.512.512 1.703.512.035 0 .063-.066.063-.145s-.031-.109-.07-.07-.273.004-.52-.082c-.613-.211-1.32-.344-1.176-.215m-4.277.359c.023.266.418 1 .422.789.008-.176-.32-1.004-.395-1.004-.023 0-.039.098-.027.215m6.898.387c.367.133.773.363.902.52.18.211.215.227.156.059-.047-.121-.082-.242-.082-.27 0-.094-.809-.406-1.219-.473-.309-.051-.242-.004.242.164m-22.523.426c.078.738.563 1.594 1.078 1.91.629.383.793.27.176-.121s-.852-.754-1.137-1.746l-.184-.645.066.602m13-.453c1.023.367 1.379.859 1.125 1.539-.141.367-.109.574.063.402.051-.051.094-.398.094-.781l.004-.691-.551-.277c-.301-.148-.633-.27-.734-.266-.16.008-.16.016 0 .074m12.492 1.133c0 .438.023.617.051.398s.027-.574 0-.793-.051-.039-.051.395m-20.828-.273c-.055.301-.047.313.102.109.191-.266 1.449-.082 1.566.23.074.188-.125.875-.324 1.129-.066.086-.094.18-.062.211.078.078.539-.781.633-1.18.07-.309.039-.332-.766-.578-1.066-.324-1.07-.324-1.148.078m4.492-.082l-.609.074.621.02c.609.02.629.031.848.539.441 1.02.945 1.313 2.25 1.313.781 0 1.59-.246 1.59-.484 0-.055-.203.004-.453.129-1.18.602-2.668.16-3.215-.953-.375-.773-.297-.727-1.031-.637m6.918.328c-.012.285-.082.52-.152.52s-.109.066-.078.152c.07.191-.211.895-.457 1.141-.102.102-.187.148-.187.098s-.109.039-.246.195-.242.32-.242.363c0 .098-1.23.469-1.77.531-.328.039-.32.047.078.063 1.695.07 3.32-1.586 3.121-3.184-.043-.348-.051-.332-.066.121m2.91-.391a15.01 15.01 0 0 1-.867.113c-.648.07-.68.094-.625.375.078.414.27.504.27.125 0-.371.355-.496 1.156-.406.418.047.52.023.469-.109-.035-.09-.098-.16-.141-.152a6.99 6.99 0 0 0-.262.055m-64.582.449c.27.688.727 1.605.73 1.477.008-.176-.691-1.75-.777-1.75-.035 0-.016.125.047.273m53.594-.207c0 .223.539 1.613.68 1.762.281.285.219-.078-.082-.504-.184-.258-.242-.492-.211-.84.039-.398.012-.484-.168-.484-.121 0-.219.027-.219.066m60.785.738c-.195.441-.355.867-.352.945.004.129.461-.789.73-1.477.246-.617-.043-.215-.379.531m-64.383-.199c-.043.129-.242.379-.445.551s-.324.305-.27.305c.309-.016 1.148-1.094.852-1.094-.035 0-.098.105-.137.238m15.129.066c.086.371.645.914 1.098 1.055.559.18 1.984.113 2.156-.098.152-.184.145-.191-.098-.062-.871.465-2.531 0-2.996-.832-.238-.426-.238-.426-.16-.062m3.746.438l-.285.359.316-.145c.176-.078.316-.242.316-.367 0-.285-.004-.281-.348.152m-5.629-.219c-.066 1.188 1.918 2.426 3.902 2.434 1.102.008 2.941-.363 2.418-.484-.113-.027-.332.02-.48.098-.371.199-2.812.305-3.246.141a5.15 5.15 0 0 0-.656-.195c-.398-.09-1.309-.965-1.66-1.602-.148-.27-.273-.445-.277-.391m7.328.926c-.082.191-.281.41-.441.484s-.297.191-.297.262c0 .211.184.137.508-.211.375-.402.641-.887.484-.887-.059 0-.176.156-.254.352m-22.469-.105l-.672.082.695.02c.383.008.73-.035.77-.102s.031-.113-.023-.105-.398.059-.77.105m3.082.246c-.152.059-.273.16-.273.219 0 .211-.922.746-1.406.82-.266.043-.543.129-.609.199-.082.078.043.09.367.035.621-.109 1.531-.594 1.965-1.047.367-.383.367-.391-.043-.227m-49.98.938c.715 1.473 1.395 2.73 1.445 2.68.066-.062-1.656-3.48-1.797-3.566-.062-.035.098.359.352.887m112.605-.789c-.234.305-1.508 2.93-1.449 2.988.031.031.418-.66.859-1.539.746-1.488.887-1.828.59-1.449m-59.078.277c.188.168.406.305.48.305s-.047-.141-.273-.309c-.527-.387-.652-.387-.207.004m-8.461.625c.234.102.758.207 1.16.23.719.043.723.043.121-.047-.336-.047-.73-.156-.875-.234s-.395-.148-.551-.145c-.234.004-.211.035.145.195m9.809.102c.258.102.836.211 1.281.246 1.004.078.859-.008-.285-.172-.469-.066-.992-.152-1.16-.191s-.094.016.164.117M8.055 93.027c0 .18 1.367 2.453 1.434 2.383.027-.027-.043-.199-.16-.379a11.75 11.75 0 0 1-.902-1.617c-.234-.508-.371-.648-.371-.387m108.48.48c-.312.656-.398.805-.855 1.5-.125.188-.203.367-.172.402.098.094 1.457-2.27 1.398-2.43-.027-.078-.195.156-.371.527M115.066 96c-.176.23-.32.461-.32.512s-.145.242-.32.426-.293.402-.266.484.332-.297.68-.844c.672-1.055.754-1.27.227-.578m-104.867.617c.523.859.664 1.031.664.809 0-.156-.27-.543-.832-1.207-.156-.184-.078-.004.168.398m.926 1.438c.785 1.121 1.613 2.164 1.672 2.105.035-.035-.082-.219-.262-.406s-.328-.398-.328-.465-.168-.312-.375-.543-.465-.57-.578-.754-.246-.336-.301-.336.02.18.172.398m102.621-.062c-.113.184-.371.523-.578.754s-.375.477-.375.543-.148.277-.328.465-.297.371-.262.406.367-.332.73-.824c1.008-1.348 1.227-1.68 1.113-1.68-.055 0-.191.152-.301.336m-100.805 2.414c0 .07.16.316.359.551s.363.367.363.301-.16-.316-.359-.551-.359-.371-.363-.301m98.695.367c-.184.242-.305.465-.273.5s.211-.137.398-.379.305-.465.273-.5-.215.137-.398.379m-97.77.934l1.395 1.625c1.473 1.723 4.684 4.934 6.406 6.406l1.625 1.395c.215.191.262.203.203.051-.043-.109-.246-.328-.457-.484-.609-.457-2.918-2.484-3.41-2.992l-1.055-1.109c-.328-.352-.637-.641-.68-.641-.156 0-2.77-2.906-3.594-3.996-.156-.211-.375-.414-.484-.457-.152-.059-.141-.012.051.203m96.965.129l-1.227 1.438c-1.047 1.238-2.395 2.684-2.5 2.684-.043 0-.352.289-.68.641a27.57 27.57 0 0 1-2.848 2.727l-1.625 1.363c-.156.117-.34.32-.414.453-.148.266.57-.309 2.344-1.871 1.578-1.395 4.453-4.312 5.852-5.937l1.391-1.617c.137-.152.203-.273.152-.273s-.25.176-.445.395m-86.793 9.859c.23.199.449.332.484.297.078-.078-.609-.656-.781-.656-.066 0 .066.164.297.359m76.734-.062c-.199.16-.332.324-.297.359s.254-.098.484-.297c.5-.43.332-.488-.187-.062m-76.109.516c.008.145 2.695 2.055 4.188 2.977.789.488.617.25-.219-.309-.367-.242-.699-.496-.742-.562s-.18-.117-.309-.117-.238-.043-.238-.098-.152-.184-.336-.293-.523-.371-.754-.578-.484-.375-.562-.375-.246-.113-.371-.254c-.266-.297-.664-.531-.656-.391m75.172.254c-.227.195-.531.395-.684.441s-.277.137-.277.195-.258.285-.578.504-.598.441-.621.496-.141.098-.266.098-.262.051-.301.117-.375.32-.742.563-.699.496-.742.566.246-.082.641-.336l1.023-.648c.227-.141 2.492-1.766 3.043-2.176.027-.023.02-.07-.02-.109s-.25.094-.477.289m-70.297 3.125c0 .043 1.172.754 2.109 1.277.25.141.457.203.457.137s-.289-.258-.641-.426c-.664-.309-.918-.457-1.422-.824-.27-.199-.504-.273-.504-.164m65.418.164c-.504.367-.758.516-1.422.824-.352.168-.641.355-.641.426s.207.004.457-.137c.938-.523 2.109-1.234 2.109-1.277 0-.109-.234-.035-.504.164m-62.18 1.719c1.301.789 3.453 1.805 3.184 1.504-.129-.145-.301-.262-.387-.262s-.5-.191-.926-.426c-1.332-.734-2.781-1.367-1.871-.816m58.957.094c-.336.16-.957.488-1.383.723s-.844.426-.926.426-.258.117-.387.262c-.242.27.172.09 2.086-.902 1.461-.758 1.926-1.145.609-.508m-54.867 1.961c.914.422 1.219.535 1.219.461 0-.086-1.574-.785-1.75-.777-.078.004.16.145.531.316m50.809.047c-.719.332-1.078.602-.488.367.73-.285 1.598-.723 1.438-.723-.102 0-.527.16-.949.355m-48.832.781c.359.211 2.293.945 2.293.871 0-.105-1.316-.727-1.707-.809-.234-.047-.539-.125-.672-.168s-.098 0 .086.105m47.215-.055c-.102.066-.309.121-.461.121-.25 0-1.734.691-1.734.805 0 .066 1.902-.645 2.293-.859.184-.098.277-.18.207-.18s-.203.051-.305.113m-43.027 1.602c2.031.668 5.059 1.5 5.141 1.414.051-.051-.437-.195-2.336-.691-.469-.121-1.266-.359-1.77-.527-1.406-.469-2.609-.824-2.746-.809-.066.008.703.281 1.711.613m39.746-.379c-.672.242-1.055.473-.504.301.785-.242 1.512-.527 1.344-.531-.102-.004-.477.102-.84.23m-1.965.563l-.723.238c-.094.031-.141.09-.102.125.066.066 1.801-.426 1.801-.512 0-.098-.441-.031-.977.148m-2.016.613c-1.508.445-1.699.512-1.527.52.191.012 2.465-.586 2.555-.672.105-.102-.441-.02-1.027.152m-30.152.766c.137.055.52.133.855.172.375.047.492.035.305-.023-.441-.141-1.457-.273-1.16-.148m27.047.023c-.301.059-.602.133-.672.164-.211.098 1.07-.082 1.336-.187.313-.125.031-.113-.664.023m-25.508.285c.086.086 2.863.559 3.184.543s-.187-.137-1.73-.41c-1.055-.184-1.551-.23-1.453-.133m23.121.137c-1.594.305-1.957.395-1.672.406.324.016 3.098-.457 3.184-.543.098-.098-.641-.031-1.512.137m-19.168.551c.27.055.684.098.918.094l.426-.008-.488-.102a5.15 5.15 0 0 0-.914-.094l-.43.008.488.102m15.809-.008l-.426.09.426.008a5.17 5.17 0 0 0 .918-.09l.488-.102h-.488c-.27 0-.684.043-.918.094m-14.125.207a2.12 2.12 0 0 0 .609 0c.148-.027-.004-.051-.34-.051s-.457.023-.27.051m2.836.012c-.031.035-.484.059-1.008.055l-.945-.004 1.156.109c.641.063 1.41.098 1.711.078l.551-.031-.703-.133c-.387-.07-.73-.105-.762-.074m6.957.09l-.609.148h.73c.402 0 1.145-.043 1.648-.09l.914-.094-.93.004c-.508 0-.977-.027-1.035-.059s-.383.008-.719.09m3.023-.102a2.12 2.12 0 0 0 .609 0c.148-.027 0-.051-.336-.051s-.461.023-.273.051" fill="rgb(37.647059%,63.529412%,85.098039%)"/><path d="M59.234.09c.25.027.664.027.914 0s.047-.051-.457-.051-.707.023-.457.051m5.617 0c.25.027.664.027.914 0s.047-.051-.457-.051-.711.023-.457.051M20.926 15.777l-.355.398.395-.359c.371-.336.453-.434.359-.434-.02 0-.199.176-.398.395m82.711-.359c0 .023.18.199.398.398l.395.359-.355-.398c-.336-.371-.437-.453-.437-.359m-84.293 1.824l-.727.762.762-.727.762-.762c0-.094-.121.02-.797.727m86.188-.031l.785.734c.031 0-.266-.332-.664-.734l-.785-.73c-.035 0 .266.328.664.73M17.27 19.316l-.605.641.641-.605c.594-.562.695-.676.605-.676-.02 0-.309.289-.641.641m90.395.031l.727.672c.031 0-.238-.301-.602-.672l-.727-.672c-.031 0 .238.305.602.672m-91.984 1.68l-.359.395.395-.355c.371-.336.453-.437.359-.437-.02 0-.199.18-.395.398m93.207-.359c0 .02.18.199.398.398l.395.355-.359-.395c-.332-.371-.434-.453-.434-.359m-29.418 9.18c.227.234.441.426.473.426s-.125-.191-.352-.426-.441-.43-.477-.43.125.191.355.43m.977.977c.227.234.441.426.473.426s-.125-.191-.352-.426-.441-.43-.477-.43.125.191.355.43m.977.977c.227.234.441.426.473.426s-.125-.191-.352-.426-.441-.43-.477-.43.125.191.355.43m.977.977c.227.234.441.426.473.426s-.125-.191-.352-.426-.441-.43-.477-.43.125.191.355.43m.977.977c.227.234.441.426.473.426s-.125-.191-.352-.426-.441-.43-.477-.43.125.191.355.43m.977.977c.227.234.441.426.473.426s-.125-.191-.352-.426-.441-.43-.477-.43.125.191.355.43m.977.977c.227.234.441.426.473.426s-.125-.191-.352-.426-.441-.43-.477-.43.125.191.355.43m.977.977c.227.234.441.426.473.426s-.125-.191-.352-.426-.441-.43-.477-.43.125.191.355.43m.977.977c.227.234.441.426.473.426s-.125-.191-.352-.426-.441-.43-.477-.43.125.191.355.43m.977.977c.227.234.441.426.473.426s-.125-.191-.352-.426-.441-.43-.477-.43.125.191.355.43m.945.922l.273.313.063 34.773 1.68.008 1.676.004-1.648-.039-1.645-.039V39.836l-.336-.293-.336-.297.273.313m-6.926 1.426l4.395.035-.031 16.836.059 16.746c.051-.051.078-7.641.063-16.867l-.031-16.781h-4.426l-4.422-.004 4.395.035M46.754 53.223c0 .805.039 1.465.09 1.465s.074-.633.055-1.402l-.039-1.406 16.395-.031 16.398-.031-16.449-.027-16.449-.031v1.465M.148 57.617c0 .234.027.332.059.215s.031-.312 0-.43-.059-.02-.059.215m124.637 0c0 .234.023.332.055.215s.031-.312 0-.43-.055-.02-.055.215M.039 59.691c0 .504.023.711.051.457s.027-.664 0-.914-.051-.047-.051.457m124.879 0c0 .504.023.711.051.457a5.95 5.95 0 0 0 0-.914c-.027-.25-.051-.047-.051.457m-78.121 3.543c0 .703.02.992.047.641s.023-.93 0-1.285-.047-.062-.047.645M.039 65.309c0 .504.023.707.051.457s.027-.664 0-.914-.051-.047-.051.457m124.879 0c0 .504.023.707.051.457a5.95 5.95 0 0 0 0-.914c-.027-.254-.051-.047-.051.457m-69.945-.641h16.234c4.441-.02.773-.035-8.156-.035l-8.078.035M.148 67.383c0 .234.027.332.059.215s.031-.312 0-.43-.059-.02-.059.215m124.637 0c0 .234.023.332.055.215s.031-.312 0-.43-.055-.02-.055.215m-93.32 7.289c.152.027.371.027.488-.004s-.008-.055-.277-.051-.363.023-.211.055m1.586.004c.488.023 1.281.023 1.77 0s.09-.043-.883-.043-1.375.02-.887.043m6.961-.004a1.36 1.36 0 0 0 .488-.004c.113-.031-.008-.055-.277-.051s-.363.023-.211.055m12.273.004h22.586c6.188-.016 1.086-.031-11.332-.031l-11.254.031m40.887-.008a.98.98 0 0 0 .426 0c.117-.031.02-.055-.215-.055s-.328.023-.211.055m-63.82 1.047l-.359.395.395-.355c.371-.336.453-.437.359-.437-.02 0-.199.18-.395.398m65.863-.359c0 .02.18.199.398.398l.395.355-.359-.395c-.332-.371-.434-.453-.434-.359m-20.387 5.129c0 .02.18.199.398.395l.395.359-.355-.398c-.336-.367-.437-.453-.437-.355m-4.043 1.434l-.289.25.367-.215c.48-.281.488-.289.336-.289-.07 0-.258.113-.414.254m4.715.969l-.609.082.57.02c.316.012.609-.035.648-.102s.059-.113.039-.105-.312.059-.648.105m-9.797.086a2.76 2.76 0 0 0 .672 0c.184-.027.035-.051-.336-.051s-.52.023-.336.051m-17.078 2.172c0 .535.023.742.047.453a5.82 5.82 0 0 0 0-.977c-.023-.25-.047-.016-.047.523m26.57-.391c0 .023.18.199.398.398l.395.359-.359-.398c-.332-.371-.434-.453-.434-.359m-11.047 1.57c.133.074.328.195.434.27s.059.016-.098-.137-.355-.273-.434-.273-.035.066.098.141m12.184.832c0 .371.02.523.051.336a2.73 2.73 0 0 0 0-.668c-.031-.187-.051-.035-.051.332M69 86.754a.98.98 0 0 0 .426 0c.121-.031.023-.055-.211-.055s-.332.023-.215.055m-16.496 1.758c.094.059.418.105.719.102.652-.012.535-.07-.293-.148-.367-.039-.531-.02-.426.047m3.703.754l-.359.395.395-.359c.371-.332.453-.434.359-.434-.02 0-.199.18-.395.398m-40.824 14.41c0 .02.176.199.395.398l.398.355-.359-.395c-.336-.371-.434-.453-.434-.359m93.801.359l-.359.395.398-.355c.219-.199.395-.379.395-.398 0-.094-.098-.012-.434.359m-1.523 1.648l-.664.699.699-.664c.652-.621.758-.738.668-.738-.02 0-.336.316-.703.703m-90.387.027c.332.336.629.613.66.613s-.207-.277-.539-.613-.629-.609-.66-.609.207.277.539.609m2.074 2.078c.398.402.754.73.785.73s-.266-.328-.664-.73-.75-.734-.785-.734.266.332.664.734m86.18.031l-.73.762.762-.73c.422-.398.766-.742.766-.762 0-.09-.121.02-.797.73m-84.898 1.105c0 .02.18.199.398.395l.395.359-.355-.395c-.336-.371-.437-.453-.437-.359m83.305.359l-.355.395.395-.359c.219-.195.398-.375.398-.395 0-.094-.102-.012-.437.359m-44.699 15.684a5.95 5.95 0 0 0 .914 0c.254-.027.047-.051-.457-.051s-.707.023-.457.051m5.617 0a5.95 5.95 0 0 0 .914 0c.25-.027.047-.051-.457-.051s-.711.023-.457.051" fill="rgb(59.607843%,83.529412%,98.431373%)"/></svg>