<?xml version="1.0" encoding="UTF-8"?>
<svg xmlns="http://www.w3.org/2000/svg" xmlns:xlink="http://www.w3.org/1999/xlink" width="50pt" height="50pt" viewBox="0 0 50 50" version="1.1">
<g id="surface1">
<path style=" stroke:none;fill-rule:evenodd;fill:rgb(98.431373%,98.431373%,98.431373%);fill-opacity:1;" d="M 29.359375 9.890625 C 25.195312 10.269531 22.398438 12.597656 21.453125 16.476562 C 21.15625 17.695312 21.148438 17.851562 21.132812 21.648438 L 21.121094 25 L 17.960938 25.007812 L 14.796875 25.015625 L 14.78125 32.1875 L 21.125 32.1875 L 21.125 49.621094 L 21.273438 49.640625 C 21.355469 49.648438 21.617188 49.683594 21.859375 49.71875 C 22.984375 49.871094 23.3125 49.890625 25 49.890625 C 26.320312 49.890625 26.703125 49.878906 27.140625 49.835938 C 27.730469 49.773438 28.613281 49.664062 28.78125 49.628906 L 28.890625 49.605469 L 28.898438 40.898438 L 28.90625 32.1875 L 31.792969 32.1875 C 34.519531 32.1875 34.683594 32.183594 34.699219 32.132812 C 34.707031 32.101562 34.722656 32.023438 34.730469 31.953125 C 34.742188 31.882812 34.789062 31.554688 34.84375 31.21875 C 34.894531 30.882812 35 30.1875 35.078125 29.671875 C 35.15625 29.15625 35.238281 28.609375 35.265625 28.453125 C 35.289062 28.296875 35.332031 28.03125 35.355469 27.859375 C 35.425781 27.414062 35.574219 26.429688 35.6875 25.714844 C 35.738281 25.375 35.78125 25.078125 35.78125 25.050781 C 35.78125 25.003906 35.484375 25 32.34375 25 L 28.90625 25 L 28.90625 22.421875 C 28.90625 20.316406 28.914062 19.789062 28.953125 19.539062 C 29.167969 18.089844 29.996094 17.085938 31.308594 16.675781 C 31.949219 16.472656 32.421875 16.4375 34.445312 16.4375 L 36.09375 16.4375 L 36.09375 13.390625 C 36.09375 11.71875 36.082031 10.339844 36.066406 10.332031 C 36.019531 10.300781 35 10.160156 34.140625 10.066406 C 32.269531 9.855469 30.464844 9.789062 29.359375 9.890625 "/>
<path style=" stroke:none;fill-rule:evenodd;fill:rgb(10.588235%,45.490196%,95.686275%);fill-opacity:1;" d="M 24.671875 0.128906 C 23.488281 0.148438 22.902344 0.179688 22.09375 0.28125 C 21.964844 0.296875 21.789062 0.316406 21.703125 0.328125 C 21.375 0.367188 20.515625 0.507812 20.25 0.5625 C 19.355469 0.753906 18.488281 0.957031 18.34375 1.011719 C 18.316406 1.023438 18.257812 1.035156 18.207031 1.042969 C 18.160156 1.050781 18.0625 1.082031 17.988281 1.105469 C 17.851562 1.15625 16.746094 1.511719 16.71875 1.515625 C 16.710938 1.515625 16.660156 1.53125 16.609375 1.554688 C 16.558594 1.574219 16.246094 1.695312 15.914062 1.828125 C 14.742188 2.289062 13.609375 2.832031 12.601562 3.417969 C 12.40625 3.527344 12.25 3.609375 12.25 3.597656 C 12.25 3.585938 12.238281 3.59375 12.226562 3.613281 C 12.214844 3.628906 12.046875 3.742188 11.859375 3.859375 C 9.601562 5.265625 7.515625 7.089844 5.792969 9.171875 C 5.503906 9.523438 4.917969 10.28125 4.703125 10.59375 C 4.425781 10.984375 4.058594 11.535156 3.859375 11.859375 C 3.742188 12.046875 3.628906 12.214844 3.613281 12.226562 C 3.59375 12.238281 3.585938 12.25 3.597656 12.25 C 3.609375 12.25 3.527344 12.40625 3.417969 12.601562 C 2.832031 13.609375 2.289062 14.742188 1.828125 15.914062 C 1.695312 16.246094 1.574219 16.558594 1.554688 16.609375 C 1.53125 16.660156 1.515625 16.710938 1.515625 16.71875 C 1.511719 16.746094 1.15625 17.851562 1.105469 17.988281 C 1.082031 18.0625 1.050781 18.160156 1.042969 18.207031 C 1.035156 18.257812 1.023438 18.316406 1.011719 18.34375 C 0.957031 18.488281 0.753906 19.355469 0.5625 20.25 C 0.507812 20.515625 0.367188 21.375 0.328125 21.703125 C 0.316406 21.789062 0.296875 21.964844 0.28125 22.09375 C 0.15625 23.109375 0.0703125 25.515625 0.132812 26.203125 C 0.144531 26.339844 0.175781 26.726562 0.203125 27.0625 C 0.292969 28.203125 0.449219 29.257812 0.703125 30.40625 C 0.910156 31.347656 1.039062 31.824219 1.363281 32.820312 C 1.425781 33.007812 1.476562 33.175781 1.484375 33.195312 C 1.488281 33.21875 1.5 33.253906 1.511719 33.28125 C 1.539062 33.34375 1.875 34.226562 1.886719 34.265625 C 1.890625 34.28125 1.910156 34.332031 1.929688 34.375 C 1.949219 34.417969 2.058594 34.671875 2.171875 34.9375 C 2.644531 36.03125 3.511719 37.652344 4.070312 38.476562 C 4.136719 38.574219 4.179688 38.65625 4.167969 38.65625 C 4.15625 38.65625 4.164062 38.675781 4.191406 38.695312 C 4.21875 38.714844 4.3125 38.847656 4.40625 38.984375 C 4.582031 39.242188 5.046875 39.894531 5.15625 40.03125 C 5.1875 40.074219 5.335938 40.261719 5.480469 40.445312 C 6.621094 41.894531 8.03125 43.3125 9.46875 44.449219 C 9.699219 44.632812 9.933594 44.816406 9.984375 44.859375 C 10.035156 44.902344 10.148438 44.988281 10.234375 45.046875 C 10.320312 45.109375 10.558594 45.277344 10.765625 45.421875 C 12.601562 46.714844 14.703125 47.785156 16.855469 48.527344 C 17.257812 48.667969 18.097656 48.941406 18.171875 48.953125 C 18.1875 48.957031 18.265625 48.980469 18.34375 49 C 18.421875 49.023438 18.5 49.042969 18.515625 49.046875 C 18.53125 49.050781 18.722656 49.097656 18.9375 49.152344 C 19.421875 49.269531 20.410156 49.480469 20.703125 49.53125 C 20.824219 49.550781 20.953125 49.574219 20.992188 49.582031 L 21.0625 49.601562 L 21.0625 32.25 L 14.765625 32.234375 L 14.75 25 L 21.078125 24.984375 L 14.765625 24.953125 L 21.0625 24.9375 L 21.066406 21.851562 C 21.066406 20.152344 21.078125 18.800781 21.09375 18.84375 C 21.109375 18.886719 21.113281 18.773438 21.105469 18.578125 C 21.097656 18.339844 21.101562 18.253906 21.125 18.296875 C 21.144531 18.339844 21.148438 18.300781 21.136719 18.15625 C 21.125 18.027344 21.128906 17.96875 21.148438 17.996094 C 21.167969 18.023438 21.171875 17.980469 21.164062 17.875 C 21.152344 17.769531 21.160156 17.714844 21.179688 17.730469 C 21.199219 17.742188 21.203125 17.6875 21.195312 17.589844 C 21.183594 17.476562 21.1875 17.433594 21.210938 17.449219 C 21.234375 17.464844 21.242188 17.433594 21.226562 17.355469 C 21.214844 17.28125 21.21875 17.246094 21.242188 17.261719 C 21.261719 17.273438 21.265625 17.25 21.257812 17.199219 C 21.246094 17.152344 21.253906 17.125 21.269531 17.132812 C 21.289062 17.144531 21.292969 17.105469 21.285156 17.039062 C 21.277344 16.964844 21.285156 16.9375 21.308594 16.949219 C 21.332031 16.964844 21.335938 16.941406 21.324219 16.875 C 21.3125 16.8125 21.316406 16.78125 21.339844 16.78125 C 21.363281 16.78125 21.371094 16.769531 21.363281 16.753906 C 21.335938 16.710938 21.414062 16.378906 21.449219 16.398438 C 21.464844 16.40625 21.46875 16.402344 21.457031 16.382812 C 21.429688 16.332031 21.503906 16.03125 21.542969 16.054688 C 21.558594 16.0625 21.5625 16.058594 21.550781 16.039062 C 21.527344 15.996094 21.597656 15.71875 21.628906 15.734375 C 21.640625 15.742188 21.644531 15.722656 21.632812 15.6875 C 21.625 15.652344 21.632812 15.625 21.65625 15.625 C 21.675781 15.625 21.683594 15.609375 21.671875 15.59375 C 21.644531 15.550781 21.683594 15.433594 21.71875 15.453125 C 21.730469 15.460938 21.734375 15.4375 21.726562 15.402344 C 21.714844 15.359375 21.722656 15.339844 21.742188 15.355469 C 21.761719 15.367188 21.769531 15.351562 21.757812 15.308594 C 21.746094 15.257812 21.75 15.246094 21.78125 15.265625 C 21.804688 15.28125 21.816406 15.277344 21.804688 15.257812 C 21.777344 15.222656 21.847656 15.03125 21.882812 15.03125 C 21.898438 15.03125 21.902344 15.019531 21.890625 15.003906 C 21.871094 14.964844 22.078125 14.527344 22.105469 14.554688 C 22.117188 14.566406 22.117188 14.550781 22.105469 14.515625 C 22.089844 14.476562 22.09375 14.464844 22.121094 14.480469 C 22.144531 14.496094 22.148438 14.484375 22.136719 14.449219 C 22.121094 14.414062 22.125 14.402344 22.152344 14.417969 C 22.175781 14.433594 22.179688 14.421875 22.167969 14.386719 C 22.152344 14.347656 22.15625 14.339844 22.1875 14.359375 C 22.214844 14.375 22.222656 14.371094 22.207031 14.351562 C 22.179688 14.308594 22.21875 14.214844 22.253906 14.238281 C 22.269531 14.246094 22.277344 14.242188 22.273438 14.226562 C 22.257812 14.175781 22.414062 13.878906 22.445312 13.898438 C 22.464844 13.90625 22.46875 13.902344 22.460938 13.886719 C 22.4375 13.847656 22.640625 13.527344 22.671875 13.554688 C 22.6875 13.566406 22.6875 13.5625 22.679688 13.542969 C 22.65625 13.503906 22.761719 13.335938 22.792969 13.367188 C 22.808594 13.378906 22.8125 13.375 22.808594 13.359375 C 22.796875 13.304688 22.847656 13.21875 22.882812 13.238281 C 22.902344 13.25 22.90625 13.246094 22.898438 13.230469 C 22.875 13.191406 23.078125 12.933594 23.109375 12.960938 C 23.121094 12.972656 23.125 12.96875 23.121094 12.953125 C 23.105469 12.898438 23.1875 12.777344 23.226562 12.800781 C 23.242188 12.8125 23.25 12.808594 23.242188 12.792969 C 23.214844 12.75 23.5625 12.371094 23.601562 12.394531 C 23.621094 12.40625 23.625 12.402344 23.613281 12.382812 C 23.59375 12.351562 23.707031 12.226562 23.746094 12.242188 C 23.757812 12.246094 23.765625 12.230469 23.765625 12.210938 C 23.769531 12.191406 23.785156 12.175781 23.808594 12.179688 C 23.832031 12.183594 23.839844 12.175781 23.832031 12.160156 C 23.8125 12.132812 24.082031 11.890625 24.128906 11.890625 C 24.140625 11.890625 24.164062 11.878906 24.175781 11.863281 C 24.191406 11.84375 24.183594 11.84375 24.15625 11.859375 C 24.128906 11.871094 24.152344 11.847656 24.203125 11.804688 C 24.253906 11.761719 24.3125 11.734375 24.328125 11.742188 C 24.34375 11.753906 24.347656 11.75 24.335938 11.734375 C 24.308594 11.703125 24.496094 11.558594 24.535156 11.578125 C 24.546875 11.589844 24.570312 11.578125 24.582031 11.558594 C 24.597656 11.535156 24.589844 11.527344 24.558594 11.542969 C 24.535156 11.558594 24.542969 11.546875 24.574219 11.519531 C 24.609375 11.492188 24.648438 11.480469 24.667969 11.492188 C 24.6875 11.5 24.691406 11.5 24.679688 11.484375 C 24.648438 11.449219 24.84375 11.308594 24.886719 11.335938 C 24.90625 11.34375 24.910156 11.34375 24.898438 11.328125 C 24.867188 11.292969 25.03125 11.183594 25.074219 11.210938 C 25.089844 11.222656 25.09375 11.210938 25.078125 11.1875 C 25.058594 11.15625 25.066406 11.152344 25.105469 11.167969 C 25.136719 11.175781 25.152344 11.175781 25.140625 11.15625 C 25.125 11.128906 25.242188 11.074219 25.292969 11.089844 C 25.304688 11.09375 25.308594 11.078125 25.292969 11.058594 C 25.277344 11.03125 25.289062 11.027344 25.324219 11.042969 C 25.359375 11.054688 25.371094 11.050781 25.355469 11.027344 C 25.339844 11 25.351562 10.996094 25.386719 11.011719 C 25.417969 11.023438 25.433594 11.019531 25.421875 11 C 25.40625 10.972656 25.445312 10.957031 25.507812 10.964844 C 25.519531 10.96875 25.53125 10.957031 25.53125 10.945312 C 25.53125 10.902344 25.71875 10.808594 25.753906 10.832031 C 25.777344 10.847656 25.78125 10.839844 25.765625 10.8125 C 25.746094 10.78125 25.753906 10.777344 25.792969 10.792969 C 25.828125 10.804688 25.839844 10.800781 25.824219 10.777344 C 25.808594 10.75 25.820312 10.746094 25.855469 10.761719 C 25.890625 10.773438 25.902344 10.769531 25.886719 10.746094 C 25.871094 10.71875 25.882812 10.714844 25.921875 10.730469 C 25.957031 10.742188 25.972656 10.742188 25.960938 10.730469 C 25.929688 10.699219 26.121094 10.621094 26.164062 10.644531 C 26.183594 10.660156 26.1875 10.652344 26.171875 10.625 C 26.152344 10.59375 26.160156 10.589844 26.203125 10.605469 C 26.238281 10.617188 26.253906 10.617188 26.242188 10.605469 C 26.210938 10.574219 26.503906 10.464844 26.5625 10.484375 C 26.585938 10.496094 26.597656 10.492188 26.585938 10.480469 C 26.554688 10.453125 26.746094 10.367188 26.785156 10.394531 C 26.800781 10.402344 26.8125 10.398438 26.8125 10.382812 C 26.8125 10.347656 27.03125 10.277344 27.066406 10.300781 C 27.082031 10.308594 27.09375 10.300781 27.09375 10.28125 C 27.09375 10.257812 27.121094 10.25 27.160156 10.261719 C 27.195312 10.269531 27.214844 10.269531 27.207031 10.257812 C 27.175781 10.226562 27.445312 10.15625 27.511719 10.175781 C 27.554688 10.1875 27.5625 10.183594 27.546875 10.15625 C 27.527344 10.125 27.542969 10.121094 27.605469 10.132812 C 27.652344 10.140625 27.679688 10.136719 27.667969 10.117188 C 27.65625 10.097656 27.679688 10.089844 27.730469 10.101562 C 27.777344 10.109375 27.804688 10.105469 27.792969 10.085938 C 27.78125 10.066406 27.804688 10.058594 27.855469 10.070312 C 27.90625 10.078125 27.929688 10.074219 27.917969 10.054688 C 27.902344 10.03125 27.941406 10.027344 28.019531 10.042969 C 28.105469 10.054688 28.128906 10.050781 28.09375 10.027344 C 28.058594 10.003906 28.082031 10 28.175781 10.007812 C 28.25 10.011719 28.300781 10.003906 28.289062 9.988281 C 28.28125 9.972656 28.316406 9.964844 28.367188 9.972656 C 28.425781 9.984375 28.457031 9.976562 28.445312 9.957031 C 28.4375 9.941406 28.46875 9.933594 28.527344 9.945312 C 28.582031 9.953125 28.625 9.945312 28.625 9.929688 C 28.625 9.914062 28.695312 9.90625 28.777344 9.910156 C 28.863281 9.917969 28.925781 9.910156 28.914062 9.894531 C 28.90625 9.878906 28.953125 9.875 29.023438 9.878906 C 29.09375 9.886719 29.144531 9.878906 29.132812 9.863281 C 29.125 9.847656 29.183594 9.839844 29.28125 9.851562 C 29.386719 9.859375 29.429688 9.855469 29.402344 9.835938 C 29.375 9.816406 29.484375 9.8125 29.703125 9.824219 C 29.898438 9.832031 30.007812 9.828125 29.953125 9.8125 C 29.898438 9.800781 30.1875 9.789062 30.609375 9.789062 C 31.03125 9.789062 31.304688 9.800781 31.234375 9.8125 C 31.164062 9.824219 31.335938 9.832031 31.609375 9.824219 C 31.964844 9.816406 32.089844 9.820312 32.046875 9.84375 C 31.996094 9.871094 32 9.871094 32.078125 9.855469 C 32.21875 9.828125 33.3125 9.910156 33.289062 9.949219 C 33.277344 9.96875 33.292969 9.96875 33.328125 9.957031 C 33.402344 9.929688 34.230469 10.003906 34.179688 10.035156 C 34.160156 10.046875 34.234375 10.050781 34.347656 10.042969 C 34.488281 10.03125 34.535156 10.035156 34.5 10.058594 C 34.46875 10.082031 34.507812 10.085938 34.640625 10.074219 C 34.773438 10.066406 34.808594 10.070312 34.765625 10.089844 C 34.71875 10.113281 34.746094 10.117188 34.859375 10.105469 C 34.957031 10.09375 35 10.097656 34.976562 10.117188 C 34.949219 10.136719 35 10.140625 35.117188 10.132812 C 35.25 10.125 35.285156 10.128906 35.25 10.152344 C 35.214844 10.179688 35.246094 10.179688 35.355469 10.167969 C 35.449219 10.152344 35.503906 10.15625 35.492188 10.175781 C 35.480469 10.195312 35.519531 10.199219 35.585938 10.191406 C 35.648438 10.183594 35.6875 10.191406 35.679688 10.207031 C 35.667969 10.222656 35.710938 10.230469 35.773438 10.222656 C 35.84375 10.214844 35.875 10.222656 35.863281 10.242188 C 35.851562 10.265625 35.886719 10.269531 35.96875 10.257812 C 36.066406 10.246094 36.09375 10.25 36.085938 10.285156 C 36.082031 10.308594 36.097656 10.324219 36.117188 10.320312 C 36.179688 10.308594 36.171875 16.394531 36.109375 16.457031 C 36.070312 16.496094 35.816406 16.5 34.300781 16.492188 C 33.25 16.488281 32.542969 16.496094 32.554688 16.511719 C 32.566406 16.53125 32.476562 16.53125 32.339844 16.523438 C 32.214844 16.511719 32.128906 16.515625 32.152344 16.527344 C 32.175781 16.542969 32.125 16.5625 32.015625 16.574219 C 31.917969 16.585938 31.824219 16.585938 31.804688 16.574219 C 31.785156 16.558594 31.78125 16.566406 31.796875 16.59375 C 31.816406 16.625 31.800781 16.628906 31.722656 16.613281 C 31.660156 16.601562 31.628906 16.605469 31.640625 16.625 C 31.65625 16.652344 31.585938 16.667969 31.429688 16.667969 C 31.402344 16.667969 31.386719 16.679688 31.394531 16.695312 C 31.40625 16.714844 31.386719 16.714844 31.34375 16.703125 C 31.292969 16.6875 31.28125 16.691406 31.296875 16.71875 C 31.316406 16.75 31.304688 16.753906 31.253906 16.742188 C 31.21875 16.734375 31.195312 16.734375 31.203125 16.75 C 31.222656 16.78125 31.070312 16.820312 31.023438 16.792969 C 31.003906 16.777344 31 16.785156 31.015625 16.8125 C 31.035156 16.84375 31.027344 16.847656 30.988281 16.835938 C 30.960938 16.824219 30.9375 16.828125 30.9375 16.847656 C 30.9375 16.867188 30.914062 16.871094 30.882812 16.859375 C 30.855469 16.851562 30.839844 16.851562 30.851562 16.863281 C 30.875 16.886719 30.515625 17.097656 30.445312 17.101562 C 30.425781 17.101562 30.414062 17.113281 30.421875 17.125 C 30.4375 17.152344 30.242188 17.265625 30.203125 17.253906 C 30.1875 17.25 30.183594 17.253906 30.195312 17.269531 C 30.21875 17.292969 30.09375 17.394531 30.054688 17.382812 C 30.042969 17.378906 30.035156 17.394531 30.039062 17.414062 C 30.042969 17.433594 30.027344 17.449219 30.003906 17.445312 C 29.984375 17.441406 29.972656 17.449219 29.980469 17.464844 C 29.992188 17.480469 29.976562 17.511719 29.953125 17.53125 C 29.925781 17.554688 29.90625 17.558594 29.90625 17.542969 C 29.90625 17.515625 29.828125 17.585938 29.828125 17.617188 C 29.824219 17.667969 29.710938 17.808594 29.683594 17.792969 C 29.667969 17.785156 29.660156 17.789062 29.664062 17.800781 C 29.675781 17.84375 29.554688 18.03125 29.523438 18.011719 C 29.511719 18.003906 29.5 18.007812 29.503906 18.019531 C 29.515625 18.085938 29.496094 18.128906 29.46875 18.109375 C 29.449219 18.097656 29.445312 18.113281 29.457031 18.144531 C 29.472656 18.183594 29.46875 18.191406 29.4375 18.171875 C 29.410156 18.15625 29.402344 18.160156 29.417969 18.179688 C 29.445312 18.222656 29.40625 18.316406 29.371094 18.296875 C 29.355469 18.285156 29.355469 18.300781 29.363281 18.332031 C 29.378906 18.367188 29.375 18.378906 29.347656 18.363281 C 29.324219 18.347656 29.320312 18.359375 29.332031 18.394531 C 29.347656 18.429688 29.34375 18.441406 29.316406 18.425781 C 29.292969 18.410156 29.289062 18.421875 29.300781 18.457031 C 29.316406 18.492188 29.3125 18.503906 29.285156 18.488281 C 29.261719 18.472656 29.257812 18.480469 29.269531 18.515625 C 29.28125 18.539062 29.273438 18.5625 29.25 18.5625 C 29.230469 18.5625 29.222656 18.574219 29.230469 18.589844 C 29.253906 18.625 29.175781 18.820312 29.152344 18.796875 C 29.140625 18.785156 29.140625 18.816406 29.148438 18.863281 C 29.160156 18.917969 29.152344 18.941406 29.132812 18.925781 C 29.113281 18.914062 29.105469 18.929688 29.117188 18.972656 C 29.128906 19.011719 29.121094 19.035156 29.105469 19.023438 C 29.085938 19.011719 29.074219 19.027344 29.074219 19.054688 C 29.074219 19.207031 29.058594 19.28125 29.03125 19.265625 C 29.015625 19.257812 29.011719 19.296875 29.023438 19.363281 C 29.03125 19.429688 29.027344 19.472656 29.011719 19.460938 C 28.96875 19.433594 28.96875 19.507812 28.949219 22.304688 L 28.933594 24.9375 L 32.367188 24.945312 L 35.796875 24.953125 L 28.921875 24.984375 L 32.382812 24.992188 C 35.820312 25 35.84375 25 35.84375 25.0625 C 35.84375 25.097656 35.832031 25.125 35.820312 25.125 C 35.804688 25.125 35.800781 25.179688 35.804688 25.242188 C 35.8125 25.335938 35.808594 25.351562 35.78125 25.3125 C 35.75 25.273438 35.746094 25.277344 35.765625 25.328125 C 35.789062 25.402344 35.75 25.785156 35.722656 25.769531 C 35.710938 25.761719 35.707031 25.8125 35.710938 25.886719 C 35.71875 25.984375 35.714844 26.003906 35.6875 25.96875 C 35.664062 25.933594 35.660156 25.957031 35.675781 26.058594 C 35.6875 26.144531 35.683594 26.191406 35.667969 26.179688 C 35.648438 26.167969 35.644531 26.207031 35.652344 26.273438 C 35.660156 26.332031 35.652344 26.375 35.636719 26.367188 C 35.621094 26.355469 35.613281 26.414062 35.621094 26.492188 C 35.628906 26.585938 35.621094 26.625 35.597656 26.613281 C 35.578125 26.597656 35.574219 26.628906 35.585938 26.707031 C 35.597656 26.777344 35.59375 26.816406 35.574219 26.804688 C 35.554688 26.792969 35.546875 26.824219 35.558594 26.882812 C 35.566406 26.933594 35.558594 26.96875 35.542969 26.960938 C 35.527344 26.949219 35.519531 27.007812 35.523438 27.089844 C 35.53125 27.199219 35.527344 27.222656 35.5 27.1875 C 35.476562 27.152344 35.472656 27.175781 35.488281 27.277344 C 35.503906 27.386719 35.5 27.410156 35.46875 27.390625 C 35.441406 27.375 35.433594 27.378906 35.449219 27.402344 C 35.484375 27.460938 35.4375 27.753906 35.398438 27.730469 C 35.378906 27.71875 35.375 27.722656 35.390625 27.746094 C 35.425781 27.804688 35.375 28.191406 35.335938 28.167969 C 35.316406 28.15625 35.3125 28.160156 35.324219 28.179688 C 35.335938 28.199219 35.335938 28.300781 35.324219 28.40625 C 35.308594 28.527344 35.292969 28.582031 35.277344 28.558594 C 35.261719 28.535156 35.257812 28.582031 35.269531 28.667969 C 35.28125 28.761719 35.28125 28.816406 35.261719 28.804688 C 35.246094 28.792969 35.238281 28.84375 35.242188 28.917969 C 35.25 29.011719 35.246094 29.035156 35.222656 29 C 35.199219 28.96875 35.195312 28.996094 35.207031 29.09375 C 35.21875 29.191406 35.214844 29.21875 35.195312 29.191406 C 35.171875 29.160156 35.167969 29.195312 35.179688 29.296875 C 35.191406 29.40625 35.1875 29.441406 35.160156 29.425781 C 35.136719 29.410156 35.128906 29.445312 35.144531 29.554688 C 35.15625 29.664062 35.152344 29.691406 35.128906 29.65625 C 35.105469 29.621094 35.101562 29.640625 35.113281 29.730469 C 35.128906 29.804688 35.125 29.847656 35.105469 29.835938 C 35.085938 29.824219 35.082031 29.863281 35.089844 29.929688 C 35.097656 29.996094 35.089844 30.03125 35.070312 30.019531 C 35.050781 30.007812 35.046875 30.054688 35.054688 30.144531 C 35.066406 30.246094 35.0625 30.285156 35.039062 30.269531 C 35.015625 30.253906 35.007812 30.285156 35.023438 30.363281 C 35.035156 30.433594 35.03125 30.472656 35.011719 30.460938 C 34.992188 30.449219 34.984375 30.480469 34.996094 30.539062 C 35.003906 30.589844 34.996094 30.625 34.980469 30.617188 C 34.964844 30.605469 34.957031 30.664062 34.964844 30.742188 C 34.972656 30.835938 34.964844 30.875 34.941406 30.863281 C 34.921875 30.847656 34.917969 30.878906 34.929688 30.957031 C 34.941406 31.046875 34.9375 31.066406 34.90625 31.046875 C 34.878906 31.03125 34.871094 31.035156 34.886719 31.058594 C 34.914062 31.101562 34.84375 31.65625 34.8125 31.65625 C 34.800781 31.65625 34.796875 31.699219 34.804688 31.753906 C 34.8125 31.808594 34.808594 31.84375 34.792969 31.835938 C 34.777344 31.828125 34.761719 31.894531 34.761719 31.988281 C 34.757812 32.082031 34.746094 32.179688 34.738281 32.203125 C 34.722656 32.242188 34.328125 32.25 31.828125 32.25 L 28.9375 32.25 L 28.9375 40.921875 C 28.9375 45.691406 28.941406 49.59375 28.949219 49.59375 C 28.957031 49.59375 29.035156 49.578125 29.128906 49.558594 C 29.222656 49.542969 29.347656 49.519531 29.40625 49.515625 C 29.511719 49.503906 30.042969 49.390625 30.671875 49.246094 C 30.828125 49.210938 30.980469 49.179688 31.015625 49.171875 C 31.050781 49.167969 31.097656 49.15625 31.125 49.144531 C 31.152344 49.136719 31.277344 49.101562 31.40625 49.066406 C 32.054688 48.898438 33.128906 48.554688 33.71875 48.328125 C 33.882812 48.265625 34.085938 48.1875 34.171875 48.15625 C 34.257812 48.125 34.410156 48.066406 34.507812 48.019531 C 34.605469 47.976562 34.6875 47.949219 34.6875 47.957031 C 34.6875 47.96875 34.707031 47.960938 34.730469 47.941406 C 34.75 47.921875 34.992188 47.808594 35.269531 47.6875 C 36.128906 47.304688 37.367188 46.640625 38.136719 46.15625 C 38.269531 46.070312 38.386719 46 38.390625 46 C 38.402344 46 38.867188 45.6875 39.21875 45.445312 C 41.34375 43.96875 43.4375 41.941406 44.957031 39.886719 C 45.0625 39.746094 45.164062 39.613281 45.183594 39.589844 C 45.324219 39.425781 46.21875 38.0625 46.429688 37.6875 C 46.464844 37.628906 46.59375 37.402344 46.714844 37.1875 C 46.933594 36.808594 47.511719 35.671875 47.648438 35.359375 C 47.683594 35.273438 47.78125 35.054688 47.863281 34.875 C 48.304688 33.875 48.851562 32.285156 49.140625 31.15625 C 49.144531 31.128906 49.152344 31.109375 49.15625 31.109375 C 49.160156 31.109375 49.164062 31.074219 49.171875 31.03125 C 49.175781 30.988281 49.210938 30.828125 49.246094 30.671875 C 49.371094 30.132812 49.46875 29.671875 49.484375 29.546875 C 49.496094 29.476562 49.515625 29.359375 49.53125 29.28125 C 49.558594 29.15625 49.65625 28.476562 49.707031 28.09375 C 49.714844 28.015625 49.726562 27.917969 49.734375 27.875 C 49.910156 26.722656 49.941406 24.253906 49.796875 22.765625 C 49.742188 22.183594 49.675781 21.632812 49.605469 21.203125 C 49.5625 20.929688 49.523438 20.660156 49.515625 20.605469 C 49.480469 20.277344 49.089844 18.644531 48.886719 17.96875 C 48.730469 17.445312 48.589844 16.992188 48.558594 16.921875 C 48.546875 16.886719 48.464844 16.664062 48.375 16.421875 C 47.824219 14.921875 47.148438 13.511719 46.367188 12.21875 C 46.246094 12.019531 46.117188 11.808594 46.082031 11.75 C 44.785156 9.59375 42.390625 6.953125 40.242188 5.320312 C 40.128906 5.234375 40.015625 5.144531 39.992188 5.125 C 39.929688 5.070312 39.257812 4.589844 38.984375 4.40625 C 38.847656 4.3125 38.714844 4.21875 38.695312 4.191406 C 38.675781 4.164062 38.65625 4.15625 38.65625 4.167969 C 38.65625 4.179688 38.574219 4.136719 38.476562 4.070312 C 37.648438 3.507812 36.042969 2.648438 34.9375 2.171875 C 34.671875 2.058594 34.417969 1.949219 34.375 1.929688 C 34.332031 1.910156 34.28125 1.890625 34.265625 1.886719 C 34.226562 1.875 33.34375 1.539062 33.28125 1.511719 C 33.253906 1.5 33.21875 1.488281 33.203125 1.484375 C 33.183594 1.480469 32.992188 1.417969 32.777344 1.347656 C 30.898438 0.738281 28.96875 0.351562 27.0625 0.203125 C 26.726562 0.175781 26.339844 0.144531 26.203125 0.132812 C 26.066406 0.121094 25.375 0.117188 24.671875 0.128906 "/>
<path style=" stroke:none;fill-rule:evenodd;fill:rgb(44.313725%,61.568627%,95.686275%);fill-opacity:1;" d="M 30.085938 9.835938 C 30.125 9.84375 30.1875 9.84375 30.226562 9.835938 C 30.265625 9.828125 30.234375 9.820312 30.15625 9.820312 C 30.078125 9.820312 30.046875 9.828125 30.085938 9.835938 M 30.882812 9.835938 C 30.929688 9.84375 31.007812 9.84375 31.054688 9.835938 C 31.101562 9.828125 31.0625 9.820312 30.96875 9.820312 C 30.875 9.820312 30.835938 9.828125 30.882812 9.835938 M 36.109375 13.390625 C 36.109375 15.074219 36.113281 15.757812 36.117188 14.910156 C 36.121094 14.0625 36.121094 12.6875 36.117188 11.847656 C 36.113281 11.011719 36.109375 11.707031 36.109375 13.390625 M 21.101562 19.015625 C 21.101562 19.085938 21.109375 19.109375 21.117188 19.070312 C 21.125 19.03125 21.121094 18.976562 21.117188 18.945312 C 21.105469 18.914062 21.101562 18.945312 21.101562 19.015625 "/>
<path style=" stroke:none;fill-rule:evenodd;fill:rgb(1.568627%,43.921569%,95.686275%);fill-opacity:1;" d="M 24.523438 0.117188 C 24.785156 0.121094 25.214844 0.121094 25.476562 0.117188 C 25.738281 0.113281 25.523438 0.109375 25 0.109375 C 24.476562 0.109375 24.261719 0.113281 24.523438 0.117188 M 23.398438 0.148438 C 23.472656 0.15625 23.589844 0.15625 23.664062 0.148438 C 23.738281 0.140625 23.675781 0.136719 23.53125 0.136719 C 23.386719 0.136719 23.324219 0.140625 23.398438 0.148438 M 26.335938 0.148438 C 26.410156 0.15625 26.527344 0.15625 26.601562 0.148438 C 26.675781 0.140625 26.613281 0.136719 26.46875 0.136719 C 26.324219 0.136719 26.261719 0.140625 26.335938 0.148438 M 23.007812 0.179688 C 23.054688 0.1875 23.125 0.1875 23.164062 0.179688 C 23.203125 0.171875 23.164062 0.164062 23.078125 0.164062 C 22.992188 0.164062 22.960938 0.171875 23.007812 0.179688 M 26.820312 0.179688 C 26.867188 0.1875 26.945312 0.1875 26.992188 0.179688 C 27.039062 0.171875 27 0.164062 26.90625 0.164062 C 26.8125 0.164062 26.773438 0.171875 26.820312 0.179688 M 27.179688 0.210938 C 27.21875 0.21875 27.273438 0.214844 27.304688 0.210938 C 27.335938 0.199219 27.304688 0.195312 27.234375 0.195312 C 27.164062 0.195312 27.140625 0.203125 27.179688 0.210938 M 22.109375 0.25 C 22.035156 0.265625 22.089844 0.269531 22.25 0.257812 C 22.394531 0.25 22.523438 0.238281 22.527344 0.230469 C 22.550781 0.210938 22.242188 0.226562 22.109375 0.25 M 27.503906 0.230469 C 27.507812 0.238281 27.628906 0.25 27.765625 0.257812 C 27.953125 0.273438 27.980469 0.269531 27.875 0.25 C 27.730469 0.222656 27.480469 0.210938 27.503906 0.230469 M 19.46875 0.703125 C 19.390625 0.726562 19.347656 0.746094 19.375 0.746094 C 19.402344 0.746094 19.492188 0.730469 19.578125 0.707031 C 19.664062 0.679688 19.707031 0.660156 19.671875 0.664062 C 19.636719 0.664062 19.546875 0.679688 19.46875 0.703125 M 30.34375 0.683594 C 30.460938 0.722656 30.683594 0.753906 30.609375 0.722656 C 30.574219 0.707031 30.484375 0.6875 30.40625 0.675781 C 30.3125 0.664062 30.292969 0.667969 30.34375 0.683594 M 19.015625 0.8125 C 18.976562 0.828125 18.96875 0.839844 19 0.839844 C 19.027344 0.839844 19.074219 0.828125 19.109375 0.8125 C 19.148438 0.796875 19.15625 0.785156 19.125 0.785156 C 19.097656 0.785156 19.050781 0.796875 19.015625 0.8125 M 32.21875 1.171875 C 32.292969 1.195312 32.363281 1.210938 32.367188 1.207031 C 32.382812 1.1875 32.1875 1.125 32.128906 1.128906 C 32.101562 1.128906 32.140625 1.148438 32.21875 1.171875 M 17.453125 1.25 C 17.414062 1.265625 17.40625 1.277344 17.4375 1.277344 C 17.464844 1.277344 17.511719 1.265625 17.546875 1.25 C 17.585938 1.234375 17.59375 1.222656 17.5625 1.222656 C 17.535156 1.222656 17.488281 1.234375 17.453125 1.25 M 16.078125 1.734375 C 16 1.773438 15.996094 1.777344 16.0625 1.761719 C 16.152344 1.738281 16.25 1.6875 16.203125 1.691406 C 16.1875 1.691406 16.128906 1.710938 16.078125 1.734375 M 14.820312 2.25 C 14.714844 2.292969 14.734375 2.3125 14.84375 2.277344 C 14.894531 2.257812 14.9375 2.238281 14.9375 2.230469 C 14.9375 2.210938 14.898438 2.21875 14.820312 2.25 M 36.15625 2.734375 C 36.15625 2.742188 36.226562 2.785156 36.3125 2.828125 C 36.398438 2.871094 36.46875 2.898438 36.46875 2.890625 C 36.46875 2.882812 36.398438 2.839844 36.3125 2.796875 C 36.226562 2.753906 36.15625 2.726562 36.15625 2.734375 M 12.804688 3.269531 C 12.6875 3.332031 12.695312 3.359375 12.8125 3.296875 C 12.863281 3.269531 12.90625 3.242188 12.90625 3.234375 C 12.90625 3.214844 12.902344 3.214844 12.804688 3.269531 M 38 3.761719 C 38 3.769531 38.050781 3.804688 38.109375 3.839844 C 38.171875 3.875 38.214844 3.890625 38.203125 3.875 C 38.183594 3.839844 38 3.738281 38 3.761719 M 39.796875 4.984375 C 39.847656 5.027344 39.902344 5.0625 39.921875 5.0625 C 39.9375 5.0625 39.902344 5.027344 39.84375 4.984375 C 39.707031 4.882812 39.675781 4.882812 39.796875 4.984375 M 9.640625 5.394531 L 9.515625 5.507812 L 9.648438 5.40625 C 9.761719 5.320312 9.804688 5.28125 9.773438 5.28125 C 9.769531 5.28125 9.710938 5.332031 9.640625 5.394531 M 40.695312 5.671875 C 40.742188 5.722656 40.785156 5.757812 40.792969 5.75 C 40.796875 5.742188 40.761719 5.699219 40.707031 5.660156 L 40.609375 5.582031 L 40.695312 5.671875 M 41.15625 6.039062 C 41.15625 6.046875 41.203125 6.09375 41.257812 6.144531 L 41.359375 6.234375 L 41.269531 6.132812 C 41.183594 6.039062 41.15625 6.015625 41.15625 6.039062 M 8.636719 6.226562 L 8.546875 6.328125 L 8.648438 6.238281 C 8.703125 6.1875 8.75 6.140625 8.75 6.132812 C 8.75 6.109375 8.722656 6.132812 8.636719 6.226562 M 41.46875 6.320312 C 41.46875 6.328125 41.515625 6.375 41.570312 6.425781 L 41.671875 6.515625 L 41.582031 6.414062 C 41.496094 6.320312 41.46875 6.296875 41.46875 6.320312 M 8.355469 6.476562 L 8.265625 6.578125 L 8.367188 6.488281 C 8.460938 6.402344 8.484375 6.375 8.460938 6.375 C 8.453125 6.375 8.40625 6.421875 8.355469 6.476562 M 41.859375 6.6875 C 41.925781 6.757812 41.988281 6.8125 41.996094 6.8125 C 42.003906 6.8125 41.957031 6.757812 41.890625 6.6875 C 41.824219 6.617188 41.761719 6.5625 41.753906 6.5625 C 41.746094 6.5625 41.792969 6.617188 41.859375 6.6875 M 8.105469 6.695312 L 8.015625 6.796875 L 8.117188 6.707031 C 8.210938 6.621094 8.234375 6.59375 8.210938 6.59375 C 8.203125 6.59375 8.15625 6.640625 8.105469 6.695312 M 42.375 7.164062 C 42.503906 7.300781 42.53125 7.328125 42.53125 7.304688 C 42.53125 7.296875 42.464844 7.230469 42.382812 7.15625 L 42.234375 7.015625 L 42.375 7.164062 M 42.8125 7.601562 C 42.941406 7.738281 42.96875 7.765625 42.96875 7.742188 C 42.96875 7.734375 42.902344 7.667969 42.820312 7.59375 L 42.671875 7.453125 L 42.8125 7.601562 M 6.667969 8.132812 L 6.578125 8.234375 L 6.679688 8.144531 C 6.734375 8.09375 6.78125 8.046875 6.78125 8.039062 C 6.78125 8.015625 6.753906 8.039062 6.667969 8.132812 M 43.25 8.070312 C 43.25 8.078125 43.296875 8.125 43.351562 8.175781 L 43.453125 8.265625 L 43.363281 8.164062 C 43.277344 8.070312 43.25 8.046875 43.25 8.070312 M 6.449219 8.382812 L 6.359375 8.484375 L 6.460938 8.394531 C 6.515625 8.34375 6.5625 8.296875 6.5625 8.289062 C 6.5625 8.265625 6.535156 8.289062 6.449219 8.382812 M 6.199219 8.664062 L 6.109375 8.765625 L 6.210938 8.675781 C 6.265625 8.625 6.3125 8.578125 6.3125 8.570312 C 6.3125 8.546875 6.285156 8.570312 6.199219 8.664062 M 43.84375 8.734375 C 43.902344 8.792969 43.957031 8.84375 43.964844 8.84375 C 43.972656 8.84375 43.933594 8.792969 43.875 8.734375 C 43.816406 8.675781 43.761719 8.625 43.753906 8.625 C 43.746094 8.625 43.785156 8.675781 43.84375 8.734375 M 44.242188 9.203125 C 44.261719 9.238281 44.308594 9.292969 44.347656 9.328125 C 44.417969 9.386719 44.417969 9.386719 44.34375 9.296875 C 44.21875 9.148438 44.210938 9.136719 44.242188 9.203125 M 5.375 9.65625 C 5.320312 9.726562 5.28125 9.78125 5.292969 9.78125 C 5.300781 9.78125 5.351562 9.726562 5.40625 9.65625 C 5.460938 9.585938 5.5 9.53125 5.488281 9.53125 C 5.480469 9.53125 5.429688 9.585938 5.375 9.65625 M 30.242188 9.804688 C 30.457031 9.808594 30.792969 9.808594 30.992188 9.804688 C 31.195312 9.800781 31.023438 9.792969 30.609375 9.792969 C 30.195312 9.792969 30.03125 9.800781 30.242188 9.804688 M 29 9.875 C 28.785156 9.90625 28.652344 9.933594 28.703125 9.933594 C 28.757812 9.9375 28.953125 9.917969 29.140625 9.890625 C 29.332031 9.867188 29.554688 9.839844 29.640625 9.835938 C 29.769531 9.824219 29.761719 9.824219 29.59375 9.820312 C 29.480469 9.820312 29.214844 9.84375 29 9.875 M 31.703125 9.835938 C 31.824219 9.839844 32.15625 9.867188 32.445312 9.890625 C 32.734375 9.917969 33.050781 9.9375 33.148438 9.933594 C 33.246094 9.933594 33.027344 9.90625 32.65625 9.875 C 32.285156 9.84375 31.871094 9.816406 31.734375 9.820312 L 31.484375 9.824219 L 31.703125 9.835938 M 44.773438 9.882812 C 44.988281 10.167969 45.121094 10.328125 45.078125 10.25 C 45.039062 10.179688 44.773438 9.84375 44.757812 9.84375 C 44.75 9.84375 44.753906 9.863281 44.773438 9.882812 M 28.296875 9.972656 C 27.949219 10.039062 27.53125 10.136719 27.542969 10.148438 C 27.550781 10.15625 27.6875 10.132812 27.847656 10.097656 C 28.007812 10.0625 28.246094 10.015625 28.375 9.988281 C 28.503906 9.964844 28.574219 9.945312 28.53125 9.945312 C 28.488281 9.945312 28.382812 9.957031 28.296875 9.972656 M 33.609375 9.984375 C 33.765625 10.007812 33.96875 10.023438 34.0625 10.023438 C 34.179688 10.023438 34.121094 10.011719 33.875 9.984375 C 33.417969 9.929688 33.238281 9.933594 33.609375 9.984375 M 34.320312 10.054688 C 34.367188 10.0625 34.4375 10.0625 34.476562 10.054688 C 34.515625 10.046875 34.476562 10.039062 34.390625 10.039062 C 34.304688 10.039062 34.273438 10.046875 34.320312 10.054688 M 34.8125 10.109375 C 34.957031 10.132812 35.128906 10.152344 35.1875 10.152344 C 35.320312 10.148438 35.121094 10.117188 34.765625 10.082031 L 34.546875 10.0625 L 34.8125 10.109375 M 27.25 10.222656 C 27.140625 10.257812 27.117188 10.273438 27.1875 10.261719 C 27.3125 10.238281 27.539062 10.160156 27.46875 10.160156 C 27.441406 10.160156 27.34375 10.1875 27.25 10.222656 M 35.515625 10.203125 C 35.636719 10.226562 35.769531 10.246094 35.8125 10.246094 C 35.855469 10.242188 35.792969 10.222656 35.671875 10.203125 C 35.550781 10.179688 35.417969 10.160156 35.375 10.160156 C 35.332031 10.164062 35.394531 10.183594 35.515625 10.203125 M 35.945312 10.273438 C 35.976562 10.28125 36.023438 10.28125 36.054688 10.273438 C 36.085938 10.261719 36.058594 10.257812 36 10.257812 C 35.941406 10.257812 35.914062 10.261719 35.945312 10.273438 M 26.90625 10.328125 C 26.835938 10.355469 26.820312 10.371094 26.859375 10.371094 C 26.894531 10.371094 26.957031 10.351562 27 10.328125 C 27.097656 10.273438 27.050781 10.273438 26.90625 10.328125 M 36.140625 13.375 C 36.140625 15.066406 36.144531 15.761719 36.148438 14.914062 C 36.152344 14.066406 36.152344 12.683594 36.148438 11.835938 C 36.144531 10.988281 36.140625 11.683594 36.140625 13.375 M 26.429688 10.5 C 26.066406 10.640625 25.519531 10.902344 25.539062 10.925781 C 25.550781 10.933594 25.632812 10.898438 25.722656 10.847656 C 25.902344 10.75 26.121094 10.65625 26.523438 10.5 C 26.664062 10.445312 26.78125 10.394531 26.78125 10.386719 C 26.78125 10.367188 26.738281 10.378906 26.429688 10.5 M 25.234375 11.082031 C 24.207031 11.667969 23.234375 12.613281 22.550781 13.6875 C 22.328125 14.035156 21.859375 14.960938 21.886719 14.992188 C 21.898438 15 21.933594 14.941406 21.972656 14.855469 C 22.164062 14.410156 22.382812 13.996094 22.554688 13.742188 C 22.609375 13.65625 22.65625 13.585938 22.65625 13.578125 C 22.65625 13.570312 22.707031 13.488281 22.769531 13.398438 C 23.355469 12.5625 24.167969 11.78125 24.96875 11.277344 C 25.230469 11.113281 25.257812 11.097656 25.382812 11.03125 C 25.445312 10.996094 25.5 10.960938 25.5 10.953125 C 25.5 10.929688 25.5 10.929688 25.234375 11.082031 M 45.613281 11.046875 C 45.640625 11.089844 45.667969 11.125 45.675781 11.125 C 45.679688 11.125 45.671875 11.089844 45.652344 11.046875 C 45.632812 11.003906 45.601562 10.96875 45.589844 10.96875 C 45.574219 10.96875 45.585938 11.003906 45.613281 11.046875 M 3.265625 12.8125 C 3.238281 12.863281 3.222656 12.90625 3.234375 12.90625 C 3.242188 12.90625 3.269531 12.863281 3.296875 12.8125 C 3.324219 12.761719 3.339844 12.71875 3.328125 12.71875 C 3.320312 12.71875 3.292969 12.761719 3.265625 12.8125 M 47.660156 14.671875 C 47.660156 14.6875 47.6875 14.753906 47.71875 14.8125 C 47.75 14.871094 47.777344 14.90625 47.777344 14.890625 C 47.777344 14.875 47.75 14.808594 47.71875 14.75 C 47.6875 14.691406 47.660156 14.65625 47.660156 14.671875 M 2.25 14.832031 C 2.230469 14.878906 2.222656 14.921875 2.230469 14.929688 C 2.238281 14.933594 2.257812 14.898438 2.277344 14.84375 C 2.316406 14.730469 2.292969 14.71875 2.25 14.832031 M 21.757812 15.289062 C 21.703125 15.429688 21.65625 15.5625 21.65625 15.578125 C 21.660156 15.59375 21.707031 15.488281 21.765625 15.34375 C 21.824219 15.199219 21.871094 15.066406 21.867188 15.054688 C 21.863281 15.039062 21.8125 15.144531 21.757812 15.289062 M 21.53125 15.992188 C 21.402344 16.445312 21.339844 16.722656 21.355469 16.742188 C 21.363281 16.746094 21.382812 16.679688 21.40625 16.585938 C 21.425781 16.496094 21.460938 16.359375 21.484375 16.28125 C 21.617188 15.8125 21.660156 15.652344 21.648438 15.636719 C 21.640625 15.632812 21.589844 15.789062 21.53125 15.992188 M 48.125 15.753906 C 48.125 15.765625 48.144531 15.820312 48.171875 15.878906 C 48.195312 15.9375 48.214844 15.964844 48.214844 15.9375 C 48.214844 15.890625 48.128906 15.714844 48.125 15.753906 M 1.722656 16.097656 C 1.703125 16.152344 1.691406 16.203125 1.699219 16.210938 C 1.707031 16.214844 1.726562 16.175781 1.746094 16.121094 C 1.765625 16.066406 1.777344 16.015625 1.769531 16.007812 C 1.761719 16.003906 1.742188 16.042969 1.722656 16.097656 M 33.507812 16.492188 C 33.984375 16.496094 34.765625 16.496094 35.242188 16.492188 C 35.71875 16.488281 35.328125 16.484375 34.375 16.484375 C 33.421875 16.484375 33.03125 16.488281 33.507812 16.492188 M 32.320312 16.523438 C 32.367188 16.53125 32.445312 16.53125 32.492188 16.523438 C 32.539062 16.515625 32.5 16.507812 32.40625 16.507812 C 32.3125 16.507812 32.273438 16.515625 32.320312 16.523438 M 31.8125 16.578125 C 31.628906 16.632812 31.707031 16.632812 31.984375 16.578125 C 32.15625 16.546875 32.175781 16.539062 32.078125 16.539062 C 32.007812 16.539062 31.890625 16.554688 31.8125 16.578125 M 31.421875 16.671875 C 31.300781 16.726562 31.324219 16.726562 31.515625 16.671875 C 31.609375 16.644531 31.640625 16.628906 31.59375 16.628906 C 31.550781 16.628906 31.472656 16.648438 31.421875 16.671875 M 31.113281 16.765625 C 30.980469 16.8125 30.910156 16.863281 31.03125 16.828125 C 31.203125 16.773438 31.324219 16.722656 31.28125 16.722656 C 31.253906 16.722656 31.179688 16.742188 31.113281 16.765625 M 30.699219 16.949219 C 30.082031 17.28125 29.648438 17.722656 29.355469 18.320312 C 29.195312 18.636719 29.230469 18.617188 29.402344 18.292969 C 29.707031 17.703125 30.128906 17.285156 30.734375 16.960938 C 30.855469 16.898438 30.9375 16.84375 30.921875 16.84375 C 30.90625 16.84375 30.804688 16.890625 30.699219 16.949219 M 21.253906 17.160156 C 21.230469 17.28125 21.21875 17.386719 21.226562 17.394531 C 21.234375 17.402344 21.257812 17.308594 21.28125 17.1875 C 21.304688 17.066406 21.316406 16.960938 21.308594 16.953125 C 21.300781 16.945312 21.277344 17.039062 21.253906 17.160156 M 1.238281 17.488281 C 1.226562 17.53125 1.222656 17.574219 1.230469 17.582031 C 1.238281 17.589844 1.25 17.558594 1.261719 17.511719 C 1.273438 17.46875 1.277344 17.425781 1.269531 17.417969 C 1.261719 17.410156 1.25 17.441406 1.238281 17.488281 M 21.195312 17.5625 C 21.195312 17.640625 21.203125 17.671875 21.210938 17.632812 C 21.21875 17.59375 21.21875 17.53125 21.210938 17.492188 C 21.203125 17.453125 21.195312 17.484375 21.195312 17.5625 M 48.785156 17.625 C 48.785156 17.652344 48.804688 17.722656 48.828125 17.78125 C 48.851562 17.839844 48.871094 17.871094 48.871094 17.84375 C 48.871094 17.816406 48.851562 17.746094 48.828125 17.6875 C 48.804688 17.628906 48.785156 17.597656 48.785156 17.625 M 21.144531 17.941406 C 21.128906 18.0625 21.128906 18.167969 21.136719 18.175781 C 21.144531 18.183594 21.160156 18.089844 21.171875 17.96875 C 21.183594 17.847656 21.1875 17.738281 21.179688 17.730469 C 21.171875 17.722656 21.15625 17.816406 21.144531 17.941406 M 21.105469 18.46875 C 21.105469 18.597656 21.109375 18.648438 21.117188 18.585938 C 21.125 18.523438 21.125 18.414062 21.117188 18.351562 C 21.109375 18.289062 21.105469 18.339844 21.105469 18.46875 M 29.175781 18.726562 C 29.074219 19.015625 29.027344 19.1875 29.039062 19.242188 C 29.054688 19.289062 29.054688 19.285156 29.058594 19.234375 C 29.0625 19.199219 29.101562 19.042969 29.152344 18.890625 C 29.246094 18.601562 29.265625 18.484375 29.175781 18.726562 M 21.070312 21.851562 L 21.0625 24.9375 L 14.765625 24.953125 L 21.078125 24.984375 L 21.085938 23.425781 C 21.089844 22.570312 21.089844 21.171875 21.085938 20.316406 C 21.082031 19.464844 21.074219 20.152344 21.070312 21.851562 M 0.800781 19.050781 C 0.789062 19.09375 0.785156 19.136719 0.792969 19.144531 C 0.800781 19.152344 0.8125 19.121094 0.824219 19.074219 C 0.835938 19.03125 0.839844 18.988281 0.832031 18.980469 C 0.824219 18.972656 0.8125 19.003906 0.800781 19.050781 M 28.96875 19.503906 C 28.933594 19.664062 28.921875 20.222656 28.914062 22.34375 L 28.902344 24.984375 L 32.351562 24.96875 L 35.796875 24.953125 L 32.367188 24.945312 L 28.933594 24.9375 L 28.945312 22.320312 C 28.957031 20.414062 28.96875 19.65625 28.996094 19.535156 C 29.019531 19.445312 29.03125 19.355469 29.023438 19.335938 C 29.019531 19.320312 28.992188 19.394531 28.96875 19.503906 M 0.691406 19.519531 C 0.667969 19.613281 0.65625 19.699219 0.664062 19.707031 C 0.671875 19.714844 0.695312 19.640625 0.714844 19.542969 C 0.738281 19.449219 0.75 19.363281 0.742188 19.355469 C 0.734375 19.347656 0.710938 19.421875 0.691406 19.519531 M 49.289062 19.484375 C 49.289062 19.519531 49.296875 19.582031 49.3125 19.625 C 49.332031 19.6875 49.335938 19.691406 49.335938 19.640625 C 49.335938 19.605469 49.328125 19.542969 49.3125 19.5 C 49.292969 19.4375 49.289062 19.433594 49.289062 19.484375 M 49.726562 22.03125 C 49.726562 22.089844 49.730469 22.117188 49.742188 22.085938 C 49.75 22.054688 49.75 22.007812 49.742188 21.976562 C 49.730469 21.945312 49.726562 21.972656 49.726562 22.03125 M 0.234375 22.230469 C 0.222656 22.359375 0.21875 22.484375 0.226562 22.503906 C 0.234375 22.527344 0.25 22.429688 0.261719 22.285156 C 0.273438 22.140625 0.277344 22.015625 0.269531 22.007812 C 0.261719 22 0.246094 22.101562 0.234375 22.230469 M 49.757812 22.296875 C 49.757812 22.382812 49.765625 22.414062 49.773438 22.367188 C 49.78125 22.320312 49.78125 22.25 49.773438 22.210938 C 49.765625 22.171875 49.757812 22.210938 49.757812 22.296875 M 49.820312 22.984375 C 49.820312 23.070312 49.828125 23.101562 49.835938 23.054688 C 49.84375 23.007812 49.84375 22.9375 49.835938 22.898438 C 49.828125 22.859375 49.820312 22.898438 49.820312 22.984375 M 0.164062 23.078125 C 0.164062 23.164062 0.171875 23.195312 0.179688 23.148438 C 0.1875 23.101562 0.1875 23.03125 0.179688 22.992188 C 0.171875 22.953125 0.164062 22.992188 0.164062 23.078125 M 49.855469 23.390625 C 49.855469 23.527344 49.859375 23.582031 49.867188 23.507812 C 49.875 23.433594 49.875 23.320312 49.867188 23.257812 C 49.859375 23.191406 49.855469 23.253906 49.855469 23.390625 M 0.136719 23.53125 C 0.136719 23.675781 0.140625 23.738281 0.148438 23.664062 C 0.15625 23.589844 0.15625 23.472656 0.148438 23.398438 C 0.140625 23.324219 0.136719 23.386719 0.136719 23.53125 M 49.886719 24.140625 C 49.886719 24.296875 49.890625 24.363281 49.898438 24.289062 C 49.90625 24.21875 49.90625 24.089844 49.898438 24.007812 C 49.890625 23.925781 49.886719 23.984375 49.886719 24.140625 M 0.109375 25 C 0.109375 25.523438 0.113281 25.738281 0.117188 25.476562 C 0.121094 25.214844 0.121094 24.785156 0.117188 24.523438 C 0.113281 24.261719 0.109375 24.476562 0.109375 25 M 14.765625 28.609375 L 14.765625 32.234375 L 21.0625 32.25 L 21.078125 49.609375 L 21.09375 32.21875 L 14.78125 32.21875 L 14.765625 24.984375 L 14.765625 28.609375 M 35.757812 25.375 C 35.738281 25.503906 35.714844 25.699219 35.707031 25.8125 C 35.695312 25.945312 35.710938 25.882812 35.75 25.640625 C 35.785156 25.433594 35.808594 25.238281 35.804688 25.203125 C 35.800781 25.167969 35.78125 25.246094 35.757812 25.375 M 49.886719 25.875 C 49.886719 26.019531 49.890625 26.082031 49.898438 26.007812 C 49.90625 25.933594 49.90625 25.816406 49.898438 25.742188 C 49.890625 25.667969 49.886719 25.730469 49.886719 25.875 M 35.628906 26.242188 C 35.609375 26.363281 35.59375 26.503906 35.597656 26.554688 C 35.597656 26.601562 35.621094 26.515625 35.644531 26.359375 C 35.667969 26.203125 35.683594 26.066406 35.675781 26.046875 C 35.671875 26.03125 35.652344 26.117188 35.628906 26.242188 M 0.136719 26.46875 C 0.136719 26.613281 0.140625 26.675781 0.148438 26.601562 C 0.15625 26.527344 0.15625 26.410156 0.148438 26.335938 C 0.140625 26.261719 0.136719 26.324219 0.136719 26.46875 M 49.855469 26.609375 C 49.855469 26.746094 49.859375 26.800781 49.867188 26.726562 C 49.875 26.652344 49.875 26.539062 49.867188 26.476562 C 49.859375 26.410156 49.855469 26.472656 49.855469 26.609375 M 35.535156 26.878906 C 35.511719 27.007812 35.5 27.140625 35.507812 27.175781 C 35.519531 27.210938 35.523438 27.199219 35.527344 27.132812 C 35.53125 27.078125 35.546875 26.964844 35.566406 26.875 C 35.582031 26.789062 35.59375 26.703125 35.585938 26.679688 C 35.578125 26.660156 35.554688 26.75 35.535156 26.878906 M 0.164062 26.90625 C 0.164062 27 0.171875 27.039062 0.179688 26.992188 C 0.1875 26.945312 0.1875 26.867188 0.179688 26.820312 C 0.171875 26.773438 0.164062 26.8125 0.164062 26.90625 M 49.820312 27.03125 C 49.820312 27.109375 49.828125 27.140625 49.835938 27.101562 C 49.84375 27.0625 49.84375 27 49.835938 26.960938 C 49.828125 26.921875 49.820312 26.953125 49.820312 27.03125 M 0.195312 27.234375 C 0.195312 27.304688 0.203125 27.328125 0.210938 27.289062 C 0.21875 27.25 0.214844 27.195312 0.210938 27.164062 C 0.199219 27.132812 0.195312 27.164062 0.195312 27.234375 M 35.421875 27.585938 C 35.394531 27.769531 35.347656 28.035156 35.324219 28.175781 C 35.300781 28.3125 35.28125 28.46875 35.285156 28.519531 C 35.289062 28.601562 35.289062 28.601562 35.300781 28.53125 C 35.34375 28.273438 35.414062 27.835938 35.457031 27.578125 C 35.484375 27.414062 35.5 27.273438 35.492188 27.261719 C 35.484375 27.253906 35.453125 27.398438 35.421875 27.585938 M 0.222656 27.613281 C 0.222656 27.679688 0.234375 27.796875 0.25 27.875 C 0.269531 27.980469 0.273438 27.953125 0.257812 27.765625 C 0.242188 27.5 0.21875 27.40625 0.222656 27.613281 M 49.75 27.726562 C 49.742188 27.804688 49.746094 27.859375 49.761719 27.847656 C 49.773438 27.832031 49.78125 27.765625 49.773438 27.699219 L 49.765625 27.578125 L 49.75 27.726562 M 35.203125 29.015625 C 35.171875 29.230469 35.152344 29.414062 35.160156 29.421875 C 35.167969 29.429688 35.199219 29.257812 35.230469 29.042969 C 35.261719 28.828125 35.28125 28.648438 35.273438 28.640625 C 35.265625 28.632812 35.234375 28.800781 35.203125 29.015625 M 35.09375 29.75 C 35.074219 29.890625 35.0625 30.007812 35.070312 30.015625 C 35.078125 30.023438 35.101562 29.917969 35.125 29.78125 C 35.144531 29.640625 35.15625 29.523438 35.148438 29.515625 C 35.140625 29.507812 35.117188 29.613281 35.09375 29.75 M 49.378906 30.046875 C 49.375 30.082031 49.367188 30.144531 49.359375 30.1875 L 49.34375 30.265625 L 49.375 30.1875 C 49.394531 30.148438 49.402344 30.082031 49.394531 30.046875 C 49.382812 29.984375 49.382812 29.984375 49.378906 30.046875 M 35.039062 30.171875 C 35.039062 30.242188 35.046875 30.265625 35.054688 30.226562 C 35.0625 30.1875 35.058594 30.132812 35.054688 30.101562 C 35.042969 30.070312 35.039062 30.101562 35.039062 30.171875 M 0.675781 30.40625 C 0.6875 30.484375 0.707031 30.574219 0.722656 30.609375 C 0.753906 30.683594 0.722656 30.460938 0.683594 30.34375 C 0.667969 30.292969 0.664062 30.3125 0.675781 30.40625 M 34.972656 30.535156 C 34.949219 30.664062 34.9375 30.796875 34.945312 30.832031 C 34.957031 30.867188 34.960938 30.855469 34.964844 30.789062 C 34.96875 30.734375 34.984375 30.621094 35.003906 30.53125 C 35.019531 30.445312 35.03125 30.359375 35.023438 30.335938 C 35.015625 30.316406 34.992188 30.40625 34.972656 30.535156 M 49.269531 30.566406 C 49.242188 30.695312 49.269531 30.722656 49.296875 30.59375 C 49.308594 30.539062 49.3125 30.488281 49.304688 30.480469 C 49.296875 30.472656 49.28125 30.511719 49.269531 30.566406 M 34.867188 31.1875 C 34.835938 31.355469 34.8125 31.53125 34.816406 31.578125 C 34.816406 31.628906 34.84375 31.515625 34.878906 31.328125 C 34.910156 31.140625 34.933594 30.964844 34.929688 30.9375 C 34.921875 30.910156 34.894531 31.023438 34.867188 31.1875 M 34.757812 31.878906 C 34.734375 31.992188 34.71875 32.117188 34.71875 32.152344 L 34.71875 32.21875 L 28.90625 32.21875 L 28.921875 49.609375 L 28.9375 32.25 L 34.734375 32.234375 L 34.773438 32 C 34.792969 31.871094 34.808594 31.746094 34.804688 31.71875 C 34.800781 31.691406 34.777344 31.765625 34.757812 31.878906 M 1.128906 32.128906 C 1.125 32.1875 1.1875 32.382812 1.207031 32.367188 C 1.210938 32.363281 1.195312 32.292969 1.171875 32.21875 C 1.148438 32.140625 1.128906 32.101562 1.128906 32.128906 M 48.847656 32.160156 C 48.84375 32.191406 48.835938 32.238281 48.824219 32.269531 C 48.808594 32.324219 48.808594 32.324219 48.84375 32.273438 C 48.863281 32.242188 48.871094 32.191406 48.863281 32.164062 C 48.851562 32.113281 48.851562 32.113281 48.847656 32.160156 M 48.738281 32.519531 C 48.726562 32.5625 48.722656 32.605469 48.730469 32.613281 C 48.738281 32.621094 48.75 32.589844 48.761719 32.542969 C 48.773438 32.5 48.777344 32.457031 48.769531 32.449219 C 48.761719 32.441406 48.75 32.472656 48.738281 32.519531 M 47.597656 35.453125 C 47.546875 35.570312 47.554688 35.59375 47.613281 35.488281 C 47.640625 35.441406 47.65625 35.394531 47.648438 35.386719 C 47.640625 35.378906 47.617188 35.410156 47.597656 35.453125 M 2.796875 36.3125 C 2.839844 36.398438 2.882812 36.46875 2.890625 36.46875 C 2.898438 36.46875 2.871094 36.398438 2.828125 36.3125 C 2.785156 36.226562 2.742188 36.15625 2.734375 36.15625 C 2.726562 36.15625 2.753906 36.226562 2.796875 36.3125 M 3.796875 38.089844 C 3.820312 38.140625 3.859375 38.191406 3.875 38.203125 C 3.890625 38.214844 3.875 38.171875 3.839844 38.109375 C 3.761719 37.976562 3.730469 37.964844 3.796875 38.089844 M 4.90625 39.71875 C 4.90625 39.730469 4.941406 39.785156 4.984375 39.84375 C 5.027344 39.902344 5.0625 39.9375 5.0625 39.921875 C 5.058594 39.890625 4.90625 39.691406 4.90625 39.71875 M 5.574219 40.601562 C 5.640625 40.683594 5.703125 40.75 5.710938 40.75 C 5.730469 40.75 5.53125 40.503906 5.492188 40.476562 C 5.46875 40.464844 5.507812 40.523438 5.574219 40.601562 M 6.125 41.265625 C 6.183594 41.324219 6.238281 41.375 6.246094 41.375 C 6.253906 41.375 6.214844 41.324219 6.15625 41.265625 C 6.097656 41.207031 6.042969 41.15625 6.035156 41.15625 C 6.027344 41.15625 6.066406 41.207031 6.125 41.265625 M 43.859375 41.25 C 43.808594 41.300781 43.78125 41.34375 43.800781 41.34375 C 43.828125 41.339844 43.988281 41.15625 43.960938 41.15625 C 43.953125 41.15625 43.910156 41.199219 43.859375 41.25 M 6.3125 41.476562 C 6.3125 41.484375 6.359375 41.53125 6.414062 41.582031 L 6.515625 41.671875 L 6.425781 41.570312 C 6.339844 41.476562 6.3125 41.453125 6.3125 41.476562 M 43.375 41.796875 C 43.300781 41.875 43.246094 41.941406 43.253906 41.945312 C 43.257812 41.953125 43.328125 41.890625 43.402344 41.804688 C 43.574219 41.617188 43.558594 41.609375 43.375 41.796875 M 6.671875 41.875 C 6.738281 41.945312 6.800781 42 6.808594 42 C 6.816406 42 6.769531 41.945312 6.703125 41.875 C 6.636719 41.804688 6.574219 41.75 6.566406 41.75 C 6.558594 41.75 6.605469 41.804688 6.671875 41.875 M 42.84375 42.359375 C 42.714844 42.488281 42.617188 42.59375 42.625 42.59375 C 42.636719 42.59375 42.746094 42.488281 42.875 42.359375 C 43.003906 42.230469 43.101562 42.125 43.09375 42.125 C 43.082031 42.125 42.972656 42.230469 42.84375 42.359375 M 7.15625 42.382812 C 7.230469 42.464844 7.296875 42.53125 7.304688 42.53125 C 7.328125 42.53125 7.300781 42.503906 7.164062 42.375 L 7.015625 42.234375 L 7.15625 42.382812 M 42.34375 42.859375 C 42.214844 42.988281 42.117188 43.09375 42.125 43.09375 C 42.136719 43.09375 42.246094 42.988281 42.375 42.859375 C 42.503906 42.730469 42.601562 42.625 42.59375 42.625 C 42.582031 42.625 42.472656 42.730469 42.34375 42.859375 M 7.59375 42.820312 C 7.722656 42.957031 7.75 42.984375 7.75 42.960938 C 7.75 42.953125 7.683594 42.886719 7.601562 42.8125 L 7.453125 42.671875 L 7.59375 42.820312 M 8.109375 43.3125 C 8.175781 43.382812 8.238281 43.4375 8.246094 43.4375 C 8.253906 43.4375 8.207031 43.382812 8.140625 43.3125 C 8.074219 43.242188 8.011719 43.1875 8.003906 43.1875 C 7.996094 43.1875 8.042969 43.242188 8.109375 43.3125 M 41.78125 43.398438 L 41.640625 43.546875 L 41.796875 43.40625 C 41.882812 43.328125 41.957031 43.261719 41.964844 43.257812 C 41.972656 43.253906 41.964844 43.25 41.949219 43.25 C 41.933594 43.25 41.855469 43.316406 41.78125 43.398438 M 8.285156 43.476562 C 8.292969 43.480469 8.355469 43.535156 8.421875 43.59375 L 8.546875 43.703125 L 8.4375 43.585938 C 8.378906 43.523438 8.316406 43.46875 8.300781 43.46875 C 8.285156 43.46875 8.277344 43.472656 8.285156 43.476562 M 8.652344 43.789062 C 8.703125 43.855469 9 44.105469 9 44.085938 C 9 44.078125 8.914062 43.996094 8.804688 43.902344 C 8.695312 43.8125 8.628906 43.761719 8.652344 43.789062 M 41.230469 43.882812 L 41.140625 43.984375 L 41.242188 43.894531 C 41.335938 43.808594 41.359375 43.78125 41.335938 43.78125 C 41.328125 43.78125 41.28125 43.828125 41.230469 43.882812 M 9.171875 44.238281 C 9.332031 44.378906 9.390625 44.421875 9.328125 44.347656 C 9.292969 44.308594 9.238281 44.261719 9.203125 44.242188 C 9.167969 44.226562 9.15625 44.222656 9.171875 44.238281 M 9.84375 44.761719 C 9.84375 44.769531 9.886719 44.808594 9.9375 44.84375 C 9.988281 44.878906 10.03125 44.902344 10.03125 44.894531 C 10.03125 44.886719 9.988281 44.847656 9.9375 44.8125 C 9.886719 44.777344 9.84375 44.753906 9.84375 44.761719 M 12.5625 46.589844 C 12.605469 46.625 12.65625 46.65625 12.671875 46.65625 C 12.707031 46.65625 12.648438 46.613281 12.546875 46.558594 C 12.503906 46.539062 12.511719 46.546875 12.5625 46.589844 M 35.4375 47.609375 C 35.394531 47.632812 35.375 47.652344 35.390625 47.652344 C 35.40625 47.652344 35.457031 47.632812 35.5 47.609375 C 35.542969 47.585938 35.5625 47.566406 35.546875 47.566406 C 35.53125 47.566406 35.480469 47.585938 35.4375 47.609375 M 14.75 47.71875 C 14.808594 47.75 14.875 47.777344 14.890625 47.777344 C 14.90625 47.777344 14.871094 47.75 14.8125 47.71875 C 14.753906 47.6875 14.6875 47.660156 14.671875 47.660156 C 14.65625 47.660156 14.691406 47.6875 14.75 47.71875 M 35.15625 47.734375 C 35.113281 47.757812 35.09375 47.777344 35.109375 47.777344 C 35.125 47.777344 35.175781 47.757812 35.21875 47.734375 C 35.261719 47.710938 35.28125 47.691406 35.265625 47.691406 C 35.25 47.691406 35.199219 47.710938 35.15625 47.734375 M 15.8125 48.171875 C 15.855469 48.195312 15.910156 48.214844 15.9375 48.214844 C 15.964844 48.214844 15.9375 48.195312 15.878906 48.171875 C 15.746094 48.113281 15.710938 48.113281 15.8125 48.171875 M 16.0625 48.265625 C 16.105469 48.289062 16.160156 48.308594 16.1875 48.308594 C 16.214844 48.308594 16.1875 48.289062 16.128906 48.265625 C 15.996094 48.207031 15.960938 48.207031 16.0625 48.265625 M 32.601562 48.707031 C 32.527344 48.734375 32.46875 48.761719 32.476562 48.769531 C 32.492188 48.78125 32.78125 48.6875 32.78125 48.667969 C 32.78125 48.648438 32.746094 48.65625 32.601562 48.707031 M 17.390625 48.734375 C 17.441406 48.757812 17.503906 48.777344 17.53125 48.777344 C 17.558594 48.777344 17.527344 48.757812 17.46875 48.734375 C 17.324219 48.679688 17.269531 48.679688 17.390625 48.734375 M 17.734375 48.84375 C 17.769531 48.859375 17.816406 48.871094 17.84375 48.871094 C 17.875 48.871094 17.867188 48.859375 17.828125 48.84375 C 17.792969 48.828125 17.746094 48.816406 17.71875 48.816406 C 17.6875 48.816406 17.695312 48.828125 17.734375 48.84375 M 32.1875 48.84375 C 32.125 48.863281 32.121094 48.871094 32.171875 48.871094 C 32.207031 48.871094 32.253906 48.859375 32.28125 48.84375 C 32.335938 48.808594 32.296875 48.808594 32.1875 48.84375 M 18.984375 49.1875 C 19.019531 49.203125 19.066406 49.214844 19.09375 49.214844 C 19.125 49.214844 19.117188 49.203125 19.078125 49.1875 C 19.042969 49.171875 18.996094 49.160156 18.96875 49.160156 C 18.9375 49.160156 18.945312 49.171875 18.984375 49.1875 M 19.453125 49.300781 C 19.539062 49.324219 19.628906 49.339844 19.65625 49.339844 C 19.683594 49.339844 19.632812 49.320312 19.546875 49.292969 C 19.460938 49.269531 19.371094 49.253906 19.34375 49.253906 C 19.316406 49.253906 19.367188 49.273438 19.453125 49.300781 M 30.53125 49.28125 C 30.46875 49.300781 30.464844 49.304688 30.515625 49.308594 C 30.550781 49.308594 30.605469 49.296875 30.640625 49.28125 C 30.71875 49.246094 30.636719 49.246094 30.53125 49.28125 "/>
<path style=" stroke:none;fill-rule:evenodd;fill:rgb(53.333333%,70.588235%,96.470588%);fill-opacity:1;" d="M 30.414062 9.835938 C 30.496094 9.84375 30.625 9.84375 30.695312 9.835938 C 30.769531 9.828125 30.703125 9.824219 30.546875 9.824219 C 30.390625 9.824219 30.332031 9.828125 30.414062 9.835938 M 29.585938 9.867188 C 29.625 9.875 29.6875 9.875 29.726562 9.867188 C 29.765625 9.859375 29.734375 9.851562 29.65625 9.851562 C 29.578125 9.851562 29.546875 9.859375 29.585938 9.867188 M 31.585938 9.867188 C 31.640625 9.875 31.734375 9.875 31.789062 9.867188 C 31.84375 9.859375 31.800781 9.855469 31.6875 9.855469 C 31.574219 9.855469 31.53125 9.859375 31.585938 9.867188 M 29.226562 9.898438 C 29.257812 9.90625 29.304688 9.90625 29.335938 9.898438 C 29.367188 9.886719 29.339844 9.882812 29.28125 9.882812 C 29.222656 9.882812 29.195312 9.886719 29.226562 9.898438 M 32.179688 9.898438 C 32.21875 9.90625 32.28125 9.90625 32.320312 9.898438 C 32.359375 9.890625 32.328125 9.882812 32.25 9.882812 C 32.171875 9.882812 32.140625 9.890625 32.179688 9.898438 M 33.382812 9.992188 C 33.414062 10 33.460938 10 33.492188 9.992188 C 33.523438 9.980469 33.496094 9.976562 33.4375 9.976562 C 33.378906 9.976562 33.351562 9.980469 33.382812 9.992188 M 23.949219 12.070312 L 23.859375 12.171875 L 23.960938 12.082031 C 24.015625 12.03125 24.0625 11.984375 24.0625 11.976562 C 24.0625 11.953125 24.035156 11.976562 23.949219 12.070312 M 33.507812 16.460938 C 33.984375 16.464844 34.765625 16.464844 35.242188 16.460938 C 35.71875 16.457031 35.328125 16.453125 34.375 16.453125 C 33.421875 16.453125 33.03125 16.457031 33.507812 16.460938 M 21.132812 18.59375 C 21.132812 18.671875 21.140625 18.703125 21.148438 18.664062 C 21.15625 18.625 21.15625 18.5625 21.148438 18.523438 C 21.140625 18.484375 21.132812 18.515625 21.132812 18.59375 M 21.109375 22.03125 C 21.109375 23.636719 21.113281 24.296875 21.117188 23.492188 C 21.121094 22.6875 21.121094 21.375 21.117188 20.570312 C 21.113281 19.765625 21.109375 20.425781 21.109375 22.03125 M 16.371094 32.210938 C 17.25 32.214844 18.6875 32.214844 19.558594 32.210938 C 20.429688 32.207031 19.707031 32.203125 17.953125 32.203125 C 16.199219 32.203125 15.488281 32.207031 16.371094 32.210938 M 30.332031 32.210938 C 31.128906 32.214844 32.433594 32.214844 33.238281 32.210938 C 34.042969 32.207031 33.394531 32.203125 31.796875 32.203125 C 30.199219 32.203125 29.539062 32.207031 30.332031 32.210938 M 21.109375 40.90625 C 21.109375 45.675781 21.113281 47.628906 21.117188 45.242188 C 21.121094 42.855469 21.121094 38.957031 21.117188 36.570312 C 21.113281 34.183594 21.109375 36.136719 21.109375 40.90625 "/>
</g>
</svg>
