<svg xmlns="http://www.w3.org/2000/svg" width="66.667" height="66.667" viewBox="0 0 50 50" fill-rule="evenodd" xmlns:v="https://vecta.io/nano"><path d="M29.359 9.891c-4.164.379-6.961 2.707-7.906 6.586-.297 1.219-.305 1.375-.32 5.172L21.121 25l-3.16.008-3.164.008-.016 7.172h6.344v17.434l.148.02a18.79 18.79 0 0 1 .586.078c1.125.152 1.453.172 3.141.172 1.32 0 1.703-.012 2.141-.055.59-.062 1.473-.172 1.641-.207l.109-.023.008-8.707.008-8.711h2.887c2.727 0 2.891-.004 2.906-.055.008-.031.023-.109.031-.18l.113-.734.234-1.547.188-1.219.09-.594.332-2.145.094-.664c0-.047-.297-.051-3.437-.051h-3.437v-2.578c0-2.105.008-2.633.047-2.883.215-1.449 1.043-2.453 2.355-2.863.641-.203 1.113-.238 3.137-.238h1.648v-3.047l-.027-3.059c-.047-.031-1.066-.172-1.926-.266-1.871-.211-3.676-.277-4.781-.176" fill="rgb(98.431373%,98.431373%,98.431373%)"/><path d="M24.672.129l-2.578.152-.391.047-1.453.234-1.906.449c-.027.012-.086.023-.137.031s-.145.039-.219.063l-1.27.41c-.008 0-.059.016-.109.039l-.695.273c-1.172.461-2.305 1.004-3.312 1.59l-.352.18c0-.012-.012-.004-.023.016s-.18.129-.367.246C9.602 5.266 7.516 7.09 5.793 9.172l-1.09 1.422-.844 1.266-.246.367c-.02.012-.027.023-.016.023s-.07.156-.18.352c-.586 1.008-1.129 2.141-1.59 3.313l-.273.695c-.023.051-.039.102-.039.109a53.8 53.8 0 0 1-.41 1.27l-.062.219c-.008.051-.02.109-.031.137-.055.145-.258 1.012-.449 1.906l-.234 1.453-.047.391C.156 23.109.07 25.516.133 26.203l.07.859a23.68 23.68 0 0 0 .5 3.344c.207.941.336 1.418.66 2.414l.121.375c.004.023.016.059.027.086l.375.984c.004.016.023.066.043.109l.242.563c.473 1.094 1.34 2.715 1.898 3.539.066.098.109.18.098.18s-.004.02.023.039.121.152.215.289l.75 1.047.324.414a24.79 24.79 0 0 0 3.988 4.004l.516.41a3.76 3.76 0 0 0 .25.188l.531.375c1.836 1.293 3.938 2.363 6.09 3.105l1.316.426.172.047.172.047.422.105 1.766.379.289.051.07.02V32.25l-6.297-.016L14.75 25l6.328-.016-6.312-.031 6.297-.016.004-3.086.027-3.008c.016.043.02-.07.012-.266-.008-.238-.004-.324.02-.281s.023.004.012-.141c-.012-.129-.008-.187.012-.16s.023-.016.016-.121-.004-.16.016-.145.023-.043.016-.141c-.012-.113-.008-.156.016-.141s.031-.016.016-.094-.008-.109.016-.094.023-.012.016-.062-.004-.074.012-.066.023-.027.016-.094c-.008-.074 0-.102.023-.09s.027-.008.016-.074-.008-.094.016-.094.031-.012.023-.027c-.027-.043.051-.375.086-.355-.02-.066.055-.367.094-.344-.016-.059.055-.336.086-.32.012.008.016-.012.004-.047s0-.062.023-.062.027-.016.016-.031c-.027-.043.012-.16.047-.141.012.008.016-.016.008-.051-.012-.043-.004-.062.016-.047s.027-.004.016-.047c-.012-.051-.008-.062.023-.043.023.016.035.012.023-.008-.027-.035.043-.227.078-.227.016 0 .02-.012.008-.027-.02-.039.188-.477.215-.449.012.012.012-.004 0-.039s-.012-.051.016-.035.027.004.016-.031-.012-.047.016-.031.027.004.016-.031-.012-.047.02-.027.035.012.02-.008c-.027-.043.012-.137.047-.113.016.008.023.004.02-.012-.016-.051.141-.348.172-.328.02.008.023.004.016-.012-.023-.039.18-.359.211-.332-.016-.051.09-.219.121-.187.016.012.02.008.016-.008-.012-.055.039-.141.074-.121.02.012.023.008.016-.008-.023-.039.18-.297.211-.27-.004-.062.078-.184.117-.16.016.012.023.008.016-.008-.027-.043.32-.422.359-.398.02.012.023.008.012-.012-.02-.031.094-.156.133-.141.012.004.02-.012.02-.031s.02-.035.043-.031.031-.004.023-.02a.84.84 0 0 1 .297-.27c.012 0 .035-.012.047-.027s.008-.02-.02-.004-.004-.012.047-.055.109-.07.125-.062.02.008.008-.008c-.027-.031.16-.176.199-.156.012.012.035 0 .047-.02s.008-.031-.023-.016c-.023.016-.016.004.016-.023s.074-.039.094-.027.023.008.012-.008c-.031-.035.164-.176.207-.148.02.008.023.008.012-.008-.031-.035.133-.145.176-.117.016.012.02 0 .004-.023-.02-.031-.012-.035.027-.02.031.008.047.008.035-.012-.016-.027.102-.082.152-.066.012.004.016-.012 0-.031-.016-.027-.004-.031.031-.016s.047.008.031-.016-.004-.031.031-.016.047.008.035-.012c-.016-.027.023-.043.086-.035.012.004.023-.008.023-.02 0-.043.188-.137.223-.113.023.016.027.008.012-.02s-.012-.035.027-.02.047.008.031-.016-.004-.031.031-.016.047.008.031-.016-.004-.031.035-.016.051.012.039 0c-.031-.031.16-.109.203-.086.02.016.023.008.008-.02s-.012-.035.031-.02c.035.012.051.012.039 0-.031-.031.262-.141.32-.121.023.012.035.008.023-.004-.031-.027.16-.113.199-.086.016.008.027.004.027-.012 0-.035.219-.105.254-.082.016.008.027 0 .027-.02s.027-.031.066-.02.055.008.047-.004c-.031-.031.238-.102.305-.082.043.012.051.008.035-.02s-.004-.035.059-.023c.047.008.074.004.063-.016s.012-.027.063-.016.074.004.063-.016.012-.027.063-.016.074.004.063-.016.023-.027.102-.012c.086.012.109.008.074-.016s-.012-.027.082-.02c.074.004.125-.004.113-.02s.027-.023.078-.016c.059.012.09.004.078-.016s.023-.023.082-.012.098 0 .098-.016.07-.023.152-.02.148 0 .137-.016.039-.02.109-.016.121 0 .109-.016.051-.023.148-.012c.105.008.148.004.121-.016s.082-.023.301-.012c.195.008.305.004.25-.012s.234-.023.656-.023l.625.023c-.07.012.102.02.375.012.355-.008.48-.004.438.02-.051.027-.047.027.031.012.141-.027 1.234.055 1.211.094-.012.02.004.02.039.008.074-.027.902.047.852.078-.02.012.055.016.168.008.141-.012.188-.008.152.016s.008.027.141.016.168-.004.125.016-.02.027.094.016c.098-.012.141-.008.117.012s.023.023.141.016c.133-.008.168-.004.133.02s-.004.027.105.016c.094-.016.148-.012.137.008s.027.023.094.016.102 0 .094.016.031.023.094.016c.07-.008.102 0 .09.02s.023.027.105.016c.098-.012.125-.008.117.027-.004.023.012.039.031.035.063-.012.055 6.074-.008 6.137-.039.039-.293.043-1.809.035-1.051-.004-1.758.004-1.746.02s-.078.02-.215.012c-.125-.012-.211-.008-.187.004s-.027.035-.137.047c-.098.012-.191.012-.211 0s-.023-.008-.008.02.004.035-.074.02c-.062-.012-.094-.008-.082.012.016.027-.055.043-.211.043-.027 0-.043.012-.035.027s-.008.02-.051.008c-.051-.016-.062-.012-.047.016s.008.035-.043.023c-.035-.008-.059-.008-.051.008.02.031-.133.07-.18.043-.02-.016-.023-.008-.008.02s.012.035-.027.023c-.027-.012-.051-.008-.051.012s-.023.023-.055.012-.043-.008-.031.004c.023.023-.336.234-.406.238-.02 0-.031.012-.023.023.016.027-.18.141-.219.129.016.039-.109.141-.148.129-.012-.004-.02.012-.016.031s-.012.035-.035.031-.031.004-.023.02-.004.047-.027.066-.047.027-.047.012c0-.027-.078.043-.078.074-.004.051-.117.191-.145.176-.016-.008-.023-.004-.02.008.012.043-.109.23-.141.211-.012-.008-.023-.004-.02.008.012.066-.008.109-.035.09-.02-.012-.023.004-.012.035.016.039.012.047-.02.027s-.035-.012-.02.008c.027.043-.012.137-.047.117-.016-.012-.016.004-.008.035.016.035.012.047-.016.031s-.027-.004-.016.031.012.047-.016.031-.027-.004-.016.031.012.047-.016.031-.027-.008-.016.027c.012.023.004.047-.02.047s-.027.012-.02.027c.023.035-.055.23-.078.207-.012-.012-.012.02-.004.066.012.055.004.078-.016.063s-.027.004-.016.047.004.063-.012.051-.031.004-.031.031c0 .152-.016.227-.043.211-.016-.008-.02.031-.008.098s.004.109-.012.098c-.043-.027-.043.047-.062 2.844l-.016 2.633 3.434.008 3.43.008-6.875.031 3.461.008 3.461.07c0 .035-.012.063-.023.063s-.02.055-.016.117c.008.094.004.109-.023.07s-.035-.035-.016.016c.023.074-.016.457-.043.441-.012-.008-.016.043-.012.117.008.098.004.117-.023.082s-.027-.012-.012.09c.012.086.008.133-.008.121s-.023.027-.016.094c.008.059 0 .102-.016.094s-.023.047-.016.125c.008.094 0 .133-.023.121s-.023.016-.012.094c.012.07.008.109-.012.098s-.027.02-.016.078c.008.051 0 .086-.016.078s-.023.047-.02.129c.008.109.004.133-.023.098s-.027-.012-.012.09c.016.109.012.133-.02.113s-.035-.012-.02.012c.035.059-.012.352-.051.328-.02-.012-.023-.008-.008.016.035.059-.016.445-.055.422-.02-.012-.023-.008-.012.012s.012.121 0 .227c-.016.121-.031.176-.047.152s-.02.023-.008.109c.012.094.012.148-.008.137s-.023.039-.02.113c.008.094.004.117-.02.082s-.027-.004-.016.094.008.125-.012.098-.027.004-.016.105c.012.109.008.145-.02.129s-.031.02-.016.129.008.137-.016.102-.027-.016-.016.074c.016.074.012.117-.008.105s-.023.027-.016.094 0 .102-.02.09-.023.035-.016.125c.012.102.008.141-.016.125s-.031.016-.016.094c.012.07.008.109-.012.098s-.027.02-.016.078c.008.051 0 .086-.016.078s-.023.047-.016.125c.008.094 0 .133-.023.121s-.023.016-.012.094c.012.09.008.109-.023.09s-.035-.012-.02.012c.027.043-.043.598-.074.598-.012 0-.016.043-.008.098s.004.09-.012.082-.031.059-.031.152-.016.191-.023.215c-.016.039-.41.047-2.91.047h-2.891v8.672l.012 8.672c.008 0 .086-.016.18-.035l.277-.043c.105-.012.637-.125 1.266-.27l.344-.074a.45.45 0 0 0 .109-.027l.281-.078c.648-.168 1.723-.512 2.313-.738l.453-.172.336-.137c.098-.043.18-.07.18-.062s.02.004.043-.016.262-.133.539-.254c.859-.383 2.098-1.047 2.867-1.531l.254-.156c.012 0 .477-.312.828-.555 2.125-1.477 4.219-3.504 5.738-5.559l.227-.297a30.23 30.23 0 0 0 1.246-1.902l.285-.5c.219-.379.797-1.516.934-1.828l.215-.484c.441-1 .988-2.59 1.277-3.719.004-.027.012-.047.016-.047s.008-.035.016-.078a5.5 5.5 0 0 1 .074-.359l.238-1.125.047-.266c.027-.125.125-.805.176-1.187l.027-.219c.176-1.152.207-3.621.063-5.109l-.191-1.562-.09-.598c-.035-.328-.426-1.961-.629-2.637l-.328-1.047-.184-.5c-.551-1.5-1.227-2.91-2.008-4.203l-.285-.469c-1.297-2.156-3.691-4.797-5.84-6.43l-.25-.195c-.062-.055-.734-.535-1.008-.719l-.289-.215c-.02-.027-.039-.035-.039-.023s-.082-.031-.18-.098c-.828-.563-2.434-1.422-3.539-1.898l-.562-.242c-.043-.02-.094-.039-.109-.043-.039-.012-.922-.348-.984-.375-.027-.012-.062-.023-.078-.027s-.211-.066-.426-.137C30.898.738 28.969.352 27.063.203l-.859-.07c-.137-.012-.828-.016-1.531-.004" fill="rgb(10.588235%,45.490196%,95.686275%)"/><path d="M30.086 9.836c.039.008.102.008.141 0s.008-.016-.07-.016-.109.008-.07.016m.797 0c.047.008.125.008.172 0s.008-.016-.086-.016-.133.008-.086.016m5.227 3.555l.008 1.52v-3.062c-.004-.836-.008-.141-.008 1.543m-15.008 5.625c0 .07.008.094.016.055s.004-.094 0-.125c-.012-.031-.016 0-.016.07" fill="rgb(44.313725%,61.568627%,95.686275%)"/><path d="M24.523.117h.953c.262-.004.047-.008-.477-.008l-.477.008m-1.125.031a1.51 1.51 0 0 0 .266 0c.074-.008.012-.012-.133-.012s-.207.004-.133.012m2.938 0a1.51 1.51 0 0 0 .266 0c.074-.008.012-.012-.133-.012s-.207.004-.133.012M23.008.18c.047.008.117.008.156 0s0-.016-.086-.016-.117.008-.07.016m3.813 0c.047.008.125.008.172 0S27 .164 26.906.164s-.133.008-.086.016m.359.031c.039.008.094.004.125 0 .031-.012 0-.016-.07-.016s-.094.008-.055.016m-5.07.039c-.074.016-.02.02.141.008l.277-.027c.023-.02-.285-.004-.418.02m5.395-.02c.004.008.125.02.262.027.188.016.215.012.109-.008-.145-.027-.395-.039-.371-.02m-8.035.473c-.078.023-.121.043-.094.043s.117-.016.203-.039.129-.047.094-.043-.125.016-.203.039m10.875-.02c.117.039.34.07.266.039-.035-.016-.125-.035-.203-.047-.094-.012-.113-.008-.062.008M19.016.813c-.039.016-.047.027-.016.027a.32.32 0 0 0 .109-.027c.039-.016.047-.027.016-.027a.32.32 0 0 0-.109.027m13.203.359c.074.023.145.039.148.035.016-.02-.18-.082-.238-.078-.027 0 .012.02.09.043m-14.766.078c-.039.016-.047.027-.016.027a.32.32 0 0 0 .109-.027c.039-.016.047-.027.016-.027a.32.32 0 0 0-.109.027m-1.375.484c-.078.039-.082.043-.016.027.09-.023.188-.074.141-.07-.016 0-.074.02-.125.043m-1.258.516c-.105.043-.086.063.023.027.051-.02.094-.039.094-.047 0-.02-.039-.012-.117.02m21.336.484c0 .008.07.051.156.094s.156.07.156.063-.07-.051-.156-.094-.156-.07-.156-.062m-23.352.535c-.117.063-.109.09.008.027.051-.027.094-.055.094-.062 0-.02-.004-.02-.102.035M38 3.762c0 .008.051.043.109.078s.105.051.094.035c-.02-.035-.203-.137-.203-.113m1.797 1.223c.051.043.105.078.125.078s-.02-.035-.078-.078c-.137-.102-.168-.102-.047 0m-30.156.41l-.125.113.133-.102c.113-.086.156-.125.125-.125a1.93 1.93 0 0 0-.133.113m31.055.277c.047.051.09.086.098.078s-.031-.051-.086-.09l-.098-.078.086.09m.461.367c0 .008.047.055.102.105l.102.09-.09-.102c-.086-.094-.113-.117-.113-.094m-32.52.188l-.09.102.102-.09c.055-.051.102-.098.102-.105 0-.023-.027 0-.113.094m32.832.094c0 .008.047.055.102.105l.102.09-.09-.102c-.086-.094-.113-.117-.113-.094m-33.113.156l-.09.102.102-.09c.094-.086.117-.113.094-.113-.008 0-.055.047-.105.102m33.504.211c.066.07.129.125.137.125s-.039-.055-.105-.125-.129-.125-.137-.125.039.055.105.125m-33.754.008l-.09.102.102-.09c.094-.086.117-.113.094-.113-.008 0-.055.047-.105.102m34.27.469c.129.137.156.164.156.141 0-.008-.066-.074-.148-.148l-.148-.141.141.148m.438.438c.129.137.156.164.156.141 0-.008-.066-.074-.148-.148l-.148-.141.141.148m-36.145.531l-.09.102.102-.09c.055-.051.102-.098.102-.105 0-.023-.027 0-.113.094M43.25 8.07c0 .008.047.055.102.105l.102.09-.09-.102c-.086-.094-.113-.117-.113-.094m-36.801.313l-.09.102.102-.09c.055-.051.102-.098.102-.105 0-.023-.027 0-.113.094m-.25.281l-.09.102.102-.09c.055-.051.102-.098.102-.105 0-.023-.027 0-.113.094m37.645.07c.059.059.113.109.121.109s-.031-.051-.09-.109-.113-.109-.121-.109.031.051.09.109m.398.469a.6.6 0 0 0 .105.125c.07.059.07.059-.004-.031-.125-.148-.133-.16-.102-.094m-38.867.453c-.055.07-.094.125-.082.125s.059-.055.113-.125.094-.125.082-.125-.059.055-.113.125m24.867.148h.75c.203-.004.031-.012-.383-.012l-.367.012M29 9.875l-.297.059a3.37 3.37 0 0 0 .438-.043l.5-.055c.129-.012.121-.012-.047-.016-.113 0-.379.023-.594.055m2.703-.039l.742.055.703.043c.098 0-.121-.027-.492-.059l-.922-.055-.25.004.219.012m13.07.047l.305.367a3.52 3.52 0 0 0-.32-.406c-.008 0-.004.02.016.039m-16.477.09l-.754.176c.008.008.145-.016.305-.051l.527-.109c.129-.023.199-.043.156-.043s-.148.012-.234.027m5.313.012c.156.023.359.039.453.039.117 0 .059-.012-.187-.039-.457-.055-.637-.051-.266 0m.711.07c.047.008.117.008.156 0s0-.016-.086-.016-.117.008-.07.016m.492.055l.375.043c.133-.004-.066-.035-.422-.07l-.219-.02.266.047m-7.562.113c-.109.035-.133.051-.062.039.125-.023.352-.102.281-.102-.027 0-.125.027-.219.063m8.266-.02l.297.043c.043-.004-.02-.023-.141-.043l-.297-.043c-.043.004.02.023.141.043m.43.07c.031.008.078.008.109 0s.004-.016-.055-.016-.086.004-.055.016m-9.039.055c-.07.027-.086.043-.047.043a.36.36 0 0 0 .141-.043c.098-.055.051-.055-.094 0m9.234 3.047l.008 1.539v-3.078c-.004-.848-.008-.152-.008 1.539M26.43 10.5c-.363.141-.91.402-.891.426.012.008.094-.027.184-.078.18-.098.398-.191.801-.348l.258-.113c0-.02-.043-.008-.352.113m-1.195.582c-1.027.586-2 1.531-2.684 2.605-.223.348-.691 1.273-.664 1.305.012.008.047-.051.086-.137a7.3 7.3 0 0 1 .582-1.113l.102-.164c0-.008.051-.09.113-.18.586-.836 1.398-1.617 2.199-2.121l.414-.246c.063-.035.117-.07.117-.078 0-.023 0-.023-.266.129m20.379-.035c.027.043.055.078.063.078s-.004-.035-.023-.078-.051-.078-.062-.078-.004.035.023.078M3.266 12.813c-.027.051-.043.094-.031.094s.035-.043.063-.094.043-.094.031-.094-.035.043-.062.094m44.395 1.859a.59.59 0 0 0 .059.141c.031.059.059.094.059.078a.59.59 0 0 0-.059-.141c-.031-.059-.059-.094-.059-.078m-45.41.16c-.02.047-.027.09-.02.098s.027-.031.047-.086c.039-.113.016-.125-.027-.012m19.508.457l-.102.289c.004.016.051-.09.109-.234l.102-.289c-.004-.016-.055.09-.109.234m-.227.703l-.176.75c.008.004.027-.062.051-.156l.078-.305.164-.645c-.008-.004-.059.152-.117.355m26.594-.238c0 .012.02.066.047.125s.043.086.043.059c0-.047-.086-.223-.09-.184m-46.402.344c-.02.055-.031.105-.023.113s.027-.035.047-.09.031-.105.023-.113-.027.035-.047.09m31.785.395h1.734c.477-.004.086-.008-.867-.008l-.867.008m-1.187.031c.047.008.125.008.172 0s.008-.016-.086-.016-.133.008-.086.016m-.508.055c-.184.055-.105.055.172 0 .172-.031.191-.039.094-.039-.07 0-.187.016-.266.039m-.391.094c-.121.055-.098.055.094 0 .094-.027.125-.043.078-.043s-.121.02-.172.043m-.309.094c-.133.047-.203.098-.082.063.172-.055.293-.105.25-.105-.027 0-.102.02-.168.043m-.414.184c-.617.332-1.051.773-1.344 1.371-.16.316-.125.297.047-.027.305-.59.727-1.008 1.332-1.332.121-.062.203-.117.188-.117s-.117.047-.223.105m-9.445.211c-.023.121-.035.227-.027.234s.031-.086.055-.207.035-.227.027-.234-.031.086-.055.207m-20.016.328c-.012.043-.016.086-.008.094s.02-.023.031-.07.016-.086.008-.094-.02.023-.031.07m19.957.074c0 .078.008.109.016.07s.008-.102 0-.141-.016-.008-.016.07m27.59.063c0 .027.02.098.043.156s.043.09.043.063-.02-.098-.043-.156-.043-.09-.043-.062m-27.641.316c-.016.121-.016.227-.008.234s.023-.086.035-.207.016-.23.008-.238-.023.086-.035.211m-.039.527c0 .129.004.18.012.117s.008-.172 0-.234-.012-.012-.012.117m8.07.258c-.102.289-.148.461-.137.516.016.047.016.043.02-.008a2.74 2.74 0 0 1 .094-.344c.094-.289.113-.406.023-.164m-8.105 3.125l-.008 3.086-6.297.016 6.313.031.008-1.559v-3.109c-.004-.852-.012-.164-.016 1.535M.801 19.051c-.012.043-.016.086-.008.094s.02-.023.031-.07.016-.086.008-.094-.02.023-.031.07m28.168.453c-.035.16-.047.719-.055 2.84l-.012 2.641 3.449-.016 3.445-.016-3.43-.008-3.434-.008.012-2.617.051-2.785c.023-.09.035-.18.027-.199s-.031.059-.055.168M.691 19.52c-.023.094-.035.18-.027.188s.031-.066.051-.164.035-.18.027-.187-.031.066-.051.164m48.598-.035a.48.48 0 0 0 .023.141c.02.063.023.066.023.016a.48.48 0 0 0-.023-.141c-.02-.062-.023-.066-.023-.016m.438 2.547c0 .059.004.086.016.055s.008-.078 0-.109-.016-.004-.016.055M.234 22.23c-.012.129-.016.254-.008.273s.023-.074.035-.219.016-.27.008-.277-.023.094-.035.223m49.523.066c0 .086.008.117.016.07s.008-.117 0-.156-.016 0-.016.086m.063.688c0 .086.008.117.016.07s.008-.117 0-.156-.016 0-.016.086m-49.656.094c0 .086.008.117.016.07s.008-.117 0-.156-.016 0-.016.086m49.691.313c0 .137.004.191.012.117s.008-.187 0-.25-.012-.004-.012.133m-49.719.141c0 .145.004.207.012.133a1.51 1.51 0 0 0 0-.266c-.008-.074-.012-.012-.012.133m49.75.609c0 .156.004.223.012.148a1.69 1.69 0 0 0 0-.281c-.008-.082-.012-.023-.012.133M.109 25l.008.477v-.953c-.004-.262-.008-.047-.008.477m14.656 3.609v3.625l6.297.016.016 17.359.016-17.391h-6.312l-.016-7.234v3.625m20.992-3.234l-.051.438c-.012.133.004.07.043-.172l.055-.437c-.004-.035-.023.043-.047.172m14.129.5c0 .145.004.207.012.133a1.51 1.51 0 0 0 0-.266c-.008-.074-.012-.012-.012.133m-14.258.367c-.02.121-.035.262-.031.313s.023-.039.047-.195l.031-.312c-.004-.016-.023.07-.047.195m-35.492.227c0 .145.004.207.012.133a1.51 1.51 0 0 0 0-.266c-.008-.074-.012-.012-.012.133m49.719.141c0 .137.004.191.012.117s.008-.187 0-.25-.012-.004-.012.133m-14.32.27c-.023.129-.035.262-.027.297s.016.023.02-.043c.004-.055.02-.168.039-.258s.027-.172.02-.195-.031.07-.051.199m-35.371.027c0 .094.008.133.016.086s.008-.125 0-.172-.016-.008-.016.086m49.656.125c0 .078.008.109.016.07s.008-.102 0-.141-.016-.008-.016.07m-49.625.203c0 .07.008.094.016.055s.004-.094 0-.125c-.012-.031-.016 0-.016.07m35.227.352l-.098.59c-.023.137-.043.293-.039.344.004.082.004.082.016.012l.156-.953c.027-.164.043-.305.035-.316s-.039.137-.07.324m-35.199.027a1.61 1.61 0 0 0 .027.262c.02.105.023.078.008-.109-.016-.266-.039-.359-.035-.152m49.527.113c-.008.078-.004.133.012.121s.02-.082.012-.148l-.008-.121-.016.148m-14.547 1.289l-.043.406c.008.008.039-.164.07-.379l.043-.402c-.008-.008-.039.16-.07.375m-.109.734c-.02.141-.031.258-.023.266s.031-.098.055-.234.031-.258.023-.266-.031.098-.055.234m14.285.297l-.02.141-.016.078.031-.078c.02-.039.027-.105.02-.141-.012-.062-.012-.062-.016 0m-14.34.125c0 .07.008.094.016.055s.004-.094 0-.125c-.012-.031-.016 0-.016.07m-34.363.234c.012.078.031.168.047.203.031.074 0-.148-.039-.266-.016-.051-.02-.031-.008.063m34.297.129c-.023.129-.035.262-.027.297s.016.023.02-.043c.004-.055.02-.168.039-.258s.027-.172.02-.195-.031.07-.051.199m14.297.031c-.027.129 0 .156.027.027.012-.055.016-.105.008-.113s-.023.031-.035.086m-14.402.621a2.54 2.54 0 0 0-.051.391c0 .051.027-.062.063-.25l.051-.391c-.008-.027-.035.086-.062.25m-.109.691c-.023.113-.039.238-.039.273v.066h-5.812l.016 17.391.016-17.359 5.797-.016.039-.234.031-.281c-.004-.027-.027.047-.047.16m-33.629.25c-.004.059.059.254.078.238.004-.004-.012-.074-.035-.148s-.043-.117-.043-.09m47.719.031c-.004.031-.012.078-.023.109-.016.055-.016.055.02.004.02-.031.027-.082.02-.109-.012-.051-.012-.051-.016-.004m-.109.359c-.012.043-.016.086-.008.094s.02-.023.031-.07.016-.086.008-.094-.02.023-.031.07m-1.141 2.934c-.051.117-.043.141.016.035.027-.047.043-.094.035-.102s-.031.023-.051.066m-44.801.859c.043.086.086.156.094.156s-.02-.07-.062-.156-.086-.156-.094-.156.02.07.063.156m1 1.777c.023.051.063.102.078.113s0-.031-.035-.094c-.078-.133-.109-.145-.043-.02m1.109 1.629c0 .012.035.066.078.125s.078.094.078.078c-.004-.031-.156-.23-.156-.203m.668.883a.94.94 0 0 0 .137.148c.02 0-.18-.246-.219-.273-.023-.012.016.047.082.125m.551.664c.059.059.113.109.121.109s-.031-.051-.09-.109-.113-.109-.121-.109.031.051.09.109m37.734-.016c-.051.051-.078.094-.059.094.027-.004.188-.187.16-.187-.008 0-.051.043-.102.094m-37.547.227c0 .008.047.055.102.105l.102.09-.09-.102c-.086-.094-.113-.117-.113-.094m37.063.32c-.074.078-.129.145-.121.148s.074-.055.148-.141c.172-.187.156-.195-.027-.008m-36.703.078c.066.07.129.125.137.125s-.039-.055-.105-.125-.129-.125-.137-.125.039.055.105.125m36.172.484l-.219.234c.012 0 .121-.105.25-.234l.219-.234c-.012 0-.121.105-.25.234m-35.687.023l.148.148c.023 0-.004-.027-.141-.156l-.148-.141.141.148m35.188.477l-.219.234c.012 0 .121-.105.25-.234l.219-.234c-.012 0-.121.105-.25.234m-34.75-.039c.129.137.156.164.156.141 0-.008-.066-.074-.148-.148l-.148-.141.141.148m.516.492c.066.07.129.125.137.125s-.039-.055-.105-.125-.129-.125-.137-.125.039.055.105.125m33.672.086l-.141.148.156-.141.168-.148c-.031-.008-.109.059-.184.141m-33.496.078c.008.004.07.059.137.117l.125.109-.109-.117c-.059-.062-.121-.117-.137-.117s-.023.004-.016.008m.367.313c.051.066.348.316.348.297 0-.008-.086-.09-.195-.184l-.152-.113m32.578.094l-.09.102.102-.09c.094-.086.117-.113.094-.113-.008 0-.055.047-.105.102m-32.059.355c.16.141.219.184.156.109a.6.6 0 0 0-.125-.105c-.035-.016-.047-.02-.031-.004m.672.523c0 .008.043.047.094.082s.094.059.094.051-.043-.047-.094-.082-.094-.059-.094-.051m2.719 1.828c.043.035.094.066.109.066.035 0-.023-.043-.125-.098-.043-.02-.035-.012.016.031m22.875 1.02c-.043.023-.062.043-.047.043s.066-.02.109-.043.063-.043.047-.043-.066.02-.109.043m-20.687.109a.59.59 0 0 0 .141.059c.016 0-.02-.027-.078-.059a.59.59 0 0 0-.141-.059c-.016 0 .02.027.078.059m20.406.016c-.043.023-.062.043-.047.043s.066-.02.109-.043.063-.043.047-.043-.066.02-.109.043m-19.344.438c.043.023.098.043.125.043s0-.02-.059-.043c-.133-.059-.168-.059-.066 0m.25.094c.043.023.098.043.125.043s0-.02-.059-.043c-.133-.059-.168-.059-.066 0m16.539.441c-.074.027-.133.055-.125.063.016.012.305-.082.305-.102s-.035-.012-.18.039m-15.211.027c.051.023.113.043.141.043s-.004-.02-.062-.043c-.145-.055-.199-.055-.078 0m.344.109a.32.32 0 0 0 .109.027c.031 0 .023-.012-.016-.027a.32.32 0 0 0-.109-.027c-.031 0-.023.012.016.027m14.453 0c-.062.02-.066.027-.016.027.035 0 .082-.012.109-.027.055-.035.016-.035-.094 0m-13.203.344a.32.32 0 0 0 .109.027c.031 0 .023-.012-.016-.027a.32.32 0 0 0-.109-.027c-.031 0-.023.012.016.027m.469.113c.086.023.176.039.203.039s-.023-.02-.109-.047-.176-.039-.203-.039.023.02.109.047m11.078-.02c-.062.02-.066.023-.016.027a.36.36 0 0 0 .125-.027c.078-.035-.004-.035-.109 0" fill="rgb(1.568627%,43.921569%,95.686275%)"/><path d="M30.414 9.836a1.69 1.69 0 0 0 .281 0c.074-.008.008-.012-.148-.012s-.215.004-.133.012m-.828.031c.039.008.102.008.141 0s.008-.016-.07-.016-.109.008-.07.016m2 0c.055.008.148.008.203 0s.012-.012-.102-.012-.156.004-.102.012m-2.359.031c.031.008.078.008.109 0s.004-.016-.055-.016-.086.004-.055.016m2.953 0c.039.008.102.008.141 0s.008-.016-.07-.016-.109.008-.07.016m1.203.094c.031.008.078.008.109 0s.004-.016-.055-.016-.086.004-.055.016m-9.434 2.078l-.09.102.102-.09c.055-.051.102-.098.102-.105 0-.023-.027 0-.113.094m9.559 4.391h1.734c.477-.004.086-.008-.867-.008l-.867.008m-12.375 2.133c0 .078.008.109.016.07s.008-.102 0-.141-.016-.008-.016.07m-.023 3.438l.008 1.461V20.57c-.004-.805-.008-.145-.008 1.461m-4.738 10.18h3.188c.871-.004.148-.008-1.605-.008l-1.582.008m13.961 0h2.906c.805-.004.156-.008-1.441-.008l-1.465.008m-9.223 8.695l.008 4.336V36.57c-.004-2.387-.008-.434-.008 4.336" fill="rgb(53.333333%,70.588235%,96.470588%)"/></svg>