<svg xmlns="http://www.w3.org/2000/svg" width="166.667" height="166.667" viewBox="0 0 125 125" fill-rule="evenodd" xmlns:v="https://vecta.io/nano"><path d="M56.625.133l-1.812.125c-.273.02-.555.066-.625.105s-.66.145-1.312.227L50.5 1c0 .051-.391.133-.871.18s-.902.133-.937.191-.402.145-.816.191-.781.137-.82.199-.234.113-.437.113-.367.059-.367.129-.133.094-.312.047c-.191-.047-.312-.023-.312.063 0 .074-.168.137-.375.137s-.375.051-.375.117-.309.152-.687.199-.687.137-.687.199-.125.109-.281.109-.426.078-.602.168-.484.207-.687.258c-.613.145-2.113.734-2.16.844-.023.059-.133.105-.25.105s-.367.086-.566.188-.422.188-.5.191-.367.113-.641.246-.598.242-.719.246-.219.059-.219.129-.113.125-.25.125-.25.051-.25.113-.168.152-.375.199-.375.129-.375.188-.168.141-.375.188-.375.133-.375.199-.086.113-.187.113-.187.055-.187.121-.07.094-.16.059-.285.055-.441.199-.328.227-.391.188-.129-.023-.152.027-.426.293-.898.535L30.211 8.77c-.402.266-.781.48-.844.48s-.117.051-.117.109-.098.148-.219.191c-.406.148-.906.461-.906.566 0 .059-.098.137-.219.18s-.363.176-.539.297l-.781.512c-.254.16-.461.344-.461.406s-.055.113-.121.113c-.172 0-1.254.777-1.254.898 0 .055-.074.102-.168.102s-.328.168-.531.371-.41.375-.465.375-.262.16-.453.348c-.453.445-1.008.918-1.008.859 0-.098-2.703 2.395-3.926 3.621l-3.621 3.926c.059 0-.414.555-.859 1.008-.187.191-.344.395-.348.453s-.172.266-.375.465-.371.441-.371.531-.047.168-.102.168c-.121 0-.898 1.082-.898 1.254 0 .066-.051.121-.113.121s-.246.207-.406.461l-.512.781c-.121.176-.254.418-.297.539s-.121.219-.18.219c-.105 0-.418.5-.566.906-.043.121-.129.219-.191.219s-.109.051-.109.117-.215.441-.48.844c-.508.766-.574.883-1.266 2.246-.242.473-.48.875-.535.898s-.062.09-.027.152-.047.238-.187.391-.23.352-.199.441.008.16-.059.16-.121.086-.121.188-.051.188-.113.188-.152.168-.199.375-.129.375-.187.375-.141.168-.187.375-.133.375-.199.375-.113.113-.113.25-.055.25-.125.25-.125.098-.129.219-.113.445-.246.719-.242.598-.246.719-.055.219-.113.219-.152.211-.199.469-.133.496-.184.531c-.113.078-.883 2.086-.883 2.309 0 .09-.086.324-.187.52s-.187.484-.187.641-.051.281-.109.281-.152.309-.199.688-.137.688-.199.688-.117.168-.117.375-.062.375-.137.375c-.086 0-.109.121-.062.313.047.18.023.313-.047.313s-.129.164-.129.367-.051.398-.113.438-.152.406-.199.82-.133.781-.191.816-.145.457-.191.938-.129.871-.184.871-.129.266-.168.594l-.453 3.094c-.473 0-.477 14.883-.008 16.688.105.395.301 1.691.469 3.094.035.293.109.531.16.531s.141.422.188.938.133.938.188.938.141.367.188.813.137.813.203.813.113.168.113.375.059.375.129.375.094.133.047.313c-.047.191-.023.313.063.313.074 0 .137.168.137.375s.051.375.113.375.152.281.199.625.129.652.184.688.137.313.184.625.137.563.203.563.117.109.117.238c0 .281.746 2.293.883 2.387.051.035.133.273.184.531s.137.469.199.469.109.098.109.219.082.371.176.555a3.43 3.43 0 0 1 .262.719c.043.211.133.383.199.383s.113.086.113.188.051.188.109.188.148.195.195.438.137.438.199.438.121.059.121.129c0 .262.758 1.746.891 1.746.074 0 .105.086.063.188s-.027.188.02.188c.098 0 .527.918.527 1.125 0 .07.055.125.125.125s.125.059.125.133.148.328.328.563.289.43.242.43.043.18.203.402c.387.539.582.863.676 1.129.043.121.121.219.176.219s.129.098.168.219c.09.262.277.566.738 1.172.188.254.344.5.344.551s.117.191.258.316.262.27.266.328c.023.25.273.648.371.59.059-.035.105.016.105.117s.043.203.098.227.23.254.387.512.336.469.402.469.113.059.113.133.168.313.375.531.375.449.375.508.133.234.293.383.348.367.41.484c.176.309 1.102 1.367 2.141 2.434.5.512.906.953.906.977 0 .094.449.59 1.055 1.156l.844.801c.125.121.25.219.277.219s.469.406.977.906c1.027 1.004 2.309 2.129 2.512 2.207.07.027.254.18.402.344s.324.293.387.297.273.172.473.375.441.371.531.371.168.047.168.102c0 .105 1.074.898 1.219.898.047 0 .199.125.34.281a2.83 2.83 0 0 0 1.035.715c.156.066.281.18.281.25s.113.129.25.129.25.059.25.129.125.184.281.25c.32.137.75.398.844.508s1.086.684 1.75 1.012c.309.152.598.324.641.387s.379.27.75.461l1.789.926c.613.316 1.191.578 1.281.578s.164.051.164.109.191.148.43.191.445.121.469.172c.063.141 1.43.773 1.848.859.207.039.379.125.379.184s.078.109.172.109.473.133.844.293.742.27.828.242.156-.004.156.059.324.223.719.352.777.273.852.324.367.133.656.18.523.125.523.176.309.137.688.184.688.129.688.188c0 .098.547.246 1.094.293.156.012.281.066.281.117s.168.094.375.094.375.051.375.113.367.156.813.203.813.133.813.191.395.141.879.188.906.137.945.195.277.109.539.109.512.043.563.094.273.109.492.129.762.09 1.207.16c2.059.32 2.871.367 7.594.445 5.246.082 9.5-.066 10.281-.363.102-.039.566-.105 1.031-.145s.992-.133 1.164-.199.512-.121.742-.121.453-.047.488-.109.461-.148.945-.195.902-.129.938-.187.398-.137.813-.184.754-.133.754-.191.309-.141.688-.191.715-.137.754-.199.238-.117.441-.117.367-.051.367-.113.281-.152.625-.199.625-.129.625-.184.254-.137.563-.184.563-.133.563-.187.223-.137.5-.18.691-.187.926-.32a3.54 3.54 0 0 1 .879-.328c.242-.043.445-.133.445-.195s.098-.109.219-.113.445-.113.719-.246.57-.242.656-.246.156-.059.156-.129.109-.125.238-.125c.258 0 1.047-.375 1.117-.531.023-.051.125-.094.227-.094s.59-.191 1.082-.422l1.086-.5c.102-.043.414-.223.688-.395.543-.34 1.012-.559 1.195-.559.066 0 .117-.055.117-.125s.078-.125.172-.125.238-.078.32-.176.383-.297.672-.441c.699-.352 1.633-.898 1.711-1.004a.88.88 0 0 1 .25-.176c.406-.191 1.73-1.062 1.977-1.297.094-.086.246-.156.344-.156s.18-.051.18-.117c0-.109 1.059-.883 1.211-.883.039 0 .203-.141.363-.312s.328-.312.371-.312c.086 0 .699-.484 1.34-1.062.191-.172.391-.312.441-.312s.34-.25.648-.559.609-.559.668-.562.375-.27.703-.598 1.008-.961 1.516-1.406c1.129-.996 1.117-.984 2.113-2.113.445-.508 1.078-1.191 1.406-1.516s.594-.641.598-.703.254-.359.563-.668.559-.602.559-.648.141-.25.313-.441c.578-.641 1.063-1.254 1.063-1.34 0-.043.141-.211.313-.371s.313-.324.313-.363c0-.152.773-1.211.883-1.211.066 0 .117-.082.117-.18s.07-.25.156-.344c.234-.246 1.105-1.57 1.297-1.977a.88.88 0 0 1 .176-.25c.105-.078.652-1.012 1.004-1.711.145-.289.344-.594.441-.672s.176-.227.176-.32.055-.172.125-.172.125-.051.125-.117c0-.184.219-.652.559-1.195.172-.273.352-.586.395-.687s.27-.59.5-1.086.422-.98.422-1.082.043-.203.094-.227c.156-.07.531-.859.531-1.117 0-.129.055-.238.125-.238s.125-.07.129-.156.113-.383.246-.656.242-.598.246-.719.055-.219.113-.219.152-.203.195-.445a3.54 3.54 0 0 1 .328-.879c.133-.234.277-.652.32-.926s.125-.5.18-.5.141-.254.188-.562.129-.562.184-.562.137-.281.184-.625.137-.625.199-.625.113-.164.113-.367.051-.398.117-.441.152-.379.199-.754.133-.687.191-.687.145-.34.191-.754.129-.781.184-.812.141-.457.188-.937.137-.906.195-.945.109-.254.109-.488.055-.566.121-.742.156-.699.199-1.164.105-.93.145-1.031c.297-.781.445-5.035.363-10.281-.078-4.723-.125-5.535-.445-7.594-.07-.445-.141-.992-.16-1.207s-.078-.441-.129-.492-.094-.305-.094-.562-.047-.504-.109-.539-.148-.465-.195-.945-.129-.879-.184-.879-.137-.352-.184-.781-.137-.801-.203-.824-.125-.203-.125-.406-.043-.363-.094-.363-.105-.125-.117-.281c-.047-.547-.195-1.094-.293-1.094-.059 0-.141-.309-.187-.687s-.129-.687-.184-.687-.129-.227-.172-.504-.133-.602-.195-.719-.32-.777-.574-1.465c-.711-1.918-.742-1.996-.82-2.062-.043-.035-.117-.23-.164-.434-.109-.441-.723-1.738-.852-1.793-.051-.023-.125-.234-.172-.469s-.129-.43-.191-.43-.109-.07-.109-.156c0-.148-.18-.516-1.105-2.281-.215-.414-.391-.82-.395-.906s-.055-.156-.125-.156-.125-.082-.125-.18a.37.37 0 0 0-.164-.281c-.09-.055-.289-.355-.441-.664-.324-.66-.898-1.66-1.008-1.75s-.371-.523-.508-.844c-.066-.156-.18-.281-.25-.281s-.129-.113-.129-.25-.059-.25-.129-.25-.184-.125-.25-.281a2.83 2.83 0 0 0-.715-1.035c-.156-.141-.281-.293-.281-.34 0-.145-.793-1.219-.898-1.219-.055 0-.102-.074-.102-.168s-.168-.328-.371-.531-.375-.414-.375-.473-.137-.234-.297-.387-.316-.332-.344-.402c-.078-.203-1.203-1.484-2.207-2.512-.5-.508-.906-.949-.906-.977s-.098-.152-.219-.277l-.801-.844c-.566-.605-1.062-1.055-1.156-1.055-.023 0-.465-.406-.977-.906-1.066-1.039-2.125-1.965-2.434-2.141-.117-.062-.336-.25-.484-.41s-.32-.293-.383-.293-.289-.168-.508-.375-.461-.375-.531-.375-.133-.051-.133-.113-.211-.246-.469-.402-.488-.332-.512-.387-.125-.098-.227-.098-.152-.047-.117-.105c.059-.094-.539-.453-.652-.398-.023.012-.145-.098-.266-.238s-.266-.258-.316-.258-.297-.156-.551-.344c-.605-.461-.91-.648-1.172-.738-.121-.039-.219-.113-.219-.168s-.098-.133-.219-.176c-.266-.094-.59-.289-1.129-.676-.223-.16-.402-.25-.402-.203s-.191-.062-.43-.242-.488-.328-.562-.328-.133-.055-.133-.125-.055-.125-.125-.125c-.207 0-1.125-.43-1.125-.527 0-.047-.086-.059-.187-.02s-.187.012-.187-.062c0-.133-1.484-.891-1.746-.891-.07 0-.129-.055-.129-.121s-.195-.156-.437-.199-.437-.133-.437-.195-.086-.109-.187-.109-.187-.051-.187-.113-.172-.156-.383-.199a3.43 3.43 0 0 1-.719-.262c-.184-.094-.434-.176-.555-.176s-.219-.051-.219-.109-.211-.152-.469-.199-.496-.133-.531-.184c-.094-.137-2.105-.883-2.387-.883-.129 0-.238-.055-.238-.117s-.254-.156-.562-.203-.594-.129-.625-.184-.344-.137-.687-.184-.625-.137-.625-.199-.168-.113-.375-.113-.375-.062-.375-.137c0-.086-.121-.109-.312-.062-.18.047-.312.023-.312-.047s-.168-.129-.375-.129S78 1.824 78 1.766s-.367-.152-.812-.199-.812-.133-.812-.191-.422-.145-.937-.191-.937-.133-.937-.187-.238-.125-.531-.16C72.566.668 71.27.473 70.875.367 69.617.039 60.113-.117 56.625.133m6.395 23.227c.023.059.176.148.34.199.203.063.27.051.211-.047-.047-.074-.004-.137.098-.137s.211.078.25.18c.043.109.176.152.355.113.23-.051.25-.039.102.07s-.125.133.145.137c.18 0 .359.086.402.188s.172.188.293.188.297.113.383.254.215.223.285.18.109-.004.09.082.031.164.109.168.195.055.25.117c.063.066.039.078-.051.023-.242-.141-.184-.012.117.25.172.152.23.172.164.051-.059-.113-.055-.145.012-.082.063.055.117.168.117.25s.09.125.188.102.141 0 .09.051c-.133.137.156.441.328.344.078-.043.098-.031.047.023-.117.133.148.457.297.363.063-.039.102.004.082.09s.031.164.109.168.195.055.25.117c.063.066.039.078-.051.023-.242-.141-.184-.012.117.25.172.152.23.172.164.051-.059-.113-.055-.145.012-.082.063.055.117.168.117.25s.09.125.188.102.141 0 .09.051c-.121.125.152.449.297.355.063-.039.102.004.082.09s.031.164.109.168.195.055.25.117c.063.066.039.078-.051.023-.242-.141-.184-.012.117.25.172.152.23.172.164.051-.059-.113-.055-.145.012-.082.063.055.117.168.117.25s.078.129.168.109.129.02.09.082c-.094.148.23.414.363.297.055-.051.066-.031.023.047-.098.172.207.461.344.328.051-.051.074-.012.051.09s.023.184.102.188.195.055.25.117c.063.066.039.078-.051.023-.242-.141-.184-.012.117.25.172.152.23.172.164.051-.059-.113-.055-.145.012-.082.063.055.117.168.117.25s.078.129.168.109.129.02.09.082c-.094.145.23.418.355.297.051-.051.074-.012.051.09s.023.184.102.188.195.055.25.117c.063.066.039.078-.051.023-.242-.141-.184-.012.117.25.172.152.23.172.164.051-.059-.113-.055-.145.012-.082.063.055.117.168.117.25s.09.125.188.102.141 0 .09.051c-.133.137.156.441.328.344.078-.043.098-.031.047.023-.117.133.148.457.297.363.063-.039.102.004.082.09s.031.164.109.168.195.055.25.117c.063.066.039.078-.051.023-.242-.141-.184-.012.117.25.172.152.23.172.164.051-.059-.113-.055-.145.012-.082.063.055.117.168.117.25s.09.125.188.102.141 0 .09.051c-.121.125.152.449.297.355.063-.039.102.004.082.09s.031.164.109.168.195.055.25.117c.063.066.039.078-.051.023-.242-.141-.184-.012.117.25.172.152.23.172.164.051-.059-.113-.055-.145.012-.082.063.055.117.168.117.25s.09.125.188.102.141 0 .09.051c-.133.137.156.441.328.344.078-.043.098-.031.047.023-.117.133.148.457.297.363.063-.039.102.004.082.09s.031.164.109.168.195.055.25.117c.063.066.039.078-.051.023-.242-.141-.184-.012.117.25.172.152.23.172.164.051-.059-.113-.055-.145.012-.082.063.055.117.168.117.25s.078.129.168.109.129.02.09.082c-.094.145.23.418.355.297.051-.051.074-.012.051.09s.023.184.102.188.195.055.25.117c.063.066.039.078-.051.023-.242-.141-.184-.012.117.25.172.152.23.172.164.051-.059-.113-.055-.145.012-.082.063.055.117.168.117.25s.078.129.168.109.129.02.09.082c-.094.148.23.414.363.297.055-.051.066-.031.023.047-.098.172.207.461.344.328.051-.051.074-.012.051.09s.023.184.102.188.195.055.25.117c.063.066.039.078-.051.023-.242-.141-.184-.012.117.25.172.152.23.172.164.051-.059-.113-.055-.145.012-.082.063.055.117.168.117.25s.09.125.188.102.141 0 .09.051c-.121.125.152.449.297.355.063-.039.102.004.082.09s.031.164.109.168.195.055.25.117c.063.066.039.078-.051.023-.242-.141-.184-.012.117.25.172.152.23.172.164.051-.059-.113-.055-.145.012-.082.063.055.117.168.117.25s.09.125.188.102.141 0 .09.051c-.133.137.156.441.328.344.078-.043.098-.031.047.023-.117.133.148.457.297.363.063-.039.102.004.082.09s.031.164.109.168.195.055.25.117c.063.066.039.078-.051.023-.242-.141-.184-.012.117.25.172.152.23.172.164.051-.059-.113-.055-.145.012-.082.063.055.117.168.117.25s.09.125.188.102.141 0 .09.051c-.121.125.152.449.297.355.063-.039.102.004.082.09s.031.164.109.168.195.055.25.117c.063.066.039.078-.051.023-.242-.141-.184-.012.117.25.172.152.23.172.164.051-.059-.113-.055-.145.012-.082.063.055.117.168.117.25s.09.125.188.102.141 0 .09.051c-.133.137.156.441.328.344.078-.043.098-.031.047.023-.117.133.148.457.297.363.063-.039.102.004.082.09s.031.164.109.168.195.055.25.117c.063.066.039.078-.051.023-.242-.141-.184-.012.117.25.172.152.23.172.164.051-.059-.113-.055-.145.012-.082.063.055.117.168.117.25s.09.125.188.102.141 0 .09.051c-.121.125.152.449.297.355.063-.039.102.004.082.09s.031.164.109.168.195.055.25.117c.063.066.039.078-.051.023-.242-.141-.184-.012.117.25.172.152.23.172.164.051-.059-.113-.055-.145.012-.082.063.055.117.168.117.25s.09.125.188.102.141 0 .09.051c-.133.137.156.441.328.344.078-.043.098-.031.047.023-.117.133.148.457.297.363.063-.039.102.004.082.09s.031.164.109.168.195.055.25.117c.063.066.039.078-.051.023-.242-.141-.184-.012.117.25.172.152.23.172.164.051-.059-.113-.055-.145.012-.082.063.055.117.168.117.25s.09.125.188.102.141 0 .09.051c-.121.125.152.449.297.355.063-.039.102.004.082.09s.031.164.109.168.195.055.25.117c.063.066.039.078-.051.023-.242-.141-.184-.012.117.25.172.152.23.172.164.051-.059-.113-.055-.145.012-.082.063.055.117.168.117.25s.09.125.188.102.141 0 .09.051c-.133.137.156.441.328.344.078-.043.098-.031.047.023-.117.133.148.457.297.363.063-.039.102.004.082.09s.031.164.109.168.195.055.25.117c.063.066.039.078-.051.023-.242-.141-.184-.012.117.25.172.152.23.172.164.051-.059-.113-.055-.145.012-.082.063.055.117.168.117.25s.09.125.188.102.141 0 .09.051c-.121.125.152.449.297.355.063-.039.102.004.082.09s.031.164.109.168.195.055.25.117c.063.066.039.078-.051.023-.242-.141-.184-.012.117.25.172.152.23.172.164.051-.059-.113-.055-.145.012-.082.063.055.117.168.117.25s.078.129.168.109.129.02.09.082c-.094.148.23.414.363.297.055-.051.066-.031.023.047-.098.172.207.461.344.328.051-.051.074-.012.051.09s.023.184.102.188.195.055.25.117c.063.066.039.078-.051.023-.242-.141-.184-.012.117.25.172.152.23.172.164.051-.059-.113-.055-.145.012-.082.063.055.117.168.117.25s.09.125.188.102.141 0 .09.051c-.121.125.152.449.297.355.063-.039.102.004.082.09s.031.164.109.168.195.055.25.117c.063.066.039.078-.051.023-.242-.141-.184-.012.117.25.172.152.23.172.164.051-.059-.113-.055-.145.012-.082.063.055.117.168.117.25s.09.125.188.102.141 0 .09.051c-.133.137.156.441.328.344.078-.043.098-.031.047.023-.117.133.148.457.297.363.063-.039.102.004.082.09s.031.164.109.168.195.055.25.117c.063.066.039.078-.051.023-.242-.141-.184-.012.117.25.172.152.23.172.164.051-.059-.113-.055-.145.012-.082.063.055.117.168.117.25s.09.125.188.102.141 0 .09.051c-.129.133.156.445.316.348.074-.047.09-.02.043.059s.027.211.168.301.254.23.254.324.055.129.125.086.09.008.047.117-.012.195.066.195.129.043.121.094c-.039.258.031.414.152.336.082-.051.121.012.098.148-.051.355.137 1.172.27 1.172.195 0 .141 1.23-.07 1.551a1.69 1.69 0 0 0-.207.738c-.008.25-.062.422-.121.387s-.113-.008-.121.066c-.016.141-.059.32-.109.477a.51.51 0 0 0-.016.188c.008.051-.055.078-.141.063s-.141.039-.125.125-.02.156-.078.156-.207.148-.328.328-.145.285-.055.23c.102-.062.125-.047.066.047-.051.078-.168.145-.262.145s-.211.066-.262.145c-.059.094-.035.109.074.043s.133-.051.074.043c-.051.078-.156.145-.234.145-.195 0-1.715 1.516-1.715 1.707 0 .086-.066.191-.145.242-.094.059-.109.035-.043-.074s.051-.133-.043-.074c-.078.051-.145.168-.145.262s-.066.211-.145.262c-.09.055-.109.035-.055-.055.145-.234.004-.164-.25.129-.133.148-.16.223-.062.168.117-.07.145-.059.086.039-.051.078-.168.145-.262.145s-.211.066-.262.145c-.059.094-.035.109.074.043s.133-.051.074.043c-.051.078-.156.145-.234.145-.195 0-1.715 1.516-1.715 1.707 0 .086-.066.191-.145.242-.094.059-.109.035-.043-.074s.051-.133-.043-.074c-.078.051-.145.168-.145.262s-.066.211-.145.262c-.09.055-.109.035-.055-.055.145-.234.004-.164-.25.129-.133.148-.16.223-.062.168.117-.07.145-.059.086.039-.051.078-.168.145-.262.145s-.211.066-.262.145c-.059.094-.035.109.074.043s.133-.051.074.043c-.051.078-.156.145-.234.145-.195 0-1.715 1.516-1.715 1.707 0 .086-.066.191-.145.242-.094.059-.109.035-.043-.074s.051-.133-.043-.074c-.078.051-.145.168-.145.262s-.066.211-.145.262c-.09.055-.109.035-.055-.055.145-.234.004-.164-.25.129-.133.148-.16.223-.062.168.117-.07.145-.059.086.039-.051.078-.168.145-.262.145s-.211.066-.262.145c-.059.094-.035.109.074.043s.133-.051.074.043c-.051.078-.156.145-.234.145-.195 0-1.715 1.516-1.715 1.707 0 .086-.066.191-.145.242-.094.059-.109.035-.043-.074s.051-.133-.043-.074c-.078.051-.145.168-.145.262s-.066.211-.145.262c-.09.055-.109.035-.055-.055.145-.234.004-.164-.25.129-.133.148-.16.223-.062.168.117-.07.145-.059.086.039-.051.078-.168.145-.262.145s-.211.066-.262.145c-.059.094-.035.109.074.043s.133-.051.074.043c-.051.078-.156.145-.234.145-.195 0-1.715 1.516-1.715 1.707 0 .086-.066.191-.145.242-.094.059-.109.035-.043-.074s.051-.133-.043-.074c-.078.051-.145.168-.145.262s-.066.211-.145.262c-.09.055-.109.035-.055-.055.145-.234.004-.164-.25.129-.133.148-.16.223-.062.168.117-.07.145-.059.086.039-.051.078-.168.145-.262.145s-.211.066-.262.145c-.059.094-.035.109.074.043s.133-.051.074.043c-.051.078-.156.145-.234.145-.195 0-1.715 1.516-1.715 1.707 0 .086-.066.191-.145.242-.094.059-.109.035-.043-.074s.051-.133-.043-.074c-.078.051-.145.168-.145.262s-.066.211-.145.262c-.09.055-.109.035-.055-.055.145-.234.004-.164-.25.129-.133.148-.16.223-.062.168.117-.07.145-.059.086.039-.051.078-.168.145-.262.145s-.211.066-.262.145c-.059.094-.035.109.074.043s.133-.051.074.043c-.051.078-.156.145-.234.145-.195 0-1.715 1.516-1.715 1.707 0 .086-.066.191-.145.242-.094.059-.109.035-.043-.074s.051-.133-.043-.074c-.078.051-.145.168-.145.262s-.066.211-.145.262c-.09.055-.109.035-.055-.055.145-.234.004-.164-.25.129-.133.148-.16.223-.062.168.117-.07.145-.059.086.039-.051.078-.168.145-.262.145s-.211.066-.262.145c-.059.094-.035.109.074.043s.133-.051.074.043c-.051.078-.156.145-.234.145-.195 0-1.715 1.516-1.715 1.707 0 .086-.066.191-.145.242-.094.059-.109.035-.043-.074s.051-.133-.043-.074c-.078.051-.145.168-.145.262s-.066.211-.145.262c-.09.055-.109.035-.055-.055.145-.234.004-.164-.25.129-.133.148-.16.223-.062.168.117-.07.145-.059.086.039-.051.078-.168.145-.262.145s-.211.066-.262.145c-.059.094-.035.109.074.043s.133-.051.074.043c-.051.078-.156.145-.234.145-.195 0-1.715 1.516-1.715 1.707 0 .086-.066.191-.145.242-.094.059-.109.035-.043-.074s.051-.133-.043-.074c-.078.051-.145.168-.145.262s-.066.211-.145.262c-.09.055-.109.035-.055-.055.145-.234.004-.164-.25.129-.133.148-.16.223-.062.168.117-.07.145-.059.086.039-.051.078-.168.145-.262.145s-.211.066-.262.145c-.059.094-.035.109.074.043s.133-.051.074.043c-.051.078-.156.145-.234.145-.195 0-1.715 1.516-1.715 1.707 0 .086-.066.191-.145.242-.094.059-.109.035-.043-.074s.051-.133-.043-.074c-.078.051-.145.168-.145.262s-.066.211-.145.262c-.09.055-.109.035-.055-.055.145-.234.004-.164-.25.129-.133.148-.16.223-.062.168.117-.07.145-.059.086.039-.051.078-.168.145-.262.145s-.211.066-.262.145c-.059.094-.035.109.074.043s.133-.051.074.043c-.051.078-.156.145-.234.145-.195 0-1.715 1.516-1.715 1.707 0 .086-.066.191-.145.242-.094.059-.109.035-.043-.074s.051-.133-.043-.074c-.078.051-.145.168-.145.262s-.066.211-.145.262c-.094.059-.109.035-.047-.066.055-.09-.051-.062-.23.055s-.328.266-.328.328-.07.094-.156.078-.141.039-.125.125-.012.148-.062.141a.51.51 0 0 0-.187.016c-.156.051-.336.094-.477.109-.074.008-.098.07-.059.133s-.027.109-.148.102c-.395-.023-1.16.164-1.16.285 0 .066-.281.121-.625.121s-.625-.051-.625-.113c0-.129-.934-.324-1.297-.273-.137.02-.195-.02-.148-.102.078-.121-.078-.191-.336-.152-.051.008-.094-.047-.094-.121s-.086-.105-.195-.066-.16.023-.117-.047.004-.125-.086-.125-.238-.113-.324-.254c-.094-.148-.227-.219-.312-.168s-.109.039-.059-.016c.117-.133-.148-.457-.297-.363-.062.039-.102-.004-.082-.09s-.031-.164-.109-.168-.195-.055-.25-.117c-.062-.066-.039-.078.051-.023.242.141.184.012-.117-.25-.172-.152-.23-.172-.164-.051.059.113.055.145-.012.082-.062-.055-.117-.168-.117-.25s-.09-.125-.187-.102-.141 0-.09-.051c.133-.137-.156-.441-.328-.344-.078.043-.098.031-.047-.023.117-.133-.148-.457-.297-.363-.062.039-.102-.004-.082-.09s-.031-.164-.109-.168-.195-.055-.25-.117c-.062-.066-.039-.078.051-.023.242.141.184.012-.117-.25-.172-.152-.23-.172-.164-.051.059.113.055.145-.012.082-.062-.055-.117-.168-.117-.25s-.09-.125-.187-.102-.141 0-.09-.051c.121-.125-.152-.449-.297-.355-.062.039-.102-.004-.082-.09s-.031-.164-.109-.168-.195-.055-.25-.117c-.062-.066-.039-.078.051-.023.242.141.184.012-.117-.25-.172-.152-.23-.172-.164-.051.059.113.055.145-.012.082-.062-.055-.117-.168-.117-.25s-.09-.125-.187-.102-.141 0-.09-.051c.133-.137-.156-.441-.328-.344-.078.043-.098.031-.047-.023.117-.133-.148-.457-.297-.363-.062.039-.102-.004-.082-.09s-.031-.164-.109-.168-.195-.055-.25-.117c-.062-.066-.039-.078.051-.023.242.141.184.012-.117-.25-.172-.152-.23-.172-.164-.051.059.113.055.145-.012.082-.062-.055-.117-.168-.117-.25s-.09-.125-.187-.102-.141 0-.09-.051c.121-.125-.152-.449-.297-.355-.062.039-.102-.004-.082-.09s-.031-.164-.109-.168-.195-.055-.25-.117c-.062-.066-.039-.078.051-.023.242.141.184.012-.117-.25-.172-.152-.23-.172-.164-.051.059.113.055.145-.012.082-.062-.055-.117-.168-.117-.25s-.09-.125-.187-.102-.141 0-.09-.051c.133-.137-.156-.441-.328-.344-.078.043-.098.031-.047-.023.117-.133-.148-.457-.297-.363-.062.039-.102-.004-.082-.09s-.031-.164-.109-.168-.195-.055-.25-.117c-.062-.066-.039-.078.051-.023.242.141.184.012-.117-.25-.172-.152-.23-.172-.164-.051.059.113.055.145-.012.082-.062-.055-.117-.168-.117-.25s-.09-.125-.187-.102-.141 0-.09-.051c.121-.125-.152-.449-.297-.355-.062.039-.102-.004-.082-.09s-.031-.164-.109-.168-.195-.055-.25-.117c-.062-.066-.039-.078.051-.023.242.141.184.012-.117-.25-.172-.152-.23-.172-.164-.051.059.113.055.145-.012.082-.062-.055-.117-.168-.117-.25s-.09-.125-.187-.102-.141 0-.09-.051c.133-.137-.156-.441-.328-.344-.078.043-.098.031-.047-.023.117-.133-.148-.457-.297-.363-.062.039-.102-.004-.082-.09s-.031-.164-.109-.168-.195-.055-.25-.117c-.062-.066-.039-.078.051-.023.242.141.184.012-.117-.25-.172-.152-.23-.172-.164-.051.059.113.055.145-.012.082-.062-.055-.117-.168-.117-.25s-.09-.125-.187-.102-.141 0-.09-.051c.121-.125-.152-.449-.297-.355-.062.039-.102-.004-.082-.09s-.031-.164-.109-.168-.195-.055-.25-.117c-.062-.066-.039-.078.051-.023.242.141.184.012-.117-.25-.172-.152-.23-.172-.164-.051.059.113.055.145-.012.082-.062-.055-.117-.168-.117-.25s-.078-.129-.168-.109-.129-.02-.09-.082c.094-.148-.23-.414-.363-.297-.055.051-.066.031-.023-.047.098-.172-.207-.461-.344-.328-.051.051-.074.012-.051-.09s-.023-.184-.102-.187-.195-.055-.25-.117c-.062-.066-.039-.078.051-.023.242.141.184.012-.117-.25-.172-.152-.23-.172-.164-.051.059.113.055.145-.012.082-.062-.055-.117-.168-.117-.25s-.078-.129-.168-.109-.129-.02-.09-.082c.094-.145-.23-.418-.355-.297-.051.051-.074.012-.051-.09s-.023-.184-.102-.187-.195-.055-.25-.117c-.062-.066-.039-.078.051-.023.242.141.184.012-.117-.25-.172-.152-.23-.172-.164-.051.059.113.055.145-.012.082-.062-.055-.117-.168-.117-.25s-.078-.129-.168-.109-.129-.02-.09-.082c.094-.148-.23-.414-.363-.297-.055.051-.066.031-.023-.047.098-.172-.207-.461-.344-.328-.051.051-.074.012-.051-.09s-.023-.184-.102-.187-.195-.055-.25-.117c-.062-.066-.039-.078.051-.023.242.141.184.012-.117-.25-.172-.152-.23-.172-.164-.051.059.113.055.145-.012.082-.062-.055-.117-.168-.117-.25s-.078-.129-.168-.109-.129-.02-.09-.082c.094-.145-.23-.418-.355-.297-.051.051-.074.012-.051-.09s-.023-.184-.102-.187-.195-.055-.25-.117c-.062-.066-.039-.078.051-.023.242.141.184.012-.117-.25-.172-.152-.23-.172-.164-.051.059.113.055.145-.012.082-.062-.055-.117-.168-.117-.25s-.078-.129-.168-.109-.129-.02-.09-.082c.094-.148-.23-.414-.363-.297-.055.051-.066.031-.023-.047.098-.172-.207-.461-.344-.328-.051.051-.074.012-.051-.09s-.023-.184-.102-.187-.195-.055-.25-.117c-.062-.066-.039-.078.051-.023.242.141.184.012-.117-.25-.172-.152-.23-.172-.164-.051.059.113.055.145-.012.082-.062-.055-.117-.168-.117-.25s-.078-.129-.168-.109-.129-.02-.09-.082c.094-.145-.23-.418-.355-.297-.051.051-.074.012-.051-.09s-.023-.184-.102-.187-.195-.055-.25-.117c-.062-.066-.039-.078.051-.023.242.141.184.012-.117-.25-.172-.152-.23-.172-.164-.051.059.113.055.145-.012.082-.062-.055-.117-.168-.117-.25s-.078-.129-.168-.109-.129-.02-.09-.082c.094-.148-.23-.414-.363-.297-.055.051-.066.031-.023-.047.098-.172-.207-.461-.344-.328-.051.051-.074.012-.051-.09s-.023-.184-.102-.187-.195-.055-.25-.117c-.062-.066-.039-.078.051-.023.242.141.184.012-.117-.25-.172-.152-.23-.172-.164-.051.059.113.055.145-.012.082-.062-.055-.117-.168-.117-.25s-.078-.129-.168-.109-.129-.02-.09-.082c.094-.145-.23-.418-.355-.297-.051.051-.074.012-.051-.09s-.023-.184-.102-.187-.195-.055-.25-.117c-.062-.066-.039-.078.051-.023.242.141.184.012-.117-.25-.172-.152-.23-.172-.164-.051.059.113.055.145-.012.082-.062-.055-.117-.168-.117-.25s-.078-.129-.168-.109-.129-.02-.09-.082c.094-.148-.23-.414-.363-.297-.055.051-.066.031-.023-.047.098-.172-.207-.461-.344-.328-.051.051-.074.012-.051-.09s-.023-.184-.102-.187-.195-.055-.25-.117c-.062-.066-.039-.078.051-.023.242.141.184.012-.117-.25-.172-.152-.23-.172-.164-.051.059.113.055.145-.012.082-.062-.055-.117-.168-.117-.25s-.078-.129-.168-.109-.129-.02-.09-.082c.094-.145-.23-.418-.355-.297-.051.051-.074.012-.051-.09s-.023-.184-.102-.187-.195-.055-.25-.117c-.062-.066-.039-.078.051-.023.242.141.184.012-.117-.25-.172-.152-.23-.172-.164-.051.059.113.055.145-.012.082-.062-.055-.117-.168-.117-.25s-.078-.129-.168-.109-.129-.02-.09-.082c.094-.148-.23-.414-.363-.297-.055.051-.066.031-.023-.047.098-.172-.207-.461-.344-.328-.051.051-.074.012-.051-.09s-.023-.184-.102-.187-.195-.055-.25-.117c-.062-.066-.039-.078.051-.023.242.141.184.012-.117-.25-.172-.152-.23-.172-.164-.051.059.113.055.145-.012.082-.062-.055-.117-.168-.117-.25s-.078-.129-.168-.109-.129-.02-.09-.082c.094-.145-.23-.418-.355-.297-.051.051-.074.012-.051-.09s-.023-.184-.102-.187-.195-.055-.25-.117c-.062-.066-.039-.078.051-.023.242.141.184.012-.117-.25-.172-.152-.23-.172-.164-.051.059.113.055.145-.012.082-.062-.055-.117-.168-.117-.25s-.09-.125-.187-.102-.141 0-.09-.051c.133-.137-.156-.441-.328-.344-.078.043-.098.031-.047-.023.117-.133-.148-.457-.297-.363-.062.039-.102-.004-.082-.09s-.031-.164-.109-.168-.195-.055-.25-.117c-.062-.066-.039-.078.051-.023.242.141.184.012-.117-.25-.172-.152-.23-.172-.164-.051.059.113.055.145-.012.082-.062-.055-.117-.168-.117-.25s-.078-.129-.168-.109-.125-.023-.082-.09-.039-.195-.18-.285-.254-.258-.254-.383-.086-.254-.187-.293-.187-.223-.187-.402c-.004-.266-.031-.293-.133-.145s-.121.141-.09-.074a.7.7 0 0 0-.137-.469c-.094-.113-.121-.207-.062-.207.152 0 .137-2.289-.016-2.41-.078-.059-.047-.141.082-.215s.184-.227.145-.406c-.047-.227-.035-.246.074-.094.137.191.137.188.137-.312 0-.035.113-.176.254-.316s.223-.309.18-.375-.012-.121.063-.121c.191 0 .949-.891.898-1.055-.023-.074 0-.09.051-.039.137.133.441-.156.344-.328-.043-.078-.031-.098.027-.043.141.129 1.07-.789.973-.961-.043-.074-.031-.094.023-.043.145.129.453-.156.352-.328-.043-.078-.031-.098.027-.043.141.129 1.445-1.164 1.344-1.336-.039-.074-.027-.094.027-.043.141.125.453-.152.355-.316-.047-.07-.027-.094.043-.051.141.086 1.078-.824.98-.953-.035-.047-.031-.059.016-.023.137.102.422-.203.332-.359-.043-.078-.031-.098.027-.043.141.129 1.445-1.164 1.344-1.336-.039-.074-.027-.094.031-.039.141.129 1.445-1.164 1.344-1.336-.039-.074-.027-.094.027-.043.145.129.453-.156.352-.328-.043-.078-.031-.098.027-.043.141.129 1.445-1.164 1.344-1.336-.039-.074-.027-.094.027-.043.145.129.453-.156.352-.328-.043-.078-.039-.102.012-.059.121.109 1.023-.773.969-.949-.023-.07 0-.09.051-.039.137.133.441-.156.344-.328-.043-.078-.031-.098.027-.043.141.129 1.445-1.164 1.344-1.336-.039-.074-.031-.098.02-.051.117.105.441-.172.363-.305-.031-.051-.008-.094.051-.094.184 0 .906-.699.906-.875 0-.094.035-.133.074-.09.113.113.41-.203.332-.348-.039-.07-.023-.082.035-.027.141.129 1.445-1.164 1.344-1.336-.039-.074-.031-.098.02-.051.117.105.441-.172.363-.305-.031-.051-.008-.094.051-.094.184 0 .906-.699.906-.875 0-.094.035-.133.074-.09.113.113.41-.203.332-.348-.039-.07-.023-.082.035-.027.141.129 1.445-1.164 1.344-1.336-.039-.074-.031-.098.02-.051.117.105.441-.172.363-.305-.031-.051-.008-.094.051-.094.176 0 .906-.695.906-.863 0-.082.043-.125.094-.094.113.066.414-.234.336-.344-.031-.039-.016-.043.031-.008.137.102 1.414-1.219 1.324-1.367-.039-.074-.027-.094.027-.043.145.129.453-.156.352-.328-.043-.078-.035-.102.02-.051s.262-.086.465-.301l.363-.391.191.273c.105.148.254.23.336.184s.105-.035.051.023c-.129.141.789 1.07.961.973.074-.043.094-.031.043.023-.129.145.156.453.328.352.078-.043.098-.031.043.027-.125.137.789 1.07.949.973.07-.043.09-.02.043.051-.098.164.215.441.355.316.055-.051.066-.031.023.047-.09.156.195.461.332.359.047-.035.051-.023.016.023-.102.133.84 1.039.992.953.074-.043.094-.031.043.023-.129.145.156.453.328.352.078-.043.098-.031.047.023-.129.145.156.453.328.352.078-.043.098-.031.047.023-.129.145.406.699.582.602.074-.043.094-.031.043.023-.129.145.156.453.328.352.078-.043.098-.031.047.023-.129.145.156.453.328.352.078-.043.098-.031.043.027-.129.141.789 1.07.961.973.074-.043.094-.031.043.023-.129.145.156.453.328.352.078-.043.098-.031.047.023-.125.141.152.453.316.355.07-.047.09-.023.047.051s.063.254.242.395c.258.199.289.273.145.328-.113.047-.164.195-.137.41.039.289.031.301-.07.086-.141-.297-.141-.297-.148 1.625-.008 1.895-.008 1.906.148 1.688.109-.152.121-.133.074.094-.039.18.012.324.145.402.113.066.141.121.055.125s-.121.09-.082.191.129.152.195.113.102.027.078.156.027.219.113.199c.094-.016.121.051.07.18-.055.148-.031.176.09.102s.145-.047.094.09c-.047.121.07.328.309.551.215.199.34.273.285.172-.062-.109-.055-.145.012-.082.063.055.117.168.117.25s.078.129.168.109.129.02.09.082.012.184.113.266.188.105.191.047.066-.004.141.125c.109.188.156.199.242.063s.109-.121.113.059c0 .16.063.211.195.16.105-.043.16-.023.121.039s.043.152.184.195c.25.078.25.16.246 10.789-.004 10.945-.016 11.23-.449 11.133-.215-.047-.543.172-.465.309.047.082.039.105-.016.055-.133-.121-.84.387-.746.535.039.066-.047.117-.187.117s-.258.082-.258.188-.059.188-.133.188-.098.059-.055.129.008.113-.086.094-.164.059-.164.176-.055.254-.117.313-.07.023-.02-.086c.051-.102.008-.082-.094.043s-.156.32-.113.426c.047.129.023.168-.074.105-.078-.047-.152-.031-.16.043a2.43 2.43 0 0 1-.109.477c-.016.051-.02.207-.008.344.016.207-.004.219-.109.063-.152-.223-.152-.215-.145 1.922.004 1 .059 1.547.164 1.672a.78.78 0 0 1 .16.391c0 .113.07.188.156.172.094-.02.156.098.156.285 0 .176.086.348.188.387s.16.117.125.172.035.172.148.266c.18.145.195.145.105-.004-.074-.121-.059-.148.047-.082.086.055.125.168.09.258-.082.219.363.613.559.492.098-.059.121-.039.063.051-.051.086-.012.145.098.145s.227.066.277.145c.059.094.027.113-.086.055-.098-.051-.07-.008.063.102s.293.156.363.113.086-.016.035.066c-.105.172.398.395.664.293.105-.039.145-.012.094.066-.105.176.227.301.383.145.078-.078.176-.055.273.063s.309.168.613.133c.387-.043.41-.031.148.059-.223.082.008.113.813.113.797 0 1.035-.035.813-.109-.27-.098-.254-.105.125-.066.281.031.523-.027.676-.16.168-.145.25-.16.289-.055.027.082.133.117.23.082s.148-.117.109-.18.02-.078.125-.035c.129.047.195.004.195-.129 0-.109.055-.199.125-.199s.125.059.125.133.059.098.129.055.086-.141.043-.215c-.051-.082-.027-.102.055-.051s.242-.016.371-.145a1.67 1.67 0 0 1 .449-.316c.133-.051.184-.148.129-.242-.051-.086-.043-.113.012-.062.148.137.434-.145.355-.352-.043-.109.055-.223.258-.301.289-.109.344-.191.316-.453-.004-.039.082-.141.191-.223s.211-.285.223-.457.098-.367.191-.441c.16-.117.199-.949.16-3.328-.004-.184-.094-.418-.199-.523s-.18-.234-.172-.289c.043-.25-.023-.422-.137-.352-.07.043-.09-.008-.047-.117s.012-.195-.066-.195-.121-.07-.105-.156-.039-.145-.121-.125-.121-.051-.082-.148-.047-.25-.191-.344-.262-.234-.262-.32-.086-.156-.187-.156-.187-.078-.187-.172-.168-.242-.375-.328-.375-.211-.375-.277-.082-.094-.187-.055-.172.008-.156-.078-.039-.137-.125-.121c-.125.023-.156-2.172-.156-10.656 0-9.961.031-11.016.313-10.559.043.066.129.094.188.059s.148 0 .199.078c.055.094.035.113-.055.059-.234-.145-.164-.004.129.25.148.133.227.168.18.082s-.059-.156-.02-.156.125.141.191.313.203.313.301.313.223.066.273.145c.055.09.035.109-.055.055-.266-.164-.148-.004.313.434.25.234.414.359.367.273s-.055-.156-.016-.156.125.141.191.313.203.313.301.313.223.066.273.145c.055.09.035.109-.055.055-.281-.172-.137.004.5.617.352.344.602.551.555.465s-.055-.156-.016-.156.125.141.191.313.203.313.301.313.223.066.273.145c.059.098.031.109-.086.043-.098-.055.102.191.445.543s.688.645.773.645.191.066.242.145c.055.09.035.109-.055.055-.281-.172-.137.004.5.617.352.344.602.551.555.465s-.055-.156-.016-.156.125.141.191.313.203.313.301.313.223.066.273.145c.055.09.035.109-.055.055-.234-.145-.164-.004.129.25.148.133.223.16.168.063-.07-.117-.059-.145.039-.086.172.105.195.449.027.449-.246 0-.309.813-.262 3.523a.84.84 0 0 0 .199.527c.109.109.16.254.121.32s.043.238.184.379.227.309.191.371.035.188.164.277.25.219.266.289.094.105.172.082.102 0 .051.051c-.133.137.156.441.328.344.078-.043.098-.031.047.023-.117.133.148.457.297.363.063-.039.102.004.082.098s.035.148.121.133.156.031.156.105.082.109.188.07.172-.008.156.078.066.145.188.137.188.031.148.09c-.07.113.531.313.793.258.086-.016.246.055.352.16.215.215.484.266.363.07-.043-.07.039-.125.18-.125s.258.055.258.125.281.125.625.125.625-.055.625-.125.117-.125.258-.125.223.055.18.125c-.086.141.07.164.363.051.109-.043.172-.121.137-.176s.133-.102.367-.102c.504 0 .734-.113.613-.305-.055-.086-.008-.109.125-.055.129.047.309-.016.461-.168.137-.137.301-.246.363-.246s.18-.098.246-.219.129-.168.133-.102.145-.016.313-.176.281-.332.25-.383.027-.129.129-.168.188-.129.188-.199.109-.238.246-.375.215-.332.172-.445-.012-.18.082-.156c.188.043.391-.586.281-.871-.043-.121-.023-.164.059-.117.074.047.16-.027.195-.164s.016-.25-.047-.25c-.152 0-.145-2.09.008-2.184.063-.043.086-.156.047-.258s-.129-.145-.199-.102c-.086.051-.105-.016-.062-.191.043-.156-.004-.348-.113-.457-.145-.141-.148-.184-.02-.187.117-.004.109-.047-.035-.156-.199-.152-.238-.227-.238-.473 0-.074-.055-.098-.125-.055s-.094.004-.062-.086-.059-.305-.199-.477-.219-.234-.168-.137c.063.117.043.145-.051.086-.078-.051-.145-.16-.145-.246 0-.18-.75-.934-.754-.758-.004.063-.062.02-.133-.102S82.156 58 82.055 58s-.289-.109-.422-.242c-.156-.156-.336-.215-.52-.168-.176.047-.246.027-.195-.059.043-.07 0-.16-.098-.199s-.203 0-.23.082c-.035.109-.102.105-.258-.023-.281-.234-2.5-.238-2.777-.008-.117.098-.234.117-.281.047-.086-.121-.336-.207-.617-.215-.086-.004-.129-.031-.098-.062s-1.801-1.918-4.074-4.191-4.129-4.223-4.125-4.328c.055-3.57.02-4.102-.262-3.926-.09.055-.113-.016-.062-.195s-.012-.363-.168-.52c-.133-.133-.227-.312-.211-.398s-.055-.137-.156-.113-.148 0-.098-.051c.125-.125-.141-.578-.285-.484-.07.039-.109 0-.09-.086s-.031-.164-.109-.168-.195-.055-.25-.117c-.062-.066-.027-.074.082-.02.102.051 0-.082-.227-.297s-.465-.355-.531-.316-.109.004-.09-.082-.035-.172-.121-.184-.199-.035-.25-.051a.47.47 0 0 0-.195-.012c-.059.012-.07-.039-.023-.109.074-.129-.09-.18-.418-.137-.094.016-.234-.07-.32-.184-.125-.176-.383-.207-1.52-.207-2.016.008-2.172.02-1.867.148.203.086.176.102-.145.082-.215-.012-.367-.062-.336-.113S60.676 41 60.57 41s-.195-.086-.195-.187a.19.19 0 0 0-.187-.187c-.102 0-.172-.066-.156-.152s-.055-.152-.156-.156-.187-.09-.187-.191a.19.19 0 0 0-.187-.187c-.102 0-.187-.07-.187-.156s-.055-.16-.125-.164-.168-.121-.219-.258c-.055-.148-.152-.215-.238-.16s-.109.035-.055-.055-.012-.184-.16-.238c-.137-.051-.254-.148-.258-.219s-.078-.125-.164-.125-.16-.086-.16-.187-.074-.172-.156-.156-.152-.055-.152-.156a.19.19 0 0 0-.187-.187.19.19 0 0 1-.187-.187.19.19 0 0 0-.187-.187c-.102 0-.172-.066-.156-.152s-.055-.152-.156-.156-.187-.09-.187-.191a.19.19 0 0 0-.187-.187c-.102 0-.187-.07-.187-.156s-.051-.141-.109-.125-.16-.098-.219-.258c-.066-.176-.164-.254-.254-.199s-.109.035-.055-.055-.012-.184-.16-.238c-.137-.051-.254-.148-.258-.219s-.078-.125-.164-.125-.16-.086-.16-.187-.074-.172-.156-.156-.152-.055-.152-.156a.19.19 0 0 0-.187-.187.19.19 0 0 1-.187-.187.19.19 0 0 0-.187-.187c-.102 0-.172-.066-.156-.152s-.055-.152-.156-.156-.187-.09-.187-.191a.19.19 0 0 0-.187-.187c-.102 0-.187-.07-.187-.156s-.055-.152-.117-.148-.164-.109-.219-.258c-.059-.16-.156-.23-.246-.176s-.109.035-.055-.055-.016-.187-.176-.246c-.148-.055-.27-.152-.273-.219s-.051-.102-.113-.086c-.422.117.266-.66 3.004-3.398 1.715-1.715 3.086-3.172 3.043-3.238s-.016-.086.055-.039c.16.098.445-.215.316-.348-.051-.051-.035-.074.039-.051.164.051 1.055-.707 1.055-.898 0-.074.055-.102.121-.062s.219-.023.344-.148.293-.227.379-.234c.438-.035.469-.055.281-.187-.152-.109-.133-.121.094-.074.18.039.332-.012.414-.145.078-.125.156-.152.191-.074s.223.109.426.082.34-.105.305-.168.184-.109.488-.109.578.047.602.109m2.074 45.172c-.02 2.906-.035.527-.035-5.281l.035-5.281v10.563M78.598 57.09c.223.027.559.027.75 0s.004-.051-.41-.051-.566.023-.34.051M23.34 62.719c-.027.188-.055.063-.055-.281s.023-.5.055-.344.027.434 0 .625m49.695.219c0 .344.027.469.055.281s.027-.473 0-.625-.055 0-.055.344" fill="rgb(95.294118%,32.54902%,20%)"/><path d="M61.063 23.793c-1.137.328-1.746.836-5.406 4.5L52 32.07c0 .066 1.992 2.109 4.426 4.543l4.426 4.426.395-.164c1.957-.809 5.34.582 6.582 2.703.789 1.348 1.121 3.586.688 4.637l-.16.387 4.324 4.32 4.641 4.199c1.617-.613 4.438.152 5.855 1.59 4.77 4.836-.977 12.605-7.055 9.539-2.43-1.227-3.937-4.867-2.957-7.133l.195-.445-3.898-3.898-3.992-3.898c-.051 0-.094 4.695-.094 10.434v10.434l.684.438c4.895 3.133 2.488 10.945-3.371 10.945-6.004 0-8.281-8.074-3.125-11.09l.809-.473V62.918l.004-10.645-.672-.379c-2.441-1.379-3.598-4.383-2.727-7.105l.125-.398-8.777-8.777L36.48 47.461 24.285 59.934c-.895 1.617-.887 3.434.02 5.023.316.551 34.738 35.117 35.461 35.605 1.406.957 3.234 1.109 4.914.414.977-.406 35.652-35.047 36.195-36.164.813-1.656.691-3.562-.312-5.047-.484-.719-35.047-35.141-35.602-35.457-1.16-.664-2.684-.863-3.898-.516" fill="rgb(98.431373%,98.431373%,98.431373%)"/><path d="M62.219 23.465a1.94 1.94 0 0 0 .563 0c.156-.031.027-.055-.281-.055s-.437.023-.281.055m2.906.82c0 .023.184.176.406.34.25.184.34.215.23.078-.168-.203-.637-.512-.637-.418m-10.758 5.184l-.43.469.469-.43.469-.469c0-.098-.105-.008-.508.43m-6.102 6.063c.031.016 2.078 2.027 4.551 4.469l4.496 4.438-4.437-4.469-4.551-4.469c-.062 0-.09.016-.059.031m13.949 5.309c.223.027.617.027.875 0s.078-.047-.402-.051-.695.023-.473.051m-5.422 5.848c0 .551.023.758.047.465a6.1 6.1 0 0 0 0-1c-.027-.254-.047-.016-.047.535m11.75 0c0 .551.023.758.047.465a6.1 6.1 0 0 0 0-1c-.027-.254-.047-.016-.047.535M72.563 53l4.313 4.25c.031 0-1.852-1.914-4.187-4.25l-4.312-4.25c-.031 0 1.852 1.914 4.188 4.25m5.063 4.129c-.137.094-.086.105.188.043.461-.102.559-.172.238-.172-.129.004-.324.063-.426.129m23.898 5.391c-.012.391-.055.813-.094.938-.07.215-.062.215.066.012.078-.121.121-.535.098-.937l-.047-.719-.023.707m-16.734.355c0 .445.023.629.051.406s.027-.59 0-.812-.051-.039-.051.406m-11.781.887a1.8 1.8 0 0 0 .125.551c.078.176.09.098.035-.25-.09-.582-.172-.738-.16-.301m-48.645 1.594c.066.125.223.309.34.406.137.109.105.02-.078-.23-.328-.449-.449-.531-.262-.176m58.699 17.801l-17.25 17.281 17.281-17.25 17.25-17.312c-.016 0-7.793 7.777-17.281 17.281M74.75 67.188c.234.242.453.438.488.438s-.129-.195-.363-.437-.453-.437-.488-.437.129.195.363.438m3.781 1.652a2.89 2.89 0 0 0 .688 0c.188-.027.035-.051-.344-.051s-.531.023-.344.051m-19.605 5.73l-.488.449.531-.406c.484-.371.605-.488.488-.488-.023 0-.262.199-.531.445m9.617 4.555c0 .586.023.824.047.531a6.89 6.89 0 0 0 0-1.062c-.023-.293-.047-.055-.047.531m-11.75.063c0 .551.023.758.047.465a6.1 6.1 0 0 0 0-1c-.027-.254-.047-.016-.047.535m5.488 22.402a2.89 2.89 0 0 0 .688 0c.188-.027.035-.051-.344-.051s-.531.023-.344.051" fill="rgb(95.686275%,56.470588%,50.196078%)"/><path d="M53.813.375c-.043.07.008.125.109.125s.223-.055.266-.125S54.18.25 54.078.25s-.223.055-.266.125m-2.5.375c-.09.148.031.148.375 0 .242-.102.242-.109-.023-.117-.152-.004-.309.047-.352.117m22 0c.344.148.465.148.375 0-.043-.07-.199-.121-.352-.117-.266.008-.266.016-.023.117m22.945 8.945c.164.199.367.238.367.07 0-.062-.117-.141-.258-.18-.211-.055-.23-.035-.109.109m9.191 7.23c.043.109.133.199.199.199.164 0 .063-.285-.125-.348-.09-.027-.121.027-.074.148m2.426 2.426c0 .066.09.156.199.199.121.047.176.016.148-.074-.062-.187-.348-.289-.348-.125M62.156 23.34c.191.027.473.027.625 0s0-.055-.344-.055-.469.027-.281.055m51.246 2.684c.027.082.117.172.199.199.09.027.121-.027.074-.148-.09-.23-.348-.277-.273-.051m1.723 2.461c0 .063.078.176.18.258.145.121.164.102.109-.109-.066-.25-.289-.367-.289-.148m2.84 4.891c.035.141.125.289.195.336.082.051.102 0 .047-.137-.043-.121-.082-.27-.082-.336s-.051-.113-.113-.113-.082.113-.047.25m-55.75 7.59c.223.027.617.027.875 0s.078-.047-.402-.051-.695.023-.473.051m-5.297 5.723c0 .617.023.887.047.598a8.29 8.29 0 0 0 .004-1.125c-.027-.328-.051-.09-.051.527m11.5 0c0 .551.023.758.047.465a6.1 6.1 0 0 0 0-1c-.027-.254-.047-.016-.047.535M.715 51.324c-.051.051-.09.211-.086.352.004.242.012.246.133.039.141-.242.105-.539-.047-.391M65.059 63.25l.035 5.281V57.969c-.02-2.906-.035-.527-.035 5.281m59.441-9.531c.008.273.246.457.25.188 0-.156-.055-.281-.125-.281s-.125.043-.125.094M.34 53.824c-.051.051-.09.18-.09.285 0 .141.035.152.141.051.074-.074.117-.203.09-.281s-.09-.105-.141-.055m78.133 3.391a6.1 6.1 0 0 0 1 0c.254-.027.016-.047-.535-.047s-.758.023-.465.047m-5.301 5.66c0 .652.02.922.047.594s.023-.859 0-1.187-.047-.059-.047.594m11.41-1.043c-.137.137-.098 2.168.043 2.168.074 0 .125-.457.125-1.125 0-1.125-.012-1.195-.168-1.043m-61.297.605c0 .344.027.469.055.281s.027-.473 0-.625-.055 0-.055.344m78.379.125c0 .414.023.566.051.34s.027-.559 0-.75-.051-.004-.051.41m-23.852 6.063c.043.07.16.125.258.125s.18-.055.18-.125-.117-.125-.258-.125-.223.055-.18.125m1.688 0c0 .07.082.125.18.125s.215-.055.258-.125-.039-.125-.18-.125-.258.055-.258.125M.633 73.336c-.004.152.047.309.117.352.148.09.148-.031 0-.375-.102-.242-.109-.242-.117.023m123.59.035c-.09.305-.035.484.102.348.039-.039.051-.203.027-.363l-.043-.293-.086.309m-67.305 5.816c0 .617.023.887.047.598a8.29 8.29 0 0 0 .004-1.125c-.027-.328-.051-.09-.051.527m11.5-.062c0 .586.023.824.047.531a6.89 6.89 0 0 0 0-1.062c-.023-.293-.047-.055-.047.531m52.773 5.293l-.125.395c-.031.102-.012.188.047.188s.137-.156.172-.344c.074-.383.008-.555-.094-.238M9.586 96.367c.039.141.117.258.18.258.168 0 .129-.203-.07-.367-.145-.121-.164-.102-.109.109m105.688-.094c-.176.18-.195.352-.039.352.063 0 .141-.113.176-.25.078-.293.066-.301-.137-.102m-1.77 2.59c-.074.145-.086.262-.023.262.129 0 .309-.379.219-.465-.027-.031-.117.063-.195.203m-1.75 2.375c-.074.145-.086.262-.023.262.129 0 .309-.379.219-.465-.027-.031-.117.063-.195.203m-49.473.477a2.89 2.89 0 0 0 .688 0c.188-.027.035-.051-.344-.051s-.531.023-.344.051m46.063 3.484c-.469.539-.437.684.039.188.211-.223.367-.441.344-.496s-.195.086-.383.309m-91.566.324c.063.188.348.289.348.125 0-.066-.09-.156-.199-.199-.121-.047-.176-.016-.148.074m2.5 2.5c.027.082.117.172.199.199.09.027.121-.027.074-.148-.09-.23-.348-.277-.273-.051m85.879.355c-.227.203-.352.371-.281.371s.305-.168.52-.375c.508-.484.293-.484-.238.004m-3.977 3.43c-.133.102-.187.184-.117.184.188.004.504-.219.426-.297-.039-.039-.176.016-.309.113m-75.305 1.668c0 .066.09.156.199.199.121.047.176.016.148-.074-.062-.187-.348-.289-.348-.125m72.93.082c-.133.102-.187.184-.117.184.188.004.504-.219.426-.297-.039-.039-.176.016-.309.113m-70.43 1.676c0 .063.117.141.258.18.211.055.23.035.109-.109-.164-.199-.367-.238-.367-.07m67.883.07c-.121.145-.102.164.109.109.141-.039.258-.117.258-.18 0-.168-.203-.129-.367.07m-11.57 5.793c-.137.027-.305.105-.375.172-.117.113.543.016.676-.098.102-.09-.055-.125-.301-.074m-11.375 3.152c-.223.094-.211.109.094.117.188.004.344-.047.344-.117 0-.148-.098-.148-.437 0m-19.687.375c0 .07.125.125.281.125.227-.004.246-.027.094-.125-.242-.156-.375-.156-.375 0" fill="rgb(92.941176%,23.529412%,2.352941%)"/><path d="M62.098 23.59c.223.027.559.027.75 0s.004-.051-.41-.051-.566.023-.34.051m-4.406 2.531c-.406.41-.715.766-.684.785s.387-.312.793-.746c.941-.996.863-1.023-.109-.039m-5.816 5.953c0 .063 2.012 2.109 4.469 4.551l4.469 4.438-4.437-4.496-4.469-4.551c-.016-.031-.031-.004-.031.059m-4.379 4.27l-.684.719.719-.684c.668-.633.777-.754.684-.754-.02 0-.344.324-.719.719m29.391-.391c.164.215.324.367.355.34s-.105-.203-.301-.391l-.355-.34.301.391m-27.512.734c.234.242.453.438.488.438s-.129-.195-.363-.437-.453-.437-.488-.437.129.195.363.438m-7.5 5.281l-4.437 4.469L41.906 42l4.469-4.469c0-.086-.379.285-4.5 4.438M52.5 39.813c.234.242.453.438.488.438s-.129-.195-.363-.437-.453-.437-.488-.437.129.195.363.438m8.75 1.066c-.137.094-.086.105.188.043.461-.102.559-.172.238-.172-.129.004-.324.063-.426.129m2.5-.004c.426.137.758.137.438 0a1.53 1.53 0 0 0-.5-.105c-.199.004-.187.023.063.105m19.387 1.328c.164.215.324.367.355.34s-.105-.203-.301-.391l-.355-.34.301.391m-27.512.734c.234.242.453.438.488.438s-.129-.195-.363-.437-.453-.437-.488-.437.129.195.363.438m1.203 1.188c.145.172.238.383.207.469s-.027.156.004.156c.223 0 .137-.398-.141-.645l-.336-.293.266.313m0 1.066c-.043.113-.074.297-.066.414s.059.043.121-.16c.117-.395.074-.59-.055-.254m11.625.121c.102.461.172.559.172.238-.004-.129-.062-.324-.129-.426-.094-.137-.105-.086-.043.188m17.809.016c.164.215.324.367.355.34s-.105-.203-.301-.391l-.355-.34.301.391m-29.605 1.359c0 .273.027.371.059.219s.027-.383-.004-.5-.055.008-.055.281m12 0c0 .273.027.371.059.219s.027-.383-.004-.5-.055.008-.055.281m-32.848 1.344l-1.121 1.156 1.156-1.121 1.121-1.191c-.016 0-.539.52-1.156 1.156m20.941-.207c.004.129.063.324.129.426.094.137.105.086.043-.187-.102-.461-.172-.559-.172-.238m11.766-.055c-.008.117-.047.313-.086.438-.07.219-.066.219.07.008.078-.121.117-.32.086-.437-.051-.195-.059-.195-.07-.008M32.5 51.313l-.867.938c.031 0 .48-.422.992-.937l.867-.937c-.031 0-.48.422-.992.938m27.875 11.539l.063 10.711.031-10.617-.062-10.715c-.051-.051-.066 4.727-.031 10.621m4.875.383c0 9.84.012 10.496.219 10.652.188.141.195.137.063-.012-.121-.137-.156-2.434-.156-10.578l.156-10.465c.094-.035.066-.066-.062-.07-.207-.012-.219.566-.219 10.473m-35.875-8.797c-.512.516-.902.938-.867.938s.48-.422.992-.937.902-.937.867-.937-.48.422-.992.938m-3.125 3.125c-.512.516-.902.938-.867.938s.48-.422.992-.937.902-.937.867-.937-.48.422-.992.938m53.938-.437c.137.059.336.109.438.109.117 0 .094-.043-.062-.109-.137-.059-.336-.109-.437-.109-.117 0-.094.043.063.109m17.824.031c.031.016.277.227.551.469l.5.438-.43-.469c-.238-.258-.488-.469-.555-.469s-.094.016-.066.031m-74.473 5.281c0 .414.023.566.051.34s.027-.559 0-.75-.051-.004-.051.41m49.371.5c0 .344.027.469.055.281s.027-.473 0-.625-.055 0-.055.344M83 83.094l-17.312 17.344 17.344-17.312 17.344-17.344c0-.086-1.281 1.188-17.375 17.313m.57-16.5c-.27.344-.293.402-.082.219.25-.219.582-.687.484-.687-.02 0-.199.211-.402.469m-8.258 1.156c.086.137.813.543.813.453 0-.031-.199-.172-.445-.316s-.41-.207-.367-.137m3.625 1.125l-.625.086.563.004c.309.004.73-.039.938-.09.492-.125.039-.125-.875 0m-20.445 5.969l-.43.469.469-.43c.438-.402.527-.508.43-.508-.02 0-.23.211-.469.469m8.258-.031c.234.242.453.438.488.438s-.129-.195-.363-.437-.453-.437-.488-.437.129.195.363.438m1.641 2.688c0 .102.051.301.109.438.066.156.109.18.109.063 0-.102-.051-.301-.109-.437-.066-.156-.109-.18-.109-.062m-11.73 1.625c0 .309.023.438.055.281a1.94 1.94 0 0 0 0-.562c-.031-.156-.055-.027-.055.281m12 0c0 .309.023.438.055.281a1.94 1.94 0 0 0 0-.562c-.031-.156-.055-.027-.055.281m-.145 1.145c-.008.117-.047.313-.086.438-.07.219-.066.219.07.008.078-.121.117-.32.086-.437-.051-.195-.059-.195-.07-.008m-10.793 2.293a2.01 2.01 0 0 0 .422.5c.281.238.281.234-.02-.125-.496-.602-.539-.641-.402-.375" fill="rgb(95.686275%,67.45098%,63.137255%)"/></svg>