<?xml version="1.0" encoding="UTF-8"?>
<svg xmlns="http://www.w3.org/2000/svg" xmlns:xlink="http://www.w3.org/1999/xlink" width="50pt" height="50pt" viewBox="0 0 50 50" version="1.1">
<g id="surface1">
<path style=" stroke:none;fill-rule:evenodd;fill:rgb(98.431373%,98.431373%,98.431373%);fill-opacity:1;" d="M 23.175781 9.277344 C 16.285156 10.101562 10.777344 15.226562 9.453125 22.050781 C 8.925781 24.769531 9.238281 28.34375 10.203125 30.636719 C 10.230469 30.699219 10.273438 30.804688 10.300781 30.875 C 10.664062 31.78125 11.199219 32.808594 11.742188 33.648438 C 11.992188 34.03125 12.132812 34.222656 12.671875 34.921875 C 12.933594 35.261719 13.199219 35.550781 13.824219 36.175781 C 14.605469 36.957031 14.796875 37.128906 15.523438 37.667969 C 15.664062 37.773438 15.820312 37.894531 15.875 37.9375 C 16.921875 38.800781 19.855469 40.144531 20.375 40 C 21.015625 39.820312 21.101562 39.5625 21.101562 37.75 C 21.101562 36.128906 21.15625 36.261719 20.519531 36.371094 C 17.984375 36.820312 16.636719 36.148438 15.65625 33.960938 C 15.214844 32.976562 14.792969 32.480469 13.867188 31.863281 C 13.414062 31.558594 13.371094 31.511719 13.433594 31.40625 C 13.570312 31.191406 14.476562 31.066406 14.90625 31.203125 C 15.523438 31.402344 15.652344 31.519531 16.515625 32.691406 C 17.6875 34.28125 18.359375 34.613281 19.917969 34.371094 C 21.003906 34.203125 21.128906 34.148438 21.179688 33.808594 C 21.246094 33.316406 21.617188 32.4375 21.800781 32.324219 C 21.929688 32.242188 21.832031 32.160156 21.539062 32.101562 C 21.183594 32.035156 21.152344 32.027344 20.675781 31.902344 C 17.464844 31.054688 15.558594 29.21875 15.007812 26.449219 C 14.738281 25.105469 14.820312 23.257812 15.199219 22.148438 C 15.433594 21.453125 15.773438 20.796875 16.175781 20.257812 C 16.476562 19.847656 16.46875 19.90625 16.339844 19.148438 C 16.140625 18.011719 16.332031 16.359375 16.703125 15.957031 C 17.183594 15.441406 18.867188 15.957031 20.707031 17.183594 L 21.042969 17.40625 L 21.558594 17.304688 C 23.023438 17.023438 25.125 16.914062 26.5 17.050781 C 27.609375 17.164062 28.21875 17.25 28.707031 17.363281 C 28.9375 17.417969 28.949219 17.414062 29.285156 17.191406 C 31.09375 15.984375 32.820312 15.441406 33.277344 15.933594 C 33.738281 16.429688 33.859375 17.761719 33.605469 19.574219 C 33.570312 19.804688 33.578125 19.898438 33.632812 19.976562 C 34.789062 21.613281 35.152344 22.757812 35.148438 24.746094 C 35.144531 27.769531 33.839844 29.953125 31.300781 31.183594 C 30.8125 31.417969 30.507812 31.550781 30.449219 31.550781 C 30.421875 31.550781 30.359375 31.570312 30.3125 31.597656 C 30.148438 31.6875 28.949219 32.019531 28.488281 32.101562 C 28.089844 32.171875 28.101562 32.144531 28.335938 32.492188 C 28.851562 33.269531 28.898438 33.632812 28.898438 36.621094 C 28.898438 39.609375 28.910156 39.679688 29.472656 39.941406 C 29.820312 40.105469 30.148438 40.046875 30.976562 39.679688 C 31.113281 39.617188 31.304688 39.535156 31.398438 39.5 C 34.382812 38.335938 37.773438 35.082031 39.210938 32 C 39.675781 31.007812 39.941406 30.320312 40.152344 29.601562 C 40.210938 29.394531 40.277344 29.167969 40.300781 29.101562 C 41.167969 26.496094 40.859375 21.425781 39.695312 19.136719 C 39.667969 19.089844 39.648438 19.03125 39.648438 19.003906 C 39.648438 18.769531 38.164062 16.054688 37.953125 15.898438 C 37.933594 15.886719 37.84375 15.761719 37.75 15.625 C 37.65625 15.488281 37.554688 15.351562 37.527344 15.320312 C 37.5 15.289062 37.417969 15.191406 37.351562 15.101562 C 36.894531 14.5 35.515625 13.117188 34.902344 12.648438 C 34.8125 12.582031 34.695312 12.492188 34.648438 12.449219 C 33.992188 11.894531 32.171875 10.820312 31.300781 10.480469 C 31.097656 10.398438 30.910156 10.320312 30.625 10.195312 C 28.875 9.421875 25.476562 9.003906 23.175781 9.277344 "/>
<path style=" stroke:none;fill-rule:evenodd;fill:rgb(20.392157%,20.392157%,20.392157%);fill-opacity:1;" d="M 22.289062 0.0351562 C 22.046875 0.046875 21.851562 0.0742188 21.851562 0.101562 C 21.851562 0.128906 21.683594 0.148438 21.476562 0.148438 C 21.273438 0.148438 21.09375 0.171875 21.074219 0.199219 C 21.058594 0.226562 20.933594 0.25 20.796875 0.25 C 20.660156 0.25 20.550781 0.273438 20.550781 0.300781 C 20.550781 0.328125 20.425781 0.351562 20.273438 0.351562 C 20.125 0.351562 20 0.371094 20 0.398438 C 20 0.425781 19.898438 0.449219 19.777344 0.449219 C 19.65625 0.449219 19.542969 0.472656 19.523438 0.5 C 19.507812 0.527344 19.40625 0.550781 19.296875 0.550781 C 19.1875 0.550781 19.101562 0.574219 19.101562 0.601562 C 19.101562 0.628906 19.011719 0.648438 18.898438 0.648438 C 18.789062 0.648438 18.699219 0.671875 18.699219 0.699219 C 18.699219 0.726562 18.609375 0.75 18.5 0.75 C 18.390625 0.75 18.300781 0.773438 18.300781 0.800781 C 18.300781 0.828125 18.234375 0.851562 18.148438 0.851562 C 18.066406 0.851562 18 0.871094 18 0.898438 C 18 0.925781 17.921875 0.949219 17.824219 0.949219 C 17.730469 0.949219 17.648438 0.972656 17.648438 1 C 17.648438 1.027344 17.597656 1.050781 17.53125 1.050781 C 17.417969 1.050781 17.003906 1.160156 16.773438 1.25 C 16.71875 1.273438 16.597656 1.316406 16.5 1.351562 C 16.289062 1.421875 16.105469 1.496094 15.988281 1.554688 C 15.941406 1.582031 15.855469 1.601562 15.800781 1.601562 C 15.746094 1.601562 15.699219 1.621094 15.699219 1.648438 C 15.699219 1.675781 15.65625 1.699219 15.601562 1.699219 C 15.546875 1.699219 15.5 1.722656 15.5 1.75 C 15.5 1.777344 15.445312 1.800781 15.378906 1.800781 C 15.3125 1.800781 15.242188 1.824219 15.226562 1.851562 C 15.207031 1.878906 15.148438 1.898438 15.097656 1.898438 C 15.042969 1.898438 15 1.921875 15 1.949219 C 15 1.976562 14.953125 2 14.898438 2 C 14.84375 2 14.800781 2.023438 14.800781 2.050781 C 14.800781 2.078125 14.765625 2.101562 14.722656 2.101562 C 14.652344 2.101562 14.597656 2.121094 14.363281 2.242188 C 14.300781 2.273438 14.21875 2.300781 14.175781 2.300781 C 14.132812 2.300781 14.101562 2.324219 14.101562 2.351562 C 14.101562 2.378906 14.054688 2.398438 14 2.398438 C 13.945312 2.398438 13.898438 2.417969 13.898438 2.441406 C 13.898438 2.464844 13.820312 2.511719 13.726562 2.550781 C 13.628906 2.585938 13.550781 2.636719 13.550781 2.660156 C 13.550781 2.683594 13.503906 2.699219 13.449219 2.699219 C 13.394531 2.699219 13.351562 2.722656 13.351562 2.75 C 13.351562 2.777344 13.304688 2.800781 13.25 2.800781 C 13.195312 2.800781 13.148438 2.824219 13.148438 2.851562 C 13.148438 2.878906 13.109375 2.898438 13.0625 2.898438 C 13.011719 2.898438 12.941406 2.945312 12.898438 3 C 12.859375 3.054688 12.796875 3.101562 12.761719 3.101562 C 12.675781 3.101562 12.179688 3.351562 12.160156 3.40625 C 12.148438 3.429688 12.121094 3.449219 12.09375 3.449219 C 12.066406 3.449219 11.945312 3.515625 11.824219 3.601562 C 11.707031 3.683594 11.585938 3.75 11.566406 3.75 C 11.542969 3.75 11.488281 3.796875 11.449219 3.851562 C 11.410156 3.90625 11.34375 3.949219 11.300781 3.949219 C 11.257812 3.949219 11.191406 3.996094 11.148438 4.050781 C 11.109375 4.105469 11.042969 4.148438 11 4.148438 C 10.957031 4.148438 10.890625 4.195312 10.851562 4.25 C 10.808594 4.304688 10.75 4.351562 10.714844 4.351562 C 10.679688 4.351562 10.578125 4.417969 10.492188 4.5 C 10.40625 4.582031 10.308594 4.648438 10.277344 4.648438 C 10.246094 4.648438 10.191406 4.695312 10.148438 4.75 C 10.109375 4.804688 10.046875 4.851562 10.007812 4.851562 C 9.972656 4.851562 9.878906 4.917969 9.800781 5 C 9.722656 5.082031 9.644531 5.148438 9.628906 5.148438 C 9.59375 5.148438 9.542969 5.1875 9.292969 5.414062 C 9.207031 5.488281 9.121094 5.550781 9.097656 5.550781 C 9.070312 5.550781 8.957031 5.644531 8.839844 5.761719 C 8.722656 5.878906 8.546875 6.03125 8.449219 6.101562 C 8.355469 6.167969 8.054688 6.449219 7.785156 6.722656 C 7.199219 7.328125 7.328125 7.199219 6.722656 7.785156 C 6.449219 8.054688 6.167969 8.351562 6.101562 8.449219 C 6.03125 8.546875 5.867188 8.734375 5.738281 8.867188 C 5.605469 9 5.5 9.132812 5.5 9.15625 C 5.5 9.183594 5.449219 9.257812 5.386719 9.324219 C 5.214844 9.507812 5.148438 9.59375 5.148438 9.628906 C 5.148438 9.644531 5.082031 9.722656 5 9.800781 C 4.917969 9.878906 4.851562 9.972656 4.851562 10.007812 C 4.851562 10.046875 4.804688 10.109375 4.75 10.148438 C 4.695312 10.191406 4.648438 10.25 4.648438 10.285156 C 4.648438 10.320312 4.628906 10.351562 4.601562 10.351562 C 4.574219 10.351562 4.550781 10.378906 4.550781 10.414062 C 4.550781 10.449219 4.503906 10.511719 4.449219 10.550781 C 4.394531 10.589844 4.351562 10.65625 4.351562 10.699219 C 4.351562 10.742188 4.304688 10.808594 4.25 10.851562 C 4.195312 10.890625 4.148438 10.957031 4.148438 11 C 4.148438 11.042969 4.105469 11.109375 4.050781 11.148438 C 3.996094 11.191406 3.949219 11.257812 3.949219 11.300781 C 3.949219 11.34375 3.90625 11.410156 3.851562 11.449219 C 3.796875 11.488281 3.75 11.542969 3.75 11.566406 C 3.75 11.585938 3.683594 11.707031 3.601562 11.824219 C 3.515625 11.945312 3.449219 12.066406 3.449219 12.09375 C 3.449219 12.121094 3.429688 12.148438 3.40625 12.160156 C 3.351562 12.179688 3.101562 12.675781 3.101562 12.761719 C 3.101562 12.796875 3.054688 12.859375 3 12.898438 C 2.945312 12.941406 2.898438 13.011719 2.898438 13.0625 C 2.898438 13.109375 2.878906 13.148438 2.851562 13.148438 C 2.824219 13.148438 2.800781 13.195312 2.800781 13.25 C 2.800781 13.304688 2.777344 13.351562 2.75 13.351562 C 2.722656 13.351562 2.699219 13.394531 2.699219 13.449219 C 2.699219 13.503906 2.683594 13.550781 2.660156 13.550781 C 2.636719 13.550781 2.585938 13.628906 2.550781 13.726562 C 2.511719 13.820312 2.464844 13.898438 2.441406 13.898438 C 2.417969 13.898438 2.398438 13.945312 2.398438 14 C 2.398438 14.054688 2.378906 14.101562 2.351562 14.101562 C 2.324219 14.101562 2.300781 14.132812 2.300781 14.171875 C 2.300781 14.214844 2.253906 14.328125 2.199219 14.425781 C 2.144531 14.523438 2.101562 14.648438 2.101562 14.703125 C 2.101562 14.753906 2.078125 14.800781 2.050781 14.800781 C 2.023438 14.800781 2 14.84375 2 14.898438 C 2 14.953125 1.976562 15 1.949219 15 C 1.921875 15 1.898438 15.046875 1.898438 15.101562 C 1.898438 15.15625 1.878906 15.199219 1.851562 15.199219 C 1.824219 15.199219 1.800781 15.265625 1.800781 15.351562 C 1.800781 15.433594 1.777344 15.5 1.75 15.5 C 1.722656 15.5 1.699219 15.546875 1.699219 15.601562 C 1.699219 15.65625 1.675781 15.699219 1.648438 15.699219 C 1.621094 15.699219 1.601562 15.746094 1.601562 15.800781 C 1.601562 15.855469 1.582031 15.941406 1.554688 15.988281 C 1.53125 16.035156 1.484375 16.140625 1.449219 16.226562 C 1.417969 16.308594 1.367188 16.414062 1.34375 16.460938 C 1.320312 16.507812 1.300781 16.582031 1.300781 16.625 C 1.300781 16.667969 1.28125 16.742188 1.253906 16.789062 C 1.179688 16.929688 1.050781 17.402344 1.050781 17.53125 C 1.050781 17.597656 1.027344 17.648438 1 17.648438 C 0.972656 17.648438 0.949219 17.730469 0.949219 17.824219 C 0.949219 17.921875 0.925781 18 0.898438 18 C 0.871094 18 0.851562 18.066406 0.851562 18.148438 C 0.851562 18.234375 0.828125 18.300781 0.800781 18.300781 C 0.773438 18.300781 0.75 18.390625 0.75 18.5 C 0.75 18.609375 0.726562 18.699219 0.699219 18.699219 C 0.671875 18.699219 0.648438 18.789062 0.648438 18.898438 C 0.648438 19.011719 0.628906 19.101562 0.601562 19.101562 C 0.574219 19.101562 0.550781 19.1875 0.550781 19.296875 C 0.550781 19.40625 0.527344 19.507812 0.5 19.523438 C 0.472656 19.542969 0.449219 19.65625 0.449219 19.777344 C 0.449219 19.898438 0.425781 20 0.398438 20 C 0.371094 20 0.351562 20.113281 0.351562 20.25 C 0.351562 20.386719 0.328125 20.5 0.300781 20.5 C 0.273438 20.5 0.25 20.632812 0.25 20.796875 C 0.25 20.960938 0.226562 21.109375 0.199219 21.125 C 0.171875 21.140625 0.148438 21.296875 0.148438 21.46875 C 0.148438 21.652344 0.125 21.804688 0.0859375 21.84375 C 0.0390625 21.890625 0.0234375 22.59375 0.0234375 25.011719 C 0.0234375 27.449219 0.0390625 28.121094 0.0859375 28.136719 C 0.128906 28.152344 0.148438 28.269531 0.148438 28.5 C 0.148438 28.691406 0.171875 28.859375 0.199219 28.875 C 0.226562 28.890625 0.25 29.039062 0.25 29.203125 C 0.25 29.367188 0.273438 29.5 0.300781 29.5 C 0.328125 29.5 0.351562 29.613281 0.351562 29.75 C 0.351562 29.886719 0.371094 30 0.398438 30 C 0.425781 30 0.449219 30.101562 0.449219 30.222656 C 0.449219 30.34375 0.472656 30.457031 0.5 30.476562 C 0.527344 30.492188 0.550781 30.59375 0.550781 30.703125 C 0.550781 30.8125 0.574219 30.898438 0.601562 30.898438 C 0.628906 30.898438 0.648438 30.988281 0.648438 31.101562 C 0.648438 31.210938 0.671875 31.300781 0.699219 31.300781 C 0.726562 31.300781 0.75 31.390625 0.75 31.5 C 0.75 31.609375 0.773438 31.699219 0.800781 31.699219 C 0.828125 31.699219 0.851562 31.765625 0.851562 31.851562 C 0.851562 31.933594 0.871094 32 0.898438 32 C 0.925781 32 0.949219 32.078125 0.949219 32.175781 C 0.949219 32.269531 0.972656 32.351562 1 32.351562 C 1.027344 32.351562 1.050781 32.402344 1.050781 32.46875 C 1.050781 32.597656 1.179688 33.070312 1.253906 33.210938 C 1.28125 33.257812 1.300781 33.332031 1.300781 33.375 C 1.300781 33.417969 1.320312 33.492188 1.34375 33.539062 C 1.367188 33.585938 1.417969 33.691406 1.449219 33.773438 C 1.484375 33.859375 1.53125 33.964844 1.554688 34.011719 C 1.582031 34.058594 1.601562 34.144531 1.601562 34.199219 C 1.601562 34.253906 1.621094 34.300781 1.648438 34.300781 C 1.675781 34.300781 1.699219 34.34375 1.699219 34.398438 C 1.699219 34.453125 1.722656 34.5 1.75 34.5 C 1.777344 34.5 1.800781 34.566406 1.800781 34.648438 C 1.800781 34.734375 1.824219 34.800781 1.851562 34.800781 C 1.878906 34.800781 1.898438 34.84375 1.898438 34.898438 C 1.898438 34.953125 1.921875 35 1.949219 35 C 1.976562 35 2 35.046875 2 35.101562 C 2 35.15625 2.023438 35.199219 2.050781 35.199219 C 2.078125 35.199219 2.101562 35.234375 2.101562 35.277344 C 2.101562 35.316406 2.121094 35.394531 2.148438 35.449219 C 2.175781 35.503906 2.222656 35.59375 2.25 35.648438 C 2.277344 35.703125 2.300781 35.78125 2.300781 35.824219 C 2.300781 35.867188 2.316406 35.898438 2.335938 35.898438 C 2.359375 35.898438 2.429688 36.023438 2.5 36.175781 C 2.570312 36.324219 2.640625 36.449219 2.664062 36.449219 C 2.683594 36.449219 2.699219 36.496094 2.699219 36.550781 C 2.699219 36.605469 2.722656 36.648438 2.75 36.648438 C 2.777344 36.648438 2.800781 36.695312 2.800781 36.75 C 2.800781 36.804688 2.824219 36.851562 2.851562 36.851562 C 2.878906 36.851562 2.898438 36.878906 2.898438 36.914062 C 2.898438 36.953125 2.945312 37.03125 3 37.089844 C 3.054688 37.148438 3.101562 37.222656 3.101562 37.253906 C 3.101562 37.328125 3.363281 37.820312 3.414062 37.839844 C 3.433594 37.851562 3.449219 37.878906 3.449219 37.90625 C 3.449219 37.933594 3.515625 38.054688 3.601562 38.175781 C 3.683594 38.292969 3.75 38.414062 3.75 38.433594 C 3.75 38.457031 3.796875 38.511719 3.851562 38.550781 C 3.90625 38.589844 3.949219 38.65625 3.949219 38.699219 C 3.949219 38.742188 3.996094 38.808594 4.050781 38.851562 C 4.105469 38.890625 4.148438 38.957031 4.148438 39 C 4.148438 39.042969 4.195312 39.109375 4.25 39.148438 C 4.304688 39.191406 4.351562 39.257812 4.351562 39.300781 C 4.351562 39.34375 4.394531 39.410156 4.449219 39.449219 C 4.503906 39.488281 4.550781 39.550781 4.550781 39.585938 C 4.550781 39.621094 4.574219 39.648438 4.601562 39.648438 C 4.628906 39.648438 4.648438 39.679688 4.648438 39.714844 C 4.648438 39.75 4.695312 39.808594 4.75 39.851562 C 4.804688 39.890625 4.851562 39.953125 4.851562 39.992188 C 4.851562 40.027344 4.917969 40.121094 5 40.199219 C 5.082031 40.277344 5.148438 40.355469 5.148438 40.371094 C 5.148438 40.40625 5.183594 40.453125 5.398438 40.691406 C 5.480469 40.785156 5.550781 40.878906 5.550781 40.902344 C 5.550781 40.929688 5.644531 41.042969 5.761719 41.160156 C 5.878906 41.277344 6.03125 41.453125 6.101562 41.550781 C 6.167969 41.644531 6.449219 41.945312 6.722656 42.214844 C 7.328125 42.800781 7.199219 42.671875 7.785156 43.277344 C 8.054688 43.550781 8.355469 43.832031 8.449219 43.898438 C 8.546875 43.96875 8.722656 44.121094 8.839844 44.238281 C 8.957031 44.355469 9.070312 44.449219 9.09375 44.449219 C 9.117188 44.449219 9.222656 44.527344 9.328125 44.625 C 9.433594 44.722656 9.535156 44.800781 9.558594 44.800781 C 9.578125 44.800781 9.675781 44.878906 9.773438 44.976562 C 9.867188 45.070312 9.976562 45.148438 10.011719 45.148438 C 10.046875 45.148438 10.109375 45.195312 10.148438 45.25 C 10.191406 45.304688 10.246094 45.351562 10.277344 45.351562 C 10.308594 45.351562 10.40625 45.417969 10.492188 45.5 C 10.578125 45.582031 10.679688 45.648438 10.714844 45.648438 C 10.75 45.648438 10.808594 45.695312 10.851562 45.75 C 10.890625 45.804688 10.957031 45.851562 11 45.851562 C 11.042969 45.851562 11.109375 45.894531 11.148438 45.949219 C 11.191406 46.003906 11.257812 46.050781 11.300781 46.050781 C 11.34375 46.050781 11.410156 46.09375 11.449219 46.148438 C 11.488281 46.203125 11.542969 46.25 11.566406 46.25 C 11.585938 46.25 11.707031 46.316406 11.824219 46.398438 C 11.945312 46.484375 12.066406 46.550781 12.097656 46.550781 C 12.125 46.550781 12.148438 46.574219 12.148438 46.601562 C 12.148438 46.628906 12.175781 46.648438 12.203125 46.648438 C 12.234375 46.648438 12.320312 46.695312 12.394531 46.746094 C 12.46875 46.800781 12.597656 46.859375 12.675781 46.878906 C 12.757812 46.898438 12.867188 46.957031 12.921875 47.007812 C 12.972656 47.058594 13.046875 47.101562 13.085938 47.101562 C 13.121094 47.101562 13.148438 47.121094 13.148438 47.148438 C 13.148438 47.175781 13.195312 47.199219 13.25 47.199219 C 13.304688 47.199219 13.351562 47.222656 13.351562 47.25 C 13.351562 47.277344 13.394531 47.300781 13.449219 47.300781 C 13.503906 47.300781 13.550781 47.324219 13.550781 47.351562 C 13.550781 47.378906 13.59375 47.398438 13.644531 47.398438 C 13.699219 47.398438 13.75 47.417969 13.757812 47.4375 C 13.765625 47.457031 13.886719 47.527344 14.023438 47.59375 C 14.164062 47.65625 14.3125 47.730469 14.363281 47.753906 C 14.410156 47.78125 14.484375 47.800781 14.523438 47.800781 C 14.566406 47.800781 14.601562 47.824219 14.601562 47.851562 C 14.601562 47.878906 14.644531 47.898438 14.699219 47.898438 C 14.753906 47.898438 14.800781 47.921875 14.800781 47.949219 C 14.800781 47.976562 14.84375 48 14.898438 48 C 14.953125 48 15 48.023438 15 48.050781 C 15 48.078125 15.042969 48.101562 15.097656 48.101562 C 15.148438 48.101562 15.207031 48.121094 15.226562 48.148438 C 15.242188 48.175781 15.3125 48.199219 15.378906 48.199219 C 15.445312 48.199219 15.5 48.222656 15.5 48.25 C 15.5 48.277344 15.546875 48.300781 15.601562 48.300781 C 15.65625 48.300781 15.699219 48.324219 15.699219 48.351562 C 15.699219 48.378906 15.746094 48.398438 15.800781 48.398438 C 15.855469 48.398438 15.941406 48.417969 15.988281 48.445312 C 16.105469 48.503906 16.289062 48.578125 16.5 48.648438 C 16.597656 48.683594 16.71875 48.726562 16.773438 48.75 C 17.003906 48.839844 17.417969 48.949219 17.53125 48.949219 C 17.597656 48.949219 17.648438 48.972656 17.648438 49 C 17.648438 49.027344 17.730469 49.050781 17.824219 49.050781 C 17.921875 49.050781 18 49.074219 18 49.101562 C 18 49.128906 18.066406 49.148438 18.148438 49.148438 C 18.226562 49.148438 18.308594 49.171875 18.324219 49.199219 C 18.34375 49.226562 18.433594 49.25 18.527344 49.25 C 18.621094 49.25 18.699219 49.273438 18.699219 49.300781 C 18.699219 49.328125 18.789062 49.351562 18.898438 49.351562 C 19.011719 49.351562 19.101562 49.371094 19.101562 49.398438 C 19.101562 49.425781 19.1875 49.449219 19.296875 49.449219 C 19.40625 49.449219 19.507812 49.472656 19.523438 49.5 C 19.542969 49.527344 19.65625 49.550781 19.777344 49.550781 C 19.898438 49.550781 20 49.574219 20 49.601562 C 20 49.628906 20.125 49.648438 20.273438 49.648438 C 20.425781 49.648438 20.550781 49.671875 20.550781 49.699219 C 20.550781 49.726562 20.671875 49.75 20.820312 49.75 C 20.972656 49.75 21.109375 49.773438 21.125 49.800781 C 21.140625 49.828125 21.308594 49.851562 21.5 49.851562 C 21.730469 49.851562 21.847656 49.871094 21.863281 49.914062 C 21.894531 50.003906 28.105469 50.003906 28.136719 49.914062 C 28.152344 49.871094 28.269531 49.851562 28.5 49.851562 C 28.691406 49.851562 28.859375 49.828125 28.875 49.800781 C 28.890625 49.773438 29.027344 49.75 29.175781 49.75 C 29.324219 49.75 29.457031 49.726562 29.476562 49.699219 C 29.492188 49.671875 29.617188 49.648438 29.753906 49.648438 C 29.890625 49.648438 30 49.628906 30 49.601562 C 30 49.574219 30.089844 49.550781 30.195312 49.550781 C 30.304688 49.550781 30.40625 49.527344 30.425781 49.5 C 30.441406 49.472656 30.554688 49.449219 30.679688 49.449219 C 30.800781 49.449219 30.898438 49.425781 30.898438 49.398438 C 30.898438 49.371094 30.988281 49.351562 31.101562 49.351562 C 31.210938 49.351562 31.300781 49.328125 31.300781 49.300781 C 31.300781 49.273438 31.378906 49.25 31.472656 49.25 C 31.566406 49.25 31.65625 49.226562 31.675781 49.199219 C 31.691406 49.171875 31.773438 49.148438 31.851562 49.148438 C 31.933594 49.148438 32 49.128906 32 49.101562 C 32 49.074219 32.078125 49.050781 32.175781 49.050781 C 32.269531 49.050781 32.351562 49.03125 32.351562 49.003906 C 32.351562 48.980469 32.472656 48.945312 32.625 48.925781 C 32.773438 48.910156 32.910156 48.871094 32.925781 48.847656 C 32.941406 48.820312 33.007812 48.800781 33.074219 48.800781 C 33.140625 48.800781 33.207031 48.777344 33.226562 48.75 C 33.242188 48.722656 33.300781 48.699219 33.355469 48.699219 C 33.40625 48.699219 33.492188 48.679688 33.539062 48.65625 C 33.585938 48.632812 33.691406 48.582031 33.773438 48.550781 C 33.859375 48.515625 33.964844 48.46875 34.011719 48.445312 C 34.058594 48.417969 34.144531 48.398438 34.199219 48.398438 C 34.253906 48.398438 34.300781 48.378906 34.300781 48.351562 C 34.300781 48.324219 34.34375 48.300781 34.398438 48.300781 C 34.453125 48.300781 34.5 48.277344 34.5 48.25 C 34.5 48.222656 34.566406 48.199219 34.648438 48.199219 C 34.734375 48.199219 34.800781 48.175781 34.800781 48.148438 C 34.800781 48.121094 34.84375 48.101562 34.898438 48.101562 C 34.953125 48.101562 35 48.078125 35 48.050781 C 35 48.023438 35.046875 48 35.101562 48 C 35.15625 48 35.199219 47.976562 35.199219 47.949219 C 35.199219 47.921875 35.234375 47.898438 35.277344 47.898438 C 35.347656 47.898438 35.402344 47.878906 35.636719 47.757812 C 35.699219 47.726562 35.78125 47.699219 35.824219 47.699219 C 35.867188 47.699219 35.898438 47.683594 35.898438 47.664062 C 35.898438 47.640625 36.023438 47.570312 36.175781 47.5 C 36.324219 47.429688 36.449219 47.359375 36.449219 47.335938 C 36.449219 47.316406 36.496094 47.300781 36.550781 47.300781 C 36.605469 47.300781 36.648438 47.277344 36.648438 47.25 C 36.648438 47.222656 36.695312 47.199219 36.75 47.199219 C 36.804688 47.199219 36.851562 47.175781 36.851562 47.148438 C 36.851562 47.121094 36.878906 47.101562 36.914062 47.101562 C 36.953125 47.101562 37.03125 47.054688 37.089844 47 C 37.148438 46.945312 37.222656 46.898438 37.253906 46.898438 C 37.328125 46.898438 37.820312 46.636719 37.839844 46.585938 C 37.851562 46.566406 37.878906 46.550781 37.90625 46.550781 C 37.933594 46.550781 38.054688 46.484375 38.175781 46.398438 C 38.292969 46.316406 38.414062 46.25 38.433594 46.25 C 38.457031 46.25 38.511719 46.203125 38.550781 46.148438 C 38.589844 46.09375 38.65625 46.050781 38.699219 46.050781 C 38.742188 46.050781 38.808594 46.003906 38.851562 45.949219 C 38.890625 45.894531 38.957031 45.851562 39 45.851562 C 39.042969 45.851562 39.109375 45.804688 39.148438 45.75 C 39.191406 45.695312 39.257812 45.648438 39.300781 45.648438 C 39.34375 45.648438 39.410156 45.605469 39.449219 45.550781 C 39.488281 45.496094 39.550781 45.449219 39.585938 45.449219 C 39.621094 45.449219 39.648438 45.425781 39.648438 45.398438 C 39.648438 45.371094 39.679688 45.351562 39.714844 45.351562 C 39.75 45.351562 39.808594 45.304688 39.851562 45.25 C 39.890625 45.195312 39.953125 45.148438 39.992188 45.148438 C 40.027344 45.148438 40.121094 45.082031 40.199219 45 C 40.277344 44.917969 40.359375 44.851562 40.382812 44.851562 C 40.40625 44.851562 40.523438 44.761719 40.644531 44.648438 C 40.765625 44.539062 40.882812 44.449219 40.90625 44.449219 C 40.929688 44.449219 41.042969 44.355469 41.160156 44.238281 C 41.277344 44.121094 41.453125 43.96875 41.550781 43.898438 C 41.644531 43.832031 41.945312 43.550781 42.214844 43.277344 C 42.800781 42.671875 42.671875 42.800781 43.277344 42.214844 C 43.550781 41.945312 43.832031 41.644531 43.898438 41.550781 C 43.96875 41.453125 44.121094 41.277344 44.238281 41.160156 C 44.355469 41.042969 44.449219 40.929688 44.449219 40.90625 C 44.449219 40.882812 44.539062 40.765625 44.648438 40.644531 C 44.761719 40.523438 44.851562 40.40625 44.851562 40.382812 C 44.851562 40.359375 44.917969 40.277344 45 40.199219 C 45.082031 40.121094 45.148438 40.027344 45.148438 39.992188 C 45.148438 39.953125 45.195312 39.890625 45.25 39.851562 C 45.304688 39.808594 45.351562 39.75 45.351562 39.714844 C 45.351562 39.679688 45.371094 39.648438 45.398438 39.648438 C 45.425781 39.648438 45.449219 39.621094 45.449219 39.585938 C 45.449219 39.550781 45.496094 39.488281 45.550781 39.449219 C 45.605469 39.410156 45.648438 39.34375 45.648438 39.300781 C 45.648438 39.257812 45.695312 39.191406 45.75 39.148438 C 45.804688 39.109375 45.851562 39.042969 45.851562 39 C 45.851562 38.957031 45.894531 38.890625 45.949219 38.851562 C 46.003906 38.808594 46.050781 38.742188 46.050781 38.699219 C 46.050781 38.65625 46.09375 38.589844 46.148438 38.550781 C 46.203125 38.511719 46.25 38.457031 46.25 38.433594 C 46.25 38.414062 46.316406 38.292969 46.398438 38.175781 C 46.484375 38.054688 46.550781 37.933594 46.550781 37.902344 C 46.550781 37.875 46.574219 37.851562 46.601562 37.851562 C 46.628906 37.851562 46.648438 37.804688 46.648438 37.75 C 46.648438 37.695312 46.667969 37.648438 46.691406 37.648438 C 46.734375 37.648438 46.898438 37.332031 46.898438 37.246094 C 46.898438 37.21875 46.945312 37.148438 47 37.089844 C 47.054688 37.03125 47.101562 36.953125 47.101562 36.914062 C 47.101562 36.878906 47.121094 36.851562 47.148438 36.851562 C 47.175781 36.851562 47.199219 36.804688 47.199219 36.75 C 47.199219 36.695312 47.222656 36.648438 47.25 36.648438 C 47.277344 36.648438 47.300781 36.605469 47.300781 36.550781 C 47.300781 36.496094 47.316406 36.449219 47.335938 36.449219 C 47.359375 36.449219 47.429688 36.324219 47.5 36.175781 C 47.570312 36.023438 47.640625 35.898438 47.664062 35.898438 C 47.683594 35.898438 47.699219 35.867188 47.699219 35.824219 C 47.699219 35.78125 47.722656 35.703125 47.75 35.648438 C 47.777344 35.59375 47.824219 35.503906 47.851562 35.449219 C 47.878906 35.394531 47.898438 35.316406 47.898438 35.277344 C 47.898438 35.234375 47.921875 35.199219 47.949219 35.199219 C 47.976562 35.199219 48 35.15625 48 35.101562 C 48 35.046875 48.023438 35 48.050781 35 C 48.078125 35 48.101562 34.957031 48.101562 34.902344 C 48.101562 34.851562 48.121094 34.792969 48.148438 34.773438 C 48.175781 34.757812 48.199219 34.6875 48.199219 34.621094 C 48.199219 34.554688 48.222656 34.5 48.25 34.5 C 48.277344 34.5 48.300781 34.453125 48.300781 34.398438 C 48.300781 34.34375 48.324219 34.300781 48.351562 34.300781 C 48.378906 34.300781 48.398438 34.253906 48.398438 34.199219 C 48.398438 34.144531 48.417969 34.058594 48.445312 34.011719 C 48.46875 33.964844 48.515625 33.859375 48.550781 33.773438 C 48.582031 33.691406 48.632812 33.585938 48.65625 33.539062 C 48.679688 33.492188 48.699219 33.40625 48.699219 33.355469 C 48.699219 33.300781 48.722656 33.242188 48.75 33.226562 C 48.777344 33.207031 48.800781 33.140625 48.800781 33.074219 C 48.800781 33.007812 48.820312 32.941406 48.847656 32.925781 C 48.871094 32.910156 48.910156 32.773438 48.925781 32.625 C 48.945312 32.472656 48.980469 32.351562 49.003906 32.351562 C 49.03125 32.351562 49.050781 32.269531 49.050781 32.175781 C 49.050781 32.078125 49.074219 32 49.101562 32 C 49.128906 32 49.148438 31.933594 49.148438 31.851562 C 49.148438 31.773438 49.171875 31.691406 49.199219 31.675781 C 49.226562 31.65625 49.25 31.566406 49.25 31.472656 C 49.25 31.378906 49.273438 31.300781 49.300781 31.300781 C 49.328125 31.300781 49.351562 31.210938 49.351562 31.101562 C 49.351562 30.988281 49.371094 30.898438 49.398438 30.898438 C 49.425781 30.898438 49.449219 30.8125 49.449219 30.703125 C 49.449219 30.59375 49.472656 30.492188 49.5 30.476562 C 49.527344 30.457031 49.550781 30.34375 49.550781 30.222656 C 49.550781 30.101562 49.574219 30 49.601562 30 C 49.628906 30 49.648438 29.890625 49.648438 29.753906 C 49.648438 29.617188 49.671875 29.492188 49.699219 29.476562 C 49.726562 29.457031 49.75 29.324219 49.75 29.175781 C 49.75 29.027344 49.773438 28.890625 49.800781 28.875 C 49.828125 28.859375 49.851562 28.691406 49.851562 28.5 C 49.851562 28.269531 49.871094 28.152344 49.914062 28.136719 C 49.960938 28.121094 49.976562 27.449219 49.976562 25 C 49.976562 22.550781 49.960938 21.878906 49.914062 21.863281 C 49.871094 21.847656 49.851562 21.730469 49.851562 21.5 C 49.851562 21.308594 49.828125 21.140625 49.800781 21.125 C 49.773438 21.109375 49.75 20.972656 49.75 20.824219 C 49.75 20.675781 49.726562 20.542969 49.699219 20.523438 C 49.671875 20.507812 49.648438 20.382812 49.648438 20.246094 C 49.648438 20.109375 49.628906 20 49.601562 20 C 49.574219 20 49.550781 19.898438 49.550781 19.777344 C 49.550781 19.65625 49.527344 19.542969 49.5 19.523438 C 49.472656 19.507812 49.449219 19.40625 49.449219 19.296875 C 49.449219 19.1875 49.425781 19.101562 49.398438 19.101562 C 49.371094 19.101562 49.351562 19.011719 49.351562 18.898438 C 49.351562 18.789062 49.328125 18.699219 49.300781 18.699219 C 49.273438 18.699219 49.25 18.621094 49.25 18.527344 C 49.25 18.433594 49.226562 18.34375 49.199219 18.324219 C 49.171875 18.308594 49.148438 18.226562 49.148438 18.148438 C 49.148438 18.066406 49.128906 18 49.101562 18 C 49.074219 18 49.050781 17.921875 49.050781 17.824219 C 49.050781 17.730469 49.03125 17.648438 49.003906 17.648438 C 48.980469 17.648438 48.945312 17.527344 48.925781 17.375 C 48.910156 17.226562 48.871094 17.089844 48.847656 17.074219 C 48.820312 17.058594 48.800781 16.992188 48.800781 16.925781 C 48.800781 16.859375 48.777344 16.792969 48.75 16.773438 C 48.722656 16.757812 48.699219 16.699219 48.699219 16.644531 C 48.699219 16.59375 48.679688 16.507812 48.65625 16.460938 C 48.632812 16.414062 48.582031 16.308594 48.550781 16.226562 C 48.515625 16.140625 48.46875 16.035156 48.445312 15.988281 C 48.417969 15.941406 48.398438 15.855469 48.398438 15.800781 C 48.398438 15.746094 48.378906 15.699219 48.351562 15.699219 C 48.324219 15.699219 48.300781 15.65625 48.300781 15.601562 C 48.300781 15.546875 48.277344 15.5 48.25 15.5 C 48.222656 15.5 48.199219 15.433594 48.199219 15.351562 C 48.199219 15.265625 48.175781 15.199219 48.148438 15.199219 C 48.121094 15.199219 48.101562 15.15625 48.101562 15.101562 C 48.101562 15.046875 48.078125 15 48.050781 15 C 48.023438 15 48 14.953125 48 14.898438 C 48 14.84375 47.976562 14.800781 47.949219 14.800781 C 47.921875 14.800781 47.898438 14.753906 47.898438 14.699219 C 47.898438 14.644531 47.878906 14.601562 47.851562 14.601562 C 47.824219 14.601562 47.800781 14.546875 47.800781 14.476562 C 47.800781 14.410156 47.777344 14.34375 47.75 14.324219 C 47.722656 14.308594 47.699219 14.25 47.699219 14.195312 C 47.699219 14.144531 47.675781 14.101562 47.648438 14.101562 C 47.621094 14.101562 47.601562 14.054688 47.601562 14 C 47.601562 13.945312 47.582031 13.898438 47.558594 13.898438 C 47.535156 13.898438 47.488281 13.820312 47.449219 13.726562 C 47.414062 13.628906 47.363281 13.550781 47.339844 13.550781 C 47.316406 13.550781 47.300781 13.503906 47.300781 13.449219 C 47.300781 13.394531 47.277344 13.351562 47.25 13.351562 C 47.222656 13.351562 47.199219 13.304688 47.199219 13.25 C 47.199219 13.195312 47.175781 13.148438 47.148438 13.148438 C 47.121094 13.148438 47.101562 13.121094 47.101562 13.085938 C 47.101562 13.046875 47.054688 12.96875 47 12.910156 C 46.945312 12.851562 46.898438 12.777344 46.898438 12.746094 C 46.898438 12.65625 46.636719 12.148438 46.589844 12.148438 C 46.566406 12.148438 46.550781 12.125 46.550781 12.097656 C 46.550781 12.066406 46.484375 11.945312 46.398438 11.824219 C 46.316406 11.707031 46.25 11.585938 46.25 11.566406 C 46.25 11.542969 46.203125 11.488281 46.148438 11.449219 C 46.09375 11.410156 46.050781 11.34375 46.050781 11.300781 C 46.050781 11.257812 46.003906 11.191406 45.949219 11.148438 C 45.894531 11.109375 45.851562 11.042969 45.851562 11 C 45.851562 10.957031 45.804688 10.890625 45.75 10.851562 C 45.695312 10.808594 45.648438 10.742188 45.648438 10.699219 C 45.648438 10.65625 45.605469 10.589844 45.550781 10.550781 C 45.496094 10.511719 45.449219 10.453125 45.449219 10.421875 C 45.449219 10.390625 45.382812 10.292969 45.300781 10.207031 C 45.21875 10.121094 45.148438 10.027344 45.148438 9.996094 C 45.148438 9.964844 45.082031 9.878906 45 9.800781 C 44.917969 9.722656 44.851562 9.640625 44.851562 9.617188 C 44.851562 9.59375 44.761719 9.476562 44.648438 9.355469 C 44.539062 9.234375 44.449219 9.117188 44.449219 9.09375 C 44.449219 9.070312 44.355469 8.957031 44.238281 8.839844 C 44.121094 8.722656 43.96875 8.546875 43.898438 8.449219 C 43.832031 8.355469 43.550781 8.054688 43.277344 7.785156 C 42.671875 7.199219 42.800781 7.328125 42.214844 6.722656 C 41.945312 6.449219 41.648438 6.167969 41.550781 6.101562 C 41.453125 6.03125 41.265625 5.867188 41.132812 5.738281 C 41 5.605469 40.867188 5.5 40.84375 5.5 C 40.816406 5.5 40.742188 5.449219 40.675781 5.386719 C 40.492188 5.214844 40.40625 5.148438 40.371094 5.148438 C 40.355469 5.148438 40.277344 5.082031 40.199219 5 C 40.121094 4.917969 40.035156 4.851562 40.003906 4.851562 C 39.972656 4.851562 39.878906 4.78125 39.792969 4.699219 C 39.707031 4.617188 39.609375 4.550781 39.578125 4.550781 C 39.546875 4.550781 39.488281 4.503906 39.449219 4.449219 C 39.410156 4.394531 39.34375 4.351562 39.300781 4.351562 C 39.257812 4.351562 39.191406 4.304688 39.148438 4.25 C 39.109375 4.195312 39.042969 4.148438 39 4.148438 C 38.957031 4.148438 38.890625 4.105469 38.851562 4.050781 C 38.808594 3.996094 38.742188 3.949219 38.699219 3.949219 C 38.65625 3.949219 38.589844 3.90625 38.550781 3.851562 C 38.511719 3.796875 38.457031 3.75 38.433594 3.75 C 38.414062 3.75 38.292969 3.683594 38.175781 3.601562 C 38.054688 3.515625 37.933594 3.449219 37.90625 3.449219 C 37.878906 3.449219 37.851562 3.433594 37.839844 3.414062 C 37.820312 3.363281 37.328125 3.101562 37.253906 3.101562 C 37.222656 3.101562 37.148438 3.054688 37.089844 3 C 37.03125 2.945312 36.953125 2.898438 36.914062 2.898438 C 36.878906 2.898438 36.851562 2.878906 36.851562 2.851562 C 36.851562 2.824219 36.804688 2.800781 36.75 2.800781 C 36.695312 2.800781 36.648438 2.777344 36.648438 2.75 C 36.648438 2.722656 36.605469 2.699219 36.550781 2.699219 C 36.496094 2.699219 36.449219 2.683594 36.449219 2.660156 C 36.449219 2.636719 36.371094 2.585938 36.273438 2.550781 C 36.179688 2.511719 36.101562 2.464844 36.101562 2.441406 C 36.101562 2.417969 36.054688 2.398438 36 2.398438 C 35.945312 2.398438 35.898438 2.378906 35.898438 2.351562 C 35.898438 2.324219 35.867188 2.300781 35.824219 2.300781 C 35.75 2.300781 35.699219 2.277344 35.464844 2.15625 C 35.402344 2.125 35.316406 2.101562 35.277344 2.101562 C 35.234375 2.101562 35.199219 2.078125 35.199219 2.050781 C 35.199219 2.023438 35.15625 2 35.101562 2 C 35.046875 2 35 1.976562 35 1.949219 C 35 1.921875 34.953125 1.898438 34.898438 1.898438 C 34.84375 1.898438 34.800781 1.878906 34.800781 1.851562 C 34.800781 1.824219 34.734375 1.800781 34.648438 1.800781 C 34.566406 1.800781 34.5 1.777344 34.5 1.75 C 34.5 1.722656 34.453125 1.699219 34.398438 1.699219 C 34.34375 1.699219 34.300781 1.675781 34.300781 1.648438 C 34.300781 1.621094 34.253906 1.601562 34.199219 1.601562 C 34.144531 1.601562 34.058594 1.582031 34.011719 1.554688 C 33.964844 1.53125 33.859375 1.484375 33.773438 1.449219 C 33.691406 1.417969 33.585938 1.367188 33.539062 1.34375 C 33.492188 1.320312 33.417969 1.300781 33.375 1.300781 C 33.332031 1.300781 33.257812 1.28125 33.210938 1.253906 C 33.070312 1.179688 32.597656 1.050781 32.46875 1.050781 C 32.402344 1.050781 32.351562 1.027344 32.351562 1 C 32.351562 0.972656 32.269531 0.949219 32.175781 0.949219 C 32.078125 0.949219 32 0.925781 32 0.898438 C 32 0.871094 31.933594 0.851562 31.851562 0.851562 C 31.765625 0.851562 31.699219 0.828125 31.699219 0.800781 C 31.699219 0.773438 31.609375 0.75 31.5 0.75 C 31.390625 0.75 31.300781 0.726562 31.300781 0.699219 C 31.300781 0.671875 31.210938 0.648438 31.101562 0.648438 C 30.988281 0.648438 30.898438 0.628906 30.898438 0.601562 C 30.898438 0.574219 30.8125 0.550781 30.703125 0.550781 C 30.59375 0.550781 30.492188 0.527344 30.476562 0.5 C 30.457031 0.472656 30.34375 0.449219 30.222656 0.449219 C 30.101562 0.449219 30 0.425781 30 0.398438 C 30 0.371094 29.886719 0.351562 29.75 0.351562 C 29.613281 0.351562 29.5 0.328125 29.5 0.300781 C 29.5 0.273438 29.367188 0.25 29.203125 0.25 C 29.039062 0.25 28.890625 0.226562 28.875 0.199219 C 28.859375 0.171875 28.691406 0.148438 28.5 0.148438 C 28.273438 0.148438 28.152344 0.128906 28.136719 0.0898438 C 28.117188 0.0273438 23.410156 -0.015625 22.289062 0.0351562 M 26.773438 9.277344 C 28.078125 9.425781 29.835938 9.847656 30.625 10.195312 C 30.910156 10.320312 31.097656 10.398438 31.300781 10.480469 C 32.171875 10.820312 33.992188 11.894531 34.648438 12.449219 C 34.695312 12.492188 34.8125 12.582031 34.902344 12.648438 C 35.515625 13.117188 36.894531 14.5 37.351562 15.101562 C 37.417969 15.191406 37.5 15.289062 37.527344 15.320312 C 37.554688 15.351562 37.65625 15.488281 37.75 15.625 C 37.84375 15.761719 37.933594 15.886719 37.953125 15.898438 C 38.164062 16.054688 39.648438 18.769531 39.648438 19.003906 C 39.648438 19.03125 39.667969 19.089844 39.695312 19.136719 C 40.859375 21.425781 41.167969 26.496094 40.300781 29.101562 C 40.277344 29.167969 40.210938 29.394531 40.152344 29.601562 C 39.941406 30.320312 39.675781 31.007812 39.210938 32 C 37.773438 35.082031 34.382812 38.335938 31.398438 39.5 C 31.304688 39.535156 31.113281 39.617188 30.976562 39.679688 C 30.148438 40.046875 29.820312 40.105469 29.472656 39.941406 C 28.910156 39.679688 28.898438 39.609375 28.898438 36.621094 C 28.898438 33.632812 28.851562 33.269531 28.335938 32.492188 C 28.101562 32.144531 28.089844 32.171875 28.488281 32.101562 C 28.949219 32.019531 30.148438 31.6875 30.3125 31.597656 C 30.359375 31.570312 30.421875 31.550781 30.449219 31.550781 C 30.507812 31.550781 30.8125 31.417969 31.300781 31.183594 C 33.839844 29.953125 35.144531 27.769531 35.148438 24.746094 C 35.152344 22.757812 34.789062 21.613281 33.632812 19.976562 C 33.578125 19.898438 33.570312 19.804688 33.605469 19.574219 C 33.859375 17.761719 33.738281 16.429688 33.277344 15.933594 C 32.820312 15.441406 31.09375 15.984375 29.285156 17.191406 C 28.949219 17.414062 28.9375 17.417969 28.707031 17.363281 C 28.582031 17.332031 28.339844 17.285156 28.175781 17.257812 C 26.054688 16.894531 23.582031 16.914062 21.558594 17.304688 L 21.042969 17.40625 L 20.707031 17.183594 C 18.867188 15.957031 17.183594 15.441406 16.703125 15.957031 C 16.332031 16.359375 16.140625 18.011719 16.339844 19.148438 C 16.46875 19.90625 16.476562 19.847656 16.175781 20.257812 C 15.816406 20.738281 15.515625 21.296875 15.277344 21.925781 C 15.003906 22.648438 14.847656 23.667969 14.851562 24.746094 C 14.851562 28.449219 16.835938 30.890625 20.675781 31.902344 C 21.152344 32.027344 21.183594 32.035156 21.539062 32.101562 C 21.832031 32.160156 21.929688 32.242188 21.800781 32.324219 C 21.617188 32.4375 21.246094 33.316406 21.179688 33.808594 C 21.128906 34.148438 21.003906 34.203125 19.917969 34.371094 C 18.359375 34.613281 17.6875 34.28125 16.515625 32.691406 C 15.652344 31.519531 15.523438 31.402344 14.90625 31.203125 C 14.476562 31.066406 13.570312 31.191406 13.433594 31.40625 C 13.371094 31.511719 13.414062 31.558594 13.867188 31.863281 C 14.792969 32.480469 15.214844 32.976562 15.65625 33.960938 C 16.636719 36.148438 17.984375 36.820312 20.519531 36.371094 C 21.15625 36.261719 21.101562 36.128906 21.101562 37.75 C 21.101562 39.5625 21.015625 39.820312 20.375 40 C 19.855469 40.144531 16.921875 38.800781 15.875 37.9375 C 15.820312 37.894531 15.664062 37.773438 15.523438 37.667969 C 14.796875 37.128906 14.605469 36.957031 13.824219 36.175781 C 13.199219 35.550781 12.933594 35.261719 12.671875 34.921875 C 12.132812 34.222656 11.992188 34.03125 11.742188 33.648438 C 11.347656 33.039062 10.992188 32.398438 10.699219 31.773438 C 10.449219 31.238281 10.402344 31.132812 10.300781 30.875 C 10.273438 30.804688 10.230469 30.699219 10.203125 30.636719 C 9.238281 28.34375 8.925781 24.769531 9.453125 22.050781 C 10.777344 15.226562 16.285156 10.101562 23.175781 9.277344 C 23.957031 9.183594 25.972656 9.183594 26.773438 9.277344 "/>
</g>
</svg>
