<svg xmlns="http://www.w3.org/2000/svg" width="66.667" height="66.667" viewBox="0 0 50 50" fill-rule="evenodd" xmlns:v="https://vecta.io/nano"><path d="M23.176 9.277c-6.891.824-12.398 5.949-13.723 12.773-.527 2.719-.215 6.293.75 8.586.027.063.07.168.098.238a17.17 17.17 0 0 0 1.441 2.773c.25.383.391.574.93 1.273.262.34.527.629 1.152 1.254.781.781.973.953 1.699 1.492l.352.27c1.047.863 3.98 2.207 4.5 2.063.641-.18.727-.437.727-2.25 0-1.621.055-1.488-.582-1.379-2.535.449-3.883-.223-4.863-2.41-.441-.984-.863-1.48-1.789-2.098-.453-.305-.496-.352-.434-.457.137-.215 1.043-.34 1.473-.203.617.199.746.316 1.609 1.488 1.172 1.59 1.844 1.922 3.402 1.68 1.086-.168 1.211-.223 1.262-.562.066-.492.438-1.371.621-1.484.129-.082.031-.164-.262-.223-.355-.066-.387-.074-.863-.199-3.211-.848-5.117-2.684-5.668-5.453-.27-1.344-.187-3.191.191-4.301a6.87 6.87 0 0 1 .977-1.891c.301-.41.293-.352.164-1.109-.199-1.137-.008-2.789.363-3.191.48-.516 2.164 0 4.004 1.227l.336.223.516-.102c1.465-.281 3.566-.391 4.941-.254 1.109.113 1.719.199 2.207.313.23.055.242.051.578-.172 1.809-1.207 3.535-1.75 3.992-1.258s.582 1.828.328 3.641c-.035.23-.027.324.027.402 1.156 1.637 1.52 2.781 1.516 4.77-.004 3.023-1.309 5.207-3.848 6.438-.488.234-.793.367-.852.367-.027 0-.09.02-.137.047-.164.09-1.363.422-1.824.504-.398.07-.387.043-.152.391.516.777.563 1.141.563 4.129s.012 3.059.574 3.32c.348.164.676.105 1.504-.262a8.37 8.37 0 0 1 .422-.18c2.984-1.164 6.375-4.418 7.813-7.5.465-.992.73-1.68.941-2.398l.148-.5c.867-2.605.559-7.676-.605-9.965a.34.34 0 0 1-.047-.133c0-.234-1.484-2.949-1.695-3.105-.02-.012-.109-.137-.203-.273s-.195-.273-.223-.305a4.05 4.05 0 0 1-.176-.219c-.457-.602-1.836-1.984-2.449-2.453a4.24 4.24 0 0 1-.254-.199c-.656-.555-2.477-1.629-3.348-1.969a23.09 23.09 0 0 1-.676-.285c-1.75-.773-5.148-1.191-7.449-.918" fill="rgb(98.431373%,98.431373%,98.431373%)"/><path d="M22.289.035c-.242.012-.437.039-.437.066s-.168.047-.375.047-.383.023-.402.051-.141.051-.277.051-.246.023-.246.051-.125.051-.277.051S20 .371 20 .398s-.102.051-.223.051-.234.023-.254.051-.117.051-.227.051-.195.023-.195.051-.09.047-.203.047-.199.023-.199.051-.09.051-.199.051-.199.023-.199.051-.066.051-.152.051S18 .871 18 .898s-.078.051-.176.051-.176.023-.176.051-.051.051-.117.051c-.113 0-.527.109-.758.199l-.273.102c-.211.07-.395.145-.512.203-.047.027-.133.047-.187.047s-.102.02-.102.047-.043.051-.098.051-.102.023-.102.051-.055.051-.121.051-.137.023-.152.051-.078.047-.129.047-.098.023-.098.051-.047.051-.102.051-.098.023-.098.051-.035.051-.078.051c-.07 0-.125.02-.359.141-.062.031-.145.059-.187.059s-.074.023-.074.051-.047.047-.102.047-.102.02-.102.043-.078.07-.172.109-.176.086-.176.109-.047.039-.102.039-.098.023-.098.051-.047.051-.102.051-.102.023-.102.051-.039.047-.086.047-.121.047-.164.102-.102.102-.137.102a1.94 1.94 0 0 0-.602.305c-.012.023-.039.043-.066.043s-.148.066-.27.152-.238.148-.258.148-.078.047-.117.102-.105.098-.148.098-.109.047-.152.102-.105.098-.148.098-.109.047-.148.102-.102.102-.137.102-.137.066-.223.148-.184.148-.215.148-.086.047-.129.102-.102.102-.141.102-.129.066-.207.148-.156.148-.172.148c-.035 0-.086.039-.336.266-.086.074-.172.137-.195.137s-.141.094-.258.211a3.95 3.95 0 0 1-.391.34c-.094.066-.395.348-.664.621L6.723 7.785l-.621.664c-.07.098-.234.285-.363.418s-.238.266-.238.289-.051.102-.113.168c-.172.184-.238.27-.238.305 0 .016-.066.094-.148.172s-.148.172-.148.207-.047.102-.102.141-.102.102-.102.137-.02.066-.047.066-.051.027-.051.063-.047.098-.102.137-.098.105-.098.148-.047.109-.102.152-.102.105-.102.148-.043.109-.098.148-.102.109-.102.152-.043.109-.098.148-.102.094-.102.117-.066.141-.148.258-.152.242-.152.27-.02.055-.043.066a1.94 1.94 0 0 0-.305.602c0 .035-.047.098-.102.137s-.102.113-.102.164-.02.086-.047.086-.051.047-.051.102-.023.102-.051.102-.051.043-.051.098-.016.102-.039.102-.074.078-.109.176-.086.172-.109.172-.043.047-.043.102-.02.102-.047.102-.051.031-.051.07-.047.156-.102.254-.098.223-.098.277-.023.098-.051.098-.051.043-.051.098-.023.102-.051.102-.051.047-.051.102-.02.098-.047.098-.051.066-.051.152-.023.148-.051.148-.051.047-.051.102-.023.098-.051.098-.047.047-.047.102-.02.141-.047.188l-.105.238c-.031.082-.082.188-.105.234s-.043.121-.043.164a.39.39 0 0 1-.047.164c-.074.141-.203.613-.203.742 0 .066-.023.117-.051.117s-.051.082-.051.176S.926 18 .898 18s-.047.066-.047.148-.023.152-.051.152-.051.09-.051.199-.023.199-.051.199-.051.09-.051.199-.02.203-.047.203-.051.086-.051.195-.023.211-.051.227-.051.133-.051.254S.426 20 .398 20s-.047.113-.047.25-.023.25-.051.25-.051.133-.051.297-.023.313-.051.328-.051.172-.051.344c0 .184-.023.336-.063.375-.047.047-.062.75-.062 3.168l.063 3.125c.043.016.063.133.063.363 0 .191.023.359.051.375s.051.164.051.328.023.297.051.297.051.113.051.25.02.25.047.25.051.102.051.223.023.234.051.254.051.117.051.227.023.195.051.195.047.09.047.203.023.199.051.199.051.09.051.199.023.199.051.199.051.066.051.152.02.148.047.148.051.078.051.176.023.176.051.176.051.051.051.117c0 .129.129.602.203.742a.39.39 0 0 1 .047.164c0 .043.02.117.043.164l.105.234.105.238c.027.047.047.133.047.188s.02.102.047.102.051.043.051.098.023.102.051.102.051.066.051.148.023.152.051.152.047.043.047.098.023.102.051.102.051.047.051.102.023.098.051.098.051.035.051.078.02.117.047.172l.102.199c.027.055.051.133.051.176s.016.074.035.074.094.125.164.277.141.273.164.273.035.047.035.102.023.098.051.098.051.047.051.102.023.102.051.102.047.027.047.063.047.117.102.176.102.133.102.164a2.1 2.1 0 0 0 .313.586c.02.012.035.039.035.066s.066.148.152.27.148.238.148.258.047.078.102.117.098.105.098.148.047.109.102.152.098.105.098.148.047.109.102.148.102.109.102.152.043.109.098.148.102.102.102.137.023.063.051.063.047.031.047.066.047.094.102.137.102.102.102.141.066.129.148.207.148.156.148.172c0 .035.035.082.25.32.082.094.152.188.152.211s.094.141.211.258a3.95 3.95 0 0 1 .34.391c.066.094.348.395.621.664l1.063 1.063.664.621a3.95 3.95 0 0 1 .391.34c.117.117.23.211.254.211s.129.078.234.176.207.176.23.176.117.078.215.176.203.172.238.172.098.047.137.102.098.102.129.102.129.066.215.148.188.148.223.148.094.047.137.102.105.102.148.102.109.043.148.098.109.102.152.102.109.043.148.098.094.102.117.102.141.066.258.148.242.152.273.152.051.023.051.051.027.047.055.047.117.047.191.098a.97.97 0 0 0 .281.133c.082.02.191.078.246.129s.125.094.164.094.063.02.063.047.047.051.102.051.102.023.102.051.043.051.098.051.102.023.102.051.043.047.094.047.105.02.113.039.129.09.266.156l.34.16a.39.39 0 0 0 .16.047c.043 0 .078.023.078.051s.043.047.098.047.102.023.102.051.043.051.098.051.102.023.102.051.043.051.098.051.109.02.129.047.086.051.152.051.121.023.121.051.047.051.102.051.098.023.098.051.047.047.102.047.141.02.188.047c.117.059.301.133.512.203l.273.102c.23.09.645.199.758.199.066 0 .117.023.117.051s.082.051.176.051.176.023.176.051.066.047.148.047.16.023.176.051.109.051.203.051.172.023.172.051.09.051.199.051.203.02.203.047.086.051.195.051.211.023.227.051.133.051.254.051.223.023.223.051.125.047.273.047.277.023.277.051.121.051.27.051.289.023.305.051.184.051.375.051c.23 0 .348.02.363.063.031.09 6.242.09 6.273 0 .016-.043.133-.062.363-.062.191 0 .359-.023.375-.051s.152-.051.301-.051.281-.023.301-.051.141-.051.277-.051.246-.02.246-.047.09-.051.195-.051.211-.023.23-.051.129-.051.254-.051.219-.023.219-.051.09-.047.203-.047.199-.023.199-.051.078-.051.172-.051.184-.023.203-.051.098-.051.176-.051.148-.02.148-.047.078-.051.176-.051.176-.02.176-.047.121-.059.273-.078.285-.055.301-.078.082-.047.148-.047.133-.023.152-.051.074-.051.129-.051.137-.02.184-.043l.234-.105.238-.105c.047-.027.133-.047.188-.047s.102-.02.102-.047.043-.051.098-.051.102-.023.102-.051.066-.051.148-.051.152-.023.152-.051.043-.047.098-.047.102-.023.102-.051.047-.051.102-.051.098-.023.098-.051.035-.051.078-.051c.07 0 .125-.02.359-.141.063-.031.145-.059.188-.059s.074-.016.074-.035.125-.094.277-.164.273-.141.273-.164.047-.035.102-.035.098-.023.098-.051.047-.051.102-.051.102-.023.102-.051.027-.047.063-.047.117-.047.176-.102.133-.102.164-.102a2.1 2.1 0 0 0 .586-.312c.012-.02.039-.035.066-.035s.148-.066.27-.152.238-.148.258-.148.078-.047.117-.102.105-.098.148-.098.109-.047.152-.102.105-.098.148-.098.109-.047.148-.102.109-.102.152-.102.109-.043.148-.098.102-.102.137-.102.063-.023.063-.051.031-.047.066-.047.094-.047.137-.102.102-.102.141-.102.129-.066.207-.148.16-.148.184-.148.141-.09.262-.203.238-.199.262-.199.137-.094.254-.211a3.95 3.95 0 0 1 .391-.34c.094-.066.395-.348.664-.621l1.063-1.062.621-.664a3.95 3.95 0 0 1 .34-.391c.117-.117.211-.23.211-.254s.09-.141.199-.262.203-.238.203-.262.066-.105.148-.184.148-.172.148-.207.047-.102.102-.141.102-.102.102-.137.02-.066.047-.066.051-.027.051-.062.047-.098.102-.137.098-.105.098-.148.047-.109.102-.152.102-.105.102-.148.043-.109.098-.148.102-.109.102-.152.043-.109.098-.148.102-.094.102-.117.066-.141.148-.258.152-.242.152-.273.023-.051.051-.051.047-.047.047-.102.02-.102.043-.102c.043 0 .207-.316.207-.402 0-.027.047-.098.102-.156s.102-.137.102-.176.02-.062.047-.062.051-.047.051-.102.023-.102.051-.102.051-.043.051-.098.016-.102.035-.102.094-.125.164-.273.141-.277.164-.277.035-.031.035-.074.023-.121.051-.176l.102-.199c.027-.055.047-.133.047-.172s.023-.078.051-.078.051-.043.051-.098.023-.102.051-.102.051-.043.051-.098.02-.109.047-.129.051-.086.051-.152.023-.121.051-.121.051-.047.051-.102.023-.098.051-.098.047-.047.047-.102.02-.141.047-.187l.105-.238c.031-.082.082-.187.105-.234s.043-.133.043-.184.023-.113.051-.129.051-.086.051-.152.02-.133.047-.148.063-.152.078-.301.055-.273.078-.273.047-.082.047-.176.023-.176.051-.176.047-.066.047-.148.023-.16.051-.176.051-.109.051-.203.023-.172.051-.172.051-.09.051-.199.02-.203.047-.203.051-.086.051-.195.023-.211.051-.227.051-.133.051-.254.023-.223.051-.223.047-.109.047-.246.023-.262.051-.277.051-.152.051-.301.023-.285.051-.301.051-.184.051-.375c0-.23.02-.348.063-.363s.063-.687.063-3.137l-.062-3.137c-.043-.016-.062-.133-.062-.363 0-.191-.023-.359-.051-.375s-.051-.152-.051-.301-.023-.281-.051-.301-.051-.141-.051-.277-.02-.246-.047-.246-.051-.102-.051-.223-.023-.234-.051-.254-.051-.117-.051-.227-.023-.195-.051-.195-.047-.09-.047-.203-.023-.199-.051-.199-.051-.078-.051-.172-.023-.184-.051-.203-.051-.098-.051-.176-.02-.148-.047-.148-.051-.078-.051-.176-.02-.176-.047-.176-.059-.121-.078-.273-.055-.285-.078-.301-.047-.082-.047-.148-.023-.133-.051-.152-.051-.074-.051-.129-.02-.137-.043-.184l-.105-.234-.105-.238c-.027-.047-.047-.133-.047-.187s-.02-.102-.047-.102-.051-.043-.051-.098-.023-.102-.051-.102-.051-.066-.051-.148-.023-.152-.051-.152-.047-.043-.047-.098-.023-.102-.051-.102-.051-.047-.051-.102-.023-.098-.051-.098-.051-.047-.051-.102-.02-.098-.047-.098-.051-.055-.051-.125-.023-.133-.051-.152-.051-.074-.051-.129-.023-.094-.051-.094-.047-.047-.047-.102-.02-.102-.043-.102-.07-.078-.109-.172-.086-.176-.109-.176-.039-.047-.039-.102-.023-.098-.051-.098-.051-.047-.051-.102-.023-.102-.051-.102-.047-.027-.047-.062-.047-.117-.102-.176-.102-.133-.102-.164c0-.09-.262-.598-.309-.598-.023 0-.039-.023-.039-.051s-.066-.152-.152-.273-.148-.238-.148-.258-.047-.078-.102-.117-.098-.105-.098-.148-.047-.109-.102-.152-.098-.105-.098-.148-.047-.109-.102-.148-.102-.109-.102-.152-.043-.109-.098-.148-.102-.098-.102-.129-.066-.129-.148-.215-.152-.18-.152-.211-.066-.117-.148-.195-.148-.16-.148-.184-.09-.141-.203-.262-.199-.238-.199-.262-.094-.137-.211-.254a3.95 3.95 0 0 1-.34-.391c-.066-.094-.348-.395-.621-.664l-1.062-1.062-.664-.621c-.098-.07-.285-.234-.418-.363s-.266-.238-.289-.238-.102-.051-.168-.113c-.184-.172-.27-.238-.305-.238-.016 0-.094-.066-.172-.148s-.164-.148-.195-.148-.125-.07-.211-.152-.184-.148-.215-.148-.09-.047-.129-.102-.105-.098-.148-.098-.109-.047-.152-.102-.105-.102-.148-.102-.109-.043-.148-.098-.109-.102-.152-.102-.109-.043-.148-.098-.094-.102-.117-.102-.141-.066-.258-.148-.242-.152-.27-.152-.055-.016-.066-.035a2.1 2.1 0 0 0-.586-.312c-.031 0-.105-.047-.164-.102s-.137-.102-.176-.102-.062-.02-.062-.047-.047-.051-.102-.051-.102-.023-.102-.051-.043-.051-.098-.051-.102-.016-.102-.039-.078-.074-.176-.109-.172-.086-.172-.109-.047-.043-.102-.043-.102-.02-.102-.047-.031-.051-.074-.051c-.074 0-.125-.023-.359-.145a.54.54 0 0 0-.187-.055c-.043 0-.078-.023-.078-.051S35.156 2 35.102 2 35 1.977 35 1.949s-.047-.051-.102-.051-.098-.02-.098-.047-.066-.051-.152-.051-.148-.023-.148-.051-.047-.051-.102-.051-.098-.023-.098-.051-.047-.047-.102-.047-.141-.02-.187-.047l-.238-.105c-.082-.031-.187-.082-.234-.105s-.121-.043-.164-.043a.39.39 0 0 1-.164-.047c-.141-.074-.613-.203-.742-.203-.066 0-.117-.023-.117-.051s-.082-.051-.176-.051S32 .926 32 .898s-.066-.047-.148-.047-.152-.023-.152-.051S31.609.75 31.5.75s-.199-.023-.199-.051-.09-.051-.199-.051-.203-.02-.203-.047-.086-.051-.195-.051-.211-.023-.227-.051-.133-.051-.254-.051S30 .426 30 .398s-.113-.047-.25-.047-.25-.023-.25-.051-.133-.051-.297-.051-.312-.023-.328-.051-.184-.051-.375-.051c-.227 0-.348-.02-.363-.059-.02-.062-4.727-.105-5.848-.055m4.484 9.242c1.305.148 3.063.57 3.852.918l.676.285c.871.34 2.691 1.414 3.348 1.969a4.24 4.24 0 0 0 .254.199c.613.469 1.992 1.852 2.449 2.453l.176.219c.027.031.129.168.223.305l.203.273c.211.156 1.695 2.871 1.695 3.105a.34.34 0 0 0 .047.133c1.164 2.289 1.473 7.359.605 9.965a13.73 13.73 0 0 0-.148.5c-.211.719-.477 1.406-.941 2.398-1.437 3.082-4.828 6.336-7.812 7.5a8.37 8.37 0 0 0-.422.18c-.828.367-1.156.426-1.504.262-.562-.262-.574-.332-.574-3.32s-.047-3.352-.562-4.129c-.234-.348-.246-.32.152-.391.461-.082 1.66-.414 1.824-.504.047-.027.109-.047.137-.047.059 0 .363-.133.852-.367 2.539-1.23 3.844-3.414 3.848-6.437.004-1.988-.359-3.133-1.516-4.77-.055-.078-.062-.172-.027-.402.254-1.812.133-3.145-.328-3.641s-2.184.051-3.992 1.258c-.336.223-.348.227-.578.172a8.53 8.53 0 0 0-.531-.105c-2.121-.363-4.594-.344-6.617.047l-.516.102-.336-.223c-1.84-1.227-3.523-1.742-4.004-1.227-.371.402-.562 2.055-.363 3.191.129.758.137.699-.164 1.109-.359.48-.66 1.039-.898 1.668-.273.723-.43 1.742-.426 2.82 0 3.703 1.984 6.145 5.824 7.156.477.125.508.133.863.199.293.059.391.141.262.223-.184.113-.555.992-.621 1.484-.051.34-.176.395-1.262.563-1.559.242-2.23-.09-3.402-1.68-.863-1.172-.992-1.289-1.609-1.488-.43-.137-1.336-.012-1.473.203-.062.105-.02.152.434.457.926.617 1.348 1.113 1.789 2.098.98 2.188 2.328 2.859 4.863 2.41.637-.109.582-.242.582 1.379 0 1.813-.086 2.07-.727 2.25-.52.145-3.453-1.199-4.5-2.062l-.352-.27c-.727-.539-.918-.711-1.699-1.492-.625-.625-.891-.914-1.152-1.254-.539-.699-.68-.891-.93-1.273a15.94 15.94 0 0 1-1.043-1.875c-.25-.535-.297-.641-.398-.898-.027-.07-.07-.176-.098-.238-.965-2.293-1.277-5.867-.75-8.586 1.324-6.824 6.832-11.949 13.723-12.773.781-.094 2.797-.094 3.598 0" fill="rgb(20.392157%,20.392157%,20.392157%)"/></svg>