<svg xmlns="http://www.w3.org/2000/svg" width="166.667" height="166.667" viewBox="0 0 125 125" fill-rule="evenodd" xmlns:v="https://vecta.io/nano"><path d="M56.219 1.004c-.051.047-.094.188-.094.313 0 .191-.055.215-.344.148-1.051-.25-2.258-.215-2.301.07-.047.301.02.293-1.633.145-.687-.062-.715-.055-.793.238-.07.258-.125.289-.41.215-.746-.195-1.578-.109-1.621.168-.035.223-.082.242-.344.148-.543-.191-1.164-.105-1.203.168-.035.207-.113.234-.57.203-.469-.031-.531-.004-.531.211 0 .23-.047.242-.625.172-.559-.07-.625-.055-.629.141-.004.207-.012.211-.172.012s-.172-.195-.23.012c-.047.168-.145.207-.441.168s-.395-.004-.437.164c-.055.191-.062.191-.074.012-.02-.273-.266-.266-.266.008 0 .172-.074.203-.375.16-.316-.043-.375-.012-.375.195 0 .223-.051.238-.551.172-.512-.062-.555-.051-.598.207-.043.27-.082.281-.621.137-.145-.039-.227.031-.266.219-.055.27-.055.27-.074.012-.02-.336-.266-.348-.266-.02 0 .207-.055.234-.312.176s-.34-.023-.43.203-.184.27-.437.223c-.238-.039-.32-.008-.32.133s-.117.188-.437.188c-.34 0-.437.051-.437.215 0 .172-.074.203-.375.16-.32-.043-.375-.012-.375.207s-.047.246-.375.18-.375-.047-.375.18-.051.25-.367.188c-.309-.055-.375-.027-.41.191-.039.25-.082.258-.629.113-.16-.043-.219.012-.219.203 0 .219-.055.25-.32.203-.25-.043-.348.004-.43.203-.082.207-.18.246-.477.207-.305-.043-.371-.012-.355.164.012.141-.051.203-.191.184a.25.25 0 0 0-.266.176c-.055.195-.059.195-.07.004-.02-.25-.266-.277-.266-.031 0 .098-.086.176-.187.176-.109 0-.187.105-.187.246 0 .219-.051.238-.437.172-.348-.062-.437-.039-.437.102 0 .102-.078.184-.176.184-.117 0-.152.082-.105.25.063.23.035.242-.387.168-.406-.07-.457-.051-.457.16 0 .137-.082.238-.191.238-.117 0-.18.082-.156.203.027.164-.043.195-.371.168-.305-.031-.406.008-.406.145 0 .109-.105.184-.262.184-.184 0-.242.055-.191.176.055.137-.031.176-.363.176-.352 0-.434.047-.434.234 0 .129-.055.234-.125.234s-.125.082-.125.188c0 .137-.082.176-.297.137-.242-.043-.281-.012-.23.176.059.199.02.215-.34.145-.34-.07-.41-.047-.469.16-.039.137-.145.246-.242.246s-.172.078-.172.176-.051.176-.109.176-.145.109-.18.246c-.047.168-.137.227-.266.18-.137-.051-.195 0-.195.168 0 .195-.07.234-.355.203-.363-.035-.656.152-.805.516-.043.113-.141.203-.211.203s-.129.082-.129.176c0 .102-.113.176-.258.176s-.223.051-.176.125c.086.125-1.598 1.746-1.816 1.746-.07 0-.125.078-.125.172s-.086.176-.187.176-.187.078-.187.176-.086.176-.187.176-.187.078-.187.176-.078.176-.176.176-.203.078-.246.176-.156.172-.262.172-.191.082-.191.176-.109.176-.246.176c-.168 0-.223.055-.176.176.047.109 0 .176-.129.176-.109 0-.199.082-.199.18 0 .266-.457.68-.668.602-.129-.047-.16 0-.117.16s0 .227-.141.227c-.113 0-.238.078-.277.176s-.152.176-.246.176-.176.078-.176.176-.086.172-.187.172c-.121 0-.187.113-.187.324 0 .176-.129.453-.289.613s-.324.387-.371.5c-.066.164-.137.184-.324.09-.207-.102-.23-.086-.176.113.043.16.004.23-.141.23-.113 0-.238.078-.277.176s-.16.176-.262.176c-.145 0-.172.082-.117.348.066.301.039.352-.184.352-.187 0-.238.051-.184.188.051.121-.008.207-.176.246-.137.035-.25.105-.25.164s-.078.102-.176.102c-.129 0-.172.129-.156.441.016.352-.023.434-.199.422-.121-.012-.219.055-.219.145s-.113.164-.254.164c-.227 0-.246.047-.172.426.082.398.066.422-.191.359-.215-.055-.262-.027-.203.109.047.113-.02.199-.191.242-.215.051-.25.125-.187.41.066.309.043.34-.18.285-.207-.051-.242-.02-.18.16.059.172.016.227-.184.227s-.258.074-.258.348c0 .234-.062.352-.187.352-.102 0-.187.078-.187.176s-.105.176-.234.176c-.199 0-.227.066-.18.41.051.355.023.406-.207.406s-.258.047-.184.41.055.41-.195.41c-.234 0-.266.043-.199.289s.035.293-.172.293c-.145 0-.254.078-.254.176s-.086.176-.187.176c-.133 0-.187.121-.187.41s-.055.406-.195.406-.187.098-.156.379c.031.324-.004.387-.25.418-.215.031-.27.09-.211.234.148.359.129.426-.152.465-.234.031-.266.09-.203.383s.035.34-.203.34-.262.047-.191.352.047.352-.176.352c-.207 0-.262.074-.262.352 0 .23-.062.348-.187.348-.102 0-.187.051-.187.113s.078.086.176.051.215-.004.262.07-.023.16-.18.199c-.227.055-.258.121-.191.41s.039.352-.187.406c-.215.055-.258.129-.199.344.063.223.027.277-.176.277-.195 0-.254.074-.254.336 0 .242-.074.355-.254.398-.227.055-.246.125-.18.598.07.488.055.535-.18.535s-.25.055-.191.512c.055.441.031.52-.191.574s-.242.129-.184.598c.063.492.047.539-.207.539s-.266.039-.195.512c.066.453.043.52-.191.578s-.254.121-.184.598c.07.484.055.531-.187.531-.25 0-.262.043-.195.715.063.648.047.719-.187.777s-.246.125-.187.742c.063.66.055.684-.227.684-.305 0-.316.082-.152 1.227.023.168-.051.246-.266.273-.285.039-.293.066-.211.73.078.656.07.691-.191.691-.27 0-.297.621-.09 1.93.027.164-.043.242-.242.27-.293.039-.348 1.508-.094 2.555.082.344.059.383-.254.457l-.348.082.086 1.703.109 1.941c.023.164-.051.246-.25.27-.312.043-.391.258-.094.258.102 0 .188.055.188.129s-.07.102-.156.07c-.121-.043-.168.633-.203 3.074L.594 65.75l.297.039c.23.031.293.105.273.332l-.113 1.941-.09 1.645.348.082c.316.074.336.117.27.516-.27 1.574-.246 2.453.063 2.496.262.035.289.086.242.445-.152 1.156-.086 1.695.223 1.734.234.031.277.09.211.293-.25.789-.23 1.105.074 1.148.32.043.348.211.172 1.051-.086.41-.074.43.266.469.223.023.348.098.324.195-.207.922-.184 1.164.113 1.203.313.043.313.039.156.996-.07.445-.055.488.219.523.301.039.316.102.164.703-.066.262-.035.316.215.348.301.043.328.148.172.699-.074.262-.039.316.25.383.277.066.32.125.25.336-.23.695-.227.762.078.805.313.039.348.223.172.828-.086.293-.062.32.246.32.355 0 .363.055.113.836-.043.137.023.207.227.234.23.031.277.102.25.359s.016.32.211.32c.309 0 .461.215.277.387-.215.199-.18.898.047.898.125 0 .188.117.188.352 0 .27.055.352.242.352s.238.074.219.32c-.02.254.035.328.258.359.32.043.332.066.152.379-.109.188-.09.227.129.227.316 0 .457.293.25.527-.129.141-.113.172.086.172.359 0 .551.23.402.484-.09.164-.078.219.055.219.285 0 .523.332.352.496-.215.199-.176.32.098.32.305 0 .457.211.273.383-.223.207-.164.434.113.434.227 0 .246.051.176.41s-.051.41.172.41.25.055.188.391c-.062.379-.047.398.391.477.484.082.699.344.461.566-.227.211-.164.316.176.316.297 0 .313.031.242.395s-.051.398.273.461c.629.129.746.254.547.598s-.215.313.402.578c.453.195.602.449.344.598-.219.129-.133.41.125.41.137 0 .25.051.25.117s.102.117.23.117c.348 0 .402.113.191.414s-.145.52.148.52c.098 0 .18.051.18.117s.074.117.164.117c.559 0 1.074.551.711.758-.195.113-.148.41.063.41.613 0 1.355.68 1.117 1.02-.203.293.145.84.539.848.086 0 .156.066.16.148 0 .164 1.191.723 1.496.703.109-.008.469-.254.797-.551s.73-.566.898-.605.305-.145.305-.234.051-.16.113-.16.379-.238.707-.527c.355-.312.711-.523.887-.523.211 0 .293-.066.293-.234 0-.129.082-.234.188-.234s.188-.078.188-.176.086-.176.188-.176.188-.078.188-.176.086-.172.188-.172.188-.082.188-.176.086-.176.188-.176.188-.078.188-.176.086-.176.188-.176c.125 0 .188-.117.188-.352 0-.27.055-.348.25-.348.203 0 .25-.078.25-.41 0-.285.055-.41.188-.41.102 0 .188-.078.188-.172s.086-.176.188-.176c.125 0 .188-.117.188-.352s.063-.352.188-.352.188-.117.188-.348.063-.352.188-.352c.105 0 .188-.105.188-.234s.082-.234.188-.234c.125 0 .188-.117.188-.352s.063-.348.188-.348c.102 0 .188-.078.188-.176s.109-.176.25-.176c.195 0 .25-.078.25-.352 0-.234.063-.348.188-.348.133 0 .188-.125.188-.41s.055-.41.188-.41c.102 0 .188-.078.188-.176s.086-.172.188-.172c.125 0 .188-.117.188-.352s.063-.352.188-.352c.102 0 .188-.078.188-.176s.086-.176.188-.176c.125 0 .188-.117.188-.348s.063-.352.188-.352c.133 0 .188-.125.188-.41 0-.328.047-.406.25-.406.141 0 .25-.078.25-.176s.086-.176.188-.176c.125 0 .188-.117.188-.352s.063-.352.188-.352c.102 0 .188-.078.188-.172s.086-.176.188-.176c.133 0 .188-.125.188-.41s.055-.41.188-.41c.125 0 .188-.117.188-.348s.063-.352.188-.352c.102 0 .188-.078.188-.176s.086-.176.188-.176c.125 0 .188-.117.188-.352 0-.27.055-.348.25-.348.168 0 .25-.078.25-.234 0-.129.082-.234.188-.234.125 0 .188-.117.188-.352s.063-.348.188-.348.188-.117.188-.352.063-.352.188-.352c.102 0 .188-.078.188-.176s.086-.172.188-.172c.133 0 .188-.125.188-.41s.055-.41.188-.41c.102 0 .188-.078.188-.176s.086-.176.188-.176c.125 0 .188-.113.188-.348 0-.273.055-.352.25-.352s.25-.078.25-.352c0-.234.063-.348.188-.348.102 0 .188-.082.188-.176s.086-.176.188-.176c.133 0 .188-.125.188-.41s.055-.406.188-.406c.125 0 .188-.117.188-.352s.063-.352.188-.352c.102 0 .188-.078.188-.176s.086-.176.188-.176c.125 0 .188-.117.188-.348 0-.273.055-.352.25-.352.168 0 .25-.078.25-.234 0-.129.082-.234.188-.234.125 0 .188-.117.188-.348s.063-.352.188-.352.188-.117.188-.352.063-.352.188-.352c.102 0 .188-.078.188-.172s.086-.176.188-.176c.133 0 .188-.125.188-.41s.055-.41.188-.41c.102 0 .188-.078.188-.176s.086-.172.188-.172c.125 0 .188-.117.188-.352 0-.273.055-.352.25-.352s.25-.078.25-.352c0-.23.063-.348.188-.348.16 0 .188.293.188 1.93 0 1.609.031 1.941.188 2s.188.367.188 1.805c0 1.219.055 1.867.18 2.176.113.285.195 1.098.234 2.281.031 1.012.109 1.906.176 1.988.188.223.41 1.438.418 2.297.008.422.105 1.266.227 1.879l.215 1.109.555.16.996.309 1 .281 1.188.316 1.063.27c.242.051.578.148.75.215s.734.238 1.25.371l1.313.371.813.223c.395.086 1.082.273 2.75.746l1.25.352 1.25.316c.309.07.617.172.68.23s.207.102.313.102c.234-.004 1.781.43 2.355.656.227.09.551.164.727.164s.465.07.652.16c.742.352 1.656.344 2.836-.023l1.125-.316 1.25-.348 2.938-.812 1.313-.355 1.16-.363c.227-.09.508-.16.625-.16.195 0 .793-.16 1.84-.488a12.4 12.4 0 0 1 .938-.238c.309-.066.617-.16.688-.215s.352-.129.625-.176.555-.125.625-.172.379-.145.688-.211l1.902-.5c.117-.055.426-.152.688-.215 2.594-.621 2.465-.484 2.637-2.754l.59-6.195.188-2.453c.004-.512.086-1.352.184-1.863s.176-1.488.164-2.16l-.02-1.227-.082.992-.504 5.219-.25 2.789-.187 1.926c-.035.055-.117.875-.18 1.828-.23 3.332-.145 3.145-1.566 3.488l-1.937.52-2.125.598-2.656.746-1.219.309c-.309.07-.617.172-.68.23s-.254.105-.422.105a2.21 2.21 0 0 0-.691.16c-.219.09-.621.219-.895.289l-1.187.316-1.312.344-1.031.281-3.031.848c-.309.066-.633.176-.719.242-.203.152-1.734.152-1.937 0-.086-.066-.41-.176-.719-.242l-1.187-.305-1.25-.352-1.5-.418-1.437-.402-1.25-.352-1.187-.312c-.273-.062-.598-.164-.715-.223s-.449-.141-.742-.184-.672-.152-.848-.238-.402-.156-.504-.156-.41-.07-.687-.16l-2.754-.785-1.25-.344-1.562-.43c-.852-.223-1.625-.512-1.629-.605-.004-.102-.191-1.82-.492-4.508l-.379-3.973-.242-2.629-.266-2.512-.609-6.719-.324-3.504-.687-7.242-.25-2.746-.238-2.57-.262-2.746-.875-9.227-.121-1.375v-.262h24.801l24.875.191c.043.105-.004 1.012-.105 2.016l-.633 6.73-.562 5.664-.191 1.93-.625 6.949-.316 3.332-.309 3.387L84.625 75c.066-.227.18-1.277.25-2.336s.184-2.191.246-2.512.121-.98.125-1.461.066-1.242.137-1.695.207-1.816.313-3.035l.363-4.148.316-3.562.316-2.512s.211-1.613.254-2.512.129-1.805.195-2.008.176-1.23.238-2.277.176-2.258.246-2.691.117-1.297.098-1.926l-.035-1.145-.937-.07c-.516-.043-6.125-.082-12.469-.09-10.16-.012-11.531-.035-11.531-.191 0-.094.086-.176.188-.176.133 0 .188-.121.188-.406s.055-.41.188-.41c.102 0 .188-.078.188-.176s.086-.176.188-.176c.125 0 .188-.113.188-.348s.063-.352.188-.352.188-.117.188-.352.063-.348.188-.348c.105 0 .188-.105.188-.234 0-.156.082-.234.25-.234.141 0 .25-.078.25-.176 0-.129.145-.176.563-.176h.563v-1.109c0-.91.035-1.109.188-1.109.102 0 .188-.078.188-.176 0-.277.316-.203.5.117.094.16.215.293.27.293s.105.078.105.176c0 .828 1.48.668 1.504-.164.004-.105.172-.316.375-.473.215-.168.371-.402.371-.555s.059-.27.129-.27.18-.117.242-.262c.074-.176.117.379.121 1.633l.008 1.898h1.68c2.305 0 2.07.566 2.07-5.027 0-5.375.133-4.902-1.367-4.902-.703 0-.883-.035-.883-.176 0-.094.086-.176.188-.176.125 0 .188-.113.188-.348s.063-.352.188-.352c.102 0 .188-.078.188-.176s.109-.176.25-.176c.195 0 .25-.078.25-.348 0-.234.063-.352.188-.352.133 0 .188-.125.188-.41s.055-.41.188-.41c.102 0 .188-.078.188-.172s.086-.176.188-.176c.125 0 .188-.117.188-.352s.063-.352.188-.352c.102 0 .188-.078.188-.176s.086-.172.188-.172c.133 0 .188-.125.188-.41s.055-.41.188-.41c.125 0 .188-.117.188-.348 0-.273.055-.352.25-.352.141 0 .25-.078.25-.176s.086-.176.188-.176c.125 0 .188-.117.188-.352s.063-.348.188-.348c.102 0 .188-.082.188-.176s.086-.176.188-.176c.133 0 .188-.125.188-.41s.055-.406.188-.406c.125 0 .188-.117.188-.352s.063-.352.188-.352c.102 0 .188-.078.188-.176s.086-.176.188-.176c.125 0 .188-.113.188-.348 0-.273.055-.352.25-.352.168 0 .25-.078.25-.234 0-.129.082-.234.188-.234.125 0 .188-.117.188-.348s.063-.352.188-.352.188-.117.188-.352.063-.352.188-.352c.102 0 .188-.078.188-.172s.086-.176.188-.176c.133 0 .188-.125.188-.41s.055-.41.188-.41c.102 0 .188-.078.188-.172s.086-.176.188-.176c.125 0 .188-.117.188-.352 0-.273.055-.352.25-.352s.25-.078.25-.348c0-.234.063-.352.188-.352.102 0 .188-.078.188-.176s.086-.176.188-.176c.133 0 .188-.121.188-.41s.055-.406.188-.406c.125 0 .188-.117.188-.352s.063-.352.188-.352c.102 0 .188-.078.188-.176s.086-.172.188-.172c.125 0 .188-.117.188-.352s.063-.352.188-.352c.105 0 .188-.102.188-.234 0-.156.082-.23.25-.23.195 0 .25-.078.25-.352 0-.234.063-.352.188-.352s.188-.117.188-.352.063-.348.188-.348c.102 0 .188-.082.188-.176s.086-.176.188-.176c.133 0 .188-.125.188-.41s.055-.406.188-.406c.102 0 .188-.082.188-.176s.078-.176.172-.176c.184 0 .324-.344.328-.809 0-.262-.012-.27-.227-.086-.238.199-.535.262-.508.105.074-.449-.027-.637-.32-.566-.246.059-.309.023-.344-.191-.051-.336-.555-.426-.781-.137-.219.277-.57.129-.57-.242 0-.336-.102-.367-.445-.121-.414.289-.68.223-.68-.172 0-.387-.031-.406-.383-.23-.211.105-.242.082-.242-.176 0-.355-.344-.395-1.055-.117-.531.207-.695.152-.695-.246 0-.293-.398-.414-.562-.168-.168.258-.562.125-.562-.187s-.156-.336-.863-.148c-.105.027-.207-.07-.254-.246-.094-.344-.629-.453-1.09-.223-.281.141-.465.09-.496-.137l-.031-.238c-.012-.082-.223-.105-.609-.062-1.367.148-1.34.152-1.383-.129-.043-.273-1.285-.414-1.453-.16-.234.355-.945.164-.945-.254 0-.227-1.156-.242-2.207-.023-.352.07-.402.051-.437-.191l-.043-.277-2 .027c-4.406.055-6.344.047-8.375-.027-1.168-.043-2.168-.039-2.219.012m30.359 4.934c-.055.148-.066.305-.027.34.129.121.223-.055.172-.34l-.043-.273-.102.273m1.488.828c-.082.133.113.27.23.164.117-.113.094-.27-.039-.27-.066 0-.148.047-.191.105m.949.156c-.008.113-.082.203-.164.203-.117 0-.117.031-.004.141.199.184.309.059.242-.277-.035-.168-.062-.195-.074-.066m2.32 1.184c-.051.121-.062.25-.027.285.113.105.215-.07.168-.293-.043-.203-.051-.203-.141.008m.707.371c-.113.27.133.449.324.238.16-.184.086-.422-.129-.422-.066 0-.156.082-.195.184m1.258.676c-.047.113-.027.262.043.324.164.16.293-.156.152-.371-.086-.133-.125-.121-.195.047m3.156 1.789c-.172.16-.074.391.168.391.168 0 .25-.078.25-.234 0-.227-.246-.316-.418-.156M75.031 27.414c-.164.063-.242 9.273-.082 9.668.102.242 7.395.285 7.652.043.184-.172.207-2.625.027-3.062l-.121-.301h-4.133v-6.273l-1.219-.074c-1.375-.086-1.898-.086-2.125 0m-29.434 1.82l.035 1.605h2.734l.07-3.211h3v9.461l-1.25.035c-1.926.055-1.797.16-1.84-1.523l-.035-1.43h-2.625l-.062 1.457-.062 1.461-1.5.031c-.824.016-1.562-.012-1.641-.059-.242-.152-.289-9.234-.047-9.379.102-.062.863-.102 1.688-.086l1.5.031.035 1.605m15.859-1.508c.059.051.125.734.148 1.512.051 1.742.074 1.719-1.562 1.719-1.504 0-1.418-.191-1.418 3.25 0 2.445-.023 2.809-.199 2.871-.316.113-2.254.082-2.602-.043l-.32-.113-.031-2.953-.035-2.953-1.312-.074-1.344-.086c-.18-.082 0-3.16.188-3.207.383-.098 8.383-.023 8.488.078m4.535-.043c.207.102.863 1.074 1.453 2.141.289.531.758 1.098.84 1.016.031-.031.492-.754 1.023-1.605l.969-1.547H73.5v9.344h-3v-1.723c-.004-.945-.039-1.84-.078-1.984-.086-.301-.359-.352-.469-.086-.055.141-1.203 1.805-1.602 2.324-.141.188-.473-.16-1.316-1.371-1.047-1.504-1.082-1.477-1.16.863l-.062 1.918-1.312.07c-.723.039-1.383.047-1.469.02-.121-.043-.156-1.09-.156-4.707 0-3.609.035-4.664.156-4.707.285-.109 2.73-.082 2.961.035m12.133 3.02c0 3.75-.238 3.398 2.313 3.438l2 .031.07 2.859h-7.383v-9.344h3v3.016M60.766 51.488l-13.551.031.082 1.023.266 3.121.313 3.684c.066.867.176 1.918.242 2.336s.156 1.336.199 2.043.125 1.602.191 1.984.168 1.484.238 2.438c.066.969.184 1.809.266 1.898.121.137 1.289.164 6.984.164l10.582.074 3.746.078-.043 1.063a18.22 18.22 0 0 1-.156 1.762c-.066.387-.176 1.531-.25 2.539-.18 2.543-.043 2.363-2.086 2.777a4.29 4.29 0 0 0-.75.215c-.125.059-.48.168-.789.246-.309.07-.871.211-1.25.309-2.152.555-2.187.555-4.375 0l-1.25-.312c-.309-.074-.676-.18-.812-.234s-.477-.152-.75-.215l-1.125-.258-.648-.148c-.066-.031-.539-3.707-.539-4.211 0-.902.086-.879-3.262-.879-3.414 0-3.168-.105-2.988 1.254.066.5.18 1.852.25 3.008l.43 5.758c.133.121 1.375.492 1.652.492.152 0 .309.047.348.105s.309.145.602.191.59.125.66.18.355.148.625.207a12.74 12.74 0 0 1 .871.238 50.07 50.07 0 0 0 1.688.488l1.813.516a107.11 107.11 0 0 0 2.875.816l1.16.332c.301.094.473.098.629.004.121-.07.457-.164.746-.211s.559-.133.598-.191.223-.105.406-.105.496-.078.695-.176.43-.176.52-.176.773-.18 1.52-.406l2.039-.594c.379-.105.871-.262 1.098-.352s.52-.164.652-.164.426-.074.652-.16c.645-.25 1.672-.543 1.906-.543.191 0 .801-.211 1.316-.461.195-.094.219-.23.48-3.043l.285-2.625a50.23 50.23 0 0 0 .238-2.57c.098-1.461.152-2.043.559-5.961.43-4.137.461-4.625.305-4.797-.125-.145-1.773-.168-11.32-.168-6.145 0-11.176-.012-11.184-.031-.012-.031-.133-1.379-.367-4.145-.082-.977-.113-1.867-.07-1.973.078-.184.879-.195 11.691-.125l11.73-.07c.152-.18.531-3.816.531-5.062-.004-1.156.094-1.102-1.984-1.066l-15.129.059m16.949.461c.043.109.004.621-.086 1.141s-.191 1.668-.223 2.555c-.039 1.195-.098 1.629-.223 1.676-.09.031-5.383 0-11.762-.066-10.695-.117-11.609-.109-11.82.066-.246.207-.305.68-.102.801.07.039.129.605.137 1.262.02 1.859.16 3.352.324 3.445.082.047.168.402.188.785l.039.699h4.375l11.25-.059 6.875-.059-.023 1.344c-.016.738-.086 1.711-.164 2.16s-.184 1.5-.246 2.336c-.211 2.875-.391 4.793-.574 6.133-.102.738-.184 1.719-.18 2.176s-.062 1.113-.137 1.461-.172 1.203-.219 1.91l-.082 1.277-.375.082c-.207.043-.543.133-.75.195s-.656.195-1 .289c-1.691.457-2.156.594-2.52.734a5.01 5.01 0 0 1-.875.234c-.266.047-.535.121-.605.172s-.32.121-.562.164-.551.125-.687.18-.672.215-1.187.359-1.133.32-1.375.402c-.441.148-1.102.32-2.121.547-.57.129-1.902-.117-2.977-.555-.227-.09-.52-.168-.652-.168s-.426-.07-.652-.16-.832-.277-1.348-.422l-1.25-.352-1.25-.352c-.516-.145-1.133-.328-1.375-.41a17.68 17.68 0 0 0-1.25-.344c-.445-.109-.996-.273-1.223-.363s-.52-.164-.648-.164c-.398 0-.437-.211-.445-2.453-.008-1.191-.074-2.687-.156-3.332s-.145-1.812-.148-2.602l-.004-1.434 5.563.063.125 1.695c.07.934.18 1.77.242 1.863s.18.434.258.75l.141.578.805.219 1.492.402c.379.098.855.234 1.063.297a9.8 9.8 0 0 0 .813.211c.887.184 1.699.391 2.16.543.5.172.594.156 2.355-.367.32-.098.691-.172.832-.172s.41-.082.605-.176.5-.176.672-.176.457-.07.633-.156.551-.191.832-.234a6.12 6.12 0 0 0 1.074-.301l.563-.227.074-1.031a66.53 66.53 0 0 1 .203-2.141c.223-1.922.379-4.48.277-4.57-.082-.078-14.996-.336-19.41-.336H49.25v-.754c0-.414-.047-.777-.105-.812s-.141-.969-.18-2.074c-.059-1.645-.109-2.043-.27-2.152-.355-.242-.238-2.27.133-2.27.109 0 .172-.129.172-.348 0-.234.063-.352.188-.352.133 0 .188-.125.188-.41s.055-.406.188-.406c.102 0 .188-.082.188-.176s.086-.176.188-.176c.125 0 .188-.117.188-.352s.063-.348.188-.348c.102 0 .188-.082.188-.176s.086-.176.188-.176c.125 0 .188-.117.188-.352 0-.273.055-.352.25-.352.203 0 .25-.078.25-.406 0-.285.055-.41.188-.41.102 0 .188-.078.188-.176s.086-.176.188-.176c.125 0 .188-.117.188-.348s.063-.352.188-.352c.102 0 .188-.078.188-.176s.086-.176.188-.176c.133 0 .188-.121.188-.41s.055-.406.188-.406c.125 0 .188-.117.188-.352s.063-.352.188-.352c.102 0 .188-.078.188-.176s.109-.172.25-.172c.195 0 .25-.078.25-.352 0-.234.063-.352.188-.352.102 0 .188-.078.188-.176s.086-.176.188-.176c.133 0 .188-.121.188-.406s.055-.41.188-.41c.102 0 .188-.078.188-.176 0-.145.262-.176 1.531-.191l9.594-.094 9.66-.098c1.395-.023 1.609 0 1.68.172" fill="rgb(95.686275%,69.411765%,64.313725%)"/><path d="M42.313 3.973c-.105.156.035.352.258.352.098 0 .18-.105.18-.234 0-.242-.301-.324-.437-.117m-3.937 1.578c0 .094.109.172.25.172s.25-.078.25-.172-.109-.176-.25-.176-.25.078-.25.176m-.832.34c0 .094.102.191.227.223.164.039.23-.008.23-.168 0-.137-.086-.223-.23-.223-.125 0-.227.078-.227.168m-.77.387c.063.305.477.34.477.039 0-.168-.082-.242-.258-.242s-.246.063-.219.203M36 6.66c0 .156.082.23.25.23s.25-.074.25-.23-.082-.234-.25-.234-.25.078-.25.234m-4.375 2.219c0 .156.082.234.25.234s.25-.078.25-.234-.082-.234-.25-.234-.25.078-.25.234m-1.039.543c-.176.164-.078.391.172.391.176 0 .246-.062.219-.195-.043-.215-.258-.32-.391-.195m-1.262.816c-.09.219-.082.238.176.293.199.043.25-.023.25-.309 0-.238-.328-.223-.426.016m-1.199.801c0 .098.109.176.246.176.168 0 .223-.055.176-.176-.043-.098-.152-.176-.246-.176s-.176.078-.176.176m-1.605 1.07a.37.37 0 0 0 .273.254c.168.031.219-.02.188-.172-.027-.117-.148-.234-.273-.254-.168-.031-.219.016-.187.172m-1.895 1.492c0 .09-.07.191-.156.223s0 .063.188.066c.266.008.344-.043.344-.223 0-.129-.082-.234-.187-.234s-.187.074-.187.168m-2 1.398c0 .09-.086.191-.187.23s-.187.148-.187.246-.086.176-.187.176-.187.082-.187.176c0 .102-.113.176-.262.176-.184 0-.242.055-.191.176.039.098 0 .176-.082.176s-.227.105-.312.238-.215.207-.281.168-.121-.016-.121.055c0 .156-.531.656-.656.621-.051-.02-.094.051-.094.148s-.086.207-.187.246-.187.121-.187.191-.094.219-.207.336c-.191.199-.191.215 0 .215.113 0 .207-.078.207-.176s.086-.176.191-.176.223-.078.262-.172.152-.176.246-.176.176-.078.176-.176.086-.176.188-.176.188-.078.188-.176.086-.176.188-.176.188-.078.188-.176.055-.172.125-.172c.27 0 1.879-1.605 1.801-1.797-.094-.234-.426-.254-.426-.027m-3.84 3.648c.035.055-.152.258-.422.445-.531.375-.594.504-.293.609.223.078.68-.324.68-.598 0-.098.09-.18.199-.18.227 0 .176-.254-.066-.328-.094-.031-.137-.008-.098.051m-2.41 2.672c0 .098-.113.176-.258.176s-.223.051-.18.117-.023.156-.148.203c-.316.121-.332.352-.035.5.203.098.266.082.336-.086.047-.113.215-.34.371-.5.332-.332.375-.586.102-.586-.102 0-.187.078-.187.176m-1.914 2.121c-.164.152-.086.273.176.273.145 0 .238-.062.211-.137-.062-.172-.27-.246-.387-.137m-1.055 1.289c-.328.059-.383.441-.082.551.285.102.426-.02.398-.344l-.031-.273c-.004.012-.129.039-.285.066m-.969 1.32c-.105.16.035.352.258.352.098 0 .18-.105.18-.234 0-.242-.301-.32-.437-.117m-.812 1.113c0 .176.328.371.445.262.035-.031.023-.141-.02-.246-.098-.242-.426-.254-.426-.016m30.75.52c-.242.145-.195 9.227.047 9.379.078.047.816.074 1.641.059l1.5-.031.063-1.461.063-1.457h2.625l.035 1.43c.043 1.684-.086 1.578 1.84 1.523l1.25-.035v-9.461h-3l-.07 3.211h-2.734l-.07-3.211-1.5-.031c-.824-.016-1.586.023-1.687.086m10.594-.035c-.187.047-.367 3.125-.187 3.207.016.008.621.047 1.344.086l1.313.074.035 2.953.031 2.953.32.113c.348.125 2.285.156 2.602.043.176-.062.199-.426.199-2.871 0-3.441-.086-3.25 1.418-3.25 1.637 0 1.613.023 1.563-1.719-.023-.777-.09-1.461-.148-1.512-.105-.102-8.105-.176-8.488-.078m10.063 0c-.121.043-.156 1.098-.156 4.707l.156 4.707c.086.027.746.02 1.469-.02l1.313-.07.063-1.918c.078-2.34.113-2.367 1.16-.863.844 1.211 1.176 1.559 1.316 1.371l1.602-2.324c.109-.266.383-.215.469.086.039.145.074 1.039.078 1.984v1.723h3v-9.344h-3.223l-.969 1.547-1.023 1.605c-.082.082-.551-.484-.84-1.016-.59-1.066-1.246-2.039-1.453-2.141-.23-.117-2.676-.145-2.961-.035m12.094 4.711v4.672h7.383l-.07-2.859-2-.031c-2.551-.039-2.312.313-2.312-3.437v-3.016h-3v4.672M10.832 28.23c-.156.148-.082.273.168.273.141 0 .25-.078.25-.176 0-.176-.266-.238-.418-.098m-1.207 1.977c0 .207.07.285.258.285.195 0 .25-.066.219-.254-.059-.367-.477-.391-.477-.031m-.375.684c0 .109.105.184.262.184.305 0 .262-.273-.055-.328-.121-.023-.207.035-.207.145m-2.691 5.215c-.117.176.016.27.258.184.109-.039.164-.125.121-.191-.102-.152-.277-.148-.379.008m-.434.754c0 .23.055.297.219.27.121-.023.219-.145.219-.27s-.098-.25-.219-.273c-.164-.027-.219.039-.219.273m31.75 4.641c0 .145.055.762.121 1.375l.875 9.227.262 2.746.238 2.57.25 2.746.688 7.242.324 3.504.609 6.719.266 2.512.242 2.629.379 3.973.492 4.508c.004.094.777.383 1.629.605l1.563.43 1.25.344 2.754.785c.277.09.586.16.688.16s.328.07.504.156.559.191.848.238.625.125.742.184.441.16.715.223l1.188.313 1.25.352 1.438.402 1.5.418 1.25.352 1.188.305c.309.066.633.176.719.242.203.152 1.734.152 1.938 0 .086-.066.41-.176.719-.242.789-.176 1.594-.402 3.031-.848l1.031-.281 1.313-.344 1.188-.316c.273-.07.676-.199.895-.289a2.21 2.21 0 0 1 .691-.16c.168 0 .355-.047.422-.105s.371-.16.68-.23l1.188-.301 1.25-.352 3.563-1 1.938-.52c1.422-.344 1.336-.156 1.566-3.488l.18-1.828c.035-.051.117-.918.188-1.926l.25-2.789.57-6.152.367-4.148.309-3.387.316-3.332.625-6.949.191-1.93.563-5.664.633-6.73.105-2.016c-.07-.176-1.973-.191-24.875-.191H37.875v.262m39.801 9.973c.34.121.039 5.648-.328 6.086-.094.113-2.695.129-11.73.07-10.812-.07-11.613-.059-11.691.125-.043.105-.012.996.07 1.973l.367 4.145c.008.02 5.039.031 11.184.031 9.547 0 11.195.023 11.32.168.156.172.125.66-.305 4.797l-.559 5.961a50.23 50.23 0 0 1-.238 2.57c-.078.578-.203 1.758-.285 2.625-.262 2.813-.285 2.949-.48 3.043-.516.25-1.125.461-1.316.461-.234 0-1.262.293-1.906.543-.227.086-.52.16-.652.16s-.426.07-.652.164-.719.246-1.098.352-1.297.371-2.039.594-1.426.406-1.52.406-.324.082-.52.176-.512.176-.695.176-.367.047-.406.105-.309.145-.598.191-.625.141-.746.211c-.156.094-.328.09-.629-.004-.227-.07-.746-.219-1.16-.332a107.11 107.11 0 0 1-2.875-.816 81.92 81.92 0 0 0-1.812-.516l-1.687-.488a12.74 12.74 0 0 0-.871-.238c-.27-.059-.551-.156-.625-.207s-.367-.137-.66-.18-.562-.133-.602-.191-.195-.105-.348-.105c-.277 0-1.52-.371-1.652-.492-.062-.059-.152-1.238-.43-5.758-.07-1.156-.184-2.508-.25-3.008-.18-1.359-.426-1.254 2.988-1.254 3.348 0 3.262-.023 3.262.879 0 .504.473 4.18.539 4.211.016.004.305.07.648.148l1.125.258c.273.063.613.16.75.215s.504.16.813.234l1.25.313c2.188.555 2.223.555 4.375 0l1.25-.309c.309-.078.664-.187.789-.246a4.29 4.29 0 0 1 .75-.215c2.043-.414 1.906-.234 2.086-2.777.074-1.008.184-2.152.25-2.539a18.22 18.22 0 0 0 .156-1.762l.043-1.062-3.746-.078-10.582-.074c-5.695 0-6.863-.027-6.984-.164-.082-.09-.199-.93-.266-1.898-.07-.953-.176-2.051-.238-2.437s-.152-1.277-.191-1.984-.133-1.625-.199-2.043-.176-1.469-.242-2.336l-.312-3.684-.266-3.121-.082-1.023 13.551-.031 15.129-.059c.871-.016 1.676.004 1.781.043M.664 60.25l.008.906.043-.789c.027-.434.102-.789.164-.789S1 59.527 1 59.461s-.078-.113-.172-.113c-.129 0-.168.215-.164.902" fill="rgb(98.823529%,98.431373%,98.431373%)"/><path d="M60 .758c0 .152.359.176 2.5.176S65 .91 65 .758s-.359-.172-2.5-.172-2.5.023-2.5.172m-4.75.352c0 .121.133.176.438.176s.438-.055.438-.176-.133-.176-.437-.176-.437.055-.437.176m13.75 0c0 .117.125.176.375.176s.375-.059.375-.176-.125-.176-.375-.176S69 .992 69 1.109m-16.5.336c0 .207.656.332.777.148.172-.246.102-.309-.34-.309-.289 0-.437.055-.437.16m19.125-.074c.008.262.246.406.551.336.496-.117.414-.422-.113-.422-.242 0-.437.039-.437.086m-21.441.391c-.109.164-.062.195.375.242.277.031.387-.012.418-.164.047-.234-.645-.305-.793-.078m23.84.078c.031.152.141.195.418.164.438-.047.484-.078.375-.242-.148-.227-.84-.156-.793.078m-25.461.262c-.105.16.035.352.258.352.098 0 .18-.105.18-.234 0-.242-.301-.32-.437-.117M76 2.219c0 .176.066.238.219.211.121-.02.219-.117.219-.211s-.098-.187-.219-.211c-.152-.027-.219.035-.219.211m-28.844.195c-.219.082-.195.391.031.391.105 0 .188-.105.188-.234s-.016-.23-.031-.223-.102.035-.187.066m30.469.145c0 .145.082.246.195.246s.18-.082.156-.195c-.059-.293-.352-.332-.352-.051m-31.844.391c.078.223.469.254.469.039 0-.109-.105-.184-.262-.184s-.238.059-.207.145m32.969.031c0 .121.133.172.434.172.332 0 .418-.039.363-.172-.043-.102-.23-.176-.434-.176-.238 0-.363.059-.363.176m-34.5.348c0 .098.086.176.188.176s.188-.078.188-.176-.086-.176-.187-.176-.187.082-.187.176m35.703 0c.043.102.23.176.434.176.238 0 .363-.059.363-.176s-.133-.176-.434-.176c-.332 0-.418.043-.363.176m-36.875.352c-.047.121.008.176.176.176.137 0 .246-.078.246-.176s-.078-.176-.176-.176-.203.078-.246.176M81.5 3.672c0 .109.105.184.262.184.305 0 .262-.273-.055-.328-.121-.023-.207.035-.207.145m.777.387c.031.152.141.195.414.168.434-.047.488-.078.375-.246-.148-.227-.84-.156-.789.078m-41.152.309c0 .09.086.195.188.23.129.047.188-.004.188-.164 0-.125-.086-.227-.187-.227s-.187.07-.187.16m42.375.082c0 .285.293.242.352-.047.023-.117-.039-.195-.156-.195s-.195.098-.195.242m-43.492.219c-.164.098-.086.355.109.355.145 0 .27-.328.152-.398-.051-.027-.168-.012-.262.043m44.707.121c.035.129.141.234.238.234.238 0 .219-.309-.027-.395-.277-.102-.285-.098-.211.16m-45.434.195c-.211.078-.199.391.016.391.098 0 .203-.105.238-.234.066-.238.027-.262-.254-.156m46.184.156c.035.129.141.234.238.234.238 0 .219-.309-.027-.398-.277-.102-.285-.098-.211.164m.785.41c0 .094.086.172.188.172s.188-.078.188-.172-.086-.176-.187-.176-.187.078-.187.176m.75.348c0 .098.109.176.25.176s.25-.078.25-.176-.109-.176-.25-.176-.25.078-.25.176m.75.332c0 .219.121.305.324.234.266-.098.211-.391-.074-.391-.137 0-.25.07-.25.156m.875.426c0 .156.059.207.188.16.102-.035.188-.141.188-.227s-.086-.164-.187-.164-.187.102-.187.23m-53.418.285c-.035.09.02.195.125.234.277.098.293.09.293-.168 0-.266-.312-.316-.418-.066m54.168.066c0 .176.066.242.219.215.121-.023.219-.117.219-.215s-.098-.187-.219-.211c-.152-.027-.219.035-.219.211m-54.918.195c-.043.043-.082.148-.082.234 0 .207.328.199.414-.008.102-.246-.137-.406-.332-.227m55.668.148c0 .168.082.242.258.242.32 0 .285-.387-.039-.445-.152-.027-.219.035-.219.203m-56.344.203c-.211.078-.199.391.016.391.098 0 .203-.105.238-.234.066-.238.027-.262-.254-.156m57.18.148c.039.133.148.242.25.242.25 0 .152-.398-.109-.445-.152-.027-.191.023-.141.203m-58.086.418c0 .094.086.172.188.172s.188-.078.188-.172-.086-.176-.187-.176-.187.078-.187.176m58.875 0c0 .094.086.172.188.172s.188-.078.188-.172-.086-.176-.187-.176-.187.078-.187.176m-59.625.348c0 .098.086.176.188.176s.188-.078.188-.176-.086-.176-.187-.176-.187.082-.187.176m60.453 0c.043.098.125.176.184.176s.113.078.113.176.109.176.25.176.25-.078.25-.176-.078-.176-.176-.176-.203-.078-.246-.176a.31.31 0 0 0-.258-.176.11.11 0 0 0-.117.176m-61.621.605c-.145.133-.09.273.105.273.102 0 .188-.082.188-.176 0-.184-.148-.234-.293-.098m62.793.082c0 .09.086.195.188.23s.188.148.188.246.086.18.188.18.188-.102.188-.234-.078-.23-.176-.23-.203-.082-.246-.176c-.09-.223-.328-.23-.328-.016m-63.918.617c-.152.145-.086.391.105.391.105 0 .188-.105.188-.234 0-.234-.133-.305-.293-.156m65.043.156c0 .129.082.234.188.234s.188.078.188.176.109.176.25.176c.32 0 .328-.312.012-.406-.133-.039-.27-.148-.309-.242-.102-.25-.328-.207-.328.063m-66.375.758c0 .098.086.176.188.176s.188-.078.188-.176-.086-.172-.187-.172-.187.078-.187.172m67.578 0c.043.098.152.176.246.176s.176-.078.176-.176-.109-.172-.246-.172c-.168 0-.223.055-.176.172m-68.703.688c0 .09-.113.191-.25.223s-.25.121-.25.191.113.125.25.125.25-.074.25-.172.086-.176.188-.176.188-.078.188-.176-.086-.176-.187-.176-.187.074-.187.16m69.875.004c0 .09.086.191.188.23s.188.145.188.246.086.176.188.176.188.082.188.176.109.176.25.176c.168 0 .25-.078.25-.234 0-.129-.078-.234-.176-.234s-.203-.078-.246-.172-.156-.176-.262-.176-.191-.078-.191-.176-.086-.176-.187-.176-.187.074-.187.164m1.625 1.18c0 .098.086.176.188.176s.188.078.188.176.086.176.188.176.188.07.188.16.086.195.188.23.188.145.188.242c0 .109.07.148.188.109.102-.039.188-.141.188-.23s-.086-.164-.187-.164-.187-.078-.187-.176-.086-.172-.187-.172-.187-.082-.187-.176-.078-.176-.176-.176-.203-.078-.246-.176-.129-.176-.199-.176-.129.078-.129.176m-73.5.352c0 .094-.086.176-.187.176s-.187.078-.187.172.086.176.188.176.188-.078.188-.176.086-.172.188-.172.188-.082.188-.176-.086-.176-.187-.176-.187.078-.187.176m75.449 1.043c.039.09.148.191.246.227s.18.145.18.242.055.18.125.18.125.082.125.176.086.176.188.176.188.078.188.176.086.176.188.176.188.047.188.105c0 .145.977 1.063 1.129 1.063.066 0 .121.082.121.184 0 .25.422.164.477-.098.023-.125-.035-.203-.156-.203-.105 0-.195-.078-.195-.176s-.109-.176-.25-.176-.25-.078-.25-.176-.086-.176-.187-.176-.187-.07-.187-.16-.086-.195-.187-.23-.187-.148-.187-.246-.086-.18-.187-.18-.187-.078-.187-.176-.086-.176-.187-.176-.187-.078-.187-.172-.109-.176-.25-.176-.25-.078-.25-.176-.082-.176-.184-.176-.156.07-.117.168m-77.402.359c-.043.094-.156.172-.258.172s-.164.086-.141.195c.051.258.352.348.352.105 0-.105.086-.219.188-.258.211-.074.258-.391.059-.391-.07 0-.16.078-.199.176m83.285 5.043c-.152.141-.086.387.105.387.102 0 .188.078.188.176s.086.176.191.176.223.078.262.176.152.176.246.176.176.078.176.176.086.172.188.172.188.082.188.176.086.176.188.176.188-.078.188-.176-.086-.176-.187-.176-.187-.078-.187-.172-.086-.176-.187-.176-.187-.082-.187-.18-.086-.211-.187-.246-.187-.141-.187-.23-.086-.164-.187-.164-.187-.078-.187-.176c0-.176-.266-.238-.418-.094m-89.207.449c0 .098-.086.211-.187.246s-.187.141-.187.23-.086.164-.187.164-.187.078-.187.176.086.172.188.172.188-.078.188-.172.086-.176.188-.176.188-.082.188-.176.086-.176.188-.176.188-.105.188-.234-.082-.234-.187-.234-.187.082-.187.18M109 22.02c0 .191.43.645.613.645.059 0 .141.078.184.176a.31.31 0 0 0 .262.176c.105 0 .191.078.191.172s.086.176.188.176.188-.078.188-.176-.086-.172-.187-.172-.187-.082-.187-.18-.086-.211-.187-.246-.187-.141-.187-.23-.086-.164-.187-.164-.187-.078-.187-.176-.109-.172-.25-.172-.25.074-.25.172m-93.84.383c-.043.109-.152.246-.246.297-.223.125-.207.316.023.316.102 0 .188-.082.188-.176s.086-.176.188-.176.188-.105.188-.234c0-.289-.23-.309-.34-.027M14 23.879c0 .09-.086.191-.187.23s-.187.121-.187.188.086.117.188.117.188-.078.188-.172.086-.176.188-.176.188-.078.188-.176-.086-.176-.187-.176-.187.074-.187.164m96.586-.004c-.039.09.09.27.293.41.426.293.68.32.57.063-.039-.102-.074-.207-.074-.234s-.086-.047-.187-.047-.187-.078-.187-.176c0-.219-.324-.23-.414-.016m.75 1.137c-.051.18-.004.266.172.309.133.031.242.105.242.16s.07.105.16.105.266.113.398.258c.176.195.25.219.293.098.031-.09-.035-.227-.148-.301s-.203-.187-.207-.246c-.008-.406-.809-.742-.91-.383m-98.586.398c0 .094.086.176.188.176s.188-.082.188-.176-.086-.176-.187-.176-.187.078-.187.176M12 26.461c0 .098.086.176.188.176s.188-.078.188-.176-.086-.176-.187-.176-.187.078-.187.176m100.543.004c-.039.102-.055.191-.027.203l.453.238c.359.184.406.188.406.023 0-.102-.086-.215-.187-.25s-.187-.141-.187-.23c0-.223-.363-.207-.457.016M11.25 27.57c0 .129.082.234.188.234s.188-.105.188-.234-.082-.234-.187-.234-.187.105-.187.234m102.082-.156c-.152.145-.086.508.094.508.098 0 .199.055.223.125s.188.113.355.09l.309-.039-.281-.266c-.156-.145-.281-.316-.281-.379 0-.133-.289-.156-.418-.039M10.453 28.68c-.047.121.008.176.176.176.137 0 .246-.078.246-.176s-.078-.176-.176-.176-.203.078-.246.176m103.672-.059l-.008.199c-.008.043.105.121.25.172.219.074.258.043.258-.199 0-.211-.066-.289-.25-.289-.137 0-.25.055-.25.117M10 29.43c0 .16.066.207.242.164.145-.035.215-.129.172-.223-.098-.246-.414-.199-.414.059m104.457-.145c-.176.164-.07.48.18.543l.258.063-.281.359c-.156.195-.332.359-.387.359s-.102.133-.102.293-.086.328-.187.363-.187.188-.187.336c0 .16-.176.41-.437.625-.273.227-.437.465-.437.645 0 .152-.086.313-.187.348s-.191.188-.191.336-.172.391-.375.551-.371.383-.371.5-.168.371-.375.559-.375.41-.379.492c-.004.223-1.098 1.285-1.746 1.699-.309.199-.734.508-.949.691l-2.043 1.613-.531.438c-.125.113-.262.207-.309.207s-.391.25-.773.555l-1.41 1.078-3.375 2.508-.871.648-.859.652-1.879 1.398-1.609 1.191c-.094.086-.625.477-1.187.867l-1.141.844c-.07.07-.773.602-1.562 1.176l-1.5 1.113c-.035.039-.539.418-1.125.84-1.57 1.137-1.461.918-1.531 3.113-.039 1.184-.113 1.957-.203 2.035s-.145.602-.148 1.309c-.004.645-.062 1.566-.129 2.051s-.176 1.789-.242 2.906-.172 2.09-.238 2.164-.156 1.027-.207 2.117c-.055 1.293-.145 2.09-.254 2.297-.121.223-.172.813-.172 2.012s-.055 1.828-.18 2.141c-.125.301-.195 1.039-.219 2.32-.023 1.195-.09 1.938-.184 2.043s-.16.887-.187 2.16c-.027 1.254-.098 2.059-.184 2.164-.086.098-.164.898-.199 2.055-.031 1.113-.109 1.953-.191 2.043s-.152.816-.176 1.703c-.047 1.738-.258 2.125-1.156 2.133-.211.004-.496.082-.629.176s-.418.172-.633.172-.5.078-.633.172-.473.172-.758.176-.582.074-.66.164-.359.191-.621.234a3.45 3.45 0 0 0-.844.246c-.195.098-.535.176-.75.176s-.461.078-.547.176-.359.176-.609.18-.562.082-.695.176-.414.172-.625.176-.492.078-.625.176-.449.168-.703.168-.531.078-.617.176-.332.176-.551.176-.504.07-.641.16-.512.195-.836.238-.625.133-.664.191-.227.113-.41.117-.562.105-.836.227-.621.23-.766.23a1.83 1.83 0 0 0-.625.18c-.199.094-.527.176-.734.18a1.26 1.26 0 0 0-.617.176c-.133.094-.434.172-.664.172s-.508.078-.613.172-.352.176-.559.176a2.05 2.05 0 0 0-.75.184c-.348.168-.402.168-.598 0-.121-.102-.414-.184-.652-.184s-.547-.074-.68-.172-.414-.172-.625-.172-.492-.082-.625-.176-.445-.176-.695-.176-.523-.082-.609-.18-.332-.176-.547-.176-.555-.078-.75-.176-.578-.207-.848-.25-.516-.113-.547-.168-.332-.129-.656-.176-.699-.152-.836-.238-.422-.16-.633-.16-.496-.078-.629-.172-.422-.172-.641-.176-.48-.082-.582-.176-.375-.176-.605-.176-.574-.082-.773-.176-.508-.176-.695-.176-.445-.078-.578-.172a1.18 1.18 0 0 0-.555-.18c-.172-.004-.539-.109-.812-.234s-.668-.227-.875-.23-.484-.086-.617-.18a1.28 1.28 0 0 0-.625-.176c-.211-.004-.492-.082-.625-.176s-.418-.172-.633-.172-.5-.078-.633-.172-.449-.172-.703-.176c-.543-.004-.852-.25-.855-.684-.004-.172-.086-.441-.184-.605-.117-.187-.18-.652-.184-1.34-.012-1.906-.105-2.121-.703-1.633l-1.051.785-1.383 1.047c-.387.309-.766.559-.844.559s-.148.043-.148.094-.465.418-1.031.816l-1.406 1.027-1.937 1.43-1.734 1.277c-.195.18-1.965 1.477-2.555 1.875l-.703.516-2.793 2.055-.715.52-1.398 1.031-1.289.969c-.113.102-.242.191-.289.191s-.281.164-.523.363a28.68 28.68 0 0 1-1.437 1.066l-1.125.836c-.539.566-1.437.867-1.437.477 0-.094-.086-.176-.187-.176s-.187-.078-.187-.172-.086-.176-.187-.176-.187-.078-.187-.176-.086-.176-.187-.176-.187.078-.187.176.086.176.188.176.188.066.188.152.168.277.371.438.371.352.375.43.09.148.191.148.188.078.188.176.078.176.172.176.207.156.246.348c.043.207.156.352.266.352s.191.078.191.176.086.176.188.176.188.074.188.164.168.203.375.242.375.152.375.246.086.164.188.164.188.078.188.176.086.176.188.176.188.078.188.176.086.172.188.172.188.082.188.176.086.176.188.176.188.078.188.176.109.176.25.176.25.078.25.176.086.176.188.176.188.102.188.23.082.234.188.234.188.078.188.176.086.176.188.176.188.078.188.176.086.176.188.176.188.078.188.176.078.172.176.172.203.082.246.176.156.176.262.176.191.078.191.176c0 .117.125.176.375.176s.375.059.375.176c0 .094.086.176.188.176s.188.063.188.141c0 .203 1.02 1.027 1.27 1.027.113 0 .234.078.277.172s.156.176.262.176.191.082.191.176.086.176.188.176.188.078.188.176c0 .117.125.176.375.176s.375.059.375.176c0 .094.086.176.188.176s.188.074.188.164.164.199.363.242.398.148.434.242.148.168.25.168.207.078.25.176.211.176.387.176c.199 0 .316.063.316.172 0 .098.078.176.176.176s.203.078.246.176.211.176.387.176c.199 0 .316.066.316.176 0 .121.133.176.438.176s.438.051.438.176c0 .094.086.172.188.172s.188.074.188.164.148.199.328.238a1.37 1.37 0 0 1 .508.246.73.73 0 0 0 .426.172c.137 0 .277.078.316.176s.23.176.434.176c.238 0 .363.059.363.172s.125.176.375.176.375.059.375.176.125.176.375.176.375.059.375.176.133.176.438.176.438.051.438.176c0 .113.125.172.375.172.234 0 .375.063.375.164 0 .168.367.301.832.305.145 0 .297.078.34.176s.227.176.449.176c.254 0 .379.059.379.176 0 .129.145.172.563.172s.563.047.563.176c0 .117.125.176.379.176.223 0 .41.074.449.176.051.117.25.176.621.176.406 0 .551.047.551.176 0 .137.168.176.75.176s.75.039.75.172.152.176.609.176c.508 0 .621.043.676.234.055.199.172.234.754.234.492 0 .703.051.758.176s.27.176.824.176c.586 0 .754.039.754.176s.195.172 1 .172 1 .035 1 .176.215.176 1.176.176c.926 0 1.188.039 1.246.176.059.145.395.176 1.949.176 1.586 0 1.879.027 1.879.176s.582.176 4.5.176l4.5-.176c0-.148.297-.176 1.938-.176s1.938-.027 1.938-.176.215-.176 1.188-.176 1.188-.031 1.188-.176.195-.176 1-.176 1-.031 1-.172.168-.176.754-.176c.555 0 .773-.047.824-.176s.27-.176.809-.176c.656 0 .738-.027.738-.234s.082-.234.754-.234c.555 0 .773-.043.824-.176.051-.117.25-.172.621-.172.406 0 .551-.047.551-.176s.145-.176.566-.176c.387 0 .59-.055.637-.176.043-.102.23-.176.434-.176.238 0 .363-.059.363-.176 0-.129.145-.176.551-.176.371 0 .57-.055.621-.172.039-.105.227-.176.449-.176.254 0 .379-.059.379-.176s.125-.176.363-.176c.492 0 .762-.109.762-.305 0-.102.137-.164.379-.164.223 0 .41-.07.449-.172s.23-.176.434-.176c.238 0 .363-.062.363-.176s.125-.176.375-.176.375-.059.375-.176.125-.176.375-.176.375-.059.375-.176.125-.172.379-.172c.223 0 .41-.074.449-.176s.211-.176.375-.176.336-.078.375-.168.23-.203.434-.242.363-.152.363-.242c0-.105.133-.168.375-.168.25 0 .375-.059.375-.172 0-.098.109-.176.25-.176s.25-.078.25-.176c0-.109.117-.176.316-.176.176 0 .348-.078.387-.176s.152-.176.246-.176.176-.078.176-.176c0-.113.125-.172.375-.172s.375-.059.375-.176c0-.098.086-.176.191-.176s.223-.074.258-.164.23-.191.434-.23c.215-.039.367-.141.367-.246 0-.098.086-.176.188-.176s.188-.082.188-.176c0-.117.125-.176.375-.176s.375-.059.375-.176c0-.098.086-.176.188-.176s.188-.078.188-.176.109-.176.25-.176.25-.078.25-.176.117-.172.289-.172c.164 0 .414-.148.594-.348.168-.187.375-.348.461-.352s.156-.109.156-.238.082-.23.188-.23.188-.082.188-.176c0-.117.125-.176.375-.176s.375-.059.375-.176c0-.098.109-.176.25-.176s.25-.078.25-.176.086-.176.188-.176.188-.078.188-.172.086-.176.188-.176.188-.082.188-.176.086-.176.188-.176.188-.078.188-.176.086-.176.188-.176.188-.102.188-.234.082-.23.188-.23.188-.082.188-.176.109-.176.25-.176.25-.078.25-.176.109-.176.238-.176c.246 0 1.262-.852 1.262-1.055 0-.062.086-.113.188-.113s.188-.078.188-.176.086-.176.188-.176.188-.078.188-.172.055-.176.117-.176c.234 0 .758-.559.758-.805 0-.141.078-.246.188-.246.102 0 .188-.082.188-.176s.086-.176.188-.176.188-.078.188-.176.086-.176.188-.176.188-.074.188-.164.086-.191.188-.227.188-.148.188-.246.086-.18.188-.18.188-.078.188-.176.078-.176.176-.176.215-.156.262-.352.164-.348.262-.348.176-.082.176-.176.086-.176.188-.176.188-.078.188-.176.086-.176.188-.176.188-.102.188-.234.082-.23.188-.23c.125 0 .188-.117.188-.352s.063-.352.188-.352c.102 0 .188-.074.188-.16s.098-.187.219-.215.332-.262.469-.512.32-.5.406-.551.156-.168.156-.262.086-.168.188-.168c.125 0 .188-.117.188-.352s.063-.352.188-.352c.102 0 .188-.078.188-.176s.086-.176.188-.176.188-.07.188-.16.086-.195.188-.23.188-.195.188-.352c0-.184.086-.301.25-.34.184-.047.25-.16.25-.426 0-.242.063-.359.188-.359.102 0 .188-.059.188-.125s.086-.203.188-.301.188-.27.188-.387.086-.246.188-.281.188-.195.188-.352.086-.312.188-.352c.109-.039.188-.211.188-.418 0-.238.063-.355.188-.355.102 0 .188-.074.188-.164s.086-.191.188-.23.188-.199.188-.359c0-.18.07-.297.176-.297.098 0 .215-.156.262-.344s.16-.406.258-.48.18-.242.18-.367.086-.309.188-.402.188-.355.188-.578c0-.277.059-.398.188-.398s.188-.117.188-.34c0-.191.082-.367.188-.402s.188-.215.188-.422c0-.238.063-.355.188-.355s.188-.117.188-.352.063-.348.188-.348.188-.117.188-.348c0-.187.086-.387.191-.441s.227-.309.27-.562.152-.504.246-.555.168-.289.168-.543c0-.289.066-.473.188-.516.129-.047.188-.234.188-.598 0-.391.047-.527.188-.527s.188-.137.188-.527.047-.523.188-.523.188-.137.188-.516c0-.348.059-.535.188-.578s.188-.234.188-.598c0-.391.047-.527.188-.527.148 0 .188-.164.188-.762 0-.566.043-.758.172-.758.199 0 .32-.348.332-.937 0-.223.086-.508.188-.633s.184-.457.184-.738c0-.301.078-.586.188-.687.129-.121.188-.422.188-.973 0-.602.047-.812.188-.863.148-.055.188-.305.188-1.227s.039-1.176.188-1.227.188-.34.188-1.531c0-1.223.031-1.465.188-1.465.164 0 .188-.766.188-6.191l-.187-6.191c-.156 0-.187-.262-.187-1.641 0-1.348-.031-1.648-.187-1.707-.148-.051-.187-.289-.187-1.105 0-.844-.035-1.039-.187-1.039s-.187-.18-.187-.934-.035-.934-.187-.934c-.145 0-.187-.156-.187-.707 0-.516-.051-.723-.187-.77s-.187-.242-.187-.668c-.004-.766-.109-1.129-.328-1.129-.129 0-.172-.187-.172-.758 0-.598-.039-.758-.187-.758-.137 0-.187-.137-.187-.516 0-.348-.059-.535-.187-.578s-.187-.234-.187-.598c0-.395-.047-.531-.187-.531s-.187-.137-.187-.523-.047-.527-.187-.527-.187-.137-.187-.527c0-.363-.059-.551-.187-.598-.121-.043-.187-.227-.187-.527s-.066-.48-.187-.523c-.109-.039-.187-.215-.187-.418 0-.25-.07-.363-.25-.41-.195-.047-.25-.16-.25-.516 0-.301-.066-.48-.187-.527-.105-.039-.187-.211-.187-.402 0-.223-.062-.34-.187-.34s-.187-.117-.187-.336c0-.195-.082-.367-.187-.406s-.187-.215-.187-.422c0-.238-.062-.355-.187-.355s-.187-.117-.187-.348c0-.219-.062-.352-.172-.352s-.195-.184-.238-.484c-.039-.266-.121-.516-.184-.555s-.148-.164-.191-.277-.168-.203-.273-.203c-.129 0-.191-.113-.191-.352s-.062-.348-.187-.348-.187-.117-.187-.352c0-.387-.203-.453-.629-.203-.211.117-.273.113-.371-.031-.238-.348-.148-.5.25-.426.41.074.57-.297.188-.434a.33.33 0 0 1-.187-.289c0-.125-.086-.289-.187-.371s-.187-.219-.187-.305c0-.164-.391-.227-.543-.082m-105.5 1.867c-.145.133-.09.273.105.273.102 0 .188-.078.188-.176 0-.184-.148-.23-.293-.098m-.457.797c0 .098.086.176.188.176s.188-.078.188-.176-.086-.172-.187-.172-.187.078-.187.172m-.426.711c-.109.27-.098.285.176.285.168 0 .25-.078.25-.234 0-.277-.316-.312-.426-.051m-.449.809c0 .098.109.176.25.176s.25-.078.25-.176-.109-.176-.25-.176-.25.078-.25.176m-.375.691c0 .109.105.188.262.188.305 0 .262-.273-.055-.332-.121-.023-.207.039-.207.145m-.293.613c-.16.152-.082.383.105.316.102-.039.188-.141.188-.23 0-.172-.152-.215-.293-.086m-.375.82c-.145.133-.09.27.105.27.102 0 .188-.078.188-.176 0-.18-.148-.23-.293-.094m-.832 1.902c0 .156.059.207.188.164.102-.039.188-.141.188-.23s-.086-.164-.187-.164-.187.105-.187.23m-.219.547c-.219.086-.195.391.031.391.105 0 .188-.102.188-.234 0-.125-.016-.227-.031-.223s-.102.035-.187.066m-.656 1.27c0 .094.109.172.25.172s.25-.078.25-.172-.109-.176-.25-.176-.25.078-.25.176m-.293.953c-.172.16-.074.387.168.387.273 0 .285-.012.176-.281-.082-.195-.207-.234-.344-.105m-.457 1.266c0 .094.086.176.188.176s.188-.082.188-.176-.086-.176-.187-.176-.187.078-.187.176m-.375 1.109c0 .129.082.234.188.234s.188-.105.188-.234-.082-.234-.187-.234-.187.105-.187.234m-.375 1.109c0 .098.086.176.188.176s.188-.078.188-.176-.086-.176-.187-.176-.187.078-.187.176M3 45.035c0 .285.055.41.188.41s.188-.125.188-.41-.055-.41-.187-.41-.187.125-.187.41m-.422 1.371c-.113.402-.098.441.172.441.195 0 .25-.078.25-.352 0-.418-.309-.48-.422-.09m-.316 1.352c-.211.367-.168.605.113.605.27 0 .344-.379.137-.687-.09-.129-.137-.113-.25.082m-.437 1.492c-.152.371-.086.613.152.555.172-.039.215-.137.172-.398-.059-.375-.203-.445-.324-.156m-.449 2.387c0 .234.063.348.188.348s.188-.113.188-.348-.062-.352-.187-.352-.187.117-.187.352m-.293 1.945c-.187.176-.09 1.438.105 1.367.137-.051.188-.25.188-.758 0-.633-.082-.805-.293-.609m-.457 4.48c0 .75.035.934.188.934S1 58.813 1 58.063s-.035-.937-.187-.937-.187.184-.187.938m71.438 6.961l-1.125.84-.812.602-2 1.469-2.094 1.539c-.844.617-.828.621 2.152.621 2.75 0 3.168.191 2.438 1.109-.051.063-.117.973-.148 2.02-.035 1.23-.105 1.949-.203 2.039s-.145.602-.145 1.445c0 1.371-.109 1.676-.602 1.684-.117.004-.32.082-.453.176s-.461.172-.727.172-.57.078-.676.176-.395.176-.645.18-.57.078-.703.176-.477.168-.766.168c-.312 0-.586.074-.68.176-.086.098-.332.18-.547.18a1.88 1.88 0 0 0-.703.172c-.418.223-1.301.223-1.5 0-.098-.109-.375-.176-.734-.18-.316 0-.687-.082-.82-.176s-.449-.172-.703-.172-.531-.074-.617-.172-.359-.176-.617-.176-.57-.078-.703-.172-.441-.172-.687-.176-.555-.082-.687-.176-.344-.172-.465-.176c-.227-.004-.262-.059-.395-.617-.102-.43-.41-.41-1.016.066l-1.617 1.195-1.25.938c-.07.074-.477.379-.906.684l-.781.551v1.738h.484c.277 0 .551.074.641.176.086.094.359.176.609.176s.563.082.695.176.422.172.641.172.469.078.555.176.336.176.555.176.508.078.641.172.398.172.586.176.555.105.813.234.613.234.797.234.492.078.688.176.508.176.688.176.398.078.484.176.363.176.645.176c.32 0 .512.059.559.172s.242.18.527.18a2.05 2.05 0 0 1 .77.172c.418.227 1.754.227 2.07.004.133-.094.445-.172.695-.176s.523-.082.609-.18.336-.172.555-.172.508-.078.641-.172.383-.176.555-.176.457-.074.633-.16.563-.195.859-.238.656-.156.801-.254.422-.168.617-.168a.95.95 0 0 0 .547-.176c.102-.098.363-.18.582-.18s.508-.082.641-.176.418-.172.633-.172.5-.078.633-.172.445-.172.695-.176.52-.078.602-.172.359-.184.609-.203l.461-.035.063-1.648c.039-.98.121-1.715.207-1.812s.16-.867.188-2.078c.031-1.402.086-1.934.199-1.969s.16-.453.164-1.527c.004-.812.066-1.742.137-2.062s.168-1.437.215-2.48c.055-1.242.137-1.945.238-2.039s.152-.59.152-1.523v-1.375l-3.562.008-.875.645M.625 66.824c0 .75.035.934.188.934S1 67.574 1 66.824s-.035-.937-.187-.937-.187.184-.187.938M1 70.676c0 .547.043.703.188.703s.188-.156.188-.703-.043-.699-.187-.699-.187.156-.187.699m.375 2.684c0 .781.305.809.41.035.059-.434.035-.496-.172-.496-.195 0-.238.086-.238.461m.398 2.02c.051.477.305.543.375.102.043-.266 0-.359-.18-.406-.195-.047-.227 0-.195.305m.375 1.52c.023.242.105.379.227.379s.203-.137.227-.379c.031-.32 0-.379-.227-.379s-.258.059-.227.379m.352 1.305c0 .293.148.535.324.535.113 0 .176-.129.176-.352 0-.27-.055-.348-.25-.348-.137 0-.25.074-.25.164m.5 1.645c0 .285.055.41.188.41s.188-.125.188-.41-.055-.41-.187-.41-.187.125-.187.41m.375 1.449c0 .191.082.367.188.406.145.051.188-.027.188-.34 0-.281-.059-.406-.187-.406s-.187.117-.187.34m.398 1.082c.055.535.352.578.352.051 0-.305-.055-.422-.195-.422s-.184.098-.156.371m.352 1.082c0 .527.289.551.422.039.07-.27.043-.324-.168-.324-.187 0-.254.078-.254.285m.375 1.047c0 .152.086.344.188.422.152.117.188.113.188-.016a2.54 2.54 0 0 1 .078-.422c.063-.211.023-.262-.187-.262-.195 0-.266.07-.266.277m.434 1.211c.105.391.137.426.309.324.258-.148.156-.645-.129-.645-.227 0-.254.047-.18.32m.441.965c.074.129.188.23.254.23s.121-.102.121-.23c0-.16-.082-.234-.254-.234-.215 0-.234.035-.121.234m.375.703c0 .125.086.23.188.23s.188-.074.188-.164-.086-.191-.187-.23c-.129-.043-.187.008-.187.164m.402 1.07c.078.215.348.254.348.047 0-.102-.09-.187-.199-.187s-.176.063-.148.141m.348.723c0 .09.086.195.188.23.129.047.188-.004.188-.16 0-.129-.086-.23-.187-.23s-.187.074-.187.16m.375.832c0 .098.086.176.188.176s.188-.078.188-.176-.086-.176-.187-.176-.187.078-.187.176m.375.652c0 .145.086.223.25.223.137 0 .25-.07.25-.16s-.113-.191-.25-.223c-.184-.047-.25-.004-.25.16m.434.895c.047.176.133.348.191.379s.145.211.195.391.164.359.258.391.172.137.172.227.086.164.188.164.188-.082.188-.176-.086-.176-.187-.176c-.133 0-.187-.125-.187-.41s-.055-.41-.187-.41c-.125 0-.187-.113-.187-.348 0-.281-.055-.352-.262-.352-.227 0-.254.047-.18.32m1.191 2.074c0 .098.086.176.188.176s.188-.078.188-.176-.086-.176-.187-.176-.187.078-.187.176m.375.688c0 .09.086.195.188.23.129.047.188-.004.188-.16 0-.129-.086-.23-.187-.23s-.187.07-.187.16m.543.871c.113.117.207.277.207.359 0 .184.398.117.469-.078.027-.078-.039-.145-.148-.145s-.234-.078-.273-.176-.16-.176-.266-.176c-.172 0-.168.027.012.215m.582 1.012c0 .098.109.176.25.176s.25-.078.25-.176-.109-.176-.25-.176-.25.078-.25.176m.469.668c.039.125.141.254.234.289s.172.133.172.223.086.164.188.164.188-.105.188-.234-.082-.234-.187-.234-.187-.07-.187-.16-.105-.187-.234-.219c-.184-.047-.219-.008-.172.172m.781 1.203c0 .094.086.172.188.172s.188.082.188.176.086.176.188.176.188-.078.188-.176-.086-.176-.187-.176-.187-.078-.187-.172-.086-.176-.187-.176-.187.078-.187.176m.75.984c0 .063.074.152.164.207a.65.65 0 0 1 .25.305c.102.254.383.203.438-.078.027-.129-.043-.191-.219-.191-.145 0-.258-.078-.258-.176s-.086-.176-.187-.176-.187.051-.187.109m1.25 1.582c0 .098.086.176.188.176s.188.082.188.176.086.176.188.176.188-.078.188-.176-.086-.176-.187-.176-.187-.078-.187-.176-.086-.172-.187-.172-.187.078-.187.172m.75 1.055c0 .094.086.176.188.176s.188.078.188.176.086.211.188.246.188.141.188.23c0 .223.332.207.426-.023.051-.125-.008-.207-.176-.246-.137-.035-.25-.133-.25-.223s-.086-.16-.187-.16-.187-.082-.187-.176-.086-.176-.187-.176-.187.078-.187.176" fill="rgb(95.294118%,39.215686%,14.117647%)"/><path d="M61.469 1.023h2.063C64.098 1 63.633.98 62.5.98l-1.031.043m7.422.117c-.012.223.043.258.391.242.367-.016.375-.02.07-.062-.184-.027-.359-.137-.391-.246-.039-.141-.062-.121-.07.066m-13.359.227a1.18 1.18 0 0 0 .438 0c.121-.031.023-.055-.219-.055s-.34.023-.219.055m23.133 1.609a.3.3 0 0 0 .273.258c.18.016.191.008.039-.035a.44.44 0 0 1-.273-.258c-.047-.141-.059-.133-.039.035m1.211.441c0 .137.094.199.281.195s.219-.031.094-.078c-.102-.035-.23-.125-.281-.195-.055-.078-.09-.051-.094.078m6.266 2.16c-.012.203.051.262.266.25.199-.012.219-.031.07-.066-.117-.027-.234-.141-.266-.25-.039-.141-.062-.121-.07.066m.75.352c-.012.203.051.258.266.25.199-.012.219-.031.07-.066-.117-.031-.234-.141-.266-.25-.039-.141-.062-.121-.07.066m.742.262c-.012.348.191.508.445.355.211-.125.211-.133.012-.074-.156.047-.258-.016-.336-.195-.062-.148-.117-.184-.121-.086m.883.43c-.02.316.125.414.367.254.148-.102.145-.109-.031-.059-.148.043-.227-.016-.266-.191l-.051-.258-.02.254m.773.379c.012.156.109.305.211.332.125.031.141.012.047-.051a.69.69 0 0 1-.211-.332c-.055-.184-.066-.172-.047.051m1.598.797c-.008.176.059.262.207.262.137 0 .164-.035.082-.086s-.172-.164-.211-.262c-.047-.117-.074-.09-.078.086m1.613.645c0 .277.418.766.602.699.195-.074.195-.082-.008-.121-.121-.023-.219-.094-.219-.156s-.086-.195-.187-.293-.187-.152-.187-.129m1.363 1.168c.055.145.207.277.34.297.141.023.18 0 .102-.059-.074-.051-.172-.184-.215-.297s-.137-.203-.207-.203c-.078 0-.086.098-.02.262m1.137.648c0 .266.359.547.516.402.129-.117.117-.145-.055-.145-.117 0-.211-.082-.211-.176s-.055-.176-.125-.176-.125.043-.125.094m2.137 1.102c-.027.488.895 1.395 1.16 1.145.086-.082.063-.121-.086-.121-.117 0-.211-.078-.211-.176s-.086-.176-.187-.176-.187-.074-.187-.168-.078-.211-.168-.262a.62.62 0 0 1-.242-.27c-.055-.141-.07-.137-.078.027m2.004 1.531c-.016.215.699 1.246.867 1.246.047 0 .164-.09.258-.199.152-.172.145-.187-.047-.121-.148.055-.219.02-.219-.098 0-.098-.086-.203-.187-.242s-.187-.141-.187-.23-.082-.16-.18-.16-.203-.094-.234-.207c-.051-.187-.059-.184-.07.012m1.609 1.188c0 .098.043.176.094.176s.203.211.332.469.285.465.344.465.105.105.105.234.082.23.188.23c.141 0 .188.137.188.527s-.047.527-.187.527c-.102 0-.187.078-.187.172s-.086.176-.187.176c-.133 0-.187.125-.187.41s-.055.41-.187.41c-.102 0-.187.078-.187.176s-.086.172-.187.172c-.125 0-.187.117-.187.352s-.062.352-.187.352-.187.117-.187.352c0 .27-.055.348-.25.348-.168 0-.25.078-.25.234 0 .129-.082.234-.187.234-.125 0-.187.117-.187.352s-.062.348-.187.348c-.102 0-.187.082-.187.176s-.086.176-.187.176c-.125 0-.187.117-.187.352s-.062.352-.187.352c-.133 0-.187.121-.187.406s-.055.41-.187.41c-.102 0-.187.078-.187.176s-.109.176-.25.176c-.195 0-.25.078-.25.348 0 .234-.062.352-.187.352s-.187.117-.187.352-.062.348-.187.348c-.102 0-.187.082-.187.176s-.086.176-.187.176c-.133 0-.187.125-.187.41s-.055.41-.187.41c-.102 0-.187.078-.187.172s-.086.176-.187.176c-.125 0-.187.117-.187.352s-.062.352-.187.352-.187.117-.187.348c0 .273-.055.352-.25.352-.168 0-.25.078-.25.234 0 .129-.082.234-.187.234-.125 0-.187.117-.187.348s-.062.352-.187.352c-.102 0-.187.078-.187.176s-.086.176-.187.176c-.125 0-.187.117-.187.352s-.062.348-.187.348c-.133 0-.187.125-.187.41s-.055.41-.187.41c-.102 0-.187.078-.187.176s-.086.172-.187.172c-.125 0-.187.117-.187.352 0 .273-.055.352-.25.352-.141 0-.25.078-.25.176s-.086.176-.187.176c-.125 0-.187.113-.187.348s-.062.352-.187.352c-.133 0-.187.125-.187.41s-.055.406-.187.406c-.102 0-.187.082-.187.176s-.086.176-.187.176c-.125 0-.187.117-.187.352s-.062.352-.187.352c-.102 0-.187.078-.187.172s-.086.176-.187.176c-.133 0-.187.125-.187.41 0 .332-.047.41-.25.41-.195 0-.25.078-.25.348 0 .234-.062.352-.187.352-.102 0-.187.078-.187.176s-.086.176-.187.176c-.125 0-.187.117-.187.348s-.062.352-.187.352c-.102 0-.187.078-.187.176s-.086.176-.187.176c-.133 0-.187.121-.187.41s-.055.406-.187.406c-.125 0-.187.117-.187.352s-.062.352-.187.352c-.102 0-.187.078-.187.176s-.109.172-.25.172c-.195 0-.25.078-.25.352 0 .234-.062.352-.187.352s-.187.121-.187.402v.406l.969.031.969.035-.016 2.102c-.008 1.711-.051 2.172-.215 2.457-.164.277-.207.699-.207 2.059 0 1.254-.051 1.82-.187 2.129-.137.301-.187.863-.187 2.027 0 1.199-.051 1.695-.187 1.945-.297.531-.219.613.219.234.223-.195.801-.637 1.281-.984l.938-.695c.035-.039.711-.539 1.5-1.113l1.563-1.176c.07-.07.582-.449 1.141-.844l1.188-.867c.094-.086.82-.621 1.609-1.191l1.879-1.398.859-.652.871-.648 3.375-2.508 1.41-1.078c.383-.305.73-.555.773-.555s.184-.094.309-.207l.531-.437 2.043-1.613c.215-.184.641-.492.949-.691.648-.414 1.742-1.477 1.746-1.699.004-.082.172-.305.379-.492s.375-.441.375-.559.168-.34.371-.5.371-.402.375-.551.09-.297.191-.336.188-.195.188-.348c0-.18.164-.418.438-.645.262-.215.438-.465.438-.625 0-.148.086-.297.188-.336s.188-.199.188-.363.047-.293.102-.293.23-.164.387-.359l.281-.359-.258-.062c-.285-.07-.348-.379-.117-.594.113-.105.066-.164-.191-.258-.285-.102-.316-.156-.207-.348.203-.352.156-.477-.184-.477-.172 0-.312-.051-.312-.113s-.086-.117-.191-.117c-.148 0-.184-.105-.156-.426.031-.379-.012-.445-.371-.613-.332-.152-.398-.242-.34-.461.07-.285-.359-.832-.66-.836-.086 0-.156-.047-.156-.105s-.113-.129-.25-.164c-.219-.051-.234-.105-.125-.371.156-.387.156-.414-.012-.414-.348 0-.797-.488-.758-.824.027-.25-.016-.344-.16-.344-.105 0-.195-.078-.195-.176s-.086-.172-.191-.172a.31.31 0 0 1-.262-.176c-.043-.098-.125-.176-.184-.176-.18 0-.613-.453-.613-.641 0-.102-.074-.145-.187-.102-.187.066-.246-.105-.195-.574.016-.113-.062-.203-.172-.203s-.195-.078-.195-.176-.086-.176-.187-.176-.187-.078-.187-.172-.078-.176-.176-.176-.203-.082-.246-.176-.156-.176-.262-.176-.191-.078-.191-.176-.09-.176-.203-.176c-.133 0-.18-.07-.141-.215.047-.164 0-.203-.203-.168-.187.031-.34-.059-.516-.312-.137-.195-.297-.355-.352-.355s-.176-.066-.266-.145l-.93-.781c-.711-.59-.75-.648-.566-.84s.18-.199-.062-.141c-.187.047-.262.012-.262-.125 0-.102-.055-.187-.121-.187-.152 0-1.129-.918-1.129-1.062 0-.059-.086-.105-.187-.105s-.187-.078-.187-.176-.086-.176-.187-.176-.187-.078-.187-.176-.055-.176-.125-.176-.125-.066-.125-.148-.113-.238-.25-.348c-.211-.168-.25-.172-.25-.027M115 30.832c0 .449.352.609.633.293.137-.152.133-.203-.016-.289-.234-.141-.617-.141-.617-.004M1.75 51.684c0 .172-.086.305-.219.34-.164.039-.148.055.063.066.234.012.281-.047.281-.336 0-.195-.027-.352-.062-.352s-.062.129-.062.281m75.125 2.348c0 .094-.086.176-.187.176-.125 0-.187.117-.187.348s-.062.352-.187.352c-.133 0-.187.125-.187.41s-.055.406-.187.406c-.102 0-.187.082-.187.176s-.109.176-.25.176c-.195 0-.25.078-.25.352 0 .234-.062.352-.187.352-.102 0-.187.078-.187.172 0 .145.215.176 1.188.176h1.188v-1.633c0-1.379-.031-1.637-.187-1.637-.102 0-.187.078-.187.176m-75.5.457c0 .219-.07.426-.156.457-.094.035-.066.063.063.07.172.004.219-.09.219-.461 0-.254-.027-.465-.062-.465s-.062.18-.062.398m85.121 1.266c0 .723-.059 1.523-.133 1.781s-.176 1.281-.234 2.277l-.187 2.336c-.062.402-.051.48.055.328.074-.109.168-1.055.211-2.102s.133-1.973.203-2.051c.137-.164.301-3.887.172-3.887-.047 0-.082.594-.086 1.316M1.02 58.492c-.016.355-.078.5-.238.539-.203.051-.203.055.004.066.277.02.371-.199.305-.703-.047-.359-.051-.352-.07.098m84.723 5.496c-.008.691-.062 1.547-.129 1.898a14.17 14.17 0 0 0-.16 1.578c-.023.516-.02.594.008.18s.105-.816.176-.891c.137-.156.324-4.02.195-4.02-.047 0-.086.563-.09 1.254m-12.617.281c-.309.063-1.195.141-1.969.176-1.086.051-1.406.102-1.406.227 0 .09-.086.164-.187.164-.125 0-.187.117-.187.352s-.062.352-.187.352c-.133 0-.187.121-.187.406s-.055.41-.187.41c-.102 0-.187.078-.187.176s-.086.176-.187.176c-.125 0-.187.117-.187.348s-.062.352-.187.352c-.102 0-.187.078-.187.176 0 .121-.133.176-.437.176s-.437.051-.437.176c0 .094-.086.176-.187.176s-.187.102-.187.23-.082.234-.187.234-.187.078-.187.176-.086.176-.187.176-.187.078-.187.176-.086.176-.187.176-.187.055-.187.121-.168.18-.375.246-.375.164-.375.219c0 .117.738.277.844.184.039-.039 0-.07-.09-.07s.141-.223.512-.492l2.109-1.551 2-1.465.625-.465c.035-.039.547-.422 1.145-.852l1.078-.781h3.52l.043 1.371.039 1.371-.004-1.461-.008-1.457-1.437-.02c-.789-.008-1.691.035-2 .094M.773 65.844c.145.039.23.215.262.547l.047.488-.008-.523c-.012-.434-.055-.527-.262-.547-.184-.02-.191-.008-.039.035m75.516 1.477c-.055.078-.105.934-.117 1.898l-.02 1.75.094-1.578.188-1.895c.098-.34.027-.426-.145-.176m8.934 2.715l-.164 1.109c-.07.285-.066.285.129-.031.141-.23.188-.551.16-1.109l-.035-.785-.09.816m-84.074-.098c.148.039.227.207.262.543l.047.488.02-.555c.023-.508 0-.555-.258-.539-.199.008-.219.027-.07.063m69.344.324c.094.105.117.32.059.598-.055.285-.043.41.039.363.359-.207.258-1.129-.121-1.129-.07 0-.062.07.023.168m5.441 1.086c-.047.113-.105 1.047-.125 2.074l-.035 1.871.094-1.637.191-2.074c.098-.457.035-.582-.125-.234m-5.598 1.695l-.156 2.016c-.07.285-.055.324.074.207.16-.137.367-3.887.215-3.887-.035 0-.094.75-.133 1.664m14.52.848l-.156 1.402-.074.348.191-.387c.137-.281.184-.68.156-1.402l-.035-1.012-.082 1.051m-9.398 1.898c-.043.242-.07 1.016-.059 1.723l.02 1.285.082-1.402.18-1.723c.059-.191.047-.32-.023-.32s-.16.195-.199.438m-5.434.848c-.035 1.563-.113 1.656-1.648 1.98l-.437.094.441.016c.242.004.551-.059.688-.145a2.12 2.12 0 0 1 .59-.238c.438-.098.488-.316.438-1.766l-.043-1.168-.027 1.227m14.453 1.109l-.168 1.867c-.078.195-.066.211.074.09.168-.148.332-2.633.219-3.301-.027-.16-.082.445-.125 1.344m-29.555-.508c-.594.523-.93.785-1.391 1.078-.293.184-.531.383-.531.438s-.059.102-.129.102-.293.156-.496.352-.402.348-.445.348c-.109 0-1.187.816-1.586 1.199-.324.316-.344.391-.32 1.293l.027.957.086-1.805.773-.547.902-.68c.07-.07.633-.492 1.25-.937l1.617-1.195c.492-.387.945-.508.945-.25 0 .074.031.105.074.066.336-.312-.43-.723-.777-.418m.828.891c0 .082.098.18.219.215s.367.137.551.227a1.88 1.88 0 0 0 .75.156l.418-.016-.437-.09c-.598-.125-1.293-.383-1.406-.523-.055-.074-.09-.062-.094.031m2.18.773c.133.102.414.18.625.176l.383-.012-.375-.094-.625-.172c-.246-.082-.246-.078-.008.102m9.625-.055c-.066.059-.312.129-.555.156l-.437.047.438.016c.43.02.871-.137.738-.262-.039-.035-.121-.016-.184.043m-8.305.418c.086.094.332.168.547.156.34-.012.352-.02.078-.066-.172-.027-.367-.102-.43-.16-.199-.176-.363-.121-.195.07m6.625.004c-.395.141-.406.156-.117.164.176.004.43-.07.563-.164.293-.207.145-.207-.445 0m9.246.352c-.066.164-.113.758-.102 1.316l.016 1.012.094-.992.18-1.312c.117-.406-.023-.422-.187-.023m-14.551-.012c.133.094.41.172.617.168.332-.004.313-.023-.187-.168-.703-.207-.727-.207-.43 0m3.93.012c-.406.145-.414.156-.109.16.18.004.398-.07.484-.168s.133-.168.109-.16-.242.082-.484.168m-2.391.324c.219.246 1.086.254 1.516.008l.313-.18-.312.078c-.691.172-1.109.188-1.391.047-.27-.133-.281-.129-.125.047m21.984 2.004l-.164 1.813c-.07.336-.055.383.082.262.113-.102.18-.598.215-1.582.07-1.898-.039-2.281-.133-.492m-80.57-1.035c.117.031.238.148.273.254.047.145.059.137.039-.035-.016-.133-.129-.242-.273-.254-.18-.02-.191-.008-.039.035m47.164 2.113c.137.031.305.102.367.16.199.176.363.121.195-.066-.086-.098-.305-.172-.484-.164-.258.012-.273.027-.078.07m23.188.094c-.168.188-.004.242.195.066.063-.059.23-.129.367-.16.195-.043.18-.059-.078-.07-.18-.008-.398.066-.484.164m-22 .258c.172.027.367.102.43.16a.53.53 0 0 0 .305.105c.141 0 .129-.043-.055-.172-.133-.094-.41-.164-.617-.16-.336.012-.344.02-.062.066m20.688.109l-.25.188.25-.09c.137-.051.445-.129.688-.176l.438-.09-.437-.008c-.242-.008-.551.074-.687.176m-19.437.242c.172.027.367.098.43.156.199.18.363.121.195-.066-.086-.098-.332-.168-.547-.16-.34.016-.352.023-.078.07m18.18.086c-.133.094-.391.172-.574.176-.406.004-.73.109-.73.238 0 .09.258.031 1.188-.258l.75-.211.375-.094-.383-.012c-.211-.008-.492.066-.625.16m-16.996.266c.199.027.48.125.621.215a1.23 1.23 0 0 0 .566.168c.176.004.457.082.629.172s.395.172.5.172-.027-.102-.281-.23-.621-.234-.812-.234-.453-.082-.586-.176-.414-.164-.625-.156l-.383.02.371.051m29.402 1.813l-.156 2.016c-.07.281-.055.324.074.207.16-.141.367-3.887.215-3.887-.035 0-.094.746-.133 1.664M68.93 84.516c-.133.098-.355.18-.492.191-.219.016-.223.023-.023.07a.55.55 0 0 0 .41-.09c.105-.082.398-.184.652-.23.441-.082.445-.086.078-.098-.211-.008-.492.063-.625.156m-11.484.469c.133.094.355.172.492.176.199 0 .18-.031-.109-.172-.457-.223-.699-.227-.383-.004m9.805.012c-.273.145-.281.164-.062.16.137 0 .359-.078.492-.172.313-.223.004-.211-.43.012m-8.625.344c.41.219.57.219.375 0a.61.61 0 0 0-.422-.172c-.25.004-.246.016.047.172m7.445.004c-.309.215-.211.215.32 0 .293-.117.344-.172.172-.172-.137 0-.359.078-.492.172m-6.383.25a1.42 1.42 0 0 1 .426.195c.141.105.164.098.117-.043-.035-.094-.227-.184-.426-.195-.23-.012-.273.004-.117.043m5.188.094c-.168.188-.004.246.195.07.063-.059.23-.129.367-.16.195-.043.18-.059-.078-.07-.18-.008-.398.066-.484.16m-4.125.262c.242.027.492.098.555.156s.207.109.313.105c.125-.004.082-.066-.117-.172-.172-.09-.508-.16-.75-.152l-.437.016.438.047m2.813.109l-.25.188.25-.09c.137-.051.445-.129.688-.176l.438-.09-.437-.008c-.242-.008-.551.074-.687.176m-1.34.242c.223.023.559.023.75-.004s.004-.047-.41-.047-.566.023-.34.051m-20.617.816c-.023.055-.465.402-.98.777l-.98.785c-.023.059-.102.105-.176.105s-.223.078-.332.172c-.379.324-1.203.953-2.074 1.578l-.918.723c-.023.055-.117.098-.211.098s-.215.066-.27.152-.75.617-1.539 1.188l-1.5 1.105c-.035.039-.57.434-1.187.875l-1.25.934c-.07.074-.855.652-1.75 1.285l-1.766 1.309c-.074.09-.199.16-.281.16s-.141.043-.141.094-.352.34-.781.633l-1.031.758a6.54 6.54 0 0 1-.687.496c-.242.152-.492.336-.562.406s-.633.492-1.25.938l-1.508 1.109-.871.648-.687.527c-.68.594-1.18.809-1.289.555-.035-.086-.066-.062-.07.059-.023.422.867.145 1.426-.449.07-.07.574-.449 1.125-.836l1.438-1.066c.242-.199.477-.363.523-.363s.176-.09.289-.191.691-.543 1.289-.969L25 99.68l.715-.52 2.793-2.055c.168-.137.484-.367.703-.516l2.555-1.875c.094-.086.875-.66 1.734-1.277l1.938-1.43c.207-.168.84-.633 1.406-1.027s1.031-.766 1.031-.816.066-.094.148-.094.457-.25.844-.559l1.383-1.047 1.051-.785c.461-.375.543-.371.613.023.035.203.051.152.039-.137-.016-.41-.234-.695-.348-.449m41.789 2.566c-.023 1.617-.184 1.953-1.02 2.137l-.437.094.387.012c.969.031 1.406-1.223 1.145-3.258-.031-.227-.062.234-.074 1.016m-41.371-.199c-.012.594.047.973.172 1.168.188.293.188.289.102-.113-.047-.227-.125-.754-.176-1.168l-.086-.762-.012.875M7 89.805c.102.035.23.125.281.195.055.078.09.051.094-.074 0-.141-.094-.203-.281-.195s-.219.031-.094.074m.813 1.395c.137.035.297.125.352.199.07.086.086.074.055-.043-.027-.098-.187-.184-.352-.195-.242-.02-.25-.008-.055.039m34.563.266c0 .25.418.473.852.457l.461-.012-.402-.074c-.223-.039-.52-.164-.656-.273s-.254-.156-.254-.098m1.555.652a1.06 1.06 0 0 0 .563.156l.32-.016-.312-.051c-.172-.031-.367-.102-.43-.16s-.18-.105-.25-.105-.023.082.109.176m37.32.004c-.395.141-.406.156-.117.16.176.004.43-.07.563-.164.293-.207.145-.203-.445.004m-36.055.34c.133.094.355.172.492.172.172 0 .121-.055-.172-.172-.531-.219-.629-.215-.32 0M80 92.473c-.273.145-.281.164-.062.16.137 0 .359-.078.492-.172.313-.223.004-.211-.43.012m-33.555.34c.133.094.383.168.555.16.254-.008.266-.02.063-.066-.137-.031-.305-.102-.367-.16a.53.53 0 0 0-.305-.105c-.141 0-.129.043.055.172m32.305.004c-.215.113-.25.168-.109.172.113 0 .273-.078.359-.172.191-.215.152-.215-.25 0m-30.812.406c.273.125.641.23.813.234a1.18 1.18 0 0 1 .555.18c.133.094.395.172.578.172s.5.078.695.176a2.06 2.06 0 0 0 .797.16l.438-.016-.5-.086a8.32 8.32 0 0 1-.906-.223l-1.656-.469c-.242-.047-.559-.148-.711-.223s-.348-.137-.437-.133.063.105.336.227m29.563-.059a1.72 1.72 0 0 1-.691.172c-.207.004-.492.078-.629.172s-.422.188-.621.215c-.34.047-.336.051.082.066.27.012.516-.051.609-.156.086-.098.324-.176.527-.176a2.41 2.41 0 0 0 .766-.164l.582-.223c.129-.043.109-.062-.062-.066-.137-.004-.391.07-.562.16m-2.695.754c-.062.059-.285.129-.492.156l-.375.051.383.016a1.16 1.16 0 0 0 .625-.152c.133-.094.184-.176.109-.176s-.184.043-.25.105m-22.93.34c0 .148.32.254.73.238.32-.012.32-.012-.055-.098a2.87 2.87 0 0 1-.531-.168c-.078-.047-.145-.035-.145.027m21.711-.023c-.047.043-.293.117-.555.164l-.469.086.445.012c.242.008.555-.062.688-.156s.18-.176.105-.176-.172.027-.215.07m-20.406.453c.133.094.387.172.563.168.266-.004.234-.035-.18-.176-.625-.207-.687-.207-.383.008m19-.074c-.062.059-.23.133-.367.164-.195.043-.18.059.078.07.18.008.398-.066.484-.164.168-.187.004-.246-.195-.07m-17.734.418c.133.094.355.172.492.176.199 0 .18-.035-.109-.172-.457-.227-.699-.227-.383-.004m16.367.008c-.285.121-.316.16-.125.164.137 0 .359-.078.492-.172.297-.211.133-.207-.367.008m-15.25.254c.137.031.305.105.367.164s.234.102.375.098c.188 0 .145-.047-.164-.176-.23-.094-.512-.164-.625-.156-.141.012-.129.031.047.07m13.875.098c-.301.129-.324.16-.117.164.141.004.309-.043.375-.098s.23-.133.367-.164l.25-.055-.25-.004c-.137-.004-.418.066-.625.156m-12.687.25c.102.031.363.133.582.223a2.41 2.41 0 0 0 .766.164c.203 0 .441.078.527.176s.344.168.609.16l.453-.012-.477-.086c-.262-.047-.539-.145-.617-.219s-.316-.137-.523-.141-.523-.078-.695-.172-.426-.164-.562-.16c-.172.004-.191.023-.062.066m11.445.098a1.06 1.06 0 0 1-.539.172 1.46 1.46 0 0 0-.57.141c-.152.074-.469.176-.711.219-.43.082-.43.082-.062.094.207.008.535-.066.734-.16a1.83 1.83 0 0 1 .625-.18c.145 0 .492-.105.766-.23.328-.148.414-.223.25-.227-.137 0-.359.078-.492.172m-8.266.82a1.16 1.16 0 0 0 .625.152l.383-.016-.375-.051c-.207-.027-.43-.098-.492-.16a.42.42 0 0 0-.25-.102c-.074 0-.023.082.109.176m5.625-.07c-.062.059-.312.129-.555.156l-.437.047.445.02c.242.008.555-.059.688-.152s.184-.176.109-.176-.184.043-.25.105m-4.375.406c.133.102.445.18.688.172l.445-.016-.437-.086c-.242-.047-.551-.125-.687-.172-.246-.082-.246-.082-.008.102m3.16-.094c-.043.039-.262.113-.488.164l-.414.09.375.012c.383.012.797-.156.672-.273-.035-.035-.102-.031-.145.008m-52.941.234a.44.44 0 0 1 .273.258c.047.141.059.133.039-.035a.3.3 0 0 0-.273-.258c-.18-.016-.191-.008-.039.035m51.152.258c.145.133.223.133.52-.012l.352-.172-.52.012c-.441.012-.496.039-.352.172M12 98.141c0 .059.078.105.176.105s.207.066.242.148c.039.09.066.074.07-.047.008-.105-.102-.219-.238-.25s-.25-.016-.25.043m2 2.57c0 .059.078.105.176.105s.207.066.242.148c.039.09.066.074.07-.047.008-.105-.102-.219-.238-.25s-.25-.016-.25.043m1.125 1.32c0 .09.113.188.25.223s.25.051.25.039-.113-.109-.25-.223c-.191-.152-.25-.16-.25-.039" fill="rgb(95.686275%,52.941176%,41.568627%)"/><path d="M61.531 1.137h1.938c.531-.02.098-.039-.969-.039l-.969.039m-8.145.344c-.008.188-.105.27-.355.305l-.344.051.348.016c.355.02.543-.195.426-.477-.039-.082-.07-.035-.074.105m18.129-.004c-.023.332.227.492.609.387.297-.082.289-.09-.086-.098-.309-.012-.41-.074-.449-.277-.055-.25-.055-.25-.074-.012m2.402.395c.016.211.094.293.301.305.223.012.23.004.039-.035-.133-.027-.27-.168-.301-.309-.051-.211-.059-.207-.039.039m4.707 1.43c0 .047.109.086.242.086s.27-.039.301-.086-.078-.09-.242-.09-.301.043-.301.09m1.141.109c-.02.418.137.488.633.277l.414-.176-.457.066c-.41.059-.465.035-.516-.207-.051-.254-.059-.254-.074.039m2.363.883c-.004.309.305.348.676.086.277-.199.168-.23-.18-.055-.184.09-.266.07-.363-.09-.117-.184-.129-.176-.133.059m1.137.18c-.016.355.285.551.52.332.105-.098.07-.133-.125-.133a.29.29 0 0 1-.32-.262c-.047-.223-.059-.215-.074.063m2.02.813c.016.465.199.563.473.254.145-.16.133-.18-.07-.148-.16.031-.262-.051-.324-.25-.078-.242-.09-.219-.078.145m.73.324c-.031.504-.164.816-.344.816-.094 0-.172.078-.172.176s-.086.176-.187.176c-.133 0-.187.121-.187.406s-.055.41-.187.41c-.102 0-.187.078-.187.176s-.086.176-.187.176c-.125 0-.187.117-.187.348s-.062.352-.187.352-.187.117-.187.352c0 .273-.055.352-.25.352-.168 0-.25.074-.25.23 0 .133-.082.234-.187.234-.125 0-.187.117-.187.352s-.062.352-.187.352c-.102 0-.187.078-.187.172s-.086.176-.187.176c-.125 0-.187.117-.187.352s-.062.352-.187.352c-.133 0-.187.121-.187.406s-.055.41-.187.41c-.102 0-.187.078-.187.176s-.086.176-.187.176c-.125 0-.187.117-.187.352 0 .27-.055.348-.25.348s-.25.078-.25.352c0 .234-.062.352-.187.352-.102 0-.187.078-.187.176s-.086.172-.187.172c-.133 0-.187.125-.187.41s-.055.41-.187.41c-.102 0-.187.078-.187.176s-.086.172-.187.172c-.125 0-.187.117-.187.352s-.062.352-.187.352-.187.117-.187.352-.062.348-.187.348c-.105 0-.187.105-.187.234 0 .156-.082.234-.25.234-.195 0-.25.078-.25.352 0 .234-.062.348-.187.348-.102 0-.187.082-.187.176s-.086.176-.187.176c-.125 0-.187.117-.187.352s-.062.352-.187.352c-.133 0-.187.121-.187.406s-.055.41-.187.41c-.102 0-.187.078-.187.176s-.086.176-.187.176c-.125 0-.187.117-.187.348s-.062.352-.187.352c-.102 0-.187.078-.187.176s-.109.176-.25.176c-.195 0-.25.078-.25.352 0 .23-.062.348-.187.348-.133 0-.187.125-.187.41s-.055.41-.187.41c-.102 0-.187.078-.187.172s-.086.176-.187.176c-.125 0-.187.117-.187.352s-.062.352-.187.352c-.102 0-.187.078-.187.176s-.086.172-.187.172c-.133 0-.187.125-.187.41s-.055.41-.187.41c-.125 0-.187.117-.187.352 0 .27-.055.348-.25.348-.141 0-.25.078-.25.176s-.086.176-.187.176c-.125 0-.187.117-.187.352s-.062.348-.187.348c-.102 0-.187.082-.187.176 0 .141.18.176.883.176 1.5 0 1.367-.473 1.367 4.902 0 5.594.234 5.027-2.07 5.027h-1.68l-.008-1.898c-.004-1.254-.047-1.809-.121-1.633-.062.145-.172.262-.242.262s-.129.121-.129.27-.156.387-.371.555c-.203.156-.371.367-.375.473-.023.832-1.504.992-1.504.164 0-.098-.047-.176-.105-.176s-.176-.133-.27-.293c-.184-.32-.5-.395-.5-.117 0 .098-.086.176-.187.176-.152 0-.187.199-.187 1.109v1.109h-.562c-.418 0-.562.047-.562.176 0 .098-.109.176-.25.176-.168 0-.25.078-.25.234 0 .129-.082.234-.187.234-.125 0-.187.113-.187.348s-.062.352-.187.352-.187.117-.187.352-.062.348-.187.348c-.102 0-.187.082-.187.176s-.086.176-.187.176c-.133 0-.187.125-.187.41s-.055.406-.187.406c-.102 0-.187.082-.187.176 0 .156 1.367.176 11.563.176h11.563v-.406c0-.289.055-.41.188-.41.125 0 .188-.117.188-.352 0-.273.055-.352.25-.352.141 0 .25-.078.25-.172s.086-.176.188-.176c.125 0 .188-.117.188-.352s.063-.352.188-.352c.133 0 .188-.121.188-.406s.055-.41.188-.41c.102 0 .188-.078.188-.176s.086-.176.188-.176c.125 0 .188-.117.188-.352s.063-.348.188-.348c.102 0 .188-.078.188-.176s.086-.176.188-.176c.125 0 .188-.117.188-.352 0-.27.055-.348.25-.348.203 0 .25-.078.25-.41 0-.285.055-.41.188-.41.102 0 .188-.078.188-.176s.086-.172.188-.172c.125 0 .188-.117.188-.352s.063-.352.188-.352c.102 0 .188-.078.188-.176s.086-.176.188-.176c.133 0 .188-.121.188-.406s.055-.41.188-.41c.125 0 .188-.117.188-.352s.063-.348.188-.348c.102 0 .188-.082.188-.176s.109-.176.25-.176c.195 0 .25-.078.25-.352 0-.234.063-.352.188-.352.102 0 .188-.078.188-.172s.086-.176.188-.176c.133 0 .188-.125.188-.41s.055-.41.188-.41c.125 0 .188-.117.188-.348s.063-.352.188-.352c.102 0 .188-.078.188-.176s.086-.176.188-.176c.125 0 .188-.117.188-.352s.063-.348.188-.348c.105 0 .188-.105.188-.234 0-.156.082-.234.25-.234.195 0 .25-.078.25-.352 0-.23.063-.348.188-.348s.188-.117.188-.352.063-.352.188-.352c.102 0 .188-.078.188-.176s.086-.172.188-.172c.133 0 .188-.125.188-.41s.055-.41.188-.41c.102 0 .188-.078.188-.176s.086-.176.188-.176c.125 0 .188-.113.188-.348s.063-.352.188-.352.188-.117.188-.352c0-.27.055-.348.25-.348.141 0 .25-.078.25-.176s.086-.176.188-.176c.133 0 .188-.125.188-.41s.055-.406.188-.406c.125 0 .188-.117.188-.352s.063-.352.188-.352c.102 0 .188-.078.188-.176s.086-.176.188-.176c.125 0 .188-.117.188-.348s.063-.352.188-.352c.105 0 .188-.105.188-.234 0-.156.082-.234.25-.234.195 0 .25-.078.25-.348 0-.234.063-.352.188-.352s.188-.117.188-.352.063-.352.188-.352c.102 0 .188-.078.188-.172s.086-.176.188-.176c.133 0 .188-.125.188-.41s.055-.41.188-.41c.102 0 .188-.078.188-.176s.086-.172.188-.172c.141 0 .188-.137.188-.527s-.047-.527-.187-.527c-.105 0-.187-.102-.187-.23s-.047-.234-.105-.234-.211-.211-.344-.465-.281-.469-.332-.469-.094-.105-.094-.234c0-.277-.277-.309-.5-.059-.086.098-.195.176-.242.176-.148 0-.883-1.016-.883-1.219 0-.102-.055-.184-.125-.184s-.125-.102-.125-.223c0-.246-.242-.262-.535-.035-.312.242-1.215-.562-1.215-1.086 0-.129-.098-.152-.395-.098-.352.066-.387.051-.328-.16.051-.187.016-.227-.168-.18-.176.039-.234-.008-.234-.191 0-.277-.242-.324-.484-.102-.191.18-.492-.141-.602-.645-.074-.336-.27-.41-.504-.187-.223.207-.504.035-.594-.355-.086-.352-.355-.652-.309-.344s-.012.461-.145.387c-.074-.043-.109-.176-.074-.297.051-.184.023-.199-.176-.102s-.262.07-.363-.176c-.125-.309-.305-.383-.437-.176-.125.184-.34-.008-.273-.242.039-.145.004-.191-.113-.148-.105.035-.223-.051-.293-.215l-.117-.273-.008.262c-.004.145-.066.262-.141.262s-.102-.098-.059-.223c.063-.184.027-.211-.18-.16s-.254.004-.254-.242c0-.277-.027-.293-.32-.187-.426.148-.43.148-.43-.113 0-.125-.055-.262-.125-.301s-.125.063-.125.234-.055.273-.121.238-.09-.141-.051-.23c.039-.102-.016-.152-.156-.141-.133.008-.25-.094-.309-.277l-.09-.289-.012.32c-.012.32-.18.426-.324.203-.043-.062-.02-.117.055-.117S89 7.07 89 7.004s-.098-.105-.219-.086c-.145.02-.23-.055-.258-.223-.035-.227-.078-.246-.363-.145-.336.121-.527 0-.535-.328 0-.094-.121-.121-.363-.074-.312.059-.375.027-.422-.207-.051-.25-.059-.25-.074.047-.008.176-.078.32-.156.32s-.109-.102-.074-.234c.051-.172.004-.234-.164-.234-.137 0-.25-.102-.281-.262-.051-.246-.059-.246-.074.031m2.359 1.148c0 .152-.148.25-.27.184-.129-.078-.02-.281.152-.281.063 0 .117.043.117.098m15.457 10.16c-.195.203-.164.25.559.848l.93.781c.09.078.207.145.266.145s.215.156.352.352c.242.336.602.457.742.246.078-.117-.48-.715-.672-.715-.074 0-.133-.078-.133-.176s-.086-.176-.187-.176-.187-.078-.187-.172-.086-.176-.187-.176-.187-.105-.187-.234-.07-.238-.156-.238-.293-.16-.461-.352c-.363-.406-.402-.414-.676-.133m4.758 4.816c.043.152.137.219.25.176.098-.035.211-.062.25-.062s-.004-.082-.09-.176c-.23-.262-.488-.223-.41.063m-31.434 5.68l1.219.074v6.273h4.133l.121.301c.18.438.156 2.891-.027 3.063-.258.242-7.551.199-7.652-.043-.16-.395-.082-9.605.082-9.668.227-.086.75-.086 2.125 0m9.656 13.695l.875.07.039 1.109c.031.977-.02 1.547-.305 3.273l-.066.406.215-.348c.18-.293.219-.699.227-2.457l.016-2.102-1.875-.023.875.07m.406 7.488l-.16 1.109-.066.469.195-.406c.129-.262.184-.648.16-1.109l-.035-.703-.094.641m-84.594-.371c0 .078-.125.145-.281.152-.23.012-.242.023-.051.07.25.059.559-.145.418-.277-.047-.043-.086-.02-.086.055m84.273 3.992c-.012.418-.086.961-.156 1.211-.16.531-.059.719.133.246.074-.18.117-.75.094-1.27-.043-.914-.043-.922-.07-.187m-20.523-.344l-9.594.094c-1.27.016-1.531.047-1.531.191 0 .098-.086.176-.187.176-.133 0-.187.125-.187.41s-.055.406-.187.406c-.102 0-.187.082-.187.176s-.086.176-.187.176c-.125 0-.187.117-.187.352 0 .273-.055.352-.25.352-.141 0-.25.078-.25.172s-.086.176-.187.176c-.125 0-.187.117-.187.352s-.062.352-.187.352c-.133 0-.187.121-.187.406s-.055.41-.187.41c-.102 0-.187.078-.187.176s-.086.176-.187.176c-.125 0-.187.117-.187.352s-.062.348-.187.348c-.102 0-.187.078-.187.176s-.086.176-.187.176c-.133 0-.187.125-.187.41 0 .328-.047.406-.25.406-.195 0-.25.078-.25.352 0 .234-.062.352-.187.352-.102 0-.187.078-.187.176s-.086.176-.187.176c-.125 0-.187.113-.187.348s-.062.352-.187.352c-.102 0-.187.078-.187.176s-.086.176-.187.176c-.133 0-.187.121-.187.406s-.055.41-.187.41c-.125 0-.187.117-.187.352 0 .219-.062.348-.172.348-.371 0-.488 2.027-.133 2.27.16.109.211.508.27 2.152.039 1.105.121 2.043.18 2.074s.105.391.105.793v.734l5.27.078c5.711.086 10.801.082 10.449-.004-.328-.078-.266-.23.156-.367.207-.066.375-.18.375-.246s.086-.121.188-.121.188-.082.188-.176.086-.176.188-.176.188-.078.188-.176.086-.176.188-.176.188-.102.188-.234.082-.23.188-.23.188-.082.188-.176c0-.125.133-.176.438-.176s.438-.055.438-.176c0-.098.086-.176.188-.176.125 0 .188-.117.188-.352s.063-.348.188-.348c.102 0 .188-.082.188-.176s.086-.176.188-.176c.133 0 .188-.125.188-.41s.055-.406.188-.406c.125 0 .188-.117.188-.352s.063-.352.188-.352c.102 0 .188-.074.188-.164 0-.125.32-.176 1.406-.227.773-.035 1.66-.117 1.969-.18.508-.102.469-.109-.375-.066-.516.027-4.902.063-9.75.082l-8.812.031-.039-.699c-.02-.383-.105-.738-.187-.785-.164-.094-.305-1.586-.324-3.445-.008-.656-.066-1.223-.137-1.262-.203-.121-.145-.594.102-.801.211-.176 1.125-.184 11.82-.066l11.762.066c.125-.047.184-.48.223-1.676.031-.887.133-2.039.223-2.555.242-1.387.297-1.34-1.594-1.312l-9.66.098m10.875 3.617v1.633h-1.187c-.973 0-1.187-.031-1.187-.176 0-.094.086-.172.188-.172.125 0 .188-.117.188-.352 0-.273.055-.352.25-.352.141 0 .25-.078.25-.176s.086-.176.188-.176c.133 0 .188-.121.188-.406s.055-.41.188-.41c.125 0 .188-.117.188-.352s.063-.348.188-.348c.102 0 .188-.082.188-.176s.086-.176.188-.176c.156 0 .188.258.188 1.637m9.164 1.168c0 .352.023.496.051.32s.027-.465 0-.645-.051-.031-.051.324m-.375 3.738c0 .418.023.586.051.379s.027-.551 0-.762-.051-.035-.051.383m-.375 4.262c.004.449.023.621.051.379a4.11 4.11 0 0 0 0-.82c-.027-.207-.051-.008-.051.441m-9.039.387l.059.898.039-.805c.023-.445-.004-.848-.059-.902s-.074.313-.039.809m8.668 3.352c0 .516.023.711.047.438s.027-.695 0-.937-.047-.012-.047.5m-9.004.41c0 .352.023.496.051.32a2.51 2.51 0 0 0 0-.641c-.027-.18-.051-.035-.051.32m8.863 1.285c0 .223.027.316.059.203s.031-.297 0-.406-.059-.023-.059.203m-83.625.117c0 .223.027.316.059.203a.91.91 0 0 0 0-.41c-.031-.109-.059-.02-.059.207m66.406-.004l2.492.063.086.293c.074.242.09.25.102.051.023-.488-.164-.52-2.73-.496l-2.445.027 2.496.063m16.98 1.93c.004.449.023.621.051.379a4.11 4.11 0 0 0 0-.82c-.027-.207-.051-.008-.051.441m-9.004.82c0 .32.027.438.055.262a2.1 2.1 0 0 0 0-.586c-.031-.145-.055 0-.055.324m-5.621.641c0 .355.023.5.051.32a2.51 2.51 0 0 0 0-.641c-.027-.176-.051-.031-.051.32m-20.625 1.953c.043 1.273.137 2.496.207 2.719s.129.953.129 1.613v1.207l.344-.336c.398-.383 1.477-1.199 1.586-1.199.043 0 .242-.156.445-.348s.426-.352.496-.352.129-.047.129-.102.238-.254.531-.437.684-.469.871-.629c.609-.523.707-.586.969-.586.141 0 .254.063.254.137s.031.105.074.07-.004-.191-.094-.344-.219-1.008-.289-1.965l-.129-1.695-5.602-.062.078 2.309m35.105-1.367a5.34 5.34 0 0 1-.086.699l-.066.293.137-.289c.074-.156.113-.473.086-.699l-.047-.414-.023.41m-44.395.23c0 .273-.055.352-.25.352s-.25.078-.25.352c0 .234-.062.352-.187.352-.102 0-.187.078-.187.172s-.086.176-.187.176c-.133 0-.187.125-.187.41s-.055.41-.187.41c-.102 0-.187.078-.187.176s-.086.172-.187.172c-.125 0-.187.117-.187.352s-.062.352-.187.352-.187.117-.187.352-.062.348-.187.348c-.105 0-.187.105-.187.234 0 .156-.082.234-.25.234-.195 0-.25.078-.25.352 0 .23-.062.348-.187.348-.102 0-.187.082-.187.176s-.086.176-.187.176c-.125 0-.187.117-.187.352s-.062.352-.187.352c-.133 0-.187.121-.187.406s-.055.41-.187.41c-.102 0-.187.078-.187.176s-.086.176-.187.176c-.125 0-.187.113-.187.348 0 .273-.055.352-.25.352s-.25.078-.25.352c0 .234-.062.348-.187.348-.102 0-.187.082-.187.176s-.086.176-.187.176c-.133 0-.187.125-.187.41s-.055.41-.187.41c-.102 0-.187.078-.187.172s-.086.176-.187.176c-.125 0-.187.117-.187.352s-.062.352-.187.352-.187.117-.187.348-.062.352-.187.352c-.105 0-.187.105-.187.234 0 .156-.082.234-.25.234-.195 0-.25.078-.25.348 0 .234-.062.352-.187.352-.102 0-.187.078-.187.176s-.086.176-.187.176c-.125 0-.187.117-.187.352s-.062.348-.187.348c-.133 0-.187.125-.187.41s-.055.41-.187.41c-.102 0-.187.078-.187.176s-.086.172-.187.172c-.125 0-.187.117-.187.352s-.062.352-.187.352c-.102 0-.187.078-.187.176s-.109.176-.25.176c-.203 0-.25.078-.25.406 0 .285-.055.41-.187.41-.125 0-.187.117-.187.352s-.062.348-.187.348c-.102 0-.187.082-.187.176s-.086.176-.187.176c-.125 0-.187.117-.187.352s-.062.352-.187.352c-.102 0-.187.078-.187.172s-.086.176-.187.176c-.133 0-.187.125-.187.41s-.055.41-.187.41c-.125 0-.187.113-.187.348 0 .273-.055.352-.25.352-.141 0-.25.078-.25.176s-.086.176-.187.176c-.125 0-.187.117-.187.348s-.062.352-.187.352c-.105 0-.187.105-.187.234s-.082.234-.187.234c-.125 0-.187.117-.187.352s-.062.348-.187.348-.187.117-.187.352-.062.352-.187.352c-.102 0-.187.078-.187.176s-.086.172-.187.172c-.133 0-.187.125-.187.41 0 .332-.047.41-.25.41-.195 0-.25.078-.25.348 0 .234-.062.352-.187.352-.102 0-.187.078-.187.176s-.086.176-.187.176-.187.078-.187.176-.086.176-.187.176-.187.078-.187.172-.086.176-.187.176-.187.082-.187.176-.086.176-.187.176-.187.105-.187.234c0 .168-.082.234-.293.234-.176 0-.531.211-.887.523-.328.289-.648.527-.707.527s-.113.074-.113.16-.137.195-.305.234-.562.305-.875.586c-.695.621-.828.676-1.211.492-.5-.238-.754-.312-.672-.187.043.063.16.117.258.117s.18.078.18.176.086.172.188.172.188.055.188.117c0 .254.621-.035 1.246-.582.109-.098.418-.332.688-.527s.656-.484.871-.648.891-.664 1.508-1.109 1.18-.867 1.25-.937.32-.254.563-.406a6.54 6.54 0 0 0 .688-.496c.137-.121.602-.461 1.031-.758s.781-.578.781-.633.063-.094.141-.094.207-.07.281-.16.871-.676 1.766-1.309 1.68-1.211 1.75-1.285.633-.492 1.25-.934l1.188-.875c.035-.039.711-.535 1.5-1.105s1.484-1.105 1.539-1.187.176-.152.27-.152.188-.043.211-.098.438-.375.918-.723c.871-.625 1.695-1.254 2.074-1.578.109-.094.262-.172.344-.172s.145-.039.145-.09.398-.375.891-.723.965-.707 1.059-.793.23-.129.297-.09c.156.09.023-.637-.152-.844-.07-.082-.148-.977-.18-1.988-.039-1.184-.121-1.996-.234-2.281-.125-.309-.18-.957-.18-2.176 0-1.437-.031-1.75-.187-1.805s-.187-.391-.187-2c0-1.637-.027-1.93-.187-1.93-.125 0-.187.117-.187.348m44.156 1.344c0 .258.027.352.059.203a1.23 1.23 0 0 0-.004-.465c-.031-.113-.055.008-.055.262m-9 .938c0 .254.027.348.059.203s.027-.355-.004-.469-.055.008-.055.266m-73.133-.223c.117.035.238.176.27.316.051.215.059.207.039-.035-.012-.199-.102-.301-.27-.316-.18-.016-.191-.004-.039.035m67.508 1.039c0 .258.027.348.059.203s.027-.355-.004-.469-.055.008-.055.266m-2.531 1.293c-.422.223-.121.211.328-.008.199-.094.273-.168.172-.164s-.328.086-.5.172m8.027.285c0 .223.027.316.059.203a.91.91 0 0 0 0-.41c-.031-.109-.059-.02-.059.207m8.875.117c0 .223.027.316.059.203a.91.91 0 0 0 0-.41c-.031-.109-.059-.02-.059.207m-81.09.195a.77.77 0 0 1 .352.195c.07.09.086.074.055-.043-.027-.094-.187-.184-.352-.195-.242-.016-.25-.008-.055.043m80.973.738c0 .289.023.406.055.262a1.68 1.68 0 0 0 0-.523c-.031-.145-.055-.027-.055.262m-34.25 1.578c0 .32.027.438.055.262a2.1 2.1 0 0 0 0-.586c-.031-.145-.055 0-.055.324m-45.973.254a.77.77 0 0 1 .352.195c.07.09.086.074.055-.043-.027-.094-.187-.184-.352-.195-.242-.016-.25-.008-.055.043m71.082.406c-.016.414-.074.563-.238.602-.203.051-.203.055.004.066.285.02.371-.195.309-.762-.051-.434-.051-.434-.074.094m9.016.215c0 .289.023.406.055.262a1.68 1.68 0 0 0 0-.523c-.031-.145-.055-.027-.055.262m-79.262 1.59a.44.44 0 0 1 .273.258c.047.141.059.133.039-.035a.3.3 0 0 0-.273-.258c-.18-.016-.191-.008-.039.035m65.352.105c-.172.09-.258.164-.187.164s.266-.074.438-.164.258-.168.188-.168-.266.074-.437.168m-13.102.637c.18.055.406.133.5.176s.055-.004-.078-.105a.9.9 0 0 0-.5-.172c-.207.008-.191.027.078.102m26.641 1.523c0 .352.023.496.051.32a2.51 2.51 0 0 0 0-.641c-.027-.18-.051-.035-.051.32m-21.383-.035a1.18 1.18 0 0 0 .438 0c.121-.031.023-.055-.219-.055s-.34.023-.219.055m-56.305.703c.211.035.27.105.215.246-.062.148-.047.164.066.059.199-.187.035-.395-.297-.375-.262.016-.262.02.016.07m36.063.969c0 .352.023.496.051.32s.027-.465 0-.645-.051-.031-.051.324m41.25 2.336c0 .418.023.586.051.379s.027-.551 0-.762-.051-.035-.051.383m-75.828-.043c.152.031.301.145.336.254.047.141.055.133.039-.035-.02-.16-.125-.242-.336-.254-.262-.016-.27-.012-.039.035m.352.711a1.43 1.43 0 0 1 .438.191c.164.113.164.105.016-.07a.6.6 0 0 0-.437-.191c-.254.012-.254.016-.016.07m.543.742c.211.078.273.168.211.313-.062.16-.047.172.07.063.191-.176-.059-.504-.371-.492-.133.004-.098.043.09.117m.371.773c.211.039.27.105.215.25-.062.148-.047.16.066.059.199-.187.035-.395-.297-.375-.262.016-.262.02.016.066m41.898 1.262c.172.09.367.168.438.168s-.016-.078-.187-.168-.367-.168-.437-.168.016.074.188.168m-40.562 1.227c.043.066.152.117.25.117a.26.26 0 0 1 .227.176c.047.141.055.137.043-.016-.012-.105-.148-.238-.309-.293-.184-.062-.258-.055-.211.016m57.813.648c-.301.109-.359.156-.18.164.141.004.367-.07.5-.168.285-.199.258-.199-.32.004m-9.195.336c.133.102.332.18.438.176.168-.008.168-.02.008-.074-.102-.039-.301-.113-.437-.176-.246-.105-.246-.102-.008.074m8.008.012c-.207.09-.289.16-.187.164s.328-.074.5-.168c.395-.211.184-.207-.312.004m-5.453.703c.23.094.453.168.5.164.16-.008-.555-.336-.734-.336-.102 0 0 .078.234.172m2.891-.004c-.172.09-.258.164-.187.164s.266-.074.438-.164.258-.168.188-.168-.266.074-.437.168m-52.875.059c0 .063.082.113.18.113s.242.094.309.207c.109.172.129.176.133.02.004-.105-.137-.246-.309-.32-.191-.082-.312-.09-.312-.02m.789 1.145c.344.141.457.254.418.402-.031.113-.008.176.055.137.32-.184-.312-.766-.812-.746-.074.004.078.098.34.207m.723 1.055c-.008.086.102.184.238.219s.25.109.25.172.059.074.129.035c.18-.105.023-.289-.25-.289-.129 0-.262-.066-.297-.148-.047-.109-.066-.105-.07.012M14 100.488c0 .066.117.145.262.18.176.047.238.133.199.281-.035.121-.012.191.051.152.219-.125.105-.461-.199-.594-.195-.086-.312-.09-.312-.02m.75 1.148c0 .066.098.156.219.199.402.145.691.477.609.699-.07.184-.055.18.109-.02.176-.207.164-.25-.098-.465-.43-.355-.84-.555-.84-.414" fill="rgb(95.686275%,58.039216%,49.803922%)"/></svg>