<?xml version="1.0" encoding="UTF-8"?>
<svg xmlns="http://www.w3.org/2000/svg" xmlns:xlink="http://www.w3.org/1999/xlink" width="50pt" height="50pt" viewBox="0 0 50 50" version="1.1">
<g id="surface1">
<path style=" stroke:none;fill-rule:evenodd;fill:rgb(96.470588%,96.470588%,96.470588%);fill-opacity:1;" d="M 0 25 L 0 50 L 50 50 L 50 0 L 0 0 L 0 25 M 27.003906 0.25 C 37.816406 1.078125 46.964844 9.042969 49.292969 19.648438 C 52.507812 34.296875 42.160156 48.425781 27.226562 49.78125 C 14.046875 50.972656 2.167969 41.492188 0.402344 28.375 C -1.714844 12.660156 11.171875 -0.960938 27.003906 0.25 M 19.398438 10.007812 C 15.039062 10.191406 12.464844 11.574219 11.027344 14.503906 C 10.0625 16.464844 9.976562 17.347656 9.976562 25 C 9.976562 30.640625 9.992188 31.277344 10.179688 32.648438 C 10.667969 36.265625 12.953125 38.832031 16.40625 39.648438 C 17.765625 39.96875 17.90625 39.976562 24.976562 39.976562 L 31.425781 39.976562 L 32.320312 39.859375 C 36.8125 39.277344 39.335938 36.695312 39.886719 32.125 C 40.023438 30.980469 40.023438 19.019531 39.886719 17.875 C 39.339844 13.335938 36.769531 10.683594 32.394531 10.152344 C 30.828125 9.960938 22.632812 9.871094 19.398438 10.007812 M 29.550781 12.699219 C 31.976562 12.769531 32.785156 12.871094 33.710938 13.207031 C 35.800781 13.96875 36.960938 15.652344 37.195312 18.273438 C 37.46875 21.285156 37.367188 31.230469 37.050781 32.773438 C 36.5 35.445312 34.726562 36.917969 31.738281 37.195312 C 29.710938 37.386719 20.140625 37.382812 18.226562 37.195312 C 14.914062 36.871094 13.140625 35.109375 12.804688 31.820312 C 12.644531 30.242188 12.605469 21.457031 12.746094 18.976562 C 12.992188 14.707031 14.777344 12.960938 19.117188 12.75 C 21.105469 12.652344 26.921875 12.625 29.550781 12.699219 M 32.398438 15.28125 C 30.617188 15.925781 30.945312 18.585938 32.832031 18.78125 C 34.789062 18.984375 35.574219 16.230469 33.808594 15.363281 C 33.453125 15.191406 32.761719 15.148438 32.398438 15.28125 M 24.550781 17.28125 C 17.859375 17.792969 14.839844 25.746094 19.546875 30.453125 C 24.398438 35.304688 32.699219 31.863281 32.699219 25 C 32.699219 20.558594 28.890625 16.953125 24.550781 17.28125 M 26.007812 20.097656 C 29.933594 20.902344 31.363281 25.808594 28.484375 28.582031 C 25.636719 31.332031 20.894531 29.878906 20.097656 26.007812 C 19.371094 22.488281 22.488281 19.371094 26.007812 20.097656 "/>
<path style=" stroke:none;fill-rule:evenodd;fill:rgb(1.568627%,1.568627%,1.568627%);fill-opacity:1;" d="M 22.925781 0.257812 C 5.535156 1.628906 -5.015625 20.449219 2.804688 36.148438 C 10.363281 51.320312 30.628906 54.570312 42.625 42.53125 C 56.199219 28.910156 49.855469 5.917969 31.148438 0.933594 C 28.867188 0.324219 25.542969 0.0507812 22.925781 0.257812 M 30.375 10 C 34.105469 10.160156 35.921875 10.820312 37.679688 12.664062 C 38.949219 13.996094 39.605469 15.539062 39.886719 17.875 C 40.023438 19.019531 40.023438 30.980469 39.886719 32.125 C 39.335938 36.695312 36.8125 39.277344 32.320312 39.859375 L 31.425781 39.976562 L 24.976562 39.976562 C 17.90625 39.976562 17.765625 39.96875 16.40625 39.648438 C 12.953125 38.832031 10.667969 36.265625 10.179688 32.648438 C 9.992188 31.277344 9.976562 30.640625 9.976562 25 C 9.976562 18.625 10.015625 17.730469 10.378906 16.292969 C 11.261719 12.773438 13.78125 10.632812 17.601562 10.152344 C 19.085938 9.964844 27.261719 9.867188 30.375 10 M 20.851562 12.683594 C 17.328125 12.75 15.945312 13.0625 14.746094 14.070312 C 13.449219 15.15625 12.886719 16.53125 12.746094 18.976562 C 12.605469 21.457031 12.644531 30.242188 12.804688 31.820312 C 13.140625 35.109375 14.914062 36.871094 18.226562 37.195312 C 20.140625 37.382812 29.710938 37.386719 31.738281 37.195312 C 35.105469 36.882812 36.890625 35.09375 37.195312 31.726562 C 37.46875 28.714844 37.367188 18.769531 37.050781 17.226562 C 36.5 14.570312 34.742188 13.09375 31.773438 12.800781 C 30.566406 12.679688 24.511719 12.617188 20.851562 12.683594 M 33.808594 15.363281 C 35.292969 16.089844 35.054688 18.320312 33.449219 18.730469 C 31.816406 19.144531 30.566406 17.253906 31.574219 15.890625 C 32.058594 15.234375 33.058594 14.996094 33.808594 15.363281 M 26.101562 17.355469 C 31.761719 18.121094 34.605469 24.742188 31.300781 29.460938 C 28.277344 33.78125 21.679688 33.773438 18.691406 29.449219 C 14.824219 23.863281 19.371094 16.449219 26.101562 17.355469 M 23.949219 20.097656 C 20.03125 20.9375 18.648438 25.8125 21.535156 28.605469 C 24.324219 31.300781 29.019531 29.898438 29.878906 26.113281 C 30.683594 22.550781 27.515625 19.335938 23.949219 20.097656 "/>
</g>
</svg>
