<svg xmlns="http://www.w3.org/2000/svg" width="66.667" height="66.667" viewBox="0 0 50 50" fill-rule="evenodd" xmlns:v="https://vecta.io/nano"><path d="M0 25v25h50V0H0v25M27.004.25c10.813.828 19.961 8.793 22.289 19.398 3.215 14.648-7.133 28.777-22.066 30.133C14.047 50.973 2.168 41.492.402 28.375-1.715 12.66 11.172-.961 27.004.25m-7.605 9.758c-4.359.184-6.934 1.566-8.371 4.496-.965 1.961-1.051 2.844-1.051 10.496 0 5.641.016 6.277.203 7.648.488 3.617 2.773 6.184 6.227 7 1.359.32 1.5.328 8.57.328h6.449l.895-.117c4.492-.582 7.016-3.164 7.566-7.734.137-1.145.137-13.105 0-14.25-.547-4.539-3.117-7.191-7.492-7.723-1.566-.191-9.762-.281-12.996-.145m10.152 2.691c2.426.07 3.234.172 4.16.508 2.09.762 3.25 2.445 3.484 5.066.273 3.012.172 12.957-.145 14.5-.551 2.672-2.324 4.145-5.312 4.422-2.027.191-11.598.188-13.512 0-3.313-.324-5.086-2.086-5.422-5.375-.16-1.578-.199-10.363-.059-12.844.246-4.27 2.031-6.016 6.371-6.227 1.988-.098 7.805-.125 10.434-.051m2.848 2.582c-1.781.645-1.453 3.305.434 3.5 1.957.203 2.742-2.551.977-3.418-.355-.172-1.047-.215-1.41-.082m-7.848 2c-6.691.512-9.711 8.465-5.004 13.172 4.852 4.852 13.152 1.41 13.152-5.453 0-4.441-3.809-8.047-8.148-7.719m1.457 2.816c3.926.805 5.355 5.711 2.477 8.484-2.848 2.75-7.59 1.297-8.387-2.574-.727-3.52 2.391-6.637 5.91-5.91" fill="rgb(96.470588%,96.470588%,96.470588%)"/><path d="M22.926.258C5.535 1.629-5.016 20.449 2.805 36.148c7.559 15.172 27.824 18.422 39.82 6.383C56.199 28.91 49.855 5.918 31.148.934 28.867.324 25.543.051 22.926.258M30.375 10c3.73.16 5.547.82 7.305 2.664 1.27 1.332 1.926 2.875 2.207 5.211.137 1.145.137 13.105 0 14.25-.551 4.57-3.074 7.152-7.566 7.734l-.895.117h-6.449c-7.07 0-7.211-.008-8.57-.328-3.453-.816-5.738-3.383-6.227-7-.187-1.371-.203-2.008-.203-7.648 0-6.375.039-7.27.402-8.707.883-3.52 3.402-5.66 7.223-6.141 1.484-.187 9.66-.285 12.773-.152m-9.523 2.684c-3.523.066-4.906.379-6.105 1.387-1.297 1.086-1.859 2.461-2 4.906-.141 2.48-.102 11.266.059 12.844.336 3.289 2.109 5.051 5.422 5.375 1.914.188 11.484.191 13.512 0 3.367-.312 5.152-2.102 5.457-5.469.273-3.012.172-12.957-.145-14.5-.551-2.656-2.309-4.133-5.277-4.426-1.207-.121-7.262-.184-10.922-.117m12.957 2.68c1.484.727 1.246 2.957-.359 3.367-1.633.414-2.883-1.477-1.875-2.84.484-.656 1.484-.895 2.234-.527m-7.707 1.992c5.66.766 8.504 7.387 5.199 12.105-3.023 4.32-9.621 4.313-12.609-.012-3.867-5.586.68-13 7.41-12.094m-2.152 2.742c-3.918.84-5.301 5.715-2.414 8.508 2.789 2.695 7.484 1.293 8.344-2.492.805-3.562-2.363-6.777-5.93-6.016" fill="rgb(1.568627%,1.568627%,1.568627%)"/></svg>