<?xml version="1.0" encoding="UTF-8"?>
<svg xmlns="http://www.w3.org/2000/svg" xmlns:xlink="http://www.w3.org/1999/xlink" width="50pt" height="50pt" viewBox="0 0 50 50" version="1.1">
<g id="surface1">
<path style=" stroke:none;fill-rule:evenodd;fill:rgb(98.431373%,98.039216%,98.039216%);fill-opacity:1;" d="M 0 25 L 0 50 L 50 50 L 50 0 L 0 0 L 0 25 M 45.675781 1.015625 C 47.511719 1.558594 48.753906 2.804688 49.257812 4.601562 L 49.375 5.023438 L 49.375 25.199219 C 49.375 44.316406 49.371094 45.394531 49.285156 45.738281 C 48.816406 47.675781 47.449219 49.019531 45.449219 49.507812 C 45.222656 49.5625 41.726562 49.574219 25.023438 49.574219 L 4.875 49.574219 L 4.425781 49.457031 C 2.507812 48.957031 1.058594 47.386719 0.75 45.484375 C 0.679688 45.042969 0.679688 5.503906 0.75 5.007812 C 1.027344 3.046875 2.601562 1.417969 4.648438 0.976562 C 5.210938 0.855469 45.261719 0.894531 45.675781 1.015625 M 17.121094 15.863281 C 17.109375 15.898438 17.105469 16.882812 17.113281 18.050781 L 17.125 20.175781 L 18.710938 20.1875 L 20.300781 20.203125 L 20.300781 24.738281 C 20.296875 29.660156 20.304688 29.523438 20.019531 30.050781 C 19.84375 30.371094 19.472656 30.710938 19.210938 30.789062 C 18.929688 30.875 14.570312 30.875 14.28125 30.789062 C 13.816406 30.652344 13.339844 29.972656 13.238281 29.300781 C 13.210938 29.121094 13.179688 28.945312 13.171875 28.914062 C 13.152344 28.847656 10.246094 28.816406 10.078125 28.878906 C 9.890625 28.953125 10.078125 30.441406 10.402344 31.414062 C 11.015625 33.265625 12.171875 34.570312 13.628906 35.058594 C 14.171875 35.242188 19.328125 35.242188 19.871094 35.058594 C 21.625 34.472656 22.929688 32.722656 23.382812 30.351562 C 23.46875 29.90625 23.476562 29.433594 23.476562 22.851562 L 23.476562 15.824219 L 20.3125 15.8125 C 17.804688 15.800781 17.140625 15.8125 17.121094 15.863281 M 30.925781 15.851562 C 29.3125 15.878906 29.265625 15.882812 28.914062 16.011719 C 26.996094 16.695312 25.621094 18.859375 25.398438 21.550781 C 25.304688 22.679688 25.359375 29.601562 25.464844 30.175781 C 25.9375 32.714844 27.136719 34.382812 28.976562 35.058594 C 29.367188 35.203125 36.886719 35.265625 37.53125 35.132812 C 39.113281 34.800781 40.421875 33.4375 41.09375 31.421875 C 41.457031 30.335938 41.5 29.851562 41.5 26.738281 L 41.5 24.101562 L 33.449219 24.101562 L 33.460938 26.261719 L 33.476562 28.425781 L 35.824219 28.4375 C 37.117188 28.441406 38.207031 28.449219 38.242188 28.449219 C 38.527344 28.453125 38.175781 29.9375 37.789062 30.371094 C 37.332031 30.882812 37.640625 30.851562 33.433594 30.851562 L 29.769531 30.851562 L 29.507812 30.71875 C 29.046875 30.488281 28.683594 29.90625 28.59375 29.25 C 28.511719 28.671875 28.5625 21.671875 28.648438 21.425781 C 28.847656 20.855469 29.285156 20.363281 29.6875 20.253906 C 30.023438 20.160156 36.980469 20.183594 37.261719 20.277344 C 37.796875 20.460938 38.230469 21.167969 38.3125 22 L 38.324219 22.125 L 39.914062 22.136719 L 41.5 22.152344 L 41.5 21.910156 C 41.5 19.269531 39.824219 16.550781 37.851562 15.984375 C 37.222656 15.804688 35.609375 15.773438 30.925781 15.851562 "/>
<path style=" stroke:none;fill-rule:evenodd;fill:rgb(83.137255%,35.686275%,9.803922%);fill-opacity:1;" d="M 4.648438 0.976562 C 2.601562 1.417969 1.027344 3.046875 0.75 5.007812 C 0.679688 5.503906 0.679688 45.042969 0.75 45.484375 C 1.058594 47.386719 2.507812 48.957031 4.425781 49.457031 L 4.875 49.574219 L 25.023438 49.574219 C 41.726562 49.574219 45.222656 49.5625 45.449219 49.507812 C 47.449219 49.019531 48.816406 47.675781 49.285156 45.738281 C 49.371094 45.394531 49.375 44.316406 49.375 25.199219 L 49.375 5.023438 L 49.257812 4.601562 C 48.753906 2.804688 47.511719 1.558594 45.675781 1.015625 C 45.261719 0.894531 5.210938 0.855469 4.648438 0.976562 M 23.476562 22.851562 C 23.476562 29.433594 23.46875 29.90625 23.382812 30.351562 C 22.929688 32.722656 21.625 34.472656 19.871094 35.058594 C 19.328125 35.242188 14.171875 35.242188 13.628906 35.058594 C 12.171875 34.570312 11.015625 33.265625 10.402344 31.414062 C 10.078125 30.441406 9.890625 28.953125 10.078125 28.878906 C 10.246094 28.816406 13.152344 28.847656 13.171875 28.914062 C 13.179688 28.945312 13.210938 29.121094 13.238281 29.300781 C 13.339844 29.972656 13.816406 30.652344 14.28125 30.789062 C 14.570312 30.875 18.929688 30.875 19.210938 30.789062 C 19.472656 30.710938 19.84375 30.371094 20.019531 30.050781 C 20.304688 29.523438 20.296875 29.660156 20.300781 24.738281 L 20.300781 20.203125 L 18.710938 20.1875 L 17.125 20.175781 L 17.113281 18.050781 C 17.105469 16.882812 17.109375 15.898438 17.121094 15.863281 C 17.140625 15.8125 17.804688 15.800781 20.3125 15.8125 L 23.476562 15.824219 L 23.476562 22.851562 M 37.183594 15.855469 C 39.542969 16.148438 41.5 18.890625 41.5 21.910156 L 41.5 22.152344 L 39.914062 22.136719 L 38.324219 22.125 L 38.3125 22 C 38.230469 21.167969 37.796875 20.460938 37.261719 20.277344 C 36.980469 20.183594 30.023438 20.160156 29.6875 20.253906 C 29.285156 20.363281 28.847656 20.855469 28.648438 21.425781 C 28.5625 21.671875 28.511719 28.671875 28.59375 29.25 C 28.683594 29.90625 29.046875 30.488281 29.507812 30.71875 L 29.769531 30.851562 L 33.433594 30.851562 C 37.640625 30.851562 37.332031 30.882812 37.789062 30.371094 C 38.175781 29.9375 38.527344 28.453125 38.242188 28.449219 C 38.207031 28.449219 37.117188 28.441406 35.824219 28.4375 L 33.476562 28.425781 L 33.460938 26.261719 L 33.449219 24.101562 L 41.5 24.101562 L 41.5 26.738281 C 41.5 29.851562 41.457031 30.335938 41.09375 31.421875 C 40.421875 33.4375 39.113281 34.800781 37.53125 35.132812 C 36.886719 35.265625 29.367188 35.203125 28.976562 35.058594 C 27.136719 34.382812 25.9375 32.714844 25.464844 30.175781 C 25.359375 29.601562 25.304688 22.679688 25.398438 21.550781 C 25.621094 18.859375 26.996094 16.695312 28.914062 16.011719 C 29.265625 15.882812 29.3125 15.878906 30.925781 15.851562 C 33.765625 15.804688 36.773438 15.804688 37.183594 15.855469 "/>
</g>
</svg>
