<svg xmlns="http://www.w3.org/2000/svg" width="166.667" height="166.667" viewBox="0 0 125 125" fill-rule="evenodd" xmlns:v="https://vecta.io/nano"><path d="M0 62.469v62.469h125V0H0v62.469M68.938.852l2.625.332 1.922.313 1.25.23L76.063 2l1.625.395L79 2.742l1.125.313 1.063.309a62.05 62.05 0 0 1 3.25 1.121 20.41 20.41 0 0 0 1 .379l1.98.816c.191.102.434.18.531.18s.176.059.176.125.09.125.199.125c.25 0 4.195 2.02 6.004 3.07l2.91 1.883 1.426.984c2.793 1.867 8.75 7.215 10.605 9.523.25.309.578.703.73.875.52.578 2.578 3.176 2.82 3.551.129.207.27.402.313.438.27.227 2.371 3.383 2.656 3.992.047.102.23.41.402.684s.352.582.398.688.285.523.535.934c.859 1.414 3 5.91 3 6.297 0 .129.051.266.109.305s.148.215.195.395.184.559.305.844c.242.559.309.742.977 2.695.246.723.492 1.508.547 1.746s.188.746.297 1.121c.27.941.82 3.184.945 3.867l.309 1.559a26.49 26.49 0 0 1 .313 2.02c.059.563.141 1.078.184 1.145.48.777.492 14.445.012 15.219-.039.066-.129.613-.191 1.219a32.29 32.29 0 0 1-.301 2.031l-.258 1.434a14.2 14.2 0 0 1-.187.938 87.92 87.92 0 0 0-.324 1.434c-.117.547-.348 1.414-.512 1.93s-.293 1.047-.293 1.188-.043.313-.098.379-.203.457-.328.867l-.32.996a20.71 20.71 0 0 0-.25.75c-.086.273-.227.668-.312.871l-.379.938c-.598 1.527-.68 1.727-1.246 2.93-1.266 2.695-2.234 4.535-3.207 6.109-.129.207-.27.457-.32.563-.148.324-2.152 3.336-2.352 3.531-.102.105-.187.227-.187.266 0 .094-2.141 2.965-2.605 3.5l-1.078 1.246c-.906 1.055-5.59 5.742-6.168 6.172a21.37 21.37 0 0 0-.875.699c-.512.438-3.07 2.402-4.297 3.305-.793.582-3.148 2.063-4.539 2.859l-.961.551c-.324.191-2.168 1.152-3.258 1.699-.531.266-1.051.484-1.156.484s-.187.043-.187.094-.27.195-.594.324l-.969.387a20 20 0 0 1-.812.313 17.63 17.63 0 0 0-.957.387c-.582.258-2.223.855-2.605.949-.137.035-.363.105-.5.16a16.5 16.5 0 0 1-1 .32l-1.062.316c-.172.055-.707.188-1.187.297l-1.312.309a56.57 56.57 0 0 1-2.906.629l-1.437.27c-5.172 1.02-14.887 1.016-20.219-.004l-3.812-.766c-1.109-.266-2.223-.516-2.594-.578-.227-.035-.437-.117-.477-.18s-.191-.109-.34-.109c-.234 0-.754-.156-1.652-.496-.137-.051-.559-.191-.937-.309s-.801-.258-.937-.312l-.812-.316-.812-.324c-.137-.059-.684-.273-1.211-.477-2.27-.883-3.93-1.695-7.039-3.445l-.875-.484c-.137-.074-.738-.457-1.336-.852s-1.125-.715-1.172-.715c-.09 0-3.582-2.496-3.68-2.633-.035-.047-.398-.336-.812-.645s-.863-.66-1.004-.789-.562-.488-.937-.793c-1.613-1.316-4.879-4.578-6.684-6.676l-.816-.934c-.562-.535-4.578-6.273-5.363-7.668l-.672-1.184c-.742-1.289-1.996-3.734-2.59-5.051-.676-1.504-.711-1.59-1.254-2.992l-.625-1.621c-.172-.449-.707-2.102-.926-2.867a11.17 11.17 0 0 0-.316-1c-.059-.137-.137-.391-.172-.559a45.79 45.79 0 0 0-.266-1.125c-.113-.445-.254-1.062-.309-1.371l-.371-1.871c-.531-2.625-.715-3.824-.898-5.797-.242-2.633-.293-4.605-.207-7.793.129-4.953.32-6.723 1.125-10.473l.344-1.684c.051-.273.16-.75.246-1.059l.285-1.062.234-.871.313-1.125a26.91 26.91 0 0 1 .516-1.617c.496-1.402 1.547-4.207 1.723-4.617.996-2.262 2.23-4.773 2.777-5.633.227-.359.41-.676.41-.707 0-.137 1.895-3.223 2.477-4.039.355-.496.648-.957.648-1.02s.047-.133.102-.156.43-.488.832-1.035.766-1.027.805-1.062.309-.371.594-.746.75-.941 1.027-1.25.641-.742.797-.965c.363-.52 5.031-5.133 6.094-6.023.445-.371.867-.746.938-.832.523-.648 6.902-5.09 8.563-5.965.379-.199.715-.395.75-.434.055-.059.703-.398 3.32-1.73a25.55 25.55 0 0 1 1.313-.613l1.305-.578c.344-.156.879-.383 1.188-.5l.813-.316a50.88 50.88 0 0 1 2.688-.941c.379-.117.742-.262.805-.32s.273-.105.461-.105.379-.059.422-.125.184-.125.316-.125.477-.078.773-.172c1.215-.387 2.586-.746 3.598-.937l1.625-.316c.516-.102 1.473-.27 2.125-.379l1.883-.316c.383-.07 1.113-.129 1.625-.137s1.098-.059 1.305-.113C58.34.609 67.27.691 68.938.852" fill="rgb(95.294118%,95.686275%,95.686275%)"/><path d="M59.563.871c-.414.055-1.285.105-1.937.117s-1.441.074-1.75.145-1.012.18-1.562.242l-2.652.41c-.082.051-.504.145-.937.211-1.285.191-2.965.531-3.652.738l-1.508.445-1.875.586-1.094.316c-.191.035-.379.109-.414.172s-.164.109-.281.109-.371.086-.57.188-.434.188-.531.188-.273.051-.391.109l-.719.332-.719.324c-.117.059-.273.105-.344.105-.398 0-5.816 2.742-7.566 3.832-.137.086-.441.25-.684.371a3.8 3.8 0 0 0-.75.5c-.172.156-.355.285-.414.285s-.285.141-.512.313-.477.313-.555.313-.145.043-.145.098-.184.203-.406.336-.547.367-.719.527-.371.285-.449.285-.387.211-.691.469l-1.879 1.48a11.93 11.93 0 0 0-.766.621l-1.277 1.109c-1.168.996-4.715 4.531-5.57 5.547l-1.02 1.184c-.352.391-1.723 2.125-2.16 2.734l-.406.516c-.086.09-.156.215-.156.277s-.117.219-.262.352a2.52 2.52 0 0 0-.437.566c-.094.184-.242.41-.332.5s-.41.563-.719 1.043l-.629.934c-.039.035-.168.258-.289.5l-.336.621c-1.113 1.727-3.871 7.191-3.871 7.668 0 .102-.055.188-.125.188s-.125.109-.125.238-.094.43-.207.656c-.387.77-.418.848-.418 1.094 0 .133-.055.277-.125.32s-.125.164-.125.27-.074.367-.168.582c-.363.848-.777 2.113-1.086 3.324L3 46.074a3.48 3.48 0 0 0-.172.559l-.266 1.121-.555 2.719c-.074.434-.187.895-.258 1.023s-.125.434-.125.676-.055.684-.121.977C.801 56.258.566 67.965 1.18 69.457c.043.105.133.695.203 1.309.199 1.781.324 2.582.477 3.051a3.45 3.45 0 0 1 .141.895c0 .254.055.496.125.539s.125.297.125.57.051.59.109.707.227.695.367 1.277.352 1.371.465 1.746.234.828.27.996.141.488.238.707.176.48.176.586.055.227.125.266.125.242.125.445.043.367.094.367.203.352.336.781.281.859.328.965.188.438.309.746c.496 1.281 2.074 4.672 2.555 5.488a2.53 2.53 0 0 1 .18.375c.035.102.266.523.508.934s.516.887.598 1.059.18.34.215.375c.102.098.367.531.492.813.063.137.43.719.813 1.297s.699 1.098.699 1.156.047.102.102.102.223.211.371.473.379.578.52.707.258.293.258.367.141.289.313.477.313.387.313.453.043.141.098.164.488.543.969 1.16l.996 1.262.871.996c.953 1.098 5.078 5.219 5.816 5.813.309.246.797.672 1.086.945s.598.523.688.563.727.52 1.414 1.074 1.305 1.004 1.375 1.008.32.172.563.375l.574.484c.078.063.609.406 1.188.766s1.078.691 1.113.73.176.137.313.211l1.875 1.051c.402.297 3.414 1.832 5.375 2.738l1.344.637a.97.97 0 0 0 .355.113c.074 0 .344.09.594.203s.598.254.77.32.473.203.668.301.461.176.594.176.34.047.457.109c.242.121 1.637.605 2.219.77l1.063.309c.379.113 1.164.316 1.75.457s1.176.301 1.313.355.477.133.75.172.922.156 1.438.266c5.613 1.18 13.125 1.438 19.875.684.652-.074 1.316-.187 1.477-.258s.535-.121.844-.121.656-.055.773-.121.586-.18 1.031-.254c1.887-.312 3.961-.785 4.406-1.012.117-.059.309-.109.418-.109.207 0 .902-.211 2.176-.656.379-.133.844-.273 1.031-.305s.379-.113.414-.176.176-.109.301-.109.422-.094.648-.207c.758-.379.852-.418 1.031-.418.098 0 .34-.078.531-.176a11.34 11.34 0 0 1 .668-.293c.426-.164 1.738-.762 2.145-.977.184-.098.422-.176.531-.176s.199-.055.199-.125.141-.125.313-.125.313-.051.313-.113.125-.156.281-.207.309-.121.344-.168.43-.262.875-.48a28.8 28.8 0 0 0 1.438-.77c.344-.203.82-.465 1.063-.586s.465-.25.5-.285c.113-.125.559-.387.781-.461.121-.043.219-.117.219-.168s.098-.129.219-.172c.199-.066.5-.242.836-.488.645-.469 1.602-1.086 1.691-1.086.059 0 .125-.047.148-.102s.578-.492 1.23-.965 1.355-1.016 1.563-1.207.41-.344.449-.348.219-.125.391-.281a21.85 21.85 0 0 1 .613-.52c2.254-1.812 6.688-6.348 8.488-8.676.238-.309.473-.578.527-.602s.094-.094.094-.156c0-.102.328-.527.719-.934.086-.086.156-.215.156-.281s.043-.145.094-.168.371-.445.707-.945.648-.902.688-.902.156-.184.254-.406.211-.434.258-.469c.324-.25 2.375-3.844 3.664-6.418l1.203-2.496.516-1.09c.063-.117.117-.324.117-.461s.055-.277.125-.32.125-.156.125-.254.133-.469.293-.832.391-.969.512-1.344a13.52 13.52 0 0 1 .32-.934c.059-.141.199-.559.316-.937s.262-.781.324-.902.109-.309.109-.426c0-.215.328-1.41.508-1.852.055-.137.129-.445.164-.684.109-.773.332-1.801.449-2.059.066-.137.145-.504.176-.812s.152-1.035.262-1.621.246-1.508.309-2.055l.234-1.996c.324-2.582.441-6.117.281-8.625-.203-3.297-.496-6.023-.824-7.77-.109-.586-.227-1.312-.262-1.621s-.113-.676-.18-.812c-.141-.293-.363-1.289-.449-1.996a3.75 3.75 0 0 0-.156-.746c-.098-.246-.34-1.062-.645-2.184-.168-.621-.465-1.547-.621-1.93-.055-.141-.199-.559-.316-.937s-.348-.98-.512-1.344-.293-.738-.293-.832-.055-.211-.125-.254-.125-.164-.125-.266-.145-.508-.324-.898l-.516-1.145c-.316-.734-2.086-4.297-2.168-4.363a.9.9 0 0 1-.152-.25c-.047-.102-.25-.469-.457-.809l-.629-1.062c-.379-.645-.535-.891-.848-1.332-.156-.219-.281-.434-.281-.484s-.477-.754-1.062-1.57-1.062-1.508-1.062-1.539-.109-.184-.238-.34a127.62 127.62 0 0 1-1.762-2.191 32.96 32.96 0 0 0-.84-.984c-.363-.41-.762-.879-.895-1.047-.711-.895-4.617-4.66-6.227-6.004-.289-.242-.605-.516-.699-.609s-.379-.309-.629-.48-.461-.355-.461-.406-.078-.094-.176-.094-.195-.047-.219-.102-.492-.434-1.043-.836-1.02-.777-1.043-.832-.086-.102-.141-.102-.73-.418-1.496-.934-1.422-.934-1.457-.934-.355-.187-.715-.414-.734-.453-.836-.5-.383-.207-.625-.352-1.027-.57-1.75-.945-1.367-.727-1.43-.793-.223-.113-.344-.113-.227-.059-.227-.125-.102-.125-.227-.125-.277-.055-.344-.117-.406-.227-.758-.367a34.98 34.98 0 0 1-1.187-.488c-.484-.215-1.141-.477-1.922-.773-1.082-.41-1.402-.539-1.594-.637-.117-.062-.352-.113-.523-.113s-.34-.055-.383-.125-.164-.121-.27-.121-.371-.082-.586-.176a4.23 4.23 0 0 0-.707-.242 16.17 16.17 0 0 1-1-.27c-2.102-.629-3.25-.898-5-1.18-.445-.074-.898-.168-1-.211-.223-.098-1.246-.25-2.812-.422-.617-.066-1.211-.156-1.312-.199-.59-.234-8.711-.477-10.062-.297m5.063 22.125c.703.219 1.297.488 1.938.887.273.172.586.348.688.395s.539.297.973.559.836.477.906.477.121.051.121.117.125.152.281.203.422.184.594.301.648.402 1.063.629l1.188.652a26.77 26.77 0 0 1 1 .59c.863.543 1.914 1.129 2.156 1.207.121.039.219.121.219.18s.078.109.172.109.773.367 1.512.813 1.359.809 1.387.809.359.195.734.438.707.438.734.438.695.371 1.477.824l1.984 1.141 2.734 1.574c.781.453 1.473.824 1.531.824s.109.043.109.094c0 .098.055.129.957.586.266.133.832.457 1.266.715s.813.477.855.477.219.102.402.23.656.41 1.055.629.988.559 1.313.762a16.8 16.8 0 0 0 1.027.582c.691.352 2.039 1.77 2.402 2.535.773 1.617.723.234.723 19.656 0 18.773.027 17.809-.504 19.059a5.57 5.57 0 0 0-.191.547c-.121.43-2.02 2.273-2.68 2.605-.969.484-2.18 1.18-4.312 2.465l-1.5.875c-.344.188-.793.445-1 .566l-1.75 1.004-1.695.973-1.172.691-1.176.707c-.184.117-.656.383-1.055.598a35.94 35.94 0 0 0-1.125.625l-1.441.84-1.25.723-3.449 1.992-1.215.695-2.984 1.707c-.309.172-.711.418-.895.547s-.379.23-.441.23-.301.133-.543.293a26.86 26.86 0 0 1-2.387 1.348c-1.863.906-4.129.727-6.082-.484-.359-.223-.684-.406-.719-.406s-.555-.301-1.152-.664l-3.082-1.816c-.062-.027-.625-.367-1.25-.754s-1.227-.742-1.336-.785-.605-.332-1.098-.648-.934-.57-.988-.57c-.141 0-.777-.617-.777-.754 0-.184.477-.617.684-.617.102 0 .367-.082.594-.18a21.27 21.27 0 0 1 .848-.344c.242-.09 1.016-.457 1.723-.816 1.59-.809 1.551-.809 2.941.047l1.707 1.016c.313.172.594.348.629.391s.371.238.75.434.773.422.875.5.328.219.5.316a97.66 97.66 0 0 1 1.301.777c1.063.645 1.258.695 1.641.43.246-.172.496-.316 1.871-1.074a17.2 17.2 0 0 0 1.184-.707c.242-.16.48-.289.531-.289s.402-.199.777-.437.715-.437.75-.437.363-.187.723-.418c.715-.449 1.387-.832 2.848-1.617.516-.277.965-.539 1-.586s.148-.113.25-.156.453-.238.773-.43c1.297-.77 2.828-1.648 3.539-2.031.414-.227.891-.504 1.063-.621s.648-.398 1.063-.625c1.504-.828 1.629-.898 1.813-1.047.102-.082.496-.309.875-.508a20.16 20.16 0 0 0 1.313-.75A34.2 34.2 0 0 1 85 83.953c1.109-.605 4.133-2.352 4.313-2.496.07-.055.488-.285.93-.516a21.62 21.62 0 0 0 1.469-.84l.664-.422V62.75c-.004-17.383-.004-17.418-.355-17.531-.242-.078-1.336-.695-2.156-1.215-.316-.199-.637-.363-.719-.363S89 43.598 89 43.547s-.109-.152-.246-.219c-.652-.328-1.707-.922-3.129-1.766l-2.937-1.738-1.562-.898a43.07 43.07 0 0 1-2.145-1.242 30.34 30.34 0 0 0-1.312-.766 24.53 24.53 0 0 1-.941-.539c-.465-.285-2.746-1.605-3.664-2.121-.273-.152-.527-.312-.562-.352s-.148-.109-.25-.156-.273-.137-.375-.203c-.391-.254-2.777-1.625-2.828-1.625-.027 0-.504-.281-1.059-.625s-1.035-.625-1.066-.625-.352-.184-.711-.414c-2.699-1.723-3.562-2.02-4.398-1.52a33.83 33.83 0 0 1-.937.539c-.891.488-1.371.766-1.863 1.078-.277.176-.539.316-.574.316s-.426.227-.859.5-.832.5-.879.5-.379.184-.738.41-1.098.656-1.648.953-1.141.633-1.312.75-.762.457-1.312.75-1.086.609-1.187.691-.609.371-1.125.637-.957.527-.98.578-.113.094-.203.094-.23.082-.316.184-.258.188-.379.188-.242.047-.266.102-.41.309-.855.563l-1.312.75a61.56 61.56 0 0 1-1.25.703c-.414.227-.805.453-.875.508s-.574.336-1.125.625-1.141.621-1.312.742-.566.352-.875.523l-4.125 2.34a23.38 23.38 0 0 1-.687.383c-1.023.547-1.812 1.137-1.879 1.402-.199.832.008 33.73.215 33.961.117.129.527.402.918.605.785.418.699.367 2.246 1.305 1.055.641 1.449.863 2.375 1.352a14.82 14.82 0 0 1 1.023.609c.359.227.676.41.707.41s.406.199.832.438.875.438.996.438.426.082.672.188c.531.219 1.871.246 2.469.043.566-.187 1.738-.883 1.738-1.027 0-.062.141-.301.313-.523s.313-.492.313-.598.055-.223.125-.266c.082-.051.125-5.906.125-17.156V48.242l.332-.305c.516-.477 4.633-.477 5.109 0l.309.305v17.199c0 19.363.027 18.738-.957 20.762-.16.332-.293.68-.293.77 0 .305-2.156 2.359-2.812 2.68-.852.414-1.809.738-2.195.742-.172.004-.375.063-.449.137-.309.309-4.832.008-5.73-.379l-.875-.379c-.273-.117-.625-.254-.781-.301s-.859-.41-1.566-.805l-1.469-.801c-.102-.051-.41-.23-.684-.402s-.613-.371-.75-.441-.363-.195-.5-.277a90.37 90.37 0 0 0-2.375-1.34c-2.691-1.473-3.703-2.48-4.414-4.395l-.336-.898V62.406c0-18.152 0-18.184.449-19.043a1.01 1.01 0 0 0 .113-.348c0-.117.703-1.125 1.238-1.781.285-.344 1.785-1.301 3.387-2.16.242-.129.465-.266.5-.305s.23-.16.438-.262a39.61 39.61 0 0 0 1.488-.832c.609-.355 1.16-.645 1.219-.645s.105-.047.105-.109.098-.141.219-.18c.258-.082 1.301-.672 2.344-1.324.414-.258 1.086-.648 1.5-.867.871-.465 1.227-.672 1.313-.766.035-.039.289-.184.563-.316s1.258-.695 2.188-1.246l2.125-1.215a9.34 9.34 0 0 0 .68-.367c.793-.5 1.602-.977 2.258-1.34 1.07-.59 1.352-.75 2.75-1.582l1.813-1.059 1.313-.727 1.082-.609L59 23.961l.949-.527c1.055-.59 3.465-.816 4.676-.437M73.5 46.949c5.363.547 8.188 1.953 10.066 5.02.969 1.574 1.715 4.344 1.445 5.352-.176.648-.211.656-2.84.656-2.465.004-2.707-.078-2.828-.969-.25-1.848-2.57-4.391-4.012-4.391-.117 0-.309-.051-.426-.113-.285-.148-3.27-.508-4.219-.508s-3.934.359-4.219.508c-.117.063-.297.113-.398.113-.602 0-2.234 1.09-2.5 1.664-.297.633-.48 1.539-.402 1.98.191 1.098.223 1.16.875 1.609.355.246.785.48.957.52s.707.18 1.188.309 1.438.336 2.125.453l1.875.328c1.543.277 3.184.496 3.719.496.316 0 .613.055.656.125s.34.121.664.121a8 8 0 0 1 1.461.203l1.313.297c1.484.336 2.203.531 2.305.633.066.063.227.117.355.117s.387.078.57.172.645.32 1.027.5c1.27.602 2.734 2.004 3.199 3.066.395.906.465 1.113.57 1.684.512 2.805 0 5.434-1.465 7.523-.492.699-2.082 2.066-2.875 2.473l-.937.5c-.391.219-1.492.602-2.937 1.02-2.57.746-9.941.762-12.5.023-2.781-.801-4.23-1.418-5.148-2.187a17.11 17.11 0 0 0-.562-.426c-.461-.336-1.875-1.887-1.961-2.148-.031-.094-.18-.371-.336-.617-1.004-1.59-1.398-5.121-.633-5.629.352-.23 4.656-.105 4.879.145.246.27.574 1.266.574 1.742 0 1.059 1.395 2.809 2.695 3.379.34.148.715.324.836.387s.348.113.508.113.539.078.844.176c.742.234 5.375.48 6.117.328.309-.066.992-.121 1.516-.125.555-.004 1.141-.082 1.402-.191.246-.102.594-.187.766-.187a1.37 1.37 0 0 0 .535-.113l.816-.402c.625-.309 1.367-.914 1.504-1.23a5.58 5.58 0 0 1 .191-.371c.34-.602.395-.836.395-1.695 0-1.086-.402-1.875-1.125-2.207-.102-.051-.273-.137-.375-.199-.418-.246-1.133-.488-2.562-.863-.469-.125-2.02-.391-3.75-.648-.414-.062-1.621-.203-2.687-.312l-2.312-.262c-.207-.035-.684-.105-1.062-.164-.922-.137-1.961-.355-2.496-.531-1.922-.617-2.176-.723-3.191-1.328-1.246-.746-1.582-1.062-2.418-2.254-.355-.508-.645-1.027-.645-1.152s-.055-.332-.121-.449c-.562-1.02-.555-4.98.008-5.574.063-.062.113-.195.113-.293 0-1.34 2.605-3.941 5-4.984 2.695-1.176 6.754-1.629 10.875-1.207" fill="rgb(26.666667%,26.666667%,23.137255%)"/><path d="M61.301 23.184a11.25 11.25 0 0 0-2.691 1.27c-.18.125-.461.289-.625.359s-.492.246-.734.395l-1 .578-1.613.918-1.156.605c-.059 0-.105.055-.105.121s-.078.125-.172.125-.242.086-.328.188-.262.188-.391.188-.234.051-.234.109-.098.148-.219.191a3.47 3.47 0 0 0-.473.23l-.875.527-.871.523-.437.246c-.102.047-.742.414-1.418.813l-1.293.727c-.035 0-.211.105-.395.23s-.641.398-1.02.605l-2.715 1.574c-.293.184-.559.332-.594.332s-.414.215-.844.477l-1.473.84-1.336.77-.727.41c-.039 0-.379.191-.746.43l-3.23 1.863-2.402 1.406C30.043 40.938 29 41.789 29 42.016c0 .051-.141.25-.309.449s-.344.527-.391.73-.125.461-.176.566c-.363.734-.375 1.391-.371 18.465.004 18.867-.023 18.082.699 19.504.52 1.023 1.234 1.777 2.363 2.488l1.25.789a6.32 6.32 0 0 0 .496.277 17.47 17.47 0 0 1 .875.488 40.28 40.28 0 0 0 1.25.703 20.14 20.14 0 0 1 1.188.684c3.371 2.105 6.676 3.359 8.848 3.363 1.113.004 3.773-.5 4.082-.77.066-.055.207-.102.316-.102.816 0 3.293-2.547 3.578-3.68.043-.172.129-.344.191-.383s.109-.223.109-.41.051-.395.113-.461c.363-.379.551-36.055.191-36.527-.238-.312-4.527-.391-4.828-.086-.133.129-.176 3.461-.227 17.27l-.062 17.105-.367.664c-1.227 2.211-4.043 2.75-6.695 1.285l-.812-.445c-.137-.074-.391-.227-.562-.336s-.621-.367-1-.57c-.66-.352-1.422-.793-1.941-1.129-.137-.086-.332-.191-.434-.238s-.328-.176-.5-.293-.621-.383-1-.586c-2.57-1.391-2.25 1.277-2.25-18.566V45.422l.258-.332c.145-.18.313-.328.375-.328s.422-.195.797-.434.707-.437.734-.437c.055 0 1.863-1.031 2.648-1.512.273-.168.727-.414 1-.551s.527-.273.563-.309c.082-.086 2.844-1.672 3.875-2.223.445-.242 1.023-.566 1.277-.727s.492-.289.523-.289.52-.281 1.086-.625 1.105-.625 1.195-.625.168-.043.168-.094.211-.207.469-.344.891-.488 1.406-.789l2.313-1.324 3.039-1.73 1.719-.953c.027 0 .348-.187.707-.418a30.63 30.63 0 0 1 1.41-.832l.996-.547a2.65 2.65 0 0 0 .395-.273c.082-.074.34-.211.566-.305s.797-.41 1.262-.707c1.121-.707 1.414-.699 2.738.074 1.824 1.07 2.414 1.398 2.637 1.469.121.039.219.121.219.18s.059.109.125.109.578.281 1.125.625 1.055.625 1.125.625.125.055.125.125.07.125.156.125.512.223.941.496.816.5.852.5.359.188.719.418.988.602 1.398.832a47.71 47.71 0 0 1 2.344 1.348c.465.285.898.52.969.52s.121.051.121.109.098.141.219.18c.234.074 1.191.609 2.219 1.238a47.27 47.27 0 0 0 1.977 1.137c.645.359.582.32 3.145 1.863.582.352 1.168.691 1.723 1l1.188.664c.328.184.809.465 1.07.629s.668.406.898.535c1.887 1.059 3.055 1.793 3.121 1.969.133.348.074 34.07-.062 34.32-.066.125-.273.305-.465.398-.629.316-1.84 1-2.156 1.219-.172.117-.648.398-1.062.625l-1.125.625-1.312.746a26.89 26.89 0 0 0-1.25.746c-.172.117-.648.398-1.062.625l-2.75 1.555-1.062.602a10.46 10.46 0 0 0-.562.316c-.207.125-.629.371-.937.547l-1.984 1.141c-.781.457-1.453.828-1.492.828s-.156.074-.266.168-.59.383-1.07.641-1.09.609-1.352.773a34.39 34.39 0 0 1-1.836 1.059 26.83 26.83 0 0 0-.937.547c-.273.168-.617.355-.762.418s-.566.305-.937.539a12.6 12.6 0 0 1-.863.508c-.102.047-.355.191-.562.316-.668.41-2.598 1.512-2.648 1.512-.031 0-.258.141-.512.313-.617.418-2.152.266-2.152-.211 0-.055-.059-.102-.129-.102s-.477-.215-.906-.477l-1.387-.844c-.336-.199-.758-.461-.937-.578a4.87 4.87 0 0 0-.516-.305c-.102-.047-.48-.273-.836-.5s-.687-.414-.727-.414-.383-.195-.758-.434c-.883-.566-1.32-.512-2.492.305-.07.051-.32.164-.562.254-.555.207-1.066.418-1.645.672-.25.113-.508.203-.566.203-.184 0-.785.305-.789.395 0 .113 1.016.977 1.148.977.059 0 .555.281 1.102.621s1.027.625 1.063.625.516.281 1.063.625 1.031.621 1.074.621.254.129.469.281c.496.355 1.328.832 1.613.926.121.039.219.121.219.18s.059.109.129.109.484.227.918.5.836.5.891.5.285.141.512.309.457.313.512.313.379.141.715.313c1.52.77 4.125.355 6.336-1.012.598-.371 1.129-.672 1.176-.672s.234-.102.418-.23.762-.457 1.289-.738a32.9 32.9 0 0 0 1.625-.937c.367-.234 1.004-.605 1.418-.824s.859-.465.992-.547l.902-.555c.359-.223.688-.406.727-.406s.52-.281 1.066-.625 1.027-.621 1.066-.621.379-.199.754-.437.707-.437.738-.437c.047 0 1.043-.574 1.879-1.082.137-.086.336-.195.438-.246s.582-.32 1.063-.602.961-.555 1.063-.602a7.46 7.46 0 0 0 .563-.324c.719-.449 2.574-1.508 2.645-1.508.035 0 .242-.125.461-.281s.504-.34.645-.414c.992-.527 4.551-2.574 6.391-3.68.563-.336 1.055-.613 1.102-.613.496 0 2.004-2.164 2.438-3.492.219-.68.355-34.285.141-35.445-.23-1.25-.277-1.402-.652-2.156-.375-.746-1.445-2.047-1.687-2.047-.07 0-.258-.141-.418-.312s-.391-.312-.508-.312-.281-.082-.367-.187-.203-.187-.262-.187-.418-.195-.793-.434-.723-.437-.773-.437-.18-.078-.289-.172-.562-.363-1.008-.602a66.4 66.4 0 0 1-1.937-1.09l-2.648-1.516a30.18 30.18 0 0 1-.875-.523c-.262-.164-.812-.484-1.227-.711s-.777-.445-.812-.488-.301-.184-.594-.312-.531-.281-.531-.34-.062-.105-.137-.105-.988-.5-2.031-1.109l-2.645-1.52a50.67 50.67 0 0 1-1.535-.887c-.43-.262-.809-.477-.84-.477s-.426-.223-.875-.496-.836-.5-.855-.5c-.051 0-2.094-1.203-2.273-1.336-.07-.055-.352-.207-.625-.344s-.793-.43-1.156-.652-.684-.41-.715-.41-.437-.234-.902-.523c-3.016-1.855-4.645-2.281-6.609-1.73m6.324 23.949c-4.57.598-7.375 2.023-9.074 4.613-.457.695-.801 1.434-.801 1.723a.62.62 0 0 1-.156.379c-.113.113-.156.766-.156 2.387s.043 2.273.156 2.387a.6.6 0 0 1 .156.363c0 .555 1.238 2.391 2.031 3.008.543.422.773.566 1.664 1.047.621.332 2.32.926 2.648.926.133 0 .281.043.332.094.207.207 2.082.484 7.762 1.156 4.535.535 7.305 1.449 7.988 2.633.281.484.348 2.629.09 2.883a.55.55 0 0 0-.141.336c0 .109-.141.348-.312.531s-.312.371-.312.414c0 1.379-6.984 2.379-11.875 1.703-3.176-.437-5.207-1.937-5.684-4.199l-.207-.988c-.211-1.008-.344-1.062-2.68-1.066-1.941-.004-2.02.004-2.281.285-.453.48-.332 2.652.227 4.012a36.83 36.83 0 0 1 .332.84c.129.328.273.594.324.594s.094.059.094.133c0 .379 1.449 1.969 2.438 2.676 1.254.895 4.258 2.18 5.094 2.18a2.31 2.31 0 0 1 .68.137c1.617.629 8.512.609 11.352-.031C79.059 77.891 82 76.711 82 76.406c0-.055.094-.098.211-.098.758 0 2.961-2.984 3.449-4.672.27-.945.363-4.77.121-5.09-.062-.082-.215-.43-.34-.773-.266-.719-1.047-1.863-1.527-2.238a27.75 27.75 0 0 1-.715-.578c-.215-.176-.723-.477-1.137-.664l-1.105-.52c-.191-.098-.434-.176-.531-.176s-.277-.055-.395-.117-.613-.203-1.094-.316l-1.312-.312c-1.227-.297-2.629-.516-4.812-.75-.617-.066-1.32-.176-1.562-.246s-.699-.129-1.023-.129-.621-.059-.664-.125-.348-.125-.68-.125-.84-.086-1.133-.187-.676-.187-.852-.187c-.32 0-.418-.023-1.898-.504-1.914-.621-2.594-2.156-1.801-4.059.34-.809 1.855-2.047 2.508-2.047.094 0 .27-.047.387-.109 1.25-.637 8.496-.633 9.211.004.066.059.211.105.324.105 1.328 0 3.871 2.836 3.871 4.313 0 .148.117.418.258.598l.262.328 2.207-.004c2.758-.004 3.016-.187 2.535-1.797-.066-.207-.215-.801-.332-1.316s-.262-.988-.32-1.055-.109-.215-.109-.332-.043-.23-.094-.254-.258-.367-.461-.766c-1.121-2.203-3.887-3.961-7.383-4.687l-1.25-.27c-.785-.176-6.098-.262-7.187-.117" fill="rgb(50.980392%,81.568627%,1.568627%)"/><path d="M60.949 23.031c-.336.102-.785.281-1 .402l-.949.527-2.355 1.363-1.082.609-1.312.727-1.812 1.059-2.75 1.582-2.258 1.34a9.34 9.34 0 0 1-.68.367c-.242.121-1.195.668-2.125 1.215l-2.187 1.246c-.273.133-.527.277-.562.316-.086.094-.441.301-1.312.766l-1.5.867-2.344 1.324c-.121.039-.219.121-.219.18s-.047.109-.105.109-.609.289-1.219.645l-1.488.832c-.207.102-.402.219-.437.262s-.258.176-.5.305c-1.602.859-3.102 1.816-3.387 2.16-.535.656-1.238 1.664-1.238 1.781a1.01 1.01 0 0 1-.113.348c-.449.859-.449.891-.449 19.043v17.707l.336.898c.711 1.914 1.723 2.922 4.414 4.395a90.37 90.37 0 0 1 2.375 1.34c.137.082.363.207.5.277s.477.27.75.441.582.352.684.402.762.406 1.469.801 1.414.758 1.566.805.508.184.781.301l.875.379c.898.387 5.422.688 5.73.379.074-.074.277-.133.449-.137.387-.004 1.344-.328 2.195-.742.656-.32 2.813-2.375 2.813-2.68 0-.09.133-.437.293-.77.984-2.023.957-1.398.957-20.762V48.242l-.309-.305c-.477-.477-4.594-.477-5.109 0l-.332.305v17.082l-.125 17.156c-.07.043-.125.164-.125.266s-.141.371-.312.598-.312.461-.312.523c0 .145-1.172.84-1.738 1.027-.598.203-1.937.176-2.469-.043-.246-.105-.547-.187-.672-.187s-.57-.195-.996-.437-.801-.437-.832-.437-.348-.184-.707-.41a14.82 14.82 0 0 0-1.023-.609c-.926-.488-1.32-.711-2.375-1.352-1.547-.937-1.461-.887-2.246-1.305-.391-.203-.801-.477-.918-.605-.207-.23-.414-33.129-.215-33.961.066-.266.855-.855 1.879-1.402l.688-.383c.223-.137 3.313-1.891 4.125-2.34.309-.172.703-.406.875-.523s.762-.453 1.313-.742 1.055-.57 1.125-.625.461-.281.875-.508l1.25-.703 1.313-.75c.445-.254.832-.508.855-.562s.141-.102.266-.102.293-.082.379-.187.227-.184.316-.184.18-.043.203-.094.465-.312.98-.578 1.023-.551 1.125-.637.637-.395 1.188-.691 1.141-.633 1.313-.75.762-.453 1.313-.75 1.293-.723 1.648-.953.691-.41.738-.41.441-.227.879-.5.82-.5.859-.5.297-.141.574-.316c.492-.312.973-.59 1.863-1.078a33.83 33.83 0 0 0 .938-.539c.836-.5 1.699-.203 4.398 1.52.359.23.68.414.711.414s.512.281 1.066.625 1.031.625 1.059.625c.051 0 2.438 1.371 2.828 1.625.102.066.273.16.375.203s.215.117.25.156.289.199.563.352l3.664 2.121a24.53 24.53 0 0 0 .941.539 30.34 30.34 0 0 1 1.313.766 43.07 43.07 0 0 0 2.145 1.242l1.563.898 2.938 1.738c1.422.844 2.477 1.438 3.129 1.766.137.066.246.164.246.219s.066.094.145.094.402.164.719.363c.82.52 1.914 1.137 2.156 1.215.352.113.352.148.355 17.531v16.93l-.664.422a21.62 21.62 0 0 1-1.469.84c-.441.23-.859.461-.93.516-.18.145-3.203 1.891-4.312 2.496a34.2 34.2 0 0 0-1.562.898 20.16 20.16 0 0 1-1.312.75c-.379.199-.773.426-.875.508-.184.148-.309.219-1.812 1.047-.414.227-.891.508-1.062.625s-.648.395-1.062.621c-.711.383-2.242 1.262-3.539 2.031-.32.191-.672.383-.773.43s-.215.113-.25.156-.484.309-1 .586c-1.461.785-2.133 1.168-2.848 1.617-.359.23-.687.418-.723.418s-.375.195-.75.438-.727.438-.777.438-.289.129-.531.289a17.2 17.2 0 0 1-1.184.707c-1.375.758-1.625.902-1.871 1.074-.383.266-.578.215-1.641-.43l-1.301-.777c-.172-.098-.398-.242-.5-.316s-.496-.301-.875-.5-.715-.395-.75-.434-.316-.219-.629-.391-1.078-.629-1.707-1.016c-1.391-.855-1.352-.855-2.941-.047-.707.359-1.48.727-1.723.816a21.27 21.27 0 0 0-.848.344c-.227.098-.492.18-.594.18-.207 0-.684.434-.684.617 0 .137.637.754.777.754.055 0 .496.258.988.57s.984.609 1.098.648.711.395 1.336.785l1.25.754c.148.063 1.703.98 3.082 1.816.598.363 1.117.664 1.152.664s.359.184.719.406c1.953 1.211 4.219 1.391 6.082.484a26.86 26.86 0 0 0 2.387-1.348c.242-.16.484-.293.543-.293s.258-.105.441-.23.586-.375.895-.547l2.984-1.707 1.215-.695 3.449-1.992a85.64 85.64 0 0 1 1.25-.723l1.441-.84a35.94 35.94 0 0 1 1.125-.625c.398-.215.871-.48 1.055-.598s.711-.434 1.176-.707l1.172-.691a141.28 141.28 0 0 1 1.695-.973l1.75-1.004 1-.566a64.66 64.66 0 0 0 1.5-.875c2.133-1.285 3.344-1.98 4.313-2.465.66-.332 2.559-2.176 2.68-2.605a5.57 5.57 0 0 1 .191-.547c.531-1.25.504-.285.504-19.059 0-19.422.051-18.039-.723-19.656-.363-.766-1.711-2.184-2.402-2.535a16.8 16.8 0 0 1-1.027-.582c-.324-.203-.914-.543-1.312-.762s-.871-.5-1.055-.629-.363-.23-.402-.23-.426-.215-.855-.477-1-.582-1.266-.715c-.902-.457-.957-.488-.957-.586 0-.051-.051-.094-.109-.094s-.75-.371-1.531-.824l-2.734-1.574-1.984-1.141c-.781-.453-1.445-.824-1.477-.824s-.359-.199-.734-.437-.707-.437-.734-.437-.652-.363-1.387-.809-1.418-.812-1.512-.812-.172-.047-.172-.109-.098-.141-.219-.18c-.242-.078-1.293-.664-2.156-1.207a26.77 26.77 0 0 0-1-.59l-1.187-.652c-.414-.227-.891-.512-1.062-.629s-.437-.254-.594-.301-.281-.141-.281-.203-.055-.117-.121-.117-.477-.215-.906-.477-.871-.512-.973-.559-.414-.223-.687-.395c-1.664-1.031-3.902-1.375-5.613-.852m3.293.105c.805.207 2.25.906 3.668 1.777.465.289.871.523.902.523s.355.184.715.41.883.52 1.156.652.555.289.625.344c.18.133 2.223 1.336 2.273 1.336.02 0 .406.223.855.5s.844.496.875.496.41.215.84.477a50.67 50.67 0 0 0 1.535.887c.414.223 1.602.906 2.645 1.52s1.957 1.109 2.031 1.109.137.047.137.105.238.211.531.34.559.27.594.313.398.262.813.488.965.547 1.227.711a30.18 30.18 0 0 0 .875.523l2.648 1.516a66.4 66.4 0 0 0 1.938 1.09c.445.238.902.508 1.008.602s.238.172.289.172.398.195.773.438.734.434.793.434.176.086.262.188.25.188.367.188.348.141.508.313.348.313.418.313c.242 0 1.313 1.301 1.688 2.047.375.754.422.906.652 2.156.215 1.16.078 34.766-.141 35.445-.434 1.328-1.941 3.492-2.437 3.492-.047 0-.539.277-1.102.613-1.84 1.105-5.398 3.152-6.391 3.68-.141.074-.43.262-.645.414s-.426.281-.461.281c-.07 0-1.926 1.059-2.645 1.508a7.46 7.46 0 0 1-.562.324c-.102.047-.582.32-1.062.602l-1.062.602c-.102.051-.301.16-.437.246-.836.508-1.832 1.082-1.879 1.082-.031 0-.363.199-.738.438s-.715.438-.754.438-.52.277-1.066.621-1.027.625-1.066.625-.367.184-.727.406l-.902.555c-.133.082-.578.328-.992.547s-1.051.59-1.418.824a32.9 32.9 0 0 1-1.625.938c-.527.281-1.105.613-1.289.738s-.371.23-.418.23-.578.301-1.176.672c-2.211 1.367-4.816 1.781-6.336 1.012-.336-.172-.66-.309-.715-.312s-.285-.141-.512-.312-.457-.309-.512-.309-.453-.227-.891-.5-.848-.5-.918-.5-.129-.047-.129-.109-.098-.141-.219-.18c-.285-.094-1.117-.57-1.613-.926-.215-.152-.43-.281-.469-.281s-.527-.281-1.074-.621-1.027-.625-1.062-.625-.516-.281-1.062-.625-1.043-.621-1.102-.621c-.133 0-1.148-.863-1.148-.977.004-.09.605-.395.789-.395.059 0 .316-.09.566-.203.578-.254 1.09-.465 1.645-.672.242-.09.492-.203.563-.254 1.172-.816 1.609-.871 2.492-.305.375.238.719.434.758.434s.367.188.727.414.734.453.836.5a4.87 4.87 0 0 1 .516.305c.18.117.602.379.938.578l1.387.844c.43.262.836.477.906.477s.129.047.129.102c0 .477 1.535.629 2.152.211.254-.172.48-.312.512-.312.051 0 1.98-1.102 2.648-1.512.207-.125.461-.27.563-.316a12.6 12.6 0 0 0 .863-.508c.371-.234.793-.477.938-.539s.488-.25.762-.418a26.83 26.83 0 0 1 .938-.547 34.39 34.39 0 0 0 1.836-1.059c.262-.164.871-.512 1.352-.773s.965-.547 1.07-.641.23-.168.266-.168.711-.371 1.492-.828l1.984-1.141.938-.547a10.46 10.46 0 0 1 .563-.316c.102-.047.582-.32 1.063-.602.867-.512 1.305-.758 2.75-1.555.414-.227.891-.508 1.063-.625a26.89 26.89 0 0 1 1.25-.746l1.313-.746 1.125-.625c.414-.227.891-.508 1.063-.625.316-.219 1.527-.902 2.156-1.219.191-.094.398-.273.465-.398.137-.25.195-33.973.063-34.32-.066-.176-1.234-.91-3.121-1.969-.23-.129-.637-.371-.898-.535s-.742-.445-1.07-.629l-1.187-.664c-.555-.309-1.141-.648-1.723-1l-3.145-1.863a47.27 47.27 0 0 1-1.977-1.137c-1.027-.629-1.984-1.164-2.219-1.238-.121-.039-.219-.117-.219-.18s-.055-.109-.121-.109-.504-.234-.969-.52a47.71 47.71 0 0 0-2.344-1.348c-.41-.23-1.039-.602-1.398-.832s-.684-.418-.719-.418-.418-.223-.852-.5-.855-.496-.941-.496-.156-.059-.156-.125-.059-.125-.125-.125-.578-.281-1.125-.625-1.055-.625-1.125-.625S67 30.5 67 30.438s-.098-.141-.219-.18c-.223-.07-.812-.398-2.637-1.469-1.324-.773-1.617-.781-2.738-.074-.465.297-1.031.613-1.262.707s-.484.23-.566.305a2.65 2.65 0 0 1-.395.273l-.996.547a30.63 30.63 0 0 0-1.41.832c-.359.23-.68.418-.707.418s-.801.43-1.719.953l-3.039 1.73L49 35.805c-.516.301-1.148.656-1.406.789s-.469.289-.469.344-.074.094-.168.094-.629.281-1.195.625-1.055.625-1.086.625-.266.129-.523.289-.832.484-1.277.727c-1.031.551-3.793 2.137-3.875 2.223-.035.035-.289.176-.562.309s-.727.383-1 .551c-.785.48-2.594 1.512-2.648 1.512-.027 0-.359.195-.734.438s-.734.434-.797.434-.23.148-.375.328l-.258.332v16.844c0 19.043-.098 17.293 1.012 17.895l1.238.672c.379.203.828.469 1 .586s.398.25.5.293.297.152.434.238c.52.336 1.281.777 1.941 1.129.379.203.828.461 1 .57s.426.262.563.336l.813.445c2.652 1.465 5.469.926 6.695-1.285l.367-.664.063-17.105.227-17.27c.301-.305 4.59-.227 4.828.086.359.473.172 36.148-.191 36.527-.062.066-.113.273-.113.461s-.051.371-.109.41-.148.211-.191.383c-.285 1.133-2.762 3.68-3.578 3.68-.109 0-.25.047-.316.102-.309.27-2.969.773-4.082.77-2.172-.004-5.477-1.258-8.848-3.363a20.14 20.14 0 0 0-1.187-.684 40.28 40.28 0 0 1-1.25-.703 17.47 17.47 0 0 0-.875-.488 6.32 6.32 0 0 1-.496-.277l-1.25-.789c-1.129-.711-1.844-1.465-2.363-2.488-.723-1.422-.695-.637-.699-19.504-.004-17.074.008-17.73.371-18.465.051-.105.129-.359.176-.566s.223-.535.391-.73.309-.398.309-.449c0-.227 1.043-1.078 2.184-1.781 1.535-.949 1.508-.934 2.402-1.406a57.55 57.55 0 0 0 3.23-1.863c.367-.238.707-.43.746-.43s.367-.184.727-.41a24.76 24.76 0 0 1 1.336-.77c.379-.199 1.039-.578 1.473-.84s.809-.477.844-.477.301-.148.594-.332c.582-.371 1.656-.992 2.715-1.574.379-.207.836-.48 1.02-.605s.359-.23.395-.23.617-.328 1.293-.727l1.418-.812c.102-.051.301-.16.438-.246l.871-.523.875-.527a3.47 3.47 0 0 1 .473-.23c.121-.043.219-.129.219-.191s.105-.109.234-.109.305-.082.391-.187.234-.187.328-.187.172-.055.172-.125.047-.121.105-.121.582-.273 1.156-.605l1.613-.918c.309-.172.758-.434 1-.578s.57-.324.734-.395.445-.234.625-.359c1.793-1.258 3.918-1.754 5.633-1.316m3.383 23.824c-3.676.43-6.191 1.402-7.98 3.09-.891.84-2.02 2.566-2.02 3.09 0 .098-.051.23-.113.293-.562.594-.57 4.555-.008 5.574.066.117.121.32.121.449 0 .727 1.648 2.559 3.063 3.406 1.016.605 1.27.711 3.191 1.328.535.176 1.574.395 2.496.531l1.063.164c.207.035 1.246.152 2.313.262l2.688.313c1.73.258 3.281.523 3.75.648 1.43.375 2.145.617 2.563.863.102.063.273.148.375.199.723.332 1.125 1.121 1.125 2.207 0 .859-.055 1.094-.395 1.695a5.58 5.58 0 0 0-.191.371c-.137.316-.879.922-1.504 1.23l-.816.402a1.37 1.37 0 0 1-.535.113c-.172 0-.52.086-.766.188-.262.109-.848.188-1.402.191-.523.004-1.207.059-1.516.125-.742.152-5.375-.094-6.117-.328-.305-.098-.684-.176-.844-.176s-.391-.051-.508-.113-.496-.238-.836-.387c-1.301-.57-2.695-2.32-2.695-3.379 0-.477-.328-1.473-.574-1.742-.223-.25-4.527-.375-4.879-.145-.766.508-.371 4.039.633 5.629.156.246.305.523.336.617.086.262 1.5 1.813 1.961 2.148a17.11 17.11 0 0 1 .563.426c.918.77 2.367 1.387 5.148 2.188 2.559.738 9.93.723 12.5-.023 1.445-.418 2.547-.801 2.938-1.02l.938-.5c.793-.406 2.383-1.773 2.875-2.473 1.465-2.09 1.977-4.719 1.465-7.523-.105-.57-.176-.777-.57-1.684-.465-1.062-1.93-2.465-3.199-3.066l-1.027-.5c-.184-.094-.437-.172-.57-.172s-.289-.055-.355-.117c-.102-.102-.82-.297-2.305-.633l-1.312-.297a8 8 0 0 0-1.461-.203c-.324 0-.621-.055-.664-.121s-.34-.125-.656-.125c-.535 0-2.176-.219-3.719-.496l-1.875-.328c-.687-.117-1.645-.32-2.125-.453L65 58.391c-.172-.039-.602-.273-.957-.52-.652-.449-.684-.512-.875-1.609-.078-.441.105-1.348.402-1.98.266-.574 1.898-1.664 2.5-1.664.102 0 .281-.051.398-.113.285-.148 3.27-.508 4.219-.508s3.934.359 4.219.508c.117.063.309.113.426.113 1.441 0 3.762 2.543 4.012 4.391.121.891.363.973 2.828.969 3.398 0 3.496-.18 2.254-4.137-1.055-3.375-4.387-5.965-8.488-6.602-2.973-.461-5.898-.559-8.312-.277m7.188.289l1.25.27c3.496.727 6.262 2.484 7.383 4.688.203.398.41.742.461.766s.094.137.094.254.047.27.109.332.203.539.32 1.055.266 1.109.332 1.316c.48 1.609.223 1.793-2.535 1.797l-2.207.004-.262-.328c-.141-.18-.258-.449-.258-.598 0-1.477-2.543-4.312-3.871-4.312-.113 0-.258-.047-.324-.105-.715-.637-7.961-.641-9.211-.004-.117.063-.293.109-.387.109-.652 0-2.168 1.238-2.508 2.047-.793 1.902-.113 3.438 1.801 4.059 1.48.48 1.578.504 1.898.504.176 0 .559.086.852.188s.801.188 1.133.188.637.055.68.125.34.125.664.125.785.059 1.023.129.945.18 1.563.246c2.184.234 3.586.453 4.813.75l1.313.313c.48.113.973.254 1.094.316s.297.117.395.117.34.078.531.176.691.332 1.105.52.922.488 1.137.664l.715.578c.48.375 1.262 1.52 1.527 2.238.125.344.277.691.34.773.242.32.148 4.145-.121 5.09-.488 1.688-2.691 4.672-3.449 4.672-.117 0-.211.043-.211.098 0 .305-2.941 1.484-4.687 1.879-2.84.641-9.734.66-11.352.031a2.31 2.31 0 0 0-.68-.137c-.836 0-3.84-1.285-5.094-2.18-.988-.707-2.437-2.297-2.437-2.676 0-.074-.043-.133-.094-.133s-.195-.266-.324-.594l-.332-.84c-.559-1.359-.68-3.531-.227-4.012.262-.281.34-.289 2.281-.285 2.336.004 2.469.059 2.68 1.066l.207.988c.477 2.262 2.508 3.762 5.684 4.199 4.891.676 11.875-.324 11.875-1.703 0-.043.141-.23.313-.414s.313-.422.313-.531a.55.55 0 0 1 .141-.336c.258-.254.191-2.398-.09-2.883-.684-1.184-3.453-2.098-7.988-2.633-5.68-.672-7.555-.949-7.762-1.156-.051-.051-.199-.094-.332-.094-.801 0-3.168-1.082-4.312-1.973-.793-.617-2.031-2.453-2.031-3.008a.6.6 0 0 0-.156-.363c-.113-.113-.156-.77-.156-2.387s.043-2.273.156-2.387a.62.62 0 0 0 .156-.379c0-.289.344-1.027.801-1.723 1.699-2.59 4.504-4.016 9.074-4.613 1.09-.145 6.402-.059 7.188.117" fill="rgb(38.823529%,54.509804%,14.117647%)"/><path d="M57.813.746c-.207.055-.793.105-1.305.113s-1.242.066-1.625.137L53 1.313l-2.125.379-1.625.316c-1.012.191-2.383.551-3.598.938-.297.094-.645.172-.773.172s-.273.055-.316.125-.23.125-.422.125-.395.047-.461.105-.426.203-.805.32l-2.687.941-.812.316-1.187.5-1.305.578-1.312.613-3.32 1.73c-.035.039-.371.234-.75.434-1.66.875-8.039 5.316-8.562 5.965-.07.086-.492.461-.937.832-1.062.891-5.73 5.504-6.094 6.023-.156.223-.516.656-.797.965s-.742.871-1.027 1.25-.551.711-.594.746-.402.512-.805 1.063-.777 1.016-.832 1.035-.102.094-.102.156-.293.523-.648 1.02c-.582.816-2.477 3.902-2.477 4.039 0 .031-.184.348-.41.707-.547.859-1.781 3.371-2.777 5.633-.176.41-1.227 3.215-1.723 4.617a26.91 26.91 0 0 0-.516 1.617l-.312 1.125-.234.871-.285 1.063c-.086.309-.195.785-.246 1.059s-.203 1.031-.344 1.684c-.805 3.75-.996 5.52-1.125 10.473-.086 3.188-.035 5.16.207 7.793.184 1.973.367 3.172.898 5.797l.371 1.871c.055.309.195.926.309 1.371l.266 1.125c.035.168.113.422.172.559a11.17 11.17 0 0 1 .316 1c.219.766.754 2.418.926 2.867l.625 1.621c.543 1.402.578 1.488 1.254 2.992.594 1.316 1.848 3.762 2.59 5.051l.672 1.184c.785 1.395 4.801 7.133 5.363 7.668.035.035.402.453.816.934 1.805 2.098 5.07 5.359 6.684 6.676.375.305.797.664.938.793s.59.484 1.004.789.777.598.813.645c.098.137 3.59 2.633 3.68 2.633.047 0 .574.32 1.172.715s1.199.777 1.336.852l.875.484c3.109 1.75 4.77 2.563 7.039 3.445l1.211.477a44.03 44.03 0 0 0 .813.324l.813.316c.137.055.559.195.938.313s.801.258.938.309c.898.34 1.418.496 1.652.496.148 0 .301.051.34.109s.25.145.477.18c.371.063 1.484.313 2.594.578.406.098 2.004.418 3.813.766 5.332 1.02 15.047 1.023 20.219.004l1.438-.27a56.57 56.57 0 0 0 2.906-.629c.242-.062.832-.199 1.313-.309s1.016-.242 1.188-.297.648-.195 1.063-.316a16.5 16.5 0 0 0 1-.32c.137-.055.363-.125.5-.16.383-.094 2.023-.691 2.605-.949a17.63 17.63 0 0 1 .957-.387 20 20 0 0 0 .813-.312l.969-.387c.324-.129.594-.273.594-.324s.086-.094.188-.094.625-.219 1.156-.484c1.09-.547 2.934-1.508 3.258-1.699l.961-.551c1.391-.797 3.746-2.277 4.539-2.859 1.227-.902 3.785-2.867 4.297-3.305a21.37 21.37 0 0 1 .875-.699c.578-.43 5.262-5.117 6.168-6.172l1.078-1.246c.465-.535 2.605-3.406 2.605-3.5 0-.039.086-.16.188-.266.199-.195 2.203-3.207 2.352-3.531.051-.105.191-.355.32-.562.973-1.574 1.941-3.414 3.207-6.109.566-1.203.648-1.402 1.246-2.93l.379-.937c.086-.203.227-.598.313-.871a20.71 20.71 0 0 1 .25-.75 26.81 26.81 0 0 0 .32-.996c.125-.41.273-.801.328-.867s.098-.234.098-.379.133-.676.293-1.187.395-1.383.512-1.93l.324-1.434a14.2 14.2 0 0 0 .188-.937 63.49 63.49 0 0 1 .258-1.434 32.29 32.29 0 0 0 .301-2.031c.063-.605.152-1.152.191-1.219.48-.773.469-14.441-.012-15.219-.043-.066-.125-.582-.184-1.145a26.49 26.49 0 0 0-.312-2.02L123.5 50c-.125-.684-.676-2.926-.945-3.867-.109-.375-.242-.879-.297-1.121s-.301-1.023-.547-1.746c-.668-1.953-.734-2.137-.977-2.695-.121-.285-.258-.664-.305-.844s-.133-.359-.195-.395-.109-.176-.109-.305c0-.387-2.141-4.883-3-6.297-.25-.41-.492-.832-.535-.934s-.227-.414-.398-.687-.355-.582-.402-.684c-.285-.609-2.387-3.766-2.656-3.992-.043-.035-.184-.23-.312-.437-.242-.375-2.301-2.973-2.82-3.551-.152-.172-.48-.566-.73-.875-1.855-2.309-7.812-7.656-10.605-9.523-.844-.562-1.094-.738-1.426-.984a61.72 61.72 0 0 0-2.91-1.883c-1.809-1.051-5.754-3.07-6.004-3.07-.109 0-.199-.055-.199-.125s-.078-.125-.176-.125-.34-.078-.531-.18c-.512-.258-1.125-.512-1.98-.816a20.41 20.41 0 0 1-1-.379 62.05 62.05 0 0 0-3.25-1.121l-1.062-.309c-.379-.113-.883-.254-1.125-.312a56.17 56.17 0 0 1-1.312-.348A31.16 31.16 0 0 0 76.063 2l-1.328-.273c-.316-.066-.879-.172-1.25-.23l-1.922-.312c-.687-.109-1.867-.262-2.625-.332C67.27.691 58.34.609 57.813.746m9.875.234c.961.063 1.836.148 1.938.188s.695.133 1.313.199c1.566.172 2.59.324 2.813.422.102.043.555.137 1 .211 1.75.281 2.898.551 5 1.18a16.17 16.17 0 0 0 1 .27 4.23 4.23 0 0 1 .707.242c.215.094.48.176.586.176s.227.055.27.121.215.125.383.125.406.051.523.113c.191.098.512.227 1.594.637.781.297 1.438.559 1.922.773a34.98 34.98 0 0 0 1.188.488c.352.141.695.305.758.367s.223.117.344.117.227.055.227.125.102.125.227.125.277.051.344.113.707.422 1.43.793 1.508.797 1.75.945.523.305.625.352.48.273.836.5.68.414.715.414.691.418 1.457.934 1.438.934 1.496.934.117.047.141.102.492.43 1.043.832 1.02.777 1.043.836.121.102.219.102.176.043.176.094.207.234.461.406.535.387.629.48.41.367.699.609c1.609 1.344 5.516 5.109 6.227 6.004.133.168.531.637.895 1.047l.84.984a127.62 127.62 0 0 0 1.762 2.191c.129.156.238.309.238.34s.477.723 1.063 1.539 1.063 1.523 1.063 1.57.125.266.281.484c.313.441.469.688.848 1.332l.629 1.063c.207.34.41.707.457.809a.9.9 0 0 0 .152.25c.082.066 1.852 3.629 2.168 4.363l.516 1.145c.18.391.324.797.324.898s.055.223.125.266.125.156.125.254.133.469.293.832.391.969.512 1.344.262.797.316.938c.156.383.453 1.309.621 1.93.305 1.121.547 1.938.645 2.184a3.75 3.75 0 0 1 .156.746c.086.707.309 1.703.449 1.996.066.137.148.504.18.813s.152 1.035.262 1.621c.328 1.746.621 4.473.824 7.77.16 2.508.043 6.043-.281 8.625l-.234 1.996c-.062.547-.199 1.473-.309 2.055s-.227 1.313-.262 1.621-.109.676-.176.813c-.117.258-.34 1.285-.449 2.059-.035.238-.109.547-.164.684-.18.441-.508 1.637-.508 1.852 0 .117-.051.309-.109.426s-.207.527-.324.902-.258.797-.316.938a13.52 13.52 0 0 0-.32.934c-.121.375-.348.98-.512 1.344s-.293.738-.293.832-.055.215-.125.254-.125.188-.125.32-.055.344-.117.461-.297.609-.516 1.09c-1.145 2.531-2.687 5.445-4.059 7.672-.402.652-.766 1.211-.809 1.242s-.164.246-.258.469-.211.406-.254.406-.348.406-.687.902-.656.926-.707.945-.094.098-.094.168-.07.195-.156.281c-.391.406-.719.832-.719.934 0 .063-.043.133-.094.156s-.289.293-.527.602c-1.801 2.328-6.234 6.863-8.488 8.676a21.85 21.85 0 0 0-.613.52c-.172.156-.348.281-.391.281s-.242.156-.449.348-.91.734-1.562 1.207-1.207.906-1.23.965-.09.102-.148.102c-.09 0-1.047.617-1.691 1.086-.336.246-.637.422-.836.488-.121.043-.219.117-.219.172s-.098.125-.219.168c-.223.074-.668.336-.781.461-.035.035-.258.164-.5.285s-.719.383-1.062.586a28.8 28.8 0 0 1-1.437.77c-.445.219-.84.438-.875.48s-.187.121-.344.168-.281.141-.281.207-.141.113-.312.113-.312.059-.312.125-.09.125-.199.125-.348.078-.531.176c-.406.215-1.719.813-2.145.977a11.34 11.34 0 0 0-.668.293c-.191.098-.434.176-.531.176-.18 0-.273.039-1.031.418-.227.113-.52.207-.648.207s-.262.051-.301.109-.223.141-.414.176-.652.172-1.031.305c-1.273.445-1.969.656-2.176.656-.109 0-.301.051-.418.109-.445.227-2.52.699-4.406 1.012-.445.074-.91.188-1.031.254s-.465.121-.773.121-.687.055-.844.121-.824.184-1.477.258c-6.75.754-14.262.496-19.875-.684-.516-.109-1.164-.227-1.437-.266s-.613-.117-.75-.172-.727-.215-1.312-.355-1.371-.344-1.75-.457l-1.062-.309c-.582-.164-1.977-.648-2.219-.77-.117-.062-.324-.109-.457-.109s-.402-.078-.594-.176-.496-.23-.668-.301-.52-.211-.77-.32-.52-.203-.594-.203a.97.97 0 0 1-.355-.113 60.77 60.77 0 0 0-1.344-.637c-1.961-.906-4.973-2.441-5.375-2.738-.105-.078-.625-.371-1.875-1.051-.137-.074-.277-.168-.312-.211s-.535-.371-1.113-.73-1.109-.703-1.187-.766l-.574-.484c-.242-.203-.492-.375-.562-.375s-.687-.457-1.375-1.008-1.324-1.035-1.414-1.074-.398-.293-.687-.562-.777-.699-1.086-.945c-.738-.594-4.863-4.715-5.816-5.812l-.871-.996c-.07-.078-.52-.645-.996-1.262s-.914-1.141-.969-1.16-.098-.098-.098-.164-.141-.27-.312-.453-.312-.398-.312-.477-.113-.242-.258-.367-.375-.445-.52-.707-.316-.473-.371-.473-.102-.047-.102-.102-.312-.574-.699-1.156-.75-1.16-.812-1.297c-.125-.281-.391-.715-.492-.812-.035-.035-.133-.203-.215-.375s-.352-.648-.598-1.059-.473-.832-.508-.934a2.53 2.53 0 0 0-.18-.375c-.48-.816-2.059-4.207-2.555-5.488-.121-.309-.258-.645-.309-.746s-.195-.539-.328-.965-.285-.781-.336-.781-.094-.164-.094-.367-.055-.402-.125-.445-.125-.16-.125-.266-.078-.371-.176-.586-.207-.535-.238-.707-.156-.617-.27-.996-.32-1.164-.465-1.746-.305-1.156-.367-1.277-.109-.437-.109-.707-.055-.527-.125-.57S2 74.965 2 74.711a3.45 3.45 0 0 0-.141-.895c-.152-.469-.277-1.27-.477-3.051-.07-.613-.16-1.203-.203-1.309-.613-1.492-.379-13.199.324-16.309.066-.293.121-.734.121-.977s.055-.547.125-.676.184-.59.258-1.023c.18-1.105.32-1.785.555-2.719l.266-1.121A3.48 3.48 0 0 1 3 46.074c.055-.141.168-.504.246-.812.309-1.211.723-2.477 1.086-3.324.094-.215.168-.477.168-.582s.055-.227.125-.27.125-.187.125-.32c0-.246.031-.324.418-1.094.113-.227.207-.523.207-.656s.055-.238.125-.238.125-.086.125-.187c0-.477 2.758-5.941 3.871-7.668a7.97 7.97 0 0 0 .336-.621c.121-.242.25-.465.289-.5s.324-.457.629-.934.633-.949.719-1.043.238-.316.332-.5a2.52 2.52 0 0 1 .438-.566c.145-.133.262-.289.262-.352s.07-.187.156-.277.27-.324.406-.516c.438-.609 1.809-2.344 2.16-2.734.184-.203.645-.738 1.02-1.184.855-1.016 4.402-4.551 5.57-5.547l1.277-1.109a11.93 11.93 0 0 1 .766-.621 30.26 30.26 0 0 0 1.879-1.48c.305-.258.613-.469.691-.469s.277-.129.449-.285.496-.395.719-.527.406-.281.406-.336.066-.098.145-.098.328-.141.555-.312.457-.312.512-.312.242-.129.414-.285a3.8 3.8 0 0 1 .75-.5c.242-.121.547-.285.684-.371 1.75-1.09 7.168-3.832 7.566-3.832.07 0 .227-.047.344-.105a35.65 35.65 0 0 1 .719-.324c.273-.121.598-.27.719-.332s.293-.109.391-.109.336-.082.531-.187.453-.184.57-.187.242-.047.281-.109.223-.137.414-.172.68-.176 1.094-.316 1.258-.402 1.875-.586l1.508-.445c.688-.207 2.367-.547 3.652-.738.434-.066.855-.16.938-.211.152-.098.82-.199 2.652-.41.551-.062 1.254-.172 1.563-.242s1.098-.137 1.75-.145 1.523-.062 1.938-.117c.887-.117 5.637-.055 8.125.109" fill="rgb(54.117647%,54.509804%,52.54902%)"/></svg>