<?xml version="1.0" encoding="UTF-8"?>
<svg xmlns="http://www.w3.org/2000/svg" xmlns:xlink="http://www.w3.org/1999/xlink" width="50pt" height="50pt" viewBox="0 0 50 50" version="1.1">
<g id="surface1">
<path style=" stroke:none;fill-rule:evenodd;fill:rgb(94.901961%,95.294118%,95.686275%);fill-opacity:1;" d="M 0 24.976562 L 0 49.949219 L 50 49.949219 L 50 0 L 0 0 L 0 24.976562 M 26.523438 0.175781 C 27.921875 0.277344 28.429688 0.335938 29.246094 0.480469 C 39.605469 2.304688 47.625 10.265625 49.5 20.578125 C 50.171875 24.257812 49.996094 27.878906 48.957031 31.792969 C 48.414062 33.84375 46.75 37.449219 45.742188 38.761719 C 45.691406 38.828125 45.453125 39.15625 45.21875 39.484375 C 41.992188 44.007812 37.226562 47.363281 31.816406 48.921875 C 30.390625 49.332031 28.765625 49.617188 26.796875 49.800781 C 25.480469 49.921875 22.695312 49.808594 21.277344 49.574219 C 20.285156 49.410156 19.675781 49.292969 19.230469 49.179688 C 16.976562 48.613281 15.007812 47.859375 13.265625 46.90625 C 12.910156 46.710938 12.613281 46.554688 12.609375 46.554688 C 12.601562 46.554688 12.460938 46.46875 12.292969 46.367188 C 5.585938 42.222656 1.457031 35.976562 0.347656 28.296875 C -0.144531 24.878906 0.253906 20.601562 1.375 17.207031 C 1.820312 15.863281 2.949219 13.316406 3.40625 12.636719 C 3.46875 12.542969 3.621094 12.292969 3.746094 12.085938 C 4.25 11.230469 5.09375 10.054688 5.882812 9.101562 C 6.351562 8.535156 7.609375 7.164062 7.6875 7.132812 C 7.707031 7.125 7.960938 6.898438 8.246094 6.632812 C 13.070312 2.144531 20 -0.304688 26.523438 0.175781 M 15.042969 11.390625 C 13.320312 11.753906 12.3125 13.21875 12.632812 14.894531 C 13.238281 18.046875 18.289062 18.019531 18.910156 14.859375 C 19.335938 12.703125 17.332031 10.90625 15.042969 11.390625 M 31.816406 19.277344 C 30.089844 19.535156 28.878906 20.253906 27.878906 21.601562 L 27.546875 22.046875 L 27.523438 20.851562 L 27.496094 19.65625 L 24.664062 19.640625 L 21.828125 19.628906 L 21.828125 36.8125 L 27.523438 36.8125 L 27.523438 31.628906 C 27.523438 25.472656 27.480469 25.847656 28.28125 24.847656 C 29.496094 23.332031 31.941406 23.328125 32.925781 24.84375 C 33.558594 25.820312 33.570312 25.957031 33.566406 31.816406 C 33.566406 34.476562 33.578125 36.6875 33.597656 36.730469 C 33.625 36.804688 33.890625 36.8125 36.445312 36.8125 L 39.261719 36.8125 L 39.261719 31.480469 C 39.257812 25.019531 39.230469 24.625 38.617188 23.105469 C 37.527344 20.398438 34.757812 18.839844 31.816406 19.277344 M 12.921875 19.664062 C 12.902344 19.683594 12.886719 23.546875 12.886719 28.253906 L 12.886719 36.8125 L 18.582031 36.8125 L 18.582031 19.628906 L 15.769531 19.628906 C 14.21875 19.628906 12.9375 19.644531 12.921875 19.664062 "/>
<path style=" stroke:none;fill-rule:evenodd;fill:rgb(1.568627%,32.941176%,51.372549%);fill-opacity:1;" d="M 23.226562 0.234375 C 21.882812 0.363281 20.515625 0.566406 19.707031 0.746094 C 18.296875 1.066406 17.121094 1.429688 15.835938 1.9375 C 15.628906 2.019531 15.335938 2.136719 15.183594 2.199219 C 11.816406 3.539062 7.871094 6.59375 5.414062 9.765625 C 2 14.183594 0.195312 19.449219 0.203125 25 C 0.207031 30.351562 1.882812 35.4375 5.039062 39.710938 C 5.300781 40.0625 5.808594 40.71875 5.917969 40.839844 C 5.945312 40.871094 6.09375 41.039062 6.242188 41.214844 C 6.808594 41.871094 8.007812 43.078125 8.589844 43.585938 C 8.714844 43.695312 8.847656 43.808594 8.882812 43.847656 C 9.523438 44.445312 11.078125 45.558594 12.359375 46.332031 C 12.914062 46.664062 14.914062 47.703125 15.003906 47.703125 C 15.023438 47.703125 15.132812 47.746094 15.246094 47.796875 C 16.179688 48.222656 17.808594 48.769531 19.03125 49.070312 C 30.058594 51.769531 41.332031 46.800781 46.835938 36.8125 C 47.183594 36.183594 47.90625 34.664062 48.035156 34.289062 C 48.070312 34.179688 48.125 34.046875 48.152344 33.992188 C 48.347656 33.582031 48.8125 32.125 49.074219 31.09375 C 50.15625 26.824219 50.074219 22.203125 48.835938 17.980469 C 48.558594 17.039062 48.152344 15.917969 47.847656 15.246094 C 47.796875 15.132812 47.753906 15.023438 47.753906 15.003906 C 47.753906 14.9375 46.710938 12.894531 46.480469 12.511719 C 45.339844 10.605469 43.589844 8.359375 42.375 7.242188 C 42.203125 7.082031 42.015625 6.914062 41.308594 6.269531 C 41.085938 6.066406 40.140625 5.304688 39.886719 5.121094 C 39.8125 5.066406 39.65625 4.949219 39.542969 4.863281 C 37.410156 3.269531 34.226562 1.757812 31.519531 1.050781 C 31.175781 0.960938 30.78125 0.855469 30.644531 0.820312 C 29.921875 0.625 28.3125 0.378906 26.949219 0.25 C 26.449219 0.203125 23.652344 0.191406 23.226562 0.234375 M 16.753906 11.398438 C 19.871094 12.167969 19.753906 16.539062 16.59375 17.210938 C 14.390625 17.679688 12.519531 16.335938 12.519531 14.285156 C 12.519531 12.179688 14.488281 10.835938 16.753906 11.398438 M 33.929688 19.277344 C 36.578125 19.707031 38.433594 21.519531 39.042969 24.265625 C 39.292969 25.40625 39.277344 24.949219 39.296875 31.132812 L 39.316406 36.914062 L 36.429688 36.902344 L 33.542969 36.886719 L 33.515625 31.691406 L 33.484375 26.5 L 33.359375 26.023438 C 32.558594 23.023438 28.917969 22.957031 27.730469 25.921875 L 27.597656 26.25 L 27.574219 31.570312 L 27.546875 36.886719 L 24.695312 36.902344 C 22.445312 36.910156 21.832031 36.902344 21.796875 36.851562 C 21.773438 36.816406 21.757812 33.074219 21.765625 28.183594 L 21.78125 19.578125 L 24.664062 19.59375 L 27.546875 19.605469 L 27.574219 20.746094 L 27.597656 21.890625 L 27.796875 21.597656 C 29.058594 19.746094 31.386719 18.867188 33.929688 19.277344 M 18.667969 28.234375 L 18.679688 36.859375 L 18.570312 36.886719 C 18.507812 36.902344 17.199219 36.910156 15.660156 36.902344 L 12.863281 36.886719 L 12.847656 28.296875 C 12.84375 23.570312 12.847656 19.675781 12.859375 19.640625 C 12.878906 19.59375 13.488281 19.582031 15.769531 19.59375 L 18.65625 19.605469 L 18.667969 28.234375 "/>
<path style=" stroke:none;fill-rule:evenodd;fill:rgb(34.509804%,54.117647%,63.529412%);fill-opacity:1;" d="M 24.664062 0.1875 C 24.894531 0.195312 25.253906 0.195312 25.464844 0.1875 C 25.675781 0.175781 25.488281 0.171875 25.050781 0.171875 C 24.609375 0.171875 24.4375 0.179688 24.664062 0.1875 M 27.285156 0.285156 C 27.332031 0.296875 27.410156 0.296875 27.460938 0.285156 C 27.507812 0.273438 27.46875 0.261719 27.371094 0.261719 C 27.277344 0.261719 27.238281 0.273438 27.285156 0.285156 M 22.140625 0.335938 C 22.1875 0.347656 22.265625 0.347656 22.316406 0.335938 C 22.363281 0.320312 22.324219 0.3125 22.226562 0.3125 C 22.132812 0.3125 22.09375 0.320312 22.140625 0.335938 M 27.734375 0.335938 C 27.78125 0.347656 27.863281 0.347656 27.910156 0.335938 C 27.957031 0.320312 27.917969 0.3125 27.820312 0.3125 C 27.726562 0.3125 27.6875 0.320312 27.734375 0.335938 M 35.214844 2.371094 C 35.285156 2.410156 35.363281 2.445312 35.390625 2.445312 C 35.417969 2.445312 35.382812 2.410156 35.316406 2.371094 C 35.246094 2.332031 35.167969 2.300781 35.140625 2.300781 C 35.113281 2.300781 35.144531 2.332031 35.214844 2.371094 M 14.273438 2.574219 C 14.085938 2.675781 14.097656 2.71875 14.285156 2.621094 C 14.367188 2.578125 14.4375 2.535156 14.4375 2.519531 C 14.4375 2.488281 14.429688 2.492188 14.273438 2.574219 M 13.6875 2.871094 C 13.5625 2.9375 13.480469 2.992188 13.5 2.996094 C 13.554688 2.996094 13.9375 2.800781 13.9375 2.769531 C 13.9375 2.738281 13.9375 2.738281 13.6875 2.871094 M 8.261719 6.65625 L 8.117188 6.816406 L 8.277344 6.671875 C 8.429688 6.535156 8.464844 6.492188 8.425781 6.492188 C 8.417969 6.492188 8.34375 6.566406 8.261719 6.65625 M 41.882812 6.792969 C 41.992188 6.902344 42.089844 6.992188 42.101562 6.992188 C 42.117188 6.992188 42.039062 6.902344 41.933594 6.792969 C 41.824219 6.683594 41.726562 6.59375 41.714844 6.59375 C 41.699219 6.59375 41.777344 6.683594 41.882812 6.792969 M 7.441406 7.429688 L 7.117188 7.765625 L 7.453125 7.445312 C 7.640625 7.265625 7.792969 7.113281 7.792969 7.105469 C 7.792969 7.070312 7.742188 7.117188 7.441406 7.429688 M 43.230469 8.140625 C 43.367188 8.277344 43.488281 8.390625 43.503906 8.390625 C 43.515625 8.390625 43.417969 8.277344 43.28125 8.140625 C 43.144531 8.003906 43.023438 7.890625 43.011719 7.890625 C 42.996094 7.890625 43.097656 8.003906 43.230469 8.140625 M 6.617188 8.304688 L 6.46875 8.464844 L 6.632812 8.320312 C 6.78125 8.183594 6.816406 8.140625 6.777344 8.140625 C 6.769531 8.140625 6.695312 8.214844 6.617188 8.304688 M 15.195312 11.324219 C 15.246094 11.335938 15.324219 11.335938 15.371094 11.324219 C 15.421875 11.3125 15.382812 11.300781 15.285156 11.300781 C 15.1875 11.300781 15.148438 11.3125 15.195312 11.324219 M 13.335938 12.226562 L 13.0625 12.511719 L 13.347656 12.238281 C 13.507812 12.089844 13.636719 11.960938 13.636719 11.953125 C 13.636719 11.914062 13.589844 11.957031 13.335938 12.226562 M 18.03125 12.054688 C 18.03125 12.0625 18.105469 12.136719 18.195312 12.214844 L 18.355469 12.363281 L 18.210938 12.199219 C 18.074219 12.050781 18.03125 12.015625 18.03125 12.054688 M 12.5625 13.636719 C 12.542969 13.722656 12.539062 13.804688 12.550781 13.816406 C 12.5625 13.828125 12.589844 13.769531 12.605469 13.679688 C 12.648438 13.472656 12.605469 13.429688 12.5625 13.636719 M 47.304688 14.0625 C 47.304688 14.089844 47.339844 14.167969 47.378906 14.234375 C 47.417969 14.304688 47.449219 14.339844 47.449219 14.3125 C 47.449219 14.285156 47.417969 14.203125 47.378906 14.136719 C 47.339844 14.066406 47.304688 14.035156 47.304688 14.0625 M 12.5 14.285156 C 12.5 14.410156 12.511719 14.460938 12.523438 14.398438 C 12.535156 14.335938 12.535156 14.234375 12.523438 14.171875 C 12.511719 14.113281 12.5 14.164062 12.5 14.285156 M 12.546875 14.808594 C 12.546875 14.863281 12.5625 14.953125 12.585938 15.011719 C 12.640625 15.136719 12.640625 15.007812 12.585938 14.835938 C 12.554688 14.734375 12.546875 14.730469 12.546875 14.808594 M 18.152344 16.394531 L 18.007812 16.558594 L 18.167969 16.410156 C 18.257812 16.332031 18.332031 16.257812 18.332031 16.25 C 18.332031 16.210938 18.289062 16.246094 18.152344 16.394531 M 1.078125 18.261719 C 1.058594 18.332031 1.054688 18.402344 1.066406 18.414062 C 1.078125 18.425781 1.101562 18.375 1.121094 18.304688 C 1.136719 18.230469 1.144531 18.160156 1.132812 18.148438 C 1.121094 18.136719 1.097656 18.1875 1.078125 18.261719 M 32.105469 19.21875 C 32.191406 19.226562 32.351562 19.226562 32.453125 19.21875 C 32.558594 19.207031 32.484375 19.199219 32.292969 19.195312 C 32.101562 19.195312 32.015625 19.207031 32.105469 19.21875 M 32.929688 19.21875 C 33.03125 19.226562 33.199219 19.226562 33.304688 19.21875 C 33.40625 19.207031 33.324219 19.199219 33.117188 19.199219 C 32.910156 19.199219 32.828125 19.207031 32.929688 19.21875 M 12.859375 19.644531 C 12.847656 19.675781 12.84375 23.570312 12.847656 28.296875 L 12.863281 36.886719 L 15.722656 36.890625 L 18.582031 36.890625 L 15.734375 36.875 L 12.886719 36.863281 L 12.898438 28.222656 C 12.90625 23.46875 12.90625 19.582031 12.898438 19.582031 C 12.890625 19.582031 12.875 19.609375 12.859375 19.644531 M 18.632812 28.238281 L 18.65625 36.886719 L 18.667969 28.273438 C 18.675781 23.535156 18.664062 19.644531 18.644531 19.621094 C 18.625 19.601562 18.617188 23.476562 18.632812 28.238281 M 27.511719 20.722656 C 27.523438 21.777344 27.554688 22.027344 27.648438 21.875 C 27.675781 21.835938 27.667969 21.824219 27.628906 21.847656 C 27.585938 21.875 27.574219 21.597656 27.574219 20.761719 C 27.574219 20.140625 27.554688 19.625 27.535156 19.613281 C 27.515625 19.601562 27.503906 20.097656 27.511719 20.722656 M 21.800781 26.398438 C 21.800781 29.667969 21.808594 30.996094 21.816406 29.355469 C 21.824219 27.710938 21.824219 25.035156 21.816406 23.410156 C 21.808594 21.785156 21.800781 23.128906 21.800781 26.398438 M 28.46875 20.816406 L 28.148438 21.152344 L 28.484375 20.832031 C 28.667969 20.652344 28.820312 20.5 28.820312 20.492188 C 28.820312 20.457031 28.769531 20.503906 28.46875 20.816406 M 37.238281 20.929688 C 37.429688 21.121094 37.597656 21.277344 37.609375 21.277344 C 37.625 21.277344 37.476562 21.121094 37.289062 20.929688 C 37.097656 20.738281 36.929688 20.578125 36.914062 20.578125 C 36.902344 20.578125 37.046875 20.738281 37.238281 20.929688 M 0.3125 22.351562 C 0.3125 22.460938 0.324219 22.5 0.335938 22.441406 C 0.347656 22.378906 0.347656 22.289062 0.335938 22.238281 C 0.320312 22.191406 0.3125 22.242188 0.3125 22.351562 M 49.816406 24.050781 C 49.816406 24.214844 49.824219 24.277344 49.835938 24.1875 C 49.847656 24.097656 49.847656 23.960938 49.835938 23.886719 C 49.824219 23.8125 49.816406 23.886719 49.816406 24.050781 M 32.542969 24.476562 C 32.648438 24.585938 32.75 24.675781 32.761719 24.675781 C 32.777344 24.675781 32.699219 24.585938 32.59375 24.476562 C 32.484375 24.367188 32.386719 24.277344 32.371094 24.277344 C 32.359375 24.277344 32.433594 24.367188 32.542969 24.476562 M 49.816406 25.898438 C 49.816406 26.0625 49.824219 26.125 49.835938 26.035156 C 49.847656 25.945312 49.847656 25.8125 49.835938 25.734375 C 49.824219 25.660156 49.816406 25.734375 49.816406 25.898438 M 39.273438 25.972656 C 39.273438 26.070312 39.28125 26.109375 39.296875 26.0625 C 39.308594 26.011719 39.308594 25.933594 39.296875 25.886719 C 39.28125 25.839844 39.273438 25.878906 39.273438 25.972656 M 27.535156 31.90625 L 27.523438 36.863281 L 24.664062 36.875 L 21.804688 36.890625 L 24.664062 36.902344 C 26.917969 36.910156 27.53125 36.898438 27.550781 36.851562 C 27.5625 36.816406 27.566406 34.574219 27.558594 31.867188 L 27.546875 26.949219 L 27.535156 31.90625 M 33.542969 32.09375 L 33.542969 36.886719 L 36.425781 36.890625 L 39.3125 36.890625 L 36.4375 36.875 L 33.566406 36.863281 L 33.554688 32.078125 L 33.539062 27.296875 L 33.542969 32.09375 M 0.3125 27.621094 C 0.3125 27.746094 0.324219 27.796875 0.335938 27.734375 C 0.347656 27.671875 0.347656 27.570312 0.335938 27.511719 C 0.324219 27.449219 0.3125 27.5 0.3125 27.621094 M 0.359375 28.070312 C 0.359375 28.167969 0.371094 28.207031 0.382812 28.160156 C 0.398438 28.109375 0.398438 28.03125 0.382812 27.984375 C 0.371094 27.9375 0.359375 27.976562 0.359375 28.070312 M 47.609375 35.242188 C 47.527344 35.425781 47.542969 35.464844 47.632812 35.296875 C 47.675781 35.21875 47.699219 35.148438 47.6875 35.136719 C 47.679688 35.125 47.640625 35.171875 47.609375 35.242188 M 5.144531 39.910156 C 5.203125 39.992188 5.261719 40.058594 5.277344 40.058594 C 5.289062 40.058594 5.253906 39.992188 5.195312 39.910156 C 5.136719 39.828125 5.078125 39.761719 5.0625 39.761719 C 5.050781 39.761719 5.085938 39.828125 5.144531 39.910156 M 43.429688 41.621094 L 43.230469 41.832031 L 43.445312 41.636719 C 43.5625 41.527344 43.65625 41.429688 43.65625 41.421875 C 43.65625 41.386719 43.613281 41.421875 43.429688 41.621094 M 6.917969 42.007812 C 7.082031 42.171875 7.226562 42.308594 7.238281 42.308594 C 7.253906 42.308594 7.132812 42.171875 6.96875 42.007812 C 6.804688 41.84375 6.660156 41.707031 6.648438 41.707031 C 6.632812 41.707031 6.753906 41.84375 6.917969 42.007812 M 42.554688 42.546875 L 41.984375 43.132812 L 42.570312 42.558594 C 43.113281 42.027344 43.179688 41.957031 43.144531 41.957031 C 43.136719 41.957031 42.871094 42.222656 42.554688 42.546875 M 8.015625 43.105469 C 8.152344 43.246094 8.273438 43.355469 8.289062 43.355469 C 8.300781 43.355469 8.203125 43.246094 8.066406 43.105469 C 7.929688 42.96875 7.808594 42.855469 7.796875 42.855469 C 7.78125 42.855469 7.882812 42.96875 8.015625 43.105469 M 41.605469 43.445312 L 41.433594 43.632812 L 41.621094 43.460938 C 41.796875 43.300781 41.832031 43.257812 41.792969 43.257812 C 41.785156 43.257812 41.699219 43.339844 41.605469 43.445312 M 36.265625 47.101562 C 36.167969 47.15625 36.105469 47.199219 36.128906 47.199219 C 36.183594 47.203125 36.464844 47.058594 36.464844 47.027344 C 36.464844 46.992188 36.460938 46.996094 36.265625 47.101562 M 14.136719 47.328125 C 14.203125 47.367188 14.285156 47.398438 14.3125 47.398438 C 14.339844 47.398438 14.304688 47.367188 14.234375 47.328125 C 14.167969 47.289062 14.089844 47.257812 14.0625 47.257812 C 14.035156 47.257812 14.066406 47.289062 14.136719 47.328125 M 23.738281 49.785156 C 23.816406 49.796875 23.929688 49.796875 23.988281 49.785156 C 24.050781 49.773438 23.988281 49.765625 23.851562 49.765625 C 23.714844 49.765625 23.664062 49.773438 23.738281 49.785156 M 26.0625 49.785156 C 26.152344 49.796875 26.285156 49.796875 26.363281 49.785156 C 26.4375 49.773438 26.363281 49.765625 26.199219 49.765625 C 26.035156 49.765625 25.972656 49.773438 26.0625 49.785156 "/>
<path style=" stroke:none;fill-rule:evenodd;fill:rgb(46.666667%,67.45098%,74.901961%);fill-opacity:1;" d="M 24.617188 0.136719 C 24.84375 0.144531 25.203125 0.144531 25.414062 0.136719 C 25.625 0.128906 25.441406 0.121094 25 0.121094 C 24.558594 0.121094 24.386719 0.128906 24.617188 0.136719 M 23.539062 0.1875 C 23.640625 0.195312 23.8125 0.195312 23.914062 0.1875 C 24.015625 0.175781 23.933594 0.167969 23.726562 0.167969 C 23.519531 0.167969 23.4375 0.175781 23.539062 0.1875 M 26.210938 0.183594 C 26.273438 0.195312 26.375 0.195312 26.4375 0.183594 C 26.496094 0.171875 26.445312 0.164062 26.324219 0.164062 C 26.199219 0.164062 26.148438 0.171875 26.210938 0.183594 M 8.140625 6.730469 L 7.96875 6.917969 L 8.15625 6.746094 C 8.328125 6.585938 8.363281 6.542969 8.328125 6.542969 C 8.316406 6.542969 8.234375 6.628906 8.140625 6.730469 M 41.90625 6.753906 C 42.027344 6.886719 42.136719 6.992188 42.144531 6.992188 C 42.179688 6.992188 42.140625 6.949219 41.921875 6.742188 L 41.683594 6.519531 L 41.90625 6.753906 M 7.367188 7.453125 L 7.066406 7.765625 L 7.378906 7.46875 C 7.550781 7.304688 7.691406 7.164062 7.691406 7.15625 C 7.691406 7.121094 7.644531 7.164062 7.367188 7.453125 M 43.28125 8.140625 C 43.417969 8.277344 43.539062 8.390625 43.554688 8.390625 C 43.566406 8.390625 43.46875 8.277344 43.332031 8.140625 C 43.195312 8.003906 43.074219 7.890625 43.0625 7.890625 C 43.046875 7.890625 43.144531 8.003906 43.28125 8.140625 M 6.617188 8.253906 L 6.417969 8.464844 L 6.632812 8.269531 C 6.746094 8.160156 6.84375 8.066406 6.84375 8.058594 C 6.84375 8.019531 6.800781 8.058594 6.617188 8.253906 M 15.699219 11.324219 C 15.773438 11.335938 15.886719 11.335938 15.945312 11.324219 C 16.007812 11.3125 15.945312 11.300781 15.808594 11.304688 C 15.671875 11.304688 15.621094 11.3125 15.699219 11.324219 M 17.980469 12.054688 C 17.980469 12.0625 18.054688 12.136719 18.144531 12.214844 L 18.308594 12.363281 L 18.160156 12.199219 C 18.023438 12.050781 17.980469 12.015625 17.980469 12.054688 M 12.554688 14.285156 C 12.554688 14.492188 12.5625 14.574219 12.574219 14.472656 C 12.585938 14.371094 12.585938 14.203125 12.574219 14.097656 C 12.5625 13.996094 12.554688 14.078125 12.554688 14.285156 M 18.152344 16.347656 L 18.007812 16.507812 L 18.167969 16.363281 C 18.320312 16.226562 18.355469 16.183594 18.316406 16.183594 C 18.308594 16.183594 18.234375 16.257812 18.152344 16.347656 M 15.621094 17.269531 C 15.710938 17.28125 15.847656 17.28125 15.921875 17.269531 C 15.996094 17.257812 15.925781 17.246094 15.757812 17.25 C 15.59375 17.25 15.53125 17.257812 15.621094 17.269531 M 18.59375 28.207031 L 18.582031 36.8125 L 15.722656 36.824219 L 12.863281 36.839844 L 15.722656 36.851562 C 17.976562 36.859375 18.589844 36.851562 18.609375 36.800781 C 18.621094 36.765625 18.625 32.882812 18.617188 28.171875 L 18.605469 19.605469 L 18.59375 28.207031 M 21.792969 19.855469 C 21.792969 19.992188 21.800781 20.042969 21.8125 19.96875 C 21.824219 19.890625 21.824219 19.777344 21.8125 19.71875 C 21.800781 19.65625 21.792969 19.71875 21.792969 19.855469 M 28.46875 20.867188 L 28.148438 21.203125 L 28.484375 20.878906 C 28.667969 20.703125 28.820312 20.550781 28.820312 20.542969 C 28.820312 20.507812 28.769531 20.554688 28.46875 20.867188 M 37.085938 20.828125 C 37.195312 20.9375 37.292969 21.027344 37.308594 21.027344 C 37.320312 21.027344 37.246094 20.9375 37.136719 20.828125 C 37.03125 20.71875 36.929688 20.628906 36.917969 20.628906 C 36.902344 20.628906 36.980469 20.71875 37.085938 20.828125 M 0.410156 21.277344 C 0.410156 21.375 0.421875 21.414062 0.433594 21.367188 C 0.445312 21.316406 0.445312 21.238281 0.433594 21.191406 C 0.421875 21.144531 0.410156 21.183594 0.410156 21.277344 M 49.816406 23.375 C 49.816406 23.527344 49.824219 23.589844 49.835938 23.515625 C 49.847656 23.4375 49.847656 23.316406 49.835938 23.238281 C 49.824219 23.164062 49.816406 23.226562 49.816406 23.375 M 0.167969 24.074219 C 0.167969 24.363281 0.175781 24.480469 0.1875 24.339844 C 0.195312 24.195312 0.195312 23.957031 0.1875 23.8125 C 0.175781 23.667969 0.167969 23.789062 0.167969 24.074219 M 30.183594 23.761719 C 30.230469 23.773438 30.308594 23.773438 30.355469 23.761719 C 30.40625 23.75 30.367188 23.738281 30.269531 23.738281 C 30.171875 23.738281 30.132812 23.75 30.183594 23.761719 M 30.980469 23.761719 C 31.03125 23.773438 31.109375 23.773438 31.15625 23.761719 C 31.203125 23.75 31.164062 23.738281 31.070312 23.738281 C 30.972656 23.738281 30.933594 23.75 30.980469 23.761719 M 49.871094 24.375 C 49.871094 24.71875 49.878906 24.859375 49.886719 24.6875 C 49.898438 24.515625 49.898438 24.234375 49.886719 24.0625 C 49.878906 23.890625 49.871094 24.03125 49.871094 24.375 M 31.824219 23.945312 C 31.875 23.992188 32.167969 24.125 32.167969 24.101562 C 32.167969 24.074219 31.890625 23.925781 31.835938 23.925781 C 31.816406 23.925781 31.8125 23.933594 31.824219 23.945312 M 32.566406 24.4375 C 32.6875 24.570312 32.792969 24.675781 32.800781 24.675781 C 32.839844 24.675781 32.800781 24.628906 32.578125 24.421875 L 32.34375 24.199219 L 32.566406 24.4375 M 49.867188 25.800781 C 49.867188 26.046875 49.875 26.152344 49.886719 26.039062 C 49.898438 25.921875 49.898438 25.71875 49.886719 25.589844 C 49.875 25.457031 49.867188 25.550781 49.867188 25.800781 M 27.792969 25.578125 C 27.75 25.664062 27.722656 25.742188 27.734375 25.753906 C 27.746094 25.765625 27.792969 25.695312 27.835938 25.597656 C 27.941406 25.382812 27.90625 25.367188 27.792969 25.578125 M 39.222656 25.773438 C 39.222656 25.898438 39.234375 25.949219 39.246094 25.886719 C 39.257812 25.824219 39.257812 25.722656 39.246094 25.660156 C 39.234375 25.601562 39.222656 25.652344 39.222656 25.773438 M 0.167969 25.949219 C 0.167969 26.140625 0.175781 26.214844 0.1875 26.109375 C 0.195312 26.007812 0.195312 25.847656 0.1875 25.761719 C 0.175781 25.671875 0.164062 25.757812 0.167969 25.949219 M 39.273438 31.507812 L 39.261719 36.8125 L 36.441406 36.8125 C 34.566406 36.8125 33.617188 36.796875 33.597656 36.761719 C 33.585938 36.734375 33.578125 36.738281 33.585938 36.773438 C 33.605469 36.867188 39.253906 36.894531 39.289062 36.800781 C 39.300781 36.765625 39.304688 34.367188 39.296875 31.46875 L 39.285156 26.199219 L 39.273438 31.507812 M 27.535156 26.546875 C 27.535156 26.660156 27.546875 26.699219 27.558594 26.636719 C 27.570312 26.574219 27.570312 26.484375 27.558594 26.433594 C 27.542969 26.386719 27.535156 26.4375 27.535156 26.546875 M 49.816406 26.699219 C 49.816406 26.863281 49.824219 26.925781 49.835938 26.835938 C 49.847656 26.746094 49.847656 26.609375 49.835938 26.535156 C 49.824219 26.460938 49.816406 26.535156 49.816406 26.699219 M 21.800781 35.339844 L 21.804688 36.839844 L 27.523438 36.839844 L 24.675781 36.824219 L 21.828125 36.8125 L 21.816406 35.328125 L 21.800781 33.839844 L 21.800781 35.339844 M 2.601562 35.789062 C 2.601562 35.816406 2.632812 35.894531 2.671875 35.964844 C 2.710938 36.03125 2.742188 36.066406 2.742188 36.039062 C 2.742188 36.011719 2.710938 35.933594 2.671875 35.863281 C 2.632812 35.796875 2.601562 35.761719 2.601562 35.789062 M 43.527344 41.570312 L 43.332031 41.785156 L 43.542969 41.585938 C 43.742188 41.402344 43.777344 41.359375 43.742188 41.359375 C 43.734375 41.359375 43.636719 41.453125 43.527344 41.570312 M 6.816406 41.957031 C 6.953125 42.09375 7.074219 42.207031 7.089844 42.207031 C 7.101562 42.207031 7.003906 42.09375 6.867188 41.957031 C 6.734375 41.820312 6.609375 41.707031 6.597656 41.707031 C 6.582031 41.707031 6.683594 41.820312 6.816406 41.957031 M 42.582031 42.570312 L 42.132812 43.03125 L 42.59375 42.582031 C 43.023438 42.167969 43.078125 42.109375 43.042969 42.109375 C 43.035156 42.109375 42.828125 42.316406 42.582031 42.570312 M 7.417969 42.558594 C 7.523438 42.667969 7.625 42.757812 7.636719 42.757812 C 7.652344 42.757812 7.574219 42.667969 7.46875 42.558594 C 7.359375 42.449219 7.261719 42.359375 7.246094 42.359375 C 7.234375 42.359375 7.308594 42.449219 7.417969 42.558594 M 7.96875 43.105469 C 8.101562 43.246094 8.222656 43.355469 8.238281 43.355469 C 8.25 43.355469 8.152344 43.246094 8.015625 43.105469 C 7.882812 42.96875 7.757812 42.855469 7.746094 42.855469 C 7.730469 42.855469 7.832031 42.96875 7.96875 43.105469 M 13.785156 47.175781 C 13.785156 47.210938 14.09375 47.363281 14.113281 47.339844 C 14.125 47.328125 14.054688 47.285156 13.960938 47.238281 C 13.863281 47.191406 13.785156 47.164062 13.785156 47.175781 M 23.164062 49.785156 C 23.226562 49.796875 23.328125 49.796875 23.390625 49.785156 C 23.449219 49.773438 23.398438 49.765625 23.277344 49.765625 C 23.152344 49.765625 23.101562 49.773438 23.164062 49.785156 M 26.734375 49.785156 C 26.8125 49.796875 26.933594 49.796875 27.011719 49.785156 C 27.085938 49.773438 27.023438 49.765625 26.875 49.765625 C 26.722656 49.765625 26.660156 49.773438 26.734375 49.785156 M 23.816406 49.835938 C 23.90625 49.847656 24.039062 49.847656 24.113281 49.835938 C 24.1875 49.824219 24.117188 49.816406 23.949219 49.816406 C 23.785156 49.816406 23.726562 49.824219 23.816406 49.835938 M 25.785156 49.835938 C 25.917969 49.847656 26.128906 49.847656 26.261719 49.835938 C 26.390625 49.828125 26.285156 49.816406 26.023438 49.816406 C 25.761719 49.816406 25.65625 49.828125 25.785156 49.835938 "/>
<path style=" stroke:none;fill-rule:evenodd;fill:rgb(45.098039%,64.313725%,73.72549%);fill-opacity:1;" d="M 25.886719 0.183594 C 25.933594 0.195312 26.011719 0.195312 26.0625 0.183594 C 26.109375 0.171875 26.070312 0.160156 25.972656 0.160156 C 25.878906 0.160156 25.839844 0.171875 25.886719 0.183594 M 6.964844 7.90625 L 6.816406 8.066406 L 6.980469 7.921875 C 7.132812 7.785156 7.164062 7.742188 7.128906 7.742188 C 7.117188 7.742188 7.046875 7.816406 6.964844 7.90625 M 18.992188 14.335938 C 18.992188 14.433594 19.003906 14.472656 19.015625 14.421875 C 19.027344 14.375 19.027344 14.296875 19.015625 14.25 C 19.003906 14.199219 18.992188 14.238281 18.992188 14.335938 M 14.320312 19.617188 C 15.09375 19.625 16.375 19.625 17.167969 19.617188 C 17.957031 19.609375 17.324219 19.605469 15.757812 19.605469 C 14.191406 19.605469 13.546875 19.609375 14.320312 19.617188 M 23.210938 19.617188 C 23.984375 19.625 25.265625 19.625 26.058594 19.617188 C 26.851562 19.609375 26.214844 19.605469 24.648438 19.605469 C 23.085938 19.605469 22.4375 19.609375 23.210938 19.617188 M 21.792969 20.28125 C 21.792969 20.402344 21.800781 20.453125 21.8125 20.390625 C 21.824219 20.332031 21.824219 20.230469 21.8125 20.167969 C 21.800781 20.105469 21.792969 20.15625 21.792969 20.28125 M 30.53125 23.761719 C 30.609375 23.773438 30.730469 23.773438 30.808594 23.761719 C 30.882812 23.75 30.820312 23.742188 30.667969 23.742188 C 30.519531 23.742188 30.457031 23.75 30.53125 23.761719 M 0.167969 25.101562 C 0.167969 25.402344 0.175781 25.519531 0.1875 25.359375 C 0.195312 25.203125 0.195312 24.953125 0.1875 24.8125 C 0.175781 24.667969 0.167969 24.796875 0.167969 25.101562 M 49.863281 25.175781 C 49.863281 25.296875 49.875 25.347656 49.886719 25.289062 C 49.898438 25.226562 49.898438 25.125 49.886719 25.0625 C 49.875 25 49.863281 25.050781 49.863281 25.175781 M 21.796875 33.09375 C 21.796875 33.53125 21.804688 33.703125 21.816406 33.476562 C 21.824219 33.25 21.824219 32.890625 21.816406 32.675781 C 21.804688 32.464844 21.796875 32.652344 21.796875 33.09375 M 24.535156 49.835938 C 24.71875 49.847656 25.035156 49.847656 25.234375 49.835938 C 25.433594 49.828125 25.285156 49.820312 24.898438 49.820312 C 24.515625 49.820312 24.351562 49.828125 24.535156 49.835938 "/>
</g>
</svg>
