<svg xmlns="http://www.w3.org/2000/svg" width="66.667" height="66.667" viewBox="0 0 50 50" fill-rule="evenodd" xmlns:v="https://vecta.io/nano"><path d="M0 24.977v24.973h50V0H0v24.977M26.523.176l2.723.305C39.605 2.305 47.625 10.266 49.5 20.578c.672 3.68.496 7.301-.543 11.215-.543 2.051-2.207 5.656-3.215 6.969-.051.066-.289.395-.523.723-3.227 4.523-7.992 7.879-13.402 9.438-1.426.41-3.051.695-5.02.879-1.316.121-4.102.008-5.52-.227-.992-.164-1.602-.281-2.047-.395-2.254-.566-4.223-1.32-5.965-2.273l-.656-.352c-.008 0-.148-.086-.316-.187C5.586 42.223 1.457 35.977.348 28.297c-.492-3.418-.094-7.695 1.027-11.09.445-1.344 1.574-3.891 2.031-4.57.063-.094.215-.344.34-.551.504-.855 1.348-2.031 2.137-2.984.469-.566 1.727-1.937 1.805-1.969.02-.008.273-.234.559-.5C13.07 2.145 20-.305 26.523.176m-11.48 11.215c-1.723.363-2.73 1.828-2.41 3.504.605 3.152 5.656 3.125 6.277-.035.426-2.156-1.578-3.953-3.867-3.469m16.773 7.887c-1.727.258-2.937.977-3.937 2.324l-.332.445-.023-1.195-.027-1.195-2.832-.016-2.836-.012v17.184h5.695v-5.184c0-6.156-.043-5.781.758-6.781 1.215-1.516 3.66-1.52 4.645-.004.633.977.645 1.113.641 6.973l.031 4.914c.027.074.293.082 2.848.082h2.816V31.48c-.004-6.461-.031-6.855-.645-8.375-1.09-2.707-3.859-4.266-6.801-3.828m-18.895.387c-.02.02-.035 3.883-.035 8.59v8.559h5.695V19.629H15.77l-2.848.035" fill="rgb(94.901961%,95.294118%,95.686275%)"/><path d="M23.227.234l-3.52.512c-1.41.32-2.586.684-3.871 1.191l-.652.262c-3.367 1.34-7.312 4.395-9.77 7.566C2 14.184.195 19.449.203 25c.004 5.352 1.68 10.438 4.836 14.711.262.352.77 1.008.879 1.129l.324.375a32.13 32.13 0 0 0 2.348 2.371c.125.109.258.223.293.262.641.598 2.195 1.711 3.477 2.484.555.332 2.555 1.371 2.645 1.371.02 0 .129.043.242.094.934.426 2.563.973 3.785 1.273 11.027 2.699 22.301-2.27 27.805-12.258.348-.629 1.07-2.148 1.199-2.523a2.61 2.61 0 0 1 .117-.297c.195-.41.66-1.867.922-2.898 1.082-4.27 1-8.891-.238-13.113-.277-.941-.684-2.062-.988-2.734-.051-.113-.094-.223-.094-.242 0-.066-1.043-2.109-1.273-2.492-1.141-1.906-2.891-4.152-4.105-5.27l-1.066-.973a31.98 31.98 0 0 0-1.422-1.148l-.344-.258C37.41 3.27 34.227 1.758 31.52 1.051l-.875-.23c-.723-.195-2.332-.441-3.695-.57-.5-.047-3.297-.059-3.723-.016m-6.473 11.164c3.117.77 3 5.141-.16 5.812-2.203.469-4.074-.875-4.074-2.926 0-2.105 1.969-3.449 4.234-2.887m17.176 7.879c2.648.43 4.504 2.242 5.113 4.988.25 1.141.234.684.254 6.867l.02 5.781-2.887-.012-2.887-.016-.027-5.195-.031-5.191-.125-.477c-.801-3-4.441-3.066-5.629-.102l-.133.328-.023 5.32-.027 5.316-2.852.016c-2.25.008-2.863 0-2.898-.051-.023-.035-.039-3.777-.031-8.668l.016-8.605 2.883.016 2.883.012.027 1.141.023 1.145.199-.293c1.262-1.852 3.59-2.73 6.133-2.32m-15.262 8.957l.012 8.625-.109.027c-.062.016-1.371.023-2.91.016l-2.797-.016-.016-8.59.012-8.656c.02-.047.629-.059 2.91-.047l2.887.012.012 8.629" fill="rgb(1.568627%,32.941176%,51.372549%)"/><path d="M24.664.188h.801c.211-.012.023-.016-.414-.016l-.387.016m2.621.098c.047.012.125.012.176 0s.008-.023-.09-.023-.133.012-.086.023m-5.145.051c.047.012.125.012.176 0s.008-.023-.09-.023-.133.008-.086.023m5.594 0c.047.012.129.012.176 0s.008-.023-.09-.023-.133.008-.086.023m7.48 2.035c.07.039.148.074.176.074s-.008-.035-.074-.074-.148-.07-.176-.07.004.031.074.07m-20.941.203c-.187.102-.176.145.012.047.082-.043.152-.086.152-.102 0-.031-.008-.027-.164.055m-.586.297c-.125.066-.207.121-.187.125.055 0 .438-.195.438-.227s0-.031-.25.102M8.262 6.656l-.145.16.16-.145c.152-.137.188-.18.148-.18-.008 0-.082.074-.164.164m33.621.137l.219.199c.016 0-.062-.09-.168-.199l-.219-.199c-.016 0 .063.09.168.199M7.441 7.43l-.324.336.336-.32.34-.34c0-.035-.051.012-.352.324m35.789.711l.273.25c.012 0-.086-.113-.223-.25l-.27-.25c-.016 0 .086.113.219.25m-36.613.164l-.148.16.164-.145c.148-.137.184-.18.145-.18-.008 0-.082.074-.16.164m8.578 3.02c.051.012.129.012.176 0s.012-.023-.086-.023-.137.012-.09.023m-1.859.902l-.273.285.285-.273.289-.285c0-.039-.047.004-.301.273m4.695-.172c0 .008.074.082.164.16l.16.148-.145-.164c-.137-.148-.18-.184-.18-.145m-5.469 1.582c-.02.086-.023.168-.012.18s.039-.047.055-.137c.043-.207 0-.25-.043-.043m34.742.426c0 .027.035.105.074.172s.07.105.07.078-.031-.109-.07-.176-.074-.102-.074-.074m-34.805.223c0 .125.012.176.023.113s.012-.164 0-.227-.023-.008-.023.113m.047.523c0 .055.016.145.039.203.055.125.055-.004 0-.176-.031-.102-.039-.105-.039-.027m5.605 1.586l-.145.164.16-.148c.09-.078.164-.152.164-.16 0-.039-.043-.004-.18.145M1.078 18.262c-.02.07-.023.141-.012.152s.035-.039.055-.109.023-.145.012-.156-.035.039-.055.113m31.027.957a2.58 2.58 0 0 0 .348 0c.105-.012.031-.02-.16-.023s-.277.012-.187.023m.824 0c.102.008.27.008.375 0s.02-.02-.187-.02-.289.008-.187.02m-20.07.426c-.012.031-.016 3.926-.012 8.652l.016 8.59 2.859.004h2.859l-2.848-.016-2.848-.012.012-8.641v-8.641c-.008 0-.023.027-.039.063m5.773 8.594l.023 8.648.012-8.613-.023-8.652c-.02-.02-.027 3.855-.012 8.617m8.879-7.516c.012 1.055.043 1.305.137 1.152.027-.039.02-.051-.02-.027s-.055-.25-.055-1.086l-.039-1.148c-.02-.012-.031.484-.023 1.109m-5.711 5.676l.016 2.957V23.41c-.008-1.625-.016-.281-.016 2.988m6.668-5.582l-.32.336.336-.32.336-.34c0-.035-.051.012-.352.324m8.77.113l.371.348c.016 0-.133-.156-.32-.348l-.375-.352c-.012 0 .133.16.324.352M.313 22.352c0 .109.012.148.023.09a.59.59 0 0 0 0-.203c-.016-.047-.023.004-.023.113m49.504 1.699c0 .164.008.227.02.137a1.29 1.29 0 0 0 0-.301c-.012-.074-.02 0-.02.164m-17.273.426c.105.109.207.199.219.199s-.062-.09-.168-.199-.207-.199-.223-.199.063.09.172.199m17.273 1.422c0 .164.008.227.02.137a1.29 1.29 0 0 0 0-.301c-.012-.074-.02 0-.02.164m-10.543.074c0 .098.008.137.023.09s.012-.129 0-.176-.023-.008-.023.086m-11.738 5.934l-.012 4.957-2.859.012-2.859.016 2.859.012 2.887-.051c.012-.035.016-2.277.008-4.984l-.012-4.918-.012 4.957m6.008.188v4.793l2.883.004h2.887l-2.875-.016-2.871-.012-.012-4.785-.016-4.781.004 4.797M.313 27.621c0 .125.012.176.023.113a.71.71 0 0 0 0-.223c-.012-.062-.023-.012-.023.109m.047.449c0 .098.012.137.023.09s.016-.129 0-.176-.023-.008-.023.086m47.25 7.172c-.082.184-.066.223.023.055.043-.078.066-.148.055-.16s-.047.035-.078.105M5.145 39.91c.059.082.117.148.133.148s-.023-.066-.082-.148-.117-.148-.133-.148.023.066.082.148m38.285 1.711l-.199.211.215-.195.211-.215c0-.035-.043 0-.227.199m-36.512.387l.32.301c.016 0-.105-.137-.27-.301l-.32-.301c-.016 0 .105.137.27.301m35.637.539l-.57.586.586-.574.574-.602c-.008 0-.273.266-.59.59m-34.539.559c.137.141.258.25.273.25s-.086-.109-.223-.25l-.27-.25c-.016 0 .086.113.219.25m33.59.34l-.172.188.188-.172c.176-.16.211-.203.172-.203-.008 0-.094.082-.187.188m-5.34 3.656c-.098.055-.16.098-.137.098.055.004.336-.141.336-.172s-.004-.031-.199.074m-22.129.227c.066.039.148.07.176.07s-.008-.031-.078-.07a.52.52 0 0 0-.172-.07c-.027 0 .004.031.074.07m9.602 2.457a.89.89 0 0 0 .25 0c.063-.012 0-.02-.137-.02s-.187.008-.113.02m2.324 0a1.29 1.29 0 0 0 .301 0c.074-.012 0-.02-.164-.02s-.227.008-.137.02" fill="rgb(34.509804%,54.117647%,63.529412%)"/><path d="M24.617.137h.797c.211-.008.027-.016-.414-.016l-.383.016m-1.078.051c.102.008.273.008.375 0s.02-.02-.187-.02-.289.008-.187.02m2.672-.004c.063.012.164.012.227 0s.008-.02-.113-.02-.176.008-.113.02M8.141 6.73l-.172.188.188-.172c.172-.16.207-.203.172-.203-.012 0-.094.086-.187.188m33.766.023l.238.238c.035 0-.004-.043-.223-.25l-.238-.223.223.234m-34.539.699l-.301.313.313-.297.313-.312c0-.035-.047.008-.324.297m35.914.688l.273.25c.012 0-.086-.113-.223-.25l-.27-.25c-.016 0 .082.113.219.25m-36.664.113l-.199.211.215-.195.211-.211c0-.039-.043 0-.227.195m9.082 3.07c.074.012.188.012.246 0s0-.023-.137-.02-.187.008-.109.02m2.281.73c0 .008.074.082.164.16l.164.148-.148-.164c-.137-.148-.18-.184-.18-.145m-5.426 2.23c0 .207.008.289.02.188s.012-.27 0-.375-.02-.02-.02.188m5.598 2.063l-.145.16.16-.145c.152-.137.188-.18.148-.18-.008 0-.082.074-.164.164m-2.531.922a1.29 1.29 0 0 0 .301 0c.074-.012.004-.023-.164-.02s-.227.008-.137.02m2.973 10.938l-.012 8.605-2.859.012-2.859.016 2.859.012 2.887-.051c.012-.035.016-3.918.008-8.629l-.012-8.566-.012 8.602m3.199-8.352c0 .137.008.188.02.113a.89.89 0 0 0 0-.25c-.012-.062-.02 0-.02.137m6.676 1.012l-.32.336.336-.324.336-.336c0-.035-.051.012-.352.324m8.617-.039c.109.109.207.199.223.199s-.062-.09-.172-.199-.207-.199-.219-.199.063.09.168.199M.41 21.277c0 .098.012.137.023.09s.012-.129 0-.176-.023-.008-.023.086m49.406 2.098c0 .152.008.215.02.141a1.1 1.1 0 0 0 0-.277c-.012-.074-.02-.012-.02.137m-49.648.699c0 .289.008.406.02.266s.008-.383 0-.527-.02-.023-.02.262m30.016-.312c.047.012.125.012.172 0s.012-.023-.086-.023-.137.012-.086.023m.797 0c.051.012.129.012.176 0s.008-.023-.086-.023-.137.012-.09.023m18.891.613c0 .344.008.484.016.313a5.56 5.56 0 0 0 0-.625c-.008-.172-.016-.031-.016.313m-18.047-.43c.051.047.344.18.344.156s-.277-.176-.332-.176c-.02 0-.023.008-.012.02m.742.492l.234.238c.039 0 0-.047-.223-.254l-.234-.223.223.238m17.301 1.363c0 .246.008.352.02.238s.012-.32 0-.449-.02-.039-.02.211m-22.074-.223c-.043.086-.07.164-.059.176s.059-.059.102-.156c.105-.215.07-.23-.043-.02m11.43.195c0 .125.012.176.023.113s.012-.164 0-.227-.023-.008-.023.113m-39.055.176c0 .191.008.266.02.16a2.58 2.58 0 0 0 0-.348c-.012-.09-.023-.004-.02.188m39.105 5.559l-.012 5.305h-2.82c-1.875 0-2.824-.016-2.844-.051-.012-.027-.02-.023-.012.012.02.094 5.668.121 5.703.027.012-.035.016-2.434.008-5.332l-.012-5.27-.012 5.309m-11.738-4.961c0 .113.012.152.023.09a.59.59 0 0 0 0-.203c-.016-.047-.023.004-.023.113m22.281.152c0 .164.008.227.02.137a1.29 1.29 0 0 0 0-.301c-.012-.074-.02 0-.02.164M21.801 35.34l.004 1.5h5.719l-2.848-.016-2.848-.012-.012-1.484-.016-1.488v1.5m-19.199.449c0 .027.031.105.07.176s.07.102.07.074-.031-.105-.07-.176-.07-.102-.07-.074m40.926 5.781l-.195.215.211-.199c.199-.184.234-.227.199-.227-.008 0-.105.094-.215.211m-36.711.387l.273.25c.012 0-.086-.113-.223-.25s-.258-.25-.27-.25.086.113.219.25m35.766.613l-.449.461.461-.449.449-.473c-.008 0-.215.207-.461.461m-35.164-.012c.105.109.207.199.219.199s-.062-.09-.168-.199-.207-.199-.223-.199.063.09.172.199m.551.547c.133.141.254.25.27.25s-.086-.109-.223-.25-.258-.25-.27-.25.086.113.223.25m5.816 4.07c0 .035.309.188.328.164.012-.012-.059-.055-.152-.102s-.176-.074-.176-.062m9.379 2.609c.063.012.164.012.227 0s.008-.02-.113-.02-.176.008-.113.02m3.57 0a1.1 1.1 0 0 0 .277 0c.074-.012.012-.02-.137-.02s-.215.008-.141.02m-2.918.051c.09.012.223.012.297 0s.004-.02-.164-.02-.223.008-.133.02m1.969 0c.133.012.344.012.477 0s.023-.02-.238-.02-.367.012-.238.02" fill="rgb(46.666667%,67.45098%,74.901961%)"/><path d="M25.887.184c.047.012.125.012.176 0s.008-.023-.09-.023-.133.012-.086.023M6.965 7.906l-.148.16.164-.145c.152-.137.184-.18.148-.18-.012 0-.082.074-.164.164m12.027 6.43c0 .098.012.137.023.086s.012-.125 0-.172-.023-.012-.023.086m-4.672 5.281h2.848c.789-.008.156-.012-1.41-.012l-1.437.012m8.891 0h2.848c.793-.008.156-.012-1.41-.012l-1.437.012m-1.418.664c0 .121.008.172.02.109a.71.71 0 0 0 0-.223c-.012-.062-.02-.012-.02.113m8.738 3.48a1.1 1.1 0 0 0 .277 0c.074-.012.012-.02-.141-.02s-.211.008-.137.02M.168 25.102c0 .301.008.418.02.258a6.38 6.38 0 0 0 0-.547c-.012-.145-.02-.016-.02.289m49.695.074c0 .121.012.172.023.113s.012-.164 0-.227-.023-.012-.023.113m-28.066 7.918c0 .438.008.609.02.383v-.801c-.012-.211-.02-.023-.02.418m2.738 16.742c.184.012.5.012.699 0s.051-.016-.336-.016l-.363.016" fill="rgb(45.098039%,64.313725%,73.72549%)"/></svg>