<svg xmlns="http://www.w3.org/2000/svg" width="66.667" height="66.667" viewBox="0 0 50 50" fill-rule="evenodd" xmlns:v="https://vecta.io/nano"><path d="M22.809.094c0 .121-.039.129-1.109.254L20.344.57l-.895.203c-.234.043-.523.113-.641.156a4.89 4.89 0 0 1-.566.145 4.7 4.7 0 0 0-.73.223 7.25 7.25 0 0 1-.777.258c-.223.055-.48.152-.578.215s-.27.141-.395.176-.289.105-.371.152-.266.125-.402.172-.348.152-.465.23a3.24 3.24 0 0 1-.508.254c-.164.063-.352.148-.418.199s-.211.125-.32.168-.238.121-.289.168c-.113.105-.574.387-1.09.672-.219.117-.527.316-.691.445l-.402.285c-.059.031-.223.16-.367.285s-.281.223-.305.223c-.051 0-.668.523-.996.844a1.31 1.31 0 0 1-.363.258c-.105.043-.215.148-.305.301-.082.133-.234.297-.344.371s-.371.316-.578.539l-.699.738a6.09 6.09 0 0 0-.52.625 3.7 3.7 0 0 1-.371.473c-.098.098-.277.324-.402.504l-.402.527c-.098.109-.176.219-.176.246 0 .07-.441.73-.605.902-.078.082-.23.332-.34.551-.184.379-.289.563-.664 1.164a3.3 3.3 0 0 0-.266.523c-.055.145-.152.363-.215.488-.281.539-.77 1.707-.863 2.051a7.73 7.73 0 0 1-.227.699c-.07.18-.203.602-.297.938l-.238.754c-.043.078-.098.324-.125.543s-.094.574-.152.789c-.113.43-.203 1.059-.293 2.027l-.141 1.102c-.117.672-.113 2.902.008 3.852l.137 1.125.273 1.723.172.926c.023.219.09.477.141.574s.148.418.219.715.18.664.246.809a5.34 5.34 0 0 1 .203.563 20.54 20.54 0 0 0 1 2.492c.031.055.102.211.156.344s.262.508.461.828.387.66.418.758a2.38 2.38 0 0 0 .25.445l.473.699.668.934c.125.16.266.367.309.457s.137.188.203.219.184.184.266.344c.152.281 2.531 2.801 2.648 2.801.051 0 .414.297.855.695l.32.277.762.559.445.32c.184.148.375.27.762.477.137.074.441.266.676.43.516.352 1.152.695 1.496.809a1.78 1.78 0 0 1 .414.207c.09.066.316.18.5.254s.348.148.363.172.152.082.305.125.379.137.504.199.406.164.625.223a4.62 4.62 0 0 1 .672.23c.148.066.438.156.637.195a3.34 3.34 0 0 1 .539.148c.102.043.43.121.734.176s.676.148.828.203a3.77 3.77 0 0 0 .746.145c1.121.109 1.676.215 1.676.313 0 .09.09.094 2.215.094l2.219-.094c0-.078.051-.098.309-.121.98-.09 2.035-.25 2.402-.359.23-.066.473-.125.539-.125.285-.004 1.949-.457 2.539-.691l.613-.215c.125-.031.313-.105.422-.172s.352-.164.539-.227c.344-.109 1.613-.734 1.848-.906a1.94 1.94 0 0 1 .371-.18c.133-.047.313-.133.395-.191s.246-.141.367-.191.301-.148.395-.223c.176-.137.563-.398.895-.602.102-.059.191-.125.199-.148s.137-.121.285-.223c.309-.211.656-.48.84-.652.066-.062.234-.184.367-.27a2.87 2.87 0 0 0 .445-.363 2.23 2.23 0 0 1 .367-.309c.098-.055.34-.289.543-.52s.461-.492.57-.582.316-.301.461-.465l.52-.574c.324-.344.785-.898.898-1.09.086-.137.27-.379.582-.754a1.73 1.73 0 0 0 .234-.363c.047-.098.117-.211.16-.246s.121-.148.172-.246a2.49 2.49 0 0 1 .27-.402 3.71 3.71 0 0 0 .355-.57c.094-.195.227-.41.289-.48s.172-.27.238-.437.16-.371.215-.449a25.64 25.64 0 0 0 .898-1.883c0-.051.215-.633.297-.805a8.43 8.43 0 0 0 .223-.625l.563-1.926c.273-.988.445-1.84.543-2.727l.121-1.074.172-2.527a19.7 19.7 0 0 0-.242-3.148l-.102-.824c-.027-.277-.129-.805-.223-1.176l-.172-.789c0-.062-.031-.199-.074-.301s-.117-.379-.168-.617-.148-.578-.215-.754l-.27-.766c-.324-.973-.652-1.797-.836-2.117-.109-.184-.234-.449-.277-.59s-.148-.34-.227-.449-.191-.32-.246-.473a1.66 1.66 0 0 0-.223-.398c-.062-.066-.18-.262-.262-.434a4.64 4.64 0 0 0-.387-.629c-.23-.312-.297-.414-.562-.867-.066-.117-.172-.266-.227-.332a3.27 3.27 0 0 1-.23-.312c-.203-.309-.402-.574-.684-.895l-.34-.414a3.24 3.24 0 0 0-.32-.363l-1.121-1.148-1.059-1.004c-.098-.051-.242-.176-.316-.273s-.246-.234-.375-.301-.285-.184-.34-.254-.187-.187-.289-.258-.242-.184-.309-.254a1.48 1.48 0 0 0-.273-.199 2.55 2.55 0 0 1-.32-.215c-.094-.074-.285-.199-.418-.273s-.371-.23-.523-.352-.395-.266-.539-.324-.324-.16-.402-.227-.227-.145-.328-.172-.246-.098-.316-.152a2.62 2.62 0 0 0-.414-.23l-.754-.371c-.258-.129-.621-.289-.812-.352s-.406-.152-.484-.207a1.5 1.5 0 0 0-.414-.172c-.148-.043-.437-.141-.641-.223a7.71 7.71 0 0 0-.816-.266l-.609-.18c-.277-.102-1.746-.398-2.504-.504C27.422.234 27.191.188 27.191.09 27.191.004 27.074 0 25 0l-2.191.094m4.48 1.961c.34.023.738.078.887.121s.543.109.875.152.742.117.91.172l.875.23.801.227a4.8 4.8 0 0 0 .566.168c.402.094.574.16.801.309.098.063.285.137.418.172a2.41 2.41 0 0 1 .469.176l1.141.566 1.148.625c.125.094.305.188.402.207s.27.117.387.215.395.293.613.426.398.266.398.289.082.082.184.137c.195.102.551.379 1.141.898.195.168.375.309.402.309s.219.168.426.375l.418.375c.016 0 .172.16.34.363s.465.5.656.672.387.387.434.473.297.391.555.672l.469.555c0 .02.09.156.195.297l.246.363c.051.094.379.563.633.906a1.26 1.26 0 0 1 .148.289 1.61 1.61 0 0 0 .25.398 3.1 3.1 0 0 1 .477.863c.02.066.109.242.203.387l.164.285a14.59 14.59 0 0 0 .316.688c.328.688.715 1.684.863 2.215.051.164.133.395.188.504.129.25.238.695.285 1.121a2.1 2.1 0 0 0 .129.539c.051.121.148.59.219 1.051l.191 1.035c.254.742.258 5.52 0 6.379-.039.121-.125.57-.195.996s-.168.867-.219.98-.105.352-.125.527c-.047.473-.125.793-.258 1.063a3.66 3.66 0 0 0-.215.602c-.082.32-.344 1.027-.598 1.617l-.09.242c0 .016-.062.125-.145.242s-.199.355-.27.527a2.2 2.2 0 0 1-.199.402c-.043.047-.117.211-.172.367s-.141.352-.195.426-.148.262-.215.41-.156.305-.203.344a.85.85 0 0 0-.164.227c-.086.176-.516.828-.805 1.227l-.363.527a9.37 9.37 0 0 1-.566.699l-.535.664c-.074.117-.172.227-.219.238s-.227.203-.402.414-.43.477-.559.586a12.57 12.57 0 0 0-.578.547 4.72 4.72 0 0 1-.523.477 16.69 16.69 0 0 0-1.109.914c-.145.129-.293.238-.328.238s-.129.063-.211.141-.332.25-.562.383-.484.305-.566.375-.258.176-.387.223-.312.152-.398.23c-.141.125-.602.363-1.754.906l-.539.266a2.06 2.06 0 0 1-.395.152c-.098.02-.316.109-.492.199s-.41.18-.52.199-.418.105-.687.199a13.83 13.83 0 0 1-3.055.727l-1.035.184c-.77.203-5.062.098-6.379-.16l-.887-.152c-.148-.02-.395-.086-.547-.148s-.469-.152-.711-.195-.613-.148-.824-.23a4.72 4.72 0 0 0-.637-.199c-.137-.027-.418-.125-.625-.219l-.5-.207c-.066-.02-.223-.098-.348-.172a1.52 1.52 0 0 0-.395-.176 1.2 1.2 0 0 1-.367-.176 1.53 1.53 0 0 0-.41-.199 1.53 1.53 0 0 1-.402-.195 1.51 1.51 0 0 0-.414-.203 1.27 1.27 0 0 1-.406-.227c-.105-.086-.301-.219-.441-.289s-.488-.293-.781-.496l-.781-.516c-.141-.082-.332-.223-.426-.312s-.184-.164-.203-.164-.219-.156-.437-.352l-.531-.418c-.074-.039-.184-.137-.242-.223s-.266-.273-.449-.426-.414-.359-.504-.461l-.543-.594-.488-.578c-.062-.094-.227-.301-.367-.453-.359-.406-.574-.684-.727-.937-.07-.125-.238-.336-.367-.473s-.316-.387-.41-.555l-.629-1.074-.414-.758-.609-1.199a8.07 8.07 0 0 1-.418-.949l-.285-.801c-.086-.207-.195-.523-.25-.703l-.266-.805c-.094-.266-.187-.613-.207-.773a3.13 3.13 0 0 0-.125-.574c-.051-.152-.141-.613-.199-1.023l-.172-1.023c-.262-1.051-.281-5.805-.027-6.289.023-.047.094-.437.152-.863s.152-.898.207-1.051.129-.453.164-.672c.074-.434.195-.812.637-2.027l.398-1.125a14.47 14.47 0 0 1 .801-1.691 1.75 1.75 0 0 0 .156-.348c.031-.105.211-.426.398-.715l.34-.566a1.07 1.07 0 0 1 .133-.234l.262-.43c.07-.129.254-.371.406-.535s.316-.375.363-.465c.09-.18.348-.512.797-1.035.168-.199.309-.383.309-.41 0-.102 1.141-1.277 1.508-1.555.141-.105.332-.266.422-.359a19.34 19.34 0 0 1 1.816-1.488c.078-.047.215-.137.301-.207a3.62 3.62 0 0 1 .41-.254 2.88 2.88 0 0 0 .469-.336 2.1 2.1 0 0 1 .477-.324 2.9 2.9 0 0 0 .422-.238 1.77 1.77 0 0 1 .383-.207c.121-.047.309-.148.418-.227s.281-.16.383-.18.27-.098.379-.176.254-.16.332-.176a2.29 2.29 0 0 0 .383-.168l.418-.203c.098-.035.34-.141.543-.23s.535-.199.742-.238.473-.125.602-.184a2.71 2.71 0 0 1 .512-.152 7.85 7.85 0 0 0 .73-.195c.242-.078.609-.168.813-.199s.582-.109.836-.172c.938-.238 4-.328 5.961-.176m-2.707 11.801l-13.484.227c-.582.168-1.68.793-1.879 1.07-.074.098-.23.277-.355.406-.504.512-.973 1.691-1.082 2.73-.035.328-.047 2.715-.039 7.215l.016 6.727.109.277.211.621c.125.41.547 1.145.742 1.289.074.055.223.227.324.379.145.211.246.305.438.391.137.059.316.168.395.234.273.23.789.449 1.453.617l.664.168 12.758-.004 13.105-.07a33.59 33.59 0 0 1 .785-.148c.246-.047.523-.129.617-.187a2.5 2.5 0 0 1 .359-.168c.273-.098.801-.496 1.203-.906.195-.203.379-.363.41-.363s.109-.133.176-.289.188-.391.262-.512.164-.34.199-.477a11.4 11.4 0 0 1 .168-.574l.105-.324V17.98l-.16-.621c-.09-.344-.203-.691-.258-.777s-.164-.281-.242-.434c-.238-.453-1.52-1.695-1.746-1.695-.031 0-.219-.082-.414-.18-.242-.121-.496-.199-.809-.25a11.36 11.36 0 0 1-.723-.148c-.152-.039-.422-.066-.598-.059s-5.898.023-12.711.039m13.516 1.695c.406.176.391.246-.145.664l-.645.465s-.254.176-.352.266a4.7 4.7 0 0 1-.418.324l-1.613 1.23c-.184.164-.27.227-.984.73l-1.285.938a12.04 12.04 0 0 1-1.008.758l-.711.551a3.59 3.59 0 0 1-.574.398c-.141.066-.293.18-.34.25s-.23.223-.41.336-.41.281-.508.375-.25.199-.332.242-.312.219-.516.391-.496.395-.656.496c-.277.176-.602.434-1.043.824-.117.105-.273.219-.344.254s-.234.137-.359.227c-.258.191-.984.387-1.094.293-.031-.027-.184-.098-.336-.156s-.309-.141-.344-.184-.176-.152-.312-.246l-.738-.543c-.027-.035-.164-.141-.301-.234l-.668-.453-.488-.367a6.27 6.27 0 0 0-.914-.687.86.86 0 0 1-.219-.164c-.07-.086-1.031-.84-1.418-1.109l-.574-.414-.887-.629a3.85 3.85 0 0 1-.348-.27c-.078-.078-.238-.203-.348-.285s-.371-.277-.574-.441-.715-.559-1.141-.875l-1.078-.812-.66-.488s-.371-.281-.395-.32-.172-.148-.336-.242-.473-.316-.691-.496c-.441-.359-.441-.371-.105-.617.207-.152 25.855-.129 26.211.023M10.59 17.094a14.43 14.43 0 0 1 .371.305c.148.141.434.305.52.305.043 0 .176.105.297.23s.363.328.543.449.355.254.391.297.09.074.129.074.188.109.328.238c.297.277.875.723 1.273.977.152.098.289.199.309.23.035.055.508.426.801.629.105.07.266.191.363.266l.691.52.711.539.984.75.617.457c.563.426 1.113.828 1.281.93a.63.63 0 0 1 .254.336l.082.227-.238.172c-.254.188-.355.266-.637.508a3.79 3.79 0 0 1-.375.285 18.96 18.96 0 0 0-.469.336c-.148.113-.352.246-.453.305a2.95 2.95 0 0 0-.43.32c-.137.125-.297.25-.359.285-.109.059-.531.387-.578.453-.023.027-.191.152-.715.527-.109.074-.367.277-.578.449s-.414.313-.445.313-.129.059-.207.133-.25.199-.371.281a5.84 5.84 0 0 0-.422.332 8.07 8.07 0 0 1-.891.688 5.33 5.33 0 0 0-.43.328 2.87 2.87 0 0 1-.352.266c-.137.09-.281.203-.32.25s-.16.129-.27.176-.355.23-.551.406-.516.43-.711.566-.395.293-.441.344c-.281.297-.652.164-.84-.305l-.117-.289v-6.727c0-7.172.004-7.297.219-7.801l.191-.457c.043-.109.09-.141.238-.152.254-.023.293-.004.605.25m29.496-.191c.094.059.211.207.289.363.07.145.176.32.227.387.078.105.098.203.094.602l.023 4.602c.02 4.133-.035 8.613-.117 9.176-.113.793-.426.93-.98.422a2.26 2.26 0 0 0-.461-.32c-.141-.074-.359-.23-.484-.344-.281-.262-.625-.531-.672-.531-.02 0-.133-.09-.246-.199a2.4 2.4 0 0 0-.426-.305c-.117-.062-.289-.199-.383-.312s-.281-.25-.418-.312a1.45 1.45 0 0 1-.375-.246c-.066-.074-.184-.168-.258-.207s-.258-.184-.406-.32-.379-.305-.516-.375-.277-.172-.309-.227-.141-.152-.234-.207a5.22 5.22 0 0 1-.379-.273c-.113-.094-.227-.168-.254-.168s-.152-.09-.277-.199-.25-.199-.273-.199-.184-.133-.355-.293-.418-.352-.555-.43c-.266-.156-.434-.285-.801-.609a6.24 6.24 0 0 0-.859-.602c-.078-.043-.266-.195-.699-.57-.109-.098-.266-.219-.34-.266-.23-.148-.18-.473.098-.609a1.79 1.79 0 0 0 .348-.23c.074-.074.234-.184.359-.242a2.62 2.62 0 0 0 .406-.27c.445-.379.566-.473.773-.617.121-.086.289-.227.371-.312s.25-.215.379-.281.281-.176.344-.242.203-.168.316-.227a1.38 1.38 0 0 0 .32-.23c.063-.074.195-.172.293-.223s.207-.129.246-.176c.063-.078.316-.266.543-.402.086-.051.445-.336.875-.699.098-.082.363-.285.59-.449.699-.508.883-.648 1.066-.812.098-.09.223-.16.277-.16s.238-.129.406-.293a4.08 4.08 0 0 1 .563-.457c.141-.086.258-.18.258-.207s.055-.066.117-.09.191-.109.285-.191.254-.195.363-.262.266-.191.348-.285c.18-.191.277-.203.5-.066m-11.988 8.973c.086.063.277.18.426.254s.418.281.598.461c.191.184.445.371.605.445.148.07.273.148.273.172s.172.164.383.316.426.32.48.383.199.164.328.23.246.141.262.172a1.26 1.26 0 0 0 .238.18 1.75 1.75 0 0 1 .316.25c.063.066.313.254.551.418s.453.32.469.348.18.152.363.277a19.69 19.69 0 0 1 1.191.902c.41.336.605.477.871.629.145.082.262.168.262.188s.105.105.234.184a4.4 4.4 0 0 1 .406.305 7.02 7.02 0 0 0 .516.395 10.1 10.1 0 0 1 .617.473 7.32 7.32 0 0 0 .559.43l.508.348a1.41 1.41 0 0 1 .34.359l.125.211-.113.07c-.062.039-.324.121-.582.176l-.469.109-12.73.004-12.734.008-.566-.109c-.516-.098-.84-.187-.84-.234 0-.207.301-.527.605-.641.129-.047.234-.102.234-.125s.105-.113.23-.203.281-.215.34-.273.273-.227.484-.379.484-.359.609-.465a4.41 4.41 0 0 1 .426-.324 3.92 3.92 0 0 0 .398-.309c.293-.254.73-.59 1.156-.879.586-.402.902-.629 1.035-.754.066-.062.191-.168.281-.23s.289-.219.449-.348.359-.266.438-.309.316-.227.531-.418.469-.375.566-.414.262-.148.375-.246.344-.293.516-.43.324-.266.332-.289.125-.094.254-.16.254-.145.27-.176.152-.129.301-.227.285-.207.301-.25.113-.121.219-.176.227-.156.27-.223c.172-.266.816-.066 1.363.422.09.078.277.191.426.258s.32.168.391.23c.184.176.293.191 1.266.188 1.156 0 1.398-.082 2.051-.707.156-.145.301-.266.328-.266s.141-.078.254-.176c.246-.207.223-.203.414-.055" fill="rgb(20.784314%,25.882353%,29.803922%)"/><path d="M0 25.004v25.008h11.328l11.332-.094c0-.098-.555-.203-1.676-.312a3.77 3.77 0 0 1-.746-.145c-.152-.055-.523-.145-.828-.203s-.633-.133-.734-.176a3.34 3.34 0 0 0-.539-.148c-.199-.039-.488-.129-.637-.195a4.62 4.62 0 0 0-.672-.23c-.219-.059-.5-.156-.625-.223s-.352-.152-.504-.199-.289-.102-.305-.125-.176-.102-.363-.172-.41-.187-.5-.254a1.78 1.78 0 0 0-.414-.207c-.344-.113-.98-.457-1.496-.809l-.676-.43c-.387-.207-.578-.328-.762-.477a13.37 13.37 0 0 0-.445-.32l-.762-.559-.32-.277c-.441-.398-.805-.695-.855-.695-.117 0-2.496-2.52-2.648-2.801-.082-.16-.203-.312-.266-.344s-.156-.129-.203-.219-.184-.297-.309-.457l-.668-.934-.473-.699a2.38 2.38 0 0 1-.25-.445c-.031-.098-.219-.437-.418-.758s-.406-.695-.461-.828-.125-.289-.156-.344a20.54 20.54 0 0 1-1-2.492 5.34 5.34 0 0 0-.203-.562c-.066-.145-.176-.512-.246-.809s-.168-.617-.219-.715-.117-.355-.141-.574a11.21 11.21 0 0 0-.172-.926c-.121-.52-.176-.855-.273-1.723l-.137-1.125c-.121-.949-.125-3.18-.008-3.852a15.84 15.84 0 0 0 .141-1.102c.09-.969.18-1.598.293-2.027.059-.215.125-.57.152-.789s.082-.465.125-.543.148-.418.238-.754.227-.758.297-.937a7.73 7.73 0 0 0 .227-.699c.094-.344.582-1.512.863-2.051l.215-.488a3.3 3.3 0 0 1 .266-.523l.664-1.164c.109-.219.262-.469.34-.551.164-.172.605-.832.605-.902 0-.027.078-.137.176-.246s.277-.348.402-.527.305-.406.402-.504a3.7 3.7 0 0 0 .371-.473 6.09 6.09 0 0 1 .52-.625l.699-.738c.207-.223.469-.465.578-.539s.262-.238.344-.371c.09-.152.199-.258.305-.301a1.31 1.31 0 0 0 .363-.258c.328-.32.945-.844.996-.844.023 0 .164-.102.305-.223s.309-.254.367-.285.238-.16.402-.285.473-.328.691-.445l1.09-.672c.051-.047.184-.121.289-.168s.25-.121.32-.168.254-.137.418-.199a3.24 3.24 0 0 0 .508-.254c.117-.078.328-.184.465-.23s.32-.121.402-.172.25-.117.371-.152.301-.113.395-.176.355-.16.578-.215a7.25 7.25 0 0 0 .777-.258 4.7 4.7 0 0 1 .73-.223 4.89 4.89 0 0 0 .566-.145c.117-.043.406-.113.641-.156s.637-.137.895-.203.867-.164 1.355-.223c1.07-.125 1.109-.133 1.109-.254 0-.09-.25-.094-11.406-.094H0v25.004M27.191.09c0 .098.23.145 1.699.355.758.105 2.227.402 2.504.504a10.2 10.2 0 0 0 .609.18 7.71 7.71 0 0 1 .816.266c.203.082.492.18.641.223a1.5 1.5 0 0 1 .414.172c.078.055.297.148.484.207s.555.223.813.352a20.74 20.74 0 0 0 .754.371 2.62 2.62 0 0 1 .414.23c.07.055.211.125.316.152s.25.105.328.172.258.168.402.227.387.203.539.324.387.277.523.352.324.199.418.273a2.55 2.55 0 0 0 .32.215 1.48 1.48 0 0 1 .273.199c.066.07.203.184.309.254s.234.188.289.258.207.184.34.254.301.203.375.301.219.223.316.273.574.504 1.059 1.004l1.121 1.148a3.24 3.24 0 0 1 .32.363c.043.066.195.254.34.414.281.32.48.586.684.895a3.27 3.27 0 0 0 .23.313c.055.066.16.215.227.332.266.453.332.555.563.867a4.64 4.64 0 0 1 .387.629c.082.172.199.367.262.434a1.66 1.66 0 0 1 .223.398c.055.152.168.363.246.473s.18.313.227.449.168.406.277.59c.184.32.512 1.145.836 2.117.082.246.207.594.27.766s.16.512.215.754.125.516.168.617.074.238.074.301.078.418.172.789.195.898.223 1.176l.102.824a19.7 19.7 0 0 1 .242 3.148c0 .961-.02 1.234-.172 2.527l-.121 1.074c-.098.887-.27 1.738-.543 2.727-.324 1.18-.406 1.453-.562 1.926a8.43 8.43 0 0 1-.223.625c-.082.172-.297.754-.297.805a25.64 25.64 0 0 1-.898 1.883c-.055.078-.148.277-.215.449s-.172.367-.238.438-.195.285-.289.48a3.71 3.71 0 0 1-.355.57 2.49 2.49 0 0 0-.27.402c-.051.098-.129.211-.172.246s-.113.148-.16.246a1.73 1.73 0 0 1-.234.363c-.312.375-.496.617-.582.754-.113.191-.574.746-.898 1.09a18.58 18.58 0 0 0-.52.574c-.145.164-.352.375-.461.465s-.367.352-.57.582-.445.465-.543.52a2.23 2.23 0 0 0-.367.309 2.87 2.87 0 0 1-.445.363c-.133.086-.301.207-.367.27-.184.172-.531.441-.84.652-.148.102-.277.199-.285.223s-.098.09-.199.148c-.332.203-.719.465-.895.602-.094.074-.273.176-.395.223s-.289.137-.367.191-.262.145-.395.191a1.94 1.94 0 0 0-.371.18c-.234.172-1.504.797-1.848.906-.187.063-.434.164-.539.227s-.297.141-.422.172a7.17 7.17 0 0 0-.613.215c-.59.234-2.254.688-2.539.691-.066 0-.309.059-.539.125-.367.109-1.422.27-2.402.359-.258.023-.309.043-.309.121 0 .09.313.094 11.453.094H50V0H38.598L27.191.09M23.742 2c-1.539.074-1.953.113-2.414.23-.254.063-.633.141-.836.172s-.57.121-.812.199a7.85 7.85 0 0 1-.73.195 2.71 2.71 0 0 0-.512.152c-.129.059-.398.141-.602.184s-.539.148-.742.238-.445.195-.543.23-.281.129-.418.203a2.29 2.29 0 0 1-.383.168c-.078.016-.227.098-.332.176s-.277.156-.379.176-.273.098-.383.18-.297.18-.418.227a1.77 1.77 0 0 0-.383.207 2.9 2.9 0 0 1-.422.238 2.1 2.1 0 0 0-.477.324 2.88 2.88 0 0 1-.469.336 3.62 3.62 0 0 0-.41.254c-.086.07-.223.16-.301.207a19.34 19.34 0 0 0-1.816 1.488c-.09.094-.281.254-.422.359-.367.277-1.508 1.453-1.508 1.555 0 .027-.141.211-.309.41-.449.523-.707.855-.797 1.035-.047.09-.207.297-.363.465s-.336.406-.406.535a6.25 6.25 0 0 1-.262.43 1.07 1.07 0 0 0-.133.234c0 .023-.152.277-.34.566s-.367.609-.398.715a1.75 1.75 0 0 1-.156.348 14.47 14.47 0 0 0-.801 1.691l-.398 1.125c-.441 1.215-.562 1.594-.637 2.027-.035.219-.113.523-.164.672s-.148.625-.207 1.051-.129.816-.152.863c-.254.484-.234 5.238.027 6.289.035.152.113.613.172 1.023s.148.871.199 1.023a3.13 3.13 0 0 1 .125.574c.02.16.113.508.207.773a26.6 26.6 0 0 1 .266.805c.055.18.164.496.25.703s.211.566.285.801a8.07 8.07 0 0 0 .418.949c.379.711.438.824.609 1.199a10.61 10.61 0 0 0 .414.758l.629 1.074c.094.168.277.422.41.555s.297.348.367.473c.152.254.367.531.727.938.141.152.305.359.367.453s.281.355.488.578l.543.594c.09.102.32.313.504.461s.387.344.449.426.168.184.242.223.309.227.531.418.418.352.438.352.109.074.203.164.285.23.426.313a17.8 17.8 0 0 1 .781.516c.293.203.641.426.781.496s.336.203.441.289a1.27 1.27 0 0 0 .406.227 1.51 1.51 0 0 1 .414.203 1.53 1.53 0 0 0 .402.195 1.53 1.53 0 0 1 .41.199 1.2 1.2 0 0 0 .367.176 1.52 1.52 0 0 1 .395.176c.125.074.281.152.348.172s.293.113.5.207.488.191.625.219a4.72 4.72 0 0 1 .637.199c.211.082.582.184.824.23s.563.129.711.195.398.129.547.148a19.05 19.05 0 0 1 .887.152c1.316.258 5.609.363 6.379.16.164-.043.629-.125 1.035-.184a13.83 13.83 0 0 0 3.055-.727c.27-.094.578-.184.688-.199s.344-.105.52-.199.395-.18.492-.199a2.06 2.06 0 0 0 .395-.152c.121-.062.363-.18.539-.266 1.152-.543 1.613-.781 1.754-.906.086-.078.266-.18.398-.23s.305-.148.387-.223.336-.242.566-.375.484-.305.563-.383.176-.141.211-.141.184-.109.328-.238a16.69 16.69 0 0 1 1.109-.914 4.72 4.72 0 0 0 .523-.477 12.57 12.57 0 0 1 .578-.547c.129-.109.383-.371.559-.586s.359-.398.402-.414.145-.121.219-.238.316-.418.535-.664a9.37 9.37 0 0 0 .566-.699 18.92 18.92 0 0 1 .363-.527c.289-.398.719-1.051.805-1.227a.85.85 0 0 1 .164-.227c.047-.039.137-.195.203-.344s.164-.336.215-.41.141-.266.195-.426.129-.32.172-.367a2.2 2.2 0 0 0 .199-.402c.07-.172.191-.41.27-.527s.145-.227.145-.242a2.31 2.31 0 0 1 .09-.242c.254-.59.516-1.297.598-1.617a3.66 3.66 0 0 1 .215-.602c.133-.27.211-.59.258-1.062.02-.176.074-.41.125-.527s.148-.559.219-.98.156-.875.195-.996c.258-.859.254-5.637 0-6.379-.039-.109-.125-.574-.191-1.035s-.168-.93-.219-1.051a2.1 2.1 0 0 1-.129-.539c-.047-.426-.156-.871-.285-1.121-.055-.109-.137-.34-.187-.504-.148-.531-.535-1.527-.863-2.215a14.59 14.59 0 0 1-.316-.687 2.69 2.69 0 0 0-.164-.285c-.094-.145-.184-.32-.203-.387a3.1 3.1 0 0 0-.477-.863 1.61 1.61 0 0 1-.25-.398 1.26 1.26 0 0 0-.148-.289c-.254-.344-.582-.812-.633-.906-.031-.059-.141-.219-.246-.363s-.195-.277-.195-.297-.211-.273-.469-.555-.508-.586-.555-.672-.242-.301-.434-.473-.488-.473-.656-.672-.324-.363-.34-.363-.207-.172-.418-.375-.402-.375-.426-.375-.207-.141-.402-.309c-.59-.52-.945-.797-1.141-.898-.102-.055-.184-.117-.184-.137s-.18-.152-.398-.289-.496-.324-.613-.426-.289-.195-.387-.215-.277-.113-.402-.207-.641-.379-1.148-.625l-1.141-.566a2.41 2.41 0 0 0-.469-.176c-.133-.035-.32-.109-.418-.172-.227-.148-.398-.215-.801-.309a4.8 4.8 0 0 1-.566-.168c-.129-.051-.488-.152-.801-.227s-.703-.18-.875-.23-.578-.133-.91-.172-.723-.113-.875-.152c-.543-.152-2.934-.246-4.434-.176m14.148 11.875a11.36 11.36 0 0 0 .723.148c.313.051.566.129.809.25.195.098.383.18.414.18.227 0 1.508 1.242 1.746 1.695.078.152.188.352.242.434s.168.434.258.777l.16.621v14.203l-.105.324a11.4 11.4 0 0 0-.168.574c-.035.137-.121.352-.199.477s-.191.352-.262.512-.148.289-.176.289-.215.16-.41.363c-.402.41-.93.809-1.203.906a2.5 2.5 0 0 0-.359.168c-.094.059-.371.141-.617.188l-.785.148c-.285.055-2.586.066-13.105.07l-12.758.004-.664-.168c-.664-.168-1.18-.387-1.453-.617-.078-.066-.258-.176-.395-.234-.191-.086-.293-.18-.437-.391-.102-.152-.25-.324-.324-.379-.195-.145-.617-.879-.742-1.289-.059-.191-.156-.469-.211-.621l-.109-.277-.016-6.727.039-7.215c.109-1.039.578-2.219 1.082-2.73.125-.129.281-.309.355-.406.199-.277 1.297-.902 1.879-1.07.668-.195.715-.199 13.484-.227l12.711-.039c.176-.008.445.02.598.059m-26.004 1.652c-.336.246-.336.258.105.617.219.18.531.406.691.496s.316.203.336.242.199.184.395.32.492.355.66.488l1.078.813c.426.316.938.711 1.141.875s.461.363.574.441.27.207.348.285a3.85 3.85 0 0 0 .348.27c.211.141.348.238.887.629l.574.414c.387.27 1.348 1.023 1.418 1.109a.86.86 0 0 0 .219.164 6.27 6.27 0 0 1 .914.688c.035.043.254.207.488.367l.668.453c.137.094.273.199.301.234.047.063.293.242.738.543.137.094.277.203.313.246s.191.125.344.184.305.129.336.156c.109.094.836-.102 1.094-.293.125-.09.285-.195.359-.227s.227-.148.344-.254c.441-.391.766-.648 1.043-.824.16-.102.453-.324.656-.496s.438-.348.516-.391.23-.152.332-.242.328-.262.508-.375.363-.266.41-.336.199-.184.34-.25a3.59 3.59 0 0 0 .574-.398c.176-.152.496-.398.711-.551a12.04 12.04 0 0 0 1.008-.758c.184-.156.586-.445 1.285-.937.715-.504.801-.566.984-.73.207-.184 1.289-1.008 1.613-1.23a4.7 4.7 0 0 0 .418-.324c.098-.09.258-.207.352-.266s.383-.266.645-.465c.535-.418.551-.488.145-.664-.355-.152-26.004-.176-26.211-.023m-1.902 1.316c-.148.012-.195.043-.238.152-.027.074-.113.277-.191.457-.215.504-.219.629-.219 7.801v6.727l.117.289c.188.469.559.602.84.305.047-.051.246-.203.441-.344s.516-.391.711-.566.441-.359.551-.406.23-.125.27-.176.184-.16.32-.25a2.87 2.87 0 0 0 .352-.266 5.33 5.33 0 0 1 .43-.328 8.07 8.07 0 0 0 .891-.687 5.84 5.84 0 0 1 .422-.332c.121-.082.289-.211.371-.281s.172-.133.207-.133.234-.141.445-.312.469-.375.578-.449l.715-.527c.047-.066.469-.395.578-.453.063-.035.223-.16.359-.285a2.95 2.95 0 0 1 .43-.32c.102-.059.305-.191.453-.305l.469-.336a3.79 3.79 0 0 0 .375-.285c.281-.242.383-.32.637-.508l.238-.172-.082-.227a.63.63 0 0 0-.254-.336c-.168-.102-.719-.504-1.281-.93l-.617-.457a25.06 25.06 0 0 1-.984-.75l-.711-.539-.691-.52c-.098-.074-.258-.195-.363-.266-.293-.203-.766-.574-.801-.629-.02-.031-.156-.133-.309-.23-.398-.254-.977-.699-1.273-.977-.141-.129-.289-.238-.328-.238s-.098-.035-.129-.074-.211-.176-.391-.297-.426-.324-.543-.449-.254-.23-.297-.23c-.086 0-.371-.164-.52-.305-.52-.473-.703-.578-.977-.555m29.602.125c-.082.094-.242.223-.348.285s-.273.184-.363.262-.219.164-.285.191-.117.066-.117.09-.117.121-.258.207a4.08 4.08 0 0 0-.562.457c-.168.164-.348.293-.406.293s-.18.07-.277.16c-.184.164-.367.305-1.066.813-.227.164-.492.367-.59.449-.43.363-.789.648-.875.699-.227.137-.48.324-.543.402-.039.047-.148.125-.246.176s-.23.148-.293.223a1.38 1.38 0 0 1-.32.23c-.113.059-.254.16-.316.227s-.215.176-.344.242-.297.191-.379.281-.25.227-.371.313c-.207.145-.328.238-.773.617a2.62 2.62 0 0 1-.406.27c-.125.059-.285.168-.359.242a1.79 1.79 0 0 1-.348.23c-.277.137-.328.461-.098.609.074.047.23.168.34.266.434.375.621.527.699.57a6.24 6.24 0 0 1 .859.602c.367.324.535.453.801.609.137.078.387.27.555.43s.332.293.355.293.148.09.273.199.25.199.277.199.141.074.254.168a5.22 5.22 0 0 0 .379.273c.094.055.199.148.234.207s.172.156.309.227.367.238.516.375.328.277.406.32.191.133.258.207a1.45 1.45 0 0 0 .375.246c.137.063.324.203.418.313s.266.25.383.313a2.4 2.4 0 0 1 .426.305c.113.109.227.199.246.199.047 0 .391.27.672.531.125.113.344.27.484.344a2.26 2.26 0 0 1 .461.32c.555.508.867.371.98-.422.082-.562.137-5.043.117-9.176l-.023-4.602c.004-.398-.016-.496-.094-.602-.051-.066-.156-.242-.227-.387-.227-.457-.531-.57-.789-.297M27.684 25.93c-.113.098-.227.176-.254.176s-.172.121-.328.266c-.652.625-.895.707-2.051.707-.973.004-1.082-.012-1.266-.187-.07-.062-.246-.168-.391-.23s-.336-.18-.426-.258c-.547-.488-1.191-.687-1.363-.422-.043.066-.164.168-.27.223s-.203.133-.219.176-.152.156-.301.25-.281.199-.301.227-.137.109-.27.176-.246.141-.254.16-.16.152-.332.289-.406.332-.516.43-.281.211-.375.246-.352.227-.566.414-.457.379-.531.418-.273.18-.437.309-.363.285-.449.348-.215.168-.281.23c-.133.125-.449.352-1.035.754-.426.289-.863.625-1.156.879a3.92 3.92 0 0 1-.398.309 4.41 4.41 0 0 0-.426.324c-.125.105-.398.316-.609.465s-.43.324-.484.379-.211.18-.34.273-.23.184-.23.203-.105.078-.234.125c-.305.113-.605.434-.605.641 0 .047.324.137.84.234l.566.109 12.734-.008 12.73-.004.469-.109c.258-.055.52-.137.582-.176l.113-.07-.125-.211a1.41 1.41 0 0 0-.34-.359l-.508-.348a7.32 7.32 0 0 1-.559-.43 10.1 10.1 0 0 0-.617-.473 7.02 7.02 0 0 1-.516-.395 4.4 4.4 0 0 0-.406-.305c-.129-.078-.234-.164-.234-.184s-.117-.105-.262-.187c-.266-.152-.461-.293-.871-.629a19.69 19.69 0 0 0-1.191-.902c-.184-.125-.344-.25-.363-.277s-.227-.184-.469-.348-.488-.352-.551-.418a1.75 1.75 0 0 0-.316-.25 1.26 1.26 0 0 1-.238-.18c-.016-.031-.137-.109-.262-.172s-.273-.168-.328-.23-.273-.234-.48-.383S30 27.23 30 27.207s-.125-.102-.273-.172c-.16-.074-.414-.262-.605-.445-.18-.18-.449-.383-.598-.461s-.34-.191-.426-.254c-.191-.148-.168-.152-.414.055" fill="rgb(97.647059%,98.039216%,98.039216%)"/></svg>