<?xml version="1.0" encoding="UTF-8"?>
<svg xmlns="http://www.w3.org/2000/svg" xmlns:xlink="http://www.w3.org/1999/xlink" width="50pt" height="50pt" viewBox="0 0 50 50" version="1.1">
<g id="surface1">
<path style=" stroke:none;fill-rule:evenodd;fill:rgb(20.784314%,25.882353%,29.803922%);fill-opacity:1;" d="M 22.808594 0.09375 C 22.808594 0.214844 22.769531 0.222656 21.699219 0.347656 C 21.210938 0.40625 20.601562 0.507812 20.34375 0.570312 C 20.085938 0.636719 19.683594 0.726562 19.449219 0.773438 C 19.214844 0.816406 18.925781 0.886719 18.808594 0.929688 C 18.691406 0.972656 18.4375 1.035156 18.242188 1.074219 C 18.046875 1.113281 17.71875 1.210938 17.511719 1.296875 C 17.304688 1.382812 16.957031 1.496094 16.734375 1.554688 C 16.511719 1.609375 16.253906 1.707031 16.15625 1.769531 C 16.0625 1.832031 15.886719 1.910156 15.761719 1.945312 C 15.640625 1.980469 15.472656 2.050781 15.390625 2.097656 C 15.308594 2.148438 15.125 2.222656 14.988281 2.269531 C 14.851562 2.316406 14.640625 2.421875 14.523438 2.5 C 14.40625 2.578125 14.175781 2.691406 14.015625 2.753906 C 13.851562 2.816406 13.664062 2.902344 13.597656 2.953125 C 13.527344 3 13.386719 3.078125 13.277344 3.121094 C 13.171875 3.167969 13.039062 3.242188 12.988281 3.289062 C 12.875 3.394531 12.414062 3.675781 11.898438 3.960938 C 11.679688 4.078125 11.371094 4.277344 11.207031 4.40625 C 11.042969 4.53125 10.863281 4.660156 10.804688 4.691406 C 10.746094 4.722656 10.582031 4.851562 10.4375 4.976562 C 10.296875 5.097656 10.15625 5.199219 10.132812 5.199219 C 10.082031 5.199219 9.464844 5.722656 9.136719 6.042969 C 9.03125 6.148438 8.867188 6.265625 8.773438 6.300781 C 8.667969 6.34375 8.558594 6.449219 8.46875 6.601562 C 8.386719 6.734375 8.234375 6.898438 8.125 6.972656 C 8.015625 7.046875 7.753906 7.289062 7.546875 7.511719 C 7.335938 7.730469 7.023438 8.066406 6.847656 8.25 C 6.671875 8.433594 6.4375 8.714844 6.328125 8.875 C 6.222656 9.035156 6.054688 9.25 5.957031 9.347656 C 5.859375 9.445312 5.679688 9.671875 5.554688 9.851562 C 5.429688 10.03125 5.25 10.265625 5.152344 10.378906 C 5.054688 10.488281 4.976562 10.597656 4.976562 10.625 C 4.976562 10.695312 4.535156 11.355469 4.371094 11.527344 C 4.292969 11.609375 4.140625 11.859375 4.03125 12.078125 C 3.847656 12.457031 3.742188 12.640625 3.367188 13.242188 C 3.273438 13.386719 3.15625 13.621094 3.101562 13.765625 C 3.046875 13.910156 2.949219 14.128906 2.886719 14.253906 C 2.605469 14.792969 2.117188 15.960938 2.023438 16.304688 C 1.96875 16.511719 1.867188 16.824219 1.796875 17.003906 C 1.726562 17.183594 1.59375 17.605469 1.5 17.941406 C 1.410156 18.277344 1.300781 18.617188 1.261719 18.695312 C 1.21875 18.773438 1.164062 19.019531 1.136719 19.238281 C 1.109375 19.457031 1.042969 19.8125 0.984375 20.027344 C 0.871094 20.457031 0.78125 21.085938 0.691406 22.054688 C 0.660156 22.398438 0.597656 22.894531 0.550781 23.15625 C 0.433594 23.828125 0.4375 26.058594 0.558594 27.007812 C 0.605469 27.378906 0.667969 27.882812 0.695312 28.132812 C 0.792969 29 0.847656 29.335938 0.96875 29.855469 C 1.035156 30.144531 1.113281 30.558594 1.140625 30.78125 C 1.164062 31 1.230469 31.257812 1.28125 31.355469 C 1.332031 31.453125 1.429688 31.773438 1.5 32.070312 C 1.570312 32.367188 1.679688 32.734375 1.746094 32.878906 C 1.8125 33.027344 1.902344 33.28125 1.949219 33.441406 C 2.109375 33.996094 2.738281 35.566406 2.949219 35.933594 C 2.980469 35.988281 3.050781 36.144531 3.105469 36.277344 C 3.160156 36.410156 3.367188 36.785156 3.566406 37.105469 C 3.765625 37.425781 3.953125 37.765625 3.984375 37.863281 C 4.015625 37.957031 4.128906 38.15625 4.234375 38.308594 C 4.339844 38.460938 4.554688 38.773438 4.707031 39.007812 C 5.035156 39.5 5.070312 39.550781 5.375 39.941406 C 5.5 40.101562 5.640625 40.308594 5.683594 40.398438 C 5.730469 40.488281 5.820312 40.585938 5.886719 40.617188 C 5.949219 40.648438 6.070312 40.800781 6.152344 40.960938 C 6.304688 41.242188 8.683594 43.761719 8.800781 43.761719 C 8.851562 43.761719 9.214844 44.058594 9.65625 44.457031 C 9.777344 44.566406 9.921875 44.691406 9.976562 44.734375 C 10.28125 44.972656 10.496094 45.128906 10.738281 45.292969 C 10.886719 45.394531 11.085938 45.539062 11.183594 45.613281 C 11.367188 45.761719 11.558594 45.882812 11.945312 46.089844 C 12.082031 46.164062 12.386719 46.355469 12.621094 46.519531 C 13.136719 46.871094 13.773438 47.214844 14.117188 47.328125 C 14.257812 47.375 14.441406 47.46875 14.53125 47.535156 C 14.621094 47.601562 14.847656 47.714844 15.03125 47.789062 C 15.21875 47.859375 15.378906 47.9375 15.394531 47.960938 C 15.410156 47.984375 15.546875 48.042969 15.699219 48.085938 C 15.851562 48.132812 16.078125 48.222656 16.203125 48.285156 C 16.328125 48.351562 16.609375 48.449219 16.828125 48.507812 C 17.046875 48.5625 17.347656 48.667969 17.5 48.738281 C 17.648438 48.804688 17.9375 48.894531 18.136719 48.933594 C 18.335938 48.972656 18.578125 49.039062 18.675781 49.082031 C 18.777344 49.125 19.105469 49.203125 19.410156 49.257812 C 19.714844 49.316406 20.085938 49.40625 20.238281 49.460938 C 20.390625 49.515625 20.726562 49.582031 20.984375 49.605469 C 22.105469 49.714844 22.660156 49.820312 22.660156 49.917969 C 22.660156 50.007812 22.75 50.011719 24.875 50.011719 C 27.007812 50.011719 27.09375 50.007812 27.09375 49.917969 C 27.09375 49.839844 27.144531 49.820312 27.402344 49.796875 C 28.382812 49.707031 29.4375 49.546875 29.804688 49.4375 C 30.035156 49.371094 30.277344 49.3125 30.34375 49.3125 C 30.628906 49.308594 32.292969 48.855469 32.882812 48.621094 C 33.101562 48.535156 33.375 48.4375 33.496094 48.40625 C 33.621094 48.375 33.808594 48.300781 33.917969 48.234375 C 34.023438 48.171875 34.269531 48.070312 34.457031 48.007812 C 34.800781 47.898438 36.070312 47.273438 36.304688 47.101562 C 36.375 47.050781 36.539062 46.972656 36.675781 46.921875 C 36.808594 46.875 36.988281 46.789062 37.070312 46.730469 C 37.148438 46.675781 37.316406 46.589844 37.4375 46.539062 C 37.558594 46.492188 37.738281 46.390625 37.832031 46.316406 C 38.007812 46.179688 38.394531 45.917969 38.726562 45.714844 C 38.828125 45.65625 38.917969 45.589844 38.925781 45.566406 C 38.933594 45.542969 39.0625 45.445312 39.210938 45.34375 C 39.519531 45.132812 39.867188 44.863281 40.050781 44.691406 C 40.117188 44.628906 40.285156 44.507812 40.417969 44.421875 C 40.554688 44.335938 40.753906 44.171875 40.863281 44.058594 C 40.96875 43.945312 41.136719 43.808594 41.230469 43.75 C 41.328125 43.695312 41.570312 43.460938 41.773438 43.230469 C 41.976562 43 42.234375 42.738281 42.34375 42.648438 C 42.453125 42.558594 42.660156 42.347656 42.804688 42.183594 C 42.945312 42.019531 43.179688 41.761719 43.324219 41.609375 C 43.648438 41.265625 44.109375 40.710938 44.222656 40.519531 C 44.308594 40.382812 44.492188 40.140625 44.804688 39.765625 C 44.890625 39.664062 44.996094 39.503906 45.039062 39.402344 C 45.085938 39.304688 45.15625 39.191406 45.199219 39.15625 C 45.242188 39.121094 45.320312 39.007812 45.371094 38.910156 C 45.417969 38.808594 45.542969 38.628906 45.640625 38.507812 C 45.742188 38.386719 45.898438 38.128906 45.996094 37.9375 C 46.089844 37.742188 46.222656 37.527344 46.285156 37.457031 C 46.351562 37.386719 46.457031 37.1875 46.523438 37.019531 C 46.589844 36.847656 46.683594 36.648438 46.738281 36.570312 C 46.84375 36.414062 47.636719 34.753906 47.636719 34.6875 C 47.636719 34.636719 47.851562 34.054688 47.933594 33.882812 C 47.960938 33.828125 48.0625 33.546875 48.15625 33.257812 C 48.3125 32.785156 48.394531 32.511719 48.71875 31.332031 C 48.992188 30.34375 49.164062 29.492188 49.261719 28.605469 C 49.285156 28.371094 49.339844 27.890625 49.382812 27.53125 C 49.535156 26.238281 49.554688 25.964844 49.554688 25.003906 C 49.550781 23.871094 49.488281 23.019531 49.3125 21.855469 C 49.285156 21.675781 49.242188 21.304688 49.210938 21.03125 C 49.183594 20.753906 49.082031 20.226562 48.988281 19.855469 C 48.894531 19.484375 48.816406 19.128906 48.816406 19.066406 C 48.816406 19.003906 48.785156 18.867188 48.742188 18.765625 C 48.699219 18.664062 48.625 18.386719 48.574219 18.148438 C 48.519531 17.90625 48.425781 17.570312 48.359375 17.394531 C 48.296875 17.222656 48.171875 16.875 48.089844 16.628906 C 47.765625 15.65625 47.4375 14.832031 47.253906 14.511719 C 47.144531 14.328125 47.019531 14.0625 46.976562 13.921875 C 46.929688 13.785156 46.828125 13.582031 46.75 13.472656 C 46.671875 13.363281 46.558594 13.152344 46.503906 13 C 46.445312 12.851562 46.34375 12.671875 46.28125 12.601562 C 46.21875 12.535156 46.101562 12.339844 46.019531 12.167969 C 45.9375 12 45.765625 11.714844 45.632812 11.539062 C 45.402344 11.226562 45.335938 11.125 45.070312 10.671875 C 45.003906 10.554688 44.898438 10.40625 44.84375 10.339844 C 44.789062 10.277344 44.683594 10.136719 44.613281 10.027344 C 44.410156 9.71875 44.210938 9.453125 43.929688 9.132812 C 43.785156 8.972656 43.632812 8.785156 43.589844 8.71875 C 43.546875 8.652344 43.402344 8.488281 43.269531 8.355469 C 43.136719 8.226562 42.632812 7.707031 42.148438 7.207031 C 41.664062 6.707031 41.1875 6.253906 41.089844 6.203125 C 40.992188 6.152344 40.847656 6.027344 40.773438 5.929688 C 40.699219 5.832031 40.527344 5.695312 40.398438 5.628906 C 40.265625 5.558594 40.113281 5.445312 40.058594 5.375 C 40.003906 5.304688 39.871094 5.1875 39.769531 5.117188 C 39.664062 5.046875 39.527344 4.933594 39.460938 4.863281 C 39.390625 4.796875 39.269531 4.707031 39.1875 4.664062 C 39.105469 4.621094 38.960938 4.523438 38.867188 4.449219 C 38.773438 4.375 38.582031 4.25 38.449219 4.175781 C 38.3125 4.101562 38.078125 3.945312 37.925781 3.824219 C 37.773438 3.703125 37.53125 3.558594 37.386719 3.5 C 37.242188 3.441406 37.0625 3.339844 36.984375 3.273438 C 36.90625 3.207031 36.757812 3.128906 36.65625 3.101562 C 36.550781 3.074219 36.410156 3.003906 36.339844 2.949219 C 36.269531 2.894531 36.082031 2.789062 35.925781 2.71875 C 35.769531 2.648438 35.429688 2.480469 35.171875 2.347656 C 34.914062 2.21875 34.550781 2.058594 34.359375 1.996094 C 34.171875 1.9375 33.953125 1.84375 33.875 1.789062 C 33.800781 1.734375 33.613281 1.65625 33.460938 1.617188 C 33.3125 1.574219 33.023438 1.476562 32.820312 1.394531 C 32.617188 1.3125 32.25 1.191406 32.003906 1.128906 C 31.753906 1.0625 31.480469 0.980469 31.394531 0.949219 C 31.117188 0.847656 29.648438 0.550781 28.890625 0.445312 C 27.421875 0.234375 27.191406 0.1875 27.191406 0.0898438 C 27.191406 0.00390625 27.074219 0 25 0 C 22.882812 0 22.808594 0.00390625 22.808594 0.09375 M 27.289062 2.054688 C 27.628906 2.078125 28.027344 2.132812 28.175781 2.175781 C 28.328125 2.214844 28.71875 2.285156 29.050781 2.328125 C 29.382812 2.367188 29.792969 2.445312 29.960938 2.5 C 30.132812 2.550781 30.527344 2.65625 30.835938 2.730469 C 31.148438 2.804688 31.507812 2.90625 31.636719 2.957031 C 31.761719 3.007812 32.019531 3.082031 32.203125 3.125 C 32.605469 3.21875 32.777344 3.285156 33.003906 3.433594 C 33.101562 3.496094 33.289062 3.570312 33.421875 3.605469 C 33.558594 3.636719 33.769531 3.71875 33.890625 3.78125 C 34.011719 3.847656 34.527344 4.101562 35.03125 4.347656 C 35.539062 4.59375 36.054688 4.875 36.179688 4.972656 C 36.304688 5.066406 36.484375 5.160156 36.582031 5.179688 C 36.679688 5.199219 36.851562 5.296875 36.96875 5.394531 C 37.085938 5.496094 37.363281 5.6875 37.582031 5.820312 C 37.800781 5.957031 37.980469 6.085938 37.980469 6.109375 C 37.980469 6.128906 38.0625 6.191406 38.164062 6.246094 C 38.359375 6.347656 38.714844 6.625 39.304688 7.144531 C 39.5 7.3125 39.679688 7.453125 39.707031 7.453125 C 39.730469 7.453125 39.925781 7.621094 40.132812 7.828125 C 40.34375 8.03125 40.53125 8.203125 40.550781 8.203125 C 40.566406 8.203125 40.722656 8.363281 40.890625 8.566406 C 41.058594 8.765625 41.355469 9.066406 41.546875 9.238281 C 41.738281 9.410156 41.933594 9.625 41.980469 9.710938 C 42.027344 9.796875 42.277344 10.101562 42.535156 10.382812 C 42.792969 10.664062 43.003906 10.914062 43.003906 10.9375 C 43.003906 10.957031 43.09375 11.09375 43.199219 11.234375 C 43.304688 11.378906 43.414062 11.539062 43.445312 11.597656 C 43.496094 11.691406 43.824219 12.160156 44.078125 12.503906 C 44.128906 12.570312 44.195312 12.703125 44.226562 12.792969 C 44.257812 12.882812 44.367188 13.0625 44.476562 13.191406 C 44.664062 13.421875 44.875 13.804688 44.953125 14.054688 C 44.972656 14.121094 45.0625 14.296875 45.15625 14.441406 C 45.246094 14.585938 45.320312 14.714844 45.320312 14.726562 C 45.320312 14.738281 45.460938 15.046875 45.636719 15.414062 C 45.964844 16.101562 46.351562 17.097656 46.5 17.628906 C 46.550781 17.792969 46.632812 18.023438 46.6875 18.132812 C 46.816406 18.382812 46.925781 18.828125 46.972656 19.253906 C 46.992188 19.433594 47.046875 19.675781 47.101562 19.792969 C 47.152344 19.914062 47.25 20.382812 47.320312 20.84375 C 47.386719 21.304688 47.472656 21.769531 47.511719 21.878906 C 47.765625 22.621094 47.769531 27.398438 47.511719 28.257812 C 47.472656 28.378906 47.386719 28.828125 47.316406 29.253906 C 47.246094 29.675781 47.148438 30.121094 47.097656 30.234375 C 47.046875 30.351562 46.992188 30.585938 46.972656 30.761719 C 46.925781 31.234375 46.847656 31.554688 46.714844 31.824219 C 46.648438 31.957031 46.550781 32.226562 46.5 32.425781 C 46.417969 32.746094 46.15625 33.453125 45.902344 34.042969 C 45.855469 34.160156 45.8125 34.269531 45.8125 34.285156 C 45.8125 34.300781 45.75 34.410156 45.667969 34.527344 C 45.589844 34.644531 45.46875 34.882812 45.398438 35.054688 C 45.328125 35.230469 45.238281 35.410156 45.199219 35.457031 C 45.15625 35.503906 45.082031 35.667969 45.027344 35.824219 C 44.972656 35.984375 44.886719 36.175781 44.832031 36.25 C 44.78125 36.324219 44.683594 36.511719 44.617188 36.660156 C 44.550781 36.808594 44.460938 36.964844 44.414062 37.003906 C 44.367188 37.042969 44.292969 37.144531 44.25 37.230469 C 44.164062 37.40625 43.734375 38.058594 43.445312 38.457031 C 43.335938 38.609375 43.171875 38.847656 43.082031 38.984375 C 42.988281 39.121094 42.734375 39.4375 42.515625 39.683594 C 42.296875 39.929688 42.054688 40.230469 41.980469 40.347656 C 41.90625 40.464844 41.808594 40.574219 41.761719 40.585938 C 41.71875 40.601562 41.535156 40.789062 41.359375 41 C 41.183594 41.214844 40.929688 41.476562 40.800781 41.585938 C 40.671875 41.695312 40.414062 41.941406 40.222656 42.132812 C 40.035156 42.328125 39.800781 42.539062 39.699219 42.609375 C 39.484375 42.761719 38.949219 43.199219 38.589844 43.523438 C 38.445312 43.652344 38.296875 43.761719 38.261719 43.761719 C 38.226562 43.761719 38.132812 43.824219 38.050781 43.902344 C 37.972656 43.980469 37.71875 44.152344 37.488281 44.285156 C 37.257812 44.417969 37.003906 44.589844 36.921875 44.660156 C 36.839844 44.734375 36.664062 44.835938 36.535156 44.882812 C 36.402344 44.933594 36.222656 45.035156 36.136719 45.113281 C 35.996094 45.238281 35.535156 45.476562 34.382812 46.019531 C 34.207031 46.105469 33.964844 46.222656 33.84375 46.285156 C 33.71875 46.347656 33.542969 46.417969 33.449219 46.4375 C 33.351562 46.457031 33.132812 46.546875 32.957031 46.636719 C 32.78125 46.730469 32.546875 46.816406 32.4375 46.835938 C 32.328125 46.851562 32.019531 46.941406 31.75 47.035156 C 30.554688 47.441406 29.984375 47.578125 28.695312 47.761719 C 28.289062 47.820312 27.824219 47.902344 27.660156 47.945312 C 26.890625 48.148438 22.597656 48.042969 21.28125 47.785156 C 20.941406 47.71875 20.542969 47.652344 20.394531 47.632812 C 20.246094 47.613281 20 47.546875 19.847656 47.484375 C 19.699219 47.417969 19.378906 47.332031 19.136719 47.289062 C 18.894531 47.242188 18.523438 47.140625 18.3125 47.058594 C 18.101562 46.976562 17.816406 46.886719 17.675781 46.859375 C 17.539062 46.832031 17.257812 46.734375 17.050781 46.640625 C 16.84375 46.546875 16.621094 46.453125 16.550781 46.433594 C 16.484375 46.414062 16.328125 46.335938 16.203125 46.261719 C 16.078125 46.183594 15.902344 46.105469 15.808594 46.085938 C 15.714844 46.066406 15.550781 45.988281 15.441406 45.910156 C 15.332031 45.832031 15.148438 45.742188 15.03125 45.710938 C 14.914062 45.679688 14.734375 45.589844 14.628906 45.515625 C 14.523438 45.4375 14.339844 45.347656 14.214844 45.3125 C 14.09375 45.277344 13.910156 45.175781 13.808594 45.085938 C 13.703125 45 13.507812 44.867188 13.367188 44.796875 C 13.226562 44.726562 12.878906 44.503906 12.585938 44.300781 C 12.296875 44.101562 11.945312 43.867188 11.804688 43.785156 C 11.664062 43.703125 11.472656 43.5625 11.378906 43.472656 C 11.285156 43.382812 11.195312 43.308594 11.175781 43.308594 C 11.15625 43.308594 10.957031 43.152344 10.738281 42.957031 C 10.515625 42.765625 10.277344 42.578125 10.207031 42.539062 C 10.132812 42.5 10.023438 42.402344 9.964844 42.316406 C 9.902344 42.234375 9.699219 42.042969 9.515625 41.890625 C 9.332031 41.742188 9.101562 41.53125 9.011719 41.429688 C 8.917969 41.324219 8.675781 41.058594 8.46875 40.835938 C 8.261719 40.613281 8.042969 40.355469 7.980469 40.257812 C 7.917969 40.164062 7.753906 39.957031 7.613281 39.804688 C 7.253906 39.398438 7.039062 39.121094 6.886719 38.867188 C 6.816406 38.742188 6.648438 38.53125 6.519531 38.394531 C 6.386719 38.261719 6.203125 38.007812 6.109375 37.839844 C 5.917969 37.5 5.863281 37.402344 5.480469 36.765625 C 5.335938 36.527344 5.152344 36.1875 5.066406 36.007812 C 4.894531 35.632812 4.835938 35.519531 4.457031 34.808594 C 4.304688 34.519531 4.117188 34.089844 4.039062 33.859375 C 3.964844 33.625 3.835938 33.265625 3.753906 33.058594 C 3.667969 32.851562 3.558594 32.535156 3.503906 32.355469 C 3.449219 32.179688 3.332031 31.816406 3.238281 31.550781 C 3.144531 31.285156 3.050781 30.9375 3.03125 30.777344 C 3.015625 30.613281 2.957031 30.355469 2.90625 30.203125 C 2.855469 30.050781 2.765625 29.589844 2.707031 29.179688 C 2.648438 28.769531 2.570312 28.308594 2.535156 28.15625 C 2.273438 27.105469 2.253906 22.351562 2.507812 21.867188 C 2.53125 21.820312 2.601562 21.429688 2.660156 21.003906 C 2.71875 20.578125 2.8125 20.105469 2.867188 19.953125 C 2.917969 19.804688 2.996094 19.5 3.03125 19.28125 C 3.105469 18.847656 3.226562 18.46875 3.667969 17.253906 C 3.820312 16.828125 4 16.320312 4.066406 16.128906 C 4.175781 15.804688 4.644531 14.8125 4.867188 14.4375 C 4.921875 14.351562 4.992188 14.191406 5.023438 14.089844 C 5.054688 13.984375 5.234375 13.664062 5.421875 13.375 C 5.609375 13.085938 5.761719 12.832031 5.761719 12.808594 C 5.761719 12.785156 5.824219 12.679688 5.894531 12.574219 C 5.96875 12.464844 6.085938 12.273438 6.15625 12.144531 C 6.226562 12.015625 6.410156 11.773438 6.5625 11.609375 C 6.71875 11.441406 6.878906 11.234375 6.925781 11.144531 C 7.015625 10.964844 7.273438 10.632812 7.722656 10.109375 C 7.890625 9.910156 8.03125 9.726562 8.03125 9.699219 C 8.03125 9.597656 9.171875 8.421875 9.539062 8.144531 C 9.679688 8.039062 9.871094 7.878906 9.960938 7.785156 C 10.238281 7.496094 11.53125 6.4375 11.777344 6.296875 C 11.855469 6.25 11.992188 6.160156 12.078125 6.089844 C 12.167969 6.023438 12.351562 5.90625 12.488281 5.835938 C 12.625 5.761719 12.832031 5.613281 12.957031 5.5 C 13.078125 5.386719 13.292969 5.238281 13.433594 5.175781 C 13.578125 5.109375 13.765625 5.003906 13.855469 4.9375 C 13.941406 4.871094 14.113281 4.777344 14.238281 4.730469 C 14.359375 4.683594 14.546875 4.582031 14.65625 4.503906 C 14.765625 4.421875 14.9375 4.34375 15.039062 4.324219 C 15.140625 4.304688 15.308594 4.226562 15.417969 4.148438 C 15.523438 4.070312 15.671875 3.988281 15.75 3.972656 C 15.824219 3.953125 15.996094 3.878906 16.132812 3.804688 C 16.269531 3.730469 16.457031 3.640625 16.550781 3.601562 C 16.648438 3.566406 16.890625 3.460938 17.09375 3.371094 C 17.296875 3.28125 17.628906 3.171875 17.835938 3.132812 C 18.039062 3.089844 18.308594 3.007812 18.4375 2.949219 C 18.5625 2.894531 18.792969 2.824219 18.949219 2.796875 C 19.109375 2.765625 19.4375 2.679688 19.679688 2.601562 C 19.921875 2.523438 20.289062 2.433594 20.492188 2.402344 C 20.695312 2.371094 21.074219 2.292969 21.328125 2.230469 C 22.265625 1.992188 25.328125 1.902344 27.289062 2.054688 M 24.582031 13.855469 C 11.8125 13.882812 11.765625 13.886719 11.097656 14.082031 C 10.515625 14.25 9.417969 14.875 9.21875 15.152344 C 9.144531 15.25 8.988281 15.429688 8.863281 15.558594 C 8.359375 16.070312 7.890625 17.25 7.78125 18.289062 C 7.746094 18.617188 7.734375 21.003906 7.742188 25.503906 L 7.757812 32.230469 L 7.867188 32.507812 C 7.921875 32.660156 8.019531 32.9375 8.078125 33.128906 C 8.203125 33.539062 8.625 34.273438 8.820312 34.417969 C 8.894531 34.472656 9.042969 34.644531 9.144531 34.796875 C 9.289062 35.007812 9.390625 35.101562 9.582031 35.1875 C 9.71875 35.246094 9.898438 35.355469 9.976562 35.421875 C 10.25 35.652344 10.765625 35.871094 11.429688 36.039062 L 12.09375 36.207031 L 24.851562 36.203125 C 35.371094 36.199219 37.671875 36.1875 37.957031 36.132812 C 38.144531 36.09375 38.5 36.027344 38.742188 35.984375 C 38.988281 35.9375 39.265625 35.855469 39.359375 35.796875 C 39.453125 35.742188 39.617188 35.664062 39.71875 35.628906 C 39.992188 35.53125 40.519531 35.132812 40.921875 34.722656 C 41.117188 34.519531 41.300781 34.359375 41.332031 34.359375 C 41.359375 34.359375 41.441406 34.226562 41.507812 34.070312 C 41.578125 33.910156 41.695312 33.679688 41.769531 33.558594 C 41.847656 33.433594 41.933594 33.21875 41.96875 33.082031 C 42.003906 32.945312 42.078125 32.6875 42.136719 32.507812 L 42.242188 32.183594 L 42.242188 17.980469 L 42.082031 17.359375 C 41.992188 17.015625 41.878906 16.667969 41.824219 16.582031 C 41.769531 16.5 41.660156 16.300781 41.582031 16.148438 C 41.34375 15.695312 40.0625 14.453125 39.835938 14.453125 C 39.804688 14.453125 39.617188 14.371094 39.421875 14.273438 C 39.179688 14.152344 38.925781 14.074219 38.613281 14.023438 C 38.367188 13.980469 38.039062 13.914062 37.890625 13.875 C 37.738281 13.835938 37.46875 13.808594 37.292969 13.816406 C 37.117188 13.820312 31.394531 13.839844 24.582031 13.855469 M 38.097656 15.550781 C 38.503906 15.726562 38.488281 15.796875 37.953125 16.214844 C 37.691406 16.414062 37.402344 16.625 37.308594 16.679688 C 37.214844 16.738281 37.054688 16.855469 36.957031 16.945312 C 36.855469 17.035156 36.667969 17.183594 36.539062 17.269531 C 36.214844 17.492188 35.132812 18.316406 34.925781 18.5 C 34.742188 18.664062 34.65625 18.726562 33.941406 19.230469 C 33.242188 19.722656 32.839844 20.011719 32.65625 20.167969 C 32.359375 20.417969 32.054688 20.648438 31.648438 20.925781 C 31.433594 21.078125 31.113281 21.324219 30.9375 21.476562 C 30.761719 21.628906 30.5 21.804688 30.363281 21.875 C 30.222656 21.941406 30.070312 22.054688 30.023438 22.125 C 29.976562 22.195312 29.792969 22.347656 29.613281 22.460938 C 29.433594 22.574219 29.203125 22.742188 29.105469 22.835938 C 29.003906 22.925781 28.855469 23.035156 28.773438 23.078125 C 28.695312 23.121094 28.460938 23.296875 28.257812 23.46875 C 28.054688 23.640625 27.761719 23.863281 27.601562 23.964844 C 27.324219 24.140625 27 24.398438 26.558594 24.789062 C 26.441406 24.894531 26.285156 25.007812 26.214844 25.042969 C 26.140625 25.074219 25.980469 25.179688 25.855469 25.269531 C 25.597656 25.460938 24.871094 25.65625 24.761719 25.5625 C 24.730469 25.535156 24.578125 25.464844 24.425781 25.40625 C 24.273438 25.347656 24.117188 25.265625 24.082031 25.222656 C 24.046875 25.179688 23.90625 25.070312 23.769531 24.976562 C 23.324219 24.675781 23.078125 24.496094 23.03125 24.433594 C 23.003906 24.398438 22.867188 24.292969 22.730469 24.199219 C 22.59375 24.105469 22.292969 23.902344 22.0625 23.746094 C 21.828125 23.585938 21.609375 23.421875 21.574219 23.378906 C 21.480469 23.265625 20.84375 22.785156 20.660156 22.691406 C 20.578125 22.648438 20.480469 22.574219 20.441406 22.527344 C 20.371094 22.441406 19.410156 21.6875 19.023438 21.417969 C 18.898438 21.328125 18.636719 21.140625 18.449219 21.003906 C 17.910156 20.613281 17.773438 20.515625 17.5625 20.375 C 17.453125 20.300781 17.296875 20.179688 17.214844 20.105469 C 17.136719 20.027344 16.976562 19.902344 16.867188 19.820312 C 16.753906 19.742188 16.496094 19.542969 16.292969 19.378906 C 16.089844 19.214844 15.578125 18.820312 15.152344 18.503906 C 14.726562 18.1875 14.242188 17.820312 14.074219 17.691406 C 13.90625 17.558594 13.609375 17.339844 13.414062 17.203125 C 13.21875 17.066406 13.042969 16.921875 13.019531 16.882812 C 13 16.84375 12.847656 16.734375 12.683594 16.640625 C 12.523438 16.550781 12.210938 16.324219 11.992188 16.144531 C 11.550781 15.785156 11.550781 15.773438 11.886719 15.527344 C 12.09375 15.375 37.742188 15.398438 38.097656 15.550781 M 10.589844 17.09375 C 10.738281 17.210938 10.90625 17.351562 10.960938 17.398438 C 11.109375 17.539062 11.394531 17.703125 11.480469 17.703125 C 11.523438 17.703125 11.65625 17.808594 11.777344 17.933594 C 11.894531 18.058594 12.140625 18.261719 12.320312 18.382812 C 12.5 18.503906 12.675781 18.636719 12.710938 18.679688 C 12.742188 18.71875 12.800781 18.753906 12.839844 18.753906 C 12.878906 18.753906 13.027344 18.863281 13.167969 18.992188 C 13.464844 19.269531 14.042969 19.714844 14.441406 19.96875 C 14.59375 20.066406 14.730469 20.167969 14.75 20.199219 C 14.785156 20.253906 15.257812 20.625 15.550781 20.828125 C 15.65625 20.898438 15.816406 21.019531 15.914062 21.09375 C 16.011719 21.167969 16.324219 21.402344 16.605469 21.613281 C 16.886719 21.828125 17.207031 22.070312 17.316406 22.152344 C 17.839844 22.5625 17.980469 22.671875 18.300781 22.902344 C 18.488281 23.039062 18.765625 23.246094 18.917969 23.359375 C 19.480469 23.785156 20.03125 24.1875 20.199219 24.289062 C 20.316406 24.363281 20.394531 24.46875 20.453125 24.625 L 20.535156 24.851562 L 20.296875 25.023438 C 20.042969 25.210938 19.941406 25.289062 19.660156 25.53125 C 19.5625 25.617188 19.394531 25.746094 19.285156 25.816406 C 19.175781 25.890625 18.964844 26.042969 18.816406 26.152344 C 18.667969 26.265625 18.464844 26.398438 18.363281 26.457031 C 18.261719 26.511719 18.070312 26.65625 17.933594 26.777344 C 17.796875 26.902344 17.636719 27.027344 17.574219 27.0625 C 17.464844 27.121094 17.042969 27.449219 16.996094 27.515625 C 16.972656 27.542969 16.804688 27.667969 16.28125 28.042969 C 16.171875 28.117188 15.914062 28.320312 15.703125 28.492188 C 15.492188 28.664062 15.289062 28.804688 15.257812 28.804688 C 15.222656 28.804688 15.128906 28.863281 15.050781 28.9375 C 14.96875 29.007812 14.800781 29.136719 14.679688 29.21875 C 14.558594 29.304688 14.367188 29.453125 14.257812 29.550781 C 13.996094 29.785156 13.769531 29.960938 13.367188 30.238281 C 13.1875 30.363281 12.996094 30.511719 12.9375 30.566406 C 12.878906 30.625 12.722656 30.742188 12.585938 30.832031 C 12.449219 30.921875 12.304688 31.035156 12.265625 31.082031 C 12.226562 31.132812 12.105469 31.210938 11.996094 31.257812 C 11.886719 31.304688 11.640625 31.488281 11.445312 31.664062 C 11.25 31.839844 10.929688 32.09375 10.734375 32.230469 C 10.539062 32.371094 10.339844 32.523438 10.292969 32.574219 C 10.011719 32.871094 9.640625 32.738281 9.453125 32.269531 L 9.335938 31.980469 L 9.335938 25.253906 C 9.335938 18.082031 9.339844 17.957031 9.554688 17.453125 C 9.632812 17.273438 9.71875 17.070312 9.746094 16.996094 C 9.789062 16.886719 9.835938 16.855469 9.984375 16.84375 C 10.238281 16.820312 10.277344 16.839844 10.589844 17.09375 M 40.085938 16.902344 C 40.179688 16.960938 40.296875 17.109375 40.375 17.265625 C 40.445312 17.410156 40.550781 17.585938 40.601562 17.652344 C 40.679688 17.757812 40.699219 17.855469 40.695312 18.253906 C 40.695312 18.515625 40.707031 20.585938 40.71875 22.855469 C 40.738281 26.988281 40.683594 31.46875 40.601562 32.03125 C 40.488281 32.824219 40.175781 32.960938 39.621094 32.453125 C 39.511719 32.347656 39.300781 32.203125 39.160156 32.132812 C 39.019531 32.058594 38.800781 31.902344 38.675781 31.789062 C 38.394531 31.527344 38.050781 31.257812 38.003906 31.257812 C 37.984375 31.257812 37.871094 31.167969 37.757812 31.058594 C 37.640625 30.953125 37.449219 30.8125 37.332031 30.753906 C 37.214844 30.691406 37.042969 30.554688 36.949219 30.441406 C 36.855469 30.332031 36.667969 30.191406 36.53125 30.128906 C 36.394531 30.066406 36.226562 29.957031 36.15625 29.882812 C 36.089844 29.808594 35.972656 29.714844 35.898438 29.675781 C 35.820312 29.632812 35.640625 29.492188 35.492188 29.355469 C 35.34375 29.21875 35.113281 29.050781 34.976562 28.980469 C 34.839844 28.910156 34.699219 28.808594 34.667969 28.753906 C 34.632812 28.695312 34.527344 28.601562 34.433594 28.546875 C 34.339844 28.488281 34.167969 28.363281 34.054688 28.273438 C 33.941406 28.179688 33.828125 28.105469 33.800781 28.105469 C 33.773438 28.105469 33.648438 28.015625 33.523438 27.90625 C 33.398438 27.796875 33.273438 27.707031 33.25 27.707031 C 33.226562 27.707031 33.066406 27.574219 32.894531 27.414062 C 32.726562 27.253906 32.476562 27.0625 32.339844 26.984375 C 32.074219 26.828125 31.90625 26.699219 31.539062 26.375 C 31.328125 26.191406 30.898438 25.890625 30.679688 25.773438 C 30.601562 25.730469 30.414062 25.578125 29.980469 25.203125 C 29.871094 25.105469 29.714844 24.984375 29.640625 24.9375 C 29.410156 24.789062 29.460938 24.464844 29.738281 24.328125 C 29.851562 24.273438 30.007812 24.167969 30.085938 24.097656 C 30.160156 24.023438 30.320312 23.914062 30.445312 23.855469 C 30.566406 23.792969 30.75 23.671875 30.851562 23.585938 C 31.296875 23.207031 31.417969 23.113281 31.625 22.96875 C 31.746094 22.882812 31.914062 22.742188 31.996094 22.65625 C 32.078125 22.566406 32.246094 22.441406 32.375 22.375 C 32.503906 22.308594 32.65625 22.199219 32.71875 22.132812 C 32.78125 22.066406 32.921875 21.964844 33.035156 21.90625 C 33.144531 21.851562 33.289062 21.746094 33.355469 21.675781 C 33.417969 21.601562 33.550781 21.503906 33.648438 21.453125 C 33.746094 21.402344 33.855469 21.324219 33.894531 21.277344 C 33.957031 21.199219 34.210938 21.011719 34.4375 20.875 C 34.523438 20.824219 34.882812 20.539062 35.3125 20.175781 C 35.410156 20.09375 35.675781 19.890625 35.902344 19.726562 C 36.601562 19.21875 36.785156 19.078125 36.96875 18.914062 C 37.066406 18.824219 37.191406 18.753906 37.246094 18.753906 C 37.304688 18.753906 37.484375 18.625 37.652344 18.460938 C 37.820312 18.296875 38.070312 18.09375 38.214844 18.003906 C 38.355469 17.917969 38.472656 17.824219 38.472656 17.796875 C 38.472656 17.773438 38.527344 17.730469 38.589844 17.707031 C 38.65625 17.679688 38.78125 17.597656 38.875 17.515625 C 38.964844 17.4375 39.128906 17.320312 39.238281 17.253906 C 39.34375 17.191406 39.503906 17.0625 39.585938 16.96875 C 39.765625 16.777344 39.863281 16.765625 40.085938 16.902344 M 28.097656 25.875 C 28.183594 25.9375 28.375 26.054688 28.523438 26.128906 C 28.671875 26.207031 28.941406 26.410156 29.121094 26.589844 C 29.3125 26.773438 29.566406 26.960938 29.726562 27.035156 C 29.875 27.105469 30 27.183594 30 27.207031 C 30 27.230469 30.171875 27.371094 30.382812 27.523438 C 30.589844 27.671875 30.808594 27.84375 30.863281 27.90625 C 30.917969 27.96875 31.0625 28.070312 31.191406 28.136719 C 31.316406 28.199219 31.4375 28.277344 31.453125 28.308594 C 31.472656 28.335938 31.578125 28.417969 31.691406 28.488281 C 31.804688 28.558594 31.949219 28.671875 32.007812 28.738281 C 32.070312 28.804688 32.320312 28.992188 32.558594 29.15625 C 32.800781 29.320312 33.011719 29.476562 33.027344 29.503906 C 33.046875 29.53125 33.207031 29.65625 33.390625 29.78125 C 33.722656 30.007812 34.167969 30.347656 34.582031 30.683594 C 34.992188 31.019531 35.1875 31.160156 35.453125 31.3125 C 35.597656 31.394531 35.714844 31.480469 35.714844 31.5 C 35.714844 31.519531 35.820312 31.605469 35.949219 31.683594 C 36.074219 31.765625 36.257812 31.902344 36.355469 31.988281 C 36.449219 32.074219 36.683594 32.25 36.871094 32.382812 C 37.0625 32.515625 37.339844 32.730469 37.488281 32.855469 C 37.636719 32.984375 37.886719 33.175781 38.046875 33.285156 C 38.203125 33.394531 38.433594 33.550781 38.554688 33.632812 C 38.671875 33.714844 38.828125 33.878906 38.894531 33.992188 L 39.019531 34.203125 L 38.90625 34.273438 C 38.84375 34.3125 38.582031 34.394531 38.324219 34.449219 L 37.855469 34.558594 L 25.125 34.5625 L 12.390625 34.570312 L 11.824219 34.460938 C 11.308594 34.363281 10.984375 34.273438 10.984375 34.226562 C 10.984375 34.019531 11.285156 33.699219 11.589844 33.585938 C 11.71875 33.539062 11.824219 33.484375 11.824219 33.460938 C 11.824219 33.441406 11.929688 33.347656 12.054688 33.257812 C 12.183594 33.164062 12.335938 33.042969 12.394531 32.984375 C 12.449219 32.929688 12.667969 32.757812 12.878906 32.605469 C 13.089844 32.457031 13.363281 32.246094 13.488281 32.140625 C 13.613281 32.03125 13.804688 31.886719 13.914062 31.816406 C 14.023438 31.746094 14.203125 31.605469 14.3125 31.507812 C 14.605469 31.253906 15.042969 30.917969 15.46875 30.628906 C 16.054688 30.226562 16.371094 30 16.503906 29.875 C 16.570312 29.8125 16.695312 29.707031 16.785156 29.644531 C 16.871094 29.582031 17.074219 29.425781 17.234375 29.296875 C 17.398438 29.167969 17.59375 29.03125 17.671875 28.988281 C 17.746094 28.949219 17.988281 28.761719 18.203125 28.570312 C 18.417969 28.382812 18.671875 28.195312 18.769531 28.15625 C 18.863281 28.121094 19.03125 28.007812 19.144531 27.910156 C 19.253906 27.8125 19.488281 27.617188 19.660156 27.480469 C 19.832031 27.34375 19.984375 27.214844 19.992188 27.191406 C 20 27.171875 20.117188 27.097656 20.246094 27.03125 C 20.378906 26.964844 20.5 26.886719 20.515625 26.855469 C 20.535156 26.828125 20.667969 26.726562 20.816406 26.628906 C 20.964844 26.535156 21.101562 26.421875 21.117188 26.378906 C 21.132812 26.335938 21.230469 26.257812 21.335938 26.203125 C 21.441406 26.148438 21.5625 26.046875 21.605469 25.980469 C 21.777344 25.714844 22.421875 25.914062 22.96875 26.402344 C 23.058594 26.480469 23.246094 26.59375 23.394531 26.660156 C 23.539062 26.722656 23.714844 26.828125 23.785156 26.890625 C 23.96875 27.066406 24.078125 27.082031 25.050781 27.078125 C 26.207031 27.078125 26.449219 26.996094 27.101562 26.371094 C 27.257812 26.226562 27.402344 26.105469 27.429688 26.105469 C 27.457031 26.105469 27.570312 26.027344 27.683594 25.929688 C 27.929688 25.722656 27.90625 25.726562 28.097656 25.875 "/>
<path style=" stroke:none;fill-rule:evenodd;fill:rgb(97.647059%,98.039216%,98.039216%);fill-opacity:1;" d="M 0 25.003906 L 0 50.011719 L 11.328125 50.011719 C 22.34375 50.011719 22.660156 50.007812 22.660156 49.917969 C 22.660156 49.820312 22.105469 49.714844 20.984375 49.605469 C 20.726562 49.582031 20.390625 49.515625 20.238281 49.460938 C 20.085938 49.40625 19.714844 49.316406 19.410156 49.257812 C 19.105469 49.203125 18.777344 49.125 18.675781 49.082031 C 18.578125 49.039062 18.335938 48.972656 18.136719 48.933594 C 17.9375 48.894531 17.648438 48.804688 17.5 48.738281 C 17.347656 48.667969 17.046875 48.5625 16.828125 48.507812 C 16.609375 48.449219 16.328125 48.351562 16.203125 48.285156 C 16.078125 48.222656 15.851562 48.132812 15.699219 48.085938 C 15.546875 48.042969 15.410156 47.984375 15.394531 47.960938 C 15.378906 47.9375 15.21875 47.859375 15.03125 47.789062 C 14.847656 47.714844 14.621094 47.601562 14.53125 47.535156 C 14.441406 47.46875 14.257812 47.375 14.117188 47.328125 C 13.773438 47.214844 13.136719 46.871094 12.621094 46.519531 C 12.386719 46.355469 12.082031 46.164062 11.945312 46.089844 C 11.558594 45.882812 11.367188 45.761719 11.183594 45.613281 C 11.085938 45.539062 10.886719 45.394531 10.738281 45.292969 C 10.496094 45.128906 10.28125 44.972656 9.976562 44.734375 C 9.921875 44.691406 9.777344 44.566406 9.65625 44.457031 C 9.214844 44.058594 8.851562 43.761719 8.800781 43.761719 C 8.683594 43.761719 6.304688 41.242188 6.152344 40.960938 C 6.070312 40.800781 5.949219 40.648438 5.886719 40.617188 C 5.820312 40.585938 5.730469 40.488281 5.683594 40.398438 C 5.640625 40.308594 5.5 40.101562 5.375 39.941406 C 5.070312 39.550781 5.035156 39.5 4.707031 39.007812 C 4.554688 38.773438 4.339844 38.460938 4.234375 38.308594 C 4.128906 38.15625 4.015625 37.957031 3.984375 37.863281 C 3.953125 37.765625 3.765625 37.425781 3.566406 37.105469 C 3.367188 36.785156 3.160156 36.410156 3.105469 36.277344 C 3.050781 36.144531 2.980469 35.988281 2.949219 35.933594 C 2.738281 35.566406 2.109375 33.996094 1.949219 33.441406 C 1.902344 33.28125 1.8125 33.027344 1.746094 32.878906 C 1.679688 32.734375 1.570312 32.367188 1.5 32.070312 C 1.429688 31.773438 1.332031 31.453125 1.28125 31.355469 C 1.230469 31.257812 1.164062 31 1.140625 30.78125 C 1.113281 30.558594 1.035156 30.144531 0.96875 29.855469 C 0.847656 29.335938 0.792969 29 0.695312 28.132812 C 0.667969 27.882812 0.605469 27.378906 0.558594 27.007812 C 0.4375 26.058594 0.433594 23.828125 0.550781 23.15625 C 0.597656 22.894531 0.660156 22.398438 0.691406 22.054688 C 0.78125 21.085938 0.871094 20.457031 0.984375 20.027344 C 1.042969 19.8125 1.109375 19.457031 1.136719 19.238281 C 1.164062 19.019531 1.21875 18.773438 1.261719 18.695312 C 1.300781 18.617188 1.410156 18.277344 1.5 17.941406 C 1.59375 17.605469 1.726562 17.183594 1.796875 17.003906 C 1.867188 16.824219 1.96875 16.511719 2.023438 16.304688 C 2.117188 15.960938 2.605469 14.792969 2.886719 14.253906 C 2.949219 14.128906 3.046875 13.910156 3.101562 13.765625 C 3.15625 13.621094 3.273438 13.386719 3.367188 13.242188 C 3.742188 12.640625 3.847656 12.457031 4.03125 12.078125 C 4.140625 11.859375 4.292969 11.609375 4.371094 11.527344 C 4.535156 11.355469 4.976562 10.695312 4.976562 10.625 C 4.976562 10.597656 5.054688 10.488281 5.152344 10.378906 C 5.25 10.265625 5.429688 10.03125 5.554688 9.851562 C 5.679688 9.671875 5.859375 9.445312 5.957031 9.347656 C 6.054688 9.25 6.222656 9.035156 6.328125 8.875 C 6.4375 8.714844 6.671875 8.433594 6.847656 8.25 C 7.023438 8.066406 7.335938 7.730469 7.546875 7.511719 C 7.753906 7.289062 8.015625 7.046875 8.125 6.972656 C 8.234375 6.898438 8.386719 6.734375 8.46875 6.601562 C 8.558594 6.449219 8.667969 6.34375 8.773438 6.300781 C 8.867188 6.265625 9.03125 6.148438 9.136719 6.042969 C 9.464844 5.722656 10.082031 5.199219 10.132812 5.199219 C 10.15625 5.199219 10.296875 5.097656 10.4375 4.976562 C 10.582031 4.851562 10.746094 4.722656 10.804688 4.691406 C 10.863281 4.660156 11.042969 4.53125 11.207031 4.40625 C 11.371094 4.277344 11.679688 4.078125 11.898438 3.960938 C 12.414062 3.675781 12.875 3.394531 12.988281 3.289062 C 13.039062 3.242188 13.171875 3.167969 13.277344 3.121094 C 13.386719 3.078125 13.527344 3 13.597656 2.953125 C 13.664062 2.902344 13.851562 2.816406 14.015625 2.753906 C 14.175781 2.691406 14.40625 2.578125 14.523438 2.5 C 14.640625 2.421875 14.851562 2.316406 14.988281 2.269531 C 15.125 2.222656 15.308594 2.148438 15.390625 2.097656 C 15.472656 2.050781 15.640625 1.980469 15.761719 1.945312 C 15.886719 1.910156 16.0625 1.832031 16.15625 1.769531 C 16.253906 1.707031 16.511719 1.609375 16.734375 1.554688 C 16.957031 1.496094 17.304688 1.382812 17.511719 1.296875 C 17.71875 1.210938 18.046875 1.113281 18.242188 1.074219 C 18.4375 1.035156 18.691406 0.972656 18.808594 0.929688 C 18.925781 0.886719 19.214844 0.816406 19.449219 0.773438 C 19.683594 0.726562 20.085938 0.636719 20.34375 0.570312 C 20.601562 0.507812 21.210938 0.40625 21.699219 0.347656 C 22.769531 0.222656 22.808594 0.214844 22.808594 0.09375 C 22.808594 0.00390625 22.558594 0 11.402344 0 L 0 0 L 0 25.003906 M 27.191406 0.0898438 C 27.191406 0.1875 27.421875 0.234375 28.890625 0.445312 C 29.648438 0.550781 31.117188 0.847656 31.394531 0.949219 C 31.480469 0.980469 31.753906 1.0625 32.003906 1.128906 C 32.25 1.191406 32.617188 1.3125 32.820312 1.394531 C 33.023438 1.476562 33.3125 1.574219 33.460938 1.617188 C 33.613281 1.65625 33.800781 1.734375 33.875 1.789062 C 33.953125 1.84375 34.171875 1.9375 34.359375 1.996094 C 34.550781 2.058594 34.914062 2.21875 35.171875 2.347656 C 35.429688 2.480469 35.769531 2.648438 35.925781 2.71875 C 36.082031 2.789062 36.269531 2.894531 36.339844 2.949219 C 36.410156 3.003906 36.550781 3.074219 36.65625 3.101562 C 36.757812 3.128906 36.90625 3.207031 36.984375 3.273438 C 37.0625 3.339844 37.242188 3.441406 37.386719 3.5 C 37.53125 3.558594 37.773438 3.703125 37.925781 3.824219 C 38.078125 3.945312 38.3125 4.101562 38.449219 4.175781 C 38.582031 4.25 38.773438 4.375 38.867188 4.449219 C 38.960938 4.523438 39.105469 4.621094 39.1875 4.664062 C 39.269531 4.707031 39.390625 4.796875 39.460938 4.863281 C 39.527344 4.933594 39.664062 5.046875 39.769531 5.117188 C 39.871094 5.1875 40.003906 5.304688 40.058594 5.375 C 40.113281 5.445312 40.265625 5.558594 40.398438 5.628906 C 40.527344 5.695312 40.699219 5.832031 40.773438 5.929688 C 40.847656 6.027344 40.992188 6.152344 41.089844 6.203125 C 41.1875 6.253906 41.664062 6.707031 42.148438 7.207031 C 42.632812 7.707031 43.136719 8.226562 43.269531 8.355469 C 43.402344 8.488281 43.546875 8.652344 43.589844 8.71875 C 43.632812 8.785156 43.785156 8.972656 43.929688 9.132812 C 44.210938 9.453125 44.410156 9.71875 44.613281 10.027344 C 44.683594 10.136719 44.789062 10.277344 44.84375 10.339844 C 44.898438 10.40625 45.003906 10.554688 45.070312 10.671875 C 45.335938 11.125 45.402344 11.226562 45.632812 11.539062 C 45.765625 11.714844 45.9375 12 46.019531 12.167969 C 46.101562 12.339844 46.21875 12.535156 46.28125 12.601562 C 46.34375 12.671875 46.445312 12.851562 46.503906 13 C 46.558594 13.152344 46.671875 13.363281 46.75 13.472656 C 46.828125 13.582031 46.929688 13.785156 46.976562 13.921875 C 47.019531 14.0625 47.144531 14.328125 47.253906 14.511719 C 47.4375 14.832031 47.765625 15.65625 48.089844 16.628906 C 48.171875 16.875 48.296875 17.222656 48.359375 17.394531 C 48.425781 17.570312 48.519531 17.90625 48.574219 18.148438 C 48.625 18.386719 48.699219 18.664062 48.742188 18.765625 C 48.785156 18.867188 48.816406 19.003906 48.816406 19.066406 C 48.816406 19.128906 48.894531 19.484375 48.988281 19.855469 C 49.082031 20.226562 49.183594 20.753906 49.210938 21.03125 C 49.242188 21.304688 49.285156 21.675781 49.3125 21.855469 C 49.488281 23.019531 49.550781 23.871094 49.554688 25.003906 C 49.554688 25.964844 49.535156 26.238281 49.382812 27.53125 C 49.339844 27.890625 49.285156 28.371094 49.261719 28.605469 C 49.164062 29.492188 48.992188 30.34375 48.71875 31.332031 C 48.394531 32.511719 48.3125 32.785156 48.15625 33.257812 C 48.0625 33.546875 47.960938 33.828125 47.933594 33.882812 C 47.851562 34.054688 47.636719 34.636719 47.636719 34.6875 C 47.636719 34.753906 46.84375 36.414062 46.738281 36.570312 C 46.683594 36.648438 46.589844 36.847656 46.523438 37.019531 C 46.457031 37.1875 46.351562 37.386719 46.285156 37.457031 C 46.222656 37.527344 46.089844 37.742188 45.996094 37.9375 C 45.898438 38.128906 45.742188 38.386719 45.640625 38.507812 C 45.542969 38.628906 45.417969 38.808594 45.371094 38.910156 C 45.320312 39.007812 45.242188 39.121094 45.199219 39.15625 C 45.15625 39.191406 45.085938 39.304688 45.039062 39.402344 C 44.996094 39.503906 44.890625 39.664062 44.804688 39.765625 C 44.492188 40.140625 44.308594 40.382812 44.222656 40.519531 C 44.109375 40.710938 43.648438 41.265625 43.324219 41.609375 C 43.179688 41.761719 42.945312 42.019531 42.804688 42.183594 C 42.660156 42.347656 42.453125 42.558594 42.34375 42.648438 C 42.234375 42.738281 41.976562 43 41.773438 43.230469 C 41.570312 43.460938 41.328125 43.695312 41.230469 43.75 C 41.136719 43.808594 40.96875 43.945312 40.863281 44.058594 C 40.753906 44.171875 40.554688 44.335938 40.417969 44.421875 C 40.285156 44.507812 40.117188 44.628906 40.050781 44.691406 C 39.867188 44.863281 39.519531 45.132812 39.210938 45.34375 C 39.0625 45.445312 38.933594 45.542969 38.925781 45.566406 C 38.917969 45.589844 38.828125 45.65625 38.726562 45.714844 C 38.394531 45.917969 38.007812 46.179688 37.832031 46.316406 C 37.738281 46.390625 37.558594 46.492188 37.4375 46.539062 C 37.316406 46.589844 37.148438 46.675781 37.070312 46.730469 C 36.988281 46.789062 36.808594 46.875 36.675781 46.921875 C 36.539062 46.972656 36.375 47.050781 36.304688 47.101562 C 36.070312 47.273438 34.800781 47.898438 34.457031 48.007812 C 34.269531 48.070312 34.023438 48.171875 33.917969 48.234375 C 33.808594 48.300781 33.621094 48.375 33.496094 48.40625 C 33.375 48.4375 33.101562 48.535156 32.882812 48.621094 C 32.292969 48.855469 30.628906 49.308594 30.34375 49.3125 C 30.277344 49.3125 30.035156 49.371094 29.804688 49.4375 C 29.4375 49.546875 28.382812 49.707031 27.402344 49.796875 C 27.144531 49.820312 27.09375 49.839844 27.09375 49.917969 C 27.09375 50.007812 27.40625 50.011719 38.546875 50.011719 L 50 50.011719 L 50 0 L 38.597656 0 C 27.671875 0 27.191406 0.00390625 27.191406 0.0898438 M 23.742188 2 C 22.203125 2.074219 21.789062 2.113281 21.328125 2.230469 C 21.074219 2.292969 20.695312 2.371094 20.492188 2.402344 C 20.289062 2.433594 19.921875 2.523438 19.679688 2.601562 C 19.4375 2.679688 19.109375 2.765625 18.949219 2.796875 C 18.792969 2.824219 18.5625 2.894531 18.4375 2.949219 C 18.308594 3.007812 18.039062 3.089844 17.835938 3.132812 C 17.628906 3.171875 17.296875 3.28125 17.09375 3.371094 C 16.890625 3.460938 16.648438 3.566406 16.550781 3.601562 C 16.457031 3.640625 16.269531 3.730469 16.132812 3.804688 C 15.996094 3.878906 15.824219 3.953125 15.75 3.972656 C 15.671875 3.988281 15.523438 4.070312 15.417969 4.148438 C 15.308594 4.226562 15.140625 4.304688 15.039062 4.324219 C 14.9375 4.34375 14.765625 4.421875 14.65625 4.503906 C 14.546875 4.582031 14.359375 4.683594 14.238281 4.730469 C 14.113281 4.777344 13.941406 4.871094 13.855469 4.9375 C 13.765625 5.003906 13.578125 5.109375 13.433594 5.175781 C 13.292969 5.238281 13.078125 5.386719 12.957031 5.5 C 12.832031 5.613281 12.625 5.761719 12.488281 5.835938 C 12.351562 5.90625 12.167969 6.023438 12.078125 6.089844 C 11.992188 6.160156 11.855469 6.25 11.777344 6.296875 C 11.53125 6.4375 10.238281 7.496094 9.960938 7.785156 C 9.871094 7.878906 9.679688 8.039062 9.539062 8.144531 C 9.171875 8.421875 8.03125 9.597656 8.03125 9.699219 C 8.03125 9.726562 7.890625 9.910156 7.722656 10.109375 C 7.273438 10.632812 7.015625 10.964844 6.925781 11.144531 C 6.878906 11.234375 6.71875 11.441406 6.5625 11.609375 C 6.410156 11.773438 6.226562 12.015625 6.15625 12.144531 C 6.085938 12.273438 5.96875 12.464844 5.894531 12.574219 C 5.824219 12.679688 5.761719 12.785156 5.761719 12.808594 C 5.761719 12.832031 5.609375 13.085938 5.421875 13.375 C 5.234375 13.664062 5.054688 13.984375 5.023438 14.089844 C 4.992188 14.191406 4.921875 14.351562 4.867188 14.4375 C 4.644531 14.8125 4.175781 15.804688 4.066406 16.128906 C 4 16.320312 3.820312 16.828125 3.667969 17.253906 C 3.226562 18.46875 3.105469 18.847656 3.03125 19.28125 C 2.996094 19.5 2.917969 19.804688 2.867188 19.953125 C 2.8125 20.105469 2.71875 20.578125 2.660156 21.003906 C 2.601562 21.429688 2.53125 21.820312 2.507812 21.867188 C 2.253906 22.351562 2.273438 27.105469 2.535156 28.15625 C 2.570312 28.308594 2.648438 28.769531 2.707031 29.179688 C 2.765625 29.589844 2.855469 30.050781 2.90625 30.203125 C 2.957031 30.355469 3.015625 30.613281 3.03125 30.777344 C 3.050781 30.9375 3.144531 31.285156 3.238281 31.550781 C 3.332031 31.816406 3.449219 32.179688 3.503906 32.355469 C 3.558594 32.535156 3.667969 32.851562 3.753906 33.058594 C 3.835938 33.265625 3.964844 33.625 4.039062 33.859375 C 4.117188 34.089844 4.304688 34.519531 4.457031 34.808594 C 4.835938 35.519531 4.894531 35.632812 5.066406 36.007812 C 5.152344 36.1875 5.335938 36.527344 5.480469 36.765625 C 5.863281 37.402344 5.917969 37.5 6.109375 37.839844 C 6.203125 38.007812 6.386719 38.261719 6.519531 38.394531 C 6.648438 38.53125 6.816406 38.742188 6.886719 38.867188 C 7.039062 39.121094 7.253906 39.398438 7.613281 39.804688 C 7.753906 39.957031 7.917969 40.164062 7.980469 40.257812 C 8.042969 40.355469 8.261719 40.613281 8.46875 40.835938 C 8.675781 41.058594 8.917969 41.324219 9.011719 41.429688 C 9.101562 41.53125 9.332031 41.742188 9.515625 41.890625 C 9.699219 42.042969 9.902344 42.234375 9.964844 42.316406 C 10.023438 42.402344 10.132812 42.5 10.207031 42.539062 C 10.277344 42.578125 10.515625 42.765625 10.738281 42.957031 C 10.957031 43.152344 11.15625 43.308594 11.175781 43.308594 C 11.195312 43.308594 11.285156 43.382812 11.378906 43.472656 C 11.472656 43.5625 11.664062 43.703125 11.804688 43.785156 C 11.945312 43.867188 12.296875 44.101562 12.585938 44.300781 C 12.878906 44.503906 13.226562 44.726562 13.367188 44.796875 C 13.507812 44.867188 13.703125 45 13.808594 45.085938 C 13.910156 45.175781 14.09375 45.277344 14.214844 45.3125 C 14.339844 45.347656 14.523438 45.4375 14.628906 45.515625 C 14.734375 45.589844 14.914062 45.679688 15.03125 45.710938 C 15.148438 45.742188 15.332031 45.832031 15.441406 45.910156 C 15.550781 45.988281 15.714844 46.066406 15.808594 46.085938 C 15.902344 46.105469 16.078125 46.183594 16.203125 46.261719 C 16.328125 46.335938 16.484375 46.414062 16.550781 46.433594 C 16.621094 46.453125 16.84375 46.546875 17.050781 46.640625 C 17.257812 46.734375 17.539062 46.832031 17.675781 46.859375 C 17.816406 46.886719 18.101562 46.976562 18.3125 47.058594 C 18.523438 47.140625 18.894531 47.242188 19.136719 47.289062 C 19.378906 47.332031 19.699219 47.417969 19.847656 47.484375 C 20 47.546875 20.246094 47.613281 20.394531 47.632812 C 20.542969 47.652344 20.941406 47.71875 21.28125 47.785156 C 22.597656 48.042969 26.890625 48.148438 27.660156 47.945312 C 27.824219 47.902344 28.289062 47.820312 28.695312 47.761719 C 29.984375 47.578125 30.554688 47.441406 31.75 47.035156 C 32.019531 46.941406 32.328125 46.851562 32.4375 46.835938 C 32.546875 46.816406 32.78125 46.730469 32.957031 46.636719 C 33.132812 46.546875 33.351562 46.457031 33.449219 46.4375 C 33.542969 46.417969 33.71875 46.347656 33.84375 46.285156 C 33.964844 46.222656 34.207031 46.105469 34.382812 46.019531 C 35.535156 45.476562 35.996094 45.238281 36.136719 45.113281 C 36.222656 45.035156 36.402344 44.933594 36.535156 44.882812 C 36.664062 44.835938 36.839844 44.734375 36.921875 44.660156 C 37.003906 44.589844 37.257812 44.417969 37.488281 44.285156 C 37.71875 44.152344 37.972656 43.980469 38.050781 43.902344 C 38.132812 43.824219 38.226562 43.761719 38.261719 43.761719 C 38.296875 43.761719 38.445312 43.652344 38.589844 43.523438 C 38.949219 43.199219 39.484375 42.761719 39.699219 42.609375 C 39.800781 42.539062 40.035156 42.328125 40.222656 42.132812 C 40.414062 41.941406 40.671875 41.695312 40.800781 41.585938 C 40.929688 41.476562 41.183594 41.214844 41.359375 41 C 41.535156 40.789062 41.71875 40.601562 41.761719 40.585938 C 41.808594 40.574219 41.90625 40.464844 41.980469 40.347656 C 42.054688 40.230469 42.296875 39.929688 42.515625 39.683594 C 42.734375 39.4375 42.988281 39.121094 43.082031 38.984375 C 43.171875 38.847656 43.335938 38.609375 43.445312 38.457031 C 43.734375 38.058594 44.164062 37.40625 44.25 37.230469 C 44.292969 37.144531 44.367188 37.042969 44.414062 37.003906 C 44.460938 36.964844 44.550781 36.808594 44.617188 36.660156 C 44.683594 36.511719 44.78125 36.324219 44.832031 36.25 C 44.886719 36.175781 44.972656 35.984375 45.027344 35.824219 C 45.082031 35.667969 45.15625 35.503906 45.199219 35.457031 C 45.238281 35.410156 45.328125 35.230469 45.398438 35.054688 C 45.46875 34.882812 45.589844 34.644531 45.667969 34.527344 C 45.75 34.410156 45.8125 34.300781 45.8125 34.285156 C 45.8125 34.269531 45.855469 34.160156 45.902344 34.042969 C 46.15625 33.453125 46.417969 32.746094 46.5 32.425781 C 46.550781 32.226562 46.648438 31.957031 46.714844 31.824219 C 46.847656 31.554688 46.925781 31.234375 46.972656 30.761719 C 46.992188 30.585938 47.046875 30.351562 47.097656 30.234375 C 47.148438 30.121094 47.246094 29.675781 47.316406 29.253906 C 47.386719 28.828125 47.472656 28.378906 47.511719 28.257812 C 47.769531 27.398438 47.765625 22.621094 47.511719 21.878906 C 47.472656 21.769531 47.386719 21.304688 47.320312 20.84375 C 47.25 20.382812 47.152344 19.914062 47.101562 19.792969 C 47.046875 19.675781 46.992188 19.433594 46.972656 19.253906 C 46.925781 18.828125 46.816406 18.382812 46.6875 18.132812 C 46.632812 18.023438 46.550781 17.792969 46.5 17.628906 C 46.351562 17.097656 45.964844 16.101562 45.636719 15.414062 C 45.460938 15.046875 45.320312 14.738281 45.320312 14.726562 C 45.320312 14.714844 45.246094 14.585938 45.15625 14.441406 C 45.0625 14.296875 44.972656 14.121094 44.953125 14.054688 C 44.875 13.804688 44.664062 13.421875 44.476562 13.191406 C 44.367188 13.0625 44.257812 12.882812 44.226562 12.792969 C 44.195312 12.703125 44.128906 12.570312 44.078125 12.503906 C 43.824219 12.160156 43.496094 11.691406 43.445312 11.597656 C 43.414062 11.539062 43.304688 11.378906 43.199219 11.234375 C 43.09375 11.09375 43.003906 10.957031 43.003906 10.9375 C 43.003906 10.914062 42.792969 10.664062 42.535156 10.382812 C 42.277344 10.101562 42.027344 9.796875 41.980469 9.710938 C 41.933594 9.625 41.738281 9.410156 41.546875 9.238281 C 41.355469 9.066406 41.058594 8.765625 40.890625 8.566406 C 40.722656 8.363281 40.566406 8.203125 40.550781 8.203125 C 40.53125 8.203125 40.34375 8.03125 40.132812 7.828125 C 39.925781 7.621094 39.730469 7.453125 39.707031 7.453125 C 39.679688 7.453125 39.5 7.3125 39.304688 7.144531 C 38.714844 6.625 38.359375 6.347656 38.164062 6.246094 C 38.0625 6.191406 37.980469 6.128906 37.980469 6.109375 C 37.980469 6.085938 37.800781 5.957031 37.582031 5.820312 C 37.363281 5.6875 37.085938 5.496094 36.96875 5.394531 C 36.851562 5.296875 36.679688 5.199219 36.582031 5.179688 C 36.484375 5.160156 36.304688 5.066406 36.179688 4.972656 C 36.054688 4.875 35.539062 4.59375 35.03125 4.347656 C 34.527344 4.101562 34.011719 3.847656 33.890625 3.78125 C 33.769531 3.71875 33.558594 3.636719 33.421875 3.605469 C 33.289062 3.570312 33.101562 3.496094 33.003906 3.433594 C 32.777344 3.285156 32.605469 3.21875 32.203125 3.125 C 32.019531 3.082031 31.761719 3.007812 31.636719 2.957031 C 31.507812 2.90625 31.148438 2.804688 30.835938 2.730469 C 30.527344 2.65625 30.132812 2.550781 29.960938 2.5 C 29.792969 2.445312 29.382812 2.367188 29.050781 2.328125 C 28.71875 2.285156 28.328125 2.214844 28.175781 2.175781 C 27.632812 2.023438 25.242188 1.929688 23.742188 2 M 37.890625 13.875 C 38.039062 13.914062 38.367188 13.980469 38.613281 14.023438 C 38.925781 14.074219 39.179688 14.152344 39.421875 14.273438 C 39.617188 14.371094 39.804688 14.453125 39.835938 14.453125 C 40.0625 14.453125 41.34375 15.695312 41.582031 16.148438 C 41.660156 16.300781 41.769531 16.5 41.824219 16.582031 C 41.878906 16.667969 41.992188 17.015625 42.082031 17.359375 L 42.242188 17.980469 L 42.242188 32.183594 L 42.136719 32.507812 C 42.078125 32.6875 42.003906 32.945312 41.96875 33.082031 C 41.933594 33.21875 41.847656 33.433594 41.769531 33.558594 C 41.695312 33.679688 41.578125 33.910156 41.507812 34.070312 C 41.441406 34.226562 41.359375 34.359375 41.332031 34.359375 C 41.300781 34.359375 41.117188 34.519531 40.921875 34.722656 C 40.519531 35.132812 39.992188 35.53125 39.71875 35.628906 C 39.617188 35.664062 39.453125 35.742188 39.359375 35.796875 C 39.265625 35.855469 38.988281 35.9375 38.742188 35.984375 C 38.5 36.027344 38.144531 36.09375 37.957031 36.132812 C 37.671875 36.1875 35.371094 36.199219 24.851562 36.203125 L 12.09375 36.207031 L 11.429688 36.039062 C 10.765625 35.871094 10.25 35.652344 9.976562 35.421875 C 9.898438 35.355469 9.71875 35.246094 9.582031 35.1875 C 9.390625 35.101562 9.289062 35.007812 9.144531 34.796875 C 9.042969 34.644531 8.894531 34.472656 8.820312 34.417969 C 8.625 34.273438 8.203125 33.539062 8.078125 33.128906 C 8.019531 32.9375 7.921875 32.660156 7.867188 32.507812 L 7.757812 32.230469 L 7.742188 25.503906 C 7.734375 21.003906 7.746094 18.617188 7.78125 18.289062 C 7.890625 17.25 8.359375 16.070312 8.863281 15.558594 C 8.988281 15.429688 9.144531 15.25 9.21875 15.152344 C 9.417969 14.875 10.515625 14.25 11.097656 14.082031 C 11.765625 13.886719 11.8125 13.882812 24.582031 13.855469 C 31.394531 13.839844 37.117188 13.820312 37.292969 13.816406 C 37.46875 13.808594 37.738281 13.835938 37.890625 13.875 M 11.886719 15.527344 C 11.550781 15.773438 11.550781 15.785156 11.992188 16.144531 C 12.210938 16.324219 12.523438 16.550781 12.683594 16.640625 C 12.847656 16.734375 13 16.84375 13.019531 16.882812 C 13.042969 16.921875 13.21875 17.066406 13.414062 17.203125 C 13.609375 17.339844 13.90625 17.558594 14.074219 17.691406 C 14.242188 17.820312 14.726562 18.1875 15.152344 18.503906 C 15.578125 18.820312 16.089844 19.214844 16.292969 19.378906 C 16.496094 19.542969 16.753906 19.742188 16.867188 19.820312 C 16.976562 19.902344 17.136719 20.027344 17.214844 20.105469 C 17.296875 20.179688 17.453125 20.300781 17.5625 20.375 C 17.773438 20.515625 17.910156 20.613281 18.449219 21.003906 C 18.636719 21.140625 18.898438 21.328125 19.023438 21.417969 C 19.410156 21.6875 20.371094 22.441406 20.441406 22.527344 C 20.480469 22.574219 20.578125 22.648438 20.660156 22.691406 C 20.84375 22.785156 21.480469 23.265625 21.574219 23.378906 C 21.609375 23.421875 21.828125 23.585938 22.0625 23.746094 C 22.292969 23.902344 22.59375 24.105469 22.730469 24.199219 C 22.867188 24.292969 23.003906 24.398438 23.03125 24.433594 C 23.078125 24.496094 23.324219 24.675781 23.769531 24.976562 C 23.90625 25.070312 24.046875 25.179688 24.082031 25.222656 C 24.117188 25.265625 24.273438 25.347656 24.425781 25.40625 C 24.578125 25.464844 24.730469 25.535156 24.761719 25.5625 C 24.871094 25.65625 25.597656 25.460938 25.855469 25.269531 C 25.980469 25.179688 26.140625 25.074219 26.214844 25.042969 C 26.285156 25.007812 26.441406 24.894531 26.558594 24.789062 C 27 24.398438 27.324219 24.140625 27.601562 23.964844 C 27.761719 23.863281 28.054688 23.640625 28.257812 23.46875 C 28.460938 23.296875 28.695312 23.121094 28.773438 23.078125 C 28.855469 23.035156 29.003906 22.925781 29.105469 22.835938 C 29.203125 22.742188 29.433594 22.574219 29.613281 22.460938 C 29.792969 22.347656 29.976562 22.195312 30.023438 22.125 C 30.070312 22.054688 30.222656 21.941406 30.363281 21.875 C 30.5 21.804688 30.761719 21.628906 30.9375 21.476562 C 31.113281 21.324219 31.433594 21.078125 31.648438 20.925781 C 32.054688 20.648438 32.359375 20.417969 32.65625 20.167969 C 32.839844 20.011719 33.242188 19.722656 33.941406 19.230469 C 34.65625 18.726562 34.742188 18.664062 34.925781 18.5 C 35.132812 18.316406 36.214844 17.492188 36.539062 17.269531 C 36.667969 17.183594 36.855469 17.035156 36.957031 16.945312 C 37.054688 16.855469 37.214844 16.738281 37.308594 16.679688 C 37.402344 16.625 37.691406 16.414062 37.953125 16.214844 C 38.488281 15.796875 38.503906 15.726562 38.097656 15.550781 C 37.742188 15.398438 12.09375 15.375 11.886719 15.527344 M 9.984375 16.84375 C 9.835938 16.855469 9.789062 16.886719 9.746094 16.996094 C 9.71875 17.070312 9.632812 17.273438 9.554688 17.453125 C 9.339844 17.957031 9.335938 18.082031 9.335938 25.253906 L 9.335938 31.980469 L 9.453125 32.269531 C 9.640625 32.738281 10.011719 32.871094 10.292969 32.574219 C 10.339844 32.523438 10.539062 32.371094 10.734375 32.230469 C 10.929688 32.09375 11.25 31.839844 11.445312 31.664062 C 11.640625 31.488281 11.886719 31.304688 11.996094 31.257812 C 12.105469 31.210938 12.226562 31.132812 12.265625 31.082031 C 12.304688 31.035156 12.449219 30.921875 12.585938 30.832031 C 12.722656 30.742188 12.878906 30.625 12.9375 30.566406 C 12.996094 30.511719 13.1875 30.363281 13.367188 30.238281 C 13.769531 29.960938 13.996094 29.785156 14.257812 29.550781 C 14.367188 29.453125 14.558594 29.304688 14.679688 29.21875 C 14.800781 29.136719 14.96875 29.007812 15.050781 28.9375 C 15.128906 28.863281 15.222656 28.804688 15.257812 28.804688 C 15.289062 28.804688 15.492188 28.664062 15.703125 28.492188 C 15.914062 28.320312 16.171875 28.117188 16.28125 28.042969 C 16.804688 27.667969 16.972656 27.542969 16.996094 27.515625 C 17.042969 27.449219 17.464844 27.121094 17.574219 27.0625 C 17.636719 27.027344 17.796875 26.902344 17.933594 26.777344 C 18.070312 26.65625 18.261719 26.511719 18.363281 26.457031 C 18.464844 26.398438 18.667969 26.265625 18.816406 26.152344 C 18.964844 26.042969 19.175781 25.890625 19.285156 25.816406 C 19.394531 25.746094 19.5625 25.617188 19.660156 25.53125 C 19.941406 25.289062 20.042969 25.210938 20.296875 25.023438 L 20.535156 24.851562 L 20.453125 24.625 C 20.394531 24.46875 20.316406 24.363281 20.199219 24.289062 C 20.03125 24.1875 19.480469 23.785156 18.917969 23.359375 C 18.765625 23.246094 18.488281 23.039062 18.300781 22.902344 C 17.980469 22.671875 17.839844 22.5625 17.316406 22.152344 C 17.207031 22.070312 16.886719 21.828125 16.605469 21.613281 C 16.324219 21.402344 16.011719 21.167969 15.914062 21.09375 C 15.816406 21.019531 15.65625 20.898438 15.550781 20.828125 C 15.257812 20.625 14.785156 20.253906 14.75 20.199219 C 14.730469 20.167969 14.59375 20.066406 14.441406 19.96875 C 14.042969 19.714844 13.464844 19.269531 13.167969 18.992188 C 13.027344 18.863281 12.878906 18.753906 12.839844 18.753906 C 12.800781 18.753906 12.742188 18.71875 12.710938 18.679688 C 12.675781 18.636719 12.5 18.503906 12.320312 18.382812 C 12.140625 18.261719 11.894531 18.058594 11.777344 17.933594 C 11.65625 17.808594 11.523438 17.703125 11.480469 17.703125 C 11.394531 17.703125 11.109375 17.539062 10.960938 17.398438 C 10.441406 16.925781 10.257812 16.820312 9.984375 16.84375 M 39.585938 16.96875 C 39.503906 17.0625 39.34375 17.191406 39.238281 17.253906 C 39.128906 17.320312 38.964844 17.4375 38.875 17.515625 C 38.78125 17.597656 38.65625 17.679688 38.589844 17.707031 C 38.527344 17.730469 38.472656 17.773438 38.472656 17.796875 C 38.472656 17.824219 38.355469 17.917969 38.214844 18.003906 C 38.070312 18.09375 37.820312 18.296875 37.652344 18.460938 C 37.484375 18.625 37.304688 18.753906 37.246094 18.753906 C 37.191406 18.753906 37.066406 18.824219 36.96875 18.914062 C 36.785156 19.078125 36.601562 19.21875 35.902344 19.726562 C 35.675781 19.890625 35.410156 20.09375 35.3125 20.175781 C 34.882812 20.539062 34.523438 20.824219 34.4375 20.875 C 34.210938 21.011719 33.957031 21.199219 33.894531 21.277344 C 33.855469 21.324219 33.746094 21.402344 33.648438 21.453125 C 33.550781 21.503906 33.417969 21.601562 33.355469 21.675781 C 33.289062 21.746094 33.144531 21.851562 33.035156 21.90625 C 32.921875 21.964844 32.78125 22.066406 32.71875 22.132812 C 32.65625 22.199219 32.503906 22.308594 32.375 22.375 C 32.246094 22.441406 32.078125 22.566406 31.996094 22.65625 C 31.914062 22.742188 31.746094 22.882812 31.625 22.96875 C 31.417969 23.113281 31.296875 23.207031 30.851562 23.585938 C 30.75 23.671875 30.566406 23.792969 30.445312 23.855469 C 30.320312 23.914062 30.160156 24.023438 30.085938 24.097656 C 30.007812 24.167969 29.851562 24.273438 29.738281 24.328125 C 29.460938 24.464844 29.410156 24.789062 29.640625 24.9375 C 29.714844 24.984375 29.871094 25.105469 29.980469 25.203125 C 30.414062 25.578125 30.601562 25.730469 30.679688 25.773438 C 30.898438 25.890625 31.328125 26.191406 31.539062 26.375 C 31.90625 26.699219 32.074219 26.828125 32.339844 26.984375 C 32.476562 27.0625 32.726562 27.253906 32.894531 27.414062 C 33.066406 27.574219 33.226562 27.707031 33.25 27.707031 C 33.273438 27.707031 33.398438 27.796875 33.523438 27.90625 C 33.648438 28.015625 33.773438 28.105469 33.800781 28.105469 C 33.828125 28.105469 33.941406 28.179688 34.054688 28.273438 C 34.167969 28.363281 34.339844 28.488281 34.433594 28.546875 C 34.527344 28.601562 34.632812 28.695312 34.667969 28.753906 C 34.699219 28.808594 34.839844 28.910156 34.976562 28.980469 C 35.113281 29.050781 35.34375 29.21875 35.492188 29.355469 C 35.640625 29.492188 35.820312 29.632812 35.898438 29.675781 C 35.972656 29.714844 36.089844 29.808594 36.15625 29.882812 C 36.226562 29.957031 36.394531 30.066406 36.53125 30.128906 C 36.667969 30.191406 36.855469 30.332031 36.949219 30.441406 C 37.042969 30.554688 37.214844 30.691406 37.332031 30.753906 C 37.449219 30.8125 37.640625 30.953125 37.757812 31.058594 C 37.871094 31.167969 37.984375 31.257812 38.003906 31.257812 C 38.050781 31.257812 38.394531 31.527344 38.675781 31.789062 C 38.800781 31.902344 39.019531 32.058594 39.160156 32.132812 C 39.300781 32.203125 39.511719 32.347656 39.621094 32.453125 C 40.175781 32.960938 40.488281 32.824219 40.601562 32.03125 C 40.683594 31.46875 40.738281 26.988281 40.71875 22.855469 C 40.707031 20.585938 40.695312 18.515625 40.695312 18.253906 C 40.699219 17.855469 40.679688 17.757812 40.601562 17.652344 C 40.550781 17.585938 40.445312 17.410156 40.375 17.265625 C 40.148438 16.808594 39.84375 16.695312 39.585938 16.96875 M 27.683594 25.929688 C 27.570312 26.027344 27.457031 26.105469 27.429688 26.105469 C 27.402344 26.105469 27.257812 26.226562 27.101562 26.371094 C 26.449219 26.996094 26.207031 27.078125 25.050781 27.078125 C 24.078125 27.082031 23.96875 27.066406 23.785156 26.890625 C 23.714844 26.828125 23.539062 26.722656 23.394531 26.660156 C 23.246094 26.59375 23.058594 26.480469 22.96875 26.402344 C 22.421875 25.914062 21.777344 25.714844 21.605469 25.980469 C 21.5625 26.046875 21.441406 26.148438 21.335938 26.203125 C 21.230469 26.257812 21.132812 26.335938 21.117188 26.378906 C 21.101562 26.421875 20.964844 26.535156 20.816406 26.628906 C 20.667969 26.726562 20.535156 26.828125 20.515625 26.855469 C 20.5 26.886719 20.378906 26.964844 20.246094 27.03125 C 20.117188 27.097656 20 27.171875 19.992188 27.191406 C 19.984375 27.214844 19.832031 27.34375 19.660156 27.480469 C 19.488281 27.617188 19.253906 27.8125 19.144531 27.910156 C 19.03125 28.007812 18.863281 28.121094 18.769531 28.15625 C 18.671875 28.195312 18.417969 28.382812 18.203125 28.570312 C 17.988281 28.761719 17.746094 28.949219 17.671875 28.988281 C 17.59375 29.03125 17.398438 29.167969 17.234375 29.296875 C 17.074219 29.425781 16.871094 29.582031 16.785156 29.644531 C 16.695312 29.707031 16.570312 29.8125 16.503906 29.875 C 16.371094 30 16.054688 30.226562 15.46875 30.628906 C 15.042969 30.917969 14.605469 31.253906 14.3125 31.507812 C 14.203125 31.605469 14.023438 31.746094 13.914062 31.816406 C 13.804688 31.886719 13.613281 32.03125 13.488281 32.140625 C 13.363281 32.246094 13.089844 32.457031 12.878906 32.605469 C 12.667969 32.757812 12.449219 32.929688 12.394531 32.984375 C 12.335938 33.042969 12.183594 33.164062 12.054688 33.257812 C 11.929688 33.347656 11.824219 33.441406 11.824219 33.460938 C 11.824219 33.484375 11.71875 33.539062 11.589844 33.585938 C 11.285156 33.699219 10.984375 34.019531 10.984375 34.226562 C 10.984375 34.273438 11.308594 34.363281 11.824219 34.460938 L 12.390625 34.570312 L 25.125 34.5625 L 37.855469 34.558594 L 38.324219 34.449219 C 38.582031 34.394531 38.84375 34.3125 38.90625 34.273438 L 39.019531 34.203125 L 38.894531 33.992188 C 38.828125 33.878906 38.671875 33.714844 38.554688 33.632812 C 38.433594 33.550781 38.203125 33.394531 38.046875 33.285156 C 37.886719 33.175781 37.636719 32.984375 37.488281 32.855469 C 37.339844 32.730469 37.0625 32.515625 36.871094 32.382812 C 36.683594 32.25 36.449219 32.074219 36.355469 31.988281 C 36.257812 31.902344 36.074219 31.765625 35.949219 31.683594 C 35.820312 31.605469 35.714844 31.519531 35.714844 31.5 C 35.714844 31.480469 35.597656 31.394531 35.453125 31.3125 C 35.1875 31.160156 34.992188 31.019531 34.582031 30.683594 C 34.167969 30.347656 33.722656 30.007812 33.390625 29.78125 C 33.207031 29.65625 33.046875 29.53125 33.027344 29.503906 C 33.011719 29.476562 32.800781 29.320312 32.558594 29.15625 C 32.320312 28.992188 32.070312 28.804688 32.007812 28.738281 C 31.949219 28.671875 31.804688 28.558594 31.691406 28.488281 C 31.578125 28.417969 31.472656 28.335938 31.453125 28.308594 C 31.4375 28.277344 31.316406 28.199219 31.191406 28.136719 C 31.0625 28.070312 30.917969 27.96875 30.863281 27.90625 C 30.808594 27.84375 30.589844 27.671875 30.382812 27.523438 C 30.171875 27.371094 30 27.230469 30 27.207031 C 30 27.183594 29.875 27.105469 29.726562 27.035156 C 29.566406 26.960938 29.3125 26.773438 29.121094 26.589844 C 28.941406 26.410156 28.671875 26.207031 28.523438 26.128906 C 28.375 26.054688 28.183594 25.9375 28.097656 25.875 C 27.90625 25.726562 27.929688 25.722656 27.683594 25.929688 "/>
</g>
</svg>
