<?xml version="1.0" encoding="UTF-8"?>
<svg xmlns="http://www.w3.org/2000/svg" xmlns:xlink="http://www.w3.org/1999/xlink" width="125pt" height="125pt" viewBox="0 0 125 125" version="1.1">
<g id="surface1">
<path style=" stroke:none;fill-rule:evenodd;fill:rgb(6.666667%,31.764706%,40.784314%);fill-opacity:1;" d="M 26.6875 21.839844 C 25.808594 21.960938 24.898438 22.402344 24.335938 22.980469 C 23.324219 24.019531 23.375 23.128906 23.375 39.433594 C 23.375 49.074219 23.332031 53.84375 23.246094 54.007812 C 23.125 54.234375 22.957031 54.25 20.492188 54.25 C 17.625 54.25 17.335938 54.304688 16.714844 54.964844 L 16.367188 55.335938 L 16.367188 71.058594 L 16.371094 86.785156 L 16.679688 87.1875 C 17.316406 88.023438 17.078125 88 25.019531 88 L 32.191406 88 L 32.65625 87.683594 C 33.542969 87.082031 33.5 87.550781 33.5 78.375 C 33.5 72.914062 33.542969 70.027344 33.628906 69.867188 C 33.789062 69.570312 49.671875 69.480469 50.304688 69.769531 L 50.625 69.914062 L 50.625 74.121094 C 50.625 77.222656 50.585938 78.363281 50.476562 78.476562 C 50.371094 78.578125 49.695312 78.625 48.234375 78.625 C 45.867188 78.625 45.324219 78.8125 45.46875 79.570312 C 45.578125 80.125 45.625 80.125 58.289062 80.113281 C 71.234375 80.097656 71 80.109375 71.136719 79.589844 C 71.34375 78.820312 70.785156 78.625 68.390625 78.625 C 66.929688 78.625 66.253906 78.578125 66.148438 78.476562 C 65.929688 78.253906 65.941406 70.4375 66.160156 70 L 66.320312 69.6875 L 70.003906 69.652344 C 72.542969 69.632812 73.792969 69.664062 74.03125 69.761719 L 74.375 69.90625 L 74.375 84.957031 C 74.375 101.726562 74.308594 100.546875 75.246094 100.921875 C 75.792969 101.140625 95.167969 101.210938 102.710938 101.019531 C 106.28125 100.929688 106.296875 100.925781 106.902344 100.117188 C 107.175781 99.746094 107.261719 58.878906 106.988281 58.550781 C 106.914062 58.460938 106.609375 58.242188 106.3125 58.066406 L 105.769531 57.75 L 99.710938 57.75 C 94.824219 57.75 93.628906 57.71875 93.515625 57.582031 C 93.417969 57.464844 93.371094 52.78125 93.347656 41.113281 C 93.3125 25.105469 93.308594 24.800781 93.058594 24.152344 C 92.734375 23.300781 92.046875 22.578125 91.152344 22.152344 L 90.4375 21.8125 L 58.75 21.800781 C 41.320312 21.792969 26.894531 21.808594 26.6875 21.839844 M 59.445312 23.132812 C 59.621094 23.328125 59.644531 23.4375 59.542969 23.601562 C 59.207031 24.140625 58.464844 23.761719 58.730469 23.183594 C 58.898438 22.808594 59.136719 22.789062 59.445312 23.132812 M 89.898438 25.207031 C 90.222656 25.503906 90.257812 57.007812 89.929688 57.472656 L 89.734375 57.75 L 75.101562 57.75 L 74.753906 58.121094 C 74.351562 58.554688 74.253906 59.023438 74.25 60.585938 C 74.25 61.460938 74.203125 61.777344 74.054688 61.929688 C 73.707031 62.277344 34.097656 62.222656 33.75 61.875 C 33.511719 61.636719 33.5 61.457031 33.5 58.402344 C 33.5 54.003906 33.726562 54.25 29.636719 54.25 C 26.9375 54.25 26.886719 54.246094 26.695312 53.972656 C 26.386719 53.535156 26.398438 25.570312 26.707031 25.226562 C 27.011719 24.890625 89.523438 24.867188 89.898438 25.207031 M 33.375 40.042969 C 33.375 40.28125 33.425781 40.347656 33.5625 40.296875 C 33.664062 40.253906 33.75 40.179688 33.75 40.125 C 33.75 40.074219 33.664062 39.960938 33.5625 39.875 C 33.402344 39.742188 33.375 39.769531 33.375 40.042969 M 38.753906 40.054688 C 38.75 40.324219 38.789062 40.386719 38.886719 40.289062 C 38.988281 40.1875 38.988281 40.082031 38.890625 39.917969 C 38.773438 39.714844 38.757812 39.734375 38.753906 40.054688 M 51.128906 40.054688 C 51.125 40.324219 51.164062 40.386719 51.261719 40.289062 C 51.363281 40.1875 51.363281 40.082031 51.265625 39.917969 C 51.148438 39.714844 51.132812 39.734375 51.128906 40.054688 M 38.75 43.492188 C 38.75 43.632812 38.804688 43.75 38.875 43.75 C 38.945312 43.75 39 43.667969 39 43.570312 C 39 43.472656 38.945312 43.355469 38.875 43.3125 C 38.804688 43.269531 38.75 43.351562 38.75 43.492188 M 51.125 43.46875 C 51.125 43.625 51.179688 43.75 51.25 43.75 C 51.40625 43.75 51.40625 43.617188 51.25 43.375 C 51.152344 43.222656 51.128906 43.242188 51.125 43.46875 M 33.375 43.5625 C 33.375 43.664062 33.464844 43.75 33.578125 43.75 C 33.742188 43.75 33.753906 43.714844 33.625 43.5625 C 33.539062 43.460938 33.449219 43.375 33.421875 43.375 C 33.394531 43.375 33.375 43.460938 33.375 43.5625 M 27.25 54.859375 C 27.640625 54.96875 27.746094 55.476562 27.425781 55.710938 C 27.128906 55.929688 24.367188 55.941406 24.148438 55.726562 C 23.410156 54.988281 25.550781 54.390625 27.25 54.859375 M 23.226562 55.339844 C 23.265625 55.761719 22.882812 56 22.4375 55.828125 C 22.246094 55.757812 22.175781 55.117188 22.339844 54.953125 C 22.605469 54.6875 23.1875 54.941406 23.226562 55.339844 M 31.992188 56.6875 C 32.296875 56.992188 32.210938 81.859375 31.90625 82.09375 C 31.617188 82.316406 18.121094 82.320312 17.898438 82.101562 C 17.664062 81.867188 17.683594 57.011719 17.917969 56.691406 C 18.078125 56.472656 18.296875 56.460938 22.011719 56.523438 C 24.171875 56.558594 27.0625 56.546875 28.4375 56.5 C 31.316406 56.398438 31.722656 56.417969 31.992188 56.6875 M 91.351562 58.898438 C 91.550781 59.101562 91.539062 59.5625 91.328125 59.738281 C 91.046875 59.972656 90.5 59.699219 90.5 59.320312 C 90.5 58.863281 91.042969 58.59375 91.351562 58.898438 M 103.910156 61.050781 C 104.246094 61.308594 104.253906 94.972656 103.914062 95.21875 C 103.5 95.523438 77.792969 95.4375 77.628906 95.132812 C 77.542969 94.96875 77.5 89.445312 77.5 78.125 C 77.5 66.804688 77.542969 61.28125 77.628906 61.117188 C 77.796875 60.800781 103.496094 60.738281 103.910156 61.050781 M 59.351562 64.300781 C 60.613281 64.96875 60.453125 66.882812 59.105469 67.226562 C 58.132812 67.472656 57.121094 66.863281 56.929688 65.910156 C 56.707031 64.792969 58.285156 63.742188 59.351562 64.300781 M 57.742188 65.027344 C 56.699219 66.171875 58.367188 67.546875 59.449219 66.433594 C 60 65.867188 60.007812 65.453125 59.476562 64.980469 C 58.902344 64.46875 58.238281 64.484375 57.742188 65.027344 M 25.625 83.640625 C 27.15625 84.207031 26.550781 86.75 24.886719 86.75 C 23.042969 86.75 22.695312 83.972656 24.484375 83.53125 C 24.941406 83.417969 25.054688 83.429688 25.625 83.640625 M 24.625 83.964844 C 24.207031 84.121094 23.757812 84.691406 23.757812 85.0625 C 23.757812 85.726562 24.898438 86.730469 25.195312 86.324219 C 25.273438 86.214844 25.398438 86.125 25.46875 86.125 C 25.726562 86.125 26.257812 85.269531 26.183594 84.972656 C 26.011719 84.300781 25.171875 83.757812 24.625 83.964844 M 91.316406 96.769531 C 92.082031 97.292969 92.414062 98.246094 92.039062 98.847656 C 91.347656 99.960938 90.167969 100.1875 89.34375 99.363281 C 88.058594 98.078125 89.828125 95.75 91.316406 96.769531 M 90.183594 97.175781 C 89.269531 97.574219 89.09375 98.324219 89.757812 98.992188 C 90.664062 99.894531 92.144531 98.917969 91.5625 97.796875 C 91.433594 97.542969 90.738281 96.980469 90.589844 97.003906 C 90.574219 97.007812 90.390625 97.085938 90.183594 97.175781 "/>
<path style=" stroke:none;fill-rule:evenodd;fill:rgb(96.078431%,96.862745%,96.862745%);fill-opacity:1;" d="M 57.9375 25.375 L 26.8125 25.4375 L 26.777344 39.375 C 26.757812 47.039062 26.773438 53.4375 26.8125 53.59375 C 26.878906 53.875 26.882812 53.875 29.628906 53.875 C 32.308594 53.875 32.390625 53.882812 32.847656 54.171875 C 33.847656 54.808594 33.808594 54.636719 33.851562 58.324219 C 33.890625 61.601562 33.890625 61.625 34.164062 61.691406 C 34.3125 61.726562 43.324219 61.742188 54.1875 61.722656 L 73.9375 61.6875 L 74 60.0625 C 74.109375 57.183594 73.507812 57.375 82.496094 57.375 C 88.972656 57.375 89.730469 57.355469 89.800781 57.175781 C 89.910156 56.890625 89.890625 25.523438 89.78125 25.460938 C 89.535156 25.324219 87.054688 25.316406 57.9375 25.375 M 48.363281 30.675781 C 48.613281 30.90625 48.625 31.023438 48.625 33.820312 C 48.625 37.027344 48.621094 37.054688 48.117188 37.316406 C 47.703125 37.53125 34.140625 37.59375 33.589844 37.386719 C 32.878906 37.117188 32.875 37.089844 32.875 34.0625 C 32.875 31.132812 32.941406 30.691406 33.40625 30.503906 C 34.03125 30.246094 48.070312 30.410156 48.363281 30.675781 M 83.183594 30.5 C 83.769531 30.722656 83.875 31.234375 83.875 33.914062 C 83.875 36.554688 83.800781 36.96875 83.257812 37.289062 C 82.738281 37.59375 51.589844 37.617188 50.996094 37.3125 C 50.40625 37.003906 50.375 36.832031 50.382812 33.914062 C 50.394531 30.976562 50.417969 30.808594 50.882812 30.554688 C 51.265625 30.339844 82.632812 30.289062 83.183594 30.5 M 36.042969 39.429688 C 36.902344 40.226562 36.203125 41 34.625 41 C 33.054688 41 32.363281 40.25 33.183594 39.433594 C 33.644531 38.96875 35.546875 38.96875 36.042969 39.429688 M 48.261719 39.382812 C 48.714844 39.707031 48.761719 40.335938 48.363281 40.699219 C 48.113281 40.921875 47.820312 40.941406 43.480469 40.972656 L 38.863281 41.007812 L 38.5 40.722656 C 38.003906 40.332031 37.992188 39.746094 38.46875 39.390625 C 39.007812 38.988281 47.699219 38.984375 48.261719 39.382812 M 83.425781 39.40625 C 83.9375 39.863281 83.960938 40.277344 83.5 40.667969 L 83.105469 41 L 51.144531 41 L 50.757812 40.675781 C 50.277344 40.273438 50.265625 39.863281 50.71875 39.441406 L 51.058594 39.125 L 83.109375 39.125 L 83.425781 39.40625 M 35.867188 42.808594 C 37.460938 43.632812 35.210938 45.0625 33.46875 44.332031 C 32.734375 44.027344 32.695312 43.039062 33.40625 42.753906 C 33.867188 42.570312 35.472656 42.601562 35.867188 42.808594 M 48.300781 42.890625 C 48.8125 43.289062 48.722656 43.980469 48.125 44.28125 C 47.675781 44.503906 40.304688 44.621094 39.101562 44.421875 C 38.148438 44.261719 37.789062 43.394531 38.46875 42.890625 C 39.011719 42.484375 47.785156 42.484375 48.300781 42.890625 M 83.421875 42.90625 C 83.890625 43.332031 83.933594 43.667969 83.578125 44.082031 L 83.273438 44.4375 L 67.222656 44.4375 C 51.953125 44.4375 51.160156 44.425781 50.832031 44.210938 C 50.226562 43.816406 50.230469 43.222656 50.839844 42.847656 C 51.164062 42.644531 52.261719 42.632812 67.148438 42.628906 L 83.109375 42.625 L 83.421875 42.90625 M 83.421875 46.40625 C 83.878906 46.824219 83.917969 47.128906 83.574219 47.5625 L 83.273438 47.9375 L 67.191406 47.96875 L 51.109375 48.003906 L 50.742188 47.636719 C 50.28125 47.175781 50.28125 46.949219 50.742188 46.492188 L 51.105469 46.125 L 83.109375 46.125 L 83.421875 46.40625 M 24.449219 55.09375 C 24.050781 55.488281 24.386719 55.625 25.757812 55.625 C 27.109375 55.625 27.140625 55.617188 27.101562 55.351562 C 27.0625 55.085938 24.6875 54.855469 24.449219 55.09375 M 18.15625 56.957031 C 18.03125 57.007812 18 59.621094 18 69.4375 L 18 81.855469 L 18.382812 81.941406 C 18.871094 82.046875 19.617188 81.910156 19.648438 81.714844 C 19.660156 81.628906 19.675781 80.8125 19.683594 79.890625 C 19.695312 78.226562 19.699219 78.21875 20.042969 77.921875 L 20.390625 77.625 L 29.480469 77.625 L 29.867188 77.949219 L 30.25 78.273438 L 30.25 81.863281 L 30.707031 81.949219 C 30.957031 81.996094 31.308594 81.984375 31.488281 81.921875 L 31.8125 81.804688 L 31.832031 69.683594 C 31.84375 63.015625 31.875 57.421875 31.894531 57.25 L 31.9375 56.9375 L 25.125 56.914062 C 21.378906 56.902344 18.242188 56.921875 18.15625 56.957031 M 29.867188 58.699219 L 30.25 59.023438 L 30.25 61.792969 C 30.246094 64.894531 30.226562 65.039062 29.796875 65.234375 C 29.199219 65.507812 20.335938 65.421875 19.992188 65.144531 C 19.707031 64.914062 19.703125 64.886719 19.707031 61.933594 L 19.710938 58.960938 L 20.4375 58.375 L 29.480469 58.375 L 29.867188 58.699219 M 77.832031 61.332031 C 77.628906 61.539062 77.742188 94.84375 77.949219 94.925781 C 78.273438 95.046875 103.601562 95.011719 103.679688 94.886719 C 103.773438 94.734375 103.777344 61.519531 103.683594 61.367188 C 103.601562 61.234375 77.96875 61.199219 77.832031 61.332031 M 101.988281 63.046875 C 102.34375 63.429688 102.4375 69.117188 102.089844 69.464844 C 101.722656 69.828125 100.71875 69.863281 90.621094 69.851562 C 79.699219 69.835938 79.722656 69.839844 79.507812 69.222656 C 79.289062 68.597656 79.332031 63.695312 79.558594 63.253906 C 79.824219 62.742188 79.144531 62.769531 90.882812 62.761719 L 101.707031 62.75 L 101.988281 63.046875 M 21.066406 67.433594 C 21.855469 68.21875 20.953125 69.328125 20.042969 68.691406 C 19.609375 68.386719 19.59375 67.886719 20.003906 67.476562 C 20.4375 67.042969 20.671875 67.035156 21.066406 67.433594 M 29.886719 67.476562 C 30.359375 67.898438 30.324219 68.496094 29.808594 68.726562 C 29.382812 68.921875 23.992188 68.945312 23.632812 68.753906 C 23.277344 68.5625 23.085938 68.058594 23.25 67.75 C 23.566406 67.160156 23.765625 67.125 26.714844 67.125 L 29.496094 67.125 L 29.886719 67.476562 M 21.085938 70.898438 C 21.882812 71.648438 20.9375 72.820312 20.042969 72.191406 C 19.636719 71.90625 19.605469 71.417969 19.964844 70.992188 C 20.332031 70.554688 20.691406 70.527344 21.085938 70.898438 M 29.90625 70.941406 C 30.410156 71.40625 30.359375 71.929688 29.789062 72.230469 C 29.347656 72.464844 23.882812 72.429688 23.542969 72.191406 C 23.09375 71.875 23.058594 71.394531 23.453125 70.984375 L 23.796875 70.625 L 29.566406 70.625 L 29.90625 70.941406 M 82.632812 71.867188 C 83.460938 72.691406 82.878906 73.25 81.1875 73.25 C 79.644531 73.25 79.171875 72.921875 79.5 72.066406 C 79.765625 71.367188 81.996094 71.226562 82.632812 71.867188 M 102.019531 71.875 C 102.441406 72.296875 102.421875 72.652344 101.957031 73.027344 C 101.605469 73.308594 85.453125 73.371094 85.101562 73.09375 C 84.585938 72.679688 84.640625 71.972656 85.21875 71.636719 C 85.359375 71.550781 88.269531 71.507812 93.539062 71.503906 L 101.644531 71.5 L 102.019531 71.875 M 82.640625 75.355469 C 83.527344 76.144531 82.828125 76.785156 81.101562 76.761719 C 79.847656 76.742188 79.578125 76.625 79.464844 76.03125 C 79.273438 75.03125 81.703125 74.515625 82.640625 75.355469 M 101.921875 75.257812 C 102.386719 75.625 102.378906 76.285156 101.910156 76.589844 C 101.597656 76.796875 101.015625 76.8125 93.402344 76.8125 L 85.226562 76.8125 L 84.988281 76.515625 C 84.664062 76.117188 84.6875 75.675781 85.058594 75.308594 L 85.363281 75 L 93.476562 75 C 101.496094 75 101.59375 75.003906 101.921875 75.257812 M 101.953125 82.292969 L 102.292969 82.585938 L 102.28125 85.496094 C 102.265625 88.324219 102.257812 88.414062 101.984375 88.703125 L 101.707031 89 L 79.914062 89 L 79.675781 88.738281 C 79.375 88.40625 79.238281 83.253906 79.511719 82.59375 C 79.753906 82.011719 79.664062 82.015625 90.898438 82.007812 L 101.609375 82 L 101.953125 82.292969 M 102.019531 91.125 C 102.4375 91.542969 102.421875 91.894531 101.976562 92.28125 C 101.667969 92.546875 80.765625 92.683594 79.855469 92.425781 C 79.304688 92.269531 79.34375 91.105469 79.90625 90.878906 C 80.066406 90.816406 84.785156 90.761719 90.914062 90.757812 L 101.644531 90.75 L 102.019531 91.125 "/>
<path style=" stroke:none;fill-rule:evenodd;fill:rgb(95.294118%,41.568627%,24.313725%);fill-opacity:1;" d="M 54.625 1 C 54.625 1.238281 54.542969 1.25 53.003906 1.25 C 51.511719 1.25 51.375 1.269531 51.25 1.5 C 51.132812 1.722656 50.988281 1.75 49.984375 1.75 C 48.957031 1.75 48.84375 1.773438 48.785156 2 C 48.726562 2.222656 48.617188 2.25 47.734375 2.25 C 46.832031 2.25 46.75 2.269531 46.75 2.5 C 46.75 2.726562 46.667969 2.75 45.800781 2.75 C 44.957031 2.75 44.84375 2.777344 44.785156 3 C 44.730469 3.214844 44.617188 3.25 43.984375 3.25 C 43.332031 3.25 43.25 3.277344 43.25 3.5 C 43.25 3.71875 43.167969 3.75 42.550781 3.75 C 41.957031 3.75 41.84375 3.789062 41.785156 4 C 41.726562 4.222656 41.085938 4.355469 40.476562 4.265625 C 40.429688 4.261719 40.355469 4.367188 40.3125 4.503906 C 40.25 4.695312 40.121094 4.75 39.742188 4.75 C 39.332031 4.75 39.25 4.792969 39.25 5 C 39.25 5.21875 39.167969 5.25 38.5625 5.25 C 38.054688 5.25 37.875 5.296875 37.875 5.425781 C 37.875 5.535156 37.683594 5.636719 37.375 5.6875 C 37.066406 5.738281 36.875 5.839844 36.875 5.949219 C 36.875 6.050781 36.75 6.125 36.574219 6.125 C 36.140625 6.125 35.875 6.25 35.875 6.449219 C 35.875 6.566406 35.726562 6.625 35.425781 6.625 C 35.082031 6.625 34.960938 6.683594 34.910156 6.875 C 34.863281 7.0625 34.742188 7.125 34.410156 7.125 C 34.082031 7.125 33.960938 7.1875 33.910156 7.375 C 33.863281 7.5625 33.742188 7.625 33.410156 7.625 C 33.082031 7.625 32.960938 7.6875 32.910156 7.875 C 32.863281 8.0625 32.742188 8.125 32.410156 8.125 C 32.082031 8.125 31.960938 8.1875 31.910156 8.375 C 31.867188 8.539062 31.742188 8.625 31.546875 8.625 C 31.382812 8.625 31.152344 8.738281 31.035156 8.875 C 30.914062 9.011719 30.71875 9.125 30.597656 9.125 C 30.457031 9.125 30.375 9.21875 30.375 9.375 C 30.375 9.578125 30.292969 9.625 29.925781 9.625 C 29.582031 9.625 29.460938 9.683594 29.410156 9.875 C 29.375 10.011719 29.25 10.125 29.128906 10.125 C 29.011719 10.125 28.8125 10.238281 28.6875 10.375 C 28.5625 10.511719 28.351562 10.625 28.21875 10.625 C 28.082031 10.625 27.949219 10.734375 27.910156 10.875 C 27.875 11.011719 27.742188 11.125 27.613281 11.125 C 27.484375 11.125 27.308594 11.238281 27.222656 11.375 C 27.136719 11.511719 26.9375 11.625 26.78125 11.625 C 26.582031 11.625 26.5 11.699219 26.5 11.875 C 26.5 12.042969 26.417969 12.125 26.25 12.125 C 26.082031 12.125 26 12.207031 26 12.375 C 26 12.578125 25.917969 12.625 25.550781 12.625 C 25.207031 12.625 25.085938 12.683594 25.035156 12.875 C 25 13.011719 24.867188 13.125 24.734375 13.125 C 24.582031 13.125 24.5 13.214844 24.5 13.375 C 24.5 13.542969 24.417969 13.625 24.25 13.625 C 24.082031 13.625 24 13.707031 24 13.875 C 24 14.042969 23.917969 14.125 23.75 14.125 C 23.613281 14.125 23.386719 14.238281 23.25 14.375 C 23.113281 14.511719 22.910156 14.625 22.800781 14.625 C 22.691406 14.625 22.570312 14.738281 22.535156 14.875 C 22.5 15.011719 22.367188 15.125 22.234375 15.125 C 22.082031 15.125 22 15.214844 22 15.375 C 22 15.542969 21.917969 15.625 21.75 15.625 C 21.613281 15.625 21.5 15.707031 21.5 15.804688 C 21.5 15.902344 21.386719 16.019531 21.25 16.0625 C 21.113281 16.105469 21 16.214844 21 16.304688 C 21 16.398438 20.886719 16.5 20.75 16.535156 C 20.613281 16.570312 20.5 16.683594 20.5 16.785156 C 20.5 16.886719 20.386719 17 20.25 17.035156 C 20.113281 17.070312 20 17.191406 20 17.300781 C 20 17.417969 19.894531 17.5 19.75 17.5 C 19.582031 17.5 19.5 17.582031 19.5 17.75 C 19.5 17.917969 19.417969 18 19.25 18 C 19.082031 18 19 18.082031 19 18.25 C 19 18.417969 18.917969 18.5 18.75 18.5 C 18.582031 18.5 18.5 18.582031 18.5 18.75 C 18.5 18.917969 18.417969 19 18.25 19 C 18.082031 19 18 19.082031 18 19.25 C 18 19.417969 17.917969 19.5 17.75 19.5 C 17.589844 19.5 17.5 19.582031 17.5 19.734375 C 17.5 19.867188 17.386719 20 17.25 20.035156 C 17.113281 20.070312 17 20.183594 17 20.285156 C 17 20.386719 16.886719 20.5 16.75 20.535156 C 16.613281 20.570312 16.5 20.691406 16.5 20.800781 C 16.5 20.910156 16.417969 21 16.320312 21 C 16.222656 21 16.105469 21.113281 16.0625 21.25 C 16.019531 21.386719 15.902344 21.5 15.804688 21.5 C 15.707031 21.5 15.625 21.613281 15.625 21.75 C 15.625 21.917969 15.542969 22 15.375 22 C 15.207031 22 15.125 22.082031 15.125 22.25 C 15.125 22.417969 15.042969 22.5 14.875 22.5 C 14.707031 22.5 14.625 22.582031 14.625 22.75 C 14.625 22.886719 14.511719 23.113281 14.375 23.25 C 14.238281 23.386719 14.125 23.613281 14.125 23.75 C 14.125 23.917969 14.042969 24 13.875 24 C 13.707031 24 13.625 24.082031 13.625 24.25 C 13.625 24.417969 13.542969 24.5 13.375 24.5 C 13.214844 24.5 13.125 24.582031 13.125 24.734375 C 13.125 24.867188 13.011719 25 12.875 25.035156 C 12.683594 25.085938 12.625 25.207031 12.625 25.550781 C 12.625 25.917969 12.578125 26 12.375 26 C 12.207031 26 12.125 26.082031 12.125 26.25 C 12.125 26.417969 12.042969 26.5 11.875 26.5 C 11.699219 26.5 11.625 26.582031 11.625 26.78125 C 11.625 26.9375 11.511719 27.136719 11.375 27.222656 C 11.238281 27.308594 11.125 27.484375 11.125 27.613281 C 11.125 27.742188 11.011719 27.875 10.875 27.910156 C 10.683594 27.960938 10.625 28.082031 10.625 28.425781 C 10.625 28.792969 10.578125 28.875 10.375 28.875 C 10.214844 28.875 10.125 28.957031 10.125 29.109375 C 10.125 29.242188 10.011719 29.375 9.875 29.410156 C 9.683594 29.460938 9.625 29.582031 9.625 29.925781 C 9.625 30.292969 9.578125 30.375 9.375 30.375 C 9.21875 30.375 9.125 30.457031 9.125 30.597656 C 9.125 30.71875 9.011719 30.914062 8.875 31.035156 C 8.738281 31.152344 8.625 31.382812 8.625 31.546875 C 8.625 31.742188 8.539062 31.867188 8.375 31.910156 C 8.1875 31.960938 8.125 32.082031 8.125 32.410156 C 8.125 32.742188 8.0625 32.863281 7.875 32.910156 C 7.6875 32.960938 7.625 33.082031 7.625 33.410156 C 7.625 33.742188 7.5625 33.863281 7.375 33.910156 C 7.1875 33.960938 7.125 34.082031 7.125 34.410156 C 7.125 34.742188 7.0625 34.863281 6.875 34.910156 C 6.683594 34.960938 6.625 35.082031 6.625 35.425781 C 6.625 35.726562 6.566406 35.875 6.449219 35.875 C 6.25 35.875 6.125 36.140625 6.125 36.574219 C 6.125 36.75 6.050781 36.875 5.949219 36.875 C 5.839844 36.875 5.738281 37.066406 5.6875 37.375 C 5.636719 37.683594 5.535156 37.875 5.425781 37.875 C 5.296875 37.875 5.25 38.054688 5.25 38.5625 C 5.25 39.167969 5.21875 39.25 5 39.25 C 4.792969 39.25 4.75 39.332031 4.75 39.742188 C 4.75 40.121094 4.695312 40.25 4.503906 40.3125 C 4.367188 40.355469 4.261719 40.429688 4.265625 40.476562 C 4.359375 41.121094 4.226562 41.75 4 41.75 C 3.777344 41.75 3.75 41.832031 3.75 42.5 C 3.75 43.167969 3.722656 43.25 3.5 43.25 C 3.277344 43.25 3.25 43.332031 3.25 43.984375 C 3.25 44.617188 3.214844 44.730469 3 44.785156 C 2.777344 44.84375 2.75 44.957031 2.75 45.800781 C 2.75 46.667969 2.726562 46.75 2.5 46.75 C 2.273438 46.75 2.25 46.832031 2.25 47.691406 C 2.25 48.507812 2.21875 48.644531 2.007812 48.722656 C 1.875 48.773438 1.761719 48.855469 1.757812 48.90625 C 1.753906 48.957031 1.75 49.472656 1.75 50.046875 C 1.75 50.992188 1.726562 51.101562 1.5 51.160156 C 1.265625 51.222656 1.25 51.332031 1.25 52.910156 C 1.25 54.492188 1.234375 54.601562 1 54.660156 C 0.753906 54.726562 0.75 54.832031 0.75 62.351562 C 0.75 70.0625 0.761719 70.375 1.074219 70.375 C 1.214844 70.375 1.25 70.703125 1.25 72.074219 C 1.25 73.667969 1.265625 73.777344 1.5 73.839844 C 1.726562 73.898438 1.75 74.007812 1.75 75.0625 C 1.75 76.117188 1.773438 76.226562 2 76.285156 C 2.222656 76.34375 2.25 76.457031 2.25 77.300781 C 2.25 78.167969 2.273438 78.25 2.5 78.25 C 2.726562 78.25 2.75 78.332031 2.75 79.179688 C 2.75 80 2.78125 80.117188 3 80.1875 C 3.214844 80.253906 3.25 80.375 3.25 81.007812 C 3.25 81.667969 3.277344 81.75 3.5 81.75 C 3.722656 81.75 3.75 81.832031 3.75 82.5 C 3.75 83.167969 3.777344 83.25 4 83.25 C 4.21875 83.25 4.25 83.332031 4.25 83.929688 C 4.25 84.5 4.289062 84.621094 4.5 84.6875 C 4.695312 84.75 4.75 84.875 4.75 85.257812 C 4.75 85.667969 4.792969 85.75 5 85.75 C 5.21875 85.75 5.25 85.832031 5.25 86.4375 C 5.25 86.945312 5.296875 87.125 5.425781 87.125 C 5.535156 87.125 5.636719 87.316406 5.6875 87.617188 C 5.730469 87.882812 5.847656 88.136719 5.945312 88.171875 C 6.042969 88.210938 6.125 88.351562 6.125 88.484375 C 6.125 88.863281 6.257812 89.125 6.449219 89.125 C 6.566406 89.125 6.625 89.273438 6.625 89.574219 C 6.625 89.917969 6.683594 90.039062 6.875 90.089844 C 7.0625 90.136719 7.125 90.257812 7.125 90.589844 C 7.125 90.917969 7.1875 91.039062 7.375 91.089844 C 7.5625 91.136719 7.625 91.257812 7.625 91.589844 C 7.625 91.917969 7.6875 92.039062 7.875 92.089844 C 8.097656 92.148438 8.210938 92.5 8.136719 92.917969 C 8.125 92.972656 8.230469 93.050781 8.371094 93.085938 C 8.539062 93.132812 8.625 93.257812 8.625 93.453125 C 8.625 93.617188 8.738281 93.847656 8.875 93.964844 C 9.011719 94.085938 9.125 94.28125 9.125 94.402344 C 9.125 94.542969 9.21875 94.625 9.375 94.625 C 9.578125 94.625 9.625 94.707031 9.625 95.054688 C 9.625 95.375 9.6875 95.503906 9.875 95.5625 C 10.011719 95.605469 10.125 95.75 10.125 95.882812 C 10.125 96.042969 10.210938 96.125 10.375 96.125 C 10.578125 96.125 10.625 96.207031 10.625 96.574219 C 10.625 96.917969 10.683594 97.039062 10.875 97.089844 C 11.011719 97.125 11.125 97.257812 11.125 97.386719 C 11.125 97.515625 11.238281 97.691406 11.375 97.777344 C 11.511719 97.863281 11.625 98.03125 11.625 98.152344 C 11.625 98.269531 11.738281 98.425781 11.875 98.5 C 12.011719 98.574219 12.125 98.714844 12.125 98.816406 C 12.125 98.917969 12.238281 99 12.375 99 C 12.578125 99 12.625 99.082031 12.625 99.449219 C 12.625 99.792969 12.683594 99.914062 12.875 99.964844 C 13.011719 100 13.125 100.132812 13.125 100.265625 C 13.125 100.417969 13.214844 100.5 13.375 100.5 C 13.542969 100.5 13.625 100.582031 13.625 100.75 C 13.625 100.917969 13.707031 101 13.875 101 C 14.042969 101 14.125 101.082031 14.125 101.25 C 14.125 101.386719 14.238281 101.613281 14.375 101.75 C 14.511719 101.886719 14.625 102.113281 14.625 102.25 C 14.625 102.417969 14.707031 102.5 14.875 102.5 C 15.042969 102.5 15.125 102.582031 15.125 102.75 C 15.125 102.917969 15.207031 103 15.375 103 C 15.542969 103 15.625 103.082031 15.625 103.25 C 15.625 103.386719 15.707031 103.5 15.804688 103.5 C 15.902344 103.5 16.019531 103.613281 16.0625 103.75 C 16.105469 103.886719 16.222656 104 16.320312 104 C 16.417969 104 16.5 104.089844 16.5 104.199219 C 16.5 104.308594 16.613281 104.429688 16.75 104.464844 C 16.886719 104.5 17 104.613281 17 104.714844 C 17 104.816406 17.113281 104.929688 17.25 104.964844 C 17.386719 105 17.5 105.132812 17.5 105.265625 C 17.5 105.417969 17.589844 105.5 17.75 105.5 C 17.917969 105.5 18 105.582031 18 105.75 C 18 105.917969 18.082031 106 18.25 106 C 18.417969 106 18.5 106.082031 18.5 106.25 C 18.5 106.417969 18.582031 106.5 18.75 106.5 C 18.917969 106.5 19 106.582031 19 106.75 C 19 106.917969 19.082031 107 19.25 107 C 19.417969 107 19.5 107.082031 19.5 107.25 C 19.5 107.417969 19.582031 107.5 19.75 107.5 C 19.894531 107.5 20 107.582031 20 107.699219 C 20 107.808594 20.113281 107.929688 20.25 107.964844 C 20.386719 108 20.5 108.113281 20.5 108.214844 C 20.5 108.316406 20.613281 108.429688 20.75 108.464844 C 20.886719 108.5 21 108.613281 21 108.714844 C 21 108.816406 21.113281 108.929688 21.25 108.964844 C 21.386719 109 21.5 109.105469 21.5 109.203125 C 21.5 109.296875 21.613281 109.375 21.75 109.375 C 21.917969 109.375 22 109.457031 22 109.625 C 22 109.785156 22.082031 109.875 22.234375 109.875 C 22.367188 109.875 22.5 109.988281 22.535156 110.125 C 22.570312 110.261719 22.691406 110.375 22.800781 110.375 C 22.910156 110.375 23.113281 110.488281 23.25 110.625 C 23.386719 110.761719 23.613281 110.875 23.75 110.875 C 23.917969 110.875 24 110.957031 24 111.125 C 24 111.292969 24.082031 111.375 24.25 111.375 C 24.417969 111.375 24.5 111.457031 24.5 111.625 C 24.5 111.785156 24.582031 111.875 24.734375 111.875 C 24.867188 111.875 25 111.988281 25.035156 112.125 C 25.085938 112.316406 25.207031 112.375 25.550781 112.375 C 25.917969 112.375 26 112.421875 26 112.625 C 26 112.792969 26.082031 112.875 26.25 112.875 C 26.417969 112.875 26.5 112.957031 26.5 113.125 C 26.5 113.300781 26.582031 113.375 26.78125 113.375 C 26.9375 113.375 27.136719 113.488281 27.222656 113.625 C 27.308594 113.761719 27.484375 113.875 27.613281 113.875 C 27.742188 113.875 27.875 113.988281 27.910156 114.125 C 27.949219 114.265625 28.082031 114.375 28.21875 114.375 C 28.351562 114.375 28.558594 114.484375 28.679688 114.617188 C 28.800781 114.75 29.011719 114.878906 29.144531 114.898438 C 29.277344 114.921875 29.378906 114.988281 29.371094 115.046875 C 29.34375 115.21875 29.652344 115.371094 30.03125 115.375 C 30.289062 115.375 30.375 115.4375 30.375 115.625 C 30.375 115.785156 30.457031 115.875 30.613281 115.875 C 30.742188 115.875 30.878906 115.957031 30.917969 116.054688 C 30.957031 116.15625 31.179688 116.273438 31.417969 116.316406 C 31.695312 116.371094 31.875 116.484375 31.914062 116.636719 C 31.960938 116.8125 32.089844 116.875 32.410156 116.875 C 32.742188 116.875 32.863281 116.9375 32.910156 117.125 C 32.960938 117.3125 33.082031 117.375 33.410156 117.375 C 33.742188 117.375 33.863281 117.4375 33.910156 117.625 C 33.960938 117.8125 34.082031 117.875 34.410156 117.875 C 34.742188 117.875 34.863281 117.9375 34.910156 118.125 C 34.960938 118.3125 35.082031 118.375 35.410156 118.375 C 35.742188 118.375 35.863281 118.4375 35.910156 118.625 C 35.960938 118.816406 36.082031 118.875 36.425781 118.875 C 36.726562 118.875 36.875 118.933594 36.875 119.050781 C 36.875 119.25 37.140625 119.375 37.574219 119.375 C 37.757812 119.375 37.875 119.449219 37.875 119.5625 C 37.875 119.707031 38.035156 119.75 38.5625 119.75 C 39.167969 119.75 39.25 119.78125 39.25 120 C 39.25 120.207031 39.332031 120.25 39.742188 120.25 C 40.125 120.25 40.25 120.304688 40.3125 120.5 C 40.378906 120.710938 40.5 120.75 41.0625 120.75 C 41.625 120.75 41.746094 120.789062 41.8125 121 C 41.878906 121.210938 42 121.25 42.570312 121.25 C 43.167969 121.25 43.25 121.28125 43.25 121.5 C 43.25 121.722656 43.332031 121.75 43.984375 121.75 C 44.617188 121.75 44.730469 121.785156 44.785156 122 C 44.84375 122.222656 44.957031 122.25 45.800781 122.25 C 46.667969 122.25 46.75 122.273438 46.75 122.5 C 46.75 122.730469 46.832031 122.75 47.742188 122.75 C 48.625 122.75 48.742188 122.777344 48.8125 123 C 48.882812 123.222656 49 123.25 49.945312 123.25 C 50.832031 123.25 51.039062 123.289062 51.25 123.5 C 51.472656 123.722656 51.667969 123.75 53.0625 123.75 C 54.542969 123.75 54.625 123.761719 54.625 124 C 54.625 124.246094 54.707031 124.25 62.5 124.25 C 70.292969 124.25 70.375 124.246094 70.375 124 C 70.375 123.761719 70.457031 123.75 72 123.75 C 73.488281 123.75 73.636719 123.730469 73.777344 123.5 C 73.914062 123.285156 74.070312 123.25 74.894531 123.25 C 75.964844 123.25 76.25 123.179688 76.25 122.925781 C 76.25 122.789062 76.476562 122.75 77.25 122.75 C 78.167969 122.75 78.25 122.730469 78.25 122.5 C 78.25 122.273438 78.332031 122.25 79.199219 122.25 C 80.042969 122.25 80.15625 122.222656 80.214844 122 C 80.269531 121.785156 80.382812 121.75 81.015625 121.75 C 81.667969 121.75 81.75 121.722656 81.75 121.5 C 81.75 121.277344 81.832031 121.25 82.5 121.25 C 83.167969 121.25 83.25 121.222656 83.25 121 C 83.25 120.78125 83.332031 120.75 83.929688 120.75 C 84.5 120.75 84.621094 120.710938 84.6875 120.5 C 84.75 120.304688 84.875 120.25 85.257812 120.25 C 85.667969 120.25 85.75 120.207031 85.75 120 C 85.75 119.78125 85.832031 119.75 86.4375 119.75 C 86.964844 119.75 87.125 119.707031 87.125 119.5625 C 87.125 119.4375 87.25 119.375 87.5 119.375 C 87.722656 119.375 87.964844 119.273438 88.089844 119.125 C 88.214844 118.984375 88.460938 118.875 88.664062 118.875 C 88.917969 118.875 89.042969 118.800781 89.089844 118.625 C 89.136719 118.4375 89.257812 118.375 89.589844 118.375 C 89.917969 118.375 90.039062 118.3125 90.089844 118.125 C 90.136719 117.9375 90.257812 117.875 90.589844 117.875 C 90.917969 117.875 91.039062 117.8125 91.089844 117.625 C 91.136719 117.4375 91.257812 117.375 91.589844 117.375 C 91.917969 117.375 92.039062 117.3125 92.089844 117.125 C 92.136719 116.9375 92.257812 116.875 92.589844 116.875 C 92.917969 116.875 93.039062 116.8125 93.089844 116.625 C 93.132812 116.460938 93.257812 116.375 93.453125 116.375 C 93.617188 116.375 93.847656 116.261719 93.964844 116.125 C 94.085938 115.988281 94.28125 115.875 94.402344 115.875 C 94.542969 115.875 94.625 115.78125 94.625 115.625 C 94.625 115.421875 94.707031 115.375 95.074219 115.375 C 95.417969 115.375 95.539062 115.316406 95.589844 115.125 C 95.625 114.988281 95.75 114.875 95.871094 114.875 C 95.988281 114.875 96.1875 114.761719 96.3125 114.625 C 96.4375 114.488281 96.648438 114.375 96.78125 114.375 C 96.917969 114.375 97.050781 114.265625 97.089844 114.125 C 97.125 113.988281 97.257812 113.875 97.386719 113.875 C 97.515625 113.875 97.691406 113.761719 97.777344 113.625 C 97.863281 113.488281 98.058594 113.375 98.210938 113.375 C 98.375 113.375 98.515625 113.273438 98.5625 113.125 C 98.605469 112.988281 98.722656 112.875 98.820312 112.875 C 98.917969 112.875 99 112.761719 99 112.625 C 99 112.421875 99.082031 112.375 99.429688 112.375 C 99.75 112.375 99.878906 112.3125 99.9375 112.125 C 99.980469 111.988281 100.125 111.875 100.257812 111.875 C 100.417969 111.875 100.5 111.789062 100.5 111.625 C 100.5 111.457031 100.582031 111.375 100.75 111.375 C 100.917969 111.375 101 111.292969 101 111.125 C 101 110.957031 101.082031 110.875 101.25 110.875 C 101.386719 110.875 101.605469 110.769531 101.738281 110.636719 C 101.867188 110.507812 102.09375 110.363281 102.238281 110.316406 C 102.382812 110.269531 102.5 110.152344 102.5 110.054688 C 102.5 109.957031 102.613281 109.875 102.75 109.875 C 102.917969 109.875 103 109.792969 103 109.625 C 103 109.457031 103.082031 109.375 103.25 109.375 C 103.386719 109.375 103.5 109.296875 103.5 109.203125 C 103.5 109.105469 103.613281 109 103.75 108.964844 C 103.886719 108.929688 104 108.816406 104 108.714844 C 104 108.613281 104.113281 108.5 104.25 108.464844 C 104.386719 108.429688 104.5 108.316406 104.5 108.214844 C 104.5 108.113281 104.613281 108 104.75 107.964844 C 104.886719 107.929688 105 107.808594 105 107.699219 C 105 107.582031 105.105469 107.5 105.25 107.5 C 105.410156 107.5 105.5 107.417969 105.5 107.265625 C 105.5 107.132812 105.613281 107 105.75 106.964844 C 105.886719 106.929688 106 106.808594 106 106.699219 C 106 106.582031 106.105469 106.5 106.25 106.5 C 106.410156 106.5 106.5 106.417969 106.5 106.265625 C 106.5 106.132812 106.613281 106 106.75 105.964844 C 106.886719 105.929688 107 105.808594 107 105.699219 C 107 105.582031 107.105469 105.5 107.25 105.5 C 107.410156 105.5 107.5 105.417969 107.5 105.265625 C 107.5 105.132812 107.613281 105 107.75 104.964844 C 107.886719 104.929688 108 104.816406 108 104.714844 C 108 104.613281 108.113281 104.5 108.25 104.464844 C 108.386719 104.429688 108.5 104.316406 108.5 104.214844 C 108.5 104.113281 108.613281 104 108.75 103.964844 C 108.886719 103.929688 109 103.808594 109 103.699219 C 109 103.589844 109.085938 103.5 109.1875 103.5 C 109.292969 103.5 109.375 103.390625 109.375 103.25 C 109.375 103.082031 109.457031 103 109.625 103 C 109.792969 103 109.875 102.917969 109.875 102.75 C 109.875 102.582031 109.957031 102.5 110.125 102.5 C 110.292969 102.5 110.375 102.417969 110.375 102.25 C 110.375 102.113281 110.488281 101.886719 110.625 101.75 C 110.761719 101.613281 110.875 101.386719 110.875 101.25 C 110.875 101.082031 110.957031 101 111.125 101 C 111.292969 101 111.375 100.917969 111.375 100.75 C 111.375 100.582031 111.457031 100.5 111.625 100.5 C 111.789062 100.5 111.875 100.417969 111.875 100.257812 C 111.875 100.125 111.988281 99.980469 112.125 99.9375 C 112.3125 99.878906 112.375 99.75 112.375 99.429688 C 112.375 99.082031 112.421875 99 112.625 99 C 112.761719 99 112.875 98.917969 112.875 98.820312 C 112.875 98.722656 112.988281 98.605469 113.125 98.5625 C 113.273438 98.515625 113.375 98.375 113.375 98.210938 C 113.375 98.058594 113.488281 97.863281 113.625 97.777344 C 113.761719 97.691406 113.875 97.515625 113.875 97.386719 C 113.875 97.257812 113.988281 97.125 114.125 97.089844 C 114.316406 97.039062 114.375 96.917969 114.375 96.574219 C 114.375 96.207031 114.421875 96.125 114.625 96.125 C 114.785156 96.125 114.875 96.042969 114.875 95.890625 C 114.875 95.757812 114.988281 95.625 115.125 95.589844 C 115.316406 95.539062 115.375 95.417969 115.375 95.074219 C 115.375 94.707031 115.421875 94.625 115.625 94.625 C 115.78125 94.625 115.875 94.542969 115.875 94.402344 C 115.875 94.28125 115.988281 94.085938 116.125 93.964844 C 116.261719 93.847656 116.375 93.617188 116.375 93.453125 C 116.375 93.257812 116.460938 93.132812 116.625 93.089844 C 116.8125 93.039062 116.875 92.917969 116.875 92.589844 C 116.875 92.257812 116.9375 92.136719 117.125 92.089844 C 117.3125 92.039062 117.375 91.917969 117.375 91.589844 C 117.375 91.257812 117.4375 91.136719 117.625 91.089844 C 117.8125 91.039062 117.875 90.917969 117.875 90.589844 C 117.875 90.257812 117.9375 90.136719 118.125 90.089844 C 118.3125 90.039062 118.375 89.917969 118.375 89.589844 C 118.375 89.257812 118.4375 89.136719 118.625 89.089844 C 118.800781 89.042969 118.875 88.917969 118.875 88.664062 C 118.875 88.460938 118.984375 88.214844 119.125 88.089844 C 119.273438 87.964844 119.375 87.722656 119.375 87.5 C 119.375 87.25 119.4375 87.125 119.5625 87.125 C 119.707031 87.125 119.75 86.964844 119.75 86.4375 C 119.75 85.832031 119.78125 85.75 120 85.75 C 120.207031 85.75 120.25 85.667969 120.25 85.257812 C 120.25 84.875 120.304688 84.75 120.5 84.6875 C 120.710938 84.621094 120.75 84.5 120.75 83.929688 C 120.75 83.332031 120.78125 83.25 121 83.25 C 121.222656 83.25 121.25 83.167969 121.25 82.5 C 121.25 81.832031 121.277344 81.75 121.5 81.75 C 121.722656 81.75 121.75 81.667969 121.75 81.015625 C 121.75 80.382812 121.785156 80.269531 122 80.214844 C 122.222656 80.15625 122.25 80.042969 122.25 79.199219 C 122.25 78.332031 122.273438 78.25 122.5 78.25 C 122.730469 78.25 122.75 78.167969 122.75 77.25 C 122.75 76.476562 122.789062 76.25 122.925781 76.25 C 123.179688 76.25 123.25 75.960938 123.25 74.878906 C 123.25 74.007812 123.277344 73.898438 123.5 73.839844 C 123.734375 73.777344 123.75 73.667969 123.75 72.089844 C 123.75 70.507812 123.765625 70.398438 124 70.339844 C 124.246094 70.273438 124.25 70.167969 124.25 62.5 C 124.25 54.832031 124.246094 54.726562 124 54.660156 C 123.765625 54.601562 123.75 54.492188 123.75 52.910156 C 123.75 51.332031 123.734375 51.222656 123.5 51.160156 C 123.273438 51.101562 123.25 50.992188 123.25 49.992188 C 123.25 49 123.226562 48.882812 123 48.8125 C 122.777344 48.742188 122.75 48.625 122.75 47.742188 C 122.75 46.832031 122.730469 46.75 122.5 46.75 C 122.277344 46.75 122.25 46.667969 122.25 45.949219 C 122.25 45.035156 122.171875 44.75 121.925781 44.75 C 121.792969 44.75 121.75 44.558594 121.75 44 C 121.75 43.332031 121.722656 43.25 121.5 43.25 C 121.277344 43.25 121.25 43.167969 121.25 42.5 C 121.25 41.832031 121.222656 41.75 121 41.75 C 120.78125 41.75 120.75 41.667969 120.75 41.070312 C 120.75 40.5 120.710938 40.378906 120.5 40.3125 C 120.304688 40.25 120.25 40.125 120.25 39.742188 C 120.25 39.332031 120.207031 39.25 120 39.25 C 119.78125 39.25 119.75 39.167969 119.75 38.5625 C 119.75 38.035156 119.707031 37.875 119.5625 37.875 C 119.449219 37.875 119.375 37.757812 119.375 37.574219 C 119.375 37.140625 119.25 36.875 119.050781 36.875 C 118.933594 36.875 118.875 36.726562 118.875 36.425781 C 118.875 36.082031 118.816406 35.960938 118.625 35.910156 C 118.4375 35.863281 118.375 35.742188 118.375 35.410156 C 118.375 35.082031 118.3125 34.960938 118.125 34.910156 C 117.902344 34.851562 117.789062 34.5 117.863281 34.082031 C 117.875 34.027344 117.769531 33.949219 117.628906 33.914062 C 117.433594 33.863281 117.375 33.742188 117.375 33.410156 C 117.375 33.082031 117.3125 32.960938 117.125 32.910156 C 116.9375 32.863281 116.875 32.742188 116.875 32.410156 C 116.875 32.082031 116.8125 31.960938 116.625 31.910156 C 116.460938 31.867188 116.375 31.742188 116.375 31.546875 C 116.375 31.382812 116.261719 31.152344 116.125 31.035156 C 115.988281 30.914062 115.875 30.71875 115.875 30.597656 C 115.875 30.457031 115.78125 30.375 115.625 30.375 C 115.4375 30.375 115.375 30.289062 115.375 30.03125 C 115.371094 29.652344 115.21875 29.34375 115.046875 29.371094 C 114.988281 29.378906 114.917969 29.269531 114.898438 29.128906 C 114.875 28.976562 114.761719 28.875 114.617188 28.875 C 114.421875 28.875 114.375 28.785156 114.375 28.425781 C 114.375 28.082031 114.316406 27.960938 114.125 27.910156 C 113.988281 27.875 113.875 27.742188 113.875 27.613281 C 113.875 27.484375 113.761719 27.308594 113.625 27.222656 C 113.488281 27.136719 113.375 26.9375 113.375 26.78125 C 113.375 26.582031 113.300781 26.5 113.125 26.5 C 112.957031 26.5 112.875 26.417969 112.875 26.25 C 112.875 26.082031 112.792969 26 112.625 26 C 112.421875 26 112.375 25.917969 112.375 25.550781 C 112.375 25.207031 112.316406 25.085938 112.125 25.035156 C 111.988281 25 111.875 24.867188 111.875 24.734375 C 111.875 24.582031 111.785156 24.5 111.625 24.5 C 111.457031 24.5 111.375 24.417969 111.375 24.25 C 111.375 24.082031 111.292969 24 111.125 24 C 110.957031 24 110.875 23.917969 110.875 23.75 C 110.875 23.613281 110.761719 23.386719 110.625 23.25 C 110.488281 23.113281 110.375 22.886719 110.375 22.75 C 110.375 22.613281 110.332031 22.507812 110.28125 22.515625 C 110.003906 22.558594 109.875 22.472656 109.875 22.25 C 109.875 22.082031 109.792969 22 109.625 22 C 109.457031 22 109.375 21.917969 109.375 21.75 C 109.375 21.613281 109.296875 21.5 109.203125 21.5 C 109.105469 21.5 109 21.386719 108.964844 21.25 C 108.929688 21.113281 108.816406 21 108.714844 21 C 108.613281 21 108.5 20.886719 108.464844 20.75 C 108.429688 20.613281 108.316406 20.5 108.214844 20.5 C 108.113281 20.5 108 20.386719 107.964844 20.25 C 107.929688 20.113281 107.808594 20 107.699219 20 C 107.582031 20 107.5 19.894531 107.5 19.75 C 107.5 19.582031 107.417969 19.5 107.25 19.5 C 107.082031 19.5 107 19.417969 107 19.25 C 107 19.082031 106.917969 19 106.75 19 C 106.582031 19 106.5 18.917969 106.5 18.75 C 106.5 18.582031 106.417969 18.5 106.25 18.5 C 106.082031 18.5 106 18.417969 106 18.25 C 106 18.082031 105.917969 18 105.75 18 C 105.582031 18 105.5 17.917969 105.5 17.75 C 105.5 17.589844 105.417969 17.5 105.265625 17.5 C 105.132812 17.5 105 17.386719 104.964844 17.25 C 104.929688 17.113281 104.816406 17 104.714844 17 C 104.613281 17 104.5 16.886719 104.464844 16.75 C 104.429688 16.613281 104.308594 16.5 104.199219 16.5 C 104.089844 16.5 104 16.417969 104 16.320312 C 104 16.222656 103.886719 16.105469 103.75 16.0625 C 103.613281 16.019531 103.5 15.902344 103.5 15.804688 C 103.5 15.707031 103.386719 15.625 103.25 15.625 C 103.082031 15.625 103 15.542969 103 15.375 C 103 15.214844 102.917969 15.125 102.765625 15.125 C 102.632812 15.125 102.5 15.011719 102.464844 14.875 C 102.429688 14.738281 102.308594 14.625 102.199219 14.625 C 102.089844 14.625 101.886719 14.511719 101.75 14.375 C 101.613281 14.238281 101.386719 14.125 101.25 14.125 C 101.082031 14.125 101 14.042969 101 13.875 C 101 13.707031 100.917969 13.625 100.75 13.625 C 100.582031 13.625 100.5 13.542969 100.5 13.375 C 100.5 13.214844 100.417969 13.125 100.265625 13.125 C 100.132812 13.125 100 13.011719 99.964844 12.875 C 99.914062 12.683594 99.792969 12.625 99.449219 12.625 C 99.082031 12.625 99 12.578125 99 12.375 C 99 12.238281 98.917969 12.125 98.816406 12.125 C 98.714844 12.125 98.574219 12.011719 98.5 11.875 C 98.425781 11.738281 98.269531 11.625 98.152344 11.625 C 98.03125 11.625 97.863281 11.511719 97.777344 11.375 C 97.691406 11.238281 97.515625 11.125 97.386719 11.125 C 97.257812 11.125 97.125 11.011719 97.089844 10.875 C 97.050781 10.734375 96.917969 10.625 96.78125 10.625 C 96.648438 10.625 96.4375 10.511719 96.3125 10.375 C 96.1875 10.238281 95.984375 10.125 95.863281 10.125 C 95.742188 10.125 95.605469 10.011719 95.5625 9.875 C 95.503906 9.6875 95.375 9.625 95.054688 9.625 C 94.707031 9.625 94.625 9.578125 94.625 9.375 C 94.625 9.21875 94.542969 9.125 94.402344 9.125 C 94.28125 9.125 94.085938 9.011719 93.964844 8.875 C 93.847656 8.738281 93.617188 8.625 93.453125 8.625 C 93.257812 8.625 93.132812 8.539062 93.085938 8.371094 C 93.050781 8.230469 92.972656 8.125 92.917969 8.136719 C 92.5 8.210938 92.148438 8.097656 92.089844 7.875 C 92.039062 7.6875 91.917969 7.625 91.589844 7.625 C 91.257812 7.625 91.136719 7.5625 91.089844 7.375 C 91.039062 7.1875 90.917969 7.125 90.589844 7.125 C 90.257812 7.125 90.136719 7.0625 90.089844 6.875 C 90.039062 6.683594 89.917969 6.625 89.574219 6.625 C 89.273438 6.625 89.125 6.566406 89.125 6.449219 C 89.125 6.257812 88.863281 6.125 88.484375 6.125 C 88.351562 6.125 88.210938 6.042969 88.171875 5.945312 C 88.136719 5.847656 87.882812 5.730469 87.617188 5.6875 C 87.316406 5.636719 87.125 5.535156 87.125 5.425781 C 87.125 5.296875 86.945312 5.25 86.4375 5.25 C 85.832031 5.25 85.75 5.21875 85.75 5 C 85.75 4.792969 85.667969 4.75 85.257812 4.75 C 84.875 4.75 84.75 4.695312 84.6875 4.5 C 84.621094 4.292969 84.5 4.25 83.945312 4.25 C 83.382812 4.25 83.269531 4.210938 83.214844 4 C 83.15625 3.789062 83.042969 3.75 82.449219 3.75 C 81.832031 3.75 81.75 3.71875 81.75 3.5 C 81.75 3.277344 81.667969 3.25 81.015625 3.25 C 80.382812 3.25 80.269531 3.214844 80.214844 3 C 80.15625 2.777344 80.042969 2.75 79.199219 2.75 C 78.332031 2.75 78.25 2.726562 78.25 2.5 C 78.25 2.269531 78.167969 2.25 77.265625 2.25 C 76.410156 2.25 76.269531 2.21875 76.21875 2.015625 C 76.164062 1.816406 76.015625 1.78125 75.046875 1.765625 C 74.097656 1.746094 73.914062 1.707031 73.765625 1.496094 C 73.609375 1.273438 73.445312 1.25 71.984375 1.25 C 70.457031 1.25 70.375 1.238281 70.375 1 C 70.375 0.753906 70.292969 0.75 62.5 0.75 C 54.707031 0.75 54.625 0.753906 54.625 1 M 91.152344 22.152344 C 92.046875 22.578125 92.734375 23.300781 93.058594 24.152344 C 93.308594 24.800781 93.3125 25.105469 93.347656 41.113281 C 93.371094 52.78125 93.417969 57.464844 93.515625 57.582031 C 93.628906 57.71875 94.824219 57.75 99.710938 57.75 L 105.769531 57.75 L 106.3125 58.066406 C 106.609375 58.242188 106.914062 58.460938 106.988281 58.550781 C 107.261719 58.878906 107.175781 99.746094 106.902344 100.117188 C 106.296875 100.925781 106.28125 100.929688 102.710938 101.019531 C 95.167969 101.210938 75.792969 101.140625 75.246094 100.921875 C 74.308594 100.546875 74.375 101.726562 74.375 84.957031 L 74.375 69.90625 L 74.03125 69.761719 C 73.792969 69.664062 72.542969 69.632812 70.003906 69.652344 L 66.320312 69.6875 L 66.160156 70 C 65.941406 70.4375 65.929688 78.253906 66.148438 78.476562 C 66.253906 78.578125 66.929688 78.625 68.390625 78.625 C 70.785156 78.625 71.34375 78.820312 71.136719 79.589844 C 71 80.109375 71.234375 80.097656 58.289062 80.113281 C 45.625 80.125 45.578125 80.125 45.46875 79.570312 C 45.324219 78.8125 45.867188 78.625 48.234375 78.625 C 49.695312 78.625 50.371094 78.578125 50.476562 78.476562 C 50.585938 78.363281 50.625 77.222656 50.625 74.121094 L 50.625 69.914062 L 50.304688 69.769531 C 49.671875 69.480469 33.789062 69.570312 33.628906 69.867188 C 33.542969 70.027344 33.5 72.914062 33.5 78.375 C 33.5 87.550781 33.542969 87.082031 32.65625 87.683594 L 32.191406 88 L 25.019531 88 C 17.078125 88 17.316406 88.023438 16.679688 87.1875 L 16.371094 86.785156 L 16.367188 71.058594 L 16.367188 55.335938 L 16.714844 54.964844 C 17.335938 54.304688 17.625 54.25 20.492188 54.25 C 22.957031 54.25 23.125 54.234375 23.246094 54.007812 C 23.332031 53.84375 23.375 49.074219 23.375 39.433594 C 23.375 23.128906 23.324219 24.019531 24.335938 22.980469 C 24.898438 22.402344 25.808594 21.960938 26.6875 21.839844 C 26.894531 21.808594 41.320312 21.792969 58.75 21.800781 L 90.4375 21.8125 L 91.152344 22.152344 M 20.203125 58.882812 L 19.875 59.144531 L 19.875 61.890625 C 19.875 63.546875 19.925781 64.738281 20.003906 64.882812 C 20.183594 65.222656 29.46875 65.265625 29.804688 64.929688 C 29.96875 64.761719 30 64.304688 30 61.878906 L 30 59.027344 L 29.691406 58.828125 C 29.15625 58.476562 20.65625 58.527344 20.203125 58.882812 M 90.425781 62.996094 C 81.878906 63.050781 80 63.09375 79.832031 63.234375 C 79.484375 63.523438 79.523438 69.023438 79.875 69.375 C 80.121094 69.621094 80.292969 69.625 90.867188 69.625 L 101.605469 69.625 L 101.867188 69.296875 C 102.289062 68.757812 102.265625 63.675781 101.835938 63.273438 C 101.445312 62.90625 102.023438 62.917969 90.425781 62.996094 M 20.15625 67.585938 C 19.808594 67.828125 19.796875 68.171875 20.125 68.5 C 20.414062 68.789062 20.621094 68.8125 20.902344 68.59375 C 21.609375 68.035156 20.894531 67.070312 20.15625 67.585938 M 23.636719 67.609375 C 23.269531 67.894531 23.351562 68.433594 23.777344 68.570312 C 24.214844 68.710938 29.480469 68.644531 29.757812 68.496094 C 30.101562 68.3125 30.0625 67.820312 29.691406 67.578125 C 29.199219 67.253906 24.0625 67.28125 23.636719 67.609375 M 20.1875 71.050781 C 19.601562 71.519531 20.015625 72.351562 20.738281 72.164062 C 21.296875 72.019531 21.34375 71.296875 20.820312 70.957031 C 20.566406 70.789062 20.507812 70.796875 20.1875 71.050781 M 23.8125 71 C 23.359375 71.226562 23.265625 71.65625 23.605469 71.949219 C 23.886719 72.191406 29.332031 72.222656 29.773438 71.988281 C 30.089844 71.816406 30.058594 71.292969 29.71875 71.074219 C 29.292969 70.800781 24.339844 70.738281 23.8125 71 M 79.816406 71.996094 C 79.214844 72.660156 79.867188 73.101562 81.351562 73.027344 C 82.589844 72.960938 82.96875 72.664062 82.574219 72.0625 C 82.292969 71.632812 80.191406 71.582031 79.816406 71.996094 M 85.082031 72.089844 C 84.859375 72.511719 85.042969 73 85.425781 73.003906 C 91.988281 73.09375 101.707031 72.964844 101.898438 72.789062 C 102.191406 72.527344 102.183594 72.359375 101.871094 72.023438 L 101.617188 71.75 L 85.257812 71.75 L 85.082031 72.089844 M 79.898438 75.503906 C 79.101562 76.25 80.210938 76.828125 81.9375 76.570312 C 82.636719 76.464844 82.890625 76.046875 82.5625 75.546875 C 82.289062 75.125 80.335938 75.097656 79.898438 75.503906 M 85.191406 75.453125 C 84.855469 75.789062 84.988281 76.402344 85.417969 76.515625 C 85.984375 76.664062 101.347656 76.648438 101.628906 76.496094 C 102.089844 76.253906 102.179688 75.886719 101.863281 75.550781 L 101.582031 75.25 L 93.488281 75.25 C 86.179688 75.25 85.375 75.269531 85.191406 75.453125 M 20.160156 78.097656 C 19.898438 78.300781 19.882812 78.421875 19.847656 80.28125 L 19.8125 82.25 L 30.0625 82.25 L 30.023438 80.28125 C 29.972656 77.617188 30.527344 77.878906 24.9375 77.878906 C 20.863281 77.878906 20.410156 77.902344 20.160156 78.097656 M 90.597656 82.25 C 80.886719 82.308594 80.113281 82.328125 79.878906 82.53125 C 79.457031 82.890625 79.488281 88.203125 79.917969 88.605469 L 80.207031 88.878906 L 90.902344 88.847656 L 101.597656 88.8125 L 101.855469 88.5 C 102.277344 87.996094 102.265625 82.921875 101.84375 82.539062 C 101.433594 82.167969 101.933594 82.183594 90.597656 82.25 M 79.871094 91.230469 C 79.5 91.527344 79.613281 92.078125 80.078125 92.257812 C 80.773438 92.519531 101.5625 92.347656 101.863281 92.074219 C 102.191406 91.777344 102.191406 91.621094 101.871094 91.273438 L 101.617188 91 L 90.882812 91 C 80.667969 91 80.140625 91.011719 79.871094 91.230469 "/>
<path style=" stroke:none;fill-rule:evenodd;fill:rgb(37.647059%,70.196078%,75.294118%);fill-opacity:1;" d="M 33.519531 30.464844 C 32.96875 30.570312 32.875 31.109375 32.875 34.089844 C 32.878906 36.933594 32.886719 36.996094 33.34375 37.238281 C 33.75 37.449219 47.75 37.449219 48.15625 37.238281 C 48.613281 36.996094 48.621094 36.9375 48.625 33.960938 C 48.625 30.890625 48.59375 30.726562 47.984375 30.511719 C 47.597656 30.378906 34.207031 30.332031 33.519531 30.464844 M 51.292969 30.464844 C 50.480469 30.566406 50.441406 30.714844 50.398438 33.816406 L 50.363281 36.605469 L 50.710938 36.996094 L 51.0625 37.386719 L 67.089844 37.382812 C 84.066406 37.378906 83.515625 37.398438 83.710938 36.8125 C 83.757812 36.675781 83.789062 35.335938 83.78125 33.832031 C 83.761719 30.804688 83.714844 30.597656 82.992188 30.453125 C 82.570312 30.371094 51.96875 30.378906 51.292969 30.464844 M 33.34375 39.320312 C 32.90625 39.558594 32.785156 40.027344 33.054688 40.445312 C 33.703125 41.433594 36.375 41.082031 36.375 40.003906 C 36.375 39.253906 34.324219 38.789062 33.34375 39.320312 M 38.449219 39.488281 C 38.003906 39.949219 38.058594 40.339844 38.613281 40.714844 C 39.5625 41.355469 48.289062 41.105469 48.546875 40.433594 C 49.015625 39.214844 48.65625 39.125 43.304688 39.125 L 38.796875 39.125 L 38.449219 39.488281 M 50.859375 39.40625 C 50.339844 39.847656 50.320312 40.214844 50.789062 40.640625 L 51.183594 41.003906 L 67.144531 40.96875 L 83.105469 40.9375 L 83.425781 40.632812 C 83.921875 40.171875 83.84375 39.617188 83.242188 39.308594 C 82.9375 39.148438 80.703125 39.125 67.039062 39.125 L 51.1875 39.125 L 50.859375 39.40625 M 33.75 40.125 C 33.75 40.179688 33.664062 40.253906 33.5625 40.296875 C 33.425781 40.347656 33.375 40.28125 33.375 40.042969 C 33.375 39.769531 33.402344 39.742188 33.5625 39.875 C 33.664062 39.960938 33.75 40.074219 33.75 40.125 M 38.886719 40.289062 C 38.789062 40.386719 38.75 40.324219 38.753906 40.054688 C 38.757812 39.734375 38.773438 39.714844 38.890625 39.917969 C 38.988281 40.082031 38.988281 40.1875 38.886719 40.289062 M 51.261719 40.289062 C 51.164062 40.386719 51.125 40.324219 51.128906 40.054688 C 51.132812 39.734375 51.148438 39.714844 51.265625 39.917969 C 51.363281 40.082031 51.363281 40.1875 51.261719 40.289062 M 33.40625 42.75 C 33.085938 42.882812 32.832031 43.421875 32.9375 43.75 C 33.273438 44.8125 36.375 44.644531 36.375 43.5625 C 36.375 42.835938 34.445312 42.308594 33.40625 42.75 M 38.507812 42.949219 C 38.03125 43.351562 38.03125 43.796875 38.5 44.140625 C 38.785156 44.351562 42.65625 44.449219 47.90625 44.378906 C 48.535156 44.371094 48.851562 43.367188 48.363281 42.925781 C 48.113281 42.703125 47.820312 42.683594 43.5 42.652344 L 38.90625 42.617188 L 38.507812 42.949219 M 50.847656 42.871094 C 50.378906 43.238281 50.335938 43.703125 50.734375 44.070312 L 51.058594 44.375 L 66.875 44.394531 C 75.570312 44.40625 82.828125 44.402344 83 44.390625 C 83.679688 44.335938 83.996094 43.386719 83.488281 42.925781 C 83.0625 42.542969 51.332031 42.488281 50.847656 42.871094 M 39 43.570312 C 39 43.667969 38.945312 43.75 38.875 43.75 C 38.804688 43.75 38.75 43.632812 38.75 43.492188 C 38.75 43.351562 38.804688 43.269531 38.875 43.3125 C 38.945312 43.355469 39 43.472656 39 43.570312 M 51.375 43.65625 C 51.375 43.707031 51.320312 43.75 51.25 43.75 C 51.179688 43.75 51.125 43.625 51.125 43.46875 C 51.128906 43.199219 51.367188 43.382812 51.375 43.65625 M 33.625 43.5625 C 33.753906 43.714844 33.742188 43.75 33.578125 43.75 C 33.464844 43.75 33.375 43.664062 33.375 43.5625 C 33.375 43.460938 33.394531 43.375 33.421875 43.375 C 33.449219 43.375 33.539062 43.460938 33.625 43.5625 M 51.058594 46.25 C 50.457031 46.476562 50.261719 47.105469 50.652344 47.550781 L 50.9375 47.875 L 67.09375 47.882812 L 83.253906 47.886719 L 83.542969 47.546875 C 83.875 47.160156 83.851562 46.757812 83.472656 46.414062 C 83.207031 46.171875 51.683594 46.015625 51.058594 46.25 M 58 64.273438 C 57.398438 64.4375 56.8125 65.332031 56.929688 65.910156 C 57.324219 67.875 60.1875 67.675781 60.1875 65.6875 C 60.1875 64.5 59.285156 63.917969 58 64.273438 M 59.476562 64.980469 C 60.007812 65.453125 60 65.867188 59.449219 66.433594 C 58.367188 67.546875 56.699219 66.171875 57.742188 65.027344 C 58.238281 64.484375 58.902344 64.46875 59.476562 64.980469 M 24.484375 83.53125 C 22.695312 83.972656 23.042969 86.75 24.886719 86.75 C 26.550781 86.75 27.15625 84.207031 25.625 83.640625 C 25.054688 83.429688 24.941406 83.417969 24.484375 83.53125 M 25.824219 84.359375 C 26.335938 84.945312 26.097656 86.125 25.46875 86.125 C 25.398438 86.125 25.273438 86.214844 25.195312 86.324219 C 24.898438 86.730469 23.757812 85.726562 23.757812 85.0625 C 23.757812 84.054688 25.144531 83.578125 25.824219 84.359375 M 89.6875 96.851562 C 88.765625 97.492188 88.609375 98.628906 89.34375 99.363281 C 90.640625 100.660156 92.828125 99.152344 91.980469 97.550781 C 91.429688 96.511719 90.5625 96.25 89.6875 96.851562 M 91.007812 97.238281 C 92.078125 97.886719 91.757812 99.375 90.542969 99.375 C 89.03125 99.375 89.074219 97.269531 90.589844 97.003906 C 90.605469 97.003906 90.792969 97.105469 91.007812 97.238281 "/>
<path style=" stroke:none;fill-rule:evenodd;fill:rgb(57.254902%,64.705882%,69.411765%);fill-opacity:1;" d="M 58.730469 23.183594 C 58.464844 23.761719 59.207031 24.140625 59.542969 23.601562 C 59.644531 23.4375 59.621094 23.328125 59.445312 23.132812 C 59.136719 22.789062 58.898438 22.808594 58.730469 23.183594 M 26.707031 25.226562 C 26.398438 25.570312 26.386719 53.535156 26.695312 53.972656 C 26.886719 54.246094 26.9375 54.25 29.636719 54.25 C 33.726562 54.25 33.5 54.003906 33.5 58.402344 C 33.5 61.457031 33.511719 61.636719 33.75 61.875 C 34.097656 62.222656 73.707031 62.277344 74.054688 61.929688 C 74.203125 61.777344 74.25 61.460938 74.25 60.585938 C 74.253906 59.023438 74.351562 58.554688 74.753906 58.121094 L 75.101562 57.75 L 89.734375 57.75 L 89.929688 57.472656 C 90.257812 57.007812 90.222656 25.503906 89.898438 25.207031 C 89.523438 24.867188 27.011719 24.890625 26.707031 25.226562 M 89.78125 25.460938 C 89.890625 25.523438 89.910156 56.890625 89.800781 57.175781 C 89.730469 57.355469 88.972656 57.375 82.496094 57.375 C 73.507812 57.375 74.109375 57.183594 74 60.0625 L 73.9375 61.6875 L 54.1875 61.722656 C 43.324219 61.742188 34.3125 61.726562 34.164062 61.691406 C 33.890625 61.625 33.890625 61.601562 33.851562 58.324219 C 33.808594 54.636719 33.847656 54.808594 32.847656 54.171875 C 32.390625 53.882812 32.308594 53.875 29.628906 53.875 C 26.882812 53.875 26.878906 53.875 26.8125 53.59375 C 26.773438 53.4375 26.757812 47.039062 26.777344 39.375 L 26.8125 25.4375 L 57.9375 25.375 C 87.054688 25.316406 89.535156 25.324219 89.78125 25.460938 M 83.800781 33.875 C 83.800781 34.871094 83.820312 35.28125 83.84375 34.78125 C 83.867188 34.28125 83.867188 33.46875 83.84375 32.96875 C 83.820312 32.46875 83.800781 32.878906 83.800781 33.875 M 37.46875 37.46875 C 39.273438 37.488281 42.226562 37.488281 44.03125 37.46875 C 45.835938 37.449219 44.359375 37.433594 40.75 37.433594 C 37.140625 37.433594 35.664062 37.449219 37.46875 37.46875 M 59.664062 37.46875 C 63.847656 37.488281 70.652344 37.488281 74.789062 37.46875 C 78.929688 37.449219 75.507812 37.4375 67.1875 37.4375 C 58.867188 37.4375 55.484375 37.449219 59.664062 37.46875 M 83.761719 40.117188 C 83.753906 40.214844 83.625 40.441406 83.472656 40.617188 L 83.195312 40.9375 L 83.550781 40.605469 C 83.746094 40.425781 83.875 40.199219 83.835938 40.105469 C 83.78125 39.96875 83.769531 39.972656 83.761719 40.117188 M 34.28125 44.464844 C 34.472656 44.492188 34.753906 44.492188 34.90625 44.464844 C 35.0625 44.433594 34.90625 44.410156 34.5625 44.410156 C 34.21875 44.410156 34.09375 44.4375 34.28125 44.464844 M 41.273438 44.46875 C 42.421875 44.488281 44.332031 44.488281 45.523438 44.46875 C 46.714844 44.449219 45.773438 44.429688 43.4375 44.429688 C 41.101562 44.429688 40.125 44.449219 41.273438 44.46875 M 59.34375 44.46875 C 63.625 44.488281 70.625 44.488281 74.90625 44.46875 C 79.1875 44.449219 75.683594 44.4375 67.125 44.4375 C 58.566406 44.4375 55.0625 44.449219 59.34375 44.46875 M 57.28125 46.214844 C 57.472656 46.242188 57.753906 46.242188 57.90625 46.214844 C 58.0625 46.183594 57.90625 46.160156 57.5625 46.160156 C 57.21875 46.160156 57.09375 46.1875 57.28125 46.214844 M 60.78125 46.214844 C 60.972656 46.242188 61.253906 46.242188 61.40625 46.214844 C 61.5625 46.183594 61.40625 46.160156 61.0625 46.160156 C 60.71875 46.160156 60.59375 46.1875 60.78125 46.214844 M 74.59375 46.214844 C 74.75 46.242188 75 46.242188 75.15625 46.214844 C 75.3125 46.183594 75.183594 46.160156 74.875 46.160156 C 74.566406 46.160156 74.4375 46.183594 74.59375 46.214844 M 78.03125 46.214844 C 78.222656 46.242188 78.503906 46.242188 78.65625 46.214844 C 78.8125 46.183594 78.65625 46.160156 78.3125 46.160156 C 77.96875 46.160156 77.84375 46.1875 78.03125 46.214844 M 58.914062 47.96875 C 63.234375 47.988281 70.265625 47.988281 74.539062 47.96875 C 78.816406 47.949219 75.28125 47.9375 66.6875 47.9375 C 58.09375 47.9375 54.597656 47.949219 58.914062 47.96875 M 24.195312 54.945312 C 23.558594 55.585938 24.046875 55.875 25.75 55.875 C 27.347656 55.875 27.679688 55.761719 27.605469 55.25 C 27.53125 54.742188 24.652344 54.488281 24.195312 54.945312 M 22.339844 54.953125 C 22.175781 55.117188 22.246094 55.757812 22.4375 55.828125 C 22.882812 56 23.265625 55.761719 23.226562 55.339844 C 23.1875 54.941406 22.605469 54.6875 22.339844 54.953125 M 27.101562 55.351562 C 27.140625 55.617188 27.109375 55.625 25.757812 55.625 C 24.386719 55.625 24.050781 55.488281 24.449219 55.09375 C 24.6875 54.855469 27.0625 55.085938 27.101562 55.351562 M 28.4375 56.5 C 27.0625 56.546875 24.171875 56.558594 22.011719 56.523438 C 18.296875 56.460938 18.078125 56.472656 17.917969 56.691406 C 17.660156 57.042969 17.667969 81.902344 17.925781 82.117188 C 18.035156 82.203125 18.433594 82.246094 18.957031 82.226562 L 19.8125 82.1875 L 19.847656 80.25 C 19.890625 77.625 19.347656 77.882812 24.910156 77.878906 C 30.515625 77.875 30 77.652344 30 80.066406 C 30 82.332031 29.964844 82.25 30.925781 82.25 C 32.234375 82.25 32.101562 83.648438 32.148438 69.410156 C 32.191406 55.511719 32.253906 56.535156 31.367188 56.449219 C 31.128906 56.429688 29.8125 56.449219 28.4375 56.5 M 31.894531 57.25 C 31.875 57.421875 31.84375 63.015625 31.832031 69.683594 L 31.8125 81.804688 L 31.488281 81.921875 C 31.308594 81.984375 30.957031 81.996094 30.707031 81.949219 L 30.25 81.863281 L 30.25 78.273438 L 29.867188 77.949219 L 29.480469 77.625 L 20.390625 77.625 L 20.042969 77.921875 C 19.699219 78.21875 19.695312 78.226562 19.683594 79.890625 C 19.675781 80.8125 19.660156 81.628906 19.648438 81.714844 C 19.617188 81.910156 18.871094 82.046875 18.382812 81.941406 L 18 81.855469 L 18 69.4375 C 18 59.621094 18.03125 57.007812 18.15625 56.957031 C 18.242188 56.921875 21.378906 56.902344 25.125 56.914062 L 31.9375 56.9375 L 31.894531 57.25 M 20.074219 58.667969 L 19.710938 58.960938 L 19.707031 61.933594 C 19.703125 64.886719 19.707031 64.914062 19.992188 65.144531 C 20.335938 65.421875 29.199219 65.507812 29.796875 65.234375 C 30.226562 65.039062 30.246094 64.894531 30.25 61.792969 L 30.25 59.023438 L 29.867188 58.699219 L 29.480469 58.375 L 20.4375 58.375 L 20.074219 58.667969 M 29.691406 58.828125 L 30 59.027344 L 30 61.878906 C 30 64.304688 29.96875 64.761719 29.804688 64.929688 C 29.46875 65.265625 20.183594 65.222656 20.003906 64.882812 C 19.925781 64.738281 19.875 63.546875 19.875 61.890625 L 19.875 59.144531 L 20.203125 58.882812 C 20.65625 58.527344 29.15625 58.476562 29.691406 58.828125 M 90.71875 58.886719 C 90.375 59.085938 90.441406 59.609375 90.828125 59.753906 C 91.222656 59.90625 91.5 59.726562 91.5 59.320312 C 91.5 58.832031 91.148438 58.636719 90.71875 58.886719 M 77.628906 61.117188 C 77.542969 61.28125 77.5 66.804688 77.5 78.125 C 77.5 89.445312 77.542969 94.96875 77.628906 95.132812 C 77.792969 95.4375 103.5 95.523438 103.914062 95.21875 C 104.253906 94.972656 104.246094 61.308594 103.910156 61.050781 C 103.496094 60.738281 77.796875 60.800781 77.628906 61.117188 M 103.683594 61.367188 C 103.777344 61.519531 103.773438 94.734375 103.679688 94.886719 C 103.601562 95.011719 78.273438 95.046875 77.949219 94.925781 C 77.742188 94.84375 77.628906 61.539062 77.832031 61.332031 C 77.96875 61.199219 103.601562 61.234375 103.683594 61.367188 M 79.902344 62.832031 C 79.394531 63.039062 79.089844 68.015625 79.507812 69.222656 C 79.722656 69.839844 79.699219 69.835938 90.621094 69.851562 C 100.71875 69.863281 101.722656 69.828125 102.089844 69.464844 C 102.4375 69.117188 102.34375 63.429688 101.988281 63.046875 L 101.707031 62.75 L 90.882812 62.761719 C 84.933594 62.765625 79.992188 62.796875 79.902344 62.832031 M 101.835938 63.273438 C 102.265625 63.675781 102.289062 68.757812 101.867188 69.296875 L 101.605469 69.625 L 90.867188 69.625 C 80.292969 69.625 80.121094 69.621094 79.875 69.375 C 79.523438 69.023438 79.484375 63.523438 79.832031 63.234375 C 80 63.09375 81.878906 63.050781 90.425781 62.996094 C 102.023438 62.917969 101.445312 62.90625 101.835938 63.273438 M 20.003906 67.476562 C 19.59375 67.886719 19.609375 68.386719 20.042969 68.691406 C 20.953125 69.328125 21.855469 68.21875 21.066406 67.433594 C 20.671875 67.035156 20.4375 67.042969 20.003906 67.476562 M 23.652344 67.320312 C 23.054688 67.738281 23.042969 68.4375 23.632812 68.753906 C 23.992188 68.945312 29.382812 68.921875 29.808594 68.726562 C 30.324219 68.496094 30.359375 67.898438 29.886719 67.476562 L 29.496094 67.125 L 26.714844 67.125 C 24.402344 67.125 23.882812 67.15625 23.652344 67.320312 M 20.980469 67.632812 C 21.289062 67.921875 21.253906 68.316406 20.902344 68.59375 C 20.621094 68.8125 20.414062 68.789062 20.125 68.5 C 19.492188 67.867188 20.328125 67.027344 20.980469 67.632812 M 29.691406 67.578125 C 30.0625 67.820312 30.101562 68.3125 29.757812 68.496094 C 29.480469 68.644531 24.214844 68.710938 23.777344 68.570312 C 23.351562 68.433594 23.269531 67.894531 23.636719 67.609375 C 24.0625 67.28125 29.199219 67.253906 29.691406 67.578125 M 19.964844 70.992188 C 19.605469 71.417969 19.636719 71.90625 20.042969 72.191406 C 20.9375 72.820312 21.882812 71.648438 21.085938 70.898438 C 20.691406 70.527344 20.332031 70.554688 19.964844 70.992188 M 23.453125 70.984375 C 23.058594 71.394531 23.09375 71.875 23.542969 72.191406 C 23.882812 72.429688 29.347656 72.464844 29.789062 72.230469 C 30.359375 71.929688 30.410156 71.40625 29.90625 70.941406 L 29.566406 70.625 L 23.796875 70.625 L 23.453125 70.984375 M 21.171875 71.320312 C 21.285156 71.613281 21.042969 72.085938 20.738281 72.164062 C 20.015625 72.351562 19.601562 71.519531 20.1875 71.050781 C 20.5625 70.753906 21 70.871094 21.171875 71.320312 M 29.71875 71.074219 C 30.058594 71.292969 30.089844 71.816406 29.773438 71.988281 C 29.332031 72.222656 23.886719 72.191406 23.605469 71.949219 C 23.265625 71.65625 23.359375 71.226562 23.8125 71 C 24.339844 70.738281 29.292969 70.800781 29.71875 71.074219 M 79.90625 71.628906 C 79.75 71.691406 79.566406 71.890625 79.5 72.066406 C 79.171875 72.921875 79.644531 73.25 81.1875 73.25 C 82.878906 73.25 83.460938 72.691406 82.632812 71.867188 C 82.246094 71.476562 80.632812 71.335938 79.90625 71.628906 M 85.21875 71.636719 C 84.640625 71.972656 84.585938 72.679688 85.101562 73.09375 C 85.453125 73.371094 101.605469 73.308594 101.957031 73.027344 C 102.421875 72.652344 102.441406 72.296875 102.019531 71.875 L 101.644531 71.5 L 93.539062 71.503906 C 88.269531 71.507812 85.359375 71.550781 85.21875 71.636719 M 82.574219 72.0625 C 82.96875 72.664062 82.589844 72.960938 81.351562 73.027344 C 79.867188 73.101562 79.214844 72.660156 79.816406 71.996094 C 80.191406 71.582031 82.292969 71.632812 82.574219 72.0625 M 101.871094 72.023438 C 102.183594 72.359375 102.191406 72.527344 101.898438 72.789062 C 101.707031 72.964844 91.988281 73.09375 85.425781 73.003906 C 85.042969 73 84.859375 72.511719 85.082031 72.089844 L 85.257812 71.75 L 101.617188 71.75 L 101.871094 72.023438 M 79.753906 75.351562 C 78.949219 76.15625 79.511719 76.738281 81.101562 76.761719 C 82.390625 76.777344 82.808594 76.613281 82.953125 76.039062 C 83.199219 75.0625 80.601562 74.503906 79.753906 75.351562 M 85.058594 75.308594 C 84.6875 75.675781 84.664062 76.117188 84.988281 76.515625 L 85.226562 76.8125 L 93.402344 76.8125 C 102.589844 76.8125 102.25 76.847656 102.25 75.945312 C 102.25 74.957031 102.652344 75 93.476562 75 L 85.363281 75 L 85.058594 75.308594 M 82.5625 75.546875 C 82.890625 76.046875 82.636719 76.464844 81.9375 76.570312 C 80.210938 76.828125 79.101562 76.25 79.898438 75.503906 C 80.335938 75.097656 82.289062 75.125 82.5625 75.546875 M 101.863281 75.550781 C 102.179688 75.886719 102.089844 76.253906 101.628906 76.496094 C 101.347656 76.648438 85.984375 76.664062 85.417969 76.515625 C 85.140625 76.441406 85.054688 76.339844 85.023438 76.039062 C 84.941406 75.210938 84.527344 75.25 93.488281 75.25 L 101.582031 75.25 L 101.863281 75.550781 M 79.925781 82.121094 C 79.425781 82.324219 79.359375 82.789062 79.398438 85.71875 C 79.433594 88.222656 79.460938 88.5 79.675781 88.738281 L 79.914062 89 L 101.707031 89 L 101.984375 88.703125 C 102.257812 88.414062 102.265625 88.324219 102.28125 85.496094 L 102.292969 82.585938 L 101.953125 82.292969 L 101.609375 82 L 90.898438 82.007812 C 85.007812 82.011719 80.070312 82.0625 79.925781 82.121094 M 101.84375 82.539062 C 102.265625 82.921875 102.277344 87.996094 101.855469 88.5 L 101.597656 88.8125 L 90.902344 88.847656 L 80.207031 88.878906 L 79.917969 88.605469 C 79.488281 88.203125 79.457031 82.890625 79.878906 82.53125 C 80.113281 82.328125 80.886719 82.308594 90.597656 82.25 C 101.933594 82.183594 101.433594 82.167969 101.84375 82.539062 M 79.90625 90.878906 C 79.34375 91.105469 79.304688 92.269531 79.855469 92.425781 C 80.765625 92.683594 101.667969 92.546875 101.976562 92.28125 C 102.421875 91.894531 102.4375 91.542969 102.019531 91.125 L 101.644531 90.75 L 90.914062 90.757812 C 84.785156 90.761719 80.066406 90.816406 79.90625 90.878906 M 101.871094 91.273438 C 102.191406 91.621094 102.191406 91.777344 101.863281 92.074219 C 101.5625 92.347656 80.773438 92.519531 80.078125 92.257812 C 79.613281 92.078125 79.5 91.527344 79.871094 91.230469 C 80.140625 91.011719 80.667969 91 90.882812 91 L 101.617188 91 L 101.871094 91.273438 "/>
</g>
</svg>
