<svg xmlns="http://www.w3.org/2000/svg" width="166.667" height="166.667" viewBox="0 0 125 125" fill-rule="evenodd" xmlns:v="https://vecta.io/nano"><path d="M26.688 21.84c-.879.121-1.789.563-2.352 1.141-1.012 1.039-.961.148-.961 16.453l-.129 14.574c-.121.227-.289.242-2.754.242-2.867 0-3.156.055-3.777.715l-.348.371v15.723l.004 15.727.309.402c.637.836.398.813 8.34.813h7.172l.465-.316c.887-.602.844-.133.844-9.309l.129-8.508c.16-.297 16.043-.387 16.676-.098l.32.145v4.207c0 3.102-.039 4.242-.148 4.355-.105.102-.781.148-2.242.148-2.367 0-2.91.188-2.766.945.109.555.156.555 12.82.543 12.945-.016 12.711-.004 12.848-.523.207-.77-.352-.965-2.746-.965-1.461 0-2.137-.047-2.242-.148-.219-.223-.207-8.039.012-8.477l.16-.312 3.684-.035c2.539-.02 3.789.012 4.027.109l.344.145v15.051c0 16.77-.066 15.59.871 15.965.547.219 19.922.289 27.465.098 3.57-.09 3.586-.094 4.191-.902.273-.371.359-41.238.086-41.566-.074-.09-.379-.309-.676-.484l-.543-.316h-6.059c-4.887 0-6.082-.031-6.195-.168-.098-.117-.145-4.801-.168-16.469-.035-16.008-.039-16.312-.289-16.961-.324-.852-1.012-1.574-1.906-2l-.715-.34-31.687-.012c-17.43-.008-31.855.008-32.062.039m32.758 1.293c.176.195.199.305.098.469-.336.539-1.078.16-.812-.418.168-.375.406-.395.715-.051m30.453 2.074c.324.297.359 31.801.031 32.266l-.195.277H75.102l-.348.371c-.402.434-.5.902-.504 2.465 0 .875-.047 1.191-.195 1.344-.348.348-39.957.293-40.305-.055-.238-.238-.25-.418-.25-3.473 0-4.398.227-4.152-3.863-4.152-2.699 0-2.75-.004-2.941-.277-.309-.437-.297-28.402.012-28.746.305-.336 62.816-.359 63.191-.02M33.375 40.043c0 .238.051.305.188.254.102-.043.188-.117.188-.172s-.086-.164-.187-.25c-.16-.133-.187-.105-.187.168m5.379.012c-.004.27.035.332.133.234s.102-.207.004-.371c-.117-.203-.133-.184-.137.137m12.375 0c-.004.27.035.332.133.234s.102-.207.004-.371c-.117-.203-.133-.184-.137.137M38.75 43.492c0 .141.055.258.125.258s.125-.082.125-.18-.055-.215-.125-.258-.125.039-.125.18m12.375-.023c0 .156.055.281.125.281.156 0 .156-.133 0-.375-.098-.152-.121-.133-.125.094m-17.75.094c0 .102.09.188.203.188.164 0 .176-.035.047-.187-.086-.102-.176-.187-.203-.187s-.047.086-.047.188M27.25 54.859c.391.109.496.617.176.852-.297.219-3.059.23-3.277.016-.738-.738 1.402-1.336 3.102-.867m-4.023.48c.039.422-.344.66-.789.488-.191-.07-.262-.711-.098-.875.266-.266.848-.012.887.387m8.766 1.348c.305.305.219 25.172-.086 25.406-.289.223-13.785.227-14.008.008-.234-.234-.215-25.09.02-25.41.16-.219.379-.23 4.094-.168 2.16.035 5.051.023 6.426-.023 2.879-.102 3.285-.082 3.555.188m59.359 2.211c.199.203.188.664-.023.84-.281.234-.828-.039-.828-.418 0-.457.543-.727.852-.422m12.559 2.152c.336.258.344 33.922.004 34.168-.414.305-26.121.219-26.285-.086-.086-.164-.129-5.687-.129-17.008l.129-17.008c.168-.316 25.867-.379 26.281-.066m-44.559 3.25c1.262.668 1.102 2.582-.246 2.926-.973.246-1.984-.363-2.176-1.316-.223-1.117 1.355-2.168 2.422-1.609m-1.609.727c-1.043 1.145.625 2.52 1.707 1.406.551-.566.559-.98.027-1.453-.574-.512-1.238-.496-1.734.047M25.625 83.641c1.531.566.926 3.109-.738 3.109-1.844 0-2.191-2.777-.402-3.219.457-.113.57-.102 1.141.109m-1 .324c-.418.156-.867.727-.867 1.098 0 .664 1.141 1.668 1.438 1.262.078-.109.203-.199.273-.199.258 0 .789-.855.715-1.152-.172-.672-1.012-1.215-1.559-1.008M91.316 96.77c.766.523 1.098 1.477.723 2.078-.691 1.113-1.871 1.34-2.695.516-1.285-1.285.484-3.613 1.973-2.594m-1.133.406c-.914.398-1.09 1.148-.426 1.816.906.902 2.387-.074 1.805-1.195-.129-.254-.824-.816-.973-.793a12.4 12.4 0 0 0-.406.172" fill="rgb(6.666667%,31.764706%,40.784314%)"/><path d="M57.938 25.375l-31.125.063-.035 13.938.035 14.219c.066.281.07.281 2.816.281 2.68 0 2.762.008 3.219.297 1 .637.961.465 1.004 4.152.039 3.277.039 3.301.313 3.367.148.035 9.16.051 20.023.031l19.75-.035.063-1.625c.109-2.879-.492-2.687 8.496-2.687 6.477 0 7.234-.02 7.305-.199.109-.285.09-31.652-.02-31.715-.246-.137-2.727-.145-31.844-.086m-9.574 5.301c.25.23.262.348.262 3.145 0 3.207-.004 3.234-.508 3.496-.414.215-13.977.277-14.527.07-.711-.27-.715-.297-.715-3.324 0-2.93.066-3.371.531-3.559.625-.258 14.664-.094 14.957.172m34.82-.176c.586.223.691.734.691 3.414 0 2.641-.074 3.055-.617 3.375-.52.305-31.668.328-32.262.023s-.621-.48-.613-3.398c.012-2.937.035-3.105.5-3.359.383-.215 31.75-.266 32.301-.055m-47.141 8.93c.859.797.16 1.57-1.418 1.57-1.57 0-2.262-.75-1.441-1.566.461-.465 2.363-.465 2.859-.004m12.219-.047c.453.324.5.953.102 1.316-.25.223-.543.242-4.883.273l-4.617.035-.363-.285c-.496-.391-.508-.977-.031-1.332.539-.402 9.23-.406 9.793-.008m35.164.023c.512.457.535.871.074 1.262l-.395.332H51.145l-.387-.324c-.48-.402-.492-.812-.039-1.234l.34-.316h32.051l.316.281m-47.559 3.402c1.594.824-.656 2.254-2.398 1.523-.734-.305-.773-1.293-.062-1.578.461-.184 2.066-.152 2.461.055m12.434.082c.512.398.422 1.09-.176 1.391-.449.223-7.82.34-9.023.141-.953-.16-1.312-1.027-.633-1.531.543-.406 9.316-.406 9.832 0m35.121.016c.469.426.512.762.156 1.176l-.305.355H67.223c-15.27 0-16.062-.012-16.391-.227-.605-.395-.602-.988.008-1.363.324-.203 1.422-.215 16.309-.219l15.961-.004.313.281m0 3.5c.457.418.496.723.152 1.156l-.301.375-16.082.031-16.082.035-.367-.367c-.461-.461-.461-.687 0-1.145l.363-.367h32.004l.313.281m-58.973 8.688c-.398.395-.062.531 1.309.531 1.352 0 1.383-.008 1.344-.273s-2.414-.496-2.652-.258m-6.293 1.863c-.125.051-.156 2.664-.156 12.48v12.418l.383.086c.488.105 1.234-.031 1.266-.227.012-.086.027-.902.035-1.824.012-1.664.016-1.672.359-1.969l.348-.297h9.09l.387.324.383.324v3.59l.457.086c.25.047.602.035.781-.027l.324-.117.02-12.121.063-12.434.043-.312-6.812-.023c-3.746-.012-6.883.008-6.969.043m11.711 1.742l.383.324v2.77c-.004 3.102-.023 3.246-.453 3.441-.598.273-9.461.188-9.805-.09-.285-.23-.289-.258-.285-3.211l.004-2.973.727-.586h9.043l.387.324m47.965 2.633c-.203.207-.09 33.512.117 33.594.324.121 25.652.086 25.73-.039.094-.152.098-33.367.004-33.52-.082-.133-25.715-.168-25.852-.035m24.156 1.715c.355.383.449 6.07.102 6.418-.367.363-1.371.398-11.469.387-10.922-.016-10.898-.012-11.113-.629-.219-.625-.176-5.527.051-5.969.266-.512-.414-.484 11.324-.492l10.824-.012.281.297m-80.922 4.387c.789.785-.113 1.895-1.023 1.258-.434-.305-.449-.805-.039-1.215.434-.434.668-.441 1.063-.043m8.82.043c.473.422.438 1.02-.078 1.25-.426.195-5.816.219-6.176.027s-.547-.695-.383-1.004c.316-.59.516-.625 3.465-.625h2.781l.391.352m-8.801 3.422c.797.75-.148 1.922-1.043 1.293-.406-.285-.437-.773-.078-1.199.367-.437.727-.465 1.121-.094m8.82.043c.504.465.453.988-.117 1.289-.441.234-5.906.199-6.246-.039-.449-.316-.484-.797-.09-1.207l.344-.359h5.77l.34.316m52.727.926c.828.824.246 1.383-1.445 1.383-1.543 0-2.016-.328-1.687-1.184.266-.699 2.496-.84 3.133-.199m19.387.008c.422.422.402.777-.062 1.152-.352.281-16.504.344-16.855.066-.516-.414-.461-1.121.117-1.457.141-.086 3.051-.129 8.32-.133l8.105-.004.375.375m-19.379 3.48c.887.789.188 1.43-1.539 1.406-1.254-.02-1.523-.137-1.637-.73-.191-1 2.238-1.516 3.176-.676m19.281-.098c.465.367.457 1.027-.012 1.332-.312.207-.895.223-8.508.223h-8.176l-.238-.297c-.324-.398-.301-.84.07-1.207l.305-.309h8.113c8.02 0 8.117.004 8.445.258m.031 7.035l.34.293-.012 2.91c-.016 2.828-.023 2.918-.297 3.207l-.277.297H79.914l-.238-.262c-.301-.332-.437-5.484-.164-6.145.242-.582.152-.578 11.387-.586L101.609 82l.344.293m.066 8.832c.418.418.402.77-.043 1.156-.309.266-21.211.402-22.121.145-.551-.156-.512-1.32.051-1.547.16-.062 4.879-.117 11.008-.121l10.73-.008.375.375" fill="rgb(96.078431%,96.862745%,96.862745%)"/><path d="M54.625 1c0 .238-.082.25-1.621.25-1.492 0-1.629.02-1.754.25-.117.223-.262.25-1.266.25-1.027 0-1.141.023-1.199.25s-.168.25-1.051.25c-.902 0-.984.02-.984.25s-.082.25-.949.25c-.844 0-.957.027-1.016.25-.055.215-.168.25-.801.25-.652 0-.734.027-.734.25s-.082.25-.699.25c-.594 0-.707.039-.766.25-.059.223-.699.355-1.309.266-.047-.004-.121.102-.164.238-.062.191-.191.246-.57.246-.41 0-.492.043-.492.25 0 .219-.082.25-.687.25-.508 0-.687.047-.687.176 0 .109-.191.211-.5.262s-.5.152-.5.262c0 .102-.125.176-.301.176-.434 0-.699.125-.699.324 0 .117-.148.176-.449.176-.344 0-.465.059-.516.25s-.168.25-.5.25-.449.063-.5.25-.168.25-.5.25-.449.063-.5.25-.168.25-.5.25-.449.063-.5.25c-.043.164-.168.25-.363.25-.164 0-.395.113-.512.25s-.316.25-.437.25c-.141 0-.223.094-.223.25 0 .203-.082.25-.449.25-.344 0-.465.059-.516.25-.035.137-.16.25-.281.25s-.316.113-.441.25-.336.25-.469.25a.34.34 0 0 0-.309.25c-.035.137-.168.25-.297.25s-.305.113-.391.25a.59.59 0 0 1-.441.25c-.199 0-.281.074-.281.25 0 .168-.082.25-.25.25s-.25.082-.25.25c0 .203-.082.25-.449.25-.344 0-.465.059-.516.25-.035.137-.168.25-.301.25-.152 0-.234.09-.234.25 0 .168-.082.25-.25.25s-.25.082-.25.25-.082.25-.25.25c-.137 0-.363.113-.5.25s-.34.25-.449.25-.23.113-.266.25-.168.25-.301.25c-.152 0-.234.09-.234.25 0 .168-.082.25-.25.25-.137 0-.25.082-.25.18s-.113.215-.25.258-.25.152-.25.242-.113.195-.25.23-.25.148-.25.25-.113.215-.25.25-.25.156-.25.266c0 .117-.105.199-.25.199-.168 0-.25.082-.25.25s-.082.25-.25.25-.25.082-.25.25-.082.25-.25.25-.25.082-.25.25-.082.25-.25.25-.25.082-.25.25-.082.25-.25.25c-.16 0-.25.082-.25.234 0 .133-.113.266-.25.301s-.25.148-.25.25-.113.215-.25.25-.25.156-.25.266-.082.199-.18.199-.215.113-.258.25-.16.25-.258.25-.18.113-.18.25c0 .168-.082.25-.25.25s-.25.082-.25.25-.082.25-.25.25-.25.082-.25.25c0 .137-.113.363-.25.5s-.25.363-.25.5c0 .168-.082.25-.25.25s-.25.082-.25.25-.082.25-.25.25c-.16 0-.25.082-.25.234 0 .133-.113.266-.25.301-.191.051-.25.172-.25.516 0 .367-.047.449-.25.449-.168 0-.25.082-.25.25s-.082.25-.25.25c-.176 0-.25.082-.25.281a.59.59 0 0 1-.25.441c-.137.086-.25.262-.25.391s-.113.262-.25.297c-.191.051-.25.172-.25.516 0 .367-.047.449-.25.449-.16 0-.25.082-.25.234 0 .133-.113.266-.25.301-.191.051-.25.172-.25.516 0 .367-.047.449-.25.449-.156 0-.25.082-.25.223 0 .121-.113.316-.25.438s-.25.348-.25.512c0 .195-.086.32-.25.363-.187.051-.25.172-.25.5s-.062.453-.25.5-.25.172-.25.5-.062.453-.25.5-.25.172-.25.5-.062.453-.25.5-.25.172-.25.516c0 .301-.059.449-.176.449-.199 0-.324.266-.324.699 0 .176-.074.301-.176.301-.109 0-.211.191-.262.5s-.152.5-.262.5c-.129 0-.176.18-.176.688 0 .605-.031.688-.25.688-.207 0-.25.082-.25.492 0 .379-.055.508-.246.57-.137.043-.242.117-.238.164.094.645-.039 1.273-.266 1.273s-.25.082-.25.75-.027.75-.25.75-.25.082-.25.734c0 .633-.035.746-.25.801-.223.059-.25.172-.25 1.016 0 .867-.023.949-.25.949s-.25.082-.25.941c0 .816-.031.953-.242 1.031-.133.051-.246.133-.25.184s-.008.566-.008 1.141c0 .945-.023 1.055-.25 1.113-.234.063-.25.172-.25 1.75s-.016 1.691-.25 1.75c-.246.066-.25.172-.25 7.691l.324 8.023c.141 0 .176.328.176 1.699 0 1.594.016 1.703.25 1.766.227.059.25.168.25 1.223s.023 1.164.25 1.223.25.172.25 1.016c0 .867.023.949.25.949s.25.082.25.93c0 .82.031.938.25 1.008s.25.188.25.82c0 .66.027.742.25.742s.25.082.25.75.027.75.25.75.25.082.25.68c0 .57.039.691.25.758.195.063.25.188.25.57 0 .41.043.492.25.492.219 0 .25.082.25.688 0 .508.047.688.176.688.109 0 .211.191.262.492.043.266.16.52.258.555s.18.18.18.313c0 .379.133.641.324.641.117 0 .176.148.176.449 0 .344.059.465.25.516s.25.168.25.5.063.449.25.5.25.168.25.5.063.449.25.5c.223.059.336.41.262.828-.012.055.094.133.234.168.168.047.254.172.254.367 0 .164.113.395.25.512s.25.316.25.438c0 .141.094.223.25.223.203 0 .25.082.25.43 0 .32.063.449.25.508.137.043.25.188.25.32 0 .16.086.242.25.242.203 0 .25.082.25.449 0 .344.059.465.25.516.137.035.25.168.25.297s.113.305.25.391.25.254.25.375.113.273.25.348.25.215.25.316.113.184.25.184c.203 0 .25.082.25.449 0 .344.059.465.25.516.137.035.25.168.25.301 0 .152.09.234.25.234.168 0 .25.082.25.25s.082.25.25.25.25.082.25.25c0 .137.113.363.25.5s.25.363.25.5c0 .168.082.25.25.25s.25.082.25.25.082.25.25.25.25.082.25.25c0 .137.082.25.18.25s.215.113.258.25.16.25.258.25.18.09.18.199.113.23.25.266.25.148.25.25.113.215.25.25.25.168.25.301c0 .152.09.234.25.234.168 0 .25.082.25.25s.082.25.25.25.25.082.25.25.082.25.25.25.25.082.25.25.082.25.25.25.25.082.25.25.082.25.25.25c.145 0 .25.082.25.199 0 .109.113.23.25.266s.25.148.25.25.113.215.25.25.25.148.25.25.113.215.25.25.25.141.25.238.113.172.25.172c.168 0 .25.082.25.25 0 .16.082.25.234.25.133 0 .266.113.301.25s.156.25.266.25.313.113.449.25.363.25.5.25c.168 0 .25.082.25.25s.082.25.25.25.25.082.25.25c0 .16.082.25.234.25.133 0 .266.113.301.25.051.191.172.25.516.25.367 0 .449.047.449.25 0 .168.082.25.25.25s.25.082.25.25c0 .176.082.25.281.25a.59.59 0 0 1 .441.25c.086.137.262.25.391.25s.262.113.297.25a.34.34 0 0 0 .309.25c.133 0 .34.109.461.242s.332.262.465.281.234.09.227.148c-.027.172.281.324.66.328.258 0 .344.063.344.25 0 .16.082.25.238.25.129 0 .266.082.305.18s.262.219.5.262c.277.055.457.168.496.32.047.176.176.238.496.238.332 0 .453.063.5.25s.172.25.5.25.453.063.5.25.172.25.5.25.453.063.5.25.172.25.5.25.453.063.5.25.172.25.516.25c.301 0 .449.059.449.176 0 .199.266.324.699.324.184 0 .301.074.301.188 0 .145.16.188.688.188.605 0 .688.031.688.25 0 .207.082.25.492.25.383 0 .508.055.57.25.066.211.188.25.75.25s.684.039.75.25.188.25.758.25c.598 0 .68.031.68.25s.082.25.734.25c.633 0 .746.035.801.25.059.223.172.25 1.016.25.867 0 .949.023.949.25s.082.25.992.25c.883 0 1 .027 1.07.25s.188.25 1.133.25c.887 0 1.094.039 1.305.25.223.223.418.25 1.813.25 1.48 0 1.563.012 1.563.25 0 .246.082.25 7.875.25l7.875-.25c0-.238.082-.25 1.625-.25 1.488 0 1.637-.02 1.777-.25.137-.215.293-.25 1.117-.25 1.07 0 1.355-.07 1.355-.324 0-.137.227-.176 1-.176.918 0 1-.02 1-.25s.082-.25.949-.25c.844 0 .957-.027 1.016-.25.055-.215.168-.25.801-.25.652 0 .734-.027.734-.25s.082-.25.75-.25.75-.027.75-.25.082-.25.68-.25c.57 0 .691-.039.758-.25.063-.195.188-.25.57-.25.41 0 .492-.043.492-.25 0-.219.082-.25.688-.25.527 0 .688-.043.688-.187 0-.125.125-.187.375-.187.223 0 .465-.102.59-.25.125-.141.371-.25.574-.25.254 0 .379-.074.426-.25.047-.187.168-.25.5-.25s.449-.062.5-.25.168-.25.5-.25.449-.062.5-.25.168-.25.5-.25.449-.062.5-.25.168-.25.5-.25.449-.062.5-.25c.043-.164.168-.25.363-.25.164 0 .395-.113.512-.25s.316-.25.438-.25c.141 0 .223-.094.223-.25 0-.203.082-.25.449-.25.344 0 .465-.059.516-.25.035-.137.16-.25.281-.25s.316-.113.441-.25.336-.25.469-.25a.34.34 0 0 0 .309-.25c.035-.137.168-.25.297-.25s.305-.113.391-.25a.58.58 0 0 1 .434-.25c.164 0 .305-.102.352-.25.043-.137.16-.25.258-.25s.18-.113.18-.25c0-.203.082-.25.43-.25.32 0 .449-.062.508-.25.043-.137.188-.25.32-.25.16 0 .242-.086.242-.25s.082-.25.25-.25.25-.082.25-.25.082-.25.25-.25c.137 0 .355-.105.488-.238a1.53 1.53 0 0 1 .5-.32c.145-.047.262-.164.262-.262s.113-.18.25-.18c.168 0 .25-.082.25-.25s.082-.25.25-.25c.137 0 .25-.078.25-.172s.113-.203.25-.238.25-.148.25-.25.113-.215.25-.25.25-.148.25-.25.113-.215.25-.25.25-.156.25-.266c0-.117.105-.199.25-.199.16 0 .25-.082.25-.234 0-.133.113-.266.25-.301s.25-.156.25-.266c0-.117.105-.199.25-.199.16 0 .25-.082.25-.234 0-.133.113-.266.25-.301s.25-.156.25-.266c0-.117.105-.199.25-.199.16 0 .25-.082.25-.234 0-.133.113-.266.25-.301s.25-.148.25-.25.113-.215.25-.25.25-.148.25-.25.113-.215.25-.25.25-.156.25-.266.086-.199.188-.199.188-.109.188-.25c0-.168.082-.25.25-.25s.25-.082.25-.25.082-.25.25-.25.25-.082.25-.25c0-.137.113-.363.25-.5s.25-.363.25-.5c0-.168.082-.25.25-.25s.25-.082.25-.25.082-.25.25-.25.25-.082.25-.242c0-.133.113-.277.25-.32.188-.059.25-.187.25-.508 0-.348.047-.43.25-.43.137 0 .25-.082.25-.18s.113-.215.25-.258c.148-.047.25-.187.25-.352a.58.58 0 0 1 .25-.434c.137-.086.25-.262.25-.391s.113-.262.25-.297c.191-.051.25-.172.25-.516 0-.367.047-.449.25-.449.16 0 .25-.082.25-.234 0-.133.113-.266.25-.301.191-.051.25-.172.25-.516 0-.367.047-.449.25-.449.156 0 .25-.082.25-.223 0-.121.113-.316.25-.437s.25-.348.25-.512c0-.195.086-.32.25-.363.188-.051.25-.172.25-.5s.063-.453.25-.5.25-.172.25-.5.063-.453.25-.5.25-.172.25-.5.063-.453.25-.5.25-.172.25-.5.063-.453.25-.5c.176-.047.25-.172.25-.426 0-.203.109-.449.25-.574.148-.125.25-.367.25-.59 0-.25.063-.375.188-.375.145 0 .188-.16.188-.687 0-.605.031-.687.25-.687.207 0 .25-.082.25-.492 0-.383.055-.508.25-.57.211-.066.25-.187.25-.758 0-.598.031-.68.25-.68s.25-.082.25-.75.027-.75.25-.75.25-.082.25-.734c0-.633.035-.746.25-.801.223-.059.25-.172.25-1.016 0-.867.023-.949.25-.949s.25-.082.25-1c0-.773.039-1 .176-1 .254 0 .324-.289.324-1.371 0-.871.027-.98.25-1.039.234-.062.25-.172.25-1.75s.016-1.691.25-1.75c.246-.066.25-.172.25-7.84l-.25-7.84c-.234-.059-.25-.168-.25-1.75s-.016-1.687-.25-1.75c-.227-.059-.25-.168-.25-1.168 0-.992-.023-1.109-.25-1.18s-.25-.187-.25-1.07c0-.91-.02-.992-.25-.992-.223 0-.25-.082-.25-.801 0-.914-.078-1.199-.324-1.199-.133 0-.176-.191-.176-.75 0-.668-.027-.75-.25-.75s-.25-.082-.25-.75-.027-.75-.25-.75-.25-.082-.25-.68c0-.57-.039-.691-.25-.758-.195-.062-.25-.187-.25-.57 0-.41-.043-.492-.25-.492-.219 0-.25-.082-.25-.687 0-.527-.043-.687-.187-.687-.113 0-.187-.117-.187-.301 0-.434-.125-.699-.324-.699-.117 0-.176-.148-.176-.449 0-.344-.059-.465-.25-.516s-.25-.168-.25-.5-.062-.449-.25-.5c-.223-.059-.336-.41-.262-.828.012-.055-.094-.133-.234-.168-.195-.051-.254-.172-.254-.504s-.062-.449-.25-.5-.25-.168-.25-.5-.062-.449-.25-.5c-.164-.043-.25-.168-.25-.363 0-.164-.113-.395-.25-.512s-.25-.316-.25-.437c0-.141-.094-.223-.25-.223-.187 0-.25-.086-.25-.344-.004-.379-.156-.687-.328-.66-.059.008-.129-.102-.148-.242-.023-.152-.137-.254-.281-.254-.195 0-.242-.09-.242-.449 0-.344-.059-.465-.25-.516-.137-.035-.25-.168-.25-.297s-.113-.305-.25-.391a.59.59 0 0 1-.25-.441c0-.199-.074-.281-.25-.281-.168 0-.25-.082-.25-.25s-.082-.25-.25-.25c-.203 0-.25-.082-.25-.449 0-.344-.059-.465-.25-.516-.137-.035-.25-.168-.25-.301 0-.152-.09-.234-.25-.234-.168 0-.25-.082-.25-.25s-.082-.25-.25-.25-.25-.082-.25-.25c0-.137-.113-.363-.25-.5s-.25-.363-.25-.5-.043-.242-.094-.234c-.277.043-.406-.043-.406-.266 0-.168-.082-.25-.25-.25s-.25-.082-.25-.25c0-.137-.078-.25-.172-.25s-.203-.113-.238-.25-.148-.25-.25-.25-.215-.113-.25-.25-.148-.25-.25-.25-.215-.113-.25-.25-.156-.25-.266-.25c-.117 0-.199-.105-.199-.25 0-.168-.082-.25-.25-.25s-.25-.082-.25-.25-.082-.25-.25-.25-.25-.082-.25-.25-.082-.25-.25-.25-.25-.082-.25-.25-.082-.25-.25-.25-.25-.082-.25-.25c0-.16-.082-.25-.234-.25-.133 0-.266-.113-.301-.25s-.148-.25-.25-.25-.215-.113-.25-.25-.156-.25-.266-.25-.199-.082-.199-.18-.113-.215-.25-.258-.25-.16-.25-.258-.113-.18-.25-.18c-.168 0-.25-.082-.25-.25 0-.16-.082-.25-.234-.25-.133 0-.266-.113-.301-.25s-.156-.25-.266-.25-.312-.113-.449-.25-.363-.25-.5-.25c-.168 0-.25-.082-.25-.25s-.082-.25-.25-.25-.25-.082-.25-.25c0-.16-.082-.25-.234-.25-.133 0-.266-.113-.301-.25-.051-.191-.172-.25-.516-.25-.367 0-.449-.047-.449-.25 0-.137-.082-.25-.184-.25s-.242-.113-.316-.25-.23-.25-.348-.25-.289-.113-.375-.25-.262-.25-.391-.25-.262-.113-.297-.25a.34.34 0 0 0-.309-.25c-.133 0-.344-.113-.469-.25s-.328-.25-.449-.25-.258-.113-.301-.25c-.059-.187-.187-.25-.508-.25-.348 0-.43-.047-.43-.25 0-.156-.082-.25-.223-.25-.121 0-.316-.113-.437-.25s-.348-.25-.512-.25c-.195 0-.32-.086-.367-.254-.035-.141-.113-.246-.168-.234-.418.074-.77-.039-.828-.262-.051-.187-.172-.25-.5-.25s-.453-.062-.5-.25-.172-.25-.5-.25-.453-.062-.5-.25-.172-.25-.516-.25c-.301 0-.449-.059-.449-.176 0-.191-.262-.324-.641-.324-.133 0-.273-.082-.312-.18s-.289-.215-.555-.258c-.301-.051-.492-.152-.492-.262 0-.129-.18-.176-.687-.176-.605 0-.687-.031-.687-.25 0-.207-.082-.25-.492-.25-.383 0-.508-.055-.57-.25-.066-.207-.187-.25-.742-.25-.562 0-.676-.039-.73-.25s-.172-.25-.766-.25c-.617 0-.699-.031-.699-.25s-.082-.25-.734-.25c-.633 0-.746-.035-.801-.25-.059-.223-.172-.25-1.016-.25-.867 0-.949-.023-.949-.25s-.082-.25-.984-.25c-.855 0-.996-.031-1.047-.234s-.203-.234-1.172-.25c-.949-.02-1.133-.059-1.281-.27-.156-.223-.32-.246-1.781-.246-1.527 0-1.609-.012-1.609-.25 0-.246-.082-.25-7.875-.25L54.625 1m36.527 21.152c.895.426 1.582 1.148 1.906 2 .25.648.254.953.289 16.961l.168 16.469c.113.137 1.309.168 6.195.168h6.059l.543.316c.297.176.602.395.676.484.273.328.188 41.195-.086 41.566-.605.809-.621.813-4.191.902-7.543.191-26.918.121-27.465-.098-.937-.375-.871.805-.871-15.965V69.906l-.344-.145c-.238-.098-1.488-.129-4.027-.109l-3.684.035-.16.313c-.219.438-.23 8.254-.012 8.477.105.102.781.148 2.242.148 2.395 0 2.953.195 2.746.965-.137.52.098.508-12.848.523-12.664.012-12.711.012-12.82-.543-.145-.758.398-.945 2.766-.945 1.461 0 2.137-.047 2.242-.148.109-.113.148-1.254.148-4.355v-4.207l-.32-.145c-.633-.289-16.516-.199-16.676.098-.086.16-.129 3.047-.129 8.508 0 9.176.043 8.707-.844 9.309l-.465.316H25.02c-7.941 0-7.703.023-8.34-.812l-.309-.402-.004-15.727V55.336l.348-.371c.621-.66.91-.715 3.777-.715 2.465 0 2.633-.016 2.754-.242.086-.164.129-4.934.129-14.574 0-16.305-.051-15.414.961-16.453.563-.578 1.473-1.02 2.352-1.141.207-.031 14.633-.047 32.063-.039l31.688.012.715.34m-70.949 36.73l-.328.262v2.746c0 1.656.051 2.848.129 2.992.18.34 9.465.383 9.801.047.164-.168.195-.625.195-3.051v-2.852l-.309-.199c-.535-.352-9.035-.301-9.488.055m70.223 4.113c-8.547.055-10.426.098-10.594.238-.348.289-.309 5.789.043 6.141.246.246.418.25 10.992.25h10.738l.262-.328c.422-.539.398-5.621-.031-6.023-.391-.367.188-.355-11.41-.277m-70.27 4.59c-.348.242-.359.586-.031.914.289.289.496.313.777.094.707-.559-.008-1.523-.746-1.008m3.48.023c-.367.285-.285.824.141.961.438.141 5.703.074 5.98-.074.344-.184.305-.676-.066-.918-.492-.324-5.629-.297-6.055.031m-3.449 3.441c-.586.469-.172 1.301.551 1.113.559-.145.605-.867.082-1.207-.254-.168-.312-.16-.633.094M23.813 71c-.453.227-.547.656-.207.949.281.242 5.727.273 6.168.039.316-.172.285-.695-.055-.914-.426-.273-5.379-.336-5.906-.074m56.004.996c-.602.664.051 1.105 1.535 1.031 1.238-.066 1.617-.363 1.223-.965-.281-.43-2.383-.48-2.758-.066m5.266.094c-.223.422-.039.91.344.914 6.563.09 16.281-.039 16.473-.215.293-.262.285-.43-.027-.766l-.254-.273H85.258l-.176.34m-5.184 3.414c-.797.746.313 1.324 2.039 1.066.699-.105.953-.523.625-1.023-.273-.422-2.227-.449-2.664-.043m5.293-.051c-.336.336-.203.949.227 1.063.566.148 15.93.133 16.211-.02.461-.242.551-.609.234-.945l-.281-.301h-8.094c-7.309 0-8.113.02-8.297.203M20.16 78.098c-.262.203-.277.324-.312 2.184l-.035 1.969h10.25l-.039-1.969c-.051-2.664.504-2.402-5.086-2.402-4.074 0-4.527.023-4.777.219m70.438 4.152c-9.711.059-10.484.078-10.719.281-.422.359-.391 5.672.039 6.074l.289.273 10.695-.031 10.695-.035.258-.312c.422-.504.41-5.578-.012-5.961-.41-.371.09-.355-11.246-.289m-10.727 8.98c-.371.297-.258.848.207 1.027.695.262 21.484.09 21.785-.184.328-.297.328-.453.008-.801l-.254-.273H90.883c-10.215 0-10.742.012-11.012.23" fill="rgb(95.294118%,41.568627%,24.313725%)"/><path d="M33.52 30.465c-.551.105-.645.645-.645 3.625.004 2.844.012 2.906.469 3.148.406.211 14.406.211 14.813 0 .457-.242.465-.301.469-3.277 0-3.07-.031-3.234-.641-3.449-.387-.133-13.777-.18-14.465-.047m17.773 0c-.812.102-.852.25-.895 3.352l-.035 2.789.348.391.352.391 16.027-.004c16.977-.004 16.426.016 16.621-.57.047-.137.078-1.477.07-2.98-.02-3.027-.066-3.234-.789-3.379-.422-.082-31.023-.074-31.699.012M33.344 39.32a.75.75 0 0 0-.289 1.125c.648.988 3.32.637 3.32-.441 0-.75-2.051-1.215-3.031-.684m5.105.168c-.445.461-.391.852.164 1.227.949.641 9.676.391 9.934-.281.469-1.219.109-1.309-5.242-1.309h-4.508l-.348.363m12.41-.082c-.52.441-.539.809-.07 1.234l.395.363 15.961-.035 15.961-.031.32-.305c.496-.461.418-1.016-.184-1.324-.305-.16-2.539-.184-16.203-.184H51.188l-.328.281m-17.109.719c0 .055-.086.129-.187.172-.137.051-.187-.016-.187-.254 0-.273.027-.301.188-.168.102.086.188.199.188.25m5.137.164c-.098.098-.137.035-.133-.234.004-.32.02-.34.137-.137.098.164.098.27-.004.371m12.375 0c-.098.098-.137.035-.133-.234.004-.32.02-.34.137-.137.098.164.098.27-.004.371M33.406 42.75c-.32.133-.574.672-.469 1 .336 1.063 3.438.895 3.438-.187 0-.727-1.93-1.254-2.969-.812m5.102.199c-.477.402-.477.848-.008 1.191.285.211 4.156.309 9.406.238.629-.008.945-1.012.457-1.453-.25-.223-.543-.242-4.863-.273l-4.594-.035-.398.332m12.34-.078c-.469.367-.512.832-.113 1.199l.324.305 15.816.02L83 44.391c.68-.055.996-1.004.488-1.465-.426-.383-32.156-.437-32.641-.055M39 43.57c0 .098-.055.18-.125.18s-.125-.117-.125-.258.055-.223.125-.18.125.16.125.258m12.375.086c0 .051-.055.094-.125.094s-.125-.125-.125-.281c.004-.27.242-.086.25.188m-17.75-.094c.129.152.117.188-.047.188-.113 0-.203-.086-.203-.187s.02-.187.047-.187.117.086.203.188m17.434 2.688c-.602.227-.797.855-.406 1.301l.285.324 16.156.008 16.16.004.289-.34c.332-.387.309-.789-.07-1.133-.266-.242-31.789-.398-32.414-.164M58 64.273c-.602.164-1.187 1.059-1.07 1.637.395 1.965 3.258 1.766 3.258-.223 0-1.187-.902-1.77-2.187-1.414m1.477.707c.531.473.523.887-.027 1.453-1.082 1.113-2.75-.262-1.707-1.406.496-.543 1.16-.559 1.734-.047M24.484 83.531c-1.789.441-1.441 3.219.402 3.219 1.664 0 2.27-2.543.738-3.109-.57-.211-.684-.223-1.141-.109m1.34.828c.512.586.273 1.766-.355 1.766-.07 0-.195.09-.273.199-.297.406-1.437-.598-1.437-1.262 0-1.008 1.387-1.484 2.066-.703m63.863 12.492c-.922.641-1.078 1.777-.344 2.512 1.297 1.297 3.484-.211 2.637-1.812-.551-1.039-1.418-1.301-2.293-.699m1.32.387c1.07.648.75 2.137-.465 2.137-1.512 0-1.469-2.105.047-2.371.016 0 .203.102.418.234" fill="rgb(37.647059%,70.196078%,75.294118%)"/><path d="M58.73 23.184c-.266.578.477.957.813.418.102-.164.078-.273-.098-.469-.309-.344-.547-.324-.715.051m-32.023 2.043c-.309.344-.32 28.309-.012 28.746.191.273.242.277 2.941.277 4.09 0 3.863-.246 3.863 4.152 0 3.055.012 3.234.25 3.473.348.348 39.957.402 40.305.055.148-.152.195-.469.195-1.344.004-1.562.102-2.031.504-2.465l.348-.371h14.633l.195-.277c.328-.465.293-31.969-.031-32.266-.375-.34-62.887-.316-63.191.02m63.074.234c.109.063.129 31.43.02 31.715-.07.18-.828.199-7.305.199-8.988 0-8.387-.191-8.496 2.688l-.062 1.625-19.75.035c-10.863.02-19.875.004-20.023-.031-.273-.066-.273-.09-.312-3.367-.043-3.687-.004-3.516-1.004-4.152-.457-.289-.539-.297-3.219-.297-2.746 0-2.75 0-2.816-.281-.039-.156-.055-6.555-.035-14.219l.035-13.937 31.125-.062 31.844.086m-5.98 8.414c0 .996.02 1.406.043.906a23.37 23.37 0 0 0 0-1.812c-.023-.5-.043-.09-.043.906m-46.332 3.594h6.563c1.805-.02.328-.035-3.281-.035l-3.281.035m22.195 0h15.125c4.141-.02.719-.031-7.602-.031l-7.523.031m24.098 2.648c-.008.098-.137.324-.289.5l-.277.32.355-.332c.195-.18.324-.406.285-.5-.055-.137-.066-.133-.074.012m-49.48 4.348c.191.027.473.027.625 0s0-.055-.344-.055-.469.027-.281.055m6.992.004c1.148.02 3.059.02 4.25 0s.25-.039-2.086-.039-3.312.02-2.164.039m18.07 0h15.563c4.281-.02.777-.031-7.781-.031l-7.781.031m-2.062 1.746c.191.027.473.027.625 0s0-.055-.344-.055-.469.027-.281.055m3.5 0c.191.027.473.027.625 0s0-.055-.344-.055-.469.027-.281.055m13.813 0a1.94 1.94 0 0 0 .563 0c.156-.031.027-.055-.281-.055s-.437.023-.281.055m3.438 0c.191.027.473.027.625 0s0-.055-.344-.055-.469.027-.281.055m-19.117 1.754h15.625c4.277-.02.742-.031-7.852-.031l-7.773.031m-34.719 6.977c-.637.641-.148.93 1.555.93 1.598 0 1.93-.113 1.855-.625s-2.953-.762-3.41-.305m-1.855.008c-.164.164-.094.805.098.875.445.172.828-.066.789-.488-.039-.398-.621-.652-.887-.387m4.762.398c.039.266.008.273-1.344.273-1.371 0-1.707-.137-1.309-.531.238-.238 2.613-.008 2.652.258m1.336 1.148c-1.375.047-4.266.059-6.426.023-3.715-.062-3.934-.051-4.094.168-.258.352-.25 25.211.008 25.426.109.086.508.129 1.031.109l.855-.039.035-1.937c.043-2.625-.5-2.367 5.063-2.371 5.605-.004 5.09-.227 5.09 2.188 0 2.266-.035 2.184.926 2.184 1.309 0 1.176 1.398 1.223-12.84.043-13.898.105-12.875-.781-12.961-.238-.02-1.555 0-2.93.051m3.457.75c-.02.172-.051 5.766-.062 12.434l-.02 12.121-.324.117c-.18.063-.531.074-.781.027l-.457-.086v-3.59l-.383-.324-.387-.324h-9.09l-.348.297c-.344.297-.348.305-.359 1.969l-.035 1.824c-.031.195-.777.332-1.266.227L18 81.855V69.438l.156-12.48c.086-.035 3.223-.055 6.969-.043l6.813.023-.043.313m-11.82 1.418l-.363.293-.004 2.973c-.004 2.953 0 2.98.285 3.211.344.277 9.207.363 9.805.09.43-.195.449-.34.453-3.441v-2.77l-.383-.324-.387-.324h-9.043l-.363.293m9.617.16l.309.199v2.852c0 2.426-.031 2.883-.195 3.051-.336.336-9.621.293-9.801-.047-.078-.145-.129-1.336-.129-2.992v-2.746l.328-.262c.453-.355 8.953-.406 9.488-.055m61.027.059c-.344.199-.277.723.109.867.395.152.672-.027.672-.434 0-.488-.352-.684-.781-.434m-13.09 2.23c-.086.164-.129 5.688-.129 17.008l.129 17.008c.164.305 25.871.391 26.285.086.34-.246.332-33.91-.004-34.168-.414-.312-26.113-.25-26.281.066m26.055.25c.094.152.09 33.367-.004 33.52-.078.125-25.406.16-25.73.039-.207-.082-.32-33.387-.117-33.594.137-.133 25.77-.098 25.852.035m-23.781 1.465c-.508.207-.812 5.184-.395 6.391.215.617.191.613 11.113.629 10.098.012 11.102-.023 11.469-.387.348-.348.254-6.035-.102-6.418l-.281-.297-10.824.012-10.98.07m21.934.441c.43.402.453 5.484.031 6.023l-.262.328H90.867c-10.574 0-10.746-.004-10.992-.25-.352-.352-.391-5.852-.043-6.141.168-.141 2.047-.184 10.594-.238 11.598-.078 11.02-.09 11.41.277m-81.832 4.203c-.41.41-.395.91.039 1.215.91.637 1.813-.473 1.023-1.258-.395-.398-.629-.391-1.062.043m3.648-.156c-.598.418-.609 1.117-.02 1.434.359.191 5.75.168 6.176-.027.516-.23.551-.828.078-1.25l-.391-.352h-2.781c-2.312 0-2.832.031-3.062.195m-2.672.313c.309.289.273.684-.078.961-.281.219-.488.195-.777-.094-.633-.633.203-1.473.855-.867m8.711-.055c.371.242.41.734.066.918-.277.148-5.543.215-5.98.074-.426-.137-.508-.676-.141-.961.426-.328 5.563-.355 6.055-.031m-9.727 3.414c-.359.426-.328.914.078 1.199.895.629 1.84-.543 1.043-1.293-.395-.371-.754-.344-1.121.094m3.488-.008c-.395.41-.359.891.09 1.207.34.238 5.805.273 6.246.039.57-.301.621-.824.117-1.289l-.34-.316h-5.77l-.344.359m-2.281.336c.113.293-.129.766-.434.844-.723.188-1.137-.645-.551-1.113a.59.59 0 0 1 .984.27m8.547-.246c.34.219.371.742.055.914-.441.234-5.887.203-6.168-.039-.34-.293-.246-.723.207-.949.527-.262 5.48-.199 5.906.074m50.188.555a.86.86 0 0 0-.406.438c-.328.855.145 1.184 1.688 1.184 1.691 0 2.273-.559 1.445-1.383-.387-.391-2-.531-2.727-.238m5.313.008c-.578.336-.633 1.043-.117 1.457.352.277 16.504.215 16.855-.066.465-.375.484-.73.063-1.152l-.375-.375-8.105.004c-5.27.004-8.18.047-8.32.133m-2.645.426c.395.602.016.898-1.223.965-1.484.074-2.137-.367-1.535-1.031.375-.414 2.477-.363 2.758.066m19.297-.039c.313.336.32.504.027.766-.191.176-9.91.305-16.473.215-.383-.004-.566-.492-.344-.914l.176-.34h16.359l.254.273m-22.117 3.328c-.805.805-.242 1.387 1.348 1.41 1.289.016 1.707-.148 1.852-.723.246-.977-2.352-1.535-3.199-.687m5.305-.043c-.371.367-.395.809-.07 1.207l.238.297h8.176c9.188 0 8.848.035 8.848-.867 0-.988.402-.945-8.773-.945h-8.113l-.305.309m-2.496.238c.328.5.074.918-.625 1.023-1.727.258-2.836-.32-2.039-1.066.438-.406 2.391-.379 2.664.043m19.301.004c.316.336.227.703-.234.945-.281.152-15.645.168-16.211.02-.277-.074-.363-.176-.395-.477-.082-.828-.496-.789 8.465-.789h8.094l.281.301m-21.937 6.57c-.5.203-.566.668-.527 3.598.035 2.504.063 2.781.277 3.02l.238.262h21.793l.277-.297c.273-.289.281-.379.297-3.207l.012-2.91-.34-.293-.344-.293-10.711.008-10.973.113m21.918.418c.422.383.434 5.457.012 5.961l-.258.313-10.695.035-10.695.031-.289-.273c-.43-.402-.461-5.715-.039-6.074.234-.203 1.008-.223 10.719-.281 11.336-.066 10.836-.082 11.246.289m-21.937 8.34c-.562.227-.602 1.391-.051 1.547.91.258 21.813.121 22.121-.145.445-.387.461-.738.043-1.156l-.375-.375-10.73.008-11.008.121m21.965.395c.32.348.32.504-.008.801-.301.273-21.09.445-21.785.184-.465-.18-.578-.73-.207-1.027.27-.219.797-.23 11.012-.23h10.734l.254.273" fill="rgb(57.254902%,64.705882%,69.411765%)"/></svg>