<svg xmlns="http://www.w3.org/2000/svg" width="166.667" height="166.667" viewBox="0 0 125 125" fill-rule="evenodd" xmlns:v="https://vecta.io/nano"><path d="M60.844 22c-.258.137-.629.25-.828.25s-.5.113-.676.25-.434.25-.578.25-.262.055-.262.117-.246.23-.547.363-.586.305-.633.379-.164.141-.258.141-.5.211-.902.469l-.977.625c-.137.086-.387.211-.559.281s-.398.18-.5.25a6.21 6.21 0 0 1-.625.344c-.242.121-.465.25-.5.289-.066.078-1.281.758-2.023 1.133-.254.129-.496.289-.539.359s-.172.125-.289.129-.547.227-.957.5-.82.496-.906.496-.16.051-.16.109-.168.18-.371.266a2.58 2.58 0 0 0-.645.391c-.148.129-.375.234-.496.234s-.262.063-.309.137-.316.246-.602.379c-.789.375-1.836.953-2.062 1.145-.113.09-.344.234-.516.316s-.398.199-.5.262L39.648 33.5c-.062 0-.211.113-.336.25s-.324.25-.441.25-.355.113-.531.25-.387.25-.477.25-.246.078-.355.172-.492.328-.852.516-.691.391-.727.453-.266.195-.504.293-.52.27-.625.375-.273.191-.371.191-.676.309-1.281.688-1.195.688-1.305.688-.215.051-.238.109c-.055.145-1.437.891-1.648.891-.09 0-.285.133-.437.293s-.516.41-.812.559c-.773.387-2.254 2.172-2.527 3.051-.047.156-.164.395-.258.531a1.21 1.21 0 0 0-.172.582c0 .184-.109.578-.246.875-.391.863-.395 34.055-.004 35.078.137.363.254.785.258.938.016.852 2.438 4.027 3.266 4.289.125.039.227.125.227.188s.078.117.172.117.313.113.488.25.402.25.508.25.348.141.531.313.469.313.633.313.293.059.293.129.156.188.344.258.633.324.988.559.73.43.832.43.258.094.352.207.34.285.547.379c.641.289 1.992 1.051 2.195 1.238.109.098.297.176.414.176s.242.082.281.18.227.215.418.258a1.28 1.28 0 0 1 .574.32c.121.133.316.242.434.242s.355.113.531.25.363.25.422.25.402.195.758.438.727.438.824.438.273.113.398.25.313.25.414.25.371.141.598.313.492.313.598.313.219.047.254.105c.105.168 2.051 1.27 2.242 1.27.098 0 .242.078.32.176s.469.336.859.527 1.023.566 1.402.828.75.469.828.469.211.086.297.188a.58.58 0 0 0 .379.188c.125 0 .387.133.582.293s.508.332.695.379.344.137.344.207.07.121.156.121.512.227.941.5.855.5.941.5.25.113.371.25.305.25.422.25.391.141.617.313.438.313.469.313.598.309 1.254.688 1.242.688 1.305.688.184.082.266.18.328.219.547.266.504.176.629.289c.199.172.613.207 2.672.227 2.293.02 2.691-.023 3.16-.336a2.97 2.97 0 0 1 .5-.25c.172-.07.594-.293.938-.492s.715-.371.824-.375.301-.121.426-.258.285-.25.355-.25.469-.211.887-.473c1.07-.664 1.203-.746 1.695-1.008l1.031-.566 1.176-.641c.316-.172.648-.367.73-.437.309-.258 1.332-.75 1.555-.75.129 0 .266-.086.305-.191s.258-.277.484-.379a8.42 8.42 0 0 0 .781-.43c.207-.133.543-.328.75-.437s.543-.285.75-.398l.563-.305c.102-.055.609-.344 1.121-.637l1.063-.586c.07-.027.289-.18.48-.344s.461-.293.59-.293.27-.062.316-.137.262-.219.477-.312.617-.316.891-.488.586-.348.688-.395a3.44 3.44 0 0 0 .484-.312c.164-.129.406-.23.531-.23s.234-.059.234-.129.246-.234.547-.363.59-.297.633-.371.164-.137.262-.137.523-.227.949-.5.844-.5.93-.5.184-.086.227-.187.18-.187.316-.187.41-.141.613-.312.438-.312.52-.312c.133 0 1.004-.52 1.906-1.141.184-.129.418-.234.512-.234s.313-.102.477-.227.633-.391 1.047-.594c1.875-.918 4.313-3.812 4.313-5.117 0-.152.113-.535.25-.848.367-.828.336-34.238-.031-34.953-.121-.234-.219-.605-.219-.824a1.23 1.23 0 0 0-.25-.687c-.137-.16-.25-.414-.25-.57s-.047-.301-.105-.324-.402-.48-.77-1.016c-.523-.766-.859-1.098-1.555-1.559-.484-.32-.93-.652-.984-.742s-.234-.164-.398-.164-.332-.055-.371-.121-.312-.234-.602-.371-.613-.305-.715-.367c-.844-.527-1.902-1.141-1.965-1.141-.043 0-.168-.074-.277-.168-.324-.277-1.906-.496-2.465-.344-.266.074-.645.137-.844.137-1.078 0-5.699 3.789-5.699 4.672 0 .121-.668 1.133-.781 1.184-.051.023-.094.117-.094.207s-.141.336-.312.539-.312.453-.312.555-.113.328-.25.504-.25.371-.25.441-.203.426-.453.793-.5.781-.562.918a13.15 13.15 0 0 1-.402.75l-.609 1.063-.711 1.25c-.82 1.426-1.109 2.074-1.187 2.672-.035.266-.148.578-.258.695-.285.32-.281 4.074.008 4.395.109.121.227.461.266.762s.141.625.23.727.203.355.254.563a2.53 2.53 0 0 0 .305.688l1.082 1.625c.25.379.758 1.02 1.133 1.422s.82.969.996 1.25 1.172 1.375 2.211 2.422 1.945 2.074 2.016 2.273a2.04 2.04 0 0 0 .344.602c.117.133.215.434.215.676s.09.703.203 1.027c.184.547.184.633 0 1.121-.113.289-.203.762-.203 1.047s-.059.555-.125.598-.207.258-.301.477c-.422.984-2.449 2.582-3.289 2.59-.191.004-.457.086-.59.188-.312.238-1.527.234-1.945-.004-.172-.098-.477-.18-.672-.184-.754-.008-2.758-1.652-3.156-2.59-.094-.219-.227-.434-.297-.477s-.125-.293-.125-.555-.09-.695-.203-.961c-.172-.418-.18-.594-.047-1.305s.129-.871-.047-1.211c-.113-.219-.203-.559-.203-.758 0-1.227-1.773-3.398-2.777-3.398-.93 0-3.723 2.477-3.723 3.297 0 .094-.082.238-.18.324s-.25.355-.328.609-.219.543-.305.645-.195.41-.246.68-.168.609-.266.75-.176.457-.176.707c0 .266-.105.586-.25.773-.172.219-.25.508-.25.938s-.078.715-.25.938c-.191.242-.25.508-.25 1.109 0 .582-.066.895-.25 1.168-.312.473-.312.633 0 1.027.137.176.25.406.25.512s.098.297.215.43c.523.578.535 4.457.02 5.051-.109.129-.234.379-.277.559-.082.344-2.109 2.359-2.371 2.359-.082 0-.426.148-.766.328-.574.305-.719.324-2.32.324h-1.707l-.992-.527c-1.16-.617-2.281-1.66-2.668-2.48a23.49 23.49 0 0 0-.473-.945c-.156-.285-.199-.754-.195-2.125 0-1.863-.02-1.766.75-3.262.289-.559 1.395-1.66 2.035-2.031.758-.437 1.125-.777 1.125-1.055 0-.125.113-.437.25-.695s.25-.586.25-.73.113-.41.25-.586c.148-.187.25-.508.25-.777s.102-.59.25-.777a1.38 1.38 0 0 0 .25-.77 1.77 1.77 0 0 1 .25-.828 1.78 1.78 0 0 0 .25-.883c0-.277.082-.617.184-.75s.184-.445.188-.691.145-.715.316-1.039c.18-.336.313-.797.313-1.07s.086-.57.188-.672c.109-.109.188-.418.188-.73a2.46 2.46 0 0 1 .25-1.008c.137-.258.25-.633.25-.832s.137-.656.301-1.016c.172-.367.27-.742.219-.855-.059-.148-.094-.113-.121.141-.023.188-.086.344-.145.344s-.23.254-.379.563-.324.594-.387.633-.113.184-.113.324-.113.395-.25.57-.25.414-.25.527c0 .547-.668.668-1.262.23-.309-.23-.41-.25-.586-.121a4.51 4.51 0 0 1-.59.328c-.207.098-.582.363-.836.594-.633.57-.734.648-1.34 1.031-.727.457-3.035 2.781-3.301 3.32-.117.242-.324.605-.461.813s-.309.516-.383.688c-.348.809-2.184 2.27-3.051 2.43-.273.051-.648.172-.836.27-.441.227-1.324.223-1.766-.008-.191-.102-.559-.223-.812-.27-2.137-.398-3.652-2.551-3.652-5.191 0-1.59.004-1.617.406-2.305l.543-.934c.43-.762 2.496-2.117 3.223-2.117.23 0 1.004-.316 1.578-.648a11.6 11.6 0 0 1 .582-.289c.219-.102.641-.34.938-.527l.793-.508a7.16 7.16 0 0 1 .688-.355c.242-.105.551-.301.691-.43s.48-.363.754-.52c.848-.48 1.711-1.059 2.383-1.59.352-.281.688-.508.75-.508s.563-.395 1.109-.875 1.176-.961 1.395-1.062.418-.234.438-.285c.082-.184 1.297-1.125 1.559-1.203.145-.043.363-.191.484-.324.34-.375-.098-.5-.484-.141-.156.145-.398.266-.539.266a.62.62 0 0 0-.41.18c-.082.102-.336.246-.566.32s-.445.219-.484.32c-.055.137-.316.18-1.125.18-.781 0-1.191.063-1.594.246-.414.188-.824.25-1.672.254-.91 0-1.195.051-1.5.25-.207.137-.547.25-.754.25-.289 0-.52.141-.937.574-2.234 2.309-6.406 1.93-7.75-.707-.133-.262-.301-.512-.371-.555s-.125-.285-.129-.539-.086-.57-.187-.703c-.23-.305-.238-1.309-.016-1.637.094-.137.203-.488.238-.781.113-.855 1.41-2.242 2.785-2.973.746-.398 3.801-.457 4.637-.094.742.324 6.922.328 7.508.008.25-.137.672-.219 1.105-.219.516 0 .793-.066 1.023-.25.176-.137.438-.25.582-.25s.449-.113.676-.25.484-.25.578-.25.238-.086.324-.187a.57.57 0 0 1 .371-.187c.117 0 .316-.109.438-.246s.344-.285.488-.328.527-.297.848-.562.789-.605 1.047-.758c.609-.359 1.441-1.211 2.238-2.293.586-.797.879-1.262 1.605-2.562 1.383-2.477 2.355-4.121 2.48-4.195.059-.039.109-.18.109-.316a.87.87 0 0 1 .219-.488c.219-.242.914-1.559 1.383-2.625a5.05 5.05 0 0 0 .328-1.141c.043-.316.16-.68.258-.812.211-.277.266-2.859.063-2.984-.066-.039-.207-.371-.312-.73-.219-.758-.812-1.535-1.367-1.789a19.61 19.61 0 0 1-2.074-1.199c-.164-.121-.395-.219-.508-.219a.57.57 0 0 1-.371-.199c-.09-.109-.379-.281-.641-.387s-.477-.242-.477-.301-.098-.113-.219-.113-.387-.113-.594-.25-.516-.25-.687-.25-.527-.113-.781-.25c-.391-.207-.707-.25-1.875-.25s-1.488.043-1.875.25" fill="rgb(98.039216%,98.431373%,98.039216%)"/><path d="M0 62.5V125h125V0H0v62.5m65.09-40.844c.137.121.438.219.688.219.242 0 .512.086.598.188s.23.188.316.188.332.141.535.313.438.313.523.313.289.113.465.25.414.25.531.25.316.113.441.25.324.25.441.25.289.086.375.195.418.309.734.453c.656.297 1.887 1.508 1.887 1.855 0 .129.145.504.32.832.434.805.402 3.246-.051 4.125-.148.289-.27.691-.27.895s-.086.434-.187.52-.187.246-.187.359-.078.344-.168.516l-1.152 1.961c-.098.102-.18.281-.18.402s-.109.32-.242.441a1.28 1.28 0 0 0-.32.574c-.043.191-.16.383-.258.418s-.18.203-.18.363-.141.43-.312.59-.312.359-.312.445-.086.219-.187.305-.187.234-.187.332c0 .168-.078.301-.727 1.258-.152.219-.273.457-.273.523s-.184.387-.406.703l-.551.836c-.422.742-2.477 2.809-2.941 2.957-.09.027-.418.258-.727.508-.68.551-2.113 1.449-2.52 1.574a2.46 2.46 0 0 0-.539.262c-.137.094-.395.172-.578.172s-.465.105-.629.234c-.199.156-.566.25-1.125.285s-.895.121-1.039.266c-.352.355-7.496.324-8.164-.035-.391-.211-.703-.25-1.98-.25-1.332 0-1.547.031-1.801.25-.16.137-.398.25-.535.25-.285 0-1.645 1.27-1.941 1.813-.531.984-.574 3.59-.062 4.195a.77.77 0 0 1 .164.406c0 .117.043.211.098.211s.195.164.313.363.473.488.781.641.652.359.758.465c.309.309 3.117.34 3.543.039.176-.125.441-.262.586-.309s.559-.391.914-.766c.402-.426.75-.684.922-.684.152 0 .488-.113.742-.25.355-.191.707-.25 1.469-.25.746 0 1.141-.066 1.543-.254s.848-.262 1.762-.289c.996-.027 1.242-.07 1.34-.246.066-.117.246-.211.406-.211s.383-.109.504-.242.383-.281.582-.324.387-.125.422-.18.359-.254.723-.445.789-.445.953-.574.398-.234.52-.234.254-.09.293-.195c.117-.297.758-.184.801.141.051.344-1.234 1.555-1.648 1.555-.027 0-.324.254-.656.563s-.793.652-1.027.762-.598.379-.812.594c-.437.438-1.141.957-1.293.957-.055 0-.406.293-.785.645s-.961.813-1.293 1.02-.777.531-.988.723-.559.422-.77.504-.418.203-.457.262c-.117.168-1.742 1.207-2.035 1.297-.148.047-.297.121-.332.16-.172.219-1.008.766-1.16.766-.098 0-.277.113-.402.25s-.332.25-.461.25-.359.113-.504.25-.391.25-.539.25-.371.113-.496.25c-.145.16-.387.25-.676.254-.254 0-.586.109-.762.246s-.402.246-.512.246-.32.102-.469.223l-.766.594c-.27.207-.496.438-.496.508s-.148.27-.32.43-.312.391-.312.512-.086.305-.187.406c-.273.277-.273 3.48 0 3.707.102.086.188.281.188.438 0 .383 1.594 2.063 1.953 2.063.148 0 .336.086.422.188s.32.188.523.188.621.063.934.145c.641.16 2.082-.02 2.711-.34.191-.098.418-.18.5-.184.25-.004 1.672-1.539 1.875-2.027.105-.258.254-.469.324-.469s.133-.105.133-.234a.59.59 0 0 1 .188-.391c.102-.086.188-.219.188-.297s.227-.383.5-.676.5-.578.5-.625.266-.316.59-.59l1.328-1.16c.41-.363.93-.746 1.152-.852s.582-.387.797-.621.492-.43.617-.43.328-.113.453-.25c.313-.344 1.125-.344 1.34 0 .242.387.598.324.598-.109 0-.199.082-.426.18-.508s.215-.309.258-.504a1.28 1.28 0 0 1 .32-.574c.133-.121.242-.352.242-.516s.086-.328.188-.367.188-.227.188-.426.098-.449.219-.57.277-.418.348-.664c.109-.387.184-.449.5-.449.438 0 .621.891.27 1.293-.098.113-.207.438-.242.719s-.152.707-.254.938-.227.672-.27.973-.16.664-.262.809-.184.48-.184.746-.102.633-.234.816c-.125.184-.27.637-.316 1.008s-.168.793-.27.934-.18.477-.18.742-.102.633-.234.816-.262.637-.297 1.008c-.039.426-.137.734-.266.828s-.203.332-.203.688c0 .309-.082.629-.191.75s-.238.504-.297.855-.191.746-.305.871-.207.434-.207.691c0 .293-.066.488-.187.531-.102.043-.187.199-.187.355 0 .41-.441.91-1.301 1.465-.977.629-1.824 1.43-1.824 1.719a.58.58 0 0 1-.187.383c-.102.086-.187.246-.191.359s-.113.344-.246.516c-.363.465-.371 3.355-.008 3.863.133.188.277.492.324.676s.137.336.195.336.113.109.113.246c0 .273 1.148 1.504 1.406 1.504.094 0 .223.051.289.113.613.594 1.355.785 3.055.781l1.688-.004.938-.48c.863-.445 2.125-1.508 2.125-1.793 0-.062.055-.117.121-.117s.16-.156.207-.344.168-.445.277-.566c.297-.348.285-4.227-.02-4.562-.117-.129-.211-.301-.211-.387s-.121-.312-.266-.512c-.32-.43-.285-1.473.059-1.816.152-.152.207-.43.207-1.059 0-.641.047-.871.188-.926.133-.051.188-.258.188-.707 0-.633.133-1.023.457-1.348.094-.09.168-.418.168-.723s.078-.684.172-.836.211-.48.254-.73.191-.551.328-.676.246-.348.246-.5.086-.348.188-.434a.58.58 0 0 0 .188-.383c0-.121.133-.328.297-.457s.336-.355.383-.508.141-.277.203-.277.117-.078.117-.172c0-.215 1.133-1.281 1.582-1.484a2.51 2.51 0 0 0 .625-.437c.82-.82 2.246-.172 3.375 1.531l.563.84a1.65 1.65 0 0 1 .23.785c0 .246.098.594.215.777.18.27.219.648.234 2.125.012 1.629.039 1.832.281 2.16.148.203.27.457.27.57 0 .301 1.539 1.805 1.84 1.805a.61.61 0 0 1 .41.188c.086.102.309.188.492.188s.629.086.984.191c.582.176.715.176 1.297 0 .355-.105.797-.191.984-.191s.406-.086.492-.187a.6.6 0 0 1 .402-.187c.297 0 1.848-1.516 1.848-1.809 0-.109.117-.359.262-.555.391-.531.391-3.492 0-4.023-.145-.195-.262-.418-.262-.5 0-.227-.676-1-2.609-2.973l-1.832-2.031c-.043-.129-.129-.234-.191-.234s-.117-.062-.117-.141-.074-.207-.168-.281c-.316-.266-1.418-1.645-1.711-2.141-.164-.273-.367-.547-.457-.602s-.164-.156-.164-.223-.141-.332-.312-.586-.312-.555-.312-.668-.086-.273-.187-.359c-.109-.09-.187-.363-.187-.645 0-.316-.09-.586-.246-.754-.52-.562-.551-4.707-.035-5.258.195-.207.281-.449.281-.805 0-.289.078-.574.18-.656s.219-.328.266-.547.191-.473.32-.562a.62.62 0 0 0 .234-.453c0-.16.082-.355.18-.437s.328-.441.512-.797.414-.738.512-.844.172-.285.172-.391.113-.289.25-.414.25-.324.25-.441.133-.348.289-.512a3.98 3.98 0 0 0 .57-.879c.152-.324.359-.652.461-.734a.56.56 0 0 0 .18-.371c0-.117.113-.359.25-.535s.25-.379.25-.457.227-.441.5-.805.5-.758.5-.871.051-.207.109-.207.453-.445.875-.988.945-1.133 1.172-1.312l.867-.707c.641-.527 1.336-.992 1.492-.992.07 0 .309-.141.535-.312a1.45 1.45 0 0 1 .852-.312 2.06 2.06 0 0 0 .801-.187 1.87 1.87 0 0 1 1.594 0c.195.102.508.188.695.188.199 0 .461.129.633.313.16.172.426.313.586.313s.289.051.289.109.371.297.828.531.855.492.887.578.188.156.34.156.383.113.508.25.352.25.504.25.348.082.43.184.414.332.734.52c1.055.613 2.051 1.789 2.77 3.262.141.289.313.559.379.602s.121.281.121.535.113.629.25.836c.391.59.391 35.141 0 35.785-.137.223-.25.578-.25.781s-.129.586-.289.844-.328.551-.375.652c-.199.441-.469.758-1.691 1.977-.875.867-1.418 1.309-1.668 1.359-.207.043-.398.145-.434.234s-.211.195-.395.242-.426.164-.539.266c-.219.195-1.219.754-2.078 1.16-.293.141-.531.305-.531.367s-.191.152-.426.195-.457.164-.496.266-.129.184-.203.184-.488.227-.922.5-.887.5-.996.5-.207.059-.207.129-.246.234-.547.363-.59.297-.633.371-.223.137-.391.137-.305.059-.305.133-.211.219-.469.324-.672.359-.926.559-.539.359-.645.359-.359.141-.562.313-.457.313-.559.313-.254.086-.34.188-.219.188-.297.188-.484.219-.906.488-.879.52-1.02.566-.324.164-.406.262-.25.184-.367.184-.312.109-.434.242-.383.281-.582.324-.363.125-.363.18-.156.168-.344.242c-.441.176-1.133.598-1.367.828-.102.102-.285.184-.406.184a.56.56 0 0 0-.379.184 1.07 1.07 0 0 1-.422.266 2.32 2.32 0 0 0-.566.316c-.164.129-.375.234-.469.234s-.437.191-.766.422-.715.461-.863.504a1.07 1.07 0 0 0-.422.266.59.59 0 0 1-.402.184c-.141 0-.316.078-.391.176s-.496.363-.93.594c-1.012.539-1.137.609-1.609.949-.215.156-.5.281-.641.281-.133 0-.277.078-.312.172s-.227.211-.418.258-.441.168-.551.266c-.254.227-1.344.805-1.52.805-.078 0-.246.094-.371.211-.617.559-5.418.559-6.27 0-.176-.117-.402-.211-.496-.211s-.301-.113-.461-.25-.371-.25-.469-.25-.352-.141-.555-.312-.473-.312-.598-.312a.58.58 0 0 1-.379-.187c-.086-.102-.219-.187-.297-.187s-.465-.227-.859-.5-.801-.5-.898-.5-.219-.062-.266-.137-.328-.238-.633-.371-.547-.293-.547-.363S52.988 99 52.82 99s-.34-.055-.383-.121c-.062-.102-.516-.383-1.812-1.121a7.39 7.39 0 0 0-.5-.25c-.172-.078-.539-.281-.812-.445a32.03 32.03 0 0 0-1.125-.629c-.344-.18-.742-.434-.883-.566s-.355-.242-.469-.242-.309-.113-.426-.25-.336-.25-.48-.25-.367-.113-.492-.25-.328-.25-.449-.25-.258-.055-.301-.125-.383-.273-.754-.457-.785-.434-.918-.555a1.53 1.53 0 0 0-.562-.309c-.176-.043-.383-.156-.465-.254s-.23-.176-.336-.176-.363-.129-.578-.285-.602-.395-.863-.531-.566-.344-.676-.465-.301-.219-.43-.219-.344-.113-.48-.25-.332-.25-.434-.25-.387-.141-.641-.312-.535-.312-.625-.312-.207-.07-.262-.156-.414-.312-.801-.496-.77-.422-.859-.527-.242-.195-.344-.195-.324-.113-.5-.25-.414-.25-.531-.25-.316-.113-.441-.25-.297-.25-.387-.25-.23-.07-.324-.156-.484-.316-.879-.512-.773-.434-.852-.523-.301-.203-.504-.246-.398-.133-.437-.199-.266-.199-.508-.297c-1.262-.531-3.75-3.605-4.047-5.004a9.28 9.28 0 0 0-.305-1.039c-.309-.836-.238-34.613.074-35.273a4.25 4.25 0 0 0 .285-.895c.043-.25.16-.523.262-.609s.184-.254.184-.375.125-.387.281-.582a6.27 6.27 0 0 0 .52-.789c.324-.598 1.391-1.641 2.094-2.047.32-.187.652-.422.734-.52s.273-.184.422-.184.363-.113.484-.25.348-.25.512-.25.328-.07.363-.156.434-.348.891-.582.863-.473.898-.531.164-.105.285-.105.355-.141.516-.312.418-.312.57-.312.309-.086.352-.187.18-.187.313-.187.262-.043.285-.098c.066-.156 1.34-.902 1.539-.902.098 0 .223-.078.277-.176s.297-.262.539-.371.523-.25.625-.312a4.93 4.93 0 0 1 .5-.25 5.21 5.21 0 0 0 .555-.297c.859-.555 1.551-.945 1.82-1.031.172-.055.387-.203.477-.332s.262-.23.387-.23.352-.113.512-.25.387-.25.508-.25.238-.043.262-.094c.074-.16 1.07-.766 1.398-.852.172-.043.344-.156.383-.254s.18-.176.32-.176.363-.109.5-.246.387-.281.559-.324.375-.156.457-.254.223-.176.316-.176.492-.227.891-.5.813-.5.93-.5.258-.078.313-.176.297-.262.539-.371.523-.25.625-.316a2.43 2.43 0 0 1 .375-.191 4.17 4.17 0 0 0 .563-.32 12.36 12.36 0 0 1 .906-.523c.293-.152.531-.32.531-.375s.133-.102.293-.102.395-.109.516-.246.344-.285.488-.328c.371-.117 1.91-1.035 2.086-1.25.082-.098.246-.176.367-.176s.359-.113.535-.25.422-.25.547-.25a.53.53 0 0 0 .383-.238c.082-.133.316-.277.52-.32s.441-.164.523-.262.297-.18.48-.18.559-.117.828-.258c.68-.352 4.25-.324 4.648.039" fill="rgb(41.960784%,76.862745%,45.098039%)"/><path d="M61.969 21.594a17.37 17.37 0 0 0 1.563 0c.43-.027.078-.047-.781-.047s-1.211.02-.781.047m-1.594.23c-.172.094-.465.172-.648.176s-.375.063-.422.137-.262.215-.477.309-.301.172-.187.176.344-.109.52-.246.477-.254.672-.254.551-.113.793-.246.352-.234.25-.234-.328.086-.5.184m4.5.051c.242.133.563.242.715.246s.465.117.688.254.465.25.535.25c.273 0-.898-.617-1.187-.625-.172-.004-.453-.09-.625-.187s-.367-.18-.437-.18.07.109.313.242m-7.789 1.441c-.191.168-.289.309-.219.309s.242-.109.371-.238.344-.266.469-.297c.207-.055.207-.062-.02-.07-.137-.008-.406.129-.602.297M68 23.313c.234.172.512.309.617.309s.02-.082-.195-.176-.43-.234-.477-.309-.148-.137-.227-.137.047.141.281.313m-12.375.875c-.086.102-.23.188-.316.188s-.332.141-.535.313-.457.313-.559.313-.25.082-.332.18-.309.215-.504.258-.445.18-.562.305c-.219.246.852-.234 1.113-.496.066-.066.219-.121.336-.121s.375-.133.57-.297.473-.332.621-.379c.297-.09.652-.449.449-.449-.07 0-.195.086-.281.188m14.25.145l.781.52c.121.102.254.156.293.117s-.086-.172-.281-.289l-.695-.449c-.184-.125-.41-.23-.5-.23s.094.152.402.332m1.867 1.281c.578.621.934 1.41 1.125 2.512l.098.563.016-.5a2.66 2.66 0 0 0-.23-1c-.133-.273-.242-.586-.246-.691C72.5 26.301 71.426 25 71.266 25c-.051 0 .164.277.477.613m-19.805.637c-.207.137-.32.25-.25.25s.293-.113.5-.25.32-.25.25-.25-.293.113-.5.25m-.93.512c-.234.125-.516.328-.625.449-.184.207-.18.207.055.02a1.83 1.83 0 0 1 .52-.281 1.07 1.07 0 0 0 .422-.266c.18-.219.18-.219-.371.078m-1.57.863c-.125.137-.293.25-.379.25s-.293.113-.465.25-.605.402-.961.594c-1.559.836-1.684.914-1.383.836.172-.043.512-.215.758-.379s.488-.301.539-.301.395-.195.758-.437.715-.437.781-.437.223-.109.344-.242.344-.266.488-.297c.266-.051.266-.051.008-.07-.145-.008-.363.098-.488.234m23.469 1.563c0 .273.027.371.059.219s.027-.383-.004-.5-.055.008-.055.281m-27.531.746l-.625.336c-.355.18-.945.605-.836.605.094 0 .973-.5 1.211-.691.102-.082.355-.211.563-.281s.289-.137.188-.141-.328.074-.5.172m27.398.652c-.281.813-.293 1.133-.023.488.145-.336.246-.691.223-.789s-.109.039-.199.301m-29.711.668l-1 .551c-1.094.574-2.461 1.445-2.27 1.445.055 0 .398-.195.762-.437s.699-.437.75-.437.234-.113.41-.25.426-.25.551-.25.234-.051.234-.109.25-.23.555-.371.586-.32.629-.391c.102-.16.133-.172-.621.25m29.219 1.133c-.141.379-.137.398.043.215.109-.109.18-.293.156-.414-.031-.145-.09-.086-.199.199m-.34.848c-.047.203-.164.441-.262.523s-.18.203-.18.273.078.059.18-.027c.199-.164.508-.984.406-1.082-.035-.035-.098.105-.145.313m-32.801.27c-.387.324-.211.32.199-.004.176-.137.27-.25.207-.246s-.242.113-.406.25m-.953.496c-.125.137-.324.25-.441.25s-.355.113-.531.25-.363.25-.422.254-.246.117-.418.258l-.312.254.438-.211a6.67 6.67 0 0 0 .77-.445c.184-.129.414-.234.516-.234s.258-.09.352-.203.281-.246.422-.305c.184-.074.199-.102.055-.109-.109-.004-.301.105-.426.242m32.566 1.371c-.152.211-.246.453-.211.535.043.109.066.102.07-.023.008-.098.133-.309.281-.469s.242-.32.203-.359-.191.105-.344.316m-35.895.48a3.65 3.65 0 0 1-.703.391c-.223.09-.406.207-.406.262s.238-.035.531-.203l.906-.484c.211-.102.285-.184.172-.187s-.336.098-.5.223m53.953.141c-.137.063-.414.117-.617.125-.387.008-1.504.492-1.395.602.035.035.211-.031.391-.148.934-.609 3.625-.625 4.293-.023.121.113.266.203.316.203.262 0-.676-.602-1.051-.672-.84-.16-1.687-.199-1.937-.086m-18.762.602c-.035.121-.145.359-.238.531-.668 1.199-.719 1.309-.52 1.141.113-.094.207-.242.207-.328s.117-.301.258-.484c.246-.309.543-1.078.418-1.078-.031 0-.09.098-.125.219m-37.781.715l-1.055.676c-.078.078-.234.141-.348.141s-.352.113-.527.25-.398.25-.496.25-.273.102-.387.227-.449.352-.746.5c-.637.316-1.723 1.445-2.309 2.395-.625 1.016-.406.871.27-.18.328-.512.836-1.141 1.125-1.402.457-.41.781-.637 1.828-1.273a4.93 4.93 0 0 1 .5-.25l.563-.285.438-.246 2.059-1.191c.535-.363-.047-.113-.914.391m53.773-.27a18.04 18.04 0 0 0-2.312 2.02c-1.191 1.316-1.73 1.996-1.719 2.18.008.168.02.172.078.012.273-.715 3.25-3.727 4.129-4.176.223-.113.406-.23.406-.266 0-.117-.195-.039-.582.23M92 36.777c.145.148 2.422 1.473 2.531 1.473.063 0 .258.113.434.25s.41.246.52.246.035-.086-.172-.187l-.625-.324-.437-.25-1.121-.637c-.918-.523-1.254-.695-1.129-.57m-23.18 1.965c-.121.133-.191.316-.156.406.043.105.07.086.074-.055.008-.121.063-.219.125-.219s.141-.086.184-.187c.094-.25.035-.234-.227.055m26.996.141c.043.066.395.324.785.57.82.52 1.352 1.063 2.043 2.078.613.898.738.938.199.063-.512-.84-1.598-1.922-2.441-2.43-.363-.219-.625-.344-.586-.281m-27.547.883c-.16.199-.262.43-.227.516.043.109.066.102.07-.023.008-.098.133-.309.281-.469s.25-.309.219-.336-.184.117-.344.313m-.844 1.516c-.113.223-.348.598-.527.832s-.254.391-.172.34c.176-.109.824-1.051.938-1.359.133-.363-.02-.246-.238.188m14.043.762c-.187.301-.344.602-.344.668s-.113.227-.25.352-.242.344-.234.488c.02.258.02.258.07-.008.031-.145.164-.367.297-.488s.242-.281.242-.363.172-.379.387-.668.34-.523.281-.523-.262.246-.449.543m17.797.512c-.008.129.074.34.188.461s.246.41.297.637c.09.367.102.375.113.082a1.12 1.12 0 0 0-.223-.625c-.129-.164-.266-.41-.297-.547-.062-.238-.066-.238-.078-.008m-32.996.477c-.328.531-1.676 1.863-2.336 2.305l-1.023.758c-.289.234-.711.527-.937.648l-1.285.691c-.48.258-1.043.516-1.25.57-.305.078-.324.098-.09.109.438.02 3.051-1.371 3.715-1.977.207-.187.543-.445.75-.574.926-.57 2.973-2.695 2.781-2.887-.035-.035-.184.125-.324.355m-40.566.023c-.289.445-.25.539.063.145.145-.187.234-.363.203-.398s-.152.082-.266.254m-.312.883a1.95 1.95 0 0 1-.203.688c-.098.172-.172.594-.164.938l.012.625.082-.687c.043-.379.148-.816.238-.977s.137-.437.109-.625c-.051-.332-.051-.332-.074.039m54.961.156c-.305.352-.641 1.094-.41.902.102-.082.184-.223.184-.309s.117-.301.258-.484c.289-.367.262-.453-.031-.109m19.523.164c0 .105.07.262.156.348.121.125.168 3.883.219 17.621l.063 17.461.031-17.344-.219-17.812c-.137-.254-.25-.379-.25-.273m-20.98 2.258c-.16.199-.262.43-.227.516.043.109.066.102.07-.023.008-.098.133-.309.281-.469s.25-.309.219-.336-.184.117-.344.313m-.742 1.313a32.99 32.99 0 0 1-.625 1.016c-.16.238-.27.488-.25.551s.328-.391.688-1.016.617-1.129.586-1.129-.211.262-.398.578m-19.527.484c-.105.125-.387.188-.859.188s-.863.086-1.172.25c-.711.379-6.988.379-7.828-.004-.781-.355-3.703-.367-4.156-.016-.164.129-.383.266-.484.305-.133.051-.109.074.074.078.145.008.363-.102.488-.238.203-.227.387-.25 1.898-.25 1.426 0 1.746.035 2.164.25.453.23.738.25 3.938.25s3.484-.02 3.938-.25c.313-.16.738-.25 1.172-.25.602 0 1.078-.199 1.078-.445 0-.105-.094-.055-.25.133m-15.641 1.539c-1.418 1.43-1.828 2.773-1.383 4.523l.141.563-.078-.625c-.27-2.094.082-3.137 1.508-4.469.422-.395.711-.711.641-.707s-.441.328-.828.715m34.074-.059c-.254.285-.828 1.59-.766 1.738.035.086.066.043.074-.094s.125-.391.258-.562.246-.391.246-.492c.004-.094.098-.277.211-.406s.184-.25.156-.277-.109.016-.18.094m-15.332 2.242c-.148.145-.91.57-1.914 1.07-.207.102-.523.289-.707.414s-.414.23-.512.23-.289.125-.418.281c-.238.281-.238.281.02.063.145-.121.348-.219.453-.219s.328-.102.492-.227c1.012-.773 2.395-1.059 1.465-.305a5.75 5.75 0 0 0-.469.449c-.109.125-.508.426-.887.668s-.883.621-1.125.84a9.47 9.47 0 0 1-1 .766c-.309.199-.816.594-1.125.875a13.98 13.98 0 0 1-1.25.977c-2.328 1.574-2.742 1.879-2.676 1.945.027.027.156-.043.285-.164s.523-.395.871-.613c1.086-.687 2.188-1.492 2.77-2.023a11.5 11.5 0 0 1 1.258-.969c.387-.25.777-.551.875-.668s.488-.414.867-.656.965-.684 1.305-.988.785-.637.992-.742c.457-.238.82-.652.824-.945.004-.258-.164-.281-.395-.059m14.242.406c-.352.469-.324 4.57.031 5.023.137.176.25.262.25.191s-.086-.195-.187-.281c-.293-.242-.273-4.57.02-4.898.113-.125.184-.25.156-.277s-.148.082-.27.242m-14.375.215c-.059.188-.719.289-.719.113 0-.145.215-.246.543-.258.129-.008.207.055.176.145m-4.453 1.848c-.238.199-.484.246-1.312.25-.852.004-2.535.438-1.875.484.078.008.305-.074.5-.176.238-.121.727-.187 1.434-.187.906 0 1.109-.039 1.293-.242.121-.133.344-.266.488-.297.246-.047.246-.055.02-.066-.137-.004-.383.098-.547.234m-15.391.555c0 .047.113.23.25.406s.25.277.25.227-.113-.23-.25-.406-.25-.277-.25-.227m9.688.316c-.039.066-.254.172-.477.238-.262.074-.312.117-.145.125.141.008.363-.066.5-.16s.359-.203.496-.234c.23-.059.23-.066-.023-.078-.152-.008-.309.039-.352.109M49.387 56.5c-.437.414-.867.75-.953.75s-.219.082-.305.18-.383.203-.668.23l-.523.047.516.02c.328.016.574-.043.672-.164.086-.102.238-.187.34-.187s.527-.328.953-.734.855-.762.957-.801c.164-.062.164-.07-.004-.078-.105-.008-.547.324-.984.738m-7.137-.523c0 .172 1.215 1.273 1.402 1.273.086 0-.008-.105-.215-.23s-.559-.437-.781-.691-.406-.41-.406-.352m1.859 1.527c.199.168.457.238.813.223l.516-.02-.523-.047c-.285-.027-.586-.129-.668-.23s-.215-.18-.293-.176-.008.113.156.25m1.707.379c.219.063.535.063.75 0 .313-.094.254-.109-.379-.109s-.691.016-.371.109m30.438.57c-.004.148.074.332.172.41s.211.293.258.477c.086.344.566 1.035.566.816 0-.07-.086-.195-.187-.281s-.187-.219-.187-.297c-.004-.285-.617-1.398-.621-1.125m-14.047 1.266c-.031.051.078.102.242.113s.27-.035.23-.094c-.086-.137-.395-.148-.473-.02m-11.047.594c-.281.242-.598.438-.703.438s-.227.055-.27.121c-.062.102-.516.383-1.812 1.121a7.39 7.39 0 0 1-.5.25c-.594.27-.937.504-.75.504.102 0 .328-.113.5-.246s.379-.246.461-.246c.145-.004.277-.082 1.645-.953.367-.234.723-.426.793-.426s.359-.18.645-.398c.73-.559.777-.602.629-.602-.07 0-.355.195-.637.438m11.313-.02c-.187.238-.211.246-.219.047-.004-.172-.094-.121-.391.215-.227.258-.359.527-.324.66.047.18.059.172.07-.047.016-.277.418-.527.492-.301.023.07.184-.039.355-.242s.297-.426.273-.484-.141.008-.258.152m14.793.145c.094.25.906 1.309.961 1.254.027-.031-.187-.352-.48-.719s-.508-.605-.48-.535M61.969 62.16c-.121.293-.219.699-.219.902s-.113.559-.25.785a1.79 1.79 0 0 0-.234.875l.016.465.086-.5a3.57 3.57 0 0 1 .297-.898 2.02 2.02 0 0 0 .211-.789 1.95 1.95 0 0 1 .195-.766c.105-.207.176-.43.156-.492s-.137.125-.258.418m16.504.027c.145.207.461.586.703.844s.621.738.844 1.063 1.285 1.496 2.363 2.598 2 2.145 2.055 2.313.211.473.352.672c.227.324.254.543.246 2.063-.012 2.023-.168 2.426-1.445 3.762l-.777.813.906-.871c.5-.48.906-.937.906-1.016s.105-.277.234-.441c.145-.184.262-.605.313-1.109l.09-.937c.055-.531-.199-2.051-.383-2.316-.121-.172-.262-.449-.316-.617s-.977-1.207-2.055-2.312-2.156-2.289-2.391-2.641a15.98 15.98 0 0 0-1.168-1.437c-.41-.441-.621-.633-.477-.426m-31.973.75c-.086.102-.359.195-.609.207l-.453.02.406.051a.94.94 0 0 0 .738-.207c.18-.141.27-.258.199-.258s-.195.086-.281.188m14.141.137c-.008.145-.129.363-.266.488s-.246.316-.238.426c.008.168.02.172.078.012.035-.102.176-.309.313-.457s.219-.375.188-.5c-.055-.199-.062-.195-.074.031M45 63.438c-.086.102-.246.188-.359.188s-.371.145-.578.32c-.262.223-.293.277-.102.188.152-.074.309-.191.352-.258s.164-.125.27-.125.332-.113.508-.25.262-.25.191-.25-.195.086-.281.188m13.234.824l-.297.258.309-.195c.414-.266.656-.25 1.051.059.348.277.723.285.777.02.02-.086.004-.102-.031-.031-.102.203-.41.152-.758-.121-.406-.32-.684-.316-1.051.012m-14.949.176c-.969.68-1.664 2.363-1.637 3.949l.023 1.301.07-1.375c.082-1.613.371-2.355 1.328-3.418.613-.684.648-.758.215-.457m13.746.48c-.223.223-.406.445-.406.496s.184-.086.406-.301.52-.437.656-.496l.25-.102-.25-.004c-.137-.004-.434.18-.656.406m3.922.727a1.59 1.59 0 0 0-.172.918l.051.5.023-.555c.012-.301.109-.648.219-.773s.18-.285.152-.367-.148.047-.273.277m-5.051.156c-.586.418-1.98 1.668-2.578 2.316l-.699.75c-.258.273-1.25 1.957-1.25 2.125 0 .074-.406.543-.906 1.039s-.738.766-.531.598c.539-.441 1.563-1.504 1.563-1.621 0-.746 2.836-4.012 4.398-5.062.363-.246.605-.441.539-.437s-.309.133-.535.293m14.473-.043a47.23 47.23 0 0 1-.961.742c-.355.27-.82.762-1.035 1.09-.359.547-.363.563-.043.168 1.777-2.184 3.328-2.727 4.473-1.566.703.715 1.457 1.969 1.574 2.621.082.484.086.488.102.086.02-.543-.91-2.16-1.652-2.867-.672-.637-1.84-.766-2.457-.273m-9.914 1.734c-.117.195-.211.582-.211.855 0 .289-.078.563-.187.652-.102.086-.187.219-.184.297.008.414.492-.551.492-.988.004-.277.094-.633.203-.789s.18-.309.152-.336-.148.109-.266.309m7.188 1.047c-.152.16-.273.379-.273.484s-.086.266-.187.352-.187.211-.187.281.113-.016.25-.191.25-.371.25-.437.117-.266.258-.449c.32-.406.254-.43-.109-.039m6.855.906c.008.211.363.75.363.555 0-.102-.082-.297-.184-.43s-.184-.191-.18-.125m-14.754.559c0 .277-.09.656-.199.844l-.203.34.266-.297c.234-.266.398-1.391.199-1.391-.035 0-.062.227-.062.504m-18-.023c0 .094.113.309.25.484.32.41.32.281 0-.242-.137-.227-.25-.336-.25-.242m25.137.035a.61.61 0 0 1-.199.359c-.102.086-.184.246-.176.359.008.168.02.172.078.016.035-.102.152-.281.25-.398s.156-.285.121-.375c-.047-.113-.07-.102-.074.039M42.25 71.094c0 .125 1.113 1.375 1.121 1.258 0-.047-.066-.156-.152-.25s-.34-.379-.562-.637-.406-.43-.406-.371m32.453.313c-.043.223-.023.574.039.781.094.32.113.262.121-.406.012-.863-.047-.996-.16-.375m-15.434.234c-.012.246-.133.594-.27.77-.148.188-.25.512-.254.797-.004.266-.086.59-.187.723s-.184.305-.184.375.113-.035.25-.242c.141-.215.25-.586.25-.867 0-.324.09-.586.258-.766.195-.207.246-.395.211-.758l-.051-.484-.023.453m6.953.063c-.227.535-.406 1.719-.215 1.414.063-.098.113-.379.117-.621s.09-.566.195-.723.18-.34.152-.418-.137.082-.25.348m8.676 1.402c-.016.379.051.641.227.859.137.176.25.383.25.461 0 .5 2.504 2.449 3.145 2.449.145 0 .531.098.863.215.57.203.637.203 1.203 0 .332-.121.742-.219.914-.219s.539-.141.813-.312.41-.309.297-.309a.53.53 0 0 0-.355.184c-.086.102-.359.215-.609.254a8.63 8.63 0 0 0-1.051.266c-.539.18-.645.18-1.176-.004-.324-.109-.715-.199-.871-.199-.656 0-3.047-1.82-3.047-2.324 0-.078-.109-.281-.242-.449s-.262-.555-.289-.859l-.051-.555-.02.543m-30.352.027c.191.152.445.238.609.207.254-.051.246-.059-.047-.074a.77.77 0 0 1-.484-.203c-.086-.102-.211-.187-.281-.187s.02.117.203.258m4.453-.07c-.812.422-2.164.594-3.125.395-.426-.09-.426-.09.063.098.637.242 1.285.246 1.855.008.246-.102.578-.187.734-.187s.453-.113.66-.25c.418-.277.297-.316-.187-.062m16.555.605c-.039.16-.051.512-.023.781.047.441.055.43.074-.145.012-.344.086-.695.168-.781.117-.113.117-.148.004-.148-.082 0-.18.133-.223.293m-7.293 1.145c-.008.137-.129.391-.262.563s-.246.434-.246.582-.203.441-.445.656-.395.387-.336.387c.195 0 .902-.824.902-1.051 0-.121.117-.387.258-.586s.234-.465.203-.582c-.047-.184-.059-.18-.074.031m6.938.457c-.133.191-.191.516-.176.977l.023.691.047-.687c.027-.395.133-.777.246-.906.109-.121.168-.25.129-.289s-.16.059-.27.215m-8.887 1.965c-.664.418-1.402 1.301-1.926 2.305l-.512.973v1.715c0 1.496.031 1.758.25 2.086.137.207.25.316.25.242s-.082-.242-.184-.375c-.141-.184-.184-.645-.187-1.934L54 80.555l.512-.996c.496-.961 1.512-2.184 1.813-2.184.078 0 .215-.086.301-.187.203-.246.141-.234-.312.047m8.406.219c-.332.656.188 2.547.695 2.547.066 0 .051-.078-.027-.172-.637-.77-.887-1.77-.562-2.266.109-.168.18-.355.156-.422s-.141.078-.262.313m-39.703 1.648c-.008.297.051.664.133.813s.188.469.234.711c.082.398.09.406.102.086.008-.195-.051-.477-.137-.625s-.187-.555-.23-.898l-.082-.625-.02.539m74.996.879c-.074.141-.137.328-.137.418s.086 0 .191-.199.164-.387.133-.418-.113.063-.187.199m-34.465 2.145c.004 1.547.023 1.813.082 1.063a15.81 15.81 0 0 0-.004-2.062c-.062-.832-.078-.613-.078 1m34.219-1.285c-.008.152-.215.652-.461 1.105s-.426.852-.395.879c.113.117.977-1.734.926-1.992-.051-.27-.051-.27-.07.008m-74.266.313c0 .039.195.422.438.848s.438.813.441.855c.012.234 2.645 2.77 2.879 2.77.078 0-.133-.219-.465-.48-1.098-.879-2.148-2.062-2.617-2.957-.434-.832-.676-1.203-.676-1.035m72.438 2.691c-.414.449-1.023 1.031-1.355 1.297s-.543.484-.469.484.742-.59 1.48-1.309 1.289-1.305 1.219-1.297-.461.375-.875.824m-32.789.793c-.234.371-.129.398.141.039.121-.164.176-.301.121-.301s-.172.117-.262.262m-10.77.137c-.023.375 1.613 2.352 1.945 2.352.078 0 .215.086.301.188s.219.188.297.184c.191-.004-.406-.496-.605-.496-.211 0-1.316-1.215-1.656-1.82-.148-.27-.277-.453-.281-.406m10.496.473c0 .73-2.734 2.582-3.937 2.664l-.625.043.652.023c.941.035 2.133-.605 3.211-1.723.719-.746.977-1.129.762-1.129-.035 0-.062.055-.062.121m30.516.633c-.16.137-.395.246-.523.246s-.258.047-.293.109-.547.375-1.137.707-1.043.617-1.02.645c.055.055 1.801-.922 2.09-1.168.109-.094.281-.168.383-.168s.375-.141.609-.312.371-.312.305-.309-.25.113-.414.25m-64.934.332c.145.031.367.164.488.297s.27.242.336.242.453.199.871.441.773.426.797.402c.055-.055-1.523-.969-1.676-.969-.059 0-.211-.113-.336-.25s-.344-.242-.488-.234c-.258.02-.258.02.008.07m26.68 1.336c.25.219.66.352.504.16-.094-.113-.258-.207-.363-.207s-.172.02-.141.047m-23.93.234c.043.066.32.23.621.363s.547.297.547.363.094.117.203.117c.156 0 .133-.055-.094-.227-.391-.301-1.375-.773-1.277-.617m58.477.141c-.789.414-1.16.703-.898.703.117 0 .215-.055.215-.117s.246-.23.547-.363.586-.305.633-.379.066-.133.047-.125l-.543.281m-33.527.043a2.89 2.89 0 0 0 .688 0c.188-.027.035-.051-.344-.051s-.531.023-.344.051m1.313.125a1.94 1.94 0 0 0 .563 0c.156-.031.027-.055-.281-.055s-.437.023-.281.055m-24.328.762c.453.344 1.258.789 1.32.73.066-.066-.758-.582-.93-.582-.07 0-.195-.086-.281-.187s-.211-.187-.281-.187.008.102.172.227m54.875.027c-.16.137-.359.246-.437.25-.152.004-.824.488-.68.492.113.004.957-.48 1.336-.77.164-.125.25-.227.188-.223s-.242.113-.406.25m-53.281.914c.094.113.238.207.32.207s.336.141.57.313.516.313.629.313.309.113.434.25.344.242.488.234c.258-.02.258-.02-.008-.07-.145-.031-.367-.164-.488-.297s-.316-.242-.441-.242-.297-.078-.395-.172c-.281-.285-1.312-.777-1.109-.535m50.828.457c-.125.137-.328.25-.457.25s-.344.113-.48.25-.312.25-.391.25-.477.227-.891.5-.801.5-.871.5-.262.113-.437.25c-.242.188-.27.25-.109.25.113 0 .238-.086.277-.187s.145-.187.234-.187.496-.227.906-.5.844-.5.957-.5.238-.082.277-.187.293-.242.559-.316.488-.187.488-.254.125-.176.281-.238c.184-.074.211-.117.082-.121-.109-.004-.301.105-.426.242m-47.957 1.027c.188.238 1.262.898 1.34.816.027-.027-.187-.18-.477-.34a6.49 6.49 0 0 1-.777-.492c-.23-.184-.238-.184-.086.016m1.52.957c0 .059.211.199.469.313.621.281 1.285.656 1.449.82.074.074.18.133.238.133.219 0-.043-.227-.562-.492a28.3 28.3 0 0 1-1.062-.574c-.293-.164-.531-.254-.531-.199m42.063.516c-.125.137-.324.25-.441.25s-.352.117-.512.262l-.297.266.34-.203c.188-.109.41-.199.5-.203.199-.008.965-.621.773-.621-.074 0-.238.113-.363.25m-39.687.785c.133.145 2.258 1.328 2.191 1.219-.039-.062-.504-.355-1.035-.652-.98-.547-1.27-.691-1.156-.566m37.625.348c-.309.199-.676.418-.812.48-.207.102-.215.121-.039.129.117.004.246-.051.289-.121s.359-.266.695-.437.617-.34.617-.375c0-.117-.195-.031-.75.324m-1.375.805c-.086.102-.246.188-.359.188s-.371.145-.578.324l-.375.32.395-.258c.215-.145.477-.262.574-.262s.281-.113.406-.25.195-.25.16-.25-.137.086-.223.188M46 94.965c.102.039.32.176.484.305s.359.23.434.23-.059-.141-.293-.312-.512-.309-.617-.301c-.168.008-.172.02-.008.078m1.438.789c.648.441 1.82 1.109 1.75 1-.035-.062-.492-.367-1.016-.684-.984-.59-1.391-.766-.734-.316m29.945.254c-.441.27-.75.492-.687.492.102 0 1.52-.809 1.668-.949.207-.199-.309.043-.98.457m-1.133.68c-.086.102-.238.188-.34.188s-.332.105-.516.234-.453.27-.602.316-.332.16-.41.254c-.152.18.797-.238 1.117-.496.102-.082.336-.184.516-.227s.363-.164.402-.27c.094-.238.031-.238-.168 0m-26.375.5c.234.172.508.313.609.313s.301.098.445.219c.258.219.258.219.02-.062-.129-.156-.336-.281-.453-.281s-.355-.113-.531-.25-.359-.25-.414-.25.09.141.324.313m2.164 1.199c.469.281.875.488.902.461.059-.055-1.504-.973-1.656-.973-.055 0 .285.23.754.512m21.457-.219c-.633.387-1.066.707-.957.707.055 0 .25-.105.434-.234s.535-.352.777-.496.383-.262.313-.254-.324.129-.566.277m-20.137.945c.16.145.387.262.5.262s.305.113.426.25.273.25.348.25-.031-.141-.234-.312-.437-.312-.516-.312-.293-.09-.48-.199l-.34-.203.297.266M72 99.063a.61.61 0 0 1-.359.199c-.129.004-.145.031-.047.07.086.035.301-.055.484-.195s.273-.262.203-.262-.195.086-.281.188m-.93.426c-.039.066-.434.32-.879.566s-.836.504-.875.566.379-.145.934-.457c.965-.547 1.277-.789 1.016-.789-.07 0-.156.051-.195.113m-15.91.637c.176.137.359.25.406.25s-.051-.113-.227-.25-.359-.25-.406-.25.051.113.227.25m.699.418c.094.113.238.207.32.207s.336.141.57.313.52.313.637.313.242.086.285.188.129.188.199.188.031-.113-.086-.25-.309-.25-.422-.25-.34-.105-.504-.23c-.5-.395-1.211-.73-1-.477m12.691.488c-.238.277-.234.281.012.078.137-.109.336-.234.438-.27.16-.059.156-.07-.012-.078-.109-.008-.309.113-.437.27m-.988.469c-.125.137-.168.25-.094.25s.16-.078.199-.18.195-.199.355-.23c.262-.051.266-.059.027-.074-.145-.008-.363.098-.488.234m-9.246.367c.141.059.332.195.422.305a.63.63 0 0 0 .434.199c.215-.004.188-.039-.125-.176-.215-.094-.43-.234-.477-.309s-.18-.133-.297-.129c-.168.008-.16.031.043.109m8.195.203c-.305.168-.461.305-.348.305s.406-.141.66-.312c.582-.395.41-.391-.312.008m-6.887.492c.086.102.242.188.352.188.156 0 .148-.035-.047-.184-.316-.238-.504-.242-.305-.004m2.203.344a7.71 7.71 0 0 0 1.75 0c.781-.102.699-.113-.891-.109-1.609 0-1.68.008-.859.109" fill="rgb(63.921569%,86.27451%,66.27451%)"/><path d="M60.625 21.875c-.242.133-.598.242-.793.246s-.496.117-.672.254-.402.25-.5.25-.324.113-.5.25-.426.25-.551.25-.234.059-.234.129-.238.234-.531.363-.727.379-.961.559-.484.324-.547.324-.281.141-.484.313-.477.313-.605.313-.266.055-.305.121-.312.234-.602.371a21.01 21.01 0 0 0-1.277.691L51 26.902a4.2 4.2 0 0 0-.609.375c-.164.121-.395.223-.512.223s-.316.113-.441.25-.289.25-.367.25-.273.098-.437.219c-.437.32-1.621.996-2.164 1.234-.258.117-.469.25-.469.301s-.156.133-.344.18-.422.152-.516.234c-.207.172-1.359.84-2.109 1.215-.293.148-.531.32-.531.383s-.105.109-.234.109-.375.113-.551.25-.359.25-.41.25-.387.195-.75.438-.711.438-.777.438-.258.109-.426.242a2.12 2.12 0 0 1-.633.324c-.18.043-.422.188-.543.32s-.297.238-.395.238-.328.105-.512.234a9.11 9.11 0 0 1-.895.516c-.309.156-.59.324-.625.379s-.258.184-.5.293l-.625.32a186.75 186.75 0 0 1-3.531 2.016l-.437.242c-.121.07-.359.188-.531.266a4.93 4.93 0 0 0-.5.25c-1.012.613-1.363.859-1.793 1.234-.508.445-1.832 2.34-1.832 2.617 0 .086-.113.297-.25.473a1.32 1.32 0 0 0-.25.684c0 .199-.098.543-.219.766-.207.375-.219 1.457-.219 17.648l.219 17.648c.121.223.219.539.219.711s.227.703.5 1.188.5.93.5.988c0 .293 2.742 2.777 3.066 2.777.082 0 .246.113.371.25s.348.25.5.25.375.113.5.25.281.25.344.25.633.297 1.262.664l1.457.816c.172.086.539.289.813.453a33.83 33.83 0 0 0 .938.539c1.559.859 1.957 1.094 2.102 1.238.094.09.266.164.387.164s.324.113.449.25.324.25.441.25.348.102.512.227c.305.234 1.359.848 2.984 1.742.438.238.625.344 2.125 1.203l1 .57c.102.059.328.172.5.254.723.34 2.848 1.609 2.938 1.754.043.07.164.125.27.125s.332.113.508.25.414.25.531.25.316.113.441.25.277.25.34.25.648.309 1.301.688 1.266.688 1.355.688.234.09.324.199.344.289.563.406c1.27.668 1.773.953 2.039 1.16.164.129.391.234.504.234s.301.113.422.25.32.25.449.25a.59.59 0 0 1 .387.18c.082.102.355.25.609.332s.582.23.73.328c.215.141.816.18 2.75.176h2.477l1.113-.566c.613-.312 1.207-.656 1.32-.758s.324-.191.465-.191.352-.113.477-.25.297-.25.383-.25.457-.191.824-.426l1.082-.687c.227-.145.551-.293.715-.336s.363-.152.445-.25.215-.176.301-.176.289-.105.453-.234.578-.387.922-.574l1.25-.703c.344-.199.711-.395.813-.434s.273-.121.375-.184c.469-.281 1.598-.926 1.945-1.113a9.46 9.46 0 0 0 .77-.48c.211-.152.469-.277.57-.277s.254-.082.336-.184a1.07 1.07 0 0 1 .422-.266c.148-.043.355-.148.457-.234s.441-.289.75-.453.695-.395.859-.52.398-.219.516-.219.293-.086.383-.195.332-.273.543-.375c.703-.328 1.652-.875 2.008-1.152.191-.152.426-.277.52-.277s.285-.113.422-.25.355-.25.48-.25.332-.113.457-.25.316-.25.426-.25.453-.172.762-.383.73-.461.938-.562.602-.32.875-.488.727-.418 1-.555 1.063-.59 1.75-1.004 1.336-.789 1.438-.828c1.09-.43 1.734-.891 2.875-2.039 1.23-1.238 2.004-2.477 2.195-3.516.043-.242.156-.562.254-.715.266-.418.262-34.855 0-35.23-.098-.141-.215-.477-.262-.75s-.191-.645-.324-.832-.238-.422-.238-.523c0-.547-1.641-2.48-2.648-3.121-.391-.246-.746-.508-.789-.578s-.18-.125-.305-.125-.367-.113-.543-.25-.371-.25-.434-.25-.621-.301-1.23-.668c-1.918-1.152-2.152-1.262-3.094-1.469-.574-.125-.852-.125-1.281-.012-.305.082-.68.148-.832.148-1.152 0-5.969 4.008-5.969 4.965 0 .063-.195.395-.437.73s-.437.68-.437.754-.113.238-.25.363-.25.32-.25.434-.141.395-.312.629-.312.465-.312.512-.195.391-.437.754-.437.73-.437.805-.113.242-.25.367-.25.277-.25.34-.336.695-.75 1.41-.75 1.352-.75 1.414-.086.188-.187.273-.187.238-.187.34-.113.344-.25.535-.289.609-.332.926-.152.637-.246.715c-.262.215-.25 4.641.016 4.859.102.086.188.293.188.461 0 .273.461 1.441.758 1.914.066.102.176.32.242.48s.324.531.563.824.438.59.438.66.328.484.727.922.918 1.082 1.148 1.426 1.305 1.527 2.383 2.629 2.004 2.145 2.055 2.313.195.445.316.617c.184.266.438 1.785.383 2.316-.008.07-.047.492-.09.938-.051.504-.168.926-.312 1.109-.129.164-.234.363-.234.441 0 .484-2.523 2.449-3.148 2.449-.16 0-.559.094-.891.215-.566.203-.633.203-1.203 0-.332-.117-.719-.215-.863-.215-.641 0-3.145-1.949-3.145-2.449 0-.078-.113-.285-.25-.461-.152-.191-.25-.508-.25-.797a3.88 3.88 0 0 0-.125-.914c-.086-.301-.078-.652.023-1.141.133-.641.121-.77-.125-1.34-.152-.348-.273-.781-.273-.961 0-.453-.883-1.93-1.566-2.621-.613-.621-1.926-.84-2.305-.387-.082.102-.426.359-.762.578-.57.363-2.012 2.059-2.207 2.59-.043.117-.18.348-.305.512S67 69.883 67 70a.55.55 0 0 1-.184.371c-.102.086-.219.359-.258.609a3.02 3.02 0 0 1-.254.789c-.098.184-.18.52-.18.75a1.79 1.79 0 0 1-.234.797c-.125.211-.258.703-.289 1.094s-.145.809-.254.934-.219.563-.254 1.063c-.035.465-.156.984-.266 1.152-.344.523-.18 1.168.594 2.34.309.469.336 3.883.035 4.434a20.85 20.85 0 0 0-.437.855c-.848 1.77-2.809 2.84-5.207 2.84-1.855 0-1.883-.008-3.437-.844-.574-.312-1.465-1.363-1.984-2.344l-.516-.977v-3.352l.508-.973c.574-1.098 1.434-2.059 2.18-2.437.66-.336 1.188-.84 1.188-1.137 0-.133.105-.387.234-.57a2.47 2.47 0 0 0 .324-.77 2.58 2.58 0 0 1 .266-.715c.098-.152.176-.48.176-.73a1.38 1.38 0 0 1 .25-.77 1.36 1.36 0 0 0 .25-.707c0-.215.105-.562.23-.77s.262-.672.297-1.031.152-.758.266-.883.207-.437.207-.715.109-.652.25-.867c.156-.234.25-.586.25-.937s.094-.703.25-.937a1.8 1.8 0 0 0 .25-.84c0-.258.113-.652.25-.875s.25-.586.25-.801.109-.641.246-.937c.266-.586.313-.949.148-1.207-.133-.211-.52-.059-.52.203 0 .113-.113.375-.25.582s-.25.465-.25.578-.086.273-.187.359a.62.62 0 0 0-.187.414.93.93 0 0 1-.234.516c-.129.141-.289.426-.355.633-.148.469-.437.531-.863.195-.488-.383-1.398-.09-2.27.73-.187.176-.668.535-1.059.793-1.609 1.055-4.469 4.336-4.469 5.125 0 .227-1.719 1.781-2.266 2.051-1.527.746-3.684.754-4.73.012-.172-.121-.391-.219-.492-.219-.254 0-1.762-1.598-1.762-1.867 0-.125-.125-.383-.273-.574-.469-.59-.496-3.039-.051-3.98.652-1.383 2.043-2.828 2.719-2.828.082 0 .246-.09.367-.199s.461-.227.762-.266.625-.137.727-.223a1.76 1.76 0 0 1 .5-.254c.172-.051.445-.199.609-.324s.371-.234.461-.234c.16 0 .285-.074 1.66-.949.367-.234.73-.426.805-.426s.281-.137.457-.305.551-.434.832-.594c.918-.52 1.707-1.031 2.102-1.363.215-.18.637-.48.941-.672s.809-.582 1.125-.867.824-.684 1.133-.887a11.27 11.27 0 0 0 1.07-.82c.281-.25.758-.602 1.063-.781a5 5 0 0 0 .91-.707c.195-.207.402-.379.461-.379s.141-.109.18-.242c.047-.141.215-.258.406-.281.18-.023.352-.109.379-.195.074-.219-.41-.195-.637.031-.105.102-.246.188-.32.188-.176 0-1.129.492-1.496.773-.164.125-.383.227-.48.227s-.324.113-.5.25-.414.25-.531.25-.316.113-.441.25c-.191.211-.387.25-1.281.25-.648 0-1.207.07-1.449.18-.219.098-.922.199-1.582.223-.801.031-1.289.113-1.5.246-.172.105-.504.23-.742.273-.289.055-.676.32-1.207.828-.43.414-.863.75-.961.75s-.246.078-.324.172c-.125.145-1.199.344-1.953.355-.66.008-1.953-.254-2.164-.441-.125-.117-.301-.211-.383-.211-.203 0-1.391-1.121-1.391-1.312 0-.086-.113-.297-.25-.473-.754-.957-.695-3.461.109-4.625.449-.656 1.535-1.664 1.918-1.785.156-.047.418-.195.582-.32.453-.355 3.371-.344 4.156.012.84.383 7.117.383 7.828.004.309-.164.703-.25 1.172-.25s.754-.062.855-.184c.086-.102.359-.223.609-.27s.879-.312 1.395-.59l1.348-.719c.227-.117.648-.41.938-.645s.75-.574 1.02-.758c.754-.504 1.895-1.664 2.531-2.574.742-1.062 1.539-2.379 1.539-2.539 0-.066.141-.293.313-.496s.313-.473.313-.598a.6.6 0 0 1 .195-.387c.109-.09.313-.391.457-.672s.363-.641.488-.805.234-.391.234-.504.113-.301.25-.422.25-.305.25-.422.129-.379.285-.594a7.29 7.29 0 0 0 .531-.887c.133-.273.297-.574.363-.668.234-.328.82-1.918.82-2.223 0-.168.094-.488.211-.711.316-.59.266-2.836-.082-3.598-.137-.301-.25-.629-.25-.727-.004-.281-.887-1.277-1.305-1.469-.215-.098-.781-.43-1.262-.734s-.961-.59-1.062-.629c-.328-.129-.672-.309-1.187-.613-.883-.523-1.77-.941-1.984-.941-.117 0-.434-.113-.703-.25-.707-.359-3.59-.359-4.25 0m3.969.125c.254.137.605.25.781.25s.48.113.688.25.473.25.594.25.219.051.219.113.215.195.477.301.551.277.641.387a.57.57 0 0 0 .371.199c.113 0 .344.098.508.219a19.61 19.61 0 0 0 2.074 1.199c.555.254 1.148 1.031 1.367 1.789.105.359.246.691.313.73.203.125.148 2.707-.062 2.984-.098.133-.215.496-.258.813a5.05 5.05 0 0 1-.328 1.141c-.469 1.066-1.164 2.383-1.383 2.625a.87.87 0 0 0-.219.488c0 .137-.051.277-.109.316-.125.074-1.098 1.719-2.48 4.195-.727 1.301-1.02 1.766-1.605 2.563-.797 1.082-1.629 1.934-2.238 2.293-.258.152-.727.492-1.047.758s-.699.52-.848.563-.363.191-.488.328-.32.246-.437.246a.57.57 0 0 0-.371.188c-.086.102-.23.188-.324.188s-.355.113-.578.25-.527.25-.676.25-.406.113-.582.25c-.23.184-.508.25-1.023.25-.434 0-.855.082-1.105.219-.586.32-6.766.316-7.508-.008-.836-.363-3.891-.305-4.637.094-1.375.73-2.672 2.117-2.785 2.973-.035.293-.145.645-.238.781-.223.328-.215 1.332.016 1.637.102.133.184.449.188.703s.063.496.129.539.238.293.371.555c1.344 2.637 5.516 3.016 7.75.707.418-.434.648-.574.938-.574.207 0 .547-.113.754-.25.305-.199.59-.25 1.5-.25.848-.004 1.258-.066 1.672-.254.402-.184.813-.246 1.594-.246.809 0 1.07-.043 1.125-.18.039-.102.258-.246.484-.32s.484-.219.566-.32a.62.62 0 0 1 .41-.18c.141 0 .383-.121.539-.266.387-.359.824-.234.484.141-.121.133-.34.281-.484.324-.262.078-1.477 1.02-1.559 1.203-.02.051-.219.18-.437.285s-.848.582-1.395 1.063-1.047.875-1.109.875-.398.227-.75.508c-.672.531-1.535 1.109-2.383 1.59-.273.156-.613.391-.754.52s-.449.324-.691.43a7.16 7.16 0 0 0-.687.355l-.793.508c-.297.188-.719.426-.937.527a11.6 11.6 0 0 0-.582.289c-.574.332-1.348.648-1.578.648-.727 0-2.793 1.355-3.223 2.117-.074.133-.32.555-.543.934-1.496 2.555.418 6.973 3.246 7.496.254.047.621.168.813.27.441.23 1.324.234 1.766.008.188-.098.563-.219.836-.27.867-.16 2.703-1.621 3.051-2.43.074-.172.246-.48.383-.687s.344-.57.461-.812c.266-.539 2.574-2.863 3.301-3.32.605-.383.707-.461 1.34-1.031.254-.23.629-.496.836-.594a4.51 4.51 0 0 0 .59-.328c.176-.129.277-.109.586.121.594.438 1.262.316 1.262-.23 0-.113.113-.352.25-.527s.25-.43.25-.57.051-.285.113-.324.238-.324.387-.633.32-.562.379-.562.121-.156.145-.344c.027-.254.063-.289.121-.141.051.113-.047.488-.219.855-.164.359-.301.816-.301 1.016s-.113.574-.25.832a2.46 2.46 0 0 0-.25 1.008c0 .313-.078.621-.187.73-.102.102-.187.402-.187.672s-.133.734-.312 1.07c-.172.324-.312.789-.316 1.039s-.086.559-.187.691-.184.473-.184.75a1.78 1.78 0 0 1-.25.883 1.77 1.77 0 0 0-.25.828 1.38 1.38 0 0 1-.25.77c-.148.188-.25.508-.25.777s-.102.59-.25.777c-.137.176-.25.438-.25.586s-.113.477-.25.73-.25.57-.25.695c0 .277-.367.617-1.125 1.055-.641.371-1.746 1.473-2.035 2.031-.77 1.496-.75 1.398-.75 3.262-.004 1.371.039 1.84.195 2.125a23.49 23.49 0 0 1 .473.945c.387.82 1.508 1.863 2.668 2.48l.992.527h1.707c1.602 0 1.746-.02 2.32-.324.34-.18.684-.328.766-.328.262 0 2.289-2.016 2.371-2.359.043-.18.168-.43.277-.559.516-.594.504-4.473-.02-5.051-.117-.133-.215-.324-.215-.43s-.113-.336-.25-.512c-.312-.395-.312-.555 0-1.027.184-.273.25-.586.25-1.168 0-.602.059-.867.25-1.109.172-.223.25-.508.25-.937s.078-.719.25-.937c.145-.187.25-.508.25-.773 0-.25.078-.57.176-.707s.219-.477.266-.75.16-.578.246-.68.223-.395.305-.645.227-.527.328-.609.18-.23.18-.324c0-.82 2.793-3.297 3.723-3.297 1.004 0 2.777 2.172 2.777 3.398 0 .199.09.539.203.758.176.34.184.496.047 1.211s-.125.887.047 1.305c.113.266.203.699.203.961s.059.512.125.555.203.258.297.477c.398.938 2.402 2.582 3.156 2.59.195.004.5.086.672.184.418.238 1.633.242 1.945.004.133-.102.398-.184.59-.187.84-.008 2.867-1.605 3.289-2.59.094-.219.23-.434.301-.477s.125-.312.125-.598.09-.758.203-1.047c.184-.488.184-.574 0-1.121-.113-.324-.203-.789-.203-1.027s-.098-.543-.215-.676a2.04 2.04 0 0 1-.344-.602c-.07-.199-.977-1.223-2.016-2.273s-2.031-2.137-2.211-2.422-.625-.844-.996-1.25-.883-1.043-1.133-1.422l-1.082-1.625a2.53 2.53 0 0 1-.305-.687c-.051-.207-.168-.461-.254-.562s-.191-.43-.23-.727-.156-.641-.266-.762c-.289-.32-.293-4.074-.008-4.395.109-.117.223-.43.258-.695.078-.598.367-1.246 1.188-2.672l.711-1.25.609-1.062a13.15 13.15 0 0 0 .402-.75c.063-.137.316-.551.563-.918s.453-.727.453-.793.113-.266.25-.441.25-.402.25-.504.141-.352.313-.555.313-.445.313-.539.043-.184.094-.207c.113-.051.781-1.062.781-1.184 0-.883 4.621-4.672 5.699-4.672.199 0 .578-.062.844-.137.559-.152 2.141.066 2.465.344.109.094.234.168.277.168.063 0 1.121.613 1.965 1.141.102.063.426.227.715.367s.559.305.602.371.207.121.371.121.344.074.398.164.5.422.984.742c.695.461 1.031.793 1.555 1.559.367.535.715.992.77 1.016s.105.168.105.324.113.41.25.57a1.23 1.23 0 0 1 .25.688c0 .219.098.59.219.824.367.715.398 34.125.031 34.953-.137.313-.25.695-.25.848 0 1.305-2.437 4.199-4.312 5.117-.414.203-.883.469-1.047.594s-.379.227-.477.227-.328.105-.512.234c-.902.621-1.773 1.141-1.906 1.141-.082 0-.316.141-.52.313s-.48.313-.613.313-.277.086-.316.188-.145.188-.227.188-.504.227-.93.5-.852.5-.949.5-.215.063-.262.137-.328.238-.633.371-.547.293-.547.363-.105.129-.234.129-.367.102-.531.23a3.44 3.44 0 0 1-.484.313c-.102.047-.414.223-.687.395s-.676.391-.891.488-.43.234-.477.313-.191.137-.316.137-.395.133-.59.293-.41.316-.48.344-.547.293-1.062.586l-1.121.637-.562.305-.75.398c-.207.109-.543.305-.75.438a8.42 8.42 0 0 1-.781.43c-.227.102-.441.27-.484.379s-.176.191-.305.191c-.223 0-1.246.492-1.555.75-.082.07-.414.266-.73.438l-1.176.641-1.031.566c-.492.262-.625.344-1.695 1.008-.418.262-.816.473-.887.473s-.23.113-.355.25-.316.254-.426.258-.48.172-.824.375-.766.422-.937.492a2.97 2.97 0 0 0-.5.25c-.469.313-.867.355-3.16.336-2.059-.02-2.473-.055-2.672-.227-.125-.113-.41-.246-.629-.289s-.465-.168-.547-.266-.199-.18-.266-.18-.652-.309-1.305-.687-1.219-.687-1.254-.687-.242-.141-.469-.312-.504-.312-.617-.312-.305-.113-.422-.25-.285-.25-.371-.25-.508-.223-.941-.5-.855-.5-.941-.5S52 98.07 52 98.004s-.156-.16-.344-.207-.504-.219-.695-.379-.457-.293-.582-.293a.58.58 0 0 1-.379-.187c-.086-.102-.219-.187-.297-.187s-.449-.211-.828-.469-1.008-.633-1.402-.828-.777-.43-.859-.527-.223-.176-.32-.176c-.191 0-2.137-1.102-2.242-1.27-.035-.059-.152-.105-.254-.105s-.371-.141-.598-.312-.496-.312-.598-.312-.289-.113-.414-.25-.305-.25-.398-.25-.465-.195-.824-.437-.695-.437-.758-.437-.246-.113-.422-.25-.414-.25-.531-.25-.312-.109-.434-.242a1.28 1.28 0 0 0-.574-.32c-.191-.043-.383-.16-.418-.258s-.164-.18-.281-.18-.305-.078-.414-.176c-.203-.187-1.555-.949-2.195-1.238-.207-.094-.453-.266-.547-.379s-.254-.207-.352-.207-.477-.191-.832-.43-.801-.488-.988-.559-.344-.187-.344-.258-.133-.129-.293-.129-.449-.141-.633-.312-.426-.312-.531-.312-.332-.113-.508-.25-.395-.25-.488-.25-.172-.051-.172-.117-.102-.148-.227-.187c-.828-.262-3.25-3.437-3.266-4.289-.004-.152-.121-.574-.258-.937-.391-1.023-.387-34.215.004-35.078.137-.297.246-.691.246-.875a1.21 1.21 0 0 1 .172-.582c.094-.137.211-.375.258-.531.273-.879 1.754-2.664 2.527-3.051.297-.148.664-.398.813-.559s.348-.293.438-.293c.211 0 1.594-.746 1.648-.891.023-.059.129-.109.238-.109s.695-.309 1.305-.687 1.184-.687 1.281-.687.266-.086.371-.191.387-.273.625-.375.465-.23.504-.293.363-.266.727-.453.746-.418.852-.516.27-.172.355-.172.301-.113.477-.25.414-.25.531-.25.316-.113.441-.25.273-.25.336-.25c.086 0 2.211-1.168 2.977-1.637.102-.062.328-.184.5-.262s.402-.227.516-.316c.227-.191 1.273-.77 2.063-1.145.285-.133.559-.305.602-.379s.188-.137.309-.137.348-.105.496-.234a2.58 2.58 0 0 1 .645-.391c.203-.086.371-.203.371-.266s.07-.109.16-.109.492-.223.906-.496.84-.5.957-.5.246-.059.289-.129.285-.23.539-.359c.742-.375 1.957-1.055 2.023-1.133.035-.039.258-.168.5-.289a6.21 6.21 0 0 0 .625-.344c.102-.07.328-.18.5-.25s.422-.195.559-.281l.977-.625c.402-.258.809-.469.902-.469s.211-.062.258-.141.332-.246.633-.379.547-.297.547-.363.117-.117.262-.117.402-.113.578-.25.48-.25.676-.25.57-.113.828-.25c.387-.207.703-.25 1.875-.25s1.484.043 1.875.25m-2.398 37.863c-.039.063-.023.242.035.395l.102.281.207-.293c.16-.227.172-.32.055-.395-.207-.129-.312-.125-.398.012" fill="rgb(70.588235%,89.411765%,73.72549%)"/><path d="M60.441 21.617c-.27.141-.645.258-.828.258s-.398.082-.48.18-.316.215-.523.262-.437.188-.52.32a.53.53 0 0 1-.383.238c-.125 0-.371.113-.547.25s-.418.25-.535.25-.285.078-.367.176c-.176.215-1.715 1.133-2.086 1.25-.293.09-.785.574-.582.574.07 0 .199-.086.285-.187A.57.57 0 0 1 54.25 25c.121 0 .297-.094.391-.207s.34-.285.547-.379a7.16 7.16 0 0 0 .75-.414 7.16 7.16 0 0 1 .75-.414c.207-.094.453-.266.547-.379s.301-.207.461-.207.328-.062.375-.137.324-.238.617-.363.574-.289.617-.363.238-.137.422-.137.504-.094.711-.207c.574-.316 3.43-.391 4.188-.109.309.117.758.254 1 .309.363.078 1.441.625 2.25 1.141a10.35 10.35 0 0 0 .688.367l.688.363a2.43 2.43 0 0 0 .375.191c.102.043.441.242.75.445l.824.488c.336.148 1.297 1.266 1.305 1.512.004.102.113.414.246.688.352.73.352 3.043 0 3.938-.137.348-.25.793-.25.988s-.078.422-.176.5-.207.336-.254.566a2.07 2.07 0 0 1-.301.715c-.125.16-.352.555-.504.875s-.355.648-.453.73-.207.301-.25.5-.16.387-.258.422-.18.172-.18.301-.141.418-.312.652-.312.473-.312.531c0 .109-.5.859-.645.969-.047.035-.125.219-.172.402s-.16.402-.254.48-.348.504-.566.953-.586 1.059-.816 1.363-.422.586-.422.629c0 .34-1.961 2.332-2.812 2.859-.207.129-.543.387-.75.574-.695.633-3.273 1.988-3.781 1.988-.195 0-.445.109-.566.25-.164.195-.367.25-.906.25-.445 0-.867.09-1.184.25-.453.23-.738.25-3.937.25s-3.484-.02-3.937-.25c-.734-.375-3.723-.375-4.062 0-.125.137-.352.25-.504.25-.656 0-2.434 2.129-2.434 2.918 0 .172-.062.473-.137.668-.145.367.031 1.832.277 2.352.527 1.094 1.156 1.828 1.785 2.074a2.66 2.66 0 0 1 .578.316c.234.199 2.445.367 2.828.215.176-.066-.23-.109-1.145-.117-1.098-.012-1.461-.059-1.609-.207-.109-.105-.449-.316-.762-.465s-.66-.441-.781-.641-.258-.363-.312-.363-.098-.094-.098-.211a.77.77 0 0 0-.164-.406c-.512-.605-.469-3.211.063-4.195.297-.543 1.656-1.812 1.941-1.812.137 0 .375-.113.535-.25.254-.219.469-.25 1.801-.25 1.277 0 1.59.039 1.98.25.668.359 7.813.391 8.164.035.145-.145.484-.23 1.039-.266s.926-.129 1.125-.285c.164-.129.449-.234.629-.234s.441-.078.578-.172a2.46 2.46 0 0 1 .539-.262c.406-.125 1.84-1.023 2.52-1.574.309-.25.637-.48.727-.508.465-.148 2.52-2.215 2.941-2.957.078-.141.328-.516.551-.836s.406-.633.406-.703.121-.305.273-.523c.648-.957.727-1.09.727-1.258 0-.098.086-.246.188-.332s.188-.223.188-.305.141-.285.313-.445.313-.426.313-.59.082-.324.18-.363.215-.227.258-.418a1.28 1.28 0 0 1 .32-.574c.133-.121.242-.316.242-.441s.082-.301.18-.402c.156-.156.48-.707 1.152-1.961.09-.172.168-.402.168-.516s.086-.273.188-.359.188-.32.188-.52.121-.605.27-.895c.453-.879.484-3.32.051-4.125-.176-.328-.32-.703-.32-.832 0-.348-1.23-1.559-1.887-1.855-.316-.145-.645-.348-.734-.453s-.258-.195-.375-.195-.316-.113-.441-.25-.324-.25-.441-.25-.355-.113-.531-.25-.383-.25-.465-.25-.32-.141-.523-.312-.445-.312-.535-.312-.23-.086-.316-.187-.355-.187-.598-.187c-.25 0-.551-.098-.687-.219-.398-.363-3.969-.391-4.648-.039m-7.566 3.859c0 .055-.238.223-.531.375l-.906.523a4.17 4.17 0 0 1-.562.32 2.43 2.43 0 0 0-.375.191c-.102.066-.383.207-.625.316s-.484.277-.539.371-.187.176-.297.176c-.234 0-1.586.871-1.492.961.031.035.367-.141.738-.387s.734-.449.801-.449.227-.113.352-.25.352-.25.504-.25.352-.086.441-.195.332-.273.543-.371c.582-.27 1.73-.922 1.945-1.109a1.39 1.39 0 0 1 .379-.234c.125-.047.09-.074-.094-.078-.156-.008-.281.035-.281.09m-5.988 3.449c-.082.098-.285.211-.457.254s-.422.188-.559.324-.359.246-.5.246-.285.078-.32.176-.211.211-.383.254c-.328.086-1.324.691-1.398.852-.023.051-.141.094-.262.094s-.348.113-.508.25-.391.25-.512.25-.297.105-.387.23-.305.277-.477.332c-.27.086-.961.477-1.82 1.031a5.21 5.21 0 0 1-.555.297 4.93 4.93 0 0 0-.5.25c-.102.063-.383.203-.625.313s-.484.277-.539.371-.176.176-.27.176c-.215 0-1.559.781-1.562.906-.004.051.082.094.184.094s.188-.051.188-.117.156-.191.344-.289c.52-.262.934-.508 1.266-.75.164-.121.395-.219.512-.219s.316-.113.441-.25.324-.25.441-.25.355-.113.531-.25.363-.25.422-.25.402-.199.762-.441l.938-.566a9.19 9.19 0 0 0 .781-.434c.273-.168.695-.398.938-.508s.68-.367.977-.566.582-.359.637-.359.238-.105.402-.234a2.47 2.47 0 0 1 .602-.328c.172-.051.387-.172.48-.266s.238-.172.324-.172.344-.141.578-.312c.254-.187.344-.312.227-.312-.109 0-.262.078-.34.176m-12.215 6.887c-.043.102-.199.188-.352.188s-.41.141-.57.313-.395.313-.516.313-.25.047-.285.105-.441.301-.898.531-.859.496-.891.582-.195.156-.363.156-.395.113-.512.25-.336.25-.484.25-.34.082-.422.184-.414.332-.734.52c-.703.406-1.77 1.449-2.094 2.047a6.27 6.27 0 0 1-.52.789c-.156.195-.281.457-.281.582s-.082.293-.184.375-.219.359-.262.609a4.25 4.25 0 0 1-.285.895c-.312.66-.383 34.438-.074 35.273a9.28 9.28 0 0 1 .305 1.039c.297 1.398 2.785 4.473 4.047 5.004.242.098.469.234.508.297s.238.152.438.199.43.152.504.246.461.328.852.523.789.426.879.512.238.156.324.156.262.113.387.25.324.25.441.25.355.113.531.25.398.25.5.25.258.086.344.195.477.344.859.527.746.406.801.496.172.156.262.156.371.141.625.313.543.313.641.313.297.113.434.25.355.25.48.25.32.098.43.219.414.328.676.465.652.375.863.531.473.285.578.285.258.078.336.176.289.211.465.254a1.53 1.53 0 0 1 .563.309c.133.121.547.375.918.555s.711.391.754.457.18.125.301.125.324.113.449.25.344.25.492.25.359.113.48.25.309.25.426.25.328.109.469.242.539.387.883.566a32.03 32.03 0 0 1 1.125.629c.273.164.641.367.813.445a7.39 7.39 0 0 1 .5.25c1.297.738 1.75 1.02 1.813 1.121.043.066.215.121.383.121s.305.059.305.129.246.234.547.363.59.297.633.371.164.137.266.137.5.227.898.5.781.5.859.5.211.086.297.188.242.188.344.188c.223 0-.273-.422-.734-.625a5.38 5.38 0 0 1-.672-.379c-.207-.137-.57-.336-.812-.449s-.484-.277-.539-.371-.199-.176-.324-.176-.371-.113-.547-.25-.352-.25-.395-.25-.512-.258-1.043-.57c-1.168-.687-1.254-.738-1.652-.922-.172-.078-.594-.309-.937-.512l-1.23-.715-1.187-.68a20.36 20.36 0 0 0-.832-.457 31.46 31.46 0 0 1-1.375-.77c-.617-.359-1.238-.703-1.375-.766a9.7 9.7 0 0 1-.75-.422c-.273-.168-.695-.395-.937-.508s-.465-.242-.5-.289-.332-.219-.664-.391-.691-.41-.801-.531a.73.73 0 0 0-.473-.219c-.152 0-.375-.113-.5-.25s-.312-.25-.418-.25-.395-.129-.637-.285c-.578-.367-.816-.508-1.57-.914a8.1 8.1 0 0 1-.922-.566c-.164-.129-.406-.234-.531-.234s-.234-.055-.234-.117-.238-.238-.531-.379-.867-.453-1.281-.699-.922-.52-1.137-.617-.457-.262-.543-.367-.262-.195-.383-.195-.352-.105-.516-.234-.496-.32-.738-.426c-.68-.293-2.66-2.344-3.133-3.25l-.57-1.09c-.094-.172-.168-.453-.172-.625a1.59 1.59 0 0 0-.184-.625c-.262-.457-.277-34.832-.016-35.352.09-.184.199-.547.242-.805a2.32 2.32 0 0 1 .328-.832c.141-.199.258-.418.258-.484 0-.559 1.879-2.762 2.711-3.176.297-.148.633-.375.746-.5s.289-.227.387-.227.32-.113.496-.25.406-.25.512-.25.281-.074.391-.168c.27-.23 1.934-1.168 2.25-1.266.141-.047.258-.129.258-.184s.184-.176.406-.266c.57-.227 1.07-.617.793-.617-.113 0-.238.086-.277.188m54.031 0a2.06 2.06 0 0 1-.801.188 1.45 1.45 0 0 0-.852.313c-.227.172-.465.313-.535.313-.164 0-.902.5-1.527 1.031a14.14 14.14 0 0 1-.797.629c-.172.125-.629.629-1.02 1.125s-.812 1-.949 1.117-.227.273-.203.34.379-.285.793-.777c3.043-3.637 6.828-5.211 8.727-3.633.195.16.398.293.453.293s.543.258 1.086.57l1.203.688c.121.063.316.176.438.242s.445.242.719.379c1.813.902 3.938 3.047 3.938 3.969 0 .098.113.316.25.492s.25.465.25.648.113.539.25.793c.387.723.387 34.734 0 35.531-.133.273-.242.629-.246.785-.016 1.02-2.598 4.227-3.895 4.836-.234.105-.59.289-.797.402l-.562.305c-.32.172-2.047 1.164-2.312 1.324-.137.086-.488.27-.781.414s-.531.313-.531.379-.105.117-.234.117-.367.105-.531.234-.594.387-.953.574-.687.391-.723.445-.234.141-.445.188-.41.16-.445.258-.281.23-.543.301-.508.211-.547.313-.164.188-.277.188-.543.227-.957.5-.82.5-.906.5-.191.086-.234.188-.172.188-.293.188c-.242 0-1.062.613-.832.621.078.004.211-.082.297-.184s.238-.187.34-.187.355-.141.559-.312.457-.312.563-.312.395-.164.645-.359.668-.449.926-.559.469-.254.469-.324.137-.133.305-.133.344-.062.391-.137.328-.238.633-.371.547-.293.547-.363.094-.129.207-.129.559-.227.996-.5.852-.5.922-.5.164-.082.203-.184.262-.219.496-.266.426-.129.426-.195.238-.227.531-.367c.859-.406 1.859-.965 2.078-1.16.113-.102.355-.223.539-.266s.359-.156.395-.242.227-.191.434-.234c.25-.051.793-.492 1.668-1.359 1.223-1.219 1.492-1.535 1.691-1.977.047-.102.215-.398.375-.652s.289-.637.289-.844.113-.559.25-.781c.391-.645.391-35.195 0-35.785-.137-.207-.25-.582-.25-.836s-.055-.496-.121-.535-.238-.312-.379-.602c-.719-1.473-1.715-2.648-2.77-3.262-.32-.187-.652-.422-.734-.52s-.277-.184-.43-.184-.379-.113-.504-.25-.352-.25-.508-.25-.305-.07-.34-.156-.434-.348-.887-.578-.828-.473-.828-.531-.133-.109-.289-.109-.426-.141-.586-.312c-.172-.184-.434-.312-.633-.312-.187 0-.5-.086-.695-.187s-.555-.187-.797-.187-.598.086-.797.188m-7.234 5.93c-.258.344-.469.688-.469.766s-.113.281-.25.457-.25.418-.25.535a.56.56 0 0 1-.18.371c-.102.082-.309.41-.461.734a3.98 3.98 0 0 1-.57.879c-.156.164-.289.395-.289.512s-.113.316-.25.441-.25.313-.25.414-.078.281-.172.391-.328.488-.512.844-.414.715-.512.797-.18.277-.18.438a.62.62 0 0 1-.234.453c-.129.09-.27.344-.32.563s-.168.465-.266.547-.18.367-.18.656c0 .355-.086.598-.281.805-.516.551-.484 4.695.035 5.258.156.168.246.438.246.754 0 .281.078.555.188.645.102.086.188.25.188.359s.141.414.313.668.313.516.313.586.074.168.164.223.293.328.457.602c.293.496 1.395 1.875 1.711 2.141.094.074.168.199.168.281s.051.141.117.141.148.105.191.234.863 1.039 1.832 2.031c1.934 1.973 2.609 2.746 2.609 2.973 0 .082.117.305.262.5.391.531.391 3.492 0 4.023-.145.195-.262.445-.262.555 0 .293-1.551 1.809-1.848 1.809a.6.6 0 0 0-.402.188c-.086.102-.309.188-.492.188s-.629.086-.984.191c-.582.176-.715.176-1.297 0-.355-.105-.797-.191-.984-.191s-.406-.086-.492-.187a.61.61 0 0 0-.41-.187c-.301 0-1.84-1.504-1.84-1.805 0-.113-.121-.367-.27-.57-.242-.328-.27-.531-.281-2.16-.016-1.477-.055-1.855-.234-2.125-.117-.184-.215-.531-.215-.777a1.65 1.65 0 0 0-.23-.785l-.562-.84c-1.129-1.703-2.555-2.352-3.375-1.531a2.51 2.51 0 0 1-.625.438c-.449.203-1.582 1.27-1.582 1.484 0 .094-.051.172-.117.172s-.156.125-.203.277-.223.379-.383.508-.297.336-.297.457a.58.58 0 0 1-.187.383.6.6 0 0 0-.18.422l.008.266.109-.27c.059-.148.168-.305.242-.352s.133-.184.133-.309.09-.301.199-.395.426-.492.695-.891a6.09 6.09 0 0 1 1.145-1.219l.98-.75c.645-.492 1.762-.363 2.438.277.719.688 1.668 2.32 1.668 2.871 0 .23.09.547.199.703.156.223.207.684.23 2.141.031 1.68.059 1.887.301 2.195.148.188.27.406.27.484 0 .504 2.391 2.324 3.047 2.324.156 0 .547.09.871.199.531.184.637.184 1.176.004a8.63 8.63 0 0 1 1.051-.266c.25-.039.523-.152.609-.254a.54.54 0 0 1 .359-.184c.305 0 1.703-1.469 2.082-2.187.457-.867.516-3.785.094-4.387-.141-.199-.301-.5-.352-.672s-.977-1.207-2.055-2.312-2.141-2.27-2.363-2.598-.602-.801-.848-1.062c-.383-.41-1.512-1.937-1.855-2.516-.066-.113-.219-.352-.336-.535s-.254-.473-.301-.648-.156-.387-.254-.469-.176-.355-.176-.613c0-.277-.102-.594-.25-.785-.23-.289-.25-.508-.25-2.527s.02-2.238.25-2.527c.137-.176.25-.488.25-.695 0-.383.543-1.637.84-1.941.09-.094.16-.242.16-.336 0-.168.07-.289.949-1.668.234-.367.426-.738.426-.824s.109-.258.246-.379a1.34 1.34 0 0 0 .324-.469c.043-.137.234-.48.426-.766s.383-.637.43-.785.191-.363.328-.488.246-.348.246-.5.082-.348.18-.43.297-.387.438-.676.375-.656.516-.809.242-.336.219-.402-.254.156-.508.5M61.547 51.93c-.039.105-.172.195-.293.195s-.355.105-.52.234-.594.387-.953.574-.687.391-.723.445-.223.137-.422.18-.461.191-.582.324-.348.242-.504.242-.34.094-.406.211c-.098.176-.344.219-1.34.246-.914.027-1.355.098-1.762.289s-.797.254-1.543.254c-.762 0-1.113.059-1.469.25-.254.137-.59.25-.742.25-.176 0-.504.242-.875.637-.328.352-.84.754-1.133.891s-.566.301-.602.363c-.117.188.281.121.445-.078.086-.102.227-.187.313-.187s.484-.316.891-.703c.539-.516.898-.746 1.348-.867.336-.094.672-.227.742-.297s.621-.133 1.219-.133c.816 0 1.223-.062 1.629-.246.398-.18.82-.25 1.563-.25.82-.004 1.074-.051 1.332-.254.176-.137.426-.25.559-.25s.344-.113.469-.25.309-.25.406-.25.328-.105.512-.23.5-.312.707-.414c1.004-.5 1.766-.926 1.914-1.07.23-.223.398-.199.395.059-.004.293-.367.707-.824.945-.207.105-.652.441-.992.742s-.926.75-1.305.988-.766.535-.867.656-.488.418-.875.664-.898.645-1.148.879c-.574.539-2.094 1.656-2.941 2.16-.355.211-.715.465-.797.566s-.207.18-.277.18c-.156 0-1.371.887-1.309.953.055.055 1.719-1.016 1.832-1.176.039-.059.242-.176.457-.262s.559-.312.77-.504.656-.52.988-.723.914-.664 1.293-1.02.73-.645.785-.645c.152 0 .855-.52 1.293-.957.215-.215.582-.48.813-.594s.695-.453 1.027-.762.629-.562.656-.562c.414 0 1.699-1.211 1.648-1.555-.043-.324-.684-.437-.801-.141M62 59.688c-.07.18-.125.398-.125.48s-.113.246-.25.367c-.145.121-.25.367-.25.574s-.082.395-.187.438-.184.199-.18.355c.008.285.008.285.117.016.059-.148.168-.305.242-.352s.133-.207.133-.363.137-.414.305-.57.324-.437.344-.617c.027-.23.113-.328.289-.328.355 0 .402.566.07.871-.187.168-.258.387-.262.805-.004.316-.086.715-.184.887s-.18.496-.184.723-.109.621-.234.875-.27.742-.316 1.082-.164.707-.266.82c-.109.121-.18.414-.168.695l.02.492.055-.434a2.04 2.04 0 0 1 .289-.77c.141-.191.242-.543.242-.82 0-.266.082-.602.184-.746s.219-.508.262-.809.164-.738.27-.973.219-.652.254-.937.145-.605.242-.719c.332-.383.168-1.285-.242-1.332-.273-.031-.367.027-.469.289m-12.312 1.625c-1.141.754-1.453.938-1.602.941-.082 0-.289.113-.461.246s-.402.246-.516.246-.344.117-.52.254a1.38 1.38 0 0 1-.75.25 1.39 1.39 0 0 0-.75.25c-.176.137-.375.25-.445.25-.582 0-1.988 1.441-2.531 2.59-.461.984-.539 3.184-.133 3.848a3.13 3.13 0 0 1 .309.688c.109.418 1.441 1.824 1.836 1.938a1.66 1.66 0 0 1 .5.246c.781.645 3.086.605 4.574-.074.93-.422 2.961-2.734 2.402-2.734-.062 0-.203.211-.309.469-.203.488-1.625 2.023-1.875 2.027-.082.004-.309.086-.5.184-.629.32-2.07.5-2.711.34-.312-.082-.734-.145-.934-.145s-.437-.086-.523-.187-.273-.187-.422-.187c-.359 0-1.953-1.68-1.953-2.062 0-.156-.086-.352-.187-.437-.148-.125-.187-.496-.187-1.836 0-1.328.039-1.723.188-1.871.102-.102.188-.285.188-.406s.141-.352.313-.512.316-.355.32-.43.227-.301.496-.508l.766-.594c.148-.121.359-.219.469-.223s.34-.113.512-.246.508-.246.762-.246c.289-.004.531-.094.676-.254.125-.137.348-.25.496-.25s.391-.113.539-.25.371-.25.504-.25.336-.113.461-.25.305-.25.402-.25c.152 0 .98-.543 1.16-.762.035-.043.148-.109.25-.148.168-.062.168-.07 0-.066-.102 0-.469.188-.812.414m11.031 1.156c-.109.121-.238.371-.285.559s-.16.402-.258.484-.168.293-.16.473c.016.273.027.285.07.059.031-.145.164-.367.297-.488s.242-.309.242-.422.09-.332.199-.488c.246-.348.168-.48-.105-.176m-2.656 1.656c-.125.137-.328.25-.453.25s-.402.191-.617.43-.574.516-.797.621-.742.488-1.152.852l-1.328 1.16c-.324.273-.586.539-.59.59s-.223.328-.5.625-.496.598-.5.676-.086.211-.187.297a.53.53 0 0 0-.184.359c.004.113.141-.023.309-.297.742-1.223 3.832-4.187 4.367-4.187.035 0 .277-.227.539-.5s.574-.5.699-.5.371-.113.547-.25c.406-.316.668-.316 1.082.008.18.145.426.234.547.203.184-.047.18-.059-.031-.07-.141-.008-.324-.129-.41-.266-.109-.18-.289-.25-.633-.25-.32 0-.555.082-.707.25m2.531 3.328c-.121.238-.219.641-.223.895 0 .27-.105.598-.246.777-.16.207-.246.512-.246.891s-.086.684-.254.895c-.152.195-.25.508-.25.809 0 .332-.082.566-.25.719s-.25.387-.25.738c0 .301-.105.668-.25.887-.137.207-.25.516-.25.688s-.117.453-.25.625-.246.43-.246.57c-.004.379-.691.996-1.566 1.414-.488.23-1.293 1.215-1.801 2.199l-.512.996v3.258l.469.926c.297.59.484.848.512.703.023-.125-.012-.258-.078-.301s-.16-.219-.215-.391-.199-.461-.328-.645c-.355-.504-.344-3.398.016-3.855.133-.172.246-.402.246-.516s.09-.273.191-.359a.58.58 0 0 0 .188-.383c0-.289.848-1.09 1.824-1.719.859-.555 1.301-1.055 1.301-1.465 0-.156.086-.312.188-.355.121-.043.188-.238.188-.531 0-.258.094-.566.207-.691s.25-.516.305-.871.191-.738.297-.855.191-.441.191-.75c0-.355.07-.59.203-.687s.227-.402.266-.828c.035-.371.168-.824.297-1.008s.234-.547.234-.816.09-.609.195-.762.18-.359.156-.457-.137.02-.258.258m5.996 2.766c-.109.121-.254.469-.324.766s-.18.605-.254.68-.137.402-.137.727-.074.668-.168.758c-.324.324-.457.715-.457 1.348 0 .449-.055.656-.187.707-.141.055-.187.285-.187.926 0 .629-.055.906-.207 1.059-.344.344-.379 1.387-.059 1.816.145.199.266.43.266.512s.094.258.211.387c.305.336.316 4.215.02 4.563-.109.121-.234.379-.277.566s-.137.344-.207.344-.121.055-.121.117c0 .285-1.262 1.348-2.125 1.793l-.937.48-1.687.004c-1.699.004-2.441-.187-3.055-.781a.54.54 0 0 0-.324-.113c-.109 0-.359-.199-.555-.441s-.473-.504-.617-.578.016.152.359.504.684.641.762.641.289.113.465.25.387.25.477.25.262.094.387.207c.191.176.523.207 2.07.203l1.844-.004.875-.461c1.023-.539 2.086-1.531 2.453-2.293.145-.293.344-.621.445-.723.219-.215.277-4.281.063-4.414-.641-.406-1.02-1.918-.648-2.609.164-.309.25-.703.25-1.168 0-.516.066-.789.25-1.023.176-.223.25-.508.25-.945 0-.406.07-.695.199-.824.109-.109.238-.492.289-.855s.188-.832.301-1.051.211-.527.211-.68.094-.379.207-.508.18-.258.145-.289-.152.035-.262.156m15.047 23.477c-.508.297-.984.602-1.055.672s-.223.133-.336.133-.309.113-.434.25-.293.25-.379.25-.703.336-1.383.75-1.289.75-1.363.75-.227.113-.348.25-.32.25-.449.25a.57.57 0 0 0-.387.184 1.07 1.07 0 0 1-.422.266c-.148.047-.707.344-1.242.66l-1.25.734c-.277.152-.277.152-.012.156.148 0 .336-.082.418-.184a1.07 1.07 0 0 1 .422-.266c.148-.043.535-.27.863-.504s.672-.422.766-.422.305-.105.469-.234a2.32 2.32 0 0 1 .566-.316 1.07 1.07 0 0 0 .422-.266.56.56 0 0 1 .379-.184c.121 0 .305-.082.406-.184.234-.23.926-.652 1.367-.828.188-.074.344-.184.344-.242s.164-.137.363-.18.461-.191.582-.324.316-.242.434-.242.285-.082.367-.184.266-.219.406-.262c.383-.121 1.816-1.055 1.598-1.039-.102.008-.602.258-1.113.555m-9.633 5.488c-.09.105-.262.191-.387.191s-.258.051-.297.109c-.07.117-2.266 1.391-2.395 1.391-.039 0-.215.113-.391.25s-.426.25-.555.25-.27.086-.309.188-.145.188-.23.188-.363.141-.617.313-.551.313-.664.313-.297.086-.41.188c-.133.121-.559.215-1.137.25-.508.035-1.09.094-1.293.141-.535.113-3.473-.211-3.703-.41a.81.81 0 0 0-.453-.168c-.137 0-.348-.109-.469-.242s-.387-.281-.594-.324-.398-.16-.437-.258-.148-.176-.25-.176c-.109 0-.039.121.188.313.203.172.453.313.555.313s.309.113.469.25.367.25.461.25.32.094.496.211c.852.559 5.652.559 6.27 0 .125-.117.293-.211.371-.211.176 0 1.266-.578 1.52-.805.109-.098.355-.215.551-.266s.383-.164.418-.258.18-.172.313-.172c.141 0 .426-.125.641-.281.469-.336.594-.41 1.609-.953.863-.457 1.059-.602.953-.703-.035-.039-.137.016-.223.121" fill="rgb(51.764706%,83.137255%,54.901961%)"/></svg>