<svg xmlns="http://www.w3.org/2000/svg" width="66.667" height="66.667" viewBox="0 0 50 50" fill-rule="evenodd" xmlns:v="https://vecta.io/nano"><path d="M0 25v25h50V0H0v25M26.703.23c.039.031.352.07.695.09s.762.066.926.105a2.97 2.97 0 0 0 .563.074c.141 0 .355.031.473.07s.383.094.59.125l1.27.246c.031.027.164.059.293.074s.305.066.387.109.199.074.262.074.18.035.258.074.191.078.25.078.191.043.297.098.23.102.289.102c.102 0 .16.023.547.223.094.047.344.145.547.211s.426.152.484.191a.5.5 0 0 0 .203.074c.051 0 .145.047.215.102s.156.098.191.098.129.035.199.074l.41.203c.578.277 1.203.621 1.43.793.129.102.254.18.277.18s.105.043.184.094l.633.426 1.699 1.191c.027.023.168.125.309.227.316.234.82.691 1.824 1.645.238.227 1.121 1.164 1.672 1.777a9.2 9.2 0 0 1 .598.738l.336.465.125.164c.039.051.297.43.648.949l.566.898c0 .023.078.137.172.254s.176.25.176.293.02.078.043.078c.051 0 .508.875.508.973 0 .039.016.078.039.086.047.023.313.531.313.602 0 .027.031.082.074.125s.074.121.074.18a.35.35 0 0 0 .066.184c.039.043.129.258.199.477s.195.535.281.699.152.332.152.375.047.164.102.266.102.25.102.324.031.18.07.23.086.18.105.289a1.22 1.22 0 0 0 .102.336c.039.07.07.207.07.297a.59.59 0 0 0 .07.273c.039.063.086.215.105.336s.066.32.105.441.07.309.07.43a1.48 1.48 0 0 0 .074.43c.039.117.074.305.074.418s.035.352.078.531.098.563.125.852l.105.898c.09.52.09 3.633 0 4.152-.035.203-.082.598-.105.875-.039.445-.09.789-.262 1.672-.031.152-.07.434-.09.625s-.059.398-.086.453-.07.211-.09.348-.066.309-.105.387a.69.69 0 0 0-.07.273.66.66 0 0 1-.07.27c-.035.074-.082.234-.102.359s-.066.254-.105.289-.074.125-.074.203-.043.23-.098.332-.102.234-.102.297a.3.3 0 0 1-.062.176c-.035.035-.129.234-.207.441l-.184.461c-.027.047-.047.113-.047.145 0 .07-.066.219-.672 1.457l-.531.984c-.023 0-.047.035-.047.078s-.09.191-.199.328-.199.277-.199.301-.043.109-.094.184l-.324.484-.809 1.168-.523.73c-.398.559-2.195 2.438-3.094 3.227l-.5.469c-.109.117-.402.34-1.039.781l-.602.43-.617.426c-.066.039-.203.129-.301.199-.148.109-.414.273-.848.523-.051.027-.129.086-.176.125-.094.074-.215.148-.449.27l-.227.125c-.039.027-.109.059-.148.074a.94.94 0 0 0-.152.078c-.039.027-.129.074-.199.102l-.199.09c-.293.164-.508.262-.574.262-.039 0-.074.02-.074.047s-.062.063-.141.082a.84.84 0 0 0-.234.094c-.055.031-.281.117-.5.188s-.535.199-.699.285-.336.152-.387.152-.184.047-.289.102-.246.098-.301.098a.48.48 0 0 0-.215.07 1.08 1.08 0 0 1-.328.105 1.36 1.36 0 0 0-.348.105.71.71 0 0 1-.273.07c-.078 0-.203.031-.281.07s-.262.09-.41.109-.293.051-.32.07-.211.051-.402.07-.465.066-.598.105a1.74 1.74 0 0 1-.445.074c-.113 0-.352.035-.531.078s-.594.098-.922.121-.727.074-.875.109c-.379.09-3.387.094-3.676 0-.109-.031-.48-.082-.824-.105a8.24 8.24 0 0 1-.953-.125c-.176-.043-.414-.078-.527-.078s-.312-.031-.449-.074-.398-.086-.594-.105-.375-.051-.402-.07-.176-.055-.332-.07-.324-.066-.375-.105-.172-.07-.27-.074-.234-.031-.309-.07a1.41 1.41 0 0 0-.348-.105.93.93 0 0 1-.316-.105.44.44 0 0 0-.215-.07c-.062 0-.203-.043-.312-.098s-.25-.102-.316-.102-.148-.031-.184-.074a.21.21 0 0 0-.145-.074c-.043 0-.148-.047-.23-.102s-.184-.098-.223-.098a.62.62 0 0 1-.219-.078c-.078-.039-.18-.074-.227-.074s-.156-.043-.246-.098-.203-.102-.254-.102-.121-.035-.156-.074-.086-.074-.109-.074-.234-.09-.457-.195l-.496-.223c-.047-.016-.086-.055-.086-.082s-.031-.051-.07-.051c-.074 0-.445-.187-.684-.344l-.937-.594-.395-.262c-.035-.027-.074-.051-.09-.051-.027 0-.332-.211-.762-.523l-.801-.574-.82-.652-.547-.5a36.26 36.26 0 0 1-2.121-2.125l-.465-.52a3.26 3.26 0 0 1-.352-.426l-.184-.262a11.43 11.43 0 0 1-.324-.441l-.465-.629-.187-.273c0-.031-.203-.332-.25-.375a4.64 4.64 0 0 1-.203-.316l-.508-.82-.273-.449a.91.91 0 0 0-.121-.207c-.051-.066-.094-.16-.094-.211s-.016-.094-.039-.105c-.035-.012-.25-.434-.332-.641a1.03 1.03 0 0 0-.07-.148 19.04 19.04 0 0 1-.355-.754c-.055-.125-.102-.266-.102-.309s-.02-.094-.047-.109-.059-.113-.078-.215a.73.73 0 0 0-.098-.266c-.035-.039-.094-.16-.125-.262s-.082-.199-.105-.215-.047-.086-.047-.152-.047-.211-.102-.32a.9.9 0 0 1-.098-.293c0-.055-.031-.164-.07-.242-.074-.148-.156-.43-.242-.84-.027-.137-.082-.309-.121-.383a.8.8 0 0 1-.066-.285c0-.086-.031-.25-.07-.367s-.086-.371-.102-.566-.066-.441-.105-.551S.504 29.152.5 29s-.035-.41-.078-.574a6.24 6.24 0 0 1-.102-.875c-.016-.316-.062-.66-.098-.766-.102-.27-.105-3.414-.004-3.562.043-.062.078-.328.098-.723.02-.344.055-.703.086-.801s.074-.383.098-.637.07-.504.094-.551.063-.258.082-.465a3.4 3.4 0 0 1 .105-.586c.039-.117.07-.273.07-.344a.83.83 0 0 1 .066-.285c.039-.086.094-.27.121-.406.09-.41.219-.848.266-.898.023-.027.047-.102.047-.164s.043-.207.098-.312.102-.242.102-.301.043-.184.098-.285a1 1 0 0 0 .102-.246c0-.031.035-.086.074-.117s.09-.152.109-.258.051-.207.074-.223.043-.062.043-.109c0-.082.133-.402.301-.723.055-.102.098-.215.098-.254s.031-.102.074-.133.086-.125.102-.203.063-.168.102-.203.074-.098.074-.148.027-.121.063-.16.152-.246.262-.465.285-.508.387-.648.188-.266.188-.289.043-.102.094-.176l.422-.633.445-.66.191-.27.324-.441.375-.531c.066-.109.223-.301.344-.426s.34-.359.477-.523c.332-.395 1.871-1.934 2.254-2.25l.523-.477a2.83 2.83 0 0 1 .426-.348 8.85 8.85 0 0 0 .551-.387l.398-.301a27.17 27.17 0 0 1 1.652-1.086l.531-.348c.043-.059.086-.082 1.176-.621l.977-.488c.07-.039.176-.07.23-.07s.109-.023.117-.051.199-.105.418-.18l.477-.176a1.64 1.64 0 0 1 .199-.094l.266-.125c.078-.039.195-.074.262-.074s.191-.047.281-.102a.73.73 0 0 1 .301-.098c.074 0 .148-.023.164-.047s.156-.074.313-.105.313-.082.344-.105.164-.059.301-.074.27-.051.297-.078c.055-.039.512-.129 1.371-.266l.602-.121c.094-.031.27-.055.391-.055s.363-.035.547-.074.605-.098.938-.121l.801-.098c.281-.07 3.137-.051 3.227.023m4.242 15.145c-.016.012-.25.047-.523.078s-.566.086-.656.125-.199.07-.25.07-.141.035-.195.074-.129.074-.172.074c-.07.004-.359.141-.75.359-.945.527-1.973 1.652-2.367 2.594l-.176.402a1.12 1.12 0 0 0-.078.25c-.02.094-.066.238-.102.324-.156.367-.215 1.539-.117 2.277.082.617.086.613-.68.574a7.22 7.22 0 0 1-.93-.102l-.625-.121c-.645-.105-1.094-.207-1.145-.254-.027-.027-.113-.051-.187-.051s-.254-.047-.391-.102a1.43 1.43 0 0 0-.367-.098c-.062 0-.16-.035-.211-.074s-.148-.074-.211-.074-.195-.047-.301-.102-.219-.102-.262-.102-.121-.031-.176-.07-.172-.082-.262-.102-.164-.059-.164-.082-.027-.047-.062-.047c-.113.004-1.828-.887-1.988-1.027-.047-.039-.094-.07-.109-.07-.039 0-.937-.602-1.031-.687-.035-.035-.078-.062-.098-.062s-.109-.066-.199-.148a3.6 3.6 0 0 0-.254-.215c-.441-.309-1.414-1.223-2.141-2.016-.297-.32-.371-.379-.434-.328-.098.082-.332.566-.332.688 0 .051-.031.145-.074.199s-.086.203-.105.324a3.4 3.4 0 0 1-.102.453c-.059.184-.07.438-.055 1.125.02.852.043 1.023.223 1.566.039.125.086.297.098.387s.059.188.098.219.066.078.066.109c0 .082.215.492.391.746l.16.273c0 .051.078.133.777.832.473.473.625.652.582.695-.078.078-.527.059-.883-.035-.164-.043-.332-.078-.375-.078s-.141-.031-.219-.074-.18-.074-.227-.074-.137-.031-.207-.066c-.273-.145-.465-.187-.508-.121-.055.086.008.934.086 1.086a1.78 1.78 0 0 1 .094.344c.02.121.066.27.105.324s.074.141.074.184c0 .09.375.832.48.953.039.043.07.098.07.117s.023.063.051.094.156.195.285.359c.289.363.527.605.789.805l.418.32c.184.156 1.086.621 1.32.68.074.016.137.055.137.078s.051.043.117.043c.148 0 .434.098.434.148 0 .223-.391.309-1.395.313-1.078 0-1.047-.02-.77.531.504 1.004 1.004 1.598 1.938 2.297.219.164 1.047.609 1.137.613.035 0 .152.047.262.098s.254.098.316.098a.75.75 0 0 1 .25.074c.074.039.344.086.594.105s.484.055.516.074c.168.102-.16.473-.648.738l-.539.328-.328.184a1.96 1.96 0 0 0-.184.098 1.56 1.56 0 0 1-.199.102 1.64 1.64 0 0 0-.199.094c-.199.117-.547.258-.645.258-.059 0-.105.016-.105.043 0 .02-.199.102-.437.176l-.59.188c-.082.027-.285.078-.449.117s-.363.09-.441.121-.25.055-.383.055-.375.035-.535.074c-.191.051-.656.09-1.355.109l-1.066.031.414.242.891.469.617.301a.69.69 0 0 0 .203.074c.031 0 .141.043.246.098s.211.102.238.102.129.031.215.07.25.098.367.129.223.074.242.102.09.047.164.047.199.035.277.078.238.086.352.102.305.059.43.098c.34.102.719.172 1.301.25l.773.125c.391.086 3.32.07 3.945-.02l.855-.129c.512-.07 1.113-.191 1.215-.242.047-.027.191-.059.324-.078s.305-.066.383-.105.215-.078.297-.078.164-.02.18-.047.125-.074.242-.102a3.07 3.07 0 0 0 .367-.129.78.78 0 0 1 .227-.07c.039 0 .113-.035.168-.074s.129-.074.168-.074.172-.051.301-.109l1.105-.547c.012-.02.078-.051.148-.07a1.01 1.01 0 0 0 .246-.133c.063-.051.148-.094.188-.094s.066-.02.066-.043.063-.066.137-.102.301-.176.5-.309.383-.246.41-.246.055-.02.055-.043.152-.148.336-.273l.488-.371.523-.461a13.22 13.22 0 0 0 1.324-1.324l.438-.484c.051-.051.09-.117.09-.145s.02-.047.039-.047.121-.109.211-.238l.363-.469c.047-.051.086-.105.086-.117s.086-.156.191-.312l.508-.805c0-.02.078-.156.172-.297s.188-.305.203-.363.051-.102.074-.102.059-.062.074-.145.066-.172.102-.203a.45.45 0 0 0 .102-.203c.02-.082.055-.148.078-.148s.047-.027.047-.059.047-.16.102-.289l.344-.801.164-.426c.055-.137.121-.34.148-.449s.066-.219.09-.25.055-.152.078-.277.055-.25.078-.277c.043-.055.133-.445.273-1.172.039-.207.094-.426.121-.488s.051-.223.051-.352.035-.437.078-.684.09-.922.105-1.512l.031-1.062.199-.184.504-.426c.41-.332.957-.863 1.23-1.195l.301-.355.289-.359c.172-.223.07-.324-.176-.184a3.43 3.43 0 0 1-.773.258c-.129.027-.297.082-.375.121s-.219.074-.312.074-.266.031-.375.07c-.645.234-.93.055-.492-.305.484-.395 1.109-1.043 1.344-1.391.645-.98.754-1.445.25-1.094-.055.035-.141.066-.187.066s-.09.02-.09.043a2.15 2.15 0 0 1-.664.309c-.035 0-.105.035-.16.074a.37.37 0 0 1-.172.078c-.043 0-.168.043-.281.098s-.25.098-.312.098a.68.68 0 0 0-.262.078c-.082.039-.254.09-.387.105s-.262.051-.289.07c-.047.035-.238.066-.352.055-.031-.004-.199-.133-.375-.285-.395-.344-.848-.672-1.148-.832l-.301-.168c-.098-.059-.523-.215-.762-.273a1.4 1.4 0 0 1-.273-.098c-.168-.09-1.801-.246-1.867-.176" fill="rgb(94.901961%,95.686275%,95.686275%)"/><path d="M23.574.551l-2.473.23-.453.121c-.094.027-.383.07-.641.102s-.625.105-.824.172-.535.156-.75.195-.465.113-.551.156a3.33 3.33 0 0 1-.531.176 3.46 3.46 0 0 0-.551.191c-.098.047-.344.141-.547.199s-.418.145-.477.184a2.51 2.51 0 0 1-.387.168 3.78 3.78 0 0 0-.473.195l-.973.461c-.031 0-.152.063-.27.145s-.27.16-.332.18-.207.098-.316.168a7.09 7.09 0 0 1-.461.281c-.652.367-2.078 1.313-2.422 1.609a6.42 6.42 0 0 1-.531.422c-.109.074-.5.402-.766.645L7.652 7.652l-1.309 1.43-.187.219c-.023.012-.133.148-.246.301l-.449.578-.41.566-.363.5c-.102.133-.187.266-.187.293s-.031.074-.07.109-.133.172-.203.309a5.34 5.34 0 0 1-.277.453c-.082.113-.148.223-.148.246s-.066.137-.145.254a3.29 3.29 0 0 0-.227.391l-.129.25a29.99 29.99 0 0 0-.902 1.926c-.031.109-.09.23-.125.273s-.109.234-.172.426l-.207.555c-.047.109-.133.359-.187.551l-.223.695c-.066.191-.137.457-.156.586s-.078.336-.129.457-.145.539-.203.934l-.145.77c-.066.082-.141.547-.195 1.227l-.18 3.074.063 1.652.113 1.398a8.7 8.7 0 0 0 .172 1.125 9.18 9.18 0 0 1 .176.949c.031.262.113.637.18.836l.191.719a3.57 3.57 0 0 0 .172.566 2.85 2.85 0 0 1 .156.457c.031.137.125.414.203.613s.148.395.148.43.078.223.176.418l.172.406a12.99 12.99 0 0 0 .555 1.207c.027.039.082.152.121.25l.172.348.277.5.465.781c.09.141.16.273.16.293s.082.148.176.285.176.258.176.273c0 .035.375.555.574.801.066.086.125.176.125.203s.063.109.137.191a2.88 2.88 0 0 1 .223.277c.156.234.953 1.176 1.434 1.691l1.43 1.43.426.375.375.332c.055.055.238.203.402.324l.57.445c.18.152.883.648 1.18.824.094.059.211.137.258.184s.195.129.316.191.27.152.328.203.18.125.281.168a1.13 1.13 0 0 1 .25.141c.082.074.547.328.992.539.18.086.359.184.398.219s.164.098.277.133.344.137.523.227a3.18 3.18 0 0 0 .477.199c.082.02.195.074.254.117s.207.113.324.148l.422.141.512.195c.176.066.367.121.43.121a.48.48 0 0 1 .223.078c.137.098.32.152.816.246.211.043.445.109.527.148a3.48 3.48 0 0 0 .645.152l1.172.242c.152.043.543.102.875.129l1.523.137c1.613.145 2.852.141 3.672-.016a9.9 9.9 0 0 1 .625-.043c.836-.047 1.875-.191 1.98-.277.031-.027.246-.07.477-.098.652-.082.938-.137 1.105-.223a1.32 1.32 0 0 1 .332-.105c.34-.059.781-.18.922-.254.074-.039.309-.117.523-.172s.469-.145.566-.195.254-.105.352-.125.328-.109.52-.199l.613-.254c.145-.051.262-.109.262-.125s.172-.098.375-.172.391-.156.406-.184.168-.113.336-.195l.648-.336.598-.328c.145-.078.297-.172.34-.207a2.96 2.96 0 0 1 .297-.184c.125-.062.238-.133.25-.148a8.97 8.97 0 0 1 .453-.316l.551-.41c.07-.062.145-.117.168-.117.035 0 .953-.707 1.211-.934l.352-.293c.348-.289 2.148-2.086 2.496-2.5l.785-.949.887-1.219.316-.445a1.95 1.95 0 0 0 .219-.375c.039-.102.094-.187.117-.187s.102-.121.176-.273.152-.289.176-.305.105-.152.184-.312.188-.355.246-.449a1.68 1.68 0 0 0 .168-.348c.031-.102.086-.207.117-.234s.09-.129.129-.227c.066-.176.34-.777.602-1.324.078-.164.172-.402.203-.527s.109-.336.176-.473.141-.363.176-.5.113-.379.18-.535.152-.461.195-.676.109-.465.152-.559c.082-.172.215-.824.215-1.07.004-.074.047-.266.102-.422.133-.395.195-.809.25-1.664l.133-1.176c.117-.637.121-2.961.004-3.574-.043-.234-.105-.773-.133-1.199-.066-.918-.121-1.285-.246-1.68-.051-.164-.121-.496-.152-.738s-.113-.59-.176-.773a7.23 7.23 0 0 1-.203-.711c-.047-.203-.125-.457-.18-.562s-.094-.238-.094-.293c0-.113-.191-.68-.258-.77-.023-.031-.098-.211-.164-.402-.164-.465-.496-1.242-.566-1.328-.031-.039-.105-.203-.168-.367s-.137-.336-.172-.375-.125-.199-.195-.352l-.305-.574-.32-.574-.363-.605-.777-1.141-.238-.344c-.027-.043-.102-.133-.168-.207s-.187-.23-.27-.355l-.184-.25c-.016-.012-.148-.168-.297-.348-1.078-1.324-3.406-3.5-4.41-4.125-.285-.18-.797-.539-.848-.602-.031-.039-.082-.074-.109-.074s-.156-.078-.289-.176l-.277-.176c-.02 0-.156-.078-.301-.172s-.277-.176-.297-.176-.094-.043-.168-.094a21.23 21.23 0 0 0-1.918-.977c-.07-.016-.16-.059-.199-.094s-.223-.117-.414-.184-.383-.145-.426-.176c-.09-.07-.5-.227-.598-.227-.035 0-.195-.059-.348-.133s-.426-.172-.605-.223l-.625-.195c-.164-.062-.434-.133-.598-.156s-.367-.078-.449-.117c-.25-.113-.477-.164-.977-.227-.262-.031-.621-.098-.801-.152-.785-.234-4.004-.402-5.676-.297m8.738 14.621c.238.066.563.137.723.156a2.09 2.09 0 0 1 .613.203c.18.094.367.168.414.168s.129.039.176.09a2.04 2.04 0 0 0 .313.207c.289.156.516.324.809.586.129.117.289.227.355.246.184.043 1.07-.145 1.395-.297.152-.074.305-.133.344-.133.102 0 .512-.156.598-.227.039-.035.207-.113.371-.176s.344-.152.398-.203c.305-.285.926.043.664.352-.039.047-.121.223-.184.395s-.133.324-.152.336a1.21 1.21 0 0 0-.145.23c-.109.207-.488.703-.82 1.07-.187.207-.238.375-.113.375a3.31 3.31 0 0 0 .809-.227A5.81 5.81 0 0 1 40.063 18c.293 0 .176.438-.27.996-.457.574-1.551 1.672-1.898 1.902-.363.238-.395.336-.395 1.23-.004.742-.07 1.449-.195 2.047l-.129.844c-.043.324-.109.664-.148.75-.086.195-.207.637-.25.922a1.55 1.55 0 0 1-.137.426 2.64 2.64 0 0 0-.176.531c-.035.176-.098.355-.133.398s-.105.191-.152.328-.164.406-.258.602l-.242.523a7.37 7.37 0 0 1-.273.523l-.336.621c-.074.148-.172.313-.215.363a3.12 3.12 0 0 0-.18.258c-.379.621-.664 1.027-.93 1.32-.082.09-.145.184-.145.211s-.039.078-.09.113-.152.152-.23.258c-.191.254-1.539 1.605-1.855 1.859-.137.109-.27.227-.289.262s-.07.063-.105.063-.117.059-.184.129c-.113.121-.32.273-.867.629a2.96 2.96 0 0 0-.281.207c-.039.039-.191.137-.336.215l-.551.305-1.414.691a2.07 2.07 0 0 0-.34.152c-.121.066-.402.176-.625.246s-.43.148-.457.172-.273.09-.539.145-.559.137-.648.184-.332.102-.539.129a25.01 25.01 0 0 0-1.676.301c-.32.066-3.687.07-4.125 0l-.574-.105-1.148-.199c-.195-.023-.453-.09-.578-.145s-.383-.129-.574-.172a2.66 2.66 0 0 1-.555-.176 2.66 2.66 0 0 0-.449-.164c-.137-.031-.402-.133-.594-.219s-.41-.176-.484-.191-.164-.062-.203-.102-.199-.117-.363-.184-.336-.148-.379-.184-.187-.109-.324-.172a1.83 1.83 0 0 1-.434-.277c-.105-.09-.211-.168-.238-.168-.066 0-.211-.289-.176-.348.063-.105.445-.148 1.273-.152 1.234-.004 2.016-.066 2.375-.195.168-.059.465-.129.664-.152a2.69 2.69 0 0 0 .625-.172c.145-.066.363-.148.488-.18a3.51 3.51 0 0 0 .473-.172l1.453-.734c.082-.066.23-.16.332-.211.398-.203.289-.332-.383-.453-.223-.039-.535-.137-.703-.219s-.355-.164-.422-.184-.16-.066-.199-.102-.156-.102-.25-.148a7.53 7.53 0 0 1-1.25-.965c-.387-.43-.902-1.102-.902-1.18a.65.65 0 0 0-.113-.203c-.152-.199-.348-.746-.348-.965 0-.234.07-.289.352-.285l.68.016c.594.016.633-.102.113-.336-.68-.309-1.707-1.164-2.059-1.715-.062-.098-.148-.211-.187-.25s-.133-.18-.211-.32l-.203-.324c-.031-.039-.109-.219-.172-.398s-.148-.375-.187-.434c-.074-.117-.23-.973-.289-1.559-.039-.406.063-.609.309-.609.156 0 .566.113.566.156 0 .063.395.191.68.227.348.039.348-.004.012-.395-.297-.34-.559-.703-.695-.961a1.73 1.73 0 0 0-.176-.281c-.039-.043-.125-.234-.191-.426l-.219-.594c-.34-.84-.301-3.055.066-3.855l.18-.465c.066-.23.395-.555.555-.555.051 0 .527.438 1.102 1.016l1.398 1.313 1.363.992c.086.047.285.172.453.281s.422.258.57.332l.441.246c.09.063.246.141.348.172a1.94 1.94 0 0 1 .348.176c.094.063.242.129.332.148a4.32 4.32 0 0 1 .57.227c.227.109.457.195.516.195s.172.035.254.078c.203.105.73.273.859.273.059 0 .27.059.473.129.223.074.625.156 1.004.199l.832.121c.898.23.953.199.934-.559-.023-.902.078-1.785.246-2.215l.176-.492c.273-1.105 1.832-2.75 3.121-3.289.152-.062.324-.145.387-.184s.379-.125.699-.187l.715-.168c.254-.102 1.289-.062 1.762.066" fill="rgb(36.078431%,67.45098%,85.882353%)"/><path d="M23.273.352c-.191.016.598.031 1.75.031L26.75.348c-.465-.043-2.996-.043-3.477.004m-1.148.102c-.082.023-.328.063-.551.09l-.398.043.324.004c.18.004.563-.035.852-.086.5-.09.508-.094.223-.094-.164 0-.367.02-.449.043m5.176-.02c.066.008.246.043.395.07a8.23 8.23 0 0 0 .75.098c.262.02.582.063.703.09l.527.109.676.125a9.76 9.76 0 0 1 1.148.281c.18.051.371.094.426.094a.43.43 0 0 1 .195.074c.055.043.152.074.215.074a.94.94 0 0 1 .305.082c.102.043.25.098.336.121.203.055.566.188.75.27.082.039.211.086.285.105s.152.055.168.078.063.043.105.043.172.043.285.098l.453.207 1.078.496a18.17 18.17 0 0 0 .5.266l.82.449c.027.02.164.109.305.195l.465.301.234.141a10.74 10.74 0 0 1 1.215.863c.012.02.039.035.066.035.063 0 1 .715 1.188.906a11.21 11.21 0 0 0 .355.32l1.297 1.195.379.398.602.656.457.523c.32.363.387.445.547.688.098.145.199.262.223.262s.047.027.047.059.055.125.125.211a4.3 4.3 0 0 1 .348.48l.176.25c.063.063.25.352.25.383 0 .02.039.078.082.129s.109.133.141.188l.227.379.453.773c.031.066.07.133.09.148.078.063 1.16 2.313 1.16 2.422 0 .031.031.105.07.156s.074.137.078.188.047.172.102.273.098.215.098.254.031.129.066.199a4.22 4.22 0 0 1 .281.82c.023.102.063.215.09.25s.07.164.09.289a1.34 1.34 0 0 0 .086.32c.055.105.152.5.262 1.055l.121.492a1.06 1.06 0 0 1 .055.336 1.56 1.56 0 0 0 .07.406c.039.121.09.395.109.617s.063.488.102.598l.066.199-.02-.199c-.031-.367-.176-1.262-.227-1.398a.95.95 0 0 1-.051-.285c0-.156-.148-.863-.273-1.316l-.18-.648-.176-.574-.191-.578c-.191-.598-.277-.828-.359-.941-.039-.059-.07-.137-.074-.18s-.043-.168-.098-.277-.098-.219-.098-.242c-.004-.074-.305-.715-.781-1.656-.41-.812-.574-1.102-.875-1.535-.055-.078-.094-.148-.094-.16 0-.02-.578-.887-.902-1.355l-.969-1.301c-.031-.027-.27-.297-.531-.602A30.43 30.43 0 0 0 41.5 6.551l-.547-.48c-.199-.184-.867-.703-1.273-.996l-.348-.25c-.18-.133-1.047-.707-1.402-.926-1.336-.828-2.539-1.422-4.004-1.973l-.602-.23c-.211-.09-.656-.238-.824-.273-.098-.02-.242-.062-.324-.102s-.344-.109-.574-.172l-.676-.172C30.684.91 30.43.859 29.648.723L27.375.406c-.117.004-.148.016-.074.027m-6.477.211c-.055.023-.242.059-.418.078s-.371.055-.441.082a2.62 2.62 0 0 1-.434.094L19 1.004l-1.074.305-.352.102c-.109.027-.246.066-.301.094-.102.043-.391.148-.75.27-.109.035-.367.137-.574.219l-.41.156a3.29 3.29 0 0 0-.375.156l-1.266.59-1.23.688c-.137.094-.27.168-.289.168s-.094.043-.168.094l-.586.387-.512.352c-.035.035-.109.074-.164.094s-.098.051-.098.078-.031.047-.07.047-.098.031-.129.074-.184.152-.328.25l-.336.242a3.5 3.5 0 0 1-.297.223c-.125.086-.387.301-.578.473l-.766.688A20.55 20.55 0 0 0 6.75 8.348l-.652.727c-.152.164-.441.527-.645.801l-.504.676c-.113.148-.898 1.328-1.086 1.625l-.617 1.035c-.023.051-.066.129-.094.176a31.01 31.01 0 0 0-1.105 2.387l-.203.504c-.051.113-.094.227-.094.258s-.035.117-.074.195a.62.62 0 0 0-.074.219c0 .043-.031.133-.07.207s-.082.211-.102.316-.066.258-.105.344c-.125.293-.523 1.941-.617 2.559l-.102.602C.473 21.746.332 23 .43 22.574a8.34 8.34 0 0 0 .168-1.098l.094-.652a5.32 5.32 0 0 0 .105-.523l.227-1.125a2.47 2.47 0 0 0 .102-.437c.016-.129.051-.25.074-.262s.063-.137.078-.266a1 1 0 0 1 .105-.336.48.48 0 0 0 .066-.223c0-.07.035-.191.078-.273s.098-.227.121-.324c.066-.262.191-.609.277-.762A.64.64 0 0 0 2 16.094c0-.039.031-.129.07-.203a1.24 1.24 0 0 0 .102-.285c.02-.082.066-.176.105-.207s.074-.094.074-.129.043-.152.098-.258.102-.223.102-.266.031-.109.07-.145.086-.125.105-.203.051-.148.07-.148.059-.062.078-.137.063-.172.098-.215.082-.129.102-.199.055-.137.07-.148.094-.148.172-.301l.262-.477.184-.324a.88.88 0 0 1 .086-.148c.078-.074.301-.441.301-.492 0-.031.023-.059.055-.059s.066-.039.086-.09c.039-.09.395-.641.484-.746.027-.031.129-.172.227-.312.176-.262.879-1.184 1.008-1.32l.344-.387C7.137 8 7.688 7.441 8.426 6.773l.621-.562c.285-.262.309-.277.754-.613l1.074-.781.367-.277c.008-.023.043-.039.078-.039s.105-.047.156-.102.109-.098.133-.098.148-.074.281-.164l.559-.34c.07-.027.148-.078.176-.113.074-.086 1.617-.879 2.398-1.23l.434-.195c.125-.059.262-.109.297-.109s.113-.035.168-.074A.35.35 0 0 1 16.098 2c.043-.004.168-.047.277-.102s.246-.098.305-.098.137-.035.172-.074.121-.078.191-.078a.73.73 0 0 0 .281-.078c.082-.043.242-.098.352-.121s.266-.062.348-.094c.145-.051.57-.168 1.078-.301a7.25 7.25 0 0 1 .547-.105 3.02 3.02 0 0 0 .453-.098c.066-.027.313-.07.547-.102s.445-.07.473-.102c.059-.059-.145-.062-.297-.004m9.699 14.59c-.109.012-.242.039-.297.066a2.43 2.43 0 0 1-.398.098c-.164.027-.32.074-.348.102s-.094.051-.145.051c-.488 0-2.785 1.648-2.785 1.996 0 .031-.039.094-.09.148-.352.379-.863 1.484-.961 2.078-.023.141-.066.32-.098.402-.133.34-.117 1.676.027 2.168.035.113.031.113-.309.09-.668-.047-1.398-.141-1.645-.207-.141-.039-.375-.086-.523-.102s-.344-.066-.434-.105-.234-.07-.32-.07a.8.8 0 0 1-.289-.066c-.074-.039-.219-.086-.32-.102s-.25-.066-.324-.109a.67.67 0 0 0-.215-.07c-.082 0-.555-.176-.758-.281-.074-.039-.16-.07-.195-.07-.098 0-1.551-.703-1.871-.906l-.277-.156c-.066-.031-.23-.133-.359-.223l-.266-.164c-.012 0-.137-.078-.273-.176s-.273-.176-.301-.176-.051-.02-.051-.039-.105-.113-.238-.199a4.15 4.15 0 0 1-.41-.305l-.227-.191c-.543-.43-1.691-1.539-2.141-2.078-.332-.395-.437-.359-.68.215l-.18.43a1.85 1.85 0 0 0-.102.352c-.02.105-.055.219-.078.25-.074.09-.207 1.371-.176 1.691l.176 1.246a.82.82 0 0 1 .078.246c.035.203.125.438.281.742a.88.88 0 0 1 .098.242c0 .027.043.113.094.188l.332.512c.133.207.449.586.707.84l.465.496c0 .102-.961-.094-1.316-.266-.078-.039-.168-.07-.199-.07s-.145-.047-.25-.102c-.113-.059-.262-.098-.352-.09l-.156.016.004.375c.004.484.191 1.367.391 1.824.605 1.398 1.406 2.32 2.656 3.063.203.125.621.313.684.316a.36.36 0 0 1 .16.074.43.43 0 0 0 .211.074c.234 0 .152.09-.156.172-.25.066-.43.082-.809.059-1.055-.066-.988-.07-1.008.063a.49.49 0 0 0 .027.227l.32.68.105.199c.266.543 1.203 1.559 1.762 1.918l.434.285c.074.051.191.109.262.125s.152.063.184.102.09.07.129.07.152.047.254.102a.87.87 0 0 0 .316.098c.07 0 .152.023.18.055s.23.082.449.117c.605.109 1.012.23.762.23-.043 0-.117.043-.168.098s-.117.102-.152.102-.09.035-.125.082-.113.098-.168.125a2.22 2.22 0 0 0-.254.141c-.258.172-.477.285-1.551.805-.109.055-.234.098-.277.098s-.121.031-.176.07-.191.086-.297.105-.223.055-.25.078-.164.066-.301.094-.293.074-.348.102-.258.07-.453.102c-.363.055-.66.18-.324.133a7.72 7.72 0 0 0 1-.223c.07-.027.297-.098.5-.16l.625-.211.398-.156a17.12 17.12 0 0 0 1.379-.703 4.5 4.5 0 0 1 .426-.27c.785-.469.789-.539.035-.668s-1.324-.316-1.836-.605l-.199-.109c-1.066-.57-2.414-2.199-2.559-3.086l-.027-.172.918.004c.797 0 .945-.012 1.129-.094.266-.121.266-.145 0-.211-2.148-.559-3.848-2.594-4.16-4.988-.094-.727-.062-.793.305-.613.316.156.625.281.691.281.039 0 .148.031.238.07a2.64 2.64 0 0 0 .539.125l.492.09c.129.031.117-.184-.012-.23-.398-.148-1.832-2.082-1.832-2.473 0-.023-.031-.113-.066-.199-.414-.957-.43-3.18-.031-3.895.027-.047.047-.113.047-.145 0-.129.348-.781.434-.812.07-.027.16.043.391.305.977 1.109 2.238 2.207 3.453 3l.699.445a4.57 4.57 0 0 1 .273.16c.188.109 1 .516 1.453.723.48.223 1.016.43 1.523.59l.551.176c.375.125 1.215.316 1.848.418l.652.109c.164.031.531.066.816.082l.52.027-.031-.219c-.172-1.137-.027-2.523.344-3.32l.18-.402c.34-.766 1.219-1.77 1.996-2.281.434-.285 1.238-.691 1.371-.691.039 0 .137-.027.215-.059.801-.332 2.664-.355 3.391-.043.055.023.156.059.223.074.516.133 1.348.594 1.891 1.047.66.547.559.5.941.434.191-.035.391-.082.445-.105l.473-.152c.625-.184.902-.301 1.738-.719.793-.395.813-.371.414.441-.395.801-.84 1.344-1.766 2.16-.129.113-.223.219-.211.23.043.043 1.641-.301 1.77-.383a1.73 1.73 0 0 1 .293-.098l.512-.176.332-.105c.215 0-.395.816-1.258 1.68l-1.086.988c-.465.344-.437.262-.441 1.398l-.051 1.387c-.09.664-.102.898-.043.723.102-.312.145-.848.152-1.953.008-1.285-.027-1.156.422-1.492.641-.48 2.223-2.133 2.223-2.324 0-.031.02-.055.047-.055s.09-.078.148-.176l.105-.176-.129-.059c-.102-.047-.16-.043-.285.02-.25.117-.707.289-.781.289-.035 0-.137.031-.223.07-.277.125-.797.242-1.156.266l-.352.02.176-.133a6.27 6.27 0 0 0 1.551-1.871l.281-.559c.086-.164.09-.426.004-.453a.5.5 0 0 0-.336.102 2.04 2.04 0 0 1-.531.262c-.031 0-.086.031-.117.07s-.137.09-.23.105-.195.066-.227.102-.09.07-.129.07-.145.031-.234.07c-.23.102-.625.23-.875.285-.121.023-.25.07-.289.102s-.219.066-.406.078l-.336.02-.273-.254c-.152-.141-.367-.312-.477-.391l-.227-.16c-.078-.082-.457-.301-.523-.301-.039 0-.074-.02-.074-.043s-.082-.074-.18-.105-.242-.094-.312-.129a.63.63 0 0 0-.234-.07c-.059 0-.125-.023-.152-.047-.051-.055-.586-.184-1.023-.254a11.65 11.65 0 0 0-1.625-.016M49.609 22.5c-.004.262.023.746.066 1.074a15.54 15.54 0 0 1 0 2.953c-.043.328-.07.789-.07 1.023l.008.426.043-.5.09-.738c.07-.324.07-3.035 0-3.41-.031-.164-.07-.52-.094-.797l-.039-.508-.004.477m-49.293.836a38.41 38.41 0 0 0 .02 3.563c.027.289.039-.305.043-1.859L.371 22.75c-.008 0-.031.266-.055.586m36.742 1.293c-.004.086-.043.266-.082.402s-.074.301-.074.371-.047.285-.105.477l-.168.598-.531 1.598a20.52 20.52 0 0 1-.977 2.051l-.168.316c-.031.066-.129.234-.223.375l-.395.609c-.945 1.457-2.273 2.883-3.711 3.984-.027.023-.164.125-.301.23-.262.199-.953.664-1.078.727l-.297.164c-.977.563-2.211 1.117-3.051 1.367l-.473.148a7.53 7.53 0 0 1-.953.254c-.043 0-.273.043-.512.094-1.953.43-4.902.43-6.961-.004l-1.273-.316-.645-.199-.578-.207c-.07-.035-.152-.066-.184-.066-.141-.004-2.051-.934-2.531-1.234-.352-.223-.281-.242.875-.246l1.563-.082c.668-.102.211-.113-.727-.02a6.87 6.87 0 0 1-1.27.02c-.355-.027-.699-.031-.762-.016l-.121.027.105.141c.055.078.242.215.414.305l.457.258a2.12 2.12 0 0 0 .277.145 1.56 1.56 0 0 1 .199.102c.039.027.109.063.148.082.129.051.523.23.602.277.039.023.109.055.148.07s.168.07.281.125.238.094.277.094.117.035.172.074.141.074.195.078a1.04 1.04 0 0 1 .301.098 1.05 1.05 0 0 0 .313.102c.066 0 .18.031.254.07s.227.086.336.105.223.055.25.078.203.066.387.09.359.066.395.09c.133.082 1.254.23 2.566.344.777.066 1.066.07 1.598.023l1.398-.105c.41-.023.77-.066.801-.09s.238-.059.465-.082.426-.051.438-.074.133-.059.262-.074c.242-.031.613-.129 1.012-.258l.426-.117c.109-.023.27-.078.352-.121s.195-.078.254-.078.137-.035.172-.074.109-.078.168-.078.191-.043.293-.098a.88.88 0 0 1 .258-.102c.039 0 .105-.031.141-.066s.141-.086.227-.105a.46.46 0 0 0 .215-.105c.031-.039.098-.07.148-.07s.113-.035.148-.078.086-.074.113-.074.258-.121.516-.273l.492-.277a7.51 7.51 0 0 0 .68-.449l.25-.176.277-.199a2.96 2.96 0 0 1 .195-.148c.691-.5 1.93-1.684 2.477-2.371l.277-.332c.055-.062.133-.164.172-.227s.113-.145.156-.191.176-.227.301-.406l.281-.391c.035-.035.063-.086.063-.109s.074-.156.164-.285l.363-.59.199-.348c.137-.227.598-1.164.773-1.574l.207-.48c.051-.109.094-.23.094-.262s.023-.102.051-.148c.063-.105.301-.852.301-.937 0-.035.031-.125.074-.207s.074-.191.074-.254.031-.187.066-.277a1.95 1.95 0 0 0 .105-.41 3.9 3.9 0 0 1 .109-.48 1.28 1.28 0 0 0 .055-.449c-.012-.152-.02-.176-.027-.066M.422 27.676c.012.316.098.965.184 1.426l.125.672.422 1.902.371 1.199c.035.082.082.223.102.313s.055.176.078.191.047.063.047.109a1.1 1.1 0 0 0 .094.285l.203.5.203.5.172.402c.145.344.98 1.977 1.031 2.023.016.016.105.156.199.32l1.383 2.105c.023.027.207.273.414.551 1.348 1.797 3.566 3.887 5.555 5.23l.379.27a4.98 4.98 0 0 0 .324.211l.793.488c.586.363 2.785 1.469 2.938 1.477.02 0 .129.047.238.098s.23.098.266.098.129.035.199.078c.141.078.238.113 1.16.418 1.094.363 2.652.758 2.988.758.082 0 .211.023.289.051.301.102 1.793.289 1.574.195-.066-.027-.359-.074-.648-.102s-.566-.074-.613-.098-.277-.066-.512-.094-.465-.07-.516-.094-.223-.062-.387-.082-.328-.059-.355-.082-.168-.059-.301-.078a1.54 1.54 0 0 1-.371-.094c-.066-.035-.227-.078-.348-.098s-.27-.07-.324-.109a.55.55 0 0 0-.227-.07c-.07 0-.215-.043-.324-.098s-.25-.098-.312-.098-.121-.023-.137-.047-.102-.062-.191-.082a2.05 2.05 0 0 1-.359-.121l-.426-.176-.426-.176-.449-.203-.605-.277c-.199-.094-.383-.168-.414-.168s-.055-.02-.055-.039-.152-.113-.34-.203l-.535-.289-.277-.156a.76.76 0 0 1-.125-.078c-.043-.039-.629-.395-.965-.586a.95.95 0 0 1-.184-.129c-.027-.027-.152-.117-.277-.191l-.449-.309-1.441-1.109-.707-.621-.648-.586c-.18-.168-.344-.305-.363-.305s-.039-.02-.039-.047-.105-.152-.238-.285l-.586-.645-.398-.453c-.508-.543-1.148-1.387-1.801-2.371l-.277-.398a1.53 1.53 0 0 1-.098-.16l-.461-.73c-.023-.012-.039-.047-.039-.078s-.082-.18-.176-.324-.191-.32-.207-.387-.047-.121-.07-.121-.055-.066-.074-.148-.062-.172-.102-.203-.074-.082-.074-.109c0-.07-.25-.582-.301-.617-.027-.016-.047-.066-.047-.113s-.047-.168-.102-.273-.098-.215-.098-.254-.035-.098-.074-.129-.086-.125-.105-.211a1.21 1.21 0 0 0-.102-.281c-.039-.074-.07-.164-.07-.203a.61.61 0 0 0-.07-.199c-.102-.199-.281-.676-.281-.758 0-.043-.047-.164-.098-.273s-.098-.254-.098-.316a.84.84 0 0 0-.07-.25c-.039-.074-.086-.215-.105-.309a1.78 1.78 0 0 0-.078-.277c-.062-.129-.246-.969-.398-1.801l-.109-.523a6.48 6.48 0 0 1-.09-.684c-.039-.398-.082-.687-.172-1.09-.012-.055-.016.035-.008.199m49.094.574a6.26 6.26 0 0 0-.094.625c-.016.191-.062.445-.102.563s-.07.301-.07.406a1.49 1.49 0 0 1-.066.387 2.65 2.65 0 0 0-.105.465c-.02.148-.055.316-.086.367s-.066.199-.09.328-.066.301-.094.383l-.133.402-.125.426c-.059.234-.199.645-.285.805-.035.074-.066.16-.066.195s-.043.156-.094.27l-.18.43-.152.375-.199.449-.977 1.949a3.09 3.09 0 0 0-.16.277c-.062.117-.219.371-.461.75l-.344.523-.469.684-.559.773-.48.617-.555.625c-.445.512-1.707 1.777-2.148 2.152l-.551.473-.605.5c-.012 0-.176.125-.367.277l-.375.273c-.016 0-.125.074-.238.168a2.22 2.22 0 0 1-.262.188c-.129.055-.422.258-.422.301 0 .023-.023.043-.051.043s-.16.074-.289.164-.293.191-.363.227c-.141.074-.227.125-.547.332-.23.148-1.965 1.039-2.133 1.094-.051.02-.129.051-.168.078-.074.043-.371.168-.801.332l-.426.176a2.08 2.08 0 0 1-.363.121c-.086.02-.16.055-.16.082s-.051.047-.113.047-.211.047-.332.098-.266.102-.324.102-.168.031-.238.07-.227.086-.344.105a1.6 1.6 0 0 0-.34.102.69.69 0 0 1-.27.07 1.07 1.07 0 0 0-.328.078c-.102.039-.32.094-.488.121l-.523.098a14.88 14.88 0 0 1-1.398.23c-.641.082-1.074.188-.625.152a16.18 16.18 0 0 0 1.523-.223l.523-.102a16.7 16.7 0 0 0 1.75-.402l.676-.199.477-.148.375-.148.32-.105c.023 0 .137-.043.25-.094l.504-.207c.301-.113.488-.195 1.148-.5.773-.355 1.535-.758 1.953-1.023l.574-.352.57-.367.652-.449c1.809-1.242 4.145-3.457 5.309-5.035l.75-1.023.742-1.137.438-.684c.188-.262 1.336-2.586 1.34-2.711 0-.023.047-.133.098-.242s.098-.23.098-.266a.55.55 0 0 1 .074-.176c.266-.406 1.18-3.57 1.18-4.074 0-.086.023-.215.051-.289s.074-.309.102-.516l.105-.629a1.65 1.65 0 0 0 .035-.375c-.016-.09-.035-.051-.078.148M22.648 49.633l.938.094a14.57 14.57 0 0 0 2.859 0l.953-.094c.152-.012-.129-.004-.625.012H23.25l-.602-.012" fill="rgb(59.607843%,75.686275%,87.45098%)"/><path d="M22.352.5c-.289.051-.676.098-.855.098s-.348.023-.375.051-.242.074-.473.102-.48.074-.547.102a3.02 3.02 0 0 1-.453.098l-.547.105-1.078.301c-.082.031-.238.074-.348.094s-.27.078-.352.121a.73.73 0 0 1-.281.078c-.07 0-.16.035-.191.078s-.113.074-.172.074-.195.047-.305.098-.234.098-.277.102a.35.35 0 0 0-.176.074c-.055.039-.129.074-.168.074s-.172.051-.297.109l-.434.195c-.781.352-2.324 1.145-2.398 1.23-.027.035-.105.086-.176.113-.137.059-.195.094-.559.34-.133.09-.258.164-.281.164s-.086.043-.133.098-.121.102-.156.102-.07.016-.078.039-.176.145-.367.277l-1.074.781-.754.613-.621.563C7.688 7.441 7.137 8 6.352 8.895l-.344.387c-.129.137-.832 1.059-1.008 1.32l-.227.313c-.09.105-.445.656-.484.746-.02.051-.059.09-.086.09s-.055.027-.055.059c0 .051-.223.418-.301.492a.88.88 0 0 0-.086.148 5.77 5.77 0 0 1-.184.324l-.262.477c-.078.152-.156.285-.176.301s-.047.086-.066.16-.062.16-.102.191-.082.121-.098.199-.051.148-.074.148-.059.066-.074.148-.066.172-.105.203-.07.098-.07.145-.047.164-.102.266-.098.219-.098.258-.035.094-.074.129-.086.125-.105.207a1.24 1.24 0 0 1-.102.285c-.039.074-.07.164-.07.203a.64.64 0 0 1-.074.199c-.086.152-.211.5-.277.762-.023.098-.078.242-.121.324s-.078.203-.078.273a.48.48 0 0 1-.066.223 1 1 0 0 0-.105.336c-.016.129-.055.25-.078.266s-.059.133-.074.262a2.47 2.47 0 0 1-.102.438c-.063.188-.102.379-.227 1.125l-.105.523c-.027.109-.07.426-.098.699l-.098.676c-.16.543-.16 5.117.004 5.66.027.102.074.406.098.676l.094.715.109.523.398 1.801a1.78 1.78 0 0 1 .078.277c.02.094.066.234.105.309a.84.84 0 0 1 .07.25c0 .063.043.203.098.316s.098.23.098.273c0 .082.18.559.281.758a.61.61 0 0 1 .07.199c0 .039.031.129.07.203a1.21 1.21 0 0 1 .102.281c.02.086.066.18.105.211s.074.09.074.129.043.152.098.254.102.227.102.273.02.098.047.113c.051.035.301.547.301.617 0 .027.035.074.074.109s.086.125.102.203.051.148.074.148.055.055.07.121.109.238.207.387.176.293.176.324.016.066.039.078c.035.012.242.344.461.73a1.53 1.53 0 0 0 .098.16c.016.012.141.191.277.398.652.984 1.293 1.828 1.801 2.371l.398.453.586.645c.133.133.238.262.238.285s.016.047.039.047.184.137.363.305l.648.586.707.621c.234.211.648.527 1.441 1.109l.449.309c.125.074.25.164.277.191a.95.95 0 0 0 .184.129l.965.586a.76.76 0 0 0 .125.078 5.13 5.13 0 0 1 .277.156c.109.07.352.199.535.289s.34.18.34.203.023.039.055.039.215.074.414.168l.605.277.449.203.426.176.426.176a2.05 2.05 0 0 0 .359.121c.09.02.176.055.191.082s.078.047.137.047.199.047.313.098.254.098.324.098a.55.55 0 0 1 .227.07c.055.039.199.086.324.109s.281.063.348.098a1.54 1.54 0 0 0 .371.094c.133.02.27.051.301.078s.188.059.355.082.34.055.387.082.285.066.523.094.457.066.484.09.254.063.5.082.57.066.715.105a2.27 2.27 0 0 0 .527.066l1.289.059c1.086.066 3.469-.004 3.949-.113a12.23 12.23 0 0 1 .773-.121L30 49.195l.523-.098c.168-.027.387-.082.488-.121a1.07 1.07 0 0 1 .328-.078.69.69 0 0 0 .27-.07 1.6 1.6 0 0 1 .34-.102c.117-.02.27-.066.344-.105s.18-.07.238-.07.207-.047.324-.102.27-.098.332-.098.113-.023.113-.047.074-.062.16-.082a2.08 2.08 0 0 0 .363-.121l.426-.176.801-.332c.039-.027.117-.059.168-.078.168-.055 1.902-.945 2.133-1.094l.547-.332c.07-.035.234-.137.363-.227s.262-.164.289-.164.051-.02.051-.043c0-.043.293-.246.422-.301a2.22 2.22 0 0 0 .262-.187c.113-.094.223-.168.238-.168s.188-.125.375-.273l.367-.277c.027 0 .195-.141.605-.5l.551-.473c.441-.375 1.703-1.641 2.148-2.152l.555-.625a9.78 9.78 0 0 0 .48-.617l.559-.773.469-.684.344-.523.461-.75a3.09 3.09 0 0 1 .16-.277c.109-.168.77-1.492.977-1.949l.199-.449c.039-.082.105-.254.152-.375l.18-.43c.051-.113.094-.234.094-.27s.031-.121.066-.195c.086-.16.227-.57.285-.805.023-.098.078-.289.125-.426l.133-.402c.027-.082.07-.254.094-.383s.063-.277.09-.328.066-.219.086-.367a2.65 2.65 0 0 1 .105-.465 1.49 1.49 0 0 0 .066-.387c0-.105.031-.285.07-.406a3.4 3.4 0 0 0 .105-.586c.016-.207.066-.504.102-.66a3.33 3.33 0 0 0 .074-.672 9.45 9.45 0 0 1 .074-.992 15.54 15.54 0 0 0 0-2.953c-.043-.328-.074-.801-.074-1.051s-.031-.551-.07-.672a3.47 3.47 0 0 1-.102-.625c-.023-.223-.07-.496-.109-.617a1.56 1.56 0 0 1-.07-.406 1.06 1.06 0 0 0-.055-.336 5.31 5.31 0 0 1-.121-.492l-.262-1.055a1.34 1.34 0 0 1-.086-.32c-.02-.125-.062-.254-.09-.289s-.066-.148-.09-.25a4.22 4.22 0 0 0-.281-.82c-.035-.07-.066-.16-.066-.199s-.043-.152-.098-.254-.102-.227-.102-.273-.035-.133-.078-.187-.07-.125-.07-.156c0-.109-1.082-2.359-1.16-2.422-.02-.016-.059-.082-.09-.148-.059-.125-.125-.246-.453-.773l-.227-.379c-.031-.055-.094-.137-.141-.187s-.082-.109-.082-.129c0-.031-.187-.32-.25-.383-.012-.012-.094-.125-.176-.25l-.348-.48c-.07-.086-.125-.184-.125-.211s-.02-.059-.047-.059-.125-.117-.223-.262c-.16-.242-.227-.324-.547-.687l-.457-.523-.602-.656-.379-.398c-.137-.152-.812-.777-1.297-1.195l-.355-.32c-.187-.191-1.125-.906-1.187-.906-.027 0-.055-.016-.066-.035a10.74 10.74 0 0 0-1.215-.863c-.012 0-.117-.062-.234-.141l-.465-.301-.305-.195c-.062-.047-.262-.156-.82-.449l-.5-.266c-.082-.047-.668-.316-1.078-.496l-.453-.207c-.113-.055-.242-.098-.285-.098s-.09-.02-.105-.043-.09-.059-.168-.078-.203-.066-.285-.105c-.184-.082-.547-.215-.75-.27-.086-.023-.234-.078-.336-.121a.94.94 0 0 0-.305-.082c-.062 0-.16-.031-.215-.074a.43.43 0 0 0-.195-.074c-.055 0-.246-.043-.426-.094L30.352.926l-.676-.125-.527-.109c-.121-.027-.453-.07-.734-.094s-.598-.07-.699-.105C27.363.379 22.996.387 22.352.5m4.898.098c1.047.066 1.629.141 2 .25.18.055.539.121.801.152.5.063.727.113.977.227.082.039.285.09.449.117s.434.094.598.156l.625.195c.18.051.453.148.605.223s.313.133.348.133c.098 0 .508.156.598.227.043.031.234.113.426.176s.379.148.414.184.129.078.199.094a21.23 21.23 0 0 1 1.918.977c.074.051.148.094.168.094s.152.078.297.176.281.172.301.172.145.082.277.176.262.176.289.176.078.035.109.074c.051.063.563.422.848.602 1.004.625 3.332 2.801 4.41 4.125l.297.348a5.05 5.05 0 0 1 .184.25c.082.125.207.285.27.355l.168.207.238.344.777 1.141.363.605.32.574.305.574c.07.152.16.309.195.352s.113.207.172.375.137.328.168.367c.07.086.402.863.566 1.328.066.191.141.371.164.402.066.09.258.656.258.77 0 .055.043.188.094.293s.133.359.18.563a7.23 7.23 0 0 0 .203.711c.063.184.145.531.176.773s.102.574.152.738c.125.395.18.762.246 1.68l.133 1.199c.117.613.113 2.938-.004 3.574-.047.25-.105.777-.133 1.176-.055.855-.117 1.27-.25 1.664-.055.156-.098.348-.102.422 0 .246-.133.898-.215 1.07-.043.094-.113.344-.152.559s-.129.516-.195.676-.148.398-.18.535-.113.363-.176.5-.145.352-.176.473-.125.363-.203.527l-.602 1.324c-.039.098-.094.199-.129.227s-.086.133-.117.234a1.68 1.68 0 0 1-.168.348c-.059.094-.172.293-.246.449s-.156.297-.184.313-.102.152-.176.305-.156.273-.176.273-.078.086-.117.188a1.95 1.95 0 0 1-.219.375l-.316.445-.887 1.219-.785.949c-.348.414-2.148 2.211-2.496 2.5l-.352.293c-.258.227-1.176.934-1.211.934-.023 0-.098.055-.168.117s-.32.25-.551.41l-.453.316c-.012.016-.125.086-.25.148a2.96 2.96 0 0 0-.297.184c-.043.035-.195.129-.34.207l-.598.328-.648.336c-.168.082-.32.172-.336.195s-.199.109-.406.184-.375.152-.375.172-.117.074-.262.125a8.77 8.77 0 0 0-.613.254c-.191.09-.426.18-.52.199s-.254.078-.352.125-.352.137-.566.195-.449.133-.523.172c-.141.074-.582.195-.922.254a1.32 1.32 0 0 0-.332.105c-.168.086-.453.141-1.105.223-.23.027-.445.07-.477.098-.105.086-1.145.23-1.98.277l-.625.043c-.82.156-2.059.16-3.672.016l-1.523-.137c-.332-.027-.723-.086-.875-.129-.371-.102-.586-.148-1.172-.242a3.48 3.48 0 0 1-.645-.152c-.082-.039-.316-.105-.527-.148-.496-.094-.68-.148-.816-.246a.48.48 0 0 0-.223-.078c-.062 0-.254-.055-.43-.121l-.512-.195-.422-.141c-.117-.035-.266-.102-.324-.148s-.172-.098-.254-.117A3.18 3.18 0 0 1 15 47.43c-.18-.09-.414-.191-.523-.227s-.234-.094-.277-.133-.219-.133-.398-.219c-.445-.211-.91-.465-.992-.539a1.13 1.13 0 0 0-.25-.141c-.102-.043-.227-.117-.281-.168s-.203-.145-.328-.203-.266-.148-.316-.191-.164-.125-.258-.184c-.297-.176-1-.672-1.18-.824-.211-.184-.203-.176-.57-.445l-.402-.324c-.059-.059-.227-.207-.375-.332l-.426-.375-1.43-1.43-1.434-1.691a2.88 2.88 0 0 0-.223-.277c-.074-.082-.137-.168-.137-.191s-.059-.117-.125-.203c-.199-.246-.574-.766-.574-.801 0-.016-.078-.141-.176-.273l-.176-.285c0-.02-.07-.152-.16-.293l-.465-.781-.277-.5-.172-.348c-.039-.098-.094-.211-.121-.25a12.99 12.99 0 0 1-.555-1.207c0-.027-.078-.211-.172-.406s-.176-.383-.176-.418-.066-.227-.148-.43-.172-.477-.203-.613a2.85 2.85 0 0 0-.156-.457 3.57 3.57 0 0 1-.172-.566c-.039-.195-.129-.52-.191-.719s-.148-.574-.18-.836a9.18 9.18 0 0 0-.176-.949 8.7 8.7 0 0 1-.172-1.125l-.113-1.398-.063-1.652c0-.824.02-1.195.18-3.074.055-.68.129-1.145.195-1.227.023-.027.09-.375.145-.77s.148-.812.203-.934.109-.324.129-.457.09-.395.156-.586l.223-.695.188-.551c.051-.113.145-.363.207-.555s.141-.383.172-.426.094-.164.125-.273a29.99 29.99 0 0 1 .902-1.926c.027-.043.086-.156.129-.25a3.29 3.29 0 0 1 .227-.391c.078-.117.145-.234.145-.254s.066-.133.148-.246a5.34 5.34 0 0 0 .277-.453c.07-.137.164-.277.203-.309s.07-.082.07-.109.086-.16.188-.293l.363-.5.41-.566.449-.578.246-.301c.02-.016.105-.113.188-.219a35.21 35.21 0 0 1 1.309-1.43l1.195-1.102.766-.645a6.42 6.42 0 0 0 .531-.422c.344-.297 1.77-1.242 2.422-1.609l.461-.281c.109-.07.25-.145.316-.168s.211-.102.332-.18.238-.145.27-.145c.051 0 .391-.164.973-.461a3.78 3.78 0 0 1 .473-.195 2.51 2.51 0 0 0 .387-.168c.059-.039.273-.121.477-.184s.449-.152.547-.199a3.46 3.46 0 0 1 .551-.191 3.33 3.33 0 0 0 .531-.176c.086-.043.336-.113.551-.156s.555-.129.75-.195.57-.145.824-.172l.641-.102.453-.121c.262-.07.977-.137 2.473-.23.762-.047 2.527-.023 3.676.047m3.301 14.508c-.07.027-.391.105-.715.168s-.637.148-.699.188-.234.121-.387.184c-1.289.539-2.848 2.184-3.121 3.289a5.16 5.16 0 0 1-.176.492c-.168.43-.27 1.313-.246 2.215.02.758-.035.789-.934.559a9.91 9.91 0 0 0-.832-.121c-.379-.043-.781-.125-1.004-.199-.203-.07-.414-.129-.473-.129-.129 0-.656-.168-.859-.273-.082-.043-.195-.078-.254-.078s-.289-.086-.516-.195a4.32 4.32 0 0 0-.57-.227c-.09-.02-.238-.086-.332-.148a1.94 1.94 0 0 0-.348-.176c-.102-.031-.258-.109-.348-.172s-.293-.172-.441-.246-.406-.223-.57-.332l-.453-.281c-.164-.094-.773-.535-1.363-.992-.211-.164-.84-.754-1.398-1.312l-1.102-1.016c-.16 0-.488.324-.555.555-.035.117-.117.324-.18.465-.367.801-.406 3.016-.066 3.855l.219.594c.066.191.152.383.191.426a1.73 1.73 0 0 1 .176.281c.137.258.398.621.695.961.336.391.336.434-.012.395-.285-.035-.68-.164-.68-.227 0-.043-.41-.156-.566-.156-.246 0-.348.203-.309.609.059.586.215 1.441.289 1.559.039.059.121.254.188.434s.141.359.172.398.125.188.203.324.176.285.211.32.125.152.188.25c.352.551 1.379 1.406 2.059 1.715.52.234.48.352-.113.336l-.68-.016c-.281-.004-.352.051-.352.285 0 .219.195.766.348.965a.65.65 0 0 1 .113.203c0 .078.516.75.902 1.18a7.53 7.53 0 0 0 1.25.965c.094.047.207.113.25.148s.129.078.199.102.258.102.422.184.48.18.703.219c.672.121.781.25.383.453-.102.051-.25.145-.332.211-.125.102-.547.313-1.453.734a3.51 3.51 0 0 1-.473.172c-.125.031-.344.113-.488.18a2.69 2.69 0 0 1-.625.172c-.199.023-.496.094-.664.152-.359.129-1.117.191-2.398.199-.832.008-1.473.07-.949.098l.676.047c.293.023.738.012 1.172-.027l.977-.09c.316-.027 1.027-.168 1.176-.234.055-.023.211-.066.348-.098s.27-.07.301-.094.141-.059.25-.078.242-.066.297-.105.137-.07.176-.07.168-.043.277-.098l1.551-.805.254-.141c.055-.027.129-.082.168-.125s.094-.082.125-.082.102-.047.152-.102.125-.098.168-.098c.25 0-.156-.121-.762-.23-.219-.035-.422-.09-.449-.117s-.109-.055-.18-.055a.87.87 0 0 1-.316-.098c-.102-.055-.215-.102-.254-.102s-.094-.031-.129-.07-.113-.082-.184-.102-.187-.074-.262-.125l-.434-.285c-.559-.359-1.496-1.375-1.762-1.918l-.105-.199c-.043-.066-.195-.391-.32-.68a.49.49 0 0 1-.027-.227c.02-.133-.047-.129 1.008-.062.379.023.559.008.809-.059.309-.082.391-.172.156-.172a.43.43 0 0 1-.211-.074.36.36 0 0 0-.16-.074c-.062-.004-.48-.191-.684-.316-1.25-.742-2.051-1.664-2.656-3.062-.199-.457-.387-1.34-.391-1.824l-.004-.375.156-.016c.09-.008.238.031.352.09.105.055.215.102.25.102s.121.031.199.07c.355.172 1.316.367 1.316.266 0-.02-.207-.242-.465-.496s-.574-.633-.707-.84l-.332-.512c-.051-.074-.094-.16-.094-.187a.88.88 0 0 0-.098-.242c-.156-.305-.246-.539-.281-.742a.82.82 0 0 0-.078-.246c-.039-.047-.109-.539-.176-1.246-.031-.32.102-1.602.176-1.691.023-.031.059-.145.078-.25a1.85 1.85 0 0 1 .102-.352l.18-.43c.242-.574.348-.609.68-.215.449.539 1.598 1.648 2.141 2.078.027.02.129.105.227.191a4.15 4.15 0 0 0 .41.305c.133.086.238.176.238.199s.023.039.051.039.164.078.301.176l.273.176c.016 0 .133.074.266.164s.293.191.359.223l.277.156c.32.203 1.773.906 1.871.906.035 0 .121.031.195.07.203.105.676.281.758.281a.67.67 0 0 1 .215.07c.074.043.223.09.324.109s.246.063.32.102a.8.8 0 0 0 .289.066c.086 0 .23.031.32.07s.285.086.434.105.383.063.523.102c.246.066.977.16 1.645.207.34.023.344.023.309-.09-.145-.492-.16-1.828-.027-2.168.031-.082.074-.262.098-.402.063-.363.18-.684.461-1.258.246-.5.328-.637.5-.82.051-.055.09-.117.09-.148 0-.348 2.297-1.996 2.785-1.996.051 0 .117-.023.145-.051s.195-.078.371-.105.352-.078.383-.105c.09-.07 1.445-.105 1.84-.047.492.074 1.043.203 1.098.262.027.023.094.047.152.047a.63.63 0 0 1 .234.07c.07.035.211.094.313.129s.18.078.18.105.035.043.074.043c.066 0 .445.219.523.301a3.73 3.73 0 0 0 .227.16c.109.078.324.25.477.391l.273.254.336-.02c.188-.012.367-.047.406-.078s.168-.078.289-.102c.25-.055.645-.184.875-.285.09-.039.191-.07.234-.07s.098-.031.129-.07.133-.082.227-.102.195-.062.23-.105.086-.07.117-.07A2.04 2.04 0 0 0 39 15.84c.016-.02.082-.059.152-.086.117-.043.113-.047-.055-.051-.109 0-.219.035-.277.09s-.234.141-.398.203-.332.141-.371.176c-.086.07-.496.227-.598.227-.039 0-.191.059-.344.133-.324.152-1.211.34-1.395.297-.066-.02-.227-.129-.355-.246-.293-.262-.52-.43-.809-.586a2.04 2.04 0 0 1-.312-.207c-.047-.051-.129-.09-.176-.09s-.234-.074-.414-.168a2.09 2.09 0 0 0-.613-.203c-.16-.02-.484-.09-.723-.156-.473-.129-1.508-.168-1.762-.066m8.785.629c.086.031.082.293-.004.457l-.281.559a6.27 6.27 0 0 1-1.551 1.871l-.176.133.352-.02c.359-.023.879-.141 1.156-.266.086-.039.188-.07.223-.07.074 0 .531-.172.781-.289.125-.062.184-.066.285-.02s.121.043.098-.016c-.051-.129-1.039.059-1.34.25a3.31 3.31 0 0 1-.809.227c-.125 0-.074-.168.113-.375.332-.367.711-.863.82-1.07a1.21 1.21 0 0 1 .145-.23c.02-.012.09-.164.152-.336s.145-.348.184-.395c.125-.148.012-.457-.164-.441-.023.004-.016.016.016.031m.789 2.617c-.043.082-.098.148-.125.148s-.051.023-.051.055c0 .191-1.582 1.844-2.223 2.324-.449.336-.414.207-.422 1.492-.008 1.105-.047 1.609-.152 1.98-.031.094-.051.27-.051.383s-.035.309-.074.426-.086.328-.105.465a1.95 1.95 0 0 1-.105.41c-.035.09-.066.215-.066.277s-.035.176-.074.254-.074.172-.074.207c0 .086-.238.832-.301.938-.027.047-.051.113-.051.148s-.043.152-.094.262l-.207.48c-.176.41-.637 1.348-.773 1.574l-.199.348c-.086.176-.141.262-.363.59-.09.129-.164.258-.164.285s-.027.074-.062.109-.16.215-.281.391l-.301.406c-.043.047-.113.133-.156.191s-.117.164-.172.227l-.277.332c-.547.688-1.785 1.871-2.477 2.371l-.195.148c-.027.027-.152.117-.277.199l-.25.176a7.51 7.51 0 0 1-.68.449 6.59 6.59 0 0 0-.492.277l-.516.273c-.027 0-.078.035-.113.074s-.102.078-.148.078-.117.031-.148.07a.46.46 0 0 1-.215.105c-.086.02-.187.066-.227.105s-.102.066-.141.066a.88.88 0 0 0-.258.102c-.102.055-.234.098-.293.098s-.137.035-.168.078-.113.074-.172.074-.172.035-.254.078-.242.098-.352.121a5.95 5.95 0 0 0-.426.117c-.398.129-.77.227-1.012.258-.129.016-.246.051-.262.074s-.211.055-.437.074-.437.059-.465.082-.391.066-.801.09l-1.398.105c-.531.047-.82.043-1.598-.023l-2.566-.344c-.035-.023-.211-.062-.395-.09s-.355-.066-.387-.09-.141-.059-.25-.078-.262-.066-.336-.105-.187-.07-.254-.07a1.05 1.05 0 0 1-.312-.102 1.04 1.04 0 0 0-.301-.098c-.055-.004-.145-.035-.195-.078s-.133-.074-.172-.074c-.066 0-.441-.156-.609-.254-.039-.023-.105-.059-.148-.074-.117-.043-.516-.227-.602-.277a1.64 1.64 0 0 0-.199-.094c-.176-.074-.207-.09-.375-.195l-.449-.254c-.164-.09-.352-.219-.414-.293l-.117-.133.082.164c.043.09.098.16.125.16s.133.078.238.168a1.83 1.83 0 0 0 .434.277c.137.063.285.137.324.172s.215.117.379.184.328.148.363.184.129.082.203.102.289.102.484.191.457.188.594.219a2.66 2.66 0 0 1 .449.164 2.66 2.66 0 0 0 .555.176c.191.043.453.117.574.172s.383.121.578.145l1.148.199.574.105c.438.07 3.805.066 4.125 0l1.676-.301c.207-.027.449-.086.539-.129s.383-.129.648-.184.508-.117.539-.145.234-.102.457-.172.504-.18.625-.246a2.07 2.07 0 0 1 .34-.152c.133-.035.938-.43 1.414-.691l.551-.305c.145-.078.297-.176.336-.215a2.96 2.96 0 0 1 .281-.207c.547-.355.754-.508.867-.629.066-.07.148-.129.184-.129s.082-.031.105-.062.152-.152.289-.262c.316-.254 1.664-1.605 1.855-1.859.078-.105.184-.223.23-.258s.09-.086.09-.113.063-.121.145-.211c.266-.293.551-.699.93-1.32a3.12 3.12 0 0 1 .18-.258c.043-.051.141-.215.215-.363l.336-.621.273-.523.242-.523.258-.602c.047-.137.117-.285.152-.328s.098-.223.133-.398a2.64 2.64 0 0 1 .176-.531 1.55 1.55 0 0 0 .137-.426c.043-.285.164-.727.25-.922.039-.086.105-.426.148-.75l.129-.844c.125-.598.191-1.305.195-2.047 0-.895.031-.992.395-1.23.617-.406 2.125-2.062 2.273-2.488.082-.246.066-.27-.043-.059" fill="rgb(47.843137%,68.627451%,82.352941%)"/><path d="M23.477.207c-.113.027-.473.07-.801.098s-.75.078-.937.121-.43.074-.547.074-.297.023-.391.055a7.88 7.88 0 0 1-.602.121l-1.371.266c-.027.027-.164.059-.297.078s-.27.051-.301.074-.184.07-.344.105-.297.078-.312.105-.09.047-.164.047a.73.73 0 0 0-.301.098c-.09.055-.215.102-.281.102s-.184.035-.262.074-.199.098-.266.125a1.64 1.64 0 0 0-.199.094c-.043.027-.258.105-.477.176s-.406.152-.418.18-.062.051-.117.051-.16.031-.23.07l-.977.488-1.176.621c-.035.047-.066.07-.531.348l-1.652 1.086-.398.301-.551.387a2.83 2.83 0 0 0-.426.348 9.6 9.6 0 0 1-.523.477c-.383.316-1.922 1.855-2.254 2.25l-.477.523c-.121.125-.277.316-.344.426s-.234.352-.375.531l-.324.441-.191.27c-.066.086-.266.383-.445.66l-.422.633c-.051.074-.094.156-.094.176s-.082.152-.187.289-.277.43-.387.648-.227.43-.262.465-.062.109-.062.16-.031.117-.074.148-.086.125-.102.203-.062.172-.102.203-.074.094-.074.133-.043.152-.098.254c-.168.32-.301.641-.301.723 0 .047-.02.094-.043.109s-.059.113-.074.223-.066.223-.109.258-.074.086-.074.117a1 1 0 0 1-.102.246c-.055.102-.098.23-.098.285s-.047.191-.102.301-.098.246-.098.313-.023.137-.047.164c-.047.051-.176.488-.266.898-.027.137-.082.32-.121.406a.83.83 0 0 0-.066.285c0 .07-.031.227-.07.344a3.4 3.4 0 0 0-.105.586c-.02.207-.055.414-.082.465s-.066.293-.094.551-.07.543-.098.637-.066.457-.086.801c-.02.395-.055.66-.098.723-.102.148-.098 3.293.004 3.563.035.105.082.449.098.766a6.24 6.24 0 0 0 .102.875c.043.164.078.422.078.574s.035.363.074.473.086.359.105.551.063.449.102.566.07.281.07.367a.8.8 0 0 0 .066.285c.039.074.094.246.121.383.086.41.168.691.242.84.039.078.07.188.07.242a.9.9 0 0 0 .098.293c.055.109.102.25.102.32s.02.137.047.152.07.113.105.215.09.223.125.262a.73.73 0 0 1 .098.266c.02.102.055.199.078.215s.047.063.047.109.047.184.102.309l.355.754a1.03 1.03 0 0 1 .07.148c.082.207.297.629.332.641.023.012.039.059.039.105s.043.145.094.211a.91.91 0 0 1 .121.207c.02.047.141.25.273.449l.508.82.203.316c.047.043.25.344.25.375 0 .016.086.137.188.273l.465.629.324.441c.027.031.109.148.184.262a3.26 3.26 0 0 0 .352.426l.465.52a36.26 36.26 0 0 0 2.121 2.125l.547.5c.129.125.496.418.82.652l.801.574.762.523c.016 0 .055.023.09.051s.211.148.395.262l.938.594c.238.156.609.344.684.344.039 0 .07.023.07.051s.039.066.086.082a10.85 10.85 0 0 1 .496.223l.457.195c.023 0 .074.031.109.074s.105.074.156.074.164.043.254.102.203.098.246.098.148.035.227.074a.62.62 0 0 0 .219.078c.039 0 .141.043.223.098s.188.102.23.102a.21.21 0 0 1 .145.074c.035.043.117.074.184.074s.211.047.316.102.25.098.313.098a.44.44 0 0 1 .215.07.93.93 0 0 0 .316.105 1.41 1.41 0 0 1 .348.105c.074.039.215.07.309.07s.219.035.27.074.219.086.375.105.305.051.332.07.207.051.402.07.461.066.594.105.336.074.449.074.352.035.527.078a8.24 8.24 0 0 0 .953.125c.344.023.715.074.824.105.289.094 3.297.09 3.676 0 .148-.035.543-.086.875-.109s.746-.078.922-.121.418-.078.531-.078a1.74 1.74 0 0 0 .445-.074c.133-.039.402-.086.598-.105s.375-.051.402-.07.172-.051.32-.07.332-.066.41-.109.203-.07.281-.07a.71.71 0 0 0 .273-.07 1.36 1.36 0 0 1 .348-.105 1.08 1.08 0 0 0 .328-.105.48.48 0 0 1 .215-.07c.055 0 .191-.043.301-.098s.234-.102.289-.102.227-.066.387-.152.477-.211.699-.285l.5-.187a.84.84 0 0 1 .234-.094c.078-.02.141-.055.141-.082s.035-.047.074-.047c.066 0 .281-.098.574-.262l.199-.09c.07-.027.16-.074.199-.102a.94.94 0 0 1 .152-.078c.039-.016.109-.047.148-.074a4.24 4.24 0 0 1 .227-.125c.234-.121.355-.195.449-.27.047-.039.125-.098.176-.125l.848-.523.301-.199a11.33 11.33 0 0 0 .617-.426l.602-.43 1.039-.781c.074-.078.297-.289.5-.469.898-.789 2.695-2.668 3.094-3.227l.523-.73.809-1.168.324-.484c.051-.074.094-.156.094-.184s.09-.16.199-.301.199-.285.199-.328.023-.078.047-.078.266-.441.531-.984l.672-1.457c0-.031.02-.098.047-.145s.105-.258.184-.461.172-.406.207-.441a.3.3 0 0 0 .063-.176c0-.062.047-.195.102-.297s.098-.254.098-.332.035-.172.074-.203.086-.164.105-.289.066-.285.102-.359a.66.66 0 0 0 .07-.27.69.69 0 0 1 .07-.273c.039-.078.086-.25.105-.387s.063-.293.09-.348.066-.258.086-.453l.09-.625.262-1.672.105-.875c.09-.52.09-3.633 0-4.152-.035-.207-.082-.609-.105-.898s-.082-.672-.125-.852-.078-.418-.078-.531-.035-.301-.074-.418a1.48 1.48 0 0 1-.074-.43c0-.121-.035-.312-.07-.43s-.086-.316-.105-.441-.066-.273-.105-.336a.59.59 0 0 1-.07-.273c0-.09-.031-.227-.07-.297a1.22 1.22 0 0 1-.102-.336c-.02-.109-.066-.238-.105-.289s-.07-.156-.07-.23-.047-.223-.102-.324-.102-.223-.102-.266-.066-.215-.152-.375-.211-.477-.281-.699-.16-.434-.199-.477a.35.35 0 0 1-.066-.184c0-.059-.035-.141-.074-.18s-.074-.098-.074-.125c0-.07-.266-.578-.312-.602-.023-.008-.039-.047-.039-.086 0-.098-.457-.973-.508-.973-.023 0-.043-.035-.043-.078s-.078-.176-.176-.293-.172-.23-.172-.254c0-.039-.199-.355-.566-.898l-.648-.949-.125-.164-.336-.465a9.2 9.2 0 0 0-.598-.738l-1.672-1.777-1.824-1.645-.309-.227-1.699-1.191-.633-.426c-.078-.051-.156-.094-.184-.094s-.148-.078-.277-.18c-.227-.172-.852-.516-1.43-.793l-.41-.203c-.07-.039-.16-.074-.199-.074s-.121-.047-.191-.098-.164-.102-.215-.102a.5.5 0 0 1-.203-.074c-.059-.039-.277-.129-.484-.191s-.453-.164-.547-.211c-.387-.199-.445-.223-.547-.223-.059 0-.187-.047-.289-.102s-.238-.098-.297-.098-.172-.035-.25-.078-.195-.074-.258-.074-.18-.035-.262-.074-.254-.09-.387-.109-.262-.047-.293-.074c-.055-.043-.598-.148-1.27-.246-.207-.031-.469-.086-.59-.125S29.027.5 28.887.5a2.97 2.97 0 0 1-.562-.074C28.16.387 27.742.34 27.398.32s-.656-.059-.695-.09c-.09-.074-2.945-.094-3.227-.023m3.379.145c.848.066 1.684.176 2.793.371l1.277.254.676.172.574.172c.082.039.227.082.324.102.168.035.613.184.824.273l.602.23c1.465.551 2.668 1.145 4.004 1.973l1.402.926.348.25 1.273.996.547.48a30.43 30.43 0 0 1 2.199 2.223l.531.602a32.66 32.66 0 0 1 .969 1.301l.902 1.355c0 .012.039.082.094.16.301.434.465.723.875 1.535l.781 1.656c0 .023.047.133.098.242s.098.234.098.277.035.121.074.18c.082.113.168.344.359.941l.191.578c.039.094.117.352.176.574l.18.648c.125.453.273 1.16.273 1.316a.95.95 0 0 0 .051.285c.059.16.184.957.254 1.625l.125 1.098c.09.738.078 3.238-.02 3.977l-.109.898c-.07.672-.191 1.445-.25 1.598-.027.074-.051.203-.051.289 0 .504-.914 3.668-1.18 4.074a.55.55 0 0 0-.074.176c0 .035-.043.156-.098.266s-.098.219-.098.242c-.004.125-1.152 2.449-1.34 2.711-.098.137-.324.492-.437.684l-.742 1.137-.75 1.023c-1.164 1.578-3.5 3.793-5.309 5.035l-.652.449-.57.367-.574.352c-.418.266-1.18.668-1.953 1.023l-1.148.5-.504.207c-.113.051-.227.094-.25.094s-.168.047-.32.105l-.375.148-.477.148-.676.199a16.7 16.7 0 0 1-1.75.402l-.523.102c-.297.07-1.094.184-1.75.246l-1.273.125c-.953.094-2 .094-2.926 0l-1.25-.125c-.707-.066-1.543-.191-1.723-.25-.078-.027-.207-.051-.289-.051-.336 0-1.895-.395-2.988-.758l-1.16-.418c-.07-.043-.16-.074-.199-.078s-.156-.043-.266-.098l-.238-.098c-.152-.008-2.352-1.113-2.937-1.477l-.793-.488-.324-.211a9.01 9.01 0 0 0-.379-.27c-1.988-1.344-4.207-3.434-5.555-5.23l-.414-.551a28.36 28.36 0 0 1-1.383-2.105l-.199-.32c-.051-.047-.887-1.68-1.031-2.023l-.172-.402-.203-.5-.203-.5a1.1 1.1 0 0 1-.094-.285c0-.047-.02-.094-.047-.109s-.062-.102-.078-.191-.066-.23-.102-.312c-.059-.137-.121-.34-.371-1.199-.168-.578-.266-1.004-.422-1.902l-.125-.699c-.437-2.445-.437-5.594 0-8.098l.102-.602c.094-.617.492-2.266.617-2.559.039-.086.086-.242.105-.344s.066-.246.102-.316.07-.164.07-.207a.62.62 0 0 1 .074-.219c.039-.078.074-.164.074-.195s.043-.145.094-.258l.203-.504a31.01 31.01 0 0 1 1.105-2.387l.094-.176.617-1.035 1.086-1.625.504-.676.645-.801.652-.727A20.55 20.55 0 0 1 8.348 6.75l.766-.687.578-.473.297-.223a4.09 4.09 0 0 1 .336-.242c.145-.098.293-.211.328-.25s.09-.074.129-.074.07-.023.07-.047.043-.062.098-.078.129-.059.164-.094.266-.191.512-.352l.586-.387c.074-.051.152-.094.168-.094s.152-.074.289-.168c.211-.137.555-.328 1.23-.687l1.266-.59.375-.156c.02 0 .203-.07.41-.152l1.102-.402c.094-.031.195-.074.223-.098s.094-.047.148-.047.191-.039.305-.082l.375-.117.473-.125a17.97 17.97 0 0 1 1.824-.402l1.402-.227c1.27-.18 3.691-.25 5.055-.145m3.871 14.93l-.527.102c-.234.043-.496.109-.582.148s-.195.07-.238.07c-.141 0-.934.398-1.379.691-.777.512-1.656 1.516-1.996 2.281l-.18.402c-.371.797-.516 2.184-.344 3.32l.031.219-.52-.027-.816-.082-.652-.109c-.633-.102-1.473-.293-1.848-.418l-.551-.176c-.508-.16-1.043-.367-1.523-.59l-1.453-.723-.273-.16-.699-.445c-1.215-.793-2.477-1.891-3.453-3-.23-.262-.32-.332-.391-.305-.086.031-.434.684-.434.813 0 .031-.02.098-.047.145-.398.715-.383 2.938.031 3.895.035.086.066.176.066.199 0 .391 1.434 2.324 1.832 2.473.129.047.141.262.012.23-.066-.02-.285-.059-.492-.09a2.64 2.64 0 0 1-.539-.125c-.09-.039-.199-.07-.238-.07-.066 0-.375-.125-.691-.281-.367-.18-.398-.113-.305.613.313 2.395 2.012 4.43 4.16 4.988.266.066.266.09 0 .211-.184.082-.332.094-1.129.094l-.918-.004.027.172c.145.887 1.492 2.516 2.559 3.086l.199.109c.512.289 1.082.477 1.836.605s.75.199-.035.668l-.426.27a17.12 17.12 0 0 1-1.379.703l-.398.156a9.56 9.56 0 0 1-.625.211l-.5.16c-.578.223-2.035.406-3.234.41-1.156.004-1.227.023-.875.246.48.301 2.391 1.23 2.531 1.234.031 0 .113.031.184.066s.332.129.578.207l.645.199c.277.09.715.199 1.273.316 2.059.434 5.008.434 6.961.004l.512-.094a7.53 7.53 0 0 0 .953-.254l.473-.148c.84-.25 2.074-.805 3.051-1.367l.297-.164c.125-.062.816-.527 1.078-.727l.301-.23c1.438-1.102 2.766-2.527 3.711-3.984l.395-.609c.094-.141.191-.309.223-.375s.105-.207.168-.316a20.52 20.52 0 0 0 .977-2.051l.531-1.598.168-.598c.059-.191.102-.406.102-.484a1 1 0 0 1 .055-.277c.051-.129.129-.617.246-1.543.027-.191.047-.805.047-1.359.004-1.137-.023-1.055.441-1.398 1-.754 2.688-2.668 2.344-2.668-.031 0-.18.051-.332.105l-.512.176a1.73 1.73 0 0 0-.293.098c-.129.082-1.727.426-1.77.383-.012-.012.082-.117.211-.23.926-.816 1.371-1.359 1.766-2.16.398-.812.379-.836-.414-.441-.836.418-1.113.535-1.738.719l-.473.152c-.055.023-.254.07-.445.105-.383.066-.281.113-.941-.434-.543-.453-1.375-.914-1.891-1.047-.066-.016-.168-.051-.223-.074-.375-.16-1.836-.305-2.25-.219m1.324.148l.762.121a1.4 1.4 0 0 0 .273.098c.238.059.664.215.762.273.043.027.176.102.301.168.301.16.754.488 1.148.832.176.152.344.281.375.285.113.012.305-.02.352-.055.027-.02.16-.051.289-.07s.305-.066.387-.105a.68.68 0 0 1 .262-.078c.063 0 .203-.047.313-.098s.238-.098.281-.098a.37.37 0 0 0 .172-.078c.055-.039.125-.074.16-.074a2.15 2.15 0 0 0 .664-.309c0-.023.039-.043.09-.043s.133-.031.188-.066c.504-.352.395.113-.25 1.094-.234.348-.859.996-1.344 1.391-.437.359-.152.539.492.305.109-.039.277-.07.375-.07s.234-.035.313-.074.246-.094.375-.121a3.43 3.43 0 0 0 .773-.258c.246-.141.348-.039.176.184l-.289.359-.301.355c-.273.332-.82.863-1.23 1.195l-.504.426-.199.184-.031 1.063-.105 1.512c-.043.246-.078.555-.078.684s-.023.289-.051.352-.082.281-.121.488l-.273 1.172c-.023.027-.059.156-.078.277s-.059.25-.078.277-.066.141-.09.25-.094.313-.148.449l-.164.426c-.059.164-.098.25-.344.801-.055.129-.102.258-.102.289s-.023.059-.047.059-.059.066-.078.148a.45.45 0 0 1-.102.203c-.035.031-.082.121-.102.203s-.051.145-.074.145-.055.047-.074.102-.109.219-.203.363-.172.277-.172.297c0 .035-.121.23-.508.805l-.191.313c0 .012-.039.066-.086.117-.113.125-.156.18-.363.469-.09.129-.187.238-.211.238s-.039.02-.039.047-.039.094-.09.145l-.437.484a13.22 13.22 0 0 1-1.324 1.324l-.523.461a5.26 5.26 0 0 1-.488.371c-.184.125-.336.25-.336.273s-.023.043-.055.043-.211.109-.41.246l-.5.309c-.074.035-.137.082-.137.102s-.031.043-.066.043-.125.043-.187.094a1.01 1.01 0 0 1-.246.133c-.07.02-.137.051-.148.07-.023.027-.48.254-1.105.547-.129.059-.262.109-.301.109s-.113.035-.168.074-.129.074-.168.074a.78.78 0 0 0-.227.07 3.07 3.07 0 0 1-.367.129c-.117.027-.227.074-.242.102s-.098.047-.18.047-.215.035-.297.078-.254.09-.383.105-.277.051-.324.078c-.102.051-.703.172-1.215.242l-.855.129c-.625.09-3.555.105-3.945.02a9.8 9.8 0 0 0-.773-.125c-.582-.078-.961-.148-1.301-.25-.125-.039-.316-.082-.43-.098s-.273-.062-.352-.102-.203-.074-.277-.078-.148-.02-.164-.047-.125-.074-.242-.102-.281-.09-.367-.129-.184-.07-.215-.07-.137-.047-.238-.102-.215-.098-.246-.098a.69.69 0 0 1-.203-.074l-.617-.301-.891-.469-.414-.242 1.066-.031c.699-.02 1.164-.059 1.355-.109.16-.039.398-.074.535-.074s.305-.023.383-.055.277-.086.441-.121l.449-.117.59-.187c.238-.074.438-.156.438-.176 0-.027.047-.043.105-.043.098 0 .445-.141.645-.258a1.64 1.64 0 0 1 .199-.094 1.56 1.56 0 0 0 .199-.102 1.96 1.96 0 0 1 .184-.098c.063-.023.207-.109.328-.184l.539-.328c.488-.266.816-.637.648-.738-.031-.02-.266-.055-.516-.074s-.52-.066-.594-.105a.75.75 0 0 0-.25-.074c-.062 0-.203-.043-.316-.098s-.227-.098-.262-.098c-.09-.004-.918-.449-1.137-.613-.934-.699-1.434-1.293-1.937-2.297-.277-.551-.309-.531.77-.531 1.004-.004 1.395-.09 1.395-.312 0-.051-.285-.148-.434-.148-.066 0-.117-.02-.117-.043s-.062-.062-.137-.078c-.234-.059-1.137-.523-1.32-.68l-.418-.32c-.262-.199-.5-.441-.789-.805l-.285-.359c-.027-.031-.051-.074-.051-.094s-.031-.074-.07-.117c-.105-.121-.48-.863-.48-.953 0-.043-.031-.125-.074-.184s-.086-.203-.105-.324a1.78 1.78 0 0 0-.094-.344c-.078-.152-.141-1-.086-1.086.043-.066.234-.023.508.121.07.035.164.066.207.066s.148.035.227.074.176.074.219.074.211.035.375.078c.355.094.805.113.883.035.043-.043-.109-.223-.582-.695l-.777-.832c0-.02-.074-.141-.16-.273-.176-.254-.391-.664-.391-.746 0-.031-.031-.078-.066-.109s-.082-.133-.098-.219-.059-.262-.098-.387c-.18-.543-.203-.715-.223-1.566-.016-.687-.004-.941.055-1.125a3.4 3.4 0 0 0 .102-.453c.02-.121.066-.266.105-.324s.074-.148.074-.199c0-.121.234-.605.332-.687.063-.051.137.008.434.328.727.793 1.699 1.707 2.141 2.016l.254.215c.09.082.18.148.199.148s.063.027.098.063c.094.086.992.688 1.031.688.016 0 .063.031.109.07.16.141 1.875 1.031 1.988 1.027.035 0 .063.023.063.047s.074.063.164.082.207.066.262.102.133.07.176.07.16.047.262.102.238.098.301.102.156.031.211.074.148.074.211.074a1.43 1.43 0 0 1 .367.098c.137.055.313.102.391.102s.16.023.188.051c.051.047.5.148 1.145.254l.625.121a7.22 7.22 0 0 0 .93.102c.766.039.762.043.68-.574-.098-.738-.039-1.91.117-2.277.035-.086.082-.23.102-.324a1.12 1.12 0 0 1 .078-.25l.176-.402c.395-.941 1.422-2.066 2.367-2.594.391-.219.68-.355.75-.359.043 0 .121-.031.172-.074s.141-.074.195-.074.164-.031.25-.07.383-.094.656-.125l.523-.078c.043-.047.426-.027 1.105.055" fill="rgb(70.588235%,83.137255%,92.54902%)"/></svg>